<?xml version="1.0" encoding="utf-8"?>
<!-- Generator: Adobe Illustrator 16.0.4, SVG Export Plug-In . SVG Version: 6.00 Build 0)  -->
<!DOCTYPE svg PUBLIC "-//W3C//DTD SVG 1.1 Basic//EN" "http://www.w3.org/Graphics/SVG/1.1/DTD/svg11-basic.dtd">
<svg version="1.1" baseProfile="basic" id="Layer_1"
	 xmlns="http://www.w3.org/2000/svg" xmlns:xlink="http://www.w3.org/1999/xlink" x="0px" y="0px" width="122.013px"
	 height="120.864px" viewBox="0 0 122.013 120.864" xml:space="preserve">
<g>
	<path fill="#FED300" d="M114.729,75.253c-1.672-3.468-0.805-8.522,1.93-11.233l0.507-0.504c2.734-2.71,2.62-7.026-0.252-9.59
		l-0.533-0.476c-2.872-2.563-4.005-7.566-2.517-11.117l0.275-0.659c1.488-3.551-0.268-7.494-3.902-8.764l-0.676-0.235
		c-3.635-1.27-6.596-5.458-6.579-9.308l0.003-0.715c0.016-3.85-3.115-6.821-6.959-6.603l-0.715,0.04
		c-3.844,0.219-8.182-2.518-9.64-6.081l-0.271-0.661c-1.458-3.563-5.488-5.11-8.956-3.437L75.8,6.221
		c-3.468,1.673-8.522,0.805-11.234-1.929l-0.503-0.508c-2.712-2.734-7.027-2.62-9.591,0.252L53.996,4.57
		c-2.563,2.873-7.566,4.005-11.117,2.517L42.22,6.811c-3.551-1.488-7.495,0.268-8.764,3.903l-0.235,0.674
		c-1.269,3.635-5.458,6.596-9.308,6.58l-0.715-0.003c-3.85-0.016-6.821,3.116-6.603,6.959l0.04,0.713
		c0.219,3.844-2.518,8.182-6.081,9.641L9.893,35.55c-3.563,1.458-5.109,5.489-3.437,8.957l0.311,0.644
		c1.673,3.467,0.805,8.523-1.929,11.234l-0.508,0.503c-2.733,2.711-2.62,7.027,0.252,9.59l0.533,0.476
		c2.873,2.563,4.005,7.566,2.517,11.117L7.357,78.73c-1.488,3.551,0.269,7.494,3.903,8.764l0.675,0.235
		c3.635,1.27,6.596,5.458,6.58,9.308l-0.003,0.715c-0.016,3.85,3.116,6.821,6.959,6.603l0.714-0.04
		c3.844-0.219,8.182,2.518,9.641,6.081l0.271,0.661c1.458,3.563,5.489,5.109,8.957,3.437l0.644-0.31
		c3.468-1.673,8.523-0.806,11.234,1.928l0.504,0.509c2.711,2.733,7.027,2.619,9.59-0.253l0.476-0.533
		c2.563-2.872,7.566-4.005,11.117-2.517l0.659,0.275c3.551,1.488,7.494-0.268,8.764-3.902l0.235-0.675
		c1.27-3.635,5.458-6.596,9.308-6.579l0.715,0.002c3.85,0.017,6.821-3.115,6.603-6.959l-0.04-0.715
		c-0.219-3.844,2.518-8.182,6.081-9.64l0.661-0.271c3.563-1.458,5.11-5.488,3.438-8.956L114.729,75.253z"/>
	<g>
		<path d="M30.944,40.257c-1.888,2.849-5.515,3.5-8.336,1.632c-2.792-1.851-3.689-5.439-1.729-8.399
			c1.194-1.802,2.544-2.475,4.058-2.818l0.539,1.945c-1.244,0.301-2.288,0.815-3.028,1.932c-1.239,1.871-0.6,4.243,1.326,5.52
			c1.928,1.277,4.389,0.958,5.629-0.913c0.795-1.201,0.815-2.293,0.589-3.649l1.848-0.363
			C32.227,36.867,32.155,38.428,30.944,40.257z"/>
		<path d="M33.979,24.385l1.594-1.255l5.476,6.949l-1.593,1.255l-0.851-1.079c0.071,1.011-0.127,2.085-1.207,2.936
			c-1.565,1.234-3.304,0.897-4.579-0.722l-3.485-4.422l1.592-1.255l3.112,3.948c0.85,1.08,1.878,1.272,2.825,0.526
			c0.921-0.727,1.059-1.879,0.207-2.958L33.979,24.385z"/>
		<path d="M50.253,16.798c1.843-0.566,3.323,0.259,3.958,2.326l1.659,5.398l-1.938,0.596l-1.477-4.807
			c-0.413-1.345-1.26-1.874-2.35-1.54c-1.058,0.325-1.584,1.292-1.166,2.655l1.468,4.773l-1.938,0.596l-1.481-4.823
			c-0.404-1.313-1.271-1.854-2.345-1.524c-1.073,0.33-1.564,1.357-1.16,2.671l1.462,4.759l-1.939,0.595l-2.598-8.459l1.938-0.595
			l0.395,1.282c0.312-0.92,0.834-1.852,2.131-2.25c1.218-0.374,2.249-0.042,2.973,0.717C48.257,18.061,48.972,17.192,50.253,16.798z
			"/>
		<path d="M63.245,25.302c-1.453-0.113-2.314-0.92-2.869-1.787l-0.315,4.042l-2.021-0.158l0.897-11.491l2.021,0.158l-0.114,1.47
			c0.723-0.868,1.698-1.531,3.119-1.42c2.087,0.163,3.979,1.974,3.75,4.914C67.483,23.969,65.35,25.466,63.245,25.302z
			 M63.357,17.833c-1.369-0.107-2.659,0.917-2.794,2.638c-0.134,1.72,0.981,2.933,2.351,3.04c1.387,0.108,2.606-0.889,2.743-2.642
			C65.794,19.132,64.728,17.94,63.357,17.833z"/>
		<path d="M69.637,26.341l3.751-11.642l1.93,0.622l-3.752,11.642L69.637,26.341z"/>
		<path d="M74.507,28.16l3.929-7.929l1.815,0.9l-3.926,7.929L74.507,28.16z M78.963,18.978l0.854-1.727l1.952,0.967l-0.855,1.727
			L78.963,18.978z"/>
		<path d="M84.062,34.553l0.941-1.135c-1.092,0.292-2.272,0.271-3.381-0.648c-1.602-1.327-2.103-3.898-0.22-6.17
			c1.883-2.27,4.478-2.274,6.104-0.926c1.122,0.93,1.361,2.086,1.326,3.125l3.039-3.665l1.562,1.294l-7.81,9.419L84.062,34.553z
			 M86.757,27.338c-1.072-0.889-2.646-0.801-3.781,0.567c-1.111,1.342-0.915,2.942,0.144,3.82c1.045,0.867,2.69,0.772,3.792-0.557
			C88.015,29.839,87.802,28.205,86.757,27.338z"/>
		<path d="M89.387,41.44c-1.445-2.278-0.774-5.065,1.362-6.421c2.149-1.365,4.995-0.79,6.449,1.501
			c1.454,2.292,0.783,5.08-1.367,6.444C93.696,44.321,90.851,43.746,89.387,41.44z M95.681,37.445
			c-0.871-1.373-2.502-1.567-3.818-0.732c-1.328,0.844-1.816,2.483-0.972,3.812c0.879,1.386,2.512,1.581,3.826,0.746
			C96.046,40.427,96.534,38.789,95.681,37.445z"/>
	</g>
	<g>
		<path d="M88.604,80.178c1.887-2.849,5.514-3.501,8.336-1.632c2.791,1.851,3.689,5.439,1.729,8.399
			c-1.193,1.802-2.545,2.474-4.057,2.817l-0.541-1.945c1.246-0.301,2.289-0.814,3.029-1.932c1.238-1.871,0.6-4.242-1.326-5.52
			c-1.928-1.277-4.389-0.959-5.629,0.912c-0.795,1.201-0.814,2.293-0.588,3.649l-1.85,0.362
			C87.322,83.568,87.393,82.007,88.604,80.178z"/>
		<path d="M85.57,96.05l-1.594,1.254L78.5,90.354l1.594-1.254l0.852,1.078c-0.072-1.01,0.127-2.084,1.205-2.936
			c1.566-1.234,3.305-0.896,4.58,0.723l3.484,4.422l-1.592,1.255l-3.111-3.948c-0.852-1.08-1.877-1.272-2.826-0.525
			c-0.92,0.726-1.059,1.879-0.207,2.959L85.57,96.05z"/>
		<path d="M69.295,103.636c-1.844,0.566-3.324-0.26-3.959-2.325l-1.658-5.399l1.938-0.596l1.477,4.807
			c0.414,1.346,1.26,1.875,2.352,1.539c1.057-0.324,1.582-1.292,1.164-2.654l-1.467-4.773l1.938-0.596l1.482,4.822
			c0.404,1.313,1.271,1.854,2.346,1.523c1.072-0.329,1.562-1.357,1.158-2.67l-1.461-4.759l1.939-0.595l2.598,8.459l-1.938,0.595
			l-0.395-1.281c-0.312,0.92-0.834,1.851-2.131,2.25c-1.219,0.374-2.248,0.042-2.973-0.717
			C71.291,102.374,70.576,103.242,69.295,103.636z"/>
		<path d="M56.302,95.132c1.454,0.114,2.314,0.92,2.869,1.787l0.315-4.041l2.019,0.156l-0.895,11.492l-2.021-0.158l0.114-1.47
			c-0.722,0.868-1.698,1.532-3.118,1.421c-2.088-0.163-3.979-1.975-3.75-4.914S54.198,94.968,56.302,95.132z M56.19,102.602
			c1.369,0.107,2.659-0.919,2.794-2.639c0.134-1.72-0.98-2.933-2.351-3.04c-1.386-0.108-2.606,0.889-2.743,2.643
			C53.753,101.302,54.821,102.495,56.19,102.602z"/>
		<path d="M49.911,94.095l-3.751,11.642l-1.931-0.622l3.753-11.643L49.911,94.095z"/>
		<path d="M40.585,101.457l-0.855,1.727l-1.952-0.968l0.855-1.726L40.585,101.457z M45.041,92.274l-3.928,7.93l-1.816-0.9
			l3.927-7.928L45.041,92.274z"/>
		<path d="M35.486,85.882l-0.94,1.135c1.091-0.293,2.271-0.271,3.381,0.648c1.601,1.326,2.103,3.898,0.219,6.17
			c-1.883,2.271-4.478,2.274-6.103,0.926c-1.123-0.93-1.362-2.086-1.327-3.125l-3.04,3.664l-1.56-1.295l7.809-9.418L35.486,85.882z
			 M32.791,93.097c1.072,0.888,2.646,0.801,3.781-0.568c1.112-1.342,0.915-2.941-0.144-3.818c-1.045-0.867-2.69-0.773-3.793,0.557
			C31.534,90.595,31.747,92.229,32.791,93.097z"/>
		<path d="M30.16,78.993c1.446,2.277,0.774,5.065-1.361,6.421c-2.15,1.364-4.996,0.79-6.45-1.501
			c-1.454-2.292-0.783-5.079,1.367-6.443C25.851,76.114,28.697,76.688,30.16,78.993z M23.865,82.989
			c0.872,1.372,2.504,1.566,3.819,0.731c1.329-0.844,1.816-2.483,0.973-3.812c-0.88-1.386-2.512-1.581-3.827-0.745
			C23.5,80.007,23.013,81.646,23.865,82.989z"/>
	</g>
	<circle cx="101.077" cy="58.694" r="2.855"/>
	<circle cx="24.507" cy="58.694" r="2.855"/>
	<path fill="#F5F5F5" d="M61.413,85.356c-10.012,0-20.098-5.836-20.098-17.434v-17.36c0-11.526,10.086-17.433,20.313-17.433
		c6.268,0,13.831,2.665,17.938,11.742l-10.518,4.25c-3.457-6.339-14.84-4.899-14.84,1.441v17.36c0,6.123,11.526,7.852,14.336,0.793
		l11.237,5.186C75.532,82.187,67.824,85.356,61.413,85.356z"/>
</g>
</svg>
