<?xml version="1.0" encoding="utf-8"?>
<!-- Generator: Adobe Illustrator 15.1.0, SVG Export Plug-In  -->
<!DOCTYPE svg PUBLIC "-//W3C//DTD SVG 1.1//EN" "http://www.w3.org/Graphics/SVG/1.1/DTD/svg11.dtd" [
	<!ENTITY ns_flows "http://ns.adobe.com/Flows/1.0/">
]>
<svg version="1.1"
	 xmlns="http://www.w3.org/2000/svg" xmlns:xlink="http://www.w3.org/1999/xlink" xmlns:a="http://ns.adobe.com/AdobeSVGViewerExtensions/3.0/"
	 x="0px" y="0px" width="300px" height="300px" viewBox="-17.19 -72.188 300 300" enable-background="new -17.19 -72.188 300 300"
	 xml:space="preserve">
<defs>
</defs>
<circle fill="none" stroke="#5A5B5B" stroke-width="9" stroke-linecap="round" stroke-linejoin="round" stroke-miterlimit="10" cx="61.26" cy="89.956" r="37.752"/>
<circle fill="none" stroke="#5A5B5B" stroke-width="9" stroke-linecap="round" stroke-linejoin="round" stroke-miterlimit="10" cx="208.734" cy="89.956" r="37.752"/>
<path fill="none" stroke="#5A5B5B" stroke-width="6" stroke-linecap="round" stroke-linejoin="round" stroke-miterlimit="10" d="
	M61.26,89.956c0,0,23.903-28.025,23.903-56.461V3h7.33"/>
<path fill="none" stroke="#5A5B5B" stroke-width="6" stroke-linecap="round" stroke-linejoin="round" stroke-miterlimit="10" d="
	M85.163,24.018c0,0,47.394,6.185,75.416,31.734l14.423-38.739"/>
<path fill="none" stroke="#5A5B5B" stroke-width="6" stroke-linecap="round" stroke-linejoin="round" stroke-miterlimit="10" d="
	M167.789,36.381c0,0,25.348,20.194,42.653,50.276l-60.577,5.918c0,0-31.321-53.722-64.702-59.08"/>
<line fill="none" stroke="#5A5B5B" stroke-width="6" stroke-linecap="round" stroke-linejoin="round" stroke-miterlimit="10" x1="149.865" y1="92.575" x2="160.579" y2="55.752"/>
<path fill="#5A5B5B" stroke="#5A5B5B" stroke-width="6" stroke-linecap="round" stroke-linejoin="round" stroke-miterlimit="10" d="
	M249.694,63.293c-8.722-13.371-23.804-22.216-40.96-22.216c-26.994,0-48.879,21.885-48.879,48.879c0,0.548,0.023,1.093,0.041,1.638
	l50.546-4.937L249.694,63.293z"/>
<line fill="#5A5B5B" stroke="#5A5B5B" stroke-width="6" stroke-linecap="round" stroke-linejoin="round" stroke-miterlimit="10" x1="188.64" y1="17.013" x2="160.579" y2="17.013"/>
<line fill="none" stroke="#5A5B5B" stroke-width="9" stroke-linecap="round" stroke-linejoin="round" stroke-miterlimit="10" x1="262.5" y1="140.221" x2="4.5" y2="140.221"/>
</svg>
