<?xml version="1.0" encoding="utf-8"?>
<!-- Generator: Adobe Illustrator 15.1.0, SVG Export Plug-In . SVG Version: 6.00 Build 0)  -->
<!DOCTYPE svg PUBLIC "-//W3C//DTD SVG 1.1//EN" "http://www.w3.org/Graphics/SVG/1.1/DTD/svg11.dtd">
<svg version="1.1" id="Layer_1" xmlns="http://www.w3.org/2000/svg" xmlns:xlink="http://www.w3.org/1999/xlink" x="0px" y="0px" width="750px" height="750px"
	 viewBox="585 165 750 750" enable-background="new 585 165 750 750" xml:space="preserve">

	<g>
		<g>
			<g>
				<path opacity="0.8" fill="#5A5B5B" d="M1231.204,552.282l-35.938-35.932c0.78,7.78,1.188,15.667,1.188,23.65
					c0,112.107-78.445,206.175-183.313,230.362l-40.843,40.842l31.554,31.561C1151.859,821.43,1265.954,693.81,1265.954,540
					c0-7.278-0.344-14.463-0.853-21.617L1231.204,552.282z"/>
				<path opacity="0.4" fill="#5A5B5B" d="M724.735,563.65c-0.781-7.78-1.188-15.668-1.188-23.65
					c0-115.033,82.58-211.083,191.57-232.129l39.075-39.074l-32.288-32.288C771.127,255.334,654.046,384.212,654.046,540
					c0,7.277,0.343,14.463,0.844,21.617l33.906-33.898L724.735,563.65z"/>
				<path fill="#5A5B5B" d="M943.363,304.196c5.505-0.383,11.046-0.649,16.645-0.649c112.107,0,206.174,78.453,230.355,183.331
					l40.841,40.841l31.561-31.562c-21.335-148.001-148.947-262.111-302.757-262.111c-5.237,0-10.429,0.133-15.604,0.398
					l34.353,34.353L943.363,304.196z"/>
				<path opacity="0.6" fill="#5A5B5B" d="M983.666,775.266c-7.788,0.78-15.676,1.188-23.658,1.188
					c-112.108,0-206.182-78.445-230.37-183.329l-40.842-40.842l-31.56,31.561c21.343,148.001,148.946,262.111,302.771,262.111
					c7.277,0,14.463-0.344,21.617-0.844l-33.899-33.906L983.666,775.266z"/>
			</g>
			<path fill="#5A5B5B" d="M1095.805,629.828l-85.606-37.808l-0.296-5.887h45.954l1.25-3.323c0.187-0.5,4.581-12.509,5.3-40.324
				c0.485-19.108-1.484-36.361-5.752-51.45c7.112-8.123,12.328-18.686,7.565-30.272c-4.377-10.647-11.538-13.876-17.339-14.213
				c0.148-2.11,0.22-3.486,0.235-3.768l-0.157-0.008c1.031-4.034,6.223-27.23-5.724-45.258
				c-6.706-10.101-17.597-16.371-32.022-19.061c-1.015-6.645-6.918-17.387-31.725-26.424c-27.105-9.866-67.39-6.317-89.07,16.246
				l-0.085-0.094c-0.29,0.282-0.524,0.603-0.798,0.884c-0.11,0.117-0.242,0.195-0.344,0.305l0.031,0.031
				c-33.617,33.516-49.862,84.012-48.135,150.261c1.149,43.725,7.96,62.363,8.248,63.137l1.25,3.331h66.453l-0.297,5.887
				l-85.607,37.808l-2.641,83.354c0,0,116.408,105.048,271.945,0L1095.805,629.828z M883.564,491.193
				c-7.966-6.458-17.183-16.551-13.087-26.519c2.619-6.372,6.051-7.802,8.437-7.927
				C879.757,465.604,881.203,477.839,883.564,491.193z M888.474,447.967c18.279,0.696,73.887,0.313,107.013-26.628
				c5.753-0.266,29.676,0.071,41.301,22.109c-0.422,6.778-3.086,43.921-12.297,75.935c-8.686,30.186-54.397,42.561-62.02,44.422
				c-7.63-1.861-53.334-14.236-62.02-44.422C892.539,491.912,889.451,460.593,888.474,447.967z M926.578,561.047
				c16.981,9.076,33.539,12.788,34.821,13.063l1.071,0.227l1.071-0.227c1.282-0.274,17.84-3.986,34.82-13.063l1.721,34.461
				l-37.612,41.013l-37.619-41.013L926.578,561.047z M1048.429,575.869h-38.98v1.305l-1.095-22.132
				c11.555-7.881,21.905-18.568,26.002-32.829c1.533-5.316,2.861-10.726,4.065-16.12c2.057-1.251,5.685-3.62,9.688-6.864
				c3.01,12.806,4.439,27.175,4.032,42.99C1051.682,560.053,1049.648,570.865,1048.429,575.869z M1054.722,464.674
				c4.136,10.054-5.371,20.28-13.392,26.746c2.392-13.456,3.846-25.784,4.699-34.688
				C1048.288,456.778,1051.993,457.998,1054.722,464.674z M1032.652,403.155c5.237,7.881,6.254,17.442,5.988,24.924
				c-12.204-13.603-28.613-16.542-38.042-16.997l1.837-5.902l5.239-16.793C1019.175,390.568,1027.563,395.517,1032.652,403.155z
				 M855.952,575.869c-1.87-6.927-5.771-24.893-6.599-56.478c-1.658-63.677,13.727-111.866,45.641-143.294
				c18.302-20.014,55.179-23.079,78.992-14.409c22.374,8.155,25.706,17.036,25.111,19.671l-9.96,31.998
				c-35.962,29.349-105.065,24.119-105.769,24.048l-5.841-0.477l0.298,5.855c0.008,0.281,0.086,1.665,0.234,3.776
				c-5.753,0.415-12.774,3.714-17.089,14.205c-9.006,21.953,17.684,40.333,25.509,45.149c1.205,5.458,2.557,10.938,4.104,16.3
				c4.097,14.261,14.448,24.948,26.002,32.829l-1.04,20.827H855.952z"/>
		</g>
	</g>


</svg>
