<?xml version="1.0" encoding="utf-8"?>
<!-- Generator: Adobe Illustrator 22.0.1, SVG Export Plug-In . SVG Version: 6.00 Build 0)  -->
<svg version="1.1" id="Layer_1" xmlns="http://www.w3.org/2000/svg" xmlns:xlink="http://www.w3.org/1999/xlink" x="0px" y="0px"
	 viewBox="0 0 595.3 595.3" style="enable-background:new 0 0 595.3 595.3;" xml:space="preserve">
<style type="text/css">
	.st0{fill:none;}
	.st1{fill:#5A5B5B;}
</style>
<g>
	<line class="st0" x1="297.7" y1="389.8" x2="297.7" y2="389.8"/>
	<path class="st1" d="M499.7,146.8c-0.3,0-0.6-0.1-0.9-0.1H97.7h-1.1c-3.6,0-6.5,3.2-6.5,7c0,3.9,2.9,7,6.5,7h1.1h401.1
		c0.3,0,0.6-0.1,0.9-0.1c3.2-0.5,5.7-3.4,5.7-6.9C505.3,150.2,502.9,147.3,499.7,146.8z"/>
	<path class="st1" d="M297.3,314.9L297.3,314.9l0.8,0.1C297.8,315,297.6,315,297.3,314.9z"/>
	<path class="st1" d="M297.3,301L297.3,301c0.3,0.1,0.5,0,0.8,0H297.3z"/>
	<g>
		<path class="st0" d="M487.2,160.8c-0.2,0-0.5,0-0.7-0.1c-2.7-0.4-4.8-3.2-4.8-6.5c0-3.3,2.1-6.1,4.8-6.5c0.2,0,0.5-0.1,0.7-0.1
			l0,0h6.2L317.8,57l-0.1,0.3L307.5,52c-1.2-0.1-3,0.1-3,2.5c0,5.9,0,26.3,0,26.3c11.6,2.9,20.3,13.5,20.3,26
			c0,14.8-12,26.9-26.9,26.9c-14.8,0-26.9-12-26.9-26.9c0-12.5,8.6-23.1,20.3-26v-1.4l-0.6,1.4c0,0,0-20.5,0-26.3
			c0-2.5-1.8-2.7-3-2.5l-185.1,95.7h5.6l0,0c0.1,0,0.2,0,0.3,0h0.1l0,0l0,0h0.1l0,0c0.2,0,0.4,0,0.6,0.1c2.7,0.4,4.8,3.2,4.8,6.5
			c0,3.3-2.1,6.1-4.8,6.5c-0.2,0-0.4,0.1-0.6,0.1l0,0h-0.6H95v13.8h196.3h0.1h209.3v-13.8L487.2,160.8L487.2,160.8z"/>
		<path class="st0" d="M284.3,107c0,7.5,6.1,13.7,13.7,13.7c7.5,0,13.7-6.1,13.7-13.7c0-7.5-6.1-13.7-13.7-13.7
			C290.5,93.3,284.3,99.4,284.3,107z"/>
		<path class="st1" d="M508.5,140.7c-6.3-3.3-202.2-104.5-206.4-106.5c-2.3-1.2-3.4-1.7-4.5-1.6c-1.1-0.1-2.1,0.4-4.5,1.6
			C289,36.3,93,137.5,86.7,140.7c-6.7,3.5-5.5,10.6-5.5,10.6v28.6c0,0-0.1,8,6.2,8c0.3,0,1.4,0,3.2,0c0,0,97.1,0,197.7,0
			c106.2,0,216.1,0,219.4,0c6.3,0,6.2-8,6.2-8v-28.6C514,151.3,515.3,144.1,508.5,140.7z M298,93.3c7.5,0,13.7,6.1,13.7,13.7
			c0,7.5-6.1,13.7-13.7,13.7c-7.5,0-13.7-6.1-13.7-13.7C284.3,99.4,290.5,93.3,298,93.3z M500.9,174.7H291.5h-0.1H95.1v-13.8h13.1
			h0.6l0,0c0.2,0,0.4,0,0.6-0.1c2.7-0.4,4.8-3.2,4.8-6.5c0-3.3-2.1-6.1-4.8-6.5c-0.2,0-0.4-0.1-0.6-0.1l0,0h-0.1l0,0l0,0h-0.1
			c-0.1,0-0.2,0-0.3,0l0,0h-5.6L288,52.1c1.2-0.1,3,0.1,3,2.5c0,5.9,0,26.3,0,26.3l0.6-1.4v1.4c-11.6,2.9-20.3,13.5-20.3,26
			c0,14.8,12,26.9,26.9,26.9c14.8,0,26.9-12,26.9-26.9c0-12.5-8.6-23.1-20.3-26c0,0,0-20.5,0-26.3c0-2.5,1.8-2.7,3-2.5l10.2,5.3
			l0.1-0.3l175.3,90.6h-6.2l0,0c-0.3,0-0.5,0-0.7,0.1c-2.7,0.4-4.8,3.2-4.8,6.5c0,3.3,2.1,6.1,4.8,6.5c0.2,0,0.5,0.1,0.7,0.1l0,0
			h13.7V174.7z"/>
	</g>
	<g>
		<g>
			<path class="st1" d="M511,377.6V202.7c0-3.6-2.9-6.5-6.5-6.5H90.8c-3.6,0-6.5,2.9-6.5,6.5v174.9c-4,2.1-6.7,6.3-6.7,11.2v13.3
				c0,4.8,2.7,9.1,6.7,11.2v141.2c0,3.6,2.9,6.5,6.5,6.5h29.3h28.8h2h72.3h74.3h74.3h72.6h1.6h29.1h29.3c3.6,0,6.5-2.9,6.5-6.5
				V413.2c4-2.1,6.7-6.3,6.7-11.2v-13.3C517.8,383.9,515,379.7,511,377.6z M495.7,209.1c-2.6,3.8-7.4,8.3-14.9,13
				c-0.1,0.1-0.2,0.1-0.3,0.2c-0.4,0.3-0.9,0.5-1.3,0.8c-0.2,0.1-0.4,0.3-0.6,0.4c-0.3,0.2-0.7,0.4-1.1,0.6
				c-0.3,0.2-0.6,0.3-0.9,0.5c-0.3,0.2-0.6,0.3-0.9,0.5c-0.4,0.2-0.7,0.4-1.1,0.6c-0.1,0-0.1,0.1-0.2,0.1c-0.9,0.5-1.9,1-2.9,1.5
				c-0.3,0.1-0.5,0.3-0.8,0.4c-0.4,0.2-0.8,0.4-1.2,0.6s-0.7,0.4-1.1,0.5c-0.3,0.2-0.7,0.3-1.1,0.5c-0.5,0.2-0.9,0.4-1.4,0.6
				c-0.3,0.1-0.6,0.3-0.9,0.4c-0.6,0.3-1.3,0.6-1.9,0.9c-0.1,0.1-0.3,0.1-0.4,0.2c-2.6,1.2-5.4,2.3-8.4,3.5l0,0
				c-3.9,1.5-8,3-12.4,4.4c-11.9,3.9-24.8,7.4-38.4,10.2c-0.2,0-0.4,0.1-0.6,0.1c-12.9,2.7-26.4,4.9-40.2,6.6
				c-0.2,0-0.3,0.1-0.5,0.1c-20.8,2.5-42.5,3.8-64.5,3.8c-21.9,0-43.7-1.3-64.5-3.8c-0.2,0-0.3-0.1-0.5-0.1
				c-13.8-1.7-27.4-3.9-40.2-6.6c-0.2,0-0.4-0.1-0.6-0.1c-13.6-2.9-26.4-6.3-38.4-10.2c-4.4-1.5-8.5-2.9-12.4-4.4l0,0
				c-3-1.2-5.8-2.3-8.4-3.5c-0.1-0.1-0.3-0.1-0.4-0.2c-0.7-0.3-1.3-0.6-1.9-0.9c-0.3-0.1-0.6-0.3-0.9-0.4c-0.5-0.2-0.9-0.4-1.4-0.6
				c-0.4-0.2-0.7-0.3-1.1-0.5s-0.7-0.4-1.1-0.5c-0.4-0.2-0.8-0.4-1.2-0.6c-0.3-0.1-0.5-0.3-0.8-0.4c-1-0.5-1.9-1-2.9-1.5
				c-0.1,0-0.2-0.1-0.2-0.1c-0.4-0.2-0.7-0.4-1.1-0.6c-0.3-0.2-0.6-0.3-0.9-0.5s-0.6-0.3-0.9-0.5c-0.4-0.2-0.7-0.4-1.1-0.6
				c-0.2-0.1-0.4-0.3-0.6-0.4c-0.5-0.3-0.9-0.5-1.3-0.8c-0.1-0.1-0.2-0.1-0.3-0.2c-7.6-4.7-12.3-9.2-14.9-13H495.7L495.7,209.1z
				 M97.3,225.5c2,1.7,4.3,3.5,6.9,5.3c6.9,4.7,16,9.7,28.1,14.6c0,40.6-11.8,85.7-22,116.9c-1.1,3.4,0.8,7,4.1,8.1
				c3.4,1.1,7-0.8,8.1-4.1c10-30.9,21.7-75.1,22.5-116.1c1.4,0.5,2.8,1,4.3,1.4c10.5,3.5,21.7,6.6,33.5,9.2
				c-13.6,42.3-35.9,77.2-52.6,99.5c-2.1,2.9-1.6,6.9,1.3,9c1.2,0.9,2.5,1.3,3.9,1.3c2,0,3.9-0.9,5.2-2.6
				c17.4-23.3,40.8-59.9,54.9-104.6c8.9,1.7,18,3.3,27.4,4.5c-13.7,33.5-41,68-62.3,91.8c-2.4,2.7-2.2,6.7,0.5,9.1s6.7,2.2,9.1-0.5
				c39.7-44.3,57.8-77.5,66-98.8c19.9,2.2,40.6,3.4,61.5,3.4s41.5-1.1,61.5-3.4c14,36.3,43.3,73.5,66,98.8c2.4,2.7,6.5,2.9,9.1,0.5
				c2.7-2.4,2.9-6.5,0.5-9.1c-21.3-23.8-48.7-58.3-62.4-91.9c9.3-1.3,18.5-2.8,27.4-4.5c14.2,44.7,37.6,81.4,55,104.7
				c1.3,1.7,3.2,2.6,5.2,2.6c1.3,0,2.7-0.4,3.9-1.3c2.9-2.1,3.4-6.2,1.3-9c-16.7-22.3-39-57.2-52.7-99.6c11.7-2.7,23-5.8,33.5-9.2
				c1.5-0.5,2.9-1,4.3-1.4c0.9,40.9,12.5,85.1,22.5,116c1.1,3.4,4.7,5.2,8.1,4.2c3.4-1.1,5.2-4.7,4.1-8.1
				c-10.1-31.2-21.9-76.3-21.9-116.8c12.1-4.9,21.3-9.9,28.1-14.6c2.6-1.8,4.9-3.5,6.9-5.3v150.6h-35.8c-7,0-12.6,5.7-12.6,12.6V402
				c0,3.4,1.4,6.5,3.6,8.8c-3.9,11.9-8.6-0.2-13,15.9h-285c-4.5-16.2-9.1-4-13-15.9c2.2-2.3,3.6-5.4,3.6-8.8v-13.3
				c0-7-5.7-12.6-12.6-12.6H97.5V225.5H97.3z M90.6,401.8v-12.7h42.3v12.7h-24.5H90.9H90.6z M123.8,545.9c-0.7,1.3-2.1,2.1-3.6,2.1
				H97.3V414.7h6.2C127,494.3,134.6,526.2,123.8,545.9z M155.4,548v-35.6c0-7.7,6.2-13.9,13.9-13.9h33.5c7.7,0,13.9,6.2,13.9,13.9
				V548H155.4z M229.7,548v-35.6c0-7.7,6.2-13.9,13.9-13.9h33.5c7.7,0,13.9,6.2,13.9,13.9V548H229.7z M304,548v-35.6
				c0-7.7,6.2-13.9,13.9-13.9h33.5c7.7,0,13.9,6.2,13.9,13.9V548H304z M439.6,548h-61.4v-35.6c0-7.7,6.2-13.9,13.9-13.9h33.6
				c7.7,0,13.9,6.2,13.9,13.9V548z M452.6,548v-35.6c0-14.8-12-26.8-26.8-26.8h-33.5c-8.1,0-15.4,3.7-20.4,9.4
				c-4.9-5.7-12.2-9.4-20.4-9.4H318c-8.1,0-15.4,3.7-20.4,9.4c-4.9-5.7-12.2-9.4-20.4-9.4h-33.5c-8.1,0-15.4,3.7-20.4,9.4
				c-4.9-5.7-12.2-9.4-20.4-9.4h-33.5c-14.8,0-26.8,12-26.8,26.8V548h-5.5c13.1-33.1-5.6-83.7-20.1-133.3h12.9
				c6.1,18.5,14.1,17.6,20.2,44.1c0.8,3.5,4.3,5.6,7.7,4.8c3.5-0.8,5.6-4.3,4.8-7.7c-1.3-5.4-2.6-10.8-4-16.1h278.1
				c-1.4,5.4-2.7,10.8-4,16.3c-0.8,3.5,1.4,6.9,4.8,7.7c0.5,0.1,1,0.2,1.5,0.2c2.9,0,5.6-2,6.3-5c6.1-26.6,14.1-25.7,20.2-44.2h12.9
				C464,464.4,445.3,515,458.3,548.1L452.6,548L452.6,548z M498.1,548h-22.9c-1.5,0-2.9-0.8-3.6-2.1c-10.8-19.6-3.2-51.6,20.3-131.2
				h6.2V548z M504.8,401.8h-0.3H487h-24.5v-12.7h42.3V401.8z"/>
		</g>
	</g>
</g>
</svg>
