<?xml version="1.0" encoding="utf-8"?>
<!-- Generator: Adobe Illustrator 19.1.0, SVG Export Plug-In . SVG Version: 6.00 Build 0)  -->
<svg version="1.1" id="Layer_1" xmlns="http://www.w3.org/2000/svg" xmlns:xlink="http://www.w3.org/1999/xlink" x="0px" y="0px"
	 viewBox="-151 -20.9 595.3 841.9" style="enable-background:new -151 -20.9 595.3 841.9;" xml:space="preserve">
<style type="text/css">
	.st0{fill:none;stroke:#5A5B5B;stroke-width:12;stroke-linecap:round;stroke-linejoin:round;stroke-miterlimit:10;}
</style>
<g>
	<polyline class="st0" points="141.1,255.3 207.7,178.9 314.9,301.9 250.6,301.9 357.7,424.9 293.4,424.9 400.6,548 250.6,548 
		250.6,621.8 444.3,621.8 	"/>
	<g>
		<line class="st0" x1="141.7" y1="564.1" x2="141.7" y2="398.8"/>
		<line class="st0" x1="182.1" y1="398.8" x2="182.1" y2="564.1"/>
		<line class="st0" x1="131.8" y1="380.2" x2="190.8" y2="380.2"/>
		<line class="st0" x1="131.8" y1="583.7" x2="190.8" y2="583.7"/>
		<line class="st0" x1="161.3" y1="564.1" x2="161.3" y2="398.8"/>
		<line class="st0" x1="-31.3" y1="564.1" x2="-31.3" y2="398.8"/>
		<line class="st0" x1="9.1" y1="398.8" x2="9.1" y2="564.1"/>
		<line class="st0" x1="-41.2" y1="380.2" x2="17.9" y2="380.2"/>
		<line class="st0" x1="-41.2" y1="583.7" x2="17.9" y2="583.7"/>
		<line class="st0" x1="-11.7" y1="564.1" x2="-11.7" y2="398.8"/>
		<line class="st0" x1="57.8" y1="564.1" x2="57.8" y2="398.8"/>
		<line class="st0" x1="98.2" y1="398.8" x2="98.2" y2="564.1"/>
		<line class="st0" x1="47.9" y1="380.2" x2="106.9" y2="380.2"/>
		<line class="st0" x1="47.9" y1="583.7" x2="106.9" y2="583.7"/>
		<line class="st0" x1="77.4" y1="564.1" x2="77.4" y2="398.8"/>
		<line class="st0" x1="-109.7" y1="564.1" x2="-109.7" y2="398.8"/>
		<line class="st0" x1="-69.2" y1="398.8" x2="-69.2" y2="564.1"/>
		<line class="st0" x1="-119.5" y1="380.2" x2="-60.5" y2="380.2"/>
		<line class="st0" x1="-119.5" y1="583.7" x2="-60.5" y2="583.7"/>
		<line class="st0" x1="-90" y1="564.1" x2="-90" y2="398.8"/>
		<polygon class="st0" points="209.5,358.8 -142.3,358.8 33.6,176.4 		"/>
		<path class="st0" d="M-0.6,294.5c0-21.7,15.3-39.2,34.2-39.2c18.9,0,34.2,17.6,34.2,39.2"/>
		<line class="st0" x1="-135.3" y1="601.8" x2="209.5" y2="601.8"/>
		<line class="st0" x1="-151" y1="621.8" x2="225.1" y2="621.8"/>
		<line class="st0" x1="-14.6" y1="314" x2="82.2" y2="314"/>
	</g>
</g>
</svg>
