<?xml version="1.0" encoding="utf-8"?>
<!-- Generator: Adobe Illustrator 15.1.0, SVG Export Plug-In . SVG Version: 6.00 Build 0)  -->
<!DOCTYPE svg PUBLIC "-//W3C//DTD SVG 1.1//EN" "http://www.w3.org/Graphics/SVG/1.1/DTD/svg11.dtd">
<svg version="1.1" id="Layer_1" xmlns="http://www.w3.org/2000/svg" xmlns:xlink="http://www.w3.org/1999/xlink" x="0px" y="0px"
	 width="750px" height="750px" viewBox="0 0 750 750" enable-background="new 0 0 750 750" xml:space="preserve">
<g>
	<path fill="#5A5B5B" d="M601.939,278.129h-46.265c-2.762,0-5,2.239-5,5v102.109h-95.127c-2.762,0-5,2.238-5,5s2.238,5,5,5h95.127
		v48.656l-18.532-23.766c-0.941-1.207-2.383-1.916-3.912-1.926l-72.651-0.449c-2.779-0.039-5.014,2.207-5.031,4.969
		c-0.017,2.762,2.208,5.014,4.969,5.031l70.229,0.434l24.929,31.969V585.39c0,2.762,2.238,5,5,5h46.265c2.762,0,5-2.238,5-5V283.129
		C606.939,280.367,604.7,278.129,601.939,278.129z"/>
	<path fill="#5A5B5B" d="M379.059,194.887c-1.696-2.181-4.838-2.572-7.017-0.876L131.573,381.107
		c-2.18,1.695-2.572,4.836-0.876,7.016c0.986,1.268,2.46,1.93,3.95,1.93c1.073,0,2.154-0.344,3.067-1.053l240.469-187.096
		C380.363,200.208,380.755,197.067,379.059,194.887z"/>
	<path fill="#5A5B5B" d="M399.438,184.032c1.073,0,2.153-0.344,3.066-1.054l26.23-20.405c2.18-1.695,2.571-4.837,0.876-7.016
		c-1.694-2.18-4.834-2.573-7.017-0.876l-26.229,20.405c-2.18,1.695-2.572,4.837-0.877,7.016
		C396.473,183.369,397.948,184.032,399.438,184.032z"/>
	<path fill="#5A5B5B" d="M361.989,374.178l-122.431,95.265l-19.532-25.107c-0.498-0.641-1.145-1.15-1.885-1.484L96.536,387.81
		l331.289-257.753l93.488,120.164l-112.821,87.779c-2.18,1.696-2.571,4.837-0.876,7.017c1.694,2.179,4.837,2.573,7.017,0.876
		l116.768-90.85c2.18-1.696,2.571-4.837,0.876-7.017L432.648,119.97c-0.814-1.046-2.011-1.727-3.327-1.891
		c-1.313-0.165-2.644,0.201-3.689,1.015L83.859,385.004c-1.382,1.074-2.101,2.795-1.895,4.535c0.207,1.738,1.308,3.244,2.903,3.965
		l128.025,57.949l21.844,28.076c0.814,1.047,2.011,1.727,3.327,1.893c0.207,0.025,0.413,0.037,0.619,0.037
		c1.106,0,2.188-0.367,3.07-1.053l126.377-98.336c2.18-1.695,2.572-4.838,0.876-7.016
		C367.309,372.873,364.166,372.482,361.989,374.178z"/>
	<path fill="#5A5B5B" d="M200.628,450.648l-77.426-35.186c-1.645-0.748-3.565-0.551-5.022,0.518
		c-1.458,1.066-2.227,2.838-2.011,4.631c1.036,8.609,4.174,16.973,9.076,24.186c10.213,15.035,27.177,24.012,45.378,24.012
		c0.001,0,0.001,0,0.002,0c10.988,0,21.62-3.275,30.744-9.473c1.496-1.016,2.326-2.76,2.173-4.561
		C203.388,452.974,202.274,451.396,200.628,450.648z"/>
	<path fill="#5A5B5B" d="M398.307,389.297l-33.901-43.574c-1.695-2.181-4.837-2.572-7.017-0.876
		c-2.18,1.696-2.571,4.837-0.876,7.017l33.901,43.574c0.986,1.268,2.46,1.93,3.95,1.93c1.073,0,2.154-0.344,3.066-1.053
		C399.611,394.617,400.003,391.476,398.307,389.297z"/>
	<path fill="#5A5B5B" d="M416.259,375.33c0.986,1.267,2.46,1.929,3.95,1.929c1.072,0,2.154-0.344,3.066-1.053
		c2.18-1.697,2.571-4.838,0.876-7.017l-33.901-43.57c-1.696-2.18-4.839-2.572-7.017-0.876c-2.18,1.696-2.571,4.837-0.876,7.017
		L416.259,375.33z"/>
	<path fill="#5A5B5B" d="M357.095,343.453c5.751,0,11.195-1.869,15.749-5.409c11.158-8.694,13.173-24.847,4.49-36.011
		c-4.9-6.292-12.289-9.902-20.271-9.902c-5.749,0-11.191,1.869-15.739,5.405c-11.166,8.689-13.182,24.845-4.493,36.016
		C341.727,339.845,349.114,343.453,357.095,343.453z"/>
	<path fill="#5A5B5B" d="M424.549,378.873c-5.75,0-11.192,1.869-15.738,5.406c-5.409,4.207-8.856,10.27-9.705,17.072
		s1.001,13.529,5.211,18.941c4.897,6.289,12.283,9.896,20.263,9.896c5.751,0,11.195-1.871,15.742-5.408
		c11.163-8.688,13.182-24.836,4.498-36.002C439.92,382.482,432.531,378.873,424.549,378.873z"/>
</g>
</svg>
