<?xml version="1.0" encoding="UTF-8"?>
<svg width="545px" height="545px" viewBox="0 0 545 545" version="1.1" xmlns="http://www.w3.org/2000/svg" xmlns:xlink="http://www.w3.org/1999/xlink">
    <!-- Generator: Sketch 49.2 (51160) - http://www.bohemiancoding.com/sketch -->
    <title>GCBA-compromisos-icons-01</title>
    <desc>Created with Sketch.</desc>
    <defs></defs>
    <g id="GCBA-compromisos-icons-01" stroke="none" stroke-width="1" fill="none" fill-rule="evenodd">
        <g transform="translate(0.000000, 98.000000)" fill="#5B5B5B" fill-rule="nonzero" id="Shape">
            <path d="M42.3580645,254.055233 C42.3580645,306.986434 85.316129,350 138.179032,350 C191.041935,350 234,306.986434 234,254.055233 C234,201.124031 191.041935,158.110465 138.179032,158.110465 C85.316129,158.110465 42.3580645,201.124031 42.3580645,254.055233 Z M43.4709677,102.727713 L73.6306452,102.727713 L73.6306452,38.9874031 L52.8193548,5 L27,20.8236434 L43.4709677,47.5678295 L43.4709677,102.727713 Z"></path>
            <path d="M7.9160441e-15,148.333084 L7.9160441e-15,284.425628 C7.9160441e-15,291.436118 5.68182924,297 12.5891511,297 L24.064218,297 C32.4198492,297 38.4359037,288.98801 36.2077353,280.864743 C33.7567502,271.962533 32.4198492,262.615212 32.4198492,252.934058 C32.4198492,194.402023 80.1026514,146.775197 138.703478,146.775197 C197.304306,146.775197 244.987108,194.402023 244.987108,252.934058 C244.987108,262.615212 243.650207,271.962533 241.199222,280.864743 C238.971053,288.98801 244.987108,297 253.342739,297 L272.059353,297 C279.078083,297 284.648504,291.324841 284.648504,284.425628 L295.566529,225.337205 C304.479202,176.820157 346.8144,141.656426 396.168329,141.656426 L411.208465,141.656426 L411.208465,148.444361 C416.890294,147.55414 439.506203,147.442862 458,148.221806 L458,110.609966 L341.689613,110.609966 L312.946242,0 L142.936998,0 L102.495743,110.609966 L37.7674532,110.609966 C22.9501338,125.298614 14.705911,133.533158 7.9160441e-15,148.333084 Z"></path>
            <path d="M343.746627,209.036564 L513.141929,209.036564 C496.982509,178.72664 465.109445,158 428.444278,158 C391.77911,158 359.906047,178.72664 343.746627,209.036564 Z M513.141929,298.963436 L343.746627,298.963436 C359.906047,329.27336 391.77911,350 428.444278,350 C465.109445,350 496.982509,329.27336 513.141929,298.963436 Z M317,219.399884 L540,219.399884 L540,288.600116 L317,288.600116 L317,219.399884 Z"></path>
        </g>
    </g>
</svg>