<svg xmlns="http://www.w3.org/2000/svg" viewBox="0 0 595.3 595.3"><path fill="#5B5B5B" d="M481.2 355.1l-46 79.7c-9 15.8-25.8 24.1-42.7 23h-36.8v36.8l-46-82.8 46-82.8v36.8h51.9l-40.9-70.9 79.7-46 33.1 57.4c9.6 14.2 10.9 33.2 1.7 48.8M249.1 127.6h92c18 0 33.7 10.5 41.2 25.6l18.4 32 31.8-18.4L384 248l-94.8 1.7 31.8-18.4-26-45.1-40.6 70.8-79.9-46 33.1-57.4c7.6-15.3 23.3-26 41.5-26M172.5 435l-46-79.7c-9-15.6-7.7-34.4 1.7-48.6l18.4-31.8-31.8-18.4 94.6 1.5 48.8 81.3-31.8-18.4-26 44.9H282v92h-66.3c-17 1.3-34-7.2-43.2-22.8z"/></svg>