<?xml version="1.0" encoding="utf-8"?>
<!-- Generator: Adobe Illustrator 15.1.0, SVG Export Plug-In . SVG Version: 6.00 Build 0)  -->
<!DOCTYPE svg PUBLIC "-//W3C//DTD SVG 1.1//EN" "http://www.w3.org/Graphics/SVG/1.1/DTD/svg11.dtd">
<svg version="1.1" id="Layer_1" xmlns="http://www.w3.org/2000/svg" xmlns:xlink="http://www.w3.org/1999/xlink" x="0px" y="0px" width="750px" height="750px"
	 viewBox="585 165 750 750" enable-background="new 585 165 750 750" xml:space="preserve">

	<g>
		<g>
			<path fill="#5A5B5B" d="M1295.963,447.26h-62.853v336.439h62.853c10.376,0,18.783-8.407,18.783-18.783V466.05
				C1314.746,455.676,1306.339,447.26,1295.963,447.26z"/>
			<rect x="864.826" y="443.651" fill="#5A5B5B" width="45.941" height="7.218"/>
			<rect x="1165.712" y="443.651" fill="#5A5B5B" width="54.882" height="7.218"/>
			<rect x="987.349" y="419.085" fill="#5A5B5B" width="92.44" height="18.785"/>
			<g>
				<path fill="#5A5B5B" d="M1033.569,522.674c-28.96,0-52.52,23.558-52.52,52.513c0,8.526,2.098,17,6.063,24.503l0.281,0.531
					c0.725,1.33,1.526,2.665,2.36,3.925l0.106,0.174c11.681,20.416,17.98,36.277,20.044,41.839h47.548
					c2.01-5.593,8.138-21.417,19.803-41.811l0.109-0.176c5.708-8.604,8.725-18.628,8.725-28.985
					C1086.09,546.231,1062.529,522.674,1033.569,522.674z"/>
				<path fill="#5A5B5B" d="M923.283,447.26v336.439h229.903V447.26H923.283z M1066.681,675.29
					c0,15.575-14.871,28.203-33.223,28.203c-18.36,0-33.226-12.628-33.226-28.203v-1.014h66.448V675.29z M1066.681,668.016h-66.448
					v-6.173h66.448V668.016z M1082.641,607.545c-10.808,18.908-16.81,33.997-19.006,39.954h3.046v8.082h-66.448v-8.082h3.48
					c-2.284-6.002-8.459-21.133-19.237-39.984c-1.017-1.542-1.986-3.18-2.887-4.872l-0.366-0.711
					c-4.211-8.231-6.434-17.461-6.434-26.745c0-32.407,26.368-58.774,58.78-58.774c32.413,0,58.782,26.367,58.782,58.774
					C1092.352,586.744,1088.994,597.931,1082.641,607.545z"/>
			</g>
			<path fill="#5A5B5B" d="M831.731,296.301H631.514c-14.477,0-26.26,11.776-26.26,26.253v200.232
				c0,14.469,11.783,26.246,26.26,26.246h200.218c14.477,0,26.253-11.777,26.253-26.246V322.554
				C857.985,308.077,846.208,296.301,831.731,296.301z M831.731,538.869H631.514c-8.88,0-16.097-7.217-16.097-16.083V363.271
				h232.406v159.516C847.822,531.652,840.605,538.869,831.731,538.869z"/>
			<g>
				<g>
					<path fill="#5A5B5B" d="M680.776,390.505h15.54v104.341H673.82v-81.253l-18.056,4.439l-4.736-18.647L680.776,390.505z"/>
					<path fill="#5A5B5B" d="M761.587,496.622c-27.677,0-45.881-23.236-45.881-53.429s18.5-53.725,46.177-53.725
						c27.676,0,45.881,23.235,45.881,53.428C807.764,473.09,789.263,496.622,761.587,496.622z M761.587,410.04
						c-13.764,0-22.496,13.765-22.496,32.856c0,19.093,9.027,33.152,22.792,33.152c13.764,0,22.497-13.912,22.497-32.855
						C784.379,424.249,775.351,410.04,761.587,410.04z"/>
				</g>
			</g>
			<g>
				<path fill="#5A5B5B" d="M752.386,559.948v204.968c0,10.376,8.416,18.783,18.79,18.783h72.185V559.948H752.386z"/>
			</g>
		</g>
	</g>


</svg>
