<?xml version="1.0" encoding="utf-8"?>
<!-- Generator: Adobe Illustrator 15.1.0, SVG Export Plug-In . SVG Version: 6.00 Build 0)  -->
<!DOCTYPE svg PUBLIC "-//W3C//DTD SVG 1.1//EN" "http://www.w3.org/Graphics/SVG/1.1/DTD/svg11.dtd">
<svg version="1.1" id="Layer_1" xmlns="http://www.w3.org/2000/svg" xmlns:xlink="http://www.w3.org/1999/xlink" x="0px" y="0px"
	 width="750px" height="750px" viewBox="585 165 750 750" enable-background="new 585 165 750 750" xml:space="preserve">
<g>
	<path fill="#5A5B5B" d="M1035.982,588.628c-0.259-0.277-0.498-0.556-0.74-0.835l-0.475-0.542c-0.155-0.177-0.308-0.356-0.46-0.537
		c-0.291-0.342-0.583-0.684-0.886-1.017c-7.528-9.476-7.621-18.834-6.96-23.708c0.176-0.821,0.324-1.647,0.47-2.465
		c0.046-0.17,0.076-0.277,0.082-0.297c0.154-0.529,0.231-1.069,0.234-1.606c5.537-35.259-15.744-69.843-49.835-80.714
		c-7.192-2.29-14.633-3.452-22.112-3.452c-27.502,0-52.996,15.844-65.224,40.446c-0.295,0.422-0.538,0.885-0.719,1.378
		c-0.024,0.066-0.108,0.283-0.211,0.517c-0.088,0.192-0.181,0.379-0.273,0.564c-0.159,0.32-0.315,0.641-0.465,0.97
		c-1.931,3.797-7.556,12.733-19.259,16.855c-1.911,0.436-3.826,0.953-5.7,1.541c-0.062,0.015-0.125,0.031-0.192,0.048
		c-0.512,0.104-0.998,0.274-1.449,0.499c-21.841,7.467-38.982,24.907-45.952,46.812c-12.208,38.303,9.024,79.401,47.331,91.615
		l94.811,30.21c7.201,2.294,14.652,3.457,22.146,3.457c0.002,0,0.004,0,0.006,0c31.86,0,59.774-20.411,69.462-50.793
		c7.421-23.286,2.727-48.505-12.549-67.646C1036.765,589.445,1036.4,589.008,1035.982,588.628z M1038.178,653.93
		c-8.094,25.385-31.416,42.439-58.033,42.438c-6.258,0-12.483-0.973-18.505-2.891l-94.808-30.21
		c-32.002-10.204-49.74-44.538-39.541-76.54c5.895-18.53,20.517-33.236,39.114-39.337c0.102-0.034,0.203-0.07,0.302-0.108
		c0.042-0.013,0.083-0.025,0.125-0.038c1.731-0.55,3.505-1.028,5.271-1.422c0.216-0.048,0.429-0.108,0.638-0.18
		c16.201-5.547,23.89-17.954,26.444-23.031c0.044-0.089,0.087-0.178,0.126-0.268c0.1-0.227,0.209-0.443,0.318-0.662
		c0.138-0.279,0.276-0.561,0.448-0.935c0.044-0.1,0.086-0.195,0.125-0.287c0.097-0.16,0.186-0.325,0.268-0.496
		c10.07-20.963,31.593-34.508,54.831-34.508c6.242,0,12.457,0.972,18.468,2.886c28.728,9.161,46.566,38.482,41.495,68.205
		c-0.021,0.122-0.038,0.245-0.051,0.367c-0.021,0.089-0.038,0.178-0.054,0.267l-0.035,0.198c-0.133,0.75-0.267,1.51-0.433,2.263
		c-0.032,0.146-0.06,0.294-0.081,0.443c-0.971,6.766-1.017,20.086,9.575,33.278c0.094,0.117,0.192,0.23,0.295,0.341
		c0.233,0.25,0.454,0.513,0.676,0.774c0.2,0.236,0.401,0.473,0.616,0.717l0.413,0.473c0.311,0.356,0.62,0.711,0.946,1.064
		c0.032,0.041,0.064,0.081,0.097,0.121C1040.355,612.917,1044.448,634.254,1038.178,653.93z"/>
	<path fill="#5A5B5B" d="M853.562,520.712c0,0,0.001,0,0.002,0c0.317,0,0.634-0.006,0.948-0.017
		c9.541-0.332,18.203-5.606,24.392-14.85c5.781-8.635,8.738-19.845,8.325-31.564c-0.869-24.696-16.218-44.041-34.944-44.041
		c-0.318,0-0.635,0.006-0.953,0.018c-18.909,0.666-33.59,21.488-32.726,46.422C819.481,501.369,834.835,520.711,853.562,520.712z
		 M851.756,442.25c0.177-0.007,0.352-0.01,0.528-0.01c12.026,0,22.322,14.563,22.952,32.463c0.324,9.221-1.915,17.91-6.304,24.467
		c-3.986,5.953-9.255,9.338-14.843,9.533c-12.282,0.428-22.848-14.291-23.491-32.444C829.974,458.25,839.662,442.676,851.756,442.25
		z"/>
	<path fill="#5A5B5B" d="M932.586,466.76c1.697,0.27,3.429,0.406,5.148,0.406c0.002,0,0.001,0,0.004,0
		c21.151,0,40.354-20.506,44.663-47.696c2.231-14.057,0.252-27.988-5.572-39.229c-6.139-11.846-15.779-19.359-27.146-21.159
		c-1.697-0.269-3.428-0.404-5.145-0.404c-21.153,0-40.359,20.499-44.675,47.684c-2.231,14.06-0.252,27.993,5.573,39.234
		C911.575,457.441,921.218,464.957,932.586,466.76z M911.715,408.242c3.344-21.064,17.762-37.564,32.824-37.564
		c1.09,0,2.189,0.086,3.268,0.257c7.506,1.188,14.029,6.454,18.369,14.828c4.653,8.98,6.207,20.282,4.375,31.827
		c-3.341,21.072-17.754,37.578-32.814,37.576c-1.091,0-2.19-0.087-3.269-0.259c-7.51-1.189-14.036-6.458-18.376-14.833
		C911.437,431.094,909.883,419.788,911.715,408.242z"/>
	<path fill="#5A5B5B" d="M1117.921,540.557c-0.587-10.823-5.256-19.695-13.147-24.983c-4.654-3.117-10.232-4.766-16.132-4.766
		c-13.567,0-27.633,8.423-36.706,21.979c-6.324,9.436-9.502,20.241-8.95,30.428c0.587,10.823,5.255,19.696,13.147,24.986
		c4.655,3.113,10.233,4.76,16.132,4.76c0.001,0,0.001,0,0.003,0c13.569,0,27.634-8.42,36.699-21.97
		C1115.293,561.55,1118.474,550.741,1117.921,540.557z M1098.995,564.314c-6.766,10.112-17.258,16.646-26.729,16.646
		c-3.565,0-6.749-0.92-9.456-2.731c-4.679-3.136-7.464-8.699-7.842-15.664c-0.412-7.606,2.051-15.809,6.938-23.101
		c6.772-10.118,17.267-16.656,26.735-16.656c3.563,0,6.743,0.92,9.452,2.735c4.682,3.137,7.468,8.698,7.845,15.663
		C1106.352,548.812,1103.887,557.017,1098.995,564.314z"/>
	<path fill="#5A5B5B" d="M1023.269,493.48c5.147,2.865,10.853,4.318,16.957,4.318c0.001,0,0,0,0.001,0
		c17.289,0,35.043-11.839,45.229-30.162c14.135-25.444,9.252-55.247-10.884-66.434c-5.146-2.86-10.848-4.312-16.948-4.312
		c-17.291,0-35.045,11.836-45.231,30.155c-6.706,12.07-9.406,25.492-7.603,37.794
		C1006.682,477.741,1013.246,487.913,1023.269,493.48z M1022.882,432.877c8.102-14.57,21.739-23.985,34.742-23.985
		c4.036,0,7.776,0.942,11.118,2.801c14.354,7.974,17.146,30.457,6.225,50.115c-8.103,14.574-21.739,23.992-34.74,23.991
		c-4.038,0-7.779-0.943-11.126-2.806c-6.684-3.713-11.101-10.777-12.438-19.893C1015.239,453.39,1017.448,442.655,1022.882,432.877z
		"/>
	<path fill="#5A5B5B" d="M1123.752,376.248c-43.74-43.74-101.895-67.828-163.752-67.828c-61.857,0-120.012,24.088-163.751,67.828
		C752.508,419.988,728.42,478.143,728.42,540s24.088,120.012,67.829,163.752C839.988,747.491,898.143,771.58,960,771.58
		c61.857,0,120.012-24.089,163.752-67.828c43.739-43.74,67.828-101.895,67.828-163.752S1167.491,419.988,1123.752,376.248z
		 M960,759.58c-121.077,0-219.58-98.503-219.58-219.58S838.923,320.42,960,320.42c121.077,0,219.58,98.503,219.58,219.58
		S1081.077,759.58,960,759.58z"/>
	<path fill="#5A5B5B" d="M1145.752,354.248c-49.616-49.616-115.584-76.941-185.752-76.941s-136.136,27.325-185.752,76.941
		C724.631,403.864,697.307,469.832,697.307,540s27.325,136.136,76.941,185.752c49.616,49.616,115.584,76.941,185.752,76.941
		s136.136-27.325,185.752-76.941s76.941-115.584,76.941-185.752S1195.368,403.864,1145.752,354.248z M960,790.693
		c-138.233,0-250.693-112.461-250.693-250.693S821.767,289.307,960,289.307c138.232,0,250.693,112.461,250.693,250.693
		S1098.232,790.693,960,790.693z"/>
</g>
</svg>
