<?xml version="1.0" encoding="utf-8"?>
<!-- Generator: Adobe Illustrator 15.1.0, SVG Export Plug-In . SVG Version: 6.00 Build 0)  -->
<!DOCTYPE svg PUBLIC "-//W3C//DTD SVG 1.1//EN" "http://www.w3.org/Graphics/SVG/1.1/DTD/svg11.dtd" [
	<!ENTITY ns_extend "http://ns.adobe.com/Extensibility/1.0/">
	<!ENTITY ns_ai "http://ns.adobe.com/AdobeIllustrator/10.0/">
	<!ENTITY ns_graphs "http://ns.adobe.com/Graphs/1.0/">
	<!ENTITY ns_vars "http://ns.adobe.com/Variables/1.0/">
	<!ENTITY ns_imrep "http://ns.adobe.com/ImageReplacement/1.0/">
	<!ENTITY ns_sfw "http://ns.adobe.com/SaveForWeb/1.0/">
	<!ENTITY ns_custom "http://ns.adobe.com/GenericCustomNamespace/1.0/">
	<!ENTITY ns_adobe_xpath "http://ns.adobe.com/XPath/1.0/">
]>
<svg version="1.1" id="Layer_1" xmlns:x="&ns_extend;" xmlns:i="&ns_ai;" xmlns:graph="&ns_graphs;"
	 xmlns="http://www.w3.org/2000/svg" xmlns:xlink="http://www.w3.org/1999/xlink" x="0px" y="0px" width="1920px" height="1080px"
	 viewBox="0 0 1920 1080" enable-background="new 0 0 1920 1080" xml:space="preserve">

	<g i:extraneous="self">
		<g>
			<path fill="#5A5B5B" d="M1135.775,378.958H892.857v30.744v352.898h245.133V378.958H1135.775z M1122.146,388.731
				c3.586,0,6.498,2.918,6.498,6.504c0,3.592-2.912,6.498-6.498,6.498s-6.492-2.906-6.492-6.498
				C1115.654,391.649,1118.561,388.731,1122.146,388.731z M1089.328,388.731c3.586,0,6.498,2.918,6.498,6.504
				c0,3.592-2.912,6.498-6.498,6.498s-6.498-2.906-6.498-6.498C1082.83,391.649,1085.742,388.731,1089.328,388.731z
				 M1056.51,388.731c3.586,0,6.492,2.918,6.492,6.504c0,3.592-2.906,6.498-6.492,6.498s-6.492-2.906-6.492-6.498
				C1050.018,391.649,1052.924,388.731,1056.51,388.731z M1129.576,754.187H901.266V409.702h228.311V754.187z"/>
			<rect x="871.014" y="431.054" fill="#5A5B5B" width="236.045" height="8.414"/>
			<rect x="910.084" y="457.099" fill="#5A5B5B" width="169.301" height="8.414"/>
			<rect x="975.199" y="483.149" fill="#5A5B5B" width="131.859" height="8.414"/>
			<rect x="871.014" y="535.233" fill="#5A5B5B" width="236.045" height="8.414"/>
			<rect x="923.654" y="561.278" fill="#5A5B5B" width="183.404" height="8.414"/>
			<rect x="949.693" y="587.329" fill="#5A5B5B" width="157.365" height="8.414"/>
			<rect x="871.014" y="639.425" fill="#5A5B5B" width="236.045" height="8.414"/>
			<rect x="923.654" y="665.47" fill="#5A5B5B" width="154.652" height="8.414"/>
			<rect x="949.693" y="691.515" fill="#5A5B5B" width="157.365" height="8.414"/>
			<rect x="976.564" y="717.565" fill="#5A5B5B" width="77.643" height="8.414"/>
			<g>
				<path fill="#5A5B5B" d="M1160.01,310.274H891.053c1.066,5.549,1.676,11.256,1.676,17.109c0,11.936-2.379,23.314-6.592,33.762
					h288.158v419.256H856.283V399.864c-6.949,5.209-14.648,9.422-22.934,12.48v381.721c0,20.549,16.652,37.213,37.219,37.213
					h289.441c20.549,0,37.219-16.664,37.219-37.213V347.487C1197.229,326.938,1180.559,310.274,1160.01,310.274z M1015.289,820.444
					c-7.758,0-14.051-6.293-14.051-14.045c0-7.764,6.293-14.057,14.051-14.057s14.051,6.293,14.051,14.057
					C1029.34,814.151,1023.047,820.444,1015.289,820.444z"/>
			</g>
			<path fill="#5A5B5B" d="M801.428,248.722c-43.441,0-78.656,35.221-78.656,78.662c0,43.43,35.215,78.639,78.656,78.639
				c43.43,0,78.645-35.209,78.645-78.639C880.072,283.942,844.857,248.722,801.428,248.722z M840.041,338.786h-27.205v27.205
				h-22.822v-27.205h-27.211V315.97h27.211v-27.217h22.822v27.217h27.205V338.786z"/>
		</g>
	</g>

</svg>
