<?xml version="1.0" encoding="utf-8"?>
<!-- Generator: Adobe Illustrator 15.1.0, SVG Export Plug-In . SVG Version: 6.00 Build 0)  -->
<!DOCTYPE svg PUBLIC "-//W3C//DTD SVG 1.1//EN" "http://www.w3.org/Graphics/SVG/1.1/DTD/svg11.dtd">
<svg version="1.1" id="Layer_1" xmlns="http://www.w3.org/2000/svg" xmlns:xlink="http://www.w3.org/1999/xlink" x="0px" y="0px" width="750px" height="750px"
	 viewBox="585 165 750 750" enable-background="new 585 165 750 750" xml:space="preserve">

	<g>
		<g>
			<path fill="#5A5B5B" d="M1107.376,796.146V354.69h-2.549H825.303v35.377v24.568h-25.135v9.682h25.135v110.197h-25.135v9.682
				h25.135v110.21h-25.135v9.683h25.135v132.056H1107.376z M1089.146,365.936c4.125,0,7.475,3.358,7.475,7.485
				c0,4.133-3.35,7.477-7.475,7.477c-4.129,0-7.471-3.344-7.471-7.477C1081.675,369.294,1085.017,365.936,1089.146,365.936z
				 M1051.38,365.936c4.127,0,7.479,3.358,7.479,7.485c0,4.133-3.352,7.477-7.479,7.477c-4.125,0-7.477-3.344-7.477-7.477
				C1043.903,369.294,1047.255,365.936,1051.38,365.936z M1013.616,365.936c4.127,0,7.471,3.358,7.471,7.485
				c0,4.133-3.344,7.477-7.471,7.477c-4.125,0-7.471-3.344-7.471-7.477C1006.146,369.294,1009.491,365.936,1013.616,365.936z
				 M834.978,664.09h236.805v-9.683H834.978v-110.21h236.805v-9.682H834.978V424.318h236.805v-9.682H834.978v-24.568h262.717
				v396.396H834.978V664.09z"/>
			<rect x="845.126" y="444.605" fill="#5A5B5B" width="194.812" height="9.682"/>
			<rect x="920.054" y="474.583" fill="#5A5B5B" width="151.729" height="9.682"/>
			<rect x="860.741" y="564.485" fill="#5A5B5B" width="211.042" height="9.681"/>
			<rect x="890.704" y="594.461" fill="#5A5B5B" width="181.079" height="9.682"/>
			<rect x="860.741" y="684.377" fill="#5A5B5B" width="177.958" height="9.683"/>
			<rect x="890.704" y="714.347" fill="#5A5B5B" width="181.079" height="9.683"/>
			<rect x="921.624" y="744.323" fill="#5A5B5B" width="89.342" height="9.683"/>
			<path fill="#5A5B5B" d="M1132.712,275.656H823.227c1.228,6.385,1.928,12.952,1.928,19.688c0,13.734-2.737,26.828-7.585,38.849
				h331.582v482.436H783.217V378.747c-7.996,5.994-16.855,10.841-26.39,14.361V832.35c0,23.646,19.162,42.822,42.827,42.822h333.057
				c23.646,0,42.828-19.176,42.828-42.822V318.477C1175.54,294.832,1156.358,275.656,1132.712,275.656z M966.185,862.705
				c-8.928,0-16.168-7.241-16.168-16.163c0-8.933,7.24-16.174,16.168-16.174c8.926,0,16.168,7.241,16.168,16.174
				C982.353,855.464,975.11,862.705,966.185,862.705z"/>
			<path fill="#5A5B5B" d="M810.591,295.344c0-49.988-40.521-90.516-90.495-90.516c-49.988,0-90.51,40.528-90.51,90.516
				c0,49.974,40.521,90.489,90.51,90.489C770.07,385.833,810.591,345.318,810.591,295.344z M764.527,308.464h-31.304v31.305h-26.261
				v-31.305H675.65v-26.255h31.312v-31.317h26.261v31.317h31.304V308.464z"/>
		</g>
	</g>


</svg>
