<?xml version="1.0" encoding="utf-8"?>
<!-- Generator: Adobe Illustrator 15.1.0, SVG Export Plug-In . SVG Version: 6.00 Build 0)  -->
<!DOCTYPE svg PUBLIC "-//W3C//DTD SVG 1.1//EN" "http://www.w3.org/Graphics/SVG/1.1/DTD/svg11.dtd">
<svg version="1.1" id="Layer_1" xmlns="http://www.w3.org/2000/svg" xmlns:xlink="http://www.w3.org/1999/xlink" x="0px" y="0px"
	 width="750px" height="750px" viewBox="0 0 750 750" enable-background="new 0 0 750 750" xml:space="preserve">
<g>
	<path fill="#5A5B5B" d="M570.982,483.218l-74.76-74.761h37.904c2.022,0,3.846-1.219,4.619-3.087
		c0.774-1.868,0.347-4.019-1.084-5.449l-74.755-74.75h37.904c2.022,0,3.846-1.218,4.619-3.086c0.774-1.869,0.347-4.019-1.084-5.449
		l-83.291-83.286c-1.951-1.952-5.119-1.952-7.07,0l-13.12,13.12c-1.953,1.953-1.953,5.119,0,7.071c1.951,1.952,5.119,1.952,7.07,0
		l9.585-9.585l71.22,71.215h-37.904c-2.022,0-3.846,1.218-4.619,3.086c-0.774,1.869-0.347,4.019,1.084,5.449l74.755,74.75h-37.904
		c-2.022,0-3.846,1.218-4.619,3.086c-0.774,1.869-0.347,4.02,1.084,5.449l74.76,74.761h-104.54c-2.762,0-5,2.238-5,5v52.354
		c0,2.762,2.238,5,5,5s5-2.238,5-5v-47.354h111.611c2.022,0,3.846-1.218,4.619-3.087
		C572.84,486.798,572.412,484.647,570.982,483.218z"/>
	<path fill="#5A5B5B" d="M482.427,465.761c2.762,0,5-2.238,5-5c0-1.517-0.675-2.875-1.74-3.792l-74.5-74.504h37.9
		c0.007-0.001,0.014-0.001,0.02,0c2.762,0,5-2.239,5-5c0-1.517-0.675-2.875-1.74-3.792l-74.495-74.499h37.9c0.007,0,0.015,0,0.02,0
		c2.762,0,5-2.239,5-5c0-1.517-0.675-2.875-1.741-3.792l-83.034-83.024c-1.953-1.952-5.117-1.952-7.07,0l-83.291,83.281
		c-1.431,1.43-1.858,3.581-1.084,5.449c0.773,1.869,2.597,3.087,4.619,3.087h37.904l-74.755,74.755
		c-1.43,1.43-1.857,3.581-1.084,5.449c0.774,1.868,2.597,3.087,4.62,3.087h37.904l-74.76,74.761c-1.43,1.43-1.857,3.58-1.084,5.448
		c0.774,1.869,2.597,3.087,4.62,3.087h111.611v73.345c0,2.762,2.238,5,5,5h66.636c2.762,0,5-2.238,5-5v-73.345h111.606
		C482.414,465.76,482.422,465.76,482.427,465.761z"/>
	<path fill="#5A5B5B" d="M395.327,476.328c-2.762,0-5,2.238-5,5v57.778c0,2.762,2.238,5,5,5s5-2.238,5-5v-57.778
		C400.327,478.566,398.089,476.328,395.327,476.328z"/>
</g>
</svg>
