<svg xmlns="http://www.w3.org/2000/svg" viewBox="0 0 595.3 595.3"><path fill="#5B5B5B" d="M287.8 125.7c-74.9 0-135.6 8.5-135.6 67.8v161c0 32.8 26.6 59.3 59.3 59.3l-25.4 25.4v8.5h203.3v-8.5L364 413.8c32.8 0 59.3-26.6 59.3-59.3v-161c.1-59.3-60.6-67.8-135.5-67.8zm-76.2 254.2c-14 0-25.4-11.4-25.4-25.4 0-14 11.4-25.4 25.4-25.4s25.4 11.4 25.4 25.4c0 14-11.4 25.4-25.4 25.4zm59.3-101.7h-84.7v-84.7h84.7v84.7zm93.2 101.7c-14 0-25.4-11.4-25.4-25.4 0-14 11.4-25.4 25.4-25.4 14 0 25.4 11.4 25.4 25.4 0 14-11.4 25.4-25.4 25.4zm25.4-101.7h-84.7v-84.7h84.7v84.7z"/></svg>