<svg xmlns="http://www.w3.org/2000/svg" width="750" height="750" viewBox="0 0 750 750"><g fill="#5A5B5B"><path d="M574.893 506.408l-74.756-74.76h37.905c2.022 0 3.846-1.22 4.62-3.087.773-1.867.346-4.018-1.085-5.448l-74.76-74.75h37.904c2.023 0 3.847-1.22 4.62-3.087.774-1.868.347-4.02-1.084-5.45l-83.29-83.285c-1.952-1.952-5.12-1.952-7.07 0l-13.12 13.12c-1.104 1.103-1.63 2.655-1.422 4.2 6.803 50.798-7.57 90.462-42.718 117.89-26.504 20.686-55.563 26.39-55.848 26.443-2.537.478-4.294 2.808-4.054 5.378s2.397 4.537 4.98 4.537h38.164l-75.96 78.355c-1.397 1.442-1.796 3.58-1.014 5.43.783 1.85 2.596 3.05 4.604 3.05h111.606v44.972c0 2.762 2.238 5 5 5h66.63c2.763 0 5-2.238 5-5v-44.97h111.612c2.022 0 3.846-1.22 4.62-3.088.775-1.868.347-4.018-1.083-5.448zM244.538 302.81v-70.74h-10.536l-20.17 6.02 3.212 12.643 12.242-3.01v55.087M271.628 247.722v55.088h15.252v-70.74h-10.536l-20.17 6.02 3.212 12.643M332.632 304.014c18.764 0 31.307-15.954 31.307-36.424s-12.343-36.224-31.106-36.224c-18.765 0-31.307 15.954-31.307 36.424s12.34 36.224 31.105 36.224zm0-58.7c9.332 0 15.453 9.633 15.453 22.477s-5.92 22.277-15.252 22.277-15.453-9.533-15.453-22.477 5.92-22.276 15.252-22.276z"/><path d="M397.447 296.99c0-61.704-50.198-111.904-111.9-111.904-61.703 0-111.903 50.2-111.903 111.904 0 61.7 50.2 111.898 111.904 111.898 61.7 0 111.9-50.197 111.9-111.898zm-213.804 0c0-56.19 45.714-101.904 101.904-101.904 56.188 0 101.9 45.714 101.9 101.904 0 56.187-45.713 101.898-101.9 101.898-56.19 0-101.904-45.71-101.904-101.898z"/><path d="M268.572 323.522c-6.286 0-9.96 3.347-12.816 7.02v-22.04h-12.41v59.593h12.41v-24.408c0-5.878 3.02-8.898 7.755-8.898s7.512 3.02 7.512 8.897v24.408h12.408v-28.327c0-10.042-5.47-16.246-14.858-16.246zM306.61 368.91c6.04 0 10.204-2.203 13.225-5.55v4.734h12v-25.388c0-11.838-5.96-18.858-19.51-18.858-7.43 0-12.163 1.39-16.98 3.51l3.103 9.47c4-1.47 7.348-2.366 12.082-2.366 6.204 0 9.388 2.856 9.388 8v.734c-3.102-1.062-6.285-1.796-10.693-1.796-10.368 0-17.634 4.408-17.634 13.96v.163c0 8.653 6.775 13.388 15.02 13.388zm-3.02-14.04c0-3.918 3.265-6.04 8.57-6.04 3.022 0 5.797.652 7.92 1.632v2.204c0 4.49-3.92 7.674-9.715 7.674-4 0-6.775-1.96-6.775-5.307v-.163z"/></g></svg>