<?xml version="1.0" encoding="utf-8"?>
<!-- Generator: Adobe Illustrator 15.1.0, SVG Export Plug-In . SVG Version: 6.00 Build 0)  -->
<!DOCTYPE svg PUBLIC "-//W3C//DTD SVG 1.1//EN" "http://www.w3.org/Graphics/SVG/1.1/DTD/svg11.dtd">
<svg version="1.1" id="Layer_1" xmlns="http://www.w3.org/2000/svg" xmlns:xlink="http://www.w3.org/1999/xlink" x="0px" y="0px"
	 width="750px" height="750px" viewBox="585 165 750 750" enable-background="new 585 165 750 750" xml:space="preserve">
<g>
	<path fill="#5A5B5B" d="M694.174,439.359L694.174,439.359l-16.162-0.001l-47.737,55.32l3.108,13.551h42.515v18.772h18.275v-18.772
		h11.686v-15.538h-11.686V439.359z M675.898,492.691h-23.121l23.121-27.101V492.691z"/>
	<polygon fill="#5A5B5B" points="784.176,460.369 761.55,460.369 739.422,484.61 739.422,436.251 720.525,436.251 720.525,527.001 
		739.422,527.001 739.422,506.738 746.011,499.776 763.414,527.001 763.414,527 785.046,527 758.816,486.6 	"/>
	<path fill="#5A5B5B" d="M834.629,458.421c0-67.262-54.724-121.983-121.99-121.983c-67.262,0-121.984,54.721-121.984,121.983
		c0,67.268,54.722,121.995,121.984,121.995C779.905,580.416,834.629,525.689,834.629,458.421z M712.639,568.416
		c-60.646,0-109.984-49.343-109.984-109.995c0-60.645,49.338-109.983,109.984-109.983c60.648,0,109.99,49.338,109.99,109.983
		C822.629,519.073,773.288,568.416,712.639,568.416z"/>
	<path fill="#5A5B5B" d="M974.552,586.544c-46.416,3.841-88.894,13.554-119.608,27.349c-30.734,13.804-47.783,30.787-48.083,47.873
		c-0.021,0.203-0.032,0.405-0.032,0.601c0,3.313,2.686,6,6,6c2.956,0,5.412-2.137,5.909-4.95c0.077-0.397,0.119-0.81,0.119-1.192
		c0-11.878,15.328-25.854,41.003-37.385c28.863-12.964,68.804-22.195,112.745-26.084c15.658,16.602,37.735,26.964,42.114,28.918
		c2.248,1.031,4.805,1.592,7.254,1.546c2.43-0.018,4.773-0.537,6.918-1.52c4.431-1.976,26.504-12.324,42.178-28.945
		c43.939,3.888,83.88,13.12,112.743,26.084c25.676,11.531,41.005,25.507,41.005,37.385c0,0.374,0.033,0.739,0.1,1.108
		c0.461,2.855,2.938,5.035,5.923,5.035c3.313,0,6-2.687,6-6c0-0.19-0.009-0.379-0.025-0.566
		c-0.277-17.097-17.329-34.095-48.085-47.909c-30.715-13.795-73.192-23.507-119.607-27.348c-1.909-0.158-3.756,0.596-5.008,2.025
		c-14.373,16.407-37.518,27.015-40.165,28.195c-0.683,0.313-1.452,0.453-2.185,0.456c-0.711-0.01-1.416-0.167-2.097-0.479
		c-2.594-1.158-25.752-11.784-40.108-28.172C978.307,587.139,976.448,586.387,974.552,586.544z"/>
	<path fill="#5A5B5B" d="M1019.094,589.522c0.855,0.437,1.79,0.654,2.725,0.654c0.941,0,1.882-0.222,2.743-0.664
		c6.651-3.419,39.835-21.444,39.835-40.611v-41.749c0-1.805-0.813-3.514-2.213-4.654s-3.241-1.587-5.006-1.221l-34.291,7.113
		c-0.675,0.146-1.393,0.146-2.114-0.009l-34.242-7.104c-1.765-0.366-3.605,0.082-5.007,1.221c-1.399,1.14-2.213,2.849-2.213,4.654
		v41.749C979.311,568.674,1015.021,587.447,1019.094,589.522z M991.312,514.525l26.979,5.597c2.327,0.501,4.79,0.501,7.077,0.009
		l27.028-5.606v34.376c0,6.949-12.965,18.938-30.585,28.494c-17.052-9.236-30.501-21.69-30.501-28.494L991.312,514.525z"/>
	<path fill="#5A5B5B" d="M1328.173,641.712l-41.706-108.06c-1.878-4.903-5.821-8.644-10.796-10.255l-248.434-81.555
		c-3.476-1.126-7.305-1.127-10.804,0.007L840.7,499.524c-3.148,1.033-4.863,4.423-3.83,7.572c1.034,3.148,4.423,4.864,7.572,3.83
		l175.711-57.667c1.077-0.349,2.31-0.349,3.363-0.007l248.435,81.555c1.529,0.496,2.735,1.64,3.315,3.153l41.713,108.08
		c0.867,2.239,0.18,4.723-1.713,6.184l-64.816,50.062c-1.471,1.137-2.332,2.891-2.332,4.749v15.013
		c-34.894-31.001-67.574-51.183-102.03-63.119c-33.694-11.673-69.691-16.434-124.247-16.434c-50.737,0-98.396,7.33-137.82,21.199
		c-37.904,13.333-67.576,32.2-88.467,56.212v-12.87c0-1.858-0.861-3.611-2.332-4.748l-64.785-50.055
		c-1.865-1.447-2.573-3.993-1.72-6.197l21.212-54.962c1.193-3.092-0.346-6.564-3.438-7.758c-3.093-1.194-6.565,0.347-7.758,3.438
		l-21.209,54.956c-2.751,7.105-0.466,15.331,5.566,20.012l62.463,48.261v23.619l-0.005,0.14c-0.009,0.212-0.017,0.424-0.017,0.649
		v3.176c0,2.638,1.723,4.966,4.245,5.737c0.58,0.178,1.17,0.263,1.754,0.263c1.957,0,3.837-0.96,4.974-2.644
		c37.069-54.926,119.93-86.428,227.336-86.428c92.7,0,150.488,12.799,228.177,85.529c1.745,1.634,4.297,2.076,6.487,1.125
		c2.194-0.951,3.613-3.114,3.613-5.505v-25.662l62.482-48.26C1328.638,657.061,1330.929,648.831,1328.173,641.712z"/>
	<polygon fill="#5A5B5B" points="737.369,385.982 718.825,385.982 718.825,367.433 706.464,367.433 706.464,385.982 
		687.914,385.982 687.914,398.344 706.464,398.344 706.464,416.893 718.825,416.893 718.825,398.344 737.369,398.344 	"/>
</g>
</svg>
