<?xml version="1.0" encoding="utf-8"?>
<!-- Generator: Adobe Illustrator 15.1.0, SVG Export Plug-In . SVG Version: 6.00 Build 0)  -->
<!DOCTYPE svg PUBLIC "-//W3C//DTD SVG 1.1//EN" "http://www.w3.org/Graphics/SVG/1.1/DTD/svg11.dtd">
<svg version="1.1" id="Layer_1" xmlns="http://www.w3.org/2000/svg" xmlns:xlink="http://www.w3.org/1999/xlink" x="0px" y="0px"
	 width="750px" height="750px" viewBox="585 165 750 750" enable-background="new 585 165 750 750" xml:space="preserve">
<g>
	<path fill="#5A5B5B" d="M857.442,390.836c35.157-39.184,85.487-61.658,138.086-61.658c30.439,0,60.631,7.537,87.311,21.795
		c2.921,1.562,6.558,0.46,8.12-2.463c1.562-2.923,0.459-6.558-2.464-8.12c-28.414-15.186-60.562-23.212-92.967-23.212
		c-56.002,0-109.588,23.926-147.018,65.644c-2.213,2.466-2.007,6.26,0.459,8.473c1.146,1.028,2.578,1.534,4.005,1.534
		C854.619,392.829,856.258,392.157,857.442,390.836z"/>
	<path fill="#5A5B5B" d="M870.497,651.579c-2.446-2.235-6.242-2.063-8.477,0.383c-2.235,2.447-2.063,6.242,0.383,8.477
		c36.453,33.298,83.73,51.636,133.125,51.636c108.875,0,197.451-88.576,197.451-197.451c0-16.769-2.105-33.417-6.257-49.482
		c-0.829-3.208-4.106-5.137-7.311-4.308c-3.209,0.829-5.138,4.102-4.309,7.311c3.899,15.085,5.876,30.723,5.876,46.479
		c0,102.258-83.193,185.451-185.451,185.451C949.136,700.074,904.732,682.852,870.497,651.579z"/>
	<path fill="#5A5B5B" d="M884.958,632.022v6.948c0,3.313,2.686,6,6,6h60.744c3.314,0,6-2.687,6-6v-5.699h130.773
		c3.313,0,6-2.687,6-6s-2.687-6-6-6H957.701V407.977h130.773c3.313,0,6-2.687,6-6s-2.687-6-6-6H957.701v-5.699c0-3.314-2.686-6-6-6
		h-60.744c-3.314,0-6,2.686-6,6v5.419c-76.859,1.513-147.671,32.06-199.956,86.429c-51.155,53.195-79.907,123.728-81.357,199.185
		h-8.849c-3.314,0-6,2.687-6,6v60.737c0,3.313,2.686,6,6,6H843.49c3.314,0,6-2.687,6-6v-60.737c0-3.313-2.686-6-6-6h-7.826
		C838.455,655.428,859.072,634.813,884.958,632.022z M896.958,396.277h48.744v5.699v225.295v5.699h-48.744V396.277z M837.49,742.048
		H600.796v-48.737h8.779h219.76h8.155V742.048z M823.599,681.311H615.634c3.007-151.922,119.75-270.517,269.323-273.613v212.271
		C852.448,622.841,826.47,648.803,823.599,681.311z"/>
	<path fill="#5A5B5B" d="M727.644,758.011c-2.839,1.709-3.755,5.396-2.046,8.235c11.76,19.536,17.976,36.408,17.976,48.792
		c0,15.076-12.257,27.341-27.324,27.341c-15.074,0-27.337-12.265-27.337-27.341c0-8.254,9.798-25.007,17.672-38.469
		c2.529-4.324,4.917-8.407,7.092-12.341c1.604-2.899,0.553-6.55-2.347-8.154c-2.899-1.603-6.551-0.553-8.154,2.348
		c-2.105,3.807-4.458,7.829-6.949,12.089c-9.495,16.234-19.313,33.022-19.313,44.527c0,21.692,17.646,39.341,39.337,39.341
		c21.683,0,39.324-17.648,39.324-39.341c0-14.772-6.626-33.271-19.695-54.981C734.169,757.219,730.484,756.302,727.644,758.011z"/>
	<path fill="#5A5B5B" d="M1142.748,392.717c0.876,0.379,17.027,7.243,41.125,10.492c-0.494,0.872-0.779,1.877-0.779,2.95
		c0,12.936,10.529,23.459,23.472,23.459c12.936,0,23.459-10.524,23.459-23.459c0-0.915-0.211-1.778-0.576-2.553
		c14.302-1.781,27.99-5.413,40.882-10.872c2.219-0.939,3.66-3.115,3.66-5.525c0-17.616-6.669-34.11-18.834-46.729v-33.947
		c0-26.796-21.798-48.596-48.591-48.596c-26.8,0-48.603,21.8-48.603,48.596v33.949c-12.166,12.629-18.835,29.123-18.835,46.727
		C1139.128,389.603,1140.551,391.768,1142.748,392.717z M1218.024,406.159c0,6.319-5.141,11.459-11.459,11.459
		c-6.325,0-11.472-5.141-11.472-11.459c0-0.625-0.096-1.228-0.273-1.794c4.396,0.333,8.984,0.525,13.734,0.525
		c0.002,0,0.004,0,0.007,0c3.251,0,6.474-0.101,9.672-0.28C1218.102,405.105,1218.024,405.623,1218.024,406.159z M1168.126,347.286
		c1.174-1.131,1.837-2.69,1.837-4.32v-36.432c0-20.179,16.42-36.596,36.603-36.596c20.176,0,36.591,16.417,36.591,36.596v36.432
		c0,1.631,0.664,3.191,1.839,4.323c9.995,9.622,15.896,22.262,16.855,35.938c-16.518,6.415-34.421,9.664-53.289,9.664
		c-0.002,0-0.006,0-0.007,0c-26.977-0.001-48.831-6.731-57.281-9.751C1152.254,369.506,1158.151,356.899,1168.126,347.286z"/>
	<path fill="#5A5B5B" d="M1219.52,349.325c-0.291-3.301-3.2-5.745-6.505-5.449c-18.146,1.602-34.549-2.473-34.712-2.514
		c-3.218-0.819-6.473,1.125-7.291,4.333c-0.818,3.211,1.121,6.478,4.332,7.296c0.62,0.158,13.015,3.262,28.845,3.262
		c3.178,0,6.495-0.125,9.883-0.424C1217.372,355.538,1219.812,352.625,1219.52,349.325z"/>
	<path fill="#5A5B5B" d="M1228.68,354.542c0.399,0,0.807-0.04,1.213-0.124c0.15-0.031,3.707-0.769,7.319-2.163
		c3.092-1.192,4.632-4.666,3.438-7.757c-1.192-3.091-4.669-4.63-7.757-3.438c-2.635,1.016-5.352,1.59-5.421,1.605
		c-3.243,0.669-5.331,3.839-4.664,7.083C1223.392,352.587,1225.891,354.542,1228.68,354.542z"/>
	<path fill="#5A5B5B" d="M1206.565,455.542c61.618,0,111.749-50.136,111.749-111.761c0-61.622-50.131-111.755-111.749-111.755
		c-61.626,0-111.762,50.133-111.762,111.755C1094.804,405.406,1144.939,455.542,1206.565,455.542z M1206.565,244.025
		c55.002,0,99.749,44.75,99.749,99.755c0,55.008-44.747,99.761-99.749,99.761c-55.009,0-99.762-44.752-99.762-99.761
		C1106.804,288.775,1151.557,244.025,1206.565,244.025z"/>
	<path fill="#5A5B5B" d="M1206.565,216.745c-28.122,0-54.771,9-77.062,26.025c-19.746,15.081-34.819,35.93-42.963,59.25
		c-29.714-12.792-61.771-19.529-93.138-19.529c-41.666,0-82.57,11.106-118.29,32.118c-34.667,20.392-63.67,49.551-83.874,84.325
		c-1.665,2.865-0.691,6.538,2.174,8.202c2.864,1.664,6.537,0.691,8.202-2.174c39.59-68.141,113.079-110.471,191.788-110.471
		c31.83,0,64.435,7.327,94.29,21.188c1.589,0.738,3.422,0.745,5.017,0.017c1.594-0.727,2.791-2.115,3.275-3.799
		c14.094-48.958,59.565-83.152,110.58-83.152c63.431,0,115.036,51.605,115.036,115.037c0,59.933-46.755,110.331-106.442,114.735
		c-1.73,0.128-3.321,0.999-4.361,2.387s-1.428,3.16-1.063,4.856c3.268,15.217,5.298,34.516,5.298,50.367
		c0,122.214-99.422,221.642-221.629,221.642c-45.883,0-89.912-13.899-127.327-40.195c-2.712-1.906-6.454-1.253-8.359,1.459
		c-1.906,2.711-1.252,6.454,1.458,8.359c39.447,27.724,85.862,42.377,134.228,42.377c62.405,0,121.074-24.303,165.2-68.431
		c44.127-44.128,68.429-102.802,68.429-165.211c0-14.43-1.604-31.589-4.27-46.318c29.334-3.733,56.365-17.56,76.716-39.377
		c22.005-23.591,34.123-54.364,34.123-86.65C1333.602,273.733,1276.613,216.745,1206.565,216.745z"/>
</g>
</svg>
