<svg xmlns="http://www.w3.org/2000/svg" width="750" height="750" viewBox="585 165 750 750"><g fill="#5A5B5B"><path d="M760.388 705.37c-64.375 0-116.75-52.375-116.75-116.75s52.374-116.75 116.75-116.75 116.75 52.373 116.75 116.75-52.374 116.75-116.75 116.75zm0-208.632c-50.663 0-91.88 41.218-91.88 91.88 0 50.665 41.217 91.882 91.88 91.882 50.664 0 91.88-41.217 91.88-91.88 0-50.664-41.217-91.882-91.88-91.882zM1167.887 705.37c-64.377 0-116.75-52.375-116.75-116.75s52.373-116.75 116.75-116.75c64.375 0 116.75 52.373 116.75 116.75s-52.375 116.75-116.75 116.75zm0-208.632c-50.664 0-91.882 41.218-91.882 91.88 0 50.665 41.218 91.882 91.882 91.882 50.663 0 91.88-41.217 91.88-91.88 0-50.664-41.217-91.882-91.88-91.882z"/><path d="M760.384 596.91c-1.902 0-3.814-.652-5.375-1.983-3.484-2.972-3.9-8.203-.93-11.687.78-.916 64.068-76.19 64.068-150.632v-84.264c0-4.578 3.712-8.29 8.29-8.29h20.254c4.578 0 8.29 3.712 8.29 8.29s-3.71 8.29-8.29 8.29h-11.965v75.974c0 34.033-11.473 71.565-34.1 111.552-16.712 29.535-33.237 49.023-33.932 49.84-1.64 1.922-3.968 2.91-6.31 2.91z"/><path d="M1034.824 502.397c-2.042 0-4.04-.757-5.585-2.164-38.793-35.37-91.994-56.735-129.792-68.43-41.313-12.784-73.763-17.122-74.086-17.164-4.54-.596-7.737-4.757-7.144-9.295.594-4.54 4.754-7.74 9.29-7.146 1.366.177 33.93 4.514 76.53 17.668 36.638 11.312 87.22 31.404 127.18 64.17l35.69-95.867c1.597-4.29 6.37-6.472 10.66-4.875 4.29 1.597 6.474 6.37 4.876 10.66L1042.594 497c-.96 2.58-3.142 4.517-5.818 5.164-.646.156-1.3.233-1.952.233z"/><path d="M1005.22 604.146c-2.928 0-5.665-1.55-7.16-4.113-.847-1.45-85.658-145.23-172.936-159.24-4.52-.725-7.597-4.978-6.87-9.498.725-4.52 4.978-7.594 9.497-6.87 40.256 6.462 83.65 36.737 128.98 89.987 26.84 31.53 46.016 61.485 52.892 72.686l149.173-14.572c-46.055-74.616-108.558-124.937-109.214-125.46-3.578-2.855-4.166-8.07-1.313-11.65 2.854-3.577 8.068-4.167 11.646-1.315 2.91 2.32 71.826 57.744 119.88 141.273 1.403 2.44 1.473 5.426.183 7.93-1.29 2.503-3.76 4.18-6.563 4.454l-167.386 16.352c-.27.023-.54.036-.808.036z"/><path d="M1005.224 604.148c-.767 0-1.546-.107-2.32-.333-4.395-1.28-6.922-5.88-5.643-10.275l29.605-101.748c1.278-4.396 5.88-6.922 10.275-5.644 4.396 1.278 6.922 5.88 5.644 10.275L1013.18 598.17c-1.054 3.624-4.365 5.978-7.956 5.978zM1281.065 514.944c-24.1-36.946-65.773-61.386-113.18-61.386-74.59 0-135.06 60.472-135.06 135.06 0 1.516.063 3.02.112 4.526l139.667-13.64 108.46-64.56z"/><path d="M1032.938 601.435c-2.005 0-3.952-.728-5.472-2.062-1.722-1.514-2.74-3.672-2.814-5.963l-.03-.9c-.042-1.25-.086-2.542-.086-3.89 0-79.044 64.307-143.352 143.35-143.352 48.608 0 93.515 24.354 120.122 65.147 1.234 1.89 1.643 4.203 1.133 6.402-.51 2.2-1.895 4.095-3.834 5.25l-108.46 64.56c-1.048.623-2.22 1.008-3.434 1.127l-139.668 13.64c-.27.028-.538.04-.806.04zm134.95-139.587c-68.36 0-124.253 54.388-126.69 122.16l128.76-12.573 99.197-59.047c-23.93-31.798-61.177-50.54-101.268-50.54zM1112.36 387.064h-77.536M1112.36 395.354h-77.536c-4.578 0-8.29-3.71-8.29-8.29s3.712-8.29 8.29-8.29h77.536c4.578 0 8.29 3.713 8.29 8.29s-3.712 8.29-8.29 8.29zM1316.45 739.944h-712.9c-6.866 0-12.434-5.567-12.434-12.435s5.567-12.436 12.435-12.436h712.9c6.866 0 12.434 5.567 12.434 12.435s-5.568 12.434-12.435 12.434z"/></g></svg>