<?xml version="1.0" encoding="utf-8"?>
<!-- Generator: Adobe Illustrator 15.1.0, SVG Export Plug-In . SVG Version: 6.00 Build 0)  -->
<!DOCTYPE svg PUBLIC "-//W3C//DTD SVG 1.1//EN" "http://www.w3.org/Graphics/SVG/1.1/DTD/svg11.dtd">
<svg version="1.1" id="Layer_1" xmlns="http://www.w3.org/2000/svg" xmlns:xlink="http://www.w3.org/1999/xlink" x="0px" y="0px"
	 width="750px" height="750px" viewBox="585 165 750 750" enable-background="new 585 165 750 750" xml:space="preserve">
<g>
	<path fill="#5A5B5B" d="M1301.73,756.671h-216.416V694.86h166.248c2.427,0,4.614-1.462,5.543-3.704s0.416-4.822-1.3-6.538
		l-112.794-112.799h59.332c2.427,0,4.614-1.462,5.543-3.704s0.416-4.822-1.301-6.538L1093.8,448.79h59.331
		c2.427,0,4.614-1.462,5.543-3.704s0.416-4.823-1.301-6.539l-123.029-123.023c-2.342-2.343-6.143-2.343-8.484,0l-76.424,76.424
		c-2.343,2.343-2.343,6.142,0,8.485c2.343,2.343,6.143,2.343,8.485,0l72.181-72.181l108.544,108.538h-59.331
		c-2.427,0-4.614,1.462-5.543,3.704c-0.929,2.242-0.416,4.823,1.301,6.539l112.786,112.787h-59.331
		c-2.427,0-4.614,1.462-5.543,3.704s-0.416,4.822,1.3,6.538l112.794,112.799h-157.764c-3.313,0-6,2.687-6,6v73.811
		c0,3.313,2.687,6,6,6h222.416c3.313,0,6-2.687,6-6S1305.044,756.671,1301.73,756.671z"/>
	<path fill="#5A5B5B" d="M948.27,539.698v165.299c0,3.313,2.687,6,6,6s6-2.687,6-6V539.698c0-3.313-2.687-6-6-6
		S948.27,536.385,948.27,539.698z"/>
	<path fill="#5A5B5B" d="M994.682,539.698v165.299c0,3.313,2.687,6,6,6s6-2.687,6-6V539.698c0-3.313-2.687-6-6-6
		S994.682,536.385,994.682,539.698z"/>
	<path fill="#5A5B5B" d="M1016.713,521.065c0-3.313-2.687-6-6-6h-67.775c-3.313,0-6,2.687-6,6s2.687,6,6,6h67.775
		C1014.026,527.065,1016.713,524.379,1016.713,521.065z"/>
	<path fill="#5A5B5B" d="M942.938,730.563h67.775c3.313,0,6-2.687,6-6s-2.687-6-6-6h-67.775c-3.313,0-6,2.687-6,6
		S939.624,730.563,942.938,730.563z"/>
	<path fill="#5A5B5B" d="M970.828,539.698v165.299c0,3.313,2.687,6,6,6s6-2.687,6-6V539.698c0-3.313-2.687-6-6-6
		S970.828,536.385,970.828,539.698z"/>
	<path fill="#5A5B5B" d="M749.695,539.698v165.299c0,3.313,2.687,6,6,6s6-2.687,6-6V539.698c0-3.313-2.687-6-6-6
		S749.695,536.385,749.695,539.698z"/>
	<path fill="#5A5B5B" d="M796.107,539.698v165.299c0,3.313,2.687,6,6,6s6-2.687,6-6V539.698c0-3.313-2.687-6-6-6
		S796.107,536.385,796.107,539.698z"/>
	<path fill="#5A5B5B" d="M818.139,521.065c0-3.313-2.687-6-6-6h-67.775c-3.313,0-6,2.687-6,6s2.687,6,6,6h67.775
		C815.452,527.065,818.139,524.379,818.139,521.065z"/>
	<path fill="#5A5B5B" d="M744.363,730.563h67.775c3.313,0,6-2.687,6-6s-2.687-6-6-6h-67.775c-3.313,0-6,2.687-6,6
		S741.05,730.563,744.363,730.563z"/>
	<path fill="#5A5B5B" d="M772.254,539.698v165.299c0,3.313,2.687,6,6,6s6-2.687,6-6V539.698c0-3.313-2.687-6-6-6
		S772.254,536.385,772.254,539.698z"/>
	<path fill="#5A5B5B" d="M851.947,539.698v165.299c0,3.313,2.687,6,6,6s6-2.687,6-6V539.698c0-3.313-2.687-6-6-6
		S851.947,536.385,851.947,539.698z"/>
	<path fill="#5A5B5B" d="M898.359,539.698v165.299c0,3.313,2.687,6,6,6s6-2.687,6-6V539.698c0-3.313-2.687-6-6-6
		S898.359,536.385,898.359,539.698z"/>
	<path fill="#5A5B5B" d="M920.391,521.065c0-3.313-2.687-6-6-6h-67.775c-3.313,0-6,2.687-6,6s2.687,6,6,6h67.775
		C917.704,527.065,920.391,524.379,920.391,521.065z"/>
	<path fill="#5A5B5B" d="M846.615,730.563h67.775c3.313,0,6-2.687,6-6s-2.687-6-6-6h-67.775c-3.313,0-6,2.687-6,6
		S843.302,730.563,846.615,730.563z"/>
	<path fill="#5A5B5B" d="M874.506,539.698v165.299c0,3.313,2.687,6,6,6s6-2.687,6-6V539.698c0-3.313-2.687-6-6-6
		S874.506,536.385,874.506,539.698z"/>
	<path fill="#5A5B5B" d="M659.719,539.698v165.299c0,3.313,2.687,6,6,6s6-2.687,6-6V539.698c0-3.313-2.687-6-6-6
		S659.719,536.385,659.719,539.698z"/>
	<path fill="#5A5B5B" d="M706.131,539.698v165.299c0,3.313,2.687,6,6,6s6-2.687,6-6V539.698c0-3.313-2.687-6-6-6
		S706.131,536.385,706.131,539.698z"/>
	<path fill="#5A5B5B" d="M728.162,521.065c0-3.313-2.687-6-6-6h-67.775c-3.313,0-6,2.687-6,6s2.687,6,6,6h67.775
		C725.476,527.065,728.162,524.379,728.162,521.065z"/>
	<path fill="#5A5B5B" d="M654.387,730.563h67.775c3.313,0,6-2.687,6-6s-2.687-6-6-6h-67.775c-3.313,0-6,2.687-6,6
		S651.073,730.563,654.387,730.563z"/>
	<path fill="#5A5B5B" d="M682.277,539.698v165.299c0,3.313,2.687,6,6,6s6-2.687,6-6V539.698c0-3.313-2.687-6-6-6
		S682.277,536.385,682.277,539.698z"/>
	<path fill="#5A5B5B" d="M628.254,505.667h403.857c0.006,0,0.013,0,0.021,0c3.313,0,6-2.686,6-6c0-1.912-0.896-3.616-2.289-4.714
		L834.201,312.876c-2.284-2.063-5.758-2.063-8.042,0L624.233,495.214c-1.843,1.664-2.47,4.291-1.579,6.607
		C623.545,504.138,625.771,505.667,628.254,505.667z M830.18,325.413l186.334,168.254H643.851L830.18,325.413z"/>
	<path fill="#5A5B5B" d="M790.945,441.425c3.313,0,6-2.687,6-6c0-18.325,14.908-33.233,33.233-33.233
		c18.326,0,33.234,14.909,33.234,33.233c0,3.313,2.687,6,6,6s6-2.687,6-6c0-24.942-20.292-45.233-45.234-45.233
		c-24.942,0-45.233,20.292-45.233,45.233C784.945,438.738,787.632,441.425,790.945,441.425z"/>
	<path fill="#5A5B5B" d="M630.27,742.679c0,3.313,2.686,6,6,6h395.842c3.313,0,6-2.687,6-6s-2.687-6-6-6H636.27
		C632.956,736.679,630.27,739.365,630.27,742.679z"/>
	<path fill="#5A5B5B" d="M1050.111,756.671H618.27c-3.313,0-6,2.687-6,6s2.687,6,6,6h431.842c3.313,0,6-2.687,6-6
		S1053.425,756.671,1050.111,756.671z"/>
	<path fill="#5A5B5B" d="M886.055,448.938H774.914c-3.313,0-6,2.687-6,6s2.687,6,6,6h111.141c3.313,0,6-2.687,6-6
		S889.368,448.938,886.055,448.938z"/>
</g>
</svg>
