<?xml version="1.0" encoding="utf-8"?>
<!-- Generator: Adobe Illustrator 15.1.0, SVG Export Plug-In . SVG Version: 6.00 Build 0)  -->
<!DOCTYPE svg PUBLIC "-//W3C//DTD SVG 1.1//EN" "http://www.w3.org/Graphics/SVG/1.1/DTD/svg11.dtd">
<svg version="1.1" id="Layer_1" xmlns="http://www.w3.org/2000/svg" xmlns:xlink="http://www.w3.org/1999/xlink" x="0px" y="0px"
	 width="1920px" height="1080px" viewBox="0 0 1920 1080" enable-background="new 0 0 1920 1080" xml:space="preserve">
<g>
	
		<polyline fill="none" stroke="#5A5B5B" stroke-width="12" stroke-linecap="round" stroke-linejoin="round" stroke-miterlimit="10" points="
		950.086,417.835 965.83,402.091 1065.779,502.034 1005.809,502.034 1105.764,601.979 1045.793,601.979 1145.742,701.933 
		1005.809,701.933 1005.809,761.896 1280.414,761.896 	"/>
	
		<polyline fill="none" stroke="#5A5B5B" stroke-width="12" stroke-linecap="round" stroke-linejoin="round" stroke-miterlimit="10" points="
		825.902,601.979 885.873,601.979 785.924,701.933 925.852,701.933 925.852,761.896 639.586,761.896 	"/>
	<g>
		<g enable-background="new    ">
			<path fill="#5A5B5B" d="M740.916,368.484h12.643v84.887h-18.302v-66.104l-14.69,3.612l-3.853-15.171L740.916,368.484z"/>
			<path fill="#5A5B5B" d="M791.726,368.484h12.643v84.887h-18.302v-66.104l-14.69,3.612l-3.853-15.171L791.726,368.484z"/>
			<path fill="#5A5B5B" d="M859.272,454.816c-22.516,0-37.326-18.904-37.326-43.468c0-24.563,15.051-43.707,37.567-43.707
				s37.326,18.903,37.326,43.467C896.839,435.671,881.788,454.816,859.272,454.816z M859.272,384.378
				c-11.198,0-18.302,11.198-18.302,26.73s7.345,26.971,18.542,26.971c11.198,0,18.302-11.318,18.302-26.73
				S870.47,384.378,859.272,384.378z"/>
		</g>
		<path fill="none" stroke="#5A5B5B" stroke-width="12" stroke-miterlimit="10" d="M931.049,446.388
			c0,70.853-57.434,128.279-128.279,128.279c-70.845,0-128.284-57.428-128.284-128.279c0-70.84,57.438-128.284,128.284-128.284
			C873.616,318.104,931.049,375.548,931.049,446.388z"/>
		<g enable-background="new    ">
			<path fill="#5A5B5B" d="M785.342,531.711v-29.29c0-7.054-3.331-10.679-9.012-10.679s-9.306,3.625-9.306,10.679v29.29h-14.891
				v-71.512h14.891v26.449c3.428-4.408,7.837-8.425,15.38-8.425c11.266,0,17.829,7.445,17.829,19.495v33.992H785.342z"/>
			<path fill="#5A5B5B" d="M843.918,531.711v-5.682c-3.625,4.017-8.621,6.661-15.87,6.661c-9.895,0-18.025-5.682-18.025-16.065
				v-0.196c0-11.461,8.719-16.751,21.16-16.751c5.29,0,9.11,0.882,12.833,2.155v-0.882c0-6.172-3.82-9.601-11.265-9.601
				c-5.682,0-9.698,1.078-14.499,2.841l-3.723-11.363c5.78-2.547,11.461-4.212,20.376-4.212c16.262,0,23.413,8.425,23.413,22.629
				v30.466H843.918z M844.212,510.551c-2.547-1.175-5.878-1.959-9.502-1.959c-6.368,0-10.286,2.547-10.286,7.249v0.196
				c0,4.017,3.331,6.367,8.131,6.367c6.956,0,11.658-3.82,11.658-9.208V510.551z"/>
		</g>
	</g>
</g>
</svg>
