<svg xmlns="http://www.w3.org/2000/svg" viewBox="0 411 800 800"><path fill="#5A5B5B" d="M224.6 953.1c-1.4 0-2.5-1.1-2.5-2.5v-109c0-1.4 1.1-2.5 2.5-2.5s2.5 1.1 2.5 2.5v108.9c.1 1.5-1.1 2.6-2.5 2.6z"/><path fill="#5A5B5B" d="M447.4 844.1c-.4 0-.8-.1-1.1-.2L312 779.5l-110.8 64.2c-1.2.7-2.8.3-3.4-.9-.7-1.2-.3-2.8.9-3.4l111.9-64.9c.7-.4 1.6-.5 2.3-.1l135.5 64.9c1.2.6 1.8 2.1 1.2 3.3-.4 1-1.3 1.5-2.2 1.5z"/><path fill="#5A5B5B" d="M407.2 953.8h-70.9c-1.4 0-2.5-1.1-2.5-2.5v-94.8h-42.7v94c0 1.4-1.1 2.5-2.5 2.5h-53.3c-1.4 0-2.5-1.1-2.5-2.5s1.1-2.5 2.5-2.5h50.8v-94c0-1.4 1.1-2.5 2.5-2.5h47.7c1.4 0 2.5 1.1 2.5 2.5v94.8h65.9V841.6c0-1.4 1.1-2.5 2.5-2.5s2.5 1.1 2.5 2.5v109.7c.1 1.4-1.1 2.5-2.5 2.5zM361.2 793.6c-.9 0-1.7-.5-2.2-1.2-.7-1.2-.3-2.8.9-3.4l48-27.8c.7-.4 1.6-.5 2.3-.1l54.9 26.2c1.2.6 1.8 2.1 1.2 3.3-.6 1.2-2.1 1.8-3.3 1.2L409.3 766l-46.8 27.2c-.4.3-.8.4-1.3.4z"/><g><path fill="#5A5B5B" d="M638 846.9c-.3 0-.7-.1-1-.2L507.1 787l-73.6 38.1c-1.2.6-2.8.2-3.4-1.1s-.2-2.8 1.1-3.4l74.7-38.7c.7-.4 1.5-.4 2.2 0l131 60.2c1.2.6 1.8 2.1 1.2 3.3-.4 1-1.3 1.5-2.3 1.5z"/><path fill="#5A5B5B" d="M603 953.8h-81.6c-1.4 0-2.5-1.1-2.5-2.5v-94.8h-42.7v94c0 1.4-1.1 2.5-2.5 2.5H421c-1.4 0-2.5-1.1-2.5-2.5s1.1-2.5 2.5-2.5h50.2v-94c0-1.4 1.1-2.5 2.5-2.5h47.7c1.4 0 2.5 1.1 2.5 2.5v94.8h76.5V841.6c0-1.4 1.1-2.5 2.5-2.5s2.5 1.1 2.5 2.5v109.7c.1 1.4-1 2.5-2.4 2.5z"/></g><g><path fill="#FFF" d="M268.4 814.2c0 28.6-23.1 51.7-51.7 51.7s-51.8-23.1-51.8-51.7 23.1-51.7 51.7-51.7 51.8 23.2 51.8 51.7z"/><path fill="#5A5B5B" d="M216.7 868.4c-29.8 0-54.1-24.3-54.1-54.1s24.3-54.1 54.1-54.1 54.1 24.3 54.1 54.1-24.3 54.1-54.1 54.1zm0-103.5c-27.2 0-49.3 22.1-49.3 49.3s22.1 49.3 49.3 49.3 49.3-22.1 49.3-49.3-22.2-49.3-49.3-49.3z"/><g fill="#5A5B5B"><path d="M177 823.9l10.4-8.5c1-.8 1.8-1.5 2.5-2.2.7-.6 1.3-1.3 1.6-1.8.4-.6.8-1.2.9-1.7.2-.5.3-1.2.3-1.8 0-1.3-.4-2.3-1.2-3s-1.8-1-3-1c-1.3 0-2.3.3-3.2 1-.9.7-2 1.7-3.1 3.2l-4.8-3.9c.8-1.1 1.6-2 2.3-2.8.8-.8 1.6-1.5 2.5-2 .9-.5 1.9-1 3-1.3 1.1-.3 2.3-.4 3.8-.4 1.6 0 3 .2 4.4.7 1.3.5 2.5 1.1 3.4 2 .9.9 1.6 1.8 2.2 3 .5 1.2.8 2.5.8 4v.1c0 1.3-.2 2.5-.5 3.5s-.9 2-1.5 2.9c-.7.9-1.5 1.8-2.5 2.7-1.1.9-2.3 1.9-3.6 3l-5.1 3.9h13.6v5.9H177v-5.5zM218.8 829.9c-2.1 0-4-.4-5.7-1.3-1.7-.8-3.2-2-4.4-3.4-1.2-1.4-2.1-3.1-2.8-5.1-.6-2-1-4.1-1-6.3v-.1c0-2.3.3-4.4 1-6.3.7-2 1.6-3.7 2.8-5.1 1.3-1.4 2.7-2.6 4.4-3.4 1.7-.9 3.6-1.3 5.7-1.3 2 0 3.9.4 5.6 1.3 1.7.8 3.2 2 4.4 3.4 1.2 1.4 2.1 3.1 2.8 5.1s1 4.1 1 6.3v.1c0 2.3-.3 4.4-1 6.3-.7 2-1.6 3.7-2.8 5.1-1.3 1.4-2.7 2.6-4.4 3.4s-3.5 1.3-5.6 1.3zm.1-6.2c1.1 0 2-.2 2.8-.7.9-.5 1.5-1.2 2.1-2 .6-.9 1.1-1.9 1.3-3.1.3-1.2.5-2.5.5-3.9v-.1c0-1.4-.2-2.7-.5-3.9-.3-1.2-.8-2.3-1.4-3.1-.6-.9-1.3-1.6-2.2-2.1-.9-.5-1.8-.8-2.8-.8-1.1 0-2 .2-2.8.7-.9.5-1.5 1.2-2.1 2-.6.9-1 1.9-1.3 3.1-.3 1.2-.5 2.5-.5 3.9v.1c0 1.4.2 2.7.5 4 .3 1.3.8 2.3 1.4 3.1.6.9 1.3 1.6 2.2 2.1.8.5 1.7.7 2.8.7zM238.1 796.8h6.8v17.3l7.9-8.7h8.1l-9.1 9.4 9.4 14.5h-7.7l-6.3-9.8-2.4 2.5v7.3H238l.1-32.5z"/></g></g></svg>