<?xml version="1.0" encoding="utf-8"?>
<!-- Generator: Adobe Illustrator 15.1.0, SVG Export Plug-In . SVG Version: 6.00 Build 0)  -->
<!DOCTYPE svg PUBLIC "-//W3C//DTD SVG 1.1//EN" "http://www.w3.org/Graphics/SVG/1.1/DTD/svg11.dtd">
<svg version="1.1" id="Layer_1" xmlns="http://www.w3.org/2000/svg" xmlns:xlink="http://www.w3.org/1999/xlink" x="0px" y="0px"
	 width="750px" height="750px" viewBox="0 0 750 750" enable-background="new 0 0 750 750" xml:space="preserve">
<g>
	<path fill="#5A5B5B" d="M127.224,535.532h495.493c2.762,0,5-2.238,5-5V231.059c0-8.987-7.293-16.299-16.26-16.299H496.906
		c-2.762,0-5,2.239-5,5s2.238,5,5,5h114.551c3.453,0,6.26,2.826,6.26,6.299v294.473H132.224V231.059
		c0-3.473,2.836-6.299,6.323-6.299H248.46c2.762,0,5-2.239,5-5s-2.238-5-5-5H138.548c-9,0-16.323,7.312-16.323,16.299v299.473
		C122.224,533.294,124.463,535.532,127.224,535.532z"/>
	<path fill="#5A5B5B" d="M188.04,253.022c2.761,0,5-2.239,5-5s-2.239-5-5-5h-31.03c-2.761,0-5,2.239-5,5v253.11c0,2.762,2.239,5,5,5
		h435.987c2.762,0,5-2.238,5-5v-253.11c0-2.761-2.238-5-5-5h-37.773c-2.762,0-5,2.239-5,5s2.238,5,5,5h32.773v243.11H162.01v-243.11
		H188.04z"/>
	<path fill="#5A5B5B" d="M674.789,547.088c-0.041-0.274-0.086-0.549-0.113-0.828c-0.25-2.56-2.404-4.512-4.977-4.512H80.281
		c-2.619,0-4.794,2.021-4.986,4.634c-0.021,0.287-0.067,0.569-0.108,0.853c-0.099,0.677-0.223,1.52-0.223,2.492v8.965
		c0,20.693,19.173,20.693,31.86,20.693h536.348c12.689,0,31.865,0,31.865-20.693v-8.965
		C675.037,548.697,674.901,547.804,674.789,547.088z M665.037,558.691c0,8.595-4.291,10.693-21.865,10.693H106.824
		c-17.57,0-21.86-2.099-21.86-10.693v-6.943h580.074V558.691z"/>
	<path fill="#5A5B5B" d="M196.331,264.219c0,1.879,1.054,3.6,2.728,4.454l173.672,88.608c0.714,0.364,1.493,0.546,2.272,0.546
		c0.779,0,1.558-0.182,2.273-0.546l134.631-68.69v71.37c0,2.047,1.248,3.887,3.148,4.645c1.902,0.758,4.074,0.28,5.48-1.205
		l11.76-12.407l8.771,11.93c0.961,1.306,2.469,2.039,4.029,2.039c0.52,0,1.045-0.082,1.559-0.25c2.053-0.674,3.441-2.59,3.441-4.751
		v-90.854l0.852-0.435c1.674-0.854,2.727-2.574,2.727-4.454s-1.053-3.6-2.727-4.454l-173.672-88.604
		c-1.428-0.729-3.118-0.729-4.545,0l-173.672,88.604C197.385,260.619,196.331,262.339,196.331,264.219z M540.096,344.72
		l-3.287-4.469c-0.877-1.193-2.238-1.936-3.717-2.028c-1.48-0.088-2.922,0.476-3.939,1.551l-7.246,7.644v-63.929l18.189-9.28V344.72
		z"/>
	<path fill="#5A5B5B" d="M499.162,393.662v-78.735c0-1.754-0.918-3.38-2.422-4.284c-1.504-0.904-3.371-0.955-4.92-0.133
		L375.006,372.43L256.7,309.554c-1.551-0.824-3.418-0.774-4.922,0.129c-1.505,0.904-2.425,2.531-2.425,4.286v79.692
		c0,29.49,57.636,65.513,124.902,65.513C441.526,459.175,499.162,423.152,499.162,393.662z"/>
</g>
</svg>
