<?xml version="1.0" encoding="utf-8"?>
<!-- Generator: Adobe Illustrator 15.1.0, SVG Export Plug-In . SVG Version: 6.00 Build 0)  -->
<!DOCTYPE svg PUBLIC "-//W3C//DTD SVG 1.1//EN" "http://www.w3.org/Graphics/SVG/1.1/DTD/svg11.dtd">
<svg version="1.1" id="Layer_1" xmlns="http://www.w3.org/2000/svg" xmlns:xlink="http://www.w3.org/1999/xlink" x="0px" y="0px" width="750px" height="750px"
	 viewBox="585 165 750 750" enable-background="new 585 165 750 750" xml:space="preserve">

	<g>
		<g>
			<path fill="#5A5B5B" d="M1088.267,218.255c-76.714,0-138.887,62.173-138.887,138.888c0,76.706,138.887,289.158,138.887,289.158
				s138.88-212.452,138.88-289.158C1227.146,280.429,1164.973,218.255,1088.267,218.255z M1088.267,437.521
				c-45.117,0-81.691-36.567-81.691-81.685c0-45.117,36.574-81.691,81.691-81.691c45.118,0,81.685,36.575,81.685,81.691
				C1169.951,400.954,1133.385,437.521,1088.267,437.521z"/>
			<g>
				<path fill="#5A5B5B" d="M1029.009,328.116v-16.426h58.862v14.436l-22.025,21.031c11.945,1.991,23.395,8.213,23.395,24.516
					c0,16.551-11.945,28.623-31.36,28.623c-15.68,0-26.507-6.223-33.975-15.059l13.191-12.569
					c5.974,6.72,12.197,10.454,21.033,10.454c7.218,0,12.318-4.106,12.318-10.702c0-7.218-6.096-11.2-17.048-11.2h-7.964
					l-2.986-12.195l20.78-20.908H1029.009z"/>
				<path fill="#5A5B5B" d="M1124.459,311.067h13.066v87.734h-18.916V330.48l-15.184,3.733l-3.981-15.68L1124.459,311.067z"/>
			</g>
			<g>
				<path fill="#5A5B5B" d="M1157.427,690.853h-154.855V587.596H692.853v274.149H899.33V742.466h51.621v119.279h206.476V690.853z
					 M796.095,794.087h-51.621v-51.621h51.621V794.087z M796.095,690.853h-51.621v-51.636h51.621V690.853z M950.951,690.853H899.33
					v-51.636h51.621V690.853z M1105.814,794.087h-51.63v-51.621h51.63V794.087z"/>
			</g>
		</g>
	</g>


</svg>
