<?xml version="1.0" encoding="utf-8"?>
<!-- Generator: Adobe Illustrator 15.1.0, SVG Export Plug-In . SVG Version: 6.00 Build 0)  -->
<!DOCTYPE svg PUBLIC "-//W3C//DTD SVG 1.1//EN" "http://www.w3.org/Graphics/SVG/1.1/DTD/svg11.dtd">
<svg version="1.1" id="Layer_1" xmlns="http://www.w3.org/2000/svg" xmlns:xlink="http://www.w3.org/1999/xlink" x="0px" y="0px"
	 width="750px" height="750px" viewBox="0 0 750 750" enable-background="new 0 0 750 750" xml:space="preserve">
<g>
	<path fill="#5A5B5B" d="M574.893,506.408l-74.756-74.76h37.905c2.022,0,3.846-1.219,4.619-3.087
		c0.774-1.868,0.347-4.019-1.084-5.449l-74.759-74.75h37.903c2.022,0,3.846-1.219,4.619-3.087c0.774-1.868,0.347-4.019-1.084-5.449
		l-83.291-83.286c-1.951-1.952-5.119-1.952-7.07,0l-13.12,13.12c-1.103,1.103-1.628,2.655-1.421,4.199
		c6.803,50.799-7.569,90.463-42.718,117.892c-26.504,20.685-55.563,26.389-55.848,26.442c-2.537,0.478-4.294,2.808-4.054,5.378
		s2.397,4.536,4.979,4.536h38.165l-75.959,78.355c-1.398,1.442-1.797,3.58-1.015,5.43c0.783,1.85,2.596,3.051,4.604,3.051h111.606
		v44.971c0,2.762,2.238,5,5,5h66.631c2.762,0,5-2.238,5-5v-44.971h111.611c2.022,0,3.846-1.218,4.619-3.087
		C576.751,509.988,576.323,507.838,574.893,506.408z"/>
	<polygon fill="#5A5B5B" points="244.538,302.81 244.538,232.069 234.002,232.069 213.833,238.09 217.044,250.733 229.286,247.722 
		229.286,302.81 	"/>
	<polygon fill="#5A5B5B" points="271.628,247.722 271.628,302.81 286.88,302.81 286.88,232.069 276.344,232.069 256.175,238.09 
		259.386,250.733 	"/>
	<path fill="#5A5B5B" d="M332.632,304.014c18.764,0,31.307-15.954,31.307-36.424s-12.342-36.224-31.105-36.224
		c-18.765,0-31.307,15.954-31.307,36.424S313.868,304.014,332.632,304.014z M332.632,245.314c9.332,0,15.453,9.633,15.453,22.477
		s-5.921,22.276-15.252,22.276c-9.332,0-15.453-9.533-15.453-22.477C317.38,254.646,323.3,245.314,332.632,245.314z"/>
	<path fill="#5A5B5B" d="M397.447,296.99c0-61.704-50.198-111.904-111.899-111.904c-61.704,0-111.904,50.2-111.904,111.904
		c0,61.701,50.2,111.898,111.904,111.898C347.248,408.888,397.447,358.691,397.447,296.99z M183.643,296.99
		c0-56.19,45.714-101.904,101.904-101.904c56.188,0,101.899,45.714,101.899,101.904c0,56.187-45.712,101.898-101.899,101.898
		C229.357,398.888,183.643,353.177,183.643,296.99z"/>
	<path fill="#5A5B5B" d="M268.572,323.522c-6.286,0-9.96,3.347-12.816,7.021v-22.041h-12.409v59.593h12.409v-24.408
		c0-5.878,3.021-8.898,7.755-8.898s7.511,3.021,7.511,8.898v24.408h12.408v-28.327C283.429,329.726,277.96,323.522,268.572,323.522z
		"/>
	<path fill="#5A5B5B" d="M306.61,368.911c6.041,0,10.204-2.204,13.225-5.551v4.734h12v-25.388c0-11.838-5.959-18.858-19.51-18.858
		c-7.429,0-12.163,1.389-16.979,3.511l3.102,9.47c4-1.47,7.348-2.367,12.082-2.367c6.204,0,9.388,2.856,9.388,8v0.734
		c-3.102-1.062-6.285-1.796-10.693-1.796c-10.368,0-17.634,4.408-17.634,13.96v0.163
		C291.589,364.176,298.365,368.911,306.61,368.911z M303.59,354.87c0-3.918,3.265-6.041,8.571-6.041
		c3.021,0,5.796,0.653,7.919,1.633v2.204c0,4.49-3.919,7.674-9.715,7.674c-4,0-6.775-1.959-6.775-5.307V354.87z"/>
</g>
</svg>
