<?xml version="1.0" encoding="utf-8"?>
<!-- Generator: Adobe Illustrator 18.0.0, SVG Export Plug-In . SVG Version: 6.00 Build 0)  -->
<!DOCTYPE svg PUBLIC "-//W3C//DTD SVG 1.1//EN" "http://www.w3.org/Graphics/SVG/1.1/DTD/svg11.dtd">
<svg version="1.1" id="Layer_1" xmlns="http://www.w3.org/2000/svg" xmlns:xlink="http://www.w3.org/1999/xlink" x="0px" y="0px"
	 viewBox="0 0 595.3 595.3" enable-background="new 0 0 595.3 595.3" xml:space="preserve">
<g>
	<path fill="#5B5B5B" d="M369.8,348.1H211.5V137h158.4 M320.8,393.3h-60.3v-15.1h60.3 M351,91.7H230.3c-25,0-45.2,20.3-45.2,45.2
		v241.3c0,25,20.3,45.2,45.2,45.2H351c25,0,45.2-20.3,45.2-45.2V137C396.2,112,376,91.7,351,91.7z"/>
</g>
<path fill="#5B5B5B" d="M271.7,157.4c-10.5,0-18.9,8.4-18.9,18.9c0,10.5,8.4,18.9,18.9,18.9c10.5,0,18.9-8.4,18.9-18.9
	C290.7,165.8,282.2,157.4,271.7,157.4z"/>
<path fill="#5B5B5B" d="M282,201.3c-3.5,0-9.2,1.3-13.9,4.6l-30.1,21.4c-8.2,5.8-0.7,16.1,7,11l19.7-13c0,0,13,27.9,8.1,40.9
	c-0.2,0.4-0.3,0.8-0.3,1.2l-20.3,53.9c-2.3,6.2,2.1,9.9,6.7,9.9c3,0,5.8-1.8,7.2-5.2l25.2-59.7c0,0,4.6,27.8,23.2,27.8
	c11.1,0,19.3,0,25.5,0c7,0,7-7,7-7s0-7-7-7c-4.6,0-16.2,0-20.9,0c-9.9,0-9.3-14.9-9.3-23.2c0-13.9-9.3-37.1-9.3-37.1l27.8,18.5
	c8.4,5.6,15.7-4.3,7.5-10.4l-30.7-22c-5.6-4-7.4-4.6-13.9-4.6C291.3,201.3,286.6,201.3,282,201.3L282,201.3z"/>
</svg>
