<?xml version="1.0" encoding="utf-8"?>
<!-- Generator: Adobe Illustrator 15.1.0, SVG Export Plug-In . SVG Version: 6.00 Build 0)  -->
<!DOCTYPE svg PUBLIC "-//W3C//DTD SVG 1.1//EN" "http://www.w3.org/Graphics/SVG/1.1/DTD/svg11.dtd">
<svg version="1.1" id="Layer_1" xmlns="http://www.w3.org/2000/svg" xmlns:xlink="http://www.w3.org/1999/xlink" x="0px" y="0px"
	 width="750px" height="750px" viewBox="0 0 750 750" enable-background="new 0 0 750 750" xml:space="preserve">
<g>
	<path fill="#5A5B5B" d="M350.363,244.615c-45.935,0-83.305,37.369-83.305,83.301c0,44.481,76.692,162.301,79.957,167.294
		c0.739,1.131,1.998,1.812,3.348,1.812s2.609-0.682,3.348-1.812c3.265-4.993,79.949-122.813,79.949-167.294
		C433.66,281.984,396.293,244.615,350.363,244.615z M350.363,284.525c23.512,0,42.641,19.13,42.641,42.645
		c0,23.512-19.129,42.641-42.641,42.641c-23.517,0-42.648-19.128-42.648-42.641C307.715,303.656,326.846,284.525,350.363,284.525z"
		/>
	<path fill="#5A5B5B" d="M327.074,497.385H221.16v-64.105c0-2.209-1.791-4-4-4h-29.477c-2.209,0-4,1.791-4,4v64.105H73.789V348.849
		h168.848v54.961c0,2.209,1.791,4,4,4h32.594c2.209,0,4-1.791,4-4s-1.791-4-4-4h-28.594v-54.961c0-2.209-1.791-4-4-4H69.789
		c-2.209,0-4,1.791-4,4v156.535c0,2.209,1.791,4,4,4h117.895c2.209,0,4-1.791,4-4v-64.105h21.477v64.105c0,2.209,1.791,4,4,4
		h109.914c2.209,0,4-1.791,4-4S329.283,497.385,327.074,497.385z"/>
	<path fill="#5A5B5B" d="M132.738,374.326c0-2.209-1.791-4-4-4H99.261c-2.209,0-4,1.791-4,4v29.484c0,2.209,1.791,4,4,4h29.477
		c2.209,0,4-1.791,4-4V374.326z M124.738,399.81h-21.477v-21.484h21.477V399.81z"/>
	<path fill="#5A5B5B" d="M128.738,429.279H99.261c-2.209,0-4,1.791-4,4v29.477c0,2.209,1.791,4,4,4h29.477c2.209,0,4-1.791,4-4
		v-29.477C132.738,431.07,130.947,429.279,128.738,429.279z M124.738,458.756h-21.477v-21.477h21.477V458.756z"/>
	<path fill="#5A5B5B" d="M187.683,370.326c-2.209,0-4,1.791-4,4v29.484c0,2.209,1.791,4,4,4h29.477c2.209,0,4-1.791,4-4v-29.484
		c0-2.209-1.791-4-4-4H187.683z M213.16,399.81h-21.477v-21.484h21.477V399.81z"/>
	<path fill="#5A5B5B" d="M472.969,474.67c0,2.209,1.791,4,4,4h29.473c2.209,0,4-1.791,4-4v-57.086c0-2.209-1.791-4-4-4h-29.473
		c-2.209,0-4,1.791-4,4V474.67z M480.969,421.584h21.473v49.086h-21.473V421.584z"/>
	<path fill="#5A5B5B" d="M574.555,474.67c0,2.209,1.791,4,4,4h29.473c2.209,0,4-1.791,4-4v-57.086c0-2.209-1.791-4-4-4h-29.473
		c-2.209,0-4,1.791-4,4V474.67z M582.555,421.584h21.473v49.086h-21.473V421.584z"/>
	<path fill="#5A5B5B" d="M578.555,402.318h29.473c2.209,0,4-1.791,4-4v-57.086c0-2.209-1.791-4-4-4h-29.473c-2.209,0-4,1.791-4,4
		v57.086C574.555,400.527,576.346,402.318,578.555,402.318z M582.555,345.232h21.473v49.086h-21.473V345.232z"/>
	<path fill="#5A5B5B" d="M625.344,474.67c0,2.209,1.791,4,4,4h29.477c2.209,0,4-1.791,4-4v-57.086c0-2.209-1.791-4-4-4h-29.477
		c-2.209,0-4,1.791-4,4V474.67z M633.344,421.584h21.477v49.086h-21.477V421.584z"/>
	<path fill="#5A5B5B" d="M629.344,402.318h29.477c2.209,0,4-1.791,4-4v-57.086c0-2.209-1.791-4-4-4h-29.477c-2.209,0-4,1.791-4,4
		v57.086C625.344,400.527,627.135,402.318,629.344,402.318z M633.344,345.232h21.477v49.086h-21.477V345.232z"/>
	<path fill="#5A5B5B" d="M523.758,474.67c0,2.209,1.791,4,4,4h29.477c2.209,0,4-1.791,4-4v-57.086c0-2.209-1.791-4-4-4h-29.477
		c-2.209,0-4,1.791-4,4V474.67z M531.758,421.584h21.477v49.086h-21.477V421.584z"/>
	<path fill="#5A5B5B" d="M527.758,402.318h29.477c2.209,0,4-1.791,4-4v-57.086c0-2.209-1.791-4-4-4h-29.477c-2.209,0-4,1.791-4,4
		v57.086C523.758,400.527,525.549,402.318,527.758,402.318z M531.758,345.232h21.477v49.086h-21.477V345.232z"/>
	<path fill="#5A5B5B" d="M476.969,402.318h29.473c2.209,0,4-1.791,4-4v-57.086c0-2.209-1.791-4-4-4h-29.473c-2.209,0-4,1.791-4,4
		v57.086C472.969,400.527,474.76,402.318,476.969,402.318z M480.969,345.232h21.473v49.086h-21.473V345.232z"/>
	<path fill="#5A5B5B" d="M680.211,316.998H445.582c-2.209,0-4,1.791-4,4s1.791,4,4,4h230.629v172.387H448.399v-64.105
		c0-2.209-1.791-4-4-4h-29.473c-2.209,0-4,1.791-4,4v64.105h-32.695c-2.209,0-4,1.791-4,4s1.792,4,4,4h36.695c2.209,0,4-1.791,4-4
		v-64.105h21.473v64.105c0,2.209,1.791,4,4,4h235.813c2.209,0,4-1.791,4-4V320.998C684.211,318.789,682.42,316.998,680.211,316.998z
		"/>
	<path fill="#5A5B5B" d="M559.959,310.647c0.383,0,0.771-0.055,1.158-0.172l57.389-17.328l60.604,17.344
		c2.127,0.607,4.34-0.621,4.947-2.745s-0.621-4.338-2.746-4.946l-61.734-17.668c-0.736-0.211-1.52-0.205-2.256,0.017l-58.516,17.668
		c-2.115,0.638-3.313,2.871-2.674,4.985C556.655,309.532,558.24,310.647,559.959,310.647z"/>
</g>
</svg>
