<svg id="Layer_1" xmlns="http://www.w3.org/2000/svg" viewBox="-409 360.3 80.7 80.7"><style>.st0{fill:#5B5B5B;}</style><path class="st0" d="M-338.9 409c-.9-2-.5-4.9 1.1-6.4l.3-.3c1.5-1.6 1.5-4-.1-5.5l-.3-.3c-1.6-1.5-2.3-4.3-1.4-6.4l.2-.4c.8-2-.2-4.3-2.2-5l-.4-.1c-2.1-.7-3.7-3.1-3.7-5.3v-.4c0-2.2-1.8-3.9-3.9-3.8h-.4c-2.2.1-4.6-1.4-5.5-3.5l-.2-.4c-.8-2-3.1-2.9-5.1-2l-.4.2c-2 1-4.8.5-6.4-1.1l-.3-.3c-1.5-1.6-4-1.5-5.4.1l-.3.3c-1.5 1.6-4.3 2.3-6.3 1.4l-.4-.2c-2-.9-4.2.2-5 2.2l-.1.4c-.7 2.1-3.1 3.8-5.3 3.8h-.4c-2.2 0-3.9 1.8-3.7 4v.4c.1 2.2-1.4 4.7-3.4 5.5l-.4.2c-2 .8-2.9 3.1-1.9 5.1l.2.4c.9 2 .5 4.9-1.1 6.4l-.3.3c-1.5 1.6-1.5 4 .1 5.5l.3.3c1.6 1.5 2.3 4.3 1.4 6.4l-.2.4c-.8 2 .2 4.3 2.2 5l.4.1c2.1.7 3.7 3.1 3.7 5.3v.4c0 2.2 1.8 3.9 3.9 3.8h.4c2.2-.1 4.6 1.4 5.5 3.5l.2.4c.8 2 3.1 2.9 5.1 2l.4-.2c2-1 4.8-.5 6.4 1.1l.3.3c1.5 1.6 4 1.5 5.4-.1l.3-.3c1.5-1.6 4.3-2.3 6.3-1.4l.4.2c2 .9 4.2-.2 5-2.2l.1-.4c.7-2.1 3.1-3.8 5.3-3.8h.4c2.2 0 3.9-1.8 3.7-4v-.4c-.1-2.2 1.4-4.7 3.4-5.5l.4-.2c2-.8 2.9-3.1 1.9-5.1l-.2-.4zm-47.4-20c-1.1 1.6-3.1 2-4.7.9s-2.1-3.1-1-4.8c.7-1 1.4-1.4 2.3-1.6l.3 1.1c-.7.2-1.3.5-1.7 1.1-.7 1.1-.3 2.4.8 3.2 1.1.7 2.5.5 3.2-.5.5-.7.5-1.3.3-2.1l1-.2c.2.9.1 1.8-.5 2.9zm1.7-9.1l.9-.7 3.1 4-.9.7-.5-.6c0 .6-.1 1.2-.7 1.7-.9.7-1.9.5-2.6-.4l-2-2.5.9-.7 1.8 2.3c.5.6 1.1.7 1.6.3.5-.4.6-1.1.1-1.7l-1.7-2.4zm9.2-4.4c1-.3 1.9.1 2.2 1.3l.9 3.1-1.1.3-.8-2.8c-.2-.8-.7-1.1-1.3-.9-.6.2-.9.7-.7 1.5l.8 2.7-1.1.3-.8-2.8c-.2-.8-.7-1.1-1.3-.9-.6.2-.9.8-.7 1.5l.8 2.7-1.1.3-1.5-4.8 1.1-.3.2.7c.2-.5.5-1.1 1.2-1.3.7-.2 1.3 0 1.7.4.4-.2.8-.7 1.5-1zm7.4 4.9c-.8-.1-1.3-.5-1.6-1l-.2 2.3-1.1-.1.5-6.6 1.1.1-.1.8c.4-.5 1-.9 1.8-.8 1.2.1 2.3 1.1 2.1 2.8-.1 1.8-1.3 2.6-2.5 2.5zm0-4.3c-.8-.1-1.5.5-1.6 1.5-.1 1 .6 1.7 1.3 1.7.8.1 1.5-.5 1.6-1.5.1-.9-.5-1.6-1.3-1.7zm3.6 4.9l2.1-6.7 1.1.4-2.1 6.7-1.1-.4zm2.7 1.1l2.2-4.5 1 .5-2.2 4.5-1-.5zm2.6-5.3l.5-1 1.1.6-.5 1-1.1-.6zm2.9 8.9l.5-.7c-.6.2-1.3.2-1.9-.4-.9-.8-1.2-2.2-.1-3.5 1.1-1.3 2.5-1.3 3.5-.5.6.5.8 1.2.8 1.8l1.7-2.1.9.7-4.4 5.4-1-.7zm1.5-4.1c-.6-.5-1.5-.5-2.1.3-.6.8-.5 1.7.1 2.2.6.5 1.5.4 2.1-.3.6-.8.5-1.7-.1-2.2zm1.5 8.1c-.8-1.3-.4-2.9.8-3.7 1.2-.8 2.8-.5 3.7.9.8 1.3.4 2.9-.8 3.7-1.3.7-2.9.4-3.7-.9zm3.5-2.3c-.5-.8-1.4-.9-2.2-.4-.8.5-1 1.4-.6 2.2.5.8 1.4.9 2.2.4.8-.5 1.1-1.5.6-2.2zm-4 24.5c1.1-1.6 3.1-2 4.7-.9s2.1 3.1 1 4.8c-.7 1-1.4 1.4-2.3 1.6l-.3-1.1c.7-.2 1.3-.5 1.7-1.1.7-1.1.3-2.4-.8-3.2-1.1-.7-2.5-.5-3.2.5-.5.7-.5 1.3-.3 2.1l-1 .2c-.2-1-.2-1.9.5-2.9zm-1.7 9l-.9.7-3.1-4 .9-.7.5.6c0-.6.1-1.2.7-1.7.9-.7 1.9-.5 2.6.4l2 2.5-.9.7-1.8-2.3c-.5-.6-1.1-.7-1.6-.3-.5.4-.6 1.1-.1 1.7l1.7 2.4zm-9.2 4.4c-1 .3-1.9-.1-2.2-1.3l-.9-3.1 1.1-.3.8 2.8c.2.8.7 1.1 1.3.9.6-.2.9-.7.7-1.5l-.8-2.7 1.1-.3.8 2.8c.2.8.7 1.1 1.3.9.6-.2.9-.8.7-1.5l-.8-2.7 1.1-.3 1.5 4.8-1.1.3-.2-.7c-.2.5-.5 1.1-1.2 1.3-.7.2-1.3 0-1.7-.4-.4.3-.8.8-1.5 1zm-7.4-4.9c.8.1 1.3.5 1.6 1l.2-2.3 1.1.1-.5 6.6-1.1-.1.1-.8c-.4.5-1 .9-1.8.8-1.2-.1-2.3-1.1-2.1-2.8.1-1.7 1.3-2.6 2.5-2.5zm0 4.3c.8.1 1.5-.5 1.6-1.5.1-1-.6-1.7-1.3-1.7-.8-.1-1.5.5-1.6 1.5-.1 1 .5 1.6 1.3 1.7zm-3.6-4.9l-2.1 6.7-1.1-.4 2.1-6.7 1.1.4zm-5.3 4.2l-.5 1-1.1-.6.5-1 1.1.6zm2.5-5.2l-2.2 4.5-1-.5 2.2-4.5 1 .5zm-5.4-3.7l-.5.7c.6-.2 1.3-.2 1.9.4.9.8 1.2 2.2.1 3.5-1.1 1.3-2.5 1.3-3.5.5-.6-.5-.8-1.2-.8-1.8l-1.7 2.1-.9-.7 4.4-5.4 1 .7zm-1.5 4.2c.6.5 1.5.5 2.1-.3.6-.8.5-1.7-.1-2.2-.6-.5-1.5-.4-2.2.3-.5.7-.4 1.7.2 2.2zm-1.5-8.1c.8 1.3.4 2.9-.8 3.7-1.2.8-2.8.5-3.7-.9s-.4-2.9.8-3.7c1.3-.8 2.9-.4 3.7.9zm-3.6 2.3c.5.8 1.4.9 2.2.4.8-.5 1-1.4.6-2.2-.5-.8-1.4-.9-2.2-.4-.8.5-1 1.4-.6 2.2zm43.8-15.6c.9 0 1.6.7 1.6 1.6 0 .9-.7 1.6-1.6 1.6s-1.6-.7-1.6-1.6.7-1.6 1.6-1.6zm-43.4 0c.9 0 1.6.7 1.6 1.6 0 .9-.7 1.6-1.6 1.6-.9 0-1.6-.7-1.6-1.6s.7-1.6 1.6-1.6zm20.9 16.9c-5.7 0-11.4-3.3-11.4-10v-9.9c0-6.6 5.7-10 11.5-10 3.6 0 7.8 1.5 10.2 6.7l-6 2.4c-2-3.6-8.4-2.8-8.4.8v9.9c0 3.5 6.5 4.5 8.1.5l6.4 3c-2.4 4.8-6.7 6.6-10.4 6.6z"/></svg>