<?xml version="1.0" encoding="utf-8"?>
<!-- Generator: Adobe Illustrator 15.1.0, SVG Export Plug-In . SVG Version: 6.00 Build 0)  -->
<!DOCTYPE svg PUBLIC "-//W3C//DTD SVG 1.1//EN" "http://www.w3.org/Graphics/SVG/1.1/DTD/svg11.dtd">
<svg version="1.1" id="Layer_1" xmlns="http://www.w3.org/2000/svg" xmlns:xlink="http://www.w3.org/1999/xlink" x="0px" y="0px"
	 width="750px" height="750px" viewBox="585 165 750 750" enable-background="new 585 165 750 750" xml:space="preserve">
<g>
	<path fill="#5A5B5B" d="M859.5,802.187c-0.625-2.726-3.051-4.658-5.848-4.658h-11.157l-6.21-444.418
		c-0.029-2.066-1.101-3.875-2.709-4.932c0.014-0.17,0.026-0.342,0.026-0.516c0-52.308,42.556-94.863,94.863-94.863
		c52.311,0,94.869,42.556,94.869,94.863c0,3.313,2.687,6,6,6s6-2.687,6-6c0-58.925-47.941-106.863-106.869-106.863
		c-58.768,0-106.604,47.685-106.857,106.395h-13.172c0.254-65.972,53.999-119.566,120.029-119.566
		c66.19,0,120.041,53.848,120.041,120.035c0,3.313,2.687,6,6,6s6-2.687,6-6c0-72.804-59.233-132.035-132.041-132.035
		c-72.804,0-132.035,59.231-132.035,132.035c0,0.01,0.001,0.02,0.001,0.029c-2.098,0.913-3.576,2.986-3.61,5.418l-6.21,444.418
		h-6.733c-2.797,0-5.223,1.933-5.848,4.658l-12.586,54.844c-0.409,1.78,0.017,3.65,1.155,5.08c1.139,1.429,2.866,2.262,4.693,2.262
		h98.947c0.007,0,0.014,0,0.02,0c3.313,0,6-2.687,6-6c0-0.638-0.1-1.252-0.284-1.828L859.5,802.187z M804.737,359.194h19.631
		l6.125,438.334h-31.882L804.737,359.194z M774.824,852.372l9.832-42.844h7.872h44.051c0.007,0,0.014,0,0.02,0h12.275l9.832,42.844
		H774.824z"/>
	<path fill="#5A5B5B" d="M999.287,398.646c0,3.313,2.687,6,6,6s6-2.687,6-6c0-17.023,13.85-30.873,30.873-30.873
		c17.021,0,30.867,13.85,30.867,30.873c0,3.313,2.687,6,6,6s6-2.687,6-6c0-23.64-19.23-42.873-42.867-42.873
		C1018.52,355.773,999.287,375.006,999.287,398.646z"/>
	<path fill="#5A5B5B" d="M991.453,406.479c-3.313,0-6,2.686-6,6c0,0.013,0.002,0.026,0.002,0.039
		c0.021,32.575,26.53,59.07,59.114,59.07c32.593,0,59.108-26.516,59.108-59.109c0-3.314-2.687-6-6-6H991.453z M1044.569,459.588
		c-23.945,0-43.762-17.958-46.72-41.109h93.433C1088.324,441.63,1068.512,459.588,1044.569,459.588z"/>
	<path fill="#5A5B5B" d="M727.512,588.202c-3.313,0-6,2.687-6,6v260.432c0,3.313,2.687,6,6,6s6-2.687,6-6V594.202
		C733.512,590.889,730.825,588.202,727.512,588.202z"/>
	<path fill="#5A5B5B" d="M1268.217,577.395l-194.309-89.239c-3.012-1.383-6.573-0.062-7.956,2.949
		c-1.383,3.011-0.063,6.573,2.948,7.957l194.309,89.238c0.812,0.373,1.662,0.549,2.5,0.549c2.272,0,4.446-1.297,5.456-3.497
		C1272.548,582.34,1271.229,578.777,1268.217,577.395z"/>
	<path fill="#5A5B5B" d="M955.098,433.582c-1.683-0.772-3.629-0.724-5.273,0.129l-97.84,50.889c-2.94,1.529-4.083,5.152-2.555,8.092
		c1.069,2.056,3.161,3.233,5.328,3.233c0.933,0,1.879-0.218,2.764-0.678l95.235-49.534l18.918,8.689
		c3.014,1.385,6.574,0.063,7.956-2.948c1.384-3.011,0.063-6.574-2.948-7.957L955.098,433.582z"/>
	<path fill="#5A5B5B" d="M780.131,528.744c-1.528-2.939-5.153-4.083-8.091-2.554l-120.521,62.689
		c-2.94,1.529-4.083,5.152-2.554,8.092c1.069,2.056,3.161,3.232,5.328,3.232c0.933,0,1.879-0.218,2.764-0.678l120.521-62.69
		C780.517,535.307,781.661,531.684,780.131,528.744z"/>
	<path fill="#5A5B5B" d="M1219.559,588.202c-3.313,0-6,2.687-6,6v256.301h-39.006V623.856c0-3.313-2.687-6-6-6h-114.047
		c-3.313,0-6,2.687-6,6v224.777H914.461c-3.313,0-6,2.687-6,6s2.687,6,6,6h140.045c3.313,0,6-2.687,6-6V629.856h102.047v226.646
		c0,3.313,2.687,6,6,6h51.006c3.313,0,6-2.687,6-6V594.202C1225.559,590.889,1222.872,588.202,1219.559,588.202z"/>
</g>
</svg>
