<?xml version="1.0" encoding="utf-8"?>
<!-- Generator: Adobe Illustrator 22.0.1, SVG Export Plug-In . SVG Version: 6.00 Build 0)  -->
<svg version="1.1" id="Layer_1" xmlns="http://www.w3.org/2000/svg" xmlns:xlink="http://www.w3.org/1999/xlink" x="0px" y="0px"
	 viewBox="0 0 595.3 595.3" style="enable-background:new 0 0 595.3 595.3;" xml:space="preserve">
<style type="text/css">
	.st0{fill:#5A5B5B;}
	.st1{fill:#FFFFFF;}
</style>
<g>
	<g>
		<g>
			<path class="st0" d="M249.4,193.3c-1,0-2-0.6-2.5-1.4c-0.8-1.4-0.3-3.2,1-3.9l55.3-32c0.8-0.5,1.8-0.6,2.6-0.1L369,186
				c1.4,0.7,2.1,2.4,1.4,3.8c-0.7,1.4-2.4,2.1-3.8,1.4l-61.8-29.7l-53.9,31.3C250.4,193.1,249.9,193.3,249.4,193.3z"/>
		</g>
	</g>
	<g>
		<g>
			<path class="st0" d="M568.1,254.6c-0.3,0-0.8-0.1-1.2-0.2l-149.6-68.7l-84.7,43.9c-1.4,0.7-3.2,0.2-3.9-1.3
				c-0.7-1.5-0.2-3.2,1.3-3.9l86-44.6c0.8-0.5,1.7-0.5,2.5,0l150.8,69.3c1.4,0.7,2.1,2.4,1.4,3.8
				C570.3,254.1,569.2,254.6,568.1,254.6z"/>
		</g>
		<g>
			<path class="st0" d="M527.8,377.7h-94c-1.6,0-2.9-1.3-2.9-2.9V265.7h-49.2v108.2c0,1.6-1.3,2.9-2.9,2.9h-60.7
				c-1.6,0-2.9-1.3-2.9-2.9s1.3-2.9,2.9-2.9H376V262.8c0-1.6,1.3-2.9,2.9-2.9h54.9c1.6,0,2.9,1.3,2.9,2.9V372h88.1V248.5
				c0-1.6,1.3-2.9,2.9-2.9c1.6,0,2.9,1.3,2.9,2.9v126.3C530.7,376.5,529.4,377.7,527.8,377.7z"/>
		</g>
	</g>
	<g>
		<path class="st0" d="M349.8,245.9l-156-74.7c-0.8-0.5-1.8-0.3-2.6,0.1l-48.5,28.1c-7.7-25.7-31.5-44.6-59.6-44.6
			c-34.3,0-62.3,28-62.3,62.3s28,62.3,62.3,62.3c2.1,0,4.1-0.1,6.2-0.3v95c0,1.6,1.3,2.9,2.9,2.9c1.6,0,3-1.3,2.9-3v-95.7
			c28.7-5.6,50.3-30.9,50.3-61.1c0-4-0.5-8.1-1.2-11.9l48.6-28.2l154.6,74.2c0.3,0.1,0.8,0.2,1.3,0.2c1,0,2.1-0.6,2.5-1.7
			C351.8,248.3,351.1,246.6,349.8,245.9z M139.7,217c0,31.3-25.4,56.8-56.8,56.8S26.2,248.3,26.2,217s25.4-56.8,56.8-56.8
			C114.2,160.2,139.7,185.7,139.7,217z"/>
		<path class="st0" d="M302.3,245.6c-1.6,0-2.9,1.3-2.9,2.9V372h-75.9V262.8c0-1.6-1.3-2.9-2.9-2.9h-54.9c-1.6,0-2.9,1.3-2.9,2.9
			V371h-58.5c-1.6,0-2.9,1.3-2.9,2.9s1.3,2.9,2.9,2.9h61.4c1.6,0,2.9-1.3,2.9-2.9V265.7h49.2v109.2c0,1.6,1.3,2.9,2.9,2.9h81.6
			c1.6,0,3-1.3,2.9-2.9V248.5C305.2,246.9,303.9,245.6,302.3,245.6z"/>
	</g>
</g>
<circle class="st1" cx="82.6" cy="217" r="56.8"/>
<g>
	<path class="st0" d="M34.5,225.5l12-9.8c1.2-0.9,2.1-1.7,2.9-2.5c0.8-0.7,1.5-1.5,1.8-2.1c0.5-0.7,0.9-1.4,1-2
		c0.2-0.6,0.3-1.4,0.3-2.1c0-1.5-0.5-2.6-1.4-3.5c-0.9-0.8-2.1-1.2-3.5-1.2c-1.5,0-2.6,0.3-3.7,1.2c-1,0.8-2.3,2-3.6,3.7l-5.5-4.5
		c0.9-1.3,1.8-2.3,2.6-3.2c0.9-0.9,1.8-1.7,2.9-2.3c1-0.6,2.2-1.2,3.5-1.5s2.6-0.5,4.4-0.5c1.8,0,3.5,0.2,5.1,0.8
		c1.5,0.6,2.9,1.3,3.9,2.3c1,1,1.8,2.1,2.5,3.5c0.6,1.4,0.9,2.9,0.9,4.6v0.1c0,1.5-0.2,2.9-0.6,4s-1,2.3-1.7,3.3
		c-0.8,1-1.7,2.1-2.9,3.1c-1.3,1-2.6,2.2-4.1,3.5l-5.9,4.5h15.7v6.8H34.5L34.5,225.5L34.5,225.5z"/>
	<path class="st0" d="M82.6,232.4c-2.4,0-4.6-0.5-6.6-1.5c-2-0.9-3.7-2.3-5.1-3.9s-2.4-3.6-3.2-5.9c-0.7-2.3-1.2-4.7-1.2-7.3v-0.1
		c0-2.6,0.3-5.1,1.2-7.3c0.8-2.3,1.8-4.3,3.2-5.9c1.5-1.6,3.1-3,5.1-3.9c2-1,4.1-1.5,6.6-1.5c2.3,0,4.5,0.5,6.4,1.5
		c2,0.9,3.7,2.3,5.1,3.9c1.4,1.6,2.4,3.6,3.2,5.9c0.8,2.3,1.2,4.7,1.2,7.3v0.1c0,2.6-0.3,5.1-1.2,7.3c-0.8,2.3-1.8,4.3-3.2,5.9
		c-1.5,1.6-3.1,3-5.1,3.9C87.1,231.8,85.1,232.4,82.6,232.4z M82.7,225.3c1.3,0,2.3-0.2,3.2-0.8c1-0.6,1.7-1.4,2.4-2.3
		c0.7-1,1.3-2.2,1.5-3.6c0.3-1.4,0.6-2.9,0.6-4.5V214c0-1.6-0.2-3.1-0.6-4.5s-0.9-2.6-1.6-3.6c-0.7-1-1.5-1.8-2.5-2.4
		c-1-0.6-2.1-0.9-3.2-0.9c-1.3,0-2.3,0.2-3.2,0.8c-1,0.6-1.7,1.4-2.4,2.3c-0.7,1-1.2,2.2-1.5,3.6s-0.6,2.9-0.6,4.5v0.1
		c0,1.6,0.2,3.1,0.6,4.6s0.9,2.6,1.6,3.6c0.7,1,1.5,1.8,2.5,2.4C80.4,224.9,81.5,225.3,82.7,225.3z"/>
	<path class="st0" d="M104.9,194.2h7.8v19.9l9.1-10h9.3l-10.5,10.8l10.8,16.7h-8.9l-7.3-11.3l-2.8,2.9v8.4h-7.8L104.9,194.2
		L104.9,194.2z"/>
</g>
</svg>
