<?xml version="1.0" encoding="utf-8"?>
<!-- Generator: Adobe Illustrator 18.0.0, SVG Export Plug-In . SVG Version: 6.00 Build 0)  -->
<!DOCTYPE svg PUBLIC "-//W3C//DTD SVG 1.1//EN" "http://www.w3.org/Graphics/SVG/1.1/DTD/svg11.dtd">
<svg version="1.1" id="Layer_1" xmlns="http://www.w3.org/2000/svg" xmlns:xlink="http://www.w3.org/1999/xlink" x="0px" y="0px"
	 viewBox="0 0 595.3 595.3" enable-background="new 0 0 595.3 595.3" xml:space="preserve">
<g>
	<g>
		<path fill="#5B5B5B" d="M300,270.3c-35.5,0-67.7,14.4-91.2,37.6c-0.2,0.2-0.5,0.5-0.7,0.7l29.6,29.6c0.2-0.3,0.5-0.5,0.8-0.7
			c15.9-15.7,37.6-25.4,61.6-25.4c24,0,45.8,9.7,61.7,25.4c0.2,0.2,0.5,0.5,0.8,0.7l29.5-29.6c-0.3-0.2-0.5-0.5-0.7-0.7
			C367.8,284.7,335.5,270.3,300,270.3L300,270.3z"/>
		<path fill="#5B5B5B" d="M300,186.7c-58.6,0-111.7,23.8-150.3,62.2c-0.2,0.2-0.5,0.5-0.7,0.7l29.5,29.5c0.3-0.2,0.5-0.5,0.8-0.7
			c31-30.8,73.7-49.9,120.7-49.9c47.1,0,89.8,19.1,120.7,49.9c0.3,0.2,0.5,0.5,0.7,0.7l29.6-29.5c-0.3-0.3-0.5-0.5-0.7-0.7
			C411.8,210.5,358.6,186.7,300,186.7L300,186.7z"/>
		<path fill="#5B5B5B" d="M509.4,189.8c-53.7-53.5-127.8-86.7-209.4-86.7c-81.6,0-155.6,33.1-209.4,86.7c-0.3,0.3-0.5,0.5-0.7,0.7
			l29.6,29.6c0.2-0.3,0.5-0.5,0.7-0.8c46.2-45.9,109.7-74.4,179.8-74.4c70.1,0,133.7,28.5,179.9,74.4c0.2,0.3,0.5,0.5,0.7,0.8
			l29.5-29.6C509.9,190.3,509.7,190,509.4,189.8L509.4,189.8z"/>
		<path fill="#5B5B5B" d="M300.3,367.2c-18.6,0-33.6,15-33.6,33.6s15.1,33.6,33.6,33.6c18.5,0,33.6-15.1,33.6-33.6
			S318.8,367.2,300.3,367.2L300.3,367.2z"/>
	</g>
</g>
</svg>
