<?xml version="1.0" encoding="utf-8"?>
<!-- Generator: Adobe Illustrator 18.0.0, SVG Export Plug-In . SVG Version: 6.00 Build 0)  -->
<!DOCTYPE svg PUBLIC "-//W3C//DTD SVG 1.1//EN" "http://www.w3.org/Graphics/SVG/1.1/DTD/svg11.dtd">
<svg version="1.1" id="Layer_1" xmlns="http://www.w3.org/2000/svg" xmlns:xlink="http://www.w3.org/1999/xlink" x="0px" y="0px"
	 viewBox="0 0 595.3 595.3" enable-background="new 0 0 595.3 595.3" xml:space="preserve">
<g>
	<path fill="#5B5B5B" d="M379.1,433.8H126.5V178.2l62-59.7h190.6V433.8z M147,413.3h211.7V139H196.8L147,186.9V413.3z"/>
	<polygon fill="#5B5B5B" points="404.5,459.2 165.5,459.2 165.5,445.5 390.9,445.5 390.9,157.6 404.5,157.6 	"/>
	<polygon fill="#5B5B5B" points="431.6,486.2 192.6,486.2 192.6,472.6 418,472.6 418,184.6 431.6,184.6 	"/>
	
		<rect x="198.1" y="300.5" transform="matrix(0.7071 0.7071 -0.7071 0.7071 296.4073 -47.0267)" fill="#5B5B5B" width="13.7" height="67.7"/>
	
		<rect x="171.1" y="327.4" transform="matrix(0.7071 0.7071 -0.7071 0.7071 296.4073 -47.0267)" fill="#5B5B5B" width="67.7" height="13.7"/>
	<rect x="171.1" y="220.8" fill="#5B5B5B" width="67.7" height="13.7"/>
	<rect x="198.1" y="193.8" fill="#5B5B5B" width="13.7" height="67.7"/>
	<rect x="266.8" y="327.4" fill="#5B5B5B" width="67.7" height="13.7"/>
	<rect x="266.8" y="220.8" fill="#5B5B5B" width="67.7" height="13.7"/>
	<circle fill="#5B5B5B" cx="300.6" cy="357.4" r="7.6"/>
	<circle fill="#5B5B5B" cx="300.6" cy="311.2" r="7.6"/>
</g>
</svg>
