<?xml version="1.0" encoding="utf-8"?>
<!-- Generator: Adobe Illustrator 18.0.0, SVG Export Plug-In . SVG Version: 6.00 Build 0)  -->
<!DOCTYPE svg PUBLIC "-//W3C//DTD SVG 1.1//EN" "http://www.w3.org/Graphics/SVG/1.1/DTD/svg11.dtd">
<svg version="1.1" id="Layer_1" xmlns="http://www.w3.org/2000/svg" xmlns:xlink="http://www.w3.org/1999/xlink" x="0px" y="0px"
	 viewBox="0 0 595.3 595.3" enable-background="new 0 0 595.3 595.3" xml:space="preserve">
<g>
	<g>
		<path fill="#5B5B5B" d="M494.3,134.1c-16.3-4.7-53.2-12.4-121.9-12.4s-105.6,7.7-121.9,12.4c-6.2,1.8-10.4,7.7-10.4,14.4v255.1
			c0,3.6,2.8,6.5,6.2,6.5h12.3v31.8c0,3.7,3,6.7,6.7,6.7h27.2c3.7,0,6.7-3,6.7-6.7v-31.8h146.5v31.8c0,3.7,3,6.7,6.7,6.7h27.2
			c3.7,0,6.7-3,6.7-6.7v-31.8h12.3c3.5,0,6.2-2.9,6.2-6.5V148.5C504.7,141.8,500.5,135.9,494.3,134.1z M292,153.8
			c0-3.5,2.9-6.4,6.4-6.4H447c3.5,0,6.4,2.9,6.4,6.4v15.5c0,3.5-2.9,6.4-6.4,6.4H298.4c-3.5,0-6.4-2.9-6.4-6.4V153.8z M308.9,362.4
			c0,3.7-3,6.7-6.7,6.7h-34.4c-3.7,0-6.7-3-6.7-6.7v-13.9c0-3.7,3-6.7,6.7-6.7h34.4c3.7,0,6.7,3,6.7,6.7V362.4z M483.7,362.4
			c0,3.7-3,6.7-6.7,6.7h-34.4c-3.7,0-6.7-3-6.7-6.7v-13.9c0-3.7,3-6.7,6.7-6.7H477c3.7,0,6.7,3,6.7,6.7V362.4z M483.7,298.9
			c0,3.5-3,6.4-6.7,6.4H268.4c-3.7,0-6.7-2.9-6.7-6.4V196.3c0-3.5,3-6.4,6.7-6.4H477c3.7,0,6.7,2.9,6.7,6.4V298.9z"/>
		<g>
			<path fill="#5B5B5B" d="M464.5,293.1c-0.5,0-1-0.1-1.6-0.3c-0.1,0-8.3-3-19-3s-18.9,3-19,3c-2.3,0.9-4.9-0.3-5.7-2.6
				c-0.9-2.3,0.3-4.8,2.6-5.7c0.4-0.1,9.8-3.6,22.1-3.6s21.7,3.5,22.1,3.6c2.3,0.9,3.5,3.4,2.6,5.7C468,292,466.3,293.1,464.5,293.1
				z"/>
		</g>
	</g>
	<rect x="90.3" y="411.8" fill="#5B5B5B" width="112.1" height="36.8"/>
	<rect x="98.1" y="179.3" fill="#5B5B5B" width="16.1" height="232.4"/>
	<g>
		<path fill="#5B5B5B" d="M91,192.8c-3.2,0-6.3-1.9-7.5-5.1c-1.6-4.1,0.4-8.8,4.6-10.4c31.6-12.4,65.1-18.7,99.3-18.7
			c5.1,0,10.3,0.1,15.4,0.4c4.4,0.2,7.8,4,7.6,8.5c-0.2,4.4-4,7.8-8.5,7.6c-4.8-0.3-9.7-0.4-14.5-0.4c-32.3,0-63.7,5.9-93.5,17.6
			C93,192.7,92,192.8,91,192.8z"/>
	</g>
</g>
</svg>
