<?xml version="1.0" encoding="UTF-8"?>
<svg width="545px" height="545px" viewBox="0 0 545 545" version="1.1" xmlns="http://www.w3.org/2000/svg" xmlns:xlink="http://www.w3.org/1999/xlink">
    <!-- Generator: Sketch 49.2 (51160) - http://www.bohemiancoding.com/sketch -->
    <title>GCBA-compromisos-icons-08</title>
    <desc>Created with Sketch.</desc>
    <defs></defs>
    <g id="GCBA-compromisos-icons-08" stroke="none" stroke-width="1" fill="none" fill-rule="evenodd">
        <g transform="translate(13.000000, 44.000000)" fill="#5B5B5B" fill-rule="nonzero" id="Shape">
            <path d="M257.863636,98.1018998 C255.954545,98.1018998 254.181818,97.9654577 252.409091,97.6925734 C251.727273,91.6891192 250.090909,85.9585492 247.636364,80.7737478 C239.318182,63.0362694 221.863636,50.3471503 201.272727,49.2556131 C200.318182,49.2556131 199.227273,49.119171 198.272727,49.119171 C196.363636,49.119171 194.454545,49.2556131 192.545455,49.3920553 C189.954545,21.8307427 166.636364,0 138.409091,0 C108.409091,0 84,24.4231434 84,54.4404145 C84,84.3212435 108.272727,108.744387 138.136364,108.880829 C138,107.107081 137.863636,105.333333 137.863636,103.423143 C137.863636,101.649396 138,99.7392055 138.136364,97.9654577 C114.136364,97.8290155 94.9090909,78.4542314 94.9090909,54.4404145 C94.9090909,30.2901554 114.409091,10.9153713 138.409091,10.9153713 C161.590909,10.9153713 180.409091,28.7892919 181.909091,51.5751295 C174.272727,54.0310881 167.181818,58.1243523 161.454545,63.582038 C150.681818,73.5423143 143.863636,87.7322971 143.863636,103.559585 C143.863636,133.576857 168.272727,158 198.272727,158 C221.590909,158 241.5,143.264249 249.272727,122.661485 C250.909091,118.295337 252,113.519862 252.545455,108.744387 C254.318182,108.880829 256.090909,109.017271 258,109.017271 C257.863636,107.243523 257.727273,105.469775 257.727273,103.559585 C257.590909,101.785838 257.727273,100.01209 257.863636,98.1018998 Z M237.818182,121.842832 C230.863636,136.851468 215.863636,147.084629 198.272727,147.084629 C174.136364,147.084629 154.772727,127.573402 154.772727,103.559585 C154.772727,91.2797927 159.818182,80.3644214 167.863636,72.4507772 C171.681818,68.7668394 176.181818,65.6286701 181.090909,63.582038 C178.772727,74.7702936 172.227273,84.3212435 163.090909,90.4611399 C161.590909,94.5544041 160.772727,98.9205527 160.772727,103.559585 L160.772727,104.241796 C177.954545,96.4645941 190.5,79.955095 192.545455,60.4438687 C194.454545,60.1709845 196.363636,60.0345423 198.272727,60.0345423 C199.5,60.0345423 200.863636,60.0345423 202.090909,60.1709845 C216.954545,61.3989637 229.636364,70.1312608 236.454545,82.4110535 C238.5,86.0949914 240.136364,90.1882556 240.954545,94.5544041 C230.727273,90.1882556 222.545455,81.865285 218.181818,71.6321244 C214.227273,69.1761658 209.863636,67.402418 205.227273,66.5837651 C209.454545,85.4127807 223.636364,100.694301 241.909091,106.42487 C241.363636,112.018998 240,117.2038 237.818182,121.842832 Z"></path>
            <path d="M377.615991,0.136066548 C351.453829,0.136066548 329.515766,18.7771836 324.337838,43.4052288 C328.016892,43.8134284 331.559685,44.4937611 334.966216,45.5822935 C339.054054,25.8526441 356.495495,11.0213904 377.615991,11.0213904 C401.734234,11.0213904 421.083333,30.4789067 421.083333,54.4266191 C421.083333,78.5103981 401.597973,97.8318479 377.615991,97.8318479 C375.708333,97.8318479 373.800676,97.6957813 371.893018,97.4236482 C371.347973,92.2531194 370.121622,87.3547237 368.213964,82.7284611 C360.310811,63.4070113 341.506757,49.66429 319.568694,48.9839572 L317.933559,48.9839572 C316.025901,48.9839572 314.118243,49.1200238 312.210586,49.2560903 C309.621622,21.7706477 286.320946,0 258.114865,0 C231.952703,0 210.01464,18.6411171 204.836712,43.2691622 C208.515766,43.6773619 212.058559,44.3576946 215.46509,45.446227 C219.552928,25.7165775 236.994369,10.8853238 258.114865,10.8853238 C281.279279,10.8853238 300.083333,28.7100416 301.582207,51.4331551 C293.406532,54.0184195 286.184685,58.5086156 280.189189,64.2234106 C269.969595,74.1562686 263.565315,87.8989899 263.565315,103.27451 C263.565315,133.20915 287.956081,157.565062 317.933559,157.565062 C340.280405,157.565062 359.493243,144.094474 367.80518,124.773024 C369.98536,119.602496 371.484234,114.159834 372.029279,108.308972 C373.936937,108.445039 375.844595,108.581105 377.752252,108.581105 C407.72973,108.581105 432.120495,84.2251931 432.120495,54.2905526 C431.984234,24.4919786 407.593468,0.136066548 377.615991,0.136066548 Z M356.495495,123.140226 C349.273649,137.15508 334.693694,146.815805 317.661036,146.815805 C293.542793,146.815805 274.193694,127.358289 274.193694,103.410576 C274.193694,91.5727867 278.962838,80.8235294 286.593468,72.9316696 C290.545045,68.9857398 295.177928,65.7201426 300.355856,63.4070113 C298.039414,74.5644682 291.498874,84.0891266 282.369369,90.2121212 C280.870495,94.2941176 280.052928,98.6482472 280.052928,103.27451 L280.052928,103.954843 C297.221847,96.1990493 309.757883,79.734997 311.801802,60.2774807 C313.709459,60.0053476 315.617117,59.869281 317.524775,59.869281 C318.342342,59.869281 319.15991,59.869281 319.977477,60.0053476 C336.192568,60.9578134 349.954955,70.6185383 356.631757,84.4973262 C358.130631,87.6268568 359.356982,91.0285205 360.038288,94.4301842 C349.818694,90.0760547 341.643018,81.7759952 337.282658,71.5710042 C333.331081,69.1218063 328.970721,67.3529412 324.337838,66.5365419 C328.561937,85.3137255 342.733108,100.553179 360.992117,106.267974 C360.719595,112.254902 359.084459,117.969697 356.495495,123.140226 Z M387.835586,183.145573 L169,183.145573 L300.492117,314.313725 L331.150901,345.064765 L275.556306,345.064765 L275.556306,458 L501.75,458 L501.75,327.103981 L532,327.103981 L387.835586,183.145573 Z"></path>
            <polyline points="144 183 0 327.034653 30.0793951 327.034653 30.0793951 458 107.387524 458 107.387524 374.819307 169.451796 374.819307 169.451796 458 257.920605 458 257.920605 327.034653 288 327.034653"></polyline>
        </g>
    </g>
</svg>