<?xml version="1.0" encoding="UTF-8"?>
<svg width="545px" height="545px" viewBox="0 0 545 545" version="1.1" xmlns="http://www.w3.org/2000/svg" xmlns:xlink="http://www.w3.org/1999/xlink">
    <!-- Generator: Sketch 49.2 (51160) - http://www.bohemiancoding.com/sketch -->
    <title>GCBA-compromisos-icons-06</title>
    <desc>Created with Sketch.</desc>
    <defs></defs>
    <g id="GCBA-compromisos-icons-06" stroke="none" stroke-width="1" fill="none" fill-rule="evenodd">
        <g transform="translate(11.000000, 70.000000)" fill="#5B5B5B" fill-rule="nonzero" id="Shape">
            <path d="M509.989044,15.3624962 C489.791084,9.53961456 444.066868,0 358.938043,0 C273.809218,0 228.085002,9.53961456 207.887042,15.3624962 C200.204382,17.5925359 195,24.9021107 195,33.2028143 L195,349.249006 C195,353.709085 198.469588,357.301927 202.68266,357.301927 L217.924065,357.301927 L217.924065,396.699296 C217.924065,401.283267 221.641481,405 226.226294,405 L259.930865,405 C264.515678,405 268.233094,401.283267 268.233094,396.699296 L268.233094,357.301927 L449.766906,357.301927 L449.766906,396.699296 C449.766906,401.283267 453.484322,405 458.069135,405 L491.773706,405 C496.358519,405 500.075935,401.283267 500.075935,396.699296 L500.075935,357.301927 L515.31734,357.301927 C519.654326,357.301927 523,353.709085 523,349.249006 L523,33.2028143 C522.876086,24.9021107 517.671704,17.5925359 509.989044,15.3624962 Z M259.311296,39.7690425 C259.311296,35.4328541 262.904798,31.8400122 267.241783,31.8400122 L451.377786,31.8400122 C455.714771,31.8400122 459.308274,35.4328541 459.308274,39.7690425 L459.308274,58.9721627 C459.308274,63.3083512 455.714771,66.901193 451.377786,66.901193 L267.241783,66.901193 C262.904798,66.901193 259.311296,63.3083512 259.311296,58.9721627 L259.311296,39.7690425 Z M280.252739,298.205873 C280.252739,302.789844 276.535323,306.506577 271.95051,306.506577 L229.324141,306.506577 C224.739328,306.506577 221.021912,302.789844 221.021912,298.205873 L221.021912,280.985011 C221.021912,276.40104 224.739328,272.684307 229.324141,272.684307 L271.95051,272.684307 C276.535323,272.684307 280.252739,276.40104 280.252739,280.985011 L280.252739,298.205873 Z M496.854175,298.205873 C496.854175,302.789844 493.136759,306.506577 488.551946,306.506577 L445.925576,306.506577 C441.340763,306.506577 437.623347,302.789844 437.623347,298.205873 L437.623347,280.985011 C437.623347,276.40104 441.340763,272.684307 445.925576,272.684307 L488.551946,272.684307 C493.136759,272.684307 496.854175,276.40104 496.854175,280.985011 L496.854175,298.205873 Z M496.854175,219.535026 C496.854175,223.871214 493.136759,227.464056 488.551946,227.464056 L230.067624,227.464056 C225.482811,227.464056 221.765395,223.871214 221.765395,219.535026 L221.765395,92.4227593 C221.765395,88.0865708 225.482811,84.493729 230.067624,84.493729 L488.551946,84.493729 C493.136759,84.493729 496.854175,88.0865708 496.854175,92.4227593 L496.854175,219.535026 Z"></path>
            <path d="M472.549434,211.718158 C471.930047,211.718158 471.31066,211.594504 470.567395,211.347196 C470.443518,211.347196 460.285566,207.637579 447.030679,207.637579 C433.775791,207.637579 423.61784,211.347196 423.493962,211.347196 C420.644781,212.460082 417.423967,210.976235 416.432948,208.132195 C415.31805,205.288154 416.80458,202.196807 419.653761,201.083921 C420.149271,200.960267 431.793752,196.63238 447.030679,196.63238 C462.267606,196.63238 473.912086,200.960267 474.407596,201.083921 C477.256778,202.196807 478.743307,205.288154 477.62841,208.132195 C476.885145,210.357965 474.779229,211.718158 472.549434,211.718158 Z M9,358.495358 L147.866626,358.495358 L147.866626,404 L9,404 L9,358.495358 Z M18.6624414,71 L38.6067116,71 L38.6067116,358.371704 L18.6624414,358.371704 L18.6624414,71 Z"></path>
            <path d="M9.97869726,88 C6.01190591,88 2.16907679,85.6666667 0.681530028,81.7368421 C-1.30186565,76.7017544 1.17737895,70.9298246 6.3837926,68.9649123 C45.5558572,53.7368421 87.0832042,46 129.478287,46 C135.800361,46 142.246396,46.122807 148.56847,46.4912281 C154.022808,46.7368421 158.237524,51.4035088 157.9896,56.9298246 C157.741675,62.3333333 153.03111,66.5087719 147.45281,66.2631579 C141.502623,65.8947368 135.428474,65.7719298 129.478287,65.7719298 C89.4384866,65.7719298 50.5143464,73.0175439 13.5736019,87.3859649 C12.4579419,87.877193 11.2183196,88 9.97869726,88 Z"></path>
        </g>
    </g>
</svg>