<?xml version="1.0" encoding="utf-8"?>
<!-- Generator: Adobe Illustrator 15.1.0, SVG Export Plug-In . SVG Version: 6.00 Build 0)  -->
<!DOCTYPE svg PUBLIC "-//W3C//DTD SVG 1.1//EN" "http://www.w3.org/Graphics/SVG/1.1/DTD/svg11.dtd">
<svg version="1.1" id="Layer_1" xmlns="http://www.w3.org/2000/svg" xmlns:xlink="http://www.w3.org/1999/xlink" x="0px" y="0px"
	 width="750px" height="750px" viewBox="0 0 750 750" enable-background="new 0 0 750 750" xml:space="preserve">
<g>
	<path fill="#5A5B5B" d="M235.44,583.607h36.709c0.007-0.002,0.015-0.002,0.02,0c2.762,0,5-2.238,5-5
		c0-0.178-0.009-0.354-0.026-0.525l-5.238-348.829c-0.041-2.732-2.267-4.925-4.999-4.925h-26.221c-2.732,0-4.958,2.193-4.999,4.925
		l-5.244,349.278c-0.021,1.34,0.497,2.631,1.438,3.584C232.818,583.07,234.101,583.607,235.44,583.607z"/>
	<path fill="#5A5B5B" d="M291.25,593.488c-0.521-2.271-2.543-3.881-4.873-3.881h-61.479c-2.33,0-4.352,1.609-4.873,3.881
		l-10.489,45.703c-0.34,1.484,0.014,3.043,0.962,4.234s2.389,1.885,3.911,1.885h82.456c0.006-0.002,0.015,0,0.02,0
		c2.762,0,5-2.238,5-5c0-0.545-0.087-1.068-0.247-1.559L291.25,593.488z"/>
	<path fill="#5A5B5B" d="M243.692,219.719h20.977c2.762,0,5-2.239,5-5c0-43.59,35.463-79.053,79.053-79.053
		c43.593,0,79.058,35.463,79.058,79.053c0,2.761,2.238,5,5,5h20.977c2.762,0,5-2.239,5-5c0-60.67-49.361-110.029-110.034-110.029
		c-60.67,0-110.029,49.359-110.029,110.029C238.692,217.48,240.93,219.719,243.692,219.719z"/>
	<path fill="#5A5B5B" d="M407.74,257.204c0,2.761,2.238,5,5,5h61.45c2.762,0,5-2.239,5-5c0-19.7-16.025-35.728-35.723-35.728
		C423.767,221.477,407.74,237.504,407.74,257.204z"/>
	<path fill="#5A5B5B" d="M396.211,268.733c0,27.161,22.1,49.258,49.263,49.258c27.161,0,49.258-22.097,49.258-49.258
		c0-2.761-2.238-5-5-5h-88.521C398.449,263.733,396.211,265.971,396.211,268.733z"/>
	<path fill="#5A5B5B" d="M181.26,415.168c-2.761,0-5,2.238-5,5v217.027c0,2.762,2.239,5,5,5s5-2.238,5-5V420.168
		C186.26,417.406,184.021,415.168,181.26,415.168z"/>
	<path fill="#5A5B5B" d="M631.848,406.162l-161.924-74.366c-2.509-1.152-5.479-0.053-6.631,2.457
		c-1.152,2.51-0.052,5.478,2.457,6.631l161.924,74.366c0.676,0.311,1.386,0.457,2.084,0.457c1.894,0,3.705-1.082,4.547-2.914
		C635.457,410.283,634.357,407.314,631.848,406.162z"/>
	<path fill="#5A5B5B" d="M370.915,286.318c-1.401-0.644-3.023-0.605-4.395,0.107l-81.533,42.407
		c-2.449,1.274-3.402,4.293-2.128,6.743c0.891,1.713,2.634,2.694,4.439,2.694c0.777,0,1.566-0.182,2.304-0.565l79.362-41.278
		l15.765,7.24c2.512,1.153,5.479,0.052,6.631-2.457c1.152-2.509,0.053-5.478-2.457-6.63L370.915,286.318z"/>
	<path fill="#5A5B5B" d="M225.11,365.62c-1.274-2.45-4.294-3.403-6.743-2.129l-100.434,52.241c-2.45,1.275-3.403,4.293-2.129,6.744
		c0.891,1.711,2.635,2.693,4.44,2.693c0.777,0,1.566-0.182,2.303-0.566l100.435-52.24C225.431,371.089,226.384,368.07,225.11,365.62
		z"/>
	<path fill="#5A5B5B" d="M591.299,415.168c-2.762,0-5,2.238-5,5v213.584h-32.505V444.881c0-2.762-2.238-5-5-5h-95.039
		c-2.762,0-5,2.238-5,5v187.314H337.051c-2.762,0-5,2.238-5,5s2.238,5,5,5h116.704c2.762,0,5-2.238,5-5V449.881h85.039v188.871
		c0,2.762,2.238,5,5,5h42.505c2.762,0,5-2.238,5-5V420.168C596.299,417.406,594.061,415.168,591.299,415.168z"/>
</g>
</svg>
