<?xml version="1.0" encoding="utf-8"?>
<!-- Generator: Adobe Illustrator 15.1.0, SVG Export Plug-In  -->
<!DOCTYPE svg PUBLIC "-//W3C//DTD SVG 1.1//EN" "http://www.w3.org/Graphics/SVG/1.1/DTD/svg11.dtd" [
	<!ENTITY ns_flows "http://ns.adobe.com/Flows/1.0/">
]>
<svg version="1.1"
	 xmlns="http://www.w3.org/2000/svg" xmlns:xlink="http://www.w3.org/1999/xlink" xmlns:a="http://ns.adobe.com/AdobeSVGViewerExtensions/3.0/"
	 x="0px" y="0px" width="300px" height="300px" viewBox="-37.347 -36.347 300 300" enable-background="new -37.347 -36.347 300 300"
	 xml:space="preserve">
<defs>
</defs>
<path opacity="0.8" fill="#5A5B5B" d="M216.284,119.256l-13.468-13.465c0.293,2.915,0.445,5.871,0.445,8.862
	c0,42.012-29.396,77.262-68.695,86.326l-15.305,15.305l11.824,11.827c55.465-7.995,98.221-55.819,98.221-113.458
	c0-2.728-0.129-5.42-0.319-8.101L216.284,119.256z"/>
<path opacity="0.4" fill="#5A5B5B" d="M26.49,123.516c-0.293-2.915-0.445-5.871-0.445-8.862c0-43.107,30.946-79.102,71.789-86.988
	l14.643-14.643l-12.1-12.1C43.875,7.978,0,56.273,0,114.653c0,2.728,0.129,5.42,0.316,8.101l12.706-12.703L26.49,123.516z"/>
<path fill="#5A5B5B" d="M108.419,26.288c2.063-0.144,4.14-0.243,6.237-0.243c42.012,0,77.262,29.399,86.323,68.701l15.305,15.305
	l11.827-11.827C220.116,42.762,172.295,0,114.656,0c-1.963,0-3.908,0.05-5.848,0.149l12.873,12.873L108.419,26.288z"/>
<path opacity="0.6" fill="#5A5B5B" d="M123.521,202.816c-2.918,0.293-5.874,0.445-8.865,0.445
	c-42.012,0-77.265-29.396-86.329-68.701l-15.305-15.305L1.195,131.083c7.998,55.462,55.816,98.224,113.461,98.224
	c2.728,0,5.42-0.129,8.101-0.316l-12.703-12.706L123.521,202.816z"/>
<path fill="#5A5B5B" d="M165.545,148.315l-32.08-14.168l-0.111-2.206h17.221l0.469-1.245c0.07-0.188,1.717-4.688,1.986-15.111
	c0.182-7.16-0.557-13.626-2.156-19.28c2.666-3.044,4.62-7.002,2.836-11.344c-1.641-3.99-4.324-5.2-6.498-5.326
	c0.056-0.791,0.082-1.307,0.088-1.412l-0.059-0.003c0.387-1.512,2.332-10.204-2.145-16.96c-2.514-3.785-6.595-6.135-12-7.143
	c-0.381-2.49-2.593-6.516-11.889-9.902c-10.157-3.697-25.254-2.367-33.378,6.088l-0.032-0.035c-0.108,0.105-0.196,0.226-0.299,0.331
	c-0.041,0.044-0.091,0.073-0.129,0.114l0.012,0.012c-12.598,12.56-18.686,31.482-18.038,56.309
	c0.431,16.386,2.982,23.37,3.091,23.66l0.469,1.248h24.902l-0.111,2.206l-32.08,14.168l-0.99,31.236c0,0,43.623,39.366,101.909,0
	L165.545,148.315z M86.01,96.363c-2.985-2.42-6.439-6.202-4.904-9.938c0.981-2.388,2.268-2.924,3.161-2.971
	C84.583,86.774,85.125,91.359,86.01,96.363z M87.85,80.165c6.85,0.261,27.688,0.117,40.102-9.979
	c2.156-0.1,11.121,0.026,15.478,8.285c-0.158,2.54-1.157,16.459-4.608,28.456c-3.255,11.312-20.385,15.949-23.241,16.646
	c-2.859-0.697-19.986-5.335-23.241-16.646C89.373,96.633,88.216,84.896,87.85,80.165z M102.129,122.54
	c6.363,3.401,12.568,4.793,13.049,4.896l0.401,0.085l0.401-0.085c0.48-0.103,6.686-1.494,13.049-4.896l0.645,12.914l-14.095,15.369
	l-14.098-15.369L102.129,122.54z M147.791,128.095h-14.607v0.489l-0.41-8.294c4.33-2.953,8.209-6.958,9.744-12.302
	c0.574-1.992,1.072-4.02,1.523-6.041c0.771-0.469,2.13-1.356,3.63-2.572c1.128,4.799,1.664,10.184,1.512,16.11
	C149.01,122.168,148.248,126.22,147.791,128.095z M150.149,86.426c1.55,3.768-2.013,7.6-5.019,10.022
	c0.896-5.042,1.441-9.662,1.761-12.999C147.738,83.467,149.127,83.924,150.149,86.426z M141.879,63.372
	c1.963,2.953,2.344,6.536,2.244,9.34c-4.573-5.098-10.723-6.199-14.256-6.369l0.688-2.212l1.963-6.293
	C136.828,58.655,139.972,60.51,141.879,63.372z M75.662,128.095c-0.7-2.596-2.162-9.328-2.473-21.164
	c-0.621-23.862,5.145-41.921,17.104-53.698c6.858-7.5,20.678-8.648,29.602-5.399c8.385,3.056,9.633,6.384,9.41,7.371l-3.732,11.991
	c-13.477,10.998-39.372,9.038-39.636,9.012l-2.188-0.179l0.111,2.194c0.003,0.105,0.032,0.624,0.088,1.415
	c-2.156,0.155-4.787,1.392-6.404,5.323c-3.375,8.227,6.627,15.114,9.56,16.919c0.451,2.045,0.958,4.099,1.538,6.108
	c1.535,5.344,5.414,9.349,9.744,12.302l-0.39,7.805H75.662z"/>
<path fill="#FFFFFF" d="M86.01,96.363c-2.985-2.42-6.439-6.202-4.904-9.938c0.981-2.388,2.268-2.924,3.161-2.971
	C84.583,86.774,85.125,91.359,86.01,96.363z"/>
<path fill="#FFFFFF" d="M87.85,80.165c6.85,0.261,27.688,0.117,40.102-9.979c2.156-0.1,11.121,0.026,15.478,8.285
	c-0.158,2.54-1.157,16.459-4.608,28.456c-3.255,11.312-20.385,15.949-23.241,16.646c-2.859-0.697-19.986-5.335-23.241-16.646
	C89.373,96.633,88.216,84.896,87.85,80.165z"/>
<path fill="#FFFFFF" d="M102.129,122.54c6.363,3.401,12.568,4.793,13.049,4.896l0.401,0.085l0.401-0.085
	c0.48-0.103,6.686-1.494,13.049-4.896l0.645,12.914l-14.095,15.369l-14.098-15.369L102.129,122.54z"/>
<path fill="#FFFFFF" d="M147.791,128.095h-14.607v0.489l-0.41-8.294c4.33-2.953,8.209-6.958,9.744-12.302
	c0.574-1.992,1.072-4.02,1.523-6.041c0.771-0.469,2.13-1.356,3.63-2.572c1.128,4.799,1.664,10.184,1.512,16.11
	C149.01,122.168,148.248,126.22,147.791,128.095z"/>
<path fill="#FFFFFF" d="M150.149,86.426c1.55,3.768-2.013,7.6-5.019,10.022c0.896-5.042,1.441-9.662,1.761-12.999
	C147.738,83.467,149.127,83.924,150.149,86.426z"/>
<path fill="#FFFFFF" d="M141.879,63.372c1.963,2.953,2.344,6.536,2.244,9.34c-4.573-5.098-10.723-6.199-14.256-6.369l0.688-2.212
	l1.963-6.293C136.828,58.655,139.972,60.51,141.879,63.372z"/>
<path fill="#FFFFFF" d="M75.662,128.095c-0.7-2.596-2.162-9.328-2.473-21.164c-0.621-23.862,5.145-41.921,17.104-53.698
	c6.858-7.5,20.678-8.648,29.602-5.399c8.385,3.056,9.633,6.384,9.41,7.371l-3.732,11.991c-13.477,10.998-39.372,9.038-39.636,9.012
	l-2.188-0.179l0.111,2.194c0.003,0.105,0.032,0.624,0.088,1.415c-2.156,0.155-4.787,1.392-6.404,5.323
	c-3.375,8.227,6.627,15.114,9.56,16.919c0.451,2.045,0.958,4.099,1.538,6.108c1.535,5.344,5.414,9.349,9.744,12.302l-0.39,7.805
	H75.662z"/>
</svg>
