<svg xmlns="http://www.w3.org/2000/svg" width="750" height="750" viewBox="585 165 750 750"><path fill="none" stroke="#5A5B5B" stroke-width="7.61" stroke-miterlimit="10" d="M899.12 738.344l-15.707 90.375h153.175l-16.653-90.376"/><path opacity=".6" fill="#5A5B5B" d="M678.42 738.344h563.162c12.62 0 22.838-10.22 22.838-22.824v-38.055H655.58v38.055c0 12.605 10.22 22.824 22.84 22.824"/><path fill="#5A5B5B" d="M1241.582 312.153H678.42c-12.62 0-22.84 10.23-22.84 22.84v342.472h608.84v-342.47c0-12.613-10.22-22.842-22.838-22.842zm-6.974 334.235H686.665V340.692h547.943v305.696z"/><path fill="none" stroke="#30241C" stroke-width="7.61" stroke-miterlimit="10" d="M807.79 570.437c0-8.4-6.808-15.208-15.216-15.208s-15.217 6.807-15.217 15.207c0 8.407 6.81 15.224 15.217 15.224s15.216-6.816 15.216-15.223zM777.357 510.037c0-8.408-6.824-15.216-15.232-15.216s-15.216 6.81-15.216 15.217 6.807 15.224 15.215 15.224 15.232-6.815 15.232-15.223zM838.23 510.037c0-8.408-6.817-15.216-15.224-15.216-8.4 0-15.217 6.81-15.217 15.217s6.815 15.224 15.216 15.224c8.408 0 15.224-6.815 15.224-15.223zM807.79 449.148c0-8.408-6.808-15.224-15.216-15.224s-15.217 6.816-15.217 15.224c0 8.408 6.81 15.216 15.217 15.216s15.216-6.808 15.216-15.216zM746.91 449.148c0-8.408-6.817-15.224-15.218-15.224-8.407 0-15.224 6.816-15.224 15.224 0 8.408 6.817 15.216 15.224 15.216 8.4 0 15.217-6.808 15.217-15.216zM838.23 388.267c0-8.408-6.817-15.215-15.224-15.215-8.4 0-15.217 6.808-15.217 15.215 0 8.41 6.815 15.225 15.216 15.225 8.408 0 15.224-6.817 15.224-15.225zM1142.643 388.267c0 8.41 6.823 15.225 15.233 15.225 8.407 0 15.215-6.816 15.215-15.225 0-8.408-6.807-15.215-15.214-15.215-8.41 0-15.233 6.807-15.233 15.215zM1005.665 616.576c0 8.407 6.816 15.23 15.217 15.23 8.407 0 15.23-6.823 15.23-15.23 0-8.41-6.823-15.217-15.23-15.217-8.4 0-15.217 6.806-15.217 15.216zM914.336 312.153c0 8.417 6.815 15.233 15.232 15.233 8.407 0 15.215-6.816 15.215-15.233 0-8.4-6.808-15.208-15.215-15.208-8.417 0-15.232 6.81-15.232 15.208zM974.13 266.505c0 8.4 6.816 15.216 15.226 15.216 8.408 0 15.215-6.815 15.215-15.215 0-8.417-6.806-15.225-15.214-15.225-8.41 0-15.226 6.81-15.226 15.225zM974.13 342.61c0 8.4 6.816 15.216 15.226 15.216 8.408 0 15.215-6.816 15.215-15.216 0-8.408-6.806-15.224-15.214-15.224-8.41 0-15.226 6.816-15.226 15.224zM883.895 616.576c0 8.407 6.817 15.23 15.224 15.23 8.408 0 15.216-6.823 15.216-15.23 0-8.41-6.808-15.217-15.217-15.217-8.408 0-15.225 6.806-15.225 15.216zM1142.643 448.675c0 8.416 6.823 15.224 15.233 15.224 8.407 0 15.215-6.81 15.215-15.225 0-8.4-6.807-15.216-15.214-15.216-8.41-.002-15.233 6.814-15.233 15.215zM1081.77 448.675c0 8.416 6.817 15.224 15.225 15.224s15.217-6.81 15.217-15.225c0-8.4-6.81-15.216-15.217-15.216s-15.224 6.814-15.224 15.215zM1081.77 509.555c0 8.41 6.817 15.225 15.225 15.225s15.217-6.816 15.217-15.225c0-8.408-6.81-15.216-15.217-15.216s-15.224 6.807-15.224 15.215zM1173.09 509.555c0 8.41 6.817 15.225 15.218 15.225 8.407 0 15.217-6.816 15.217-15.225 0-8.408-6.81-15.216-15.217-15.216-8.4 0-15.217 6.807-15.217 15.215zM1081.77 570.437c0 8.407 6.817 15.224 15.225 15.224s15.217-6.815 15.217-15.223c0-8.4-6.81-15.208-15.217-15.208s-15.224 6.806-15.224 15.207zM989.355 281.722v46.024M989.355 357.827v43.126M929.568 400.953v-73.567M976.164 674.924c0-8.407-6.81-15.23-15.217-15.23-8.408 0-15.216 6.823-15.216 15.23 0 8.41 6.81 15.217 15.217 15.217s15.217-6.806 15.217-15.216zM960.947 586.135v73.558M838.23 388.267h60.89v12.686M1020.882 400.953v-12.686h121.76M807.79 449.148h60.244M777.357 449.148H746.91M777.357 510.037h30.433M838.23 510.037h29.804M807.79 570.437h60.244M1081.77 570.437h-28.54M1173.09 509.555h-60.88M1081.77 509.555h-28.54M1081.77 448.675h-28.54M1142.643 448.675h-30.432M899.12 601.36v-15.7M1020.882 601.36v-15.225"/><g fill="#5A5B5B"><path d="M957.076 543.063v-14.82h-10.4c3.503 6.023 7.3 11.09 10.4 14.82zM1003.7 458.592c-8.227-10.12-19.94-17.283-33.294-19.666 3.977 4.726 9.002 11.476 13.328 19.666h19.967zM957.076 458.592v-14.566c-3.057 3.677-6.79 8.653-10.253 14.566h10.253zM936.377 489.734h20.698v-23.532h-14.253c-3.304 7.086-5.84 15.076-6.445 23.532zM917.376 528.243c8.354 10.397 20.368 17.728 34.07 20.022-4.028-4.778-9.16-11.656-13.543-20.022h-20.527zM951.447 438.822c-13.595 2.276-25.528 9.504-33.875 19.77h20.467c4.355-8.25 9.42-15.04 13.407-19.77zM934.446 466.202h-22.072c-4 7.035-6.505 15.02-7.085 23.532h23.46c.52-8.44 2.714-16.382 5.696-23.532zM928.75 497.345h-23.46c.574 8.412 3.024 16.312 6.942 23.287h22.108c-2.93-7.085-5.076-14.944-5.59-23.287zM942.706 520.632h14.37v-23.287h-20.698c.596 8.36 3.08 16.262 6.328 23.287zM970.408 548.16c13.46-2.402 25.253-9.667 33.49-19.917H983.87c-4.353 8.304-9.445 15.143-13.462 19.917zM987.438 520.632h21.604c3.92-6.975 6.37-14.875 6.942-23.287H993.03c-.514 8.343-2.662 16.202-5.592 23.287z"/><path d="M868.034 400.953v185.182h185.198V400.953H868.034zm92.94 155.69c-.03 0-.062.007-.093.007-.017 0-.034-.004-.053-.004-.063 0-.127.004-.19.004-34.795 0-63.103-28.31-63.103-63.11 0-34.795 28.308-63.103 63.103-63.103.063 0 .124.005.186.005.053 0 .105.002.157.004 34.638.186 62.76 28.415 62.76 63.094 0 34.686-28.126 62.917-62.765 63.102z"/><path d="M964.686 444.02v14.572h10.266c-3.468-5.917-7.207-10.896-10.266-14.572zM993.03 489.734h22.954c-.58-8.51-3.085-16.497-7.086-23.532H987.33c2.983 7.15 5.18 15.092 5.7 23.532zM964.686 528.243v14.826c3.103-3.73 6.904-8.8 10.413-14.827h-10.414zM978.954 466.202h-14.27v23.532h20.718c-.603-8.456-3.142-16.446-6.448-23.532zM985.402 497.345h-20.717v23.287h14.385c3.25-7.025 5.737-14.928 6.332-23.287z"/></g></svg>