<?xml version="1.0" encoding="utf-8"?>
<!-- Generator: Adobe Illustrator 15.1.0, SVG Export Plug-In . SVG Version: 6.00 Build 0)  -->
<!DOCTYPE svg PUBLIC "-//W3C//DTD SVG 1.1//EN" "http://www.w3.org/Graphics/SVG/1.1/DTD/svg11.dtd">
<svg version="1.1" id="Layer_1" xmlns="http://www.w3.org/2000/svg" xmlns:xlink="http://www.w3.org/1999/xlink" x="0px" y="0px" width="750px" height="750px"
	 viewBox="585 165 750 750" enable-background="new 585 165 750 750" xml:space="preserve">

	<g>
		<g>
			<polygon fill="#5A5B5B" points="1039,766.776 827.722,766.776 827.722,467.9 837.987,467.9 837.987,756.512 1039,756.512 			"/>
			<g>
				<rect x="885.487" y="336.424" fill="#5A5B5B" width="110.75" height="20.53"/>
			</g>
			<g>
				<rect x="885.487" y="411.735" fill="#5A5B5B" width="207.245" height="10.265"/>
			</g>
			<g>
				<rect x="885.487" y="446.83" fill="#5A5B5B" width="207.245" height="10.265"/>
			</g>
			<g>
				<rect x="885.487" y="481.915" fill="#5A5B5B" width="207.245" height="10.265"/>
			</g>
			<g>
				<rect x="885.487" y="517.009" fill="#5A5B5B" width="87.572" height="10.265"/>
			</g>
			<g>
				<rect x="885.487" y="585.399" fill="#5A5B5B" width="207.245" height="10.265"/>
			</g>
			<g>
				<rect x="885.487" y="620.502" fill="#5A5B5B" width="207.245" height="10.265"/>
			</g>
			<g>
				<rect x="885.487" y="655.589" fill="#5A5B5B" width="207.245" height="10.265"/>
			</g>
			<g>
				<rect x="885.487" y="690.674" fill="#5A5B5B" width="122.812" height="10.265"/>
			</g>
		</g>
		<path fill="#5A5B5B" d="M1102.548,305.741H871.527v10.265h223.656v50.37l46.89-0.232v278.76h10.265V359.198L1102.548,305.741z
			 M1105.447,323.916l29.802,31.997l-29.802,0.147V323.916z"/>
		<path fill="#5A5B5B" d="M834.118,235.354H660.66c-12.543,0-22.757,10.205-22.757,22.749v173.466
			c0,12.535,10.214,22.74,22.757,22.74h173.458c12.544,0,22.739-10.205,22.739-22.74V258.104
			C856.857,245.56,846.662,235.354,834.118,235.354z M834.118,445.506H660.66c-7.694,0-13.953-6.25-13.953-13.937V293.377h201.348
			v138.192C848.055,439.256,841.805,445.506,834.118,445.506z"/>
		<g>
			<g>
				<path fill="#5A5B5B" d="M741.897,316.974h13.463v90.395h-19.489v-70.393l-15.643,3.847l-4.103-16.156L741.897,316.974z"/>
			</g>
		</g>
		<path fill="#5A5B5B" d="M1307.888,685.026l-7.251-7.258l-17.058-17.073l-7.259-7.267l-7.263,7.265l-36.517,36.531
			c-18.604-27.254-49.899-45.153-85.388-45.153c-57.069,0-103.34,46.279-103.34,103.355c0,57.077,46.271,103.355,103.34,103.355
			c57.076,0,103.329-46.278,103.329-103.355c0-4.142-0.271-8.219-0.745-12.233l50.897-50.913L1307.888,685.026z M1162.189,816.252
			l-69.32-69.937l17.144-16.988l52.254,52.718l75.782-75.811l0,0l38.269-38.284l17.058,17.073L1162.189,816.252z"/>
	</g>


</svg>
