<?xml version="1.0" encoding="UTF-8"?>
<svg width="545px" height="545px" viewBox="0 0 545 545" version="1.1" xmlns="http://www.w3.org/2000/svg" xmlns:xlink="http://www.w3.org/1999/xlink">
    <!-- Generator: Sketch 49.2 (51160) - http://www.bohemiancoding.com/sketch -->
    <title>GCBA-compromisos-icons-07</title>
    <desc>Created with Sketch.</desc>
    <defs></defs>
    <g id="GCBA-compromisos-icons-07" stroke="none" stroke-width="1" fill="none" fill-rule="evenodd">
        <g transform="translate(57.000000, 16.000000)" fill="#5B5B5B" fill-rule="nonzero" id="Shape">
            <path d="M216.079577,0 C96.7258874,0 0,13.5419255 0,108.01677 L0,364.51677 C0,416.772671 42.3872917,458.991615 94.4949773,458.991615 L54.0198943,499.458075 L54.0198943,513 L377.979909,513 L377.979909,499.458075 L337.504826,458.991615 C389.771862,458.991615 431.999803,416.613354 431.999803,364.51677 L431.999803,108.01677 C432.159154,13.5419255 335.433267,0 216.079577,0 Z M94.654328,404.98323 C72.3452271,404.98323 54.179245,386.821118 54.179245,364.51677 C54.179245,342.212422 72.3452271,324.050311 94.654328,324.050311 C116.963429,324.050311 135.129411,342.212422 135.129411,364.51677 C135.129411,386.821118 116.963429,404.98323 94.654328,404.98323 Z M189.149305,242.958075 L54.179245,242.958075 L54.179245,108.01677 L189.149305,108.01677 L189.149305,242.958075 Z M337.664177,404.98323 C315.355076,404.98323 297.189094,386.821118 297.189094,364.51677 C297.189094,342.212422 315.355076,324.050311 337.664177,324.050311 C359.973278,324.050311 378.13926,342.212422 378.13926,364.51677 C378.13926,386.821118 359.973278,404.98323 337.664177,404.98323 Z M378.13926,242.958075 L243.1692,242.958075 L243.1692,108.01677 L378.13926,108.01677 L378.13926,242.958075 Z"></path>
        </g>
    </g>
</svg>