<?xml version="1.0" encoding="utf-8"?>
<!-- Generator: Adobe Illustrator 15.1.0, SVG Export Plug-In . SVG Version: 6.00 Build 0)  -->
<!DOCTYPE svg PUBLIC "-//W3C//DTD SVG 1.1//EN" "http://www.w3.org/Graphics/SVG/1.1/DTD/svg11.dtd">
<svg version="1.1" id="Layer_1" xmlns="http://www.w3.org/2000/svg" xmlns:xlink="http://www.w3.org/1999/xlink" x="0px" y="0px" width="750px" height="750px"
	 viewBox="585 165 750 750" enable-background="new 585 165 750 750" xml:space="preserve">

	<g>
		<g>
			<path fill="#5A5B5B" d="M1315.429,715.85h-87.466c-7.193-2.777-6.816-10.268-6.816-10.268s-0.024,0.012-0.068,0.033l1.216-19.439
				l18.202,1.139c5.092,0.314,9.501-3.754,9.823-9.072l6.045-96.873c0.614-9.896-5.125-19.002-14.068-22.23
				c-4.295-1.547-9.597-3.299-16-5.172l-32.708-107.595c-1.613-5.303-7.474-9.952-13.035-10.299l-221.644-13.812
				c-5.545-0.347-11.945,3.528-14.197,8.588l-45.843,102.705c-6.587,1.062-12.067,2.143-16.521,3.144
				c-9.268,2.099-16.097,10.405-16.719,20.3l-6.046,96.891c-0.331,5.311,3.536,9.896,8.622,10.211l18.234,1.131l-2.219,40.994
				c-0.053-0.029-0.082-0.045-0.082-0.045s0.018,7.002-6.567,9.67H604.572c-6.848,0-12.399,5.551-12.399,12.398
				s5.552,12.398,12.399,12.398h710.856c6.848,0,12.398-5.551,12.398-12.398S1322.276,715.85,1315.429,715.85z M950.162,715.85
				c-5.658-2.676-6.058-8.227-6.039-9.947l2.105-36.943l216.25,13.488l-2.08,33.402H950.162z M894.512,595.02l1.275-20.473
				c0.339-5.406,5.028-9.564,10.445-9.225l50.789,3.172c5.392,0.338,9.549,5.045,9.218,10.445l-1.284,20.479
				c-0.329,5.393-5.044,9.549-10.436,9.211l-50.781-3.166C898.313,605.125,894.18,600.42,894.512,595.02z M1224.263,595.025
				l-1.268,20.48c-0.348,5.393-5.044,9.549-10.445,9.211l-50.78-3.166c-5.425-0.338-9.559-5.035-9.219-10.445l1.275-20.479
				c0.339-5.4,5.021-9.549,10.445-9.217l50.78,3.172C1220.453,584.92,1224.609,589.627,1224.263,595.025z M961.565,442.683
				l213.821,13.327l27.978,92.009c-30.463-7.033-75.62-14.419-139.897-18.425c-64.269-4.01-109.986-2.292-141.086,0.904
				L961.565,442.683z"/>
			<path fill="#5A5B5B" d="M1104.906,528.924c0.133-0.042,12.805-3.012,28.413-1.131c15.609,1.888,27.22,7.783,27.321,7.845
				c0.722,0.374,1.478,0.595,2.239,0.688c2.643,0.323,5.323-1.002,6.615-3.499c1.673-3.227,0.423-7.188-2.806-8.846
				c-0.549-0.29-13.709-7.058-31.791-9.236c-18.082-2.176-32.479,1.269-33.095,1.411c-3.508,0.849-5.662,4.386-4.807,7.913
				C1097.838,527.578,1101.39,529.764,1104.906,528.924z"/>
			<path fill="#5A5B5B" d="M621.806,544.932h162.861c11.773,0,21.351-9.578,21.351-21.351V360.711
				c0-11.777-9.577-21.358-21.351-21.358H621.806c-11.782,0-21.367,9.582-21.367,21.358v162.869
				C600.438,535.354,610.023,544.932,621.806,544.932z M784.667,536.666H621.806c-7.224,0-13.101-5.87-13.101-13.085V393.832
				h189.047v129.749C797.752,530.796,791.882,536.666,784.667,536.666z"/>
			<polygon fill="#5A5B5B" points="643.69,423.204 647.544,438.374 662.231,434.761 662.231,500.858 680.531,500.858 
				680.531,415.98 667.891,415.98 			"/>
			<path fill="#5A5B5B" d="M729.049,445.958c-4.695,0-7.705,0.602-11.076,1.444l0.963-14.567h35.878v-16.253h-51.77l-2.408,41.536
				l10.715,7.104c3.974-1.686,8.789-3.13,14.086-3.13c9.03,0,14.93,4.214,14.93,11.558c0,7.585-5.418,11.799-14.086,11.799
				c-7.465,0-13.726-3.371-20.106-9.15l-11.196,13.364c8.187,7.826,18.059,12.642,31.543,12.642
				c19.384,0,32.025-11.317,32.025-29.256C758.546,453.904,745.664,445.958,729.049,445.958z"/>
		</g>
	</g>


</svg>
