<?xml version="1.0" encoding="utf-8"?>
<!-- Generator: Adobe Illustrator 15.1.0, SVG Export Plug-In . SVG Version: 6.00 Build 0)  -->
<!DOCTYPE svg PUBLIC "-//W3C//DTD SVG 1.1//EN" "http://www.w3.org/Graphics/SVG/1.1/DTD/svg11.dtd">
<svg version="1.1" id="Layer_1" xmlns="http://www.w3.org/2000/svg" xmlns:xlink="http://www.w3.org/1999/xlink" x="0px" y="0px"
	 width="750px" height="750px" viewBox="585 165 750 750" enable-background="new 585 165 750 750" xml:space="preserve">
<g>
	<path fill="#5A5B5B" d="M1144.231,344.905h-88.481c-3.313,0-6,2.687-6,6c0,3.314,2.687,6,6,6h88.481
		c5.472,0,9.924,4.45,9.924,9.919v381.567c0,5.473-4.452,9.924-9.924,9.924H975.449c-0.005,0-0.009,0-0.013,0H792.813
		c-0.004,0-0.008,0-0.012,0H624.018c-5.472,0-9.924-4.451-9.924-9.924V366.824c0-5.469,4.452-9.919,9.924-9.919h361.197
		c3.313,0,6-2.686,6-6c0-3.313-2.687-6-6-6H624.018c-12.089,0-21.924,9.833-21.924,21.919v381.567
		c0,12.09,9.835,21.924,21.924,21.924h160.363l-19.979,57.6c-0.636,1.834-0.346,3.863,0.78,5.445
		c1.126,1.582,2.947,2.521,4.889,2.521h228.108c0.006,0,0.014,0,0.02,0c3.314,0,6-2.688,6-6c0-0.865-0.182-1.686-0.511-2.428
		l-19.818-57.139h160.362c12.089,0,21.924-9.834,21.924-21.924V366.824C1166.155,354.738,1156.32,344.905,1144.231,344.905z
		 M989.747,823.881H778.502l18.579-53.566h174.085L989.747,823.881z"/>
	<path fill="#5A5B5B" d="M981.616,373.641c0-3.313-2.687-6-6-6H630.84c-3.313,0-6,2.687-6,6v367.921c0,3.313,2.687,6,6,6h506.569
		c3.313,0,6-2.688,6-6V373.641c0-3.313-2.687-6-6-6h-93.491c-3.313,0-6,2.687-6,6s2.687,6,6,6h87.491v355.921H636.84V379.641
		h338.776C978.93,379.641,981.616,376.955,981.616,373.641z"/>
	<path fill="#5A5B5B" d="M766.526,684.152H993.62c23.256,0,42.176-18.918,42.176-42.172c0-23.256-18.92-42.176-42.176-42.176
		H766.526c-23.253,0-42.171,18.92-42.171,42.176C724.355,665.234,743.273,684.152,766.526,684.152z M766.526,611.805H993.62
		c16.639,0,30.176,13.537,30.176,30.176c0,16.637-13.537,30.172-30.176,30.172H766.526c-16.637,0-30.171-13.535-30.171-30.172
		C736.355,625.342,749.89,611.805,766.526,611.805z"/>
	<path fill="#5A5B5B" d="M766.529,666.529c13.537,0,24.549-11.012,24.549-24.549c0-13.535-11.013-24.549-24.549-24.549
		c-13.536,0-24.549,11.014-24.549,24.549C741.98,655.518,752.993,666.529,766.529,666.529z M766.529,629.432
		c6.92,0,12.549,5.629,12.549,12.549s-5.629,12.549-12.549,12.549c-6.919,0-12.549-5.629-12.549-12.549
		S759.609,629.432,766.529,629.432z"/>
	<path fill="#5A5B5B" d="M994.623,666.527c13.538,0,24.553-11.012,24.553-24.547s-11.015-24.547-24.553-24.547
		c-13.535,0-24.547,11.012-24.547,24.547S981.088,666.527,994.623,666.527z M994.623,629.434c6.922,0,12.553,5.629,12.553,12.547
		s-5.631,12.547-12.553,12.547c-6.918,0-12.547-5.629-12.547-12.547S987.705,629.434,994.623,629.434z"/>
	<path fill="#5A5B5B" d="M808.265,636.852h149.182c3.313,0,6-2.688,6-6c0-3.314-2.687-6-6-6H808.265c-3.314,0-6,2.686-6,6
		C802.265,634.164,804.951,636.852,808.265,636.852z"/>
	<path fill="#5A5B5B" d="M808.265,660.039h149.182c3.313,0,6-2.688,6-6c0-3.314-2.687-6-6-6H808.265c-3.314,0-6,2.686-6,6
		C802.265,657.352,804.951,660.039,808.265,660.039z"/>
	<path fill="#5A5B5B" d="M948.784,446.475c-0.759-2.542-3.097-4.284-5.749-4.284h-141.74c-3.313,0-6,2.686-6,6v131.609
		c0,3.313,2.687,6,6,6h141.74c1.137,0,2.251-0.324,3.211-0.932l33.043-20.939c2.27-1.438,3.306-4.209,2.537-6.785l-10.703-35.847
		l88.585-205.587c1.311-3.043-0.093-6.573-3.137-7.885c-3.043-1.311-6.573,0.093-7.884,3.136l-82.912,192.423l-9.82-32.891
		l78.035-170.83c1.376-3.014,0.049-6.574-2.965-7.951c-3.017-1.377-6.574-0.05-7.951,2.964L950.74,453.028L948.784,446.475z
		 M941.293,573.801H807.294V454.191h131.27l30.464,102.033L941.293,573.801z"/>
	<path fill="#5A5B5B" d="M920.811,459.944H874.58c-3.313,0-6,2.687-6,6v48.054c0,3.313,2.687,6,6,6h60.618c0.007,0,0.013,0,0.02,0
		c3.313,0,6-2.687,6-6c0-0.774-0.146-1.514-0.414-2.193l-14.246-47.582C925.798,461.684,923.461,459.944,920.811,459.944z
		 M880.58,507.999v-36.054h35.764l10.794,36.054H880.58z"/>
	<path fill="#5A5B5B" d="M842.406,553.627c0,3.314,2.687,6,6,6h103.392c3.313,0,6-2.686,6-6c0-3.313-2.687-6-6-6H848.406
		C845.093,547.627,842.406,550.314,842.406,553.627z"/>
	<path fill="#5A5B5B" d="M829.568,547.627h-10.188c-3.313,0-6,2.688-6,6c0,3.314,2.687,6,6,6h10.188c3.313,0,6-2.686,6-6
		C835.568,550.314,832.882,547.627,829.568,547.627z"/>
	<path fill="#5A5B5B" d="M1044.153,300.828c4.909,3.091,10.56,4.725,16.34,4.725c10.633,0,20.356-5.365,26.011-14.349
		c9.024-14.332,4.709-33.333-9.619-42.355c-4.911-3.094-10.563-4.729-16.345-4.729c-10.628,0-20.35,5.364-26.007,14.348
		C1025.514,272.799,1029.828,291.801,1044.153,300.828z M1044.688,264.861c3.446-5.473,9.372-8.741,15.852-8.741
		c3.516,0,6.955,0.997,9.949,2.883c8.729,5.497,11.358,17.074,5.859,25.809c-3.444,5.474-9.372,8.742-15.855,8.742
		c-3.515,0-6.954-0.996-9.944-2.878C1041.82,285.174,1039.192,273.594,1044.688,264.861z"/>
	<path fill="#5A5B5B" d="M1096.816,271.494l168.626,50.676c0.575,0.173,1.157,0.255,1.729,0.255c2.58,0,4.964-1.677,5.744-4.274
		c0.954-3.174-0.846-6.52-4.02-7.473l-168.626-50.676c-3.172-0.955-6.52,0.846-7.473,4.019
		C1091.843,267.194,1093.643,270.54,1096.816,271.494z"/>
	<path fill="#5A5B5B" d="M1322.589,349.786c-8.327-16.616-22.626-28.994-40.262-34.856c-1.511-0.501-3.157-0.383-4.581,0.33
		c-1.422,0.713-2.504,1.962-3.005,3.472l-14.341,43.156l-10.655-23.179c-0.72-1.566-2.078-2.747-3.729-3.242l-152.128-45.586
		c-3.18-0.951-6.52,0.851-7.47,4.025c-0.951,3.174,0.851,6.519,4.024,7.47l149.531,44.808l14.884,32.378l-7.817,23.524
		c-1.046,3.145,0.656,6.541,3.801,7.586c3.146,1.042,6.541-0.656,7.586-3.802l25.712-77.369
		c12.017,5.416,21.734,14.715,27.722,26.662c6.893,13.751,8.016,29.36,3.163,43.954c-4.848,14.594-15.091,26.427-28.841,33.319
		c-13.752,6.894-29.363,8.018-43.956,3.168c-3.142-1.044-6.541,0.656-7.586,3.802c-1.046,3.145,0.656,6.541,3.801,7.586
		c7.211,2.396,14.623,3.585,22.006,3.585c10.677,0,21.289-2.488,31.112-7.413c16.616-8.329,28.993-22.628,34.852-40.263
		C1332.276,385.267,1330.918,366.403,1322.589,349.786z"/>
	<path fill="#5A5B5B" d="M1239.683,426.6c4.704,1.944,10.36,2.414,10.989,2.461c0.153,0.011,0.305,0.017,0.456,0.017
		c3.109,0,5.74-2.4,5.977-5.552c0.248-3.304-2.23-6.184-5.534-6.432c-1.1-0.082-4.801-0.551-7.306-1.585
		c-3.06-1.264-6.571,0.191-7.836,3.254C1235.163,421.826,1236.62,425.334,1239.683,426.6z"/>
</g>
</svg>
