<?xml version="1.0" encoding="utf-8"?>
<!-- Generator: Adobe Illustrator 15.1.0, SVG Export Plug-In . SVG Version: 6.00 Build 0)  -->
<!DOCTYPE svg PUBLIC "-//W3C//DTD SVG 1.1//EN" "http://www.w3.org/Graphics/SVG/1.1/DTD/svg11.dtd">
<svg version="1.1" id="Layer_1" xmlns="http://www.w3.org/2000/svg" xmlns:xlink="http://www.w3.org/1999/xlink" x="0px" y="0px"
	 width="750px" height="750px" viewBox="585 165 750 750" enable-background="new 585 165 750 750" xml:space="preserve">
<g>
	<path fill="#5A5B5B" d="M1087.314,654.572c-0.972-2.146-3.109-3.525-5.466-3.525h-248.35c-2.356,0-4.494,1.379-5.466,3.525
		l-31.049,68.584c-0.352,0.777-0.534,1.621-0.534,2.475c0,20.422,16.62,37.037,37.049,37.037c12.988,0,24.428-6.724,31.043-16.865
		c6.615,10.142,18.055,16.865,31.043,16.865c12.986,0,24.424-6.724,31.039-16.866c6.617,10.143,18.061,16.866,31.053,16.866
		c12.985,0,24.424-6.724,31.038-16.866c6.615,10.143,18.055,16.866,31.042,16.866c12.99,0,24.433-6.724,31.048-16.866
		c6.615,10.143,18.056,16.866,31.044,16.866c20.433,0,37.056-16.615,37.056-37.037c0-0.854-0.183-1.697-0.534-2.475
		L1087.314,654.572z M1081.849,750.668c-13.809,0-25.043-11.231-25.043-25.037c0-0.2-0.011-0.4-0.03-0.599
		c-0.014-0.141-0.038-0.278-0.063-0.416c-0.009-0.056-0.014-0.111-0.025-0.166c-0.033-0.167-0.076-0.33-0.123-0.491
		c-0.008-0.026-0.012-0.054-0.021-0.08c-0.052-0.171-0.113-0.337-0.18-0.501c-0.007-0.017-0.012-0.035-0.019-0.052l-0.003-0.007
		c-0.006-0.015-0.012-0.028-0.018-0.042l-10.978-26.389c-1.273-3.06-4.783-4.507-7.845-3.235c-3.06,1.273-4.508,4.785-3.235,7.845
		l10.513,25.27c-0.597,13.28-11.593,23.9-25.023,23.9c-13.809,0-25.043-11.231-25.043-25.037c0-0.171-0.007-0.342-0.021-0.513
		l-2.268-26.438c-0.284-3.302-3.208-5.751-6.491-5.466c-3.302,0.283-5.748,3.189-5.466,6.491l2.241,26.122
		c-0.107,13.715-11.293,24.84-25.032,24.84c-13.695,0-24.858-11.037-25.052-24.677l3.318-26.039
		c0.419-3.287-1.906-6.292-5.193-6.711c-3.278-0.409-6.291,1.906-6.71,5.193l-3.369,26.438c-0.002,0.019-0.001,0.036-0.003,0.055
		c-0.027,0.231-0.045,0.466-0.045,0.704c0,13.806-11.231,25.037-25.037,25.037c-13.44,0-24.442-10.64-25.019-23.938l10.156-25.302
		c1.234-3.075-0.258-6.569-3.333-7.804c-3.077-1.234-6.569,0.259-7.803,3.333l-10.57,26.335c-0.001,0.003-0.003,0.006-0.004,0.009
		l-0.038,0.094c-0.006,0.015-0.008,0.031-0.014,0.046c-0.13,0.332-0.235,0.678-0.305,1.036c-0.003,0.018-0.005,0.035-0.008,0.054
		c-0.066,0.356-0.105,0.724-0.105,1.1c0,13.806-11.234,25.037-25.043,25.037c-13.4,0-24.376-10.571-25.019-23.808l28.889-63.813
		h240.61l28.895,63.813C1106.231,740.097,1095.252,750.668,1081.849,750.668z"/>
	<path fill="#5A5B5B" d="M879.987,836.853c3.313,0,6-2.687,6-6v-50.981c0-3.313-2.687-6-6-6h-56.443c-3.313,0-6,2.687-6,6v50.981
		c0,3.313,2.687,6,6,6H879.987z M829.544,785.871h44.443v38.981h-44.443V785.871z"/>
	<path fill="#5A5B5B" d="M887.979,844.242h-72.421c-3.313,0-6,2.687-6,6s2.687,6,6,6h72.421c3.313,0,6-2.687,6-6
		S891.292,844.242,887.979,844.242z"/>
	<path fill="#5A5B5B" d="M985.895,836.853c3.313,0,6-2.687,6-6v-50.981c0-3.313-2.687-6-6-6h-56.448c-3.314,0-6,2.687-6,6v50.981
		c0,3.313,2.686,6,6,6H985.895z M935.446,785.871h44.448v38.981h-44.448V785.871z"/>
	<path fill="#5A5B5B" d="M993.882,844.242H921.46c-3.313,0-6,2.687-6,6s2.687,6,6,6h72.422c3.313,0,6-2.687,6-6
		S997.195,844.242,993.882,844.242z"/>
	<path fill="#5A5B5B" d="M1091.797,836.853c3.313,0,6-2.687,6-6v-50.981c0-3.313-2.687-6-6-6h-56.443c-3.313,0-6,2.687-6,6v50.981
		c0,3.313,2.687,6,6,6H1091.797z M1041.354,785.871h44.443v38.981h-44.443V785.871z"/>
	<path fill="#5A5B5B" d="M1099.784,844.242h-72.422c-3.313,0-6,2.687-6,6s2.687,6,6,6h72.422c3.313,0,6-2.687,6-6
		S1103.098,844.242,1099.784,844.242z"/>
	<path fill="#5A5B5B" d="M879.987,610.927c3.313,0,6-2.687,6-6v-50.981c0-3.313-2.687-6-6-6h-56.443c-3.313,0-6,2.687-6,6v50.981
		c0,3.313,2.687,6,6,6H879.987z M829.544,559.945h44.443v38.981h-44.443V559.945z"/>
	<path fill="#5A5B5B" d="M809.558,624.322c0,3.313,2.687,6,6,6h72.421c3.313,0,6-2.687,6-6s-2.687-6-6-6h-72.421
		C812.244,618.322,809.558,621.009,809.558,624.322z"/>
	<path fill="#5A5B5B" d="M985.895,610.927c3.313,0,6-2.687,6-6v-50.981c0-3.313-2.687-6-6-6h-56.448c-3.314,0-6,2.687-6,6v50.981
		c0,3.313,2.686,6,6,6H985.895z M935.446,559.945h44.448v38.981h-44.448V559.945z"/>
	<path fill="#5A5B5B" d="M915.46,624.322c0,3.313,2.687,6,6,6h72.422c3.313,0,6-2.687,6-6s-2.687-6-6-6H921.46
		C918.146,618.322,915.46,621.009,915.46,624.322z"/>
	<path fill="#5A5B5B" d="M1091.797,610.927c3.313,0,6-2.687,6-6v-50.981c0-3.313-2.687-6-6-6h-56.443c-3.313,0-6,2.687-6,6v50.981
		c0,3.313,2.687,6,6,6H1091.797z M1041.354,559.945h44.443v38.981h-44.443V559.945z"/>
	<path fill="#5A5B5B" d="M1021.362,624.322c0,3.313,2.687,6,6,6h72.422c3.313,0,6-2.687,6-6s-2.687-6-6-6h-72.422
		C1024.049,618.322,1021.362,621.009,1021.362,624.322z"/>
	<path fill="#5A5B5B" d="M1165.579,499.523H754.421c-3.314,0-6,2.686-6,6v23.864c0,3.314,2.686,6,6,6h27.709v347.737
		c0,3.313,2.687,6,6,6c3.314,0,6-2.687,6-6V535.389h326.537v347.736c0,3.313,2.687,6,6,6s6-2.687,6-6V535.388h32.912
		c3.313,0,6-2.686,6-6v-23.864C1171.579,502.209,1168.893,499.523,1165.579,499.523z M1159.579,523.388H760.421v-11.864h399.158
		V523.388z"/>
	<path fill="#5A5B5B" d="M822.506,462.902H929.58c23.744,0,43.061-19.319,43.061-43.066c0-3.313-2.687-6-6-6s-6,2.687-6,6
		c0,17.13-13.934,31.066-31.061,31.066H822.506c-17.129,0-31.065-13.937-31.065-31.066c0-17.127,13.936-31.061,31.065-31.061
		c1.109,0,2.316,0.085,3.768,0.261c0.882,0.176,9.653,2.192,12.388,12.834c0.696,2.708,3.134,4.508,5.807,4.508
		c0.495,0,0.997-0.062,1.498-0.19c3.209-0.825,5.143-4.095,4.318-7.305c-2.738-10.653-9.28-16.167-14.555-18.967
		c8.408-13.237,23.111-21.504,39.02-21.504c18.235,0,34.818,10.794,42.247,27.499c1.346,3.028,4.892,4.389,7.92,3.044
		c3.028-1.347,4.391-4.893,3.044-7.92c-9.354-21.032-30.241-34.623-53.212-34.623c-21.338,0-40.957,11.793-51.106,30.381
		c-0.384-0.012-0.762-0.018-1.137-0.018c-23.747,0-43.065,19.317-43.065,43.061C779.44,443.583,798.759,462.902,822.506,462.902z"/>
	<path fill="#5A5B5B" d="M986.363,324.55c-0.384-0.012-0.762-0.018-1.137-0.018c-23.746,0-43.065,19.317-43.065,43.061
		c0,23.747,19.319,43.066,43.065,43.066h107.074c23.744,0,43.062-19.319,43.062-43.066c0-3.313-2.687-6-6-6s-6,2.687-6,6
		c0,17.13-13.935,31.066-31.062,31.066H985.227c-17.13,0-31.065-13.937-31.065-31.066c0-17.127,13.936-31.061,31.065-31.061
		c1.113,0,2.319,0.085,3.769,0.262c0.881,0.176,9.652,2.191,12.388,12.833c0.696,2.708,3.134,4.508,5.808,4.508
		c0.494,0,0.997-0.062,1.498-0.19c3.209-0.825,5.142-4.095,4.317-7.305c-2.739-10.653-9.281-16.167-14.556-18.966
		c8.407-13.238,23.111-21.505,39.02-21.505c18.234,0,34.818,10.794,42.248,27.5c1.346,3.028,4.894,4.389,7.921,3.043
		c3.027-1.346,4.391-4.893,3.044-7.92c-9.355-21.033-30.242-34.623-53.213-34.623C1016.132,294.169,996.514,305.962,986.363,324.55z
		"/>
	<path fill="#5A5B5B" d="M869.396,269.251c-17.296,19.926-25.796,45.394-23.935,71.713c0.224,3.162,2.858,5.577,5.979,5.577
		c0.143,0,0.286-0.005,0.43-0.016c3.306-0.233,5.795-3.103,5.562-6.408c-1.635-23.122,5.832-45.496,21.027-63.001
		c15.196-17.506,36.3-28.046,59.426-29.679c30.802-2.173,60.695,12.377,78.028,37.979c1.857,2.743,5.586,3.462,8.333,1.604
		c2.743-1.857,3.462-5.588,1.604-8.332c-19.727-29.137-53.756-45.699-88.811-43.221
		C910.716,237.326,886.693,249.324,869.396,269.251z"/>
	<path fill="#5A5B5B" d="M814.024,327.323l21.176,2.262c0.217,0.023,0.432,0.034,0.645,0.034c3.028,0,5.63-2.285,5.959-5.363
		c0.352-3.295-2.034-6.251-5.329-6.603l-21.176-2.262c-3.303-0.355-6.251,2.034-6.604,5.329
		C808.343,324.015,810.729,326.972,814.024,327.323z"/>
	<path fill="#5A5B5B" d="M822.65,273.644l21.176,10.178c0.838,0.403,1.723,0.594,2.595,0.594c2.234,0,4.379-1.254,5.412-3.402
		c1.436-2.986,0.178-6.571-2.809-8.007l-21.176-10.178c-2.986-1.437-6.571-0.178-8.007,2.809
		C818.406,268.623,819.663,272.208,822.65,273.644z"/>
	<path fill="#5A5B5B" d="M873.965,246.086c1.186,1.343,2.839,2.029,4.501,2.029c1.411,0,2.827-0.495,3.968-1.501
		c2.484-2.193,2.721-5.985,0.528-8.469l-16.793-19.025c-2.192-2.483-5.984-2.72-8.469-0.528c-2.484,2.193-2.721,5.985-0.528,8.469
		L873.965,246.086z"/>
	<path fill="#5A5B5B" d="M924.323,224.35c0.604,2.815,3.092,4.742,5.86,4.742c0.417,0,0.841-0.044,1.266-0.135
		c3.24-0.696,5.302-3.886,4.606-7.126l-5.629-26.215c-0.695-3.239-3.885-5.304-7.126-4.606c-3.24,0.696-5.302,3.886-4.606,7.126
		L924.323,224.35z"/>
	<path fill="#5A5B5B" d="M986.38,238.245c0.701,0.266,1.42,0.392,2.128,0.392c2.421,0,4.701-1.476,5.61-3.873l8.595-22.653
		c1.176-3.098-0.383-6.563-3.481-7.738c-3.092-1.172-6.563,0.383-7.737,3.481l-8.595,22.653
		C981.724,233.604,983.282,237.069,986.38,238.245z"/>
	<path fill="#5A5B5B" d="M1028.416,268.144c1.206,0,2.425-0.363,3.481-1.117l20.735-14.801c2.696-1.925,3.322-5.672,1.397-8.369
		c-1.925-2.698-5.673-3.322-8.37-1.397l-20.735,14.801c-2.696,1.925-3.322,5.672-1.397,8.369
		C1024.698,267.27,1026.544,268.144,1028.416,268.144z"/>
</g>
</svg>
