<?xml version="1.0" encoding="utf-8"?>
<!-- Generator: Adobe Illustrator 15.1.0, SVG Export Plug-In . SVG Version: 6.00 Build 0)  -->
<!DOCTYPE svg PUBLIC "-//W3C//DTD SVG 1.1//EN" "http://www.w3.org/Graphics/SVG/1.1/DTD/svg11.dtd">
<svg version="1.1" id="Layer_1" xmlns="http://www.w3.org/2000/svg" xmlns:xlink="http://www.w3.org/1999/xlink" x="0px" y="0px"
	 width="750px" height="750px" viewBox="0 0 750 750" enable-background="new 0 0 750 750" xml:space="preserve">
<g>
	<path fill="#5A5B5B" d="M438.302,415.503c-0.209-0.225-0.403-0.45-0.6-0.677l-0.393-0.447c-0.129-0.146-0.255-0.295-0.382-0.444
		c-0.243-0.288-0.488-0.574-0.742-0.854c-6.273-7.896-6.352-15.695-5.801-19.757c0.146-0.685,0.27-1.371,0.391-2.052
		c0.041-0.154,0.068-0.251,0.073-0.265c0.126-0.438,0.188-0.882,0.19-1.324c4.614-29.383-13.121-58.202-41.528-67.26
		c-5.994-1.909-12.194-2.877-18.428-2.877c-22.92,0-44.166,13.205-54.355,33.709c-0.245,0.351-0.446,0.734-0.597,1.144
		c-0.021,0.055-0.091,0.236-0.176,0.431c-0.073,0.158-0.149,0.311-0.226,0.463c-0.134,0.271-0.266,0.54-0.391,0.817
		c-1.611,3.166-6.299,10.61-16.048,14.044c-1.581,0.36-3.178,0.792-4.752,1.284c-0.052,0.013-0.105,0.026-0.161,0.04
		c-0.426,0.087-0.83,0.229-1.205,0.416c-18.2,6.222-32.484,20.755-38.293,39.01c-10.173,31.918,7.521,66.167,39.442,76.345
		l79.009,25.177c6.001,1.911,12.21,2.88,18.455,2.881c0.002,0,0.003,0,0.005,0c26.55,0,49.813-17.01,57.885-42.328
		c6.182-19.396,2.275-40.403-10.44-56.351C438.981,416.208,438.665,415.83,438.302,415.503z"/>
	<path fill="#5A5B5B" d="M286.301,358.927c0.001,0,0.002,0,0.002,0c0.265,0,0.528-0.005,0.79-0.014
		c7.951-0.277,15.17-4.672,20.327-12.375c4.817-7.196,7.281-16.538,6.938-26.304c-0.724-20.58-13.515-36.701-29.121-36.701
		c-0.265,0-0.529,0.005-0.793,0.014c-15.758,0.555-27.992,17.908-27.272,38.685C257.901,342.807,270.696,358.926,286.301,358.927z"
		/>
	<path fill="#5A5B5B" d="M352.156,313.966c1.414,0.225,2.857,0.338,4.29,0.339c0.002,0,0.001,0,0.004,0
		c17.625,0,33.627-17.088,37.22-39.747c1.859-11.714,0.21-23.323-4.645-32.69c-5.115-9.871-13.149-16.133-22.622-17.632
		c-1.414-0.224-2.856-0.337-4.287-0.337c-17.627,0-33.633,17.083-37.229,39.736c-1.859,11.716-0.21,23.328,4.645,32.695
		C334.646,306.201,342.682,312.465,352.156,313.966z"/>
	<path fill="#5A5B5B" d="M506.601,375.463c-0.489-9.019-4.38-16.413-10.956-20.818c-3.879-2.599-8.527-3.972-13.443-3.972
		c-11.307,0-23.027,7.02-30.588,18.316c-5.271,7.863-7.919,16.867-7.459,25.356c0.489,9.02,4.379,16.413,10.956,20.821
		c3.879,2.596,8.528,3.967,13.443,3.968c0.001,0,0.001,0,0.002,0c11.309,0,23.029-7.017,30.583-18.308
		C504.411,392.959,507.062,383.951,506.601,375.463z"/>
	<path fill="#5A5B5B" d="M427.724,336.233c4.289,2.389,9.043,3.6,14.131,3.6c0.001,0,0.001,0,0.002,0
		c14.406,0,29.201-9.866,37.69-25.134c11.778-21.204,7.709-46.04-9.07-55.363c-4.287-2.384-9.039-3.592-14.123-3.592
		c-14.409,0-29.204,9.863-37.692,25.128c-5.589,10.059-7.839,21.244-6.336,31.496C413.902,323.117,419.371,331.594,427.724,336.233z
		"/>
	<path fill="#5A5B5B" d="M375,182.016c-106.411,0-192.983,86.572-192.983,192.983c0,106.411,86.572,192.983,192.983,192.983
		S567.984,481.411,567.984,375C567.984,268.588,481.411,182.016,375,182.016z M375,557.983
		c-100.897,0-182.983-82.086-182.983-182.983S274.103,192.016,375,192.016S557.984,274.102,557.984,375S475.898,557.983,375,557.983
		z"/>
	<path fill="#5A5B5B" d="M529.794,220.206c-41.348-41.347-96.32-64.118-154.794-64.118s-113.446,22.771-154.794,64.118
		c-41.347,41.347-64.117,96.32-64.117,154.793c0,58.474,22.771,113.446,64.117,154.794c41.348,41.347,96.32,64.117,154.794,64.117
		s113.446-22.771,154.794-64.117c41.347-41.348,64.117-96.32,64.117-154.794C593.911,316.527,571.141,261.553,529.794,220.206z
		 M375,583.911c-115.194,0-208.911-93.717-208.911-208.911c0-115.194,93.717-208.911,208.911-208.911S583.911,259.806,583.911,375
		C583.911,490.194,490.195,583.911,375,583.911z"/>
</g>
</svg>
