<?xml version="1.0" encoding="utf-8"?>
<!-- Generator: Adobe Illustrator 18.0.0, SVG Export Plug-In . SVG Version: 6.00 Build 0)  -->
<!DOCTYPE svg PUBLIC "-//W3C//DTD SVG 1.1//EN" "http://www.w3.org/Graphics/SVG/1.1/DTD/svg11.dtd">
<svg version="1.1" id="Layer_1" xmlns="http://www.w3.org/2000/svg" xmlns:xlink="http://www.w3.org/1999/xlink" x="0px" y="0px"
	 viewBox="0 0 595.3 595.3" enable-background="new 0 0 595.3 595.3" xml:space="preserve">
<g>
	<path fill="#5B5B5B" d="M295.9,265.3c-13.9,0-24.8,10.9-24.8,24.8c0,13.9,10.9,24.8,24.8,24.8c13.9,0,24.8-10.9,24.8-24.8
		C320.7,276.1,309.8,265.3,295.9,265.3z"/>
	<path fill="#5B5B5B" d="M295.9,360.9c-13.9,0-24.8,10.9-24.8,24.8c0,13.9,10.9,24.8,24.8,24.8c13.9,0,24.8-10.9,24.8-24.8
		C320.7,371.8,309.8,360.9,295.9,360.9z"/>
	<path fill="#5B5B5B" d="M363.8,302.4l32.9-32.4c4.3-4.3,1.3-12-5.1-12h-23.1c-3.4,0-6.4-3-6.4-6.4v-39.7c0-1.7,0.9-3.4,1.7-4.3
		l32.4-32.4c4.3-4.3,1.3-12-5.1-12h-22.6c-3.4,0-6.4-3-6.4-6.4v-22.6c0-4.7-3.8-8.5-8.5-8.5H237.8c-4.7,0-8.5,3.8-8.5,8.5v22.6
		c0,3.4-3,6.4-6.4,6.4h-23.5c-6.4,0-9.4,7.7-5.1,12l32.4,32.4c1.3,1.3,1.7,2.6,1.7,4.3v39.7c0,3.4-3,6.4-6.4,6.4h-23.5
		c-6.4,0-9.4,7.7-5.1,12l32.4,32.4c1.3,1.3,1.7,2.6,1.7,4.3v39.7c0,3.4-3,6.4-6.4,6.4h-23.5c-6.4,0-9.4,7.7-5.1,12l32.4,32.4
		c1.3,1.3,1.7,2.6,1.7,4.3V439c0,4.7,3.8,8.5,8.5,8.5h116.1c4.7,0,8.5-3.8,8.5-8.5v-37.6c0-1.7,0.9-3.4,1.7-4.3l32.4-32.4
		c4.3-4.3,1.3-12-5.1-12h-20.5c-3.4,0-6.4-3-6.4-6.4v-39.7C362.1,305,362.9,303.3,363.8,302.4z M295.9,423.3
		c-20.9,0-37.6-16.6-37.6-37.6c0-20.9,16.6-37.6,37.6-37.6s37.6,16.6,37.6,37.6C333.5,406.6,316.8,423.3,295.9,423.3z M295.9,327.6
		c-20.9,0-37.6-16.6-37.6-37.6c0-20.9,16.6-37.6,37.6-37.6s37.6,16.6,37.6,37.6C333.5,311,316.8,327.6,295.9,327.6z M295.9,236.8
		c-23.6,0-42.4-18.8-42.4-42.4c0-23.6,18.8-42.4,42.4-42.4c23.6,0,42.4,18.8,42.4,42.4C338.3,218,319.5,236.8,295.9,236.8z"/>
</g>
</svg>
