<svg xmlns="http://www.w3.org/2000/svg" width="750" height="750" viewBox="0 0 750 750"><g fill="#5A5B5B"><path d="M138.064 275.388h-14.286l-42.2 48.903 2.75 11.98h37.582v16.594h16.154V336.27h10.33v-13.737h-10.33v-47.145zm-16.154 47.144h-20.44l20.44-23.957v23.957zM161.356 272.64v80.223h16.704V334.95l5.825-6.154 15.385 24.067h19.12l-23.187-35.715 22.42-23.188H197.62l-19.56 21.43v-42.75"/><path d="M261.92 292.24c0-59.288-48.238-107.523-107.53-107.523S46.86 232.952 46.86 292.24c0 59.295 48.238 107.535 107.53 107.535s107.53-48.24 107.53-107.534zm-205.06 0c0-53.774 43.752-97.523 97.53-97.523s97.53 43.75 97.53 97.524c0 53.782-43.752 97.535-97.53 97.535s-97.53-43.753-97.53-97.534z"/><path d="M159.85 255.532v-16.397h16.395v-10.927H159.85V211.81h-10.93v16.398h-16.386v10.927h16.387v16.397M702.437 444.77l-38.1-98.726c-1.12-2.91-3.497-5.166-6.46-6.123l-226.93-74.496c-2.09-.68-4.39-.68-6.475 0l-145.35 47.706c-28.385 108.354-114.69 101.968-114.69 101.968l-11.45 29.673c-1.66 4.293-.297 9.156 3.326 11.97l59.19 45.73v24.283c0 .244-.02.46-.02.713v2.896h57.46s83.74 34.922 154.746 34.922c71.025 0 162.856-36.675 162.856-36.675h49.35v-26.14l59.22-45.732c3.64-2.812 4.987-7.676 3.327-11.968zM394.33 350.864l31.285 6.484c1.382.298 2.813.298 4.194 0l31.293-6.484v38.13c0 11.738-20.322 25.508-33.418 32.227-14.785-7.528-33.354-21.415-33.354-32.226v-38.13zm224.313 146.128c-33.457-28.9-104.487-47.998-190.942-47.998-86.85 0-158.13 19.282-191.376 48.408l.47-18.354c0-.044-.025-.083-.025-.132 0-.044.023-.083.023-.127 0-26.886 59.126-56.31 148.164-63.678 13.628 15.557 35.078 25.59 38.53 27.13 1.343.614 2.783.912 4.214.912 1.47 0 2.906-.298 4.25-.913 3.45-1.537 24.9-11.57 38.52-27.128 89.033 7.383 148.174 36.792 148.174 63.677v18.202z"/></g></svg>