<?xml version="1.0" encoding="utf-8"?>
<!-- Generator: Adobe Illustrator 15.1.0, SVG Export Plug-In . SVG Version: 6.00 Build 0)  -->
<!DOCTYPE svg PUBLIC "-//W3C//DTD SVG 1.1//EN" "http://www.w3.org/Graphics/SVG/1.1/DTD/svg11.dtd">
<svg version="1.1" id="Layer_1" xmlns="http://www.w3.org/2000/svg" xmlns:xlink="http://www.w3.org/1999/xlink" x="0px" y="0px"
	 width="750px" height="750px" viewBox="585 165 750 750" enable-background="new 585 165 750 750" xml:space="preserve">
<g>
	<path fill="#5A5B5B" d="M931.32,366.769c-55.977,0-101.518,45.541-101.518,101.518c0,53.925,92.556,196.126,96.496,202.153
		c1.108,1.695,2.997,2.717,5.022,2.717s3.914-1.021,5.022-2.717c3.94-6.027,96.497-148.228,96.497-202.153
		C1032.839,412.31,987.298,366.769,931.32,366.769z M931.32,656.037c-19.567-30.849-89.518-144.189-89.518-187.75
		c0-49.36,40.158-89.518,89.518-89.518s89.519,40.158,89.519,89.518C1020.839,511.84,950.881,625.195,931.32,656.037z"/>
	<path fill="#5A5B5B" d="M931.32,405.205c-34.286,0-62.179,27.896-62.179,62.184c0,34.286,27.893,62.179,62.179,62.179
		c34.285,0,62.179-27.893,62.179-62.179C993.499,433.101,965.605,405.205,931.32,405.205z M931.32,517.567
		c-27.668,0-50.179-22.51-50.179-50.179c0-27.671,22.51-50.184,50.179-50.184s50.179,22.512,50.179,50.184
		C981.499,495.057,958.989,517.567,931.32,517.567z"/>
	<path fill="#5A5B5B" d="M735.381,518.188c-3.314,0-6,2.687-6,6v35.514c0,3.313,2.686,6,6,6h35.5c3.313,0,6-2.687,6-6v-35.514
		c0-3.313-2.687-6-6-6H735.381z M764.881,553.702h-23.5v-23.514h23.5V553.702z"/>
	<path fill="#5A5B5B" d="M903.279,671.231H776.882v-76.033c0-3.313-2.686-6-6-6h-35.5c-3.313,0-6,2.687-6,6v76.034h-130.01V494.685
		h201.01v65.018c0,3.313,2.687,6,6,6h39.264c3.313,0,6-2.687,6-6s-2.687-6-6-6h-33.264v-65.018c0-3.313-2.686-6-6-6h-213.01
		c-3.313,0-6,2.687-6,6v188.548c0,3.313,2.687,6,6,6h142.01c3.314,0,6-2.687,6-6v-76.034h23.5v76.033c0,3.313,2.687,6,6,6h132.397
		c3.313,0,6-2.687,6-6S906.592,671.231,903.279,671.231z"/>
	<path fill="#5A5B5B" d="M664.377,589.198h-35.5c-3.313,0-6,2.687-6,6v35.504c0,3.313,2.687,6,6,6h35.5c3.313,0,6-2.687,6-6v-35.504
		C670.377,591.885,667.69,589.198,664.377,589.198z M658.377,624.702h-23.5v-23.504h23.5V624.702z"/>
	<path fill="#5A5B5B" d="M670.377,524.188c0-3.313-2.687-6-6-6h-35.5c-3.313,0-6,2.687-6,6v35.514c0,3.313,2.687,6,6,6h35.5
		c3.313,0,6-2.687,6-6V524.188z M658.377,553.702h-23.5v-23.514h23.5V553.702z"/>
	<path fill="#5A5B5B" d="M1261.358,645.053c0,3.313,2.687,6,6,6h35.505c3.313,0,6-2.687,6-6v-68.76c0-3.313-2.687-6-6-6h-35.505
		c-3.313,0-6,2.687-6,6V645.053z M1273.358,582.293h23.505v56.76h-23.505V582.293z"/>
	<path fill="#5A5B5B" d="M1144.998,559.088h35.504c3.313,0,6-2.687,6-6v-68.761c0-3.314-2.687-6-6-6h-35.504c-3.313,0-6,2.686-6,6
		v68.761C1138.998,556.401,1141.685,559.088,1144.998,559.088z M1150.998,490.327h23.504v56.761h-23.504V490.327z"/>
	<path fill="#5A5B5B" d="M1083.822,559.088h35.504c3.313,0,6-2.687,6-6v-68.761c0-3.314-2.687-6-6-6h-35.504c-3.313,0-6,2.686-6,6
		v68.761C1077.822,556.401,1080.509,559.088,1083.822,559.088z M1089.822,490.327h23.504v56.761h-23.504V490.327z"/>
	<path fill="#5A5B5B" d="M1328.629,453.955h-282.607c-3.313,0-6,2.687-6,6s2.687,6,6,6h276.607v205.277h-272.038v-76.033
		c0-3.313-2.687-6-6-6h-35.505c-3.313,0-6,2.687-6,6v76.033h-38.199c-3.313,0-6,2.687-6,6s2.687,6,6,6h44.199c3.313,0,6-2.687,6-6
		v-76.033h23.505v76.033c0,3.313,2.687,6,6,6h284.038c3.313,0,6-2.687,6-6V459.955
		C1334.629,456.641,1331.942,453.955,1328.629,453.955z"/>
	<path fill="#5A5B5B" d="M1267.358,559.088h35.505c3.313,0,6-2.687,6-6v-68.761c0-3.314-2.687-6-6-6h-35.505c-3.313,0-6,2.686-6,6
		v68.761C1261.358,556.401,1264.045,559.088,1267.358,559.088z M1273.358,490.327h23.505v56.761h-23.505V490.327z"/>
	<path fill="#5A5B5B" d="M1138.998,645.053c0,3.313,2.687,6,6,6h35.504c3.313,0,6-2.687,6-6v-68.76c0-3.313-2.687-6-6-6h-35.504
		c-3.313,0-6,2.687-6,6V645.053z M1150.998,582.293h23.504v56.76h-23.504V582.293z"/>
	<path fill="#5A5B5B" d="M1077.822,645.053c0,3.313,2.687,6,6,6h35.504c3.313,0,6-2.687,6-6v-68.76c0-3.313-2.687-6-6-6h-35.504
		c-3.313,0-6,2.687-6,6V645.053z M1089.822,582.293h23.504v56.76h-23.504V582.293z"/>
	<path fill="#5A5B5B" d="M1200.183,645.053c0,3.313,2.687,6,6,6h35.5c3.313,0,6-2.687,6-6v-68.76c0-3.313-2.687-6-6-6h-35.5
		c-3.313,0-6,2.687-6,6V645.053z M1212.183,582.293h23.5v56.76h-23.5V582.293z"/>
	<path fill="#5A5B5B" d="M1206.183,559.088h35.5c3.313,0,6-2.687,6-6v-68.761c0-3.314-2.687-6-6-6h-35.5c-3.313,0-6,2.686-6,6
		v68.761C1200.183,556.401,1202.869,559.088,1206.183,559.088z M1212.183,490.327h23.5v56.761h-23.5V490.327z"/>
	<path fill="#5A5B5B" d="M1183.784,448.669c0.574,0,1.158-0.083,1.736-0.258l68.793-20.771l72.663,20.796
		c3.187,0.909,6.508-0.932,7.42-4.118c0.911-3.186-0.932-6.507-4.117-7.419l-74.36-21.281c-1.106-0.316-2.282-0.308-3.385,0.025
		l-70.482,21.281c-3.172,0.958-4.968,4.306-4.01,7.478C1178.825,446.997,1181.207,448.669,1183.784,448.669z"/>
</g>
</svg>
