<?xml version="1.0" encoding="utf-8"?>
<!-- Generator: Adobe Illustrator 15.1.0, SVG Export Plug-In . SVG Version: 6.00 Build 0)  -->
<!DOCTYPE svg PUBLIC "-//W3C//DTD SVG 1.1//EN" "http://www.w3.org/Graphics/SVG/1.1/DTD/svg11.dtd">
<svg version="1.1" id="Layer_1" xmlns="http://www.w3.org/2000/svg" xmlns:xlink="http://www.w3.org/1999/xlink" x="0px" y="0px" width="750px" height="750px"
	 viewBox="585 165 750 750" enable-background="new 585 165 750 750" xml:space="preserve">

	<g>
		<path fill="#5A5B5B" d="M800.104,489.207l-8.116-0.281c1.562-45.055,20.286-87.169,52.724-118.583
			c32.521-31.495,75.368-48.839,120.648-48.839c0.189,0,0.378,0.005,0.563,0.01l0.324,0.007v8.12c-0.184,0-0.365-0.005-0.55-0.01
			l-0.338-0.007C875.795,329.624,803.206,399.721,800.104,489.207z"/>
		<path fill="#5A5B5B" d="M935.773,870.254L935.773,870.254c0,13.165,10.683,23.846,23.854,23.846
			c13.188,0,23.861-10.681,23.861-23.846H935.773z"/>
		<path fill="none" stroke="#5A5B5B" stroke-width="6.9234" stroke-miterlimit="10" d="M1056.532,704.358"/>
		<path fill="none" stroke="#5A5B5B" stroke-width="6.9234" stroke-miterlimit="10" d="M862.729,704.358"/>
		<path fill="#5A5B5B" d="M982.418,420.399c0,12.102-9.802,21.903-21.887,21.903c-12.109,0-21.918-9.802-21.918-21.903
			c0-12.093,9.809-21.887,21.918-21.887C972.616,398.513,982.418,408.306,982.418,420.399"/>
		<path fill="#5A5B5B" d="M982.418,489.049c0,12.102-9.802,21.918-21.887,21.918c-12.109,0-21.918-9.817-21.918-21.918
			c0-12.077,9.809-21.895,21.918-21.895C972.616,467.155,982.418,476.973,982.418,489.049"/>
		<path fill="#5A5B5B" d="M1042.496,456.013c0,12.109-9.801,21.903-21.895,21.903c-12.102,0-21.92-9.793-21.92-21.903
			c0-12.085,9.818-21.887,21.92-21.887C1032.695,434.126,1042.496,443.928,1042.496,456.013"/>
		<path fill="#5A5B5B" d="M1042.496,524.679c0,12.093-9.801,21.903-21.895,21.903c-12.102,0-21.92-9.81-21.92-21.903
			s9.818-21.895,21.92-21.895C1032.695,502.784,1042.496,512.586,1042.496,524.679"/>
		<path fill="#5A5B5B" d="M878.543,456.013c0,12.109,9.809,21.903,21.91,21.903c12.093,0,21.903-9.793,21.903-21.903
			c0-12.085-9.81-21.887-21.903-21.887C888.352,434.126,878.543,443.928,878.543,456.013"/>
		<path fill="#5A5B5B" d="M878.543,524.679c0,12.093,9.809,21.903,21.91,21.903c12.093,0,21.903-9.81,21.903-21.903
			s-9.81-21.895-21.903-21.895C888.352,502.784,878.543,512.586,878.543,524.679"/>
		<rect x="962.188" y="185.9" fill="#5A5B5B" width="8.12" height="40.054"/>
		
			<rect x="1038.436" y="198.662" transform="matrix(0.953 0.303 -0.303 0.953 115.2845 -305.6253)" fill="#5A5B5B" width="8.121" height="40.041"/>
		
			<rect x="1111.702" y="231.18" transform="matrix(0.7999 0.6001 -0.6001 0.7999 373.9793 -619.3058)" fill="#5A5B5B" width="8.12" height="40.046"/>
		
			<rect x="869.986" y="214.623" transform="matrix(0.3028 0.953 -0.953 0.3028 828.9017 -695.7563)" fill="#5A5B5B" width="40.039" height="8.12"/>
		
			<rect x="796.719" y="247.143" transform="matrix(0.5999 0.8001 -0.8001 0.5999 527.7902 -552.9576)" fill="#5A5B5B" width="40.042" height="8.121"/>
		<path fill="#5A5B5B" d="M960,303.345c-102.56,0-185.999,83.438-185.999,185.999c0,29.848,7.268,59.53,21.028,85.909l0.01,0.694
			l0.759,0.761c2.766,5.184,5.779,10.247,8.962,15.058c29.011,50.726,47.905,93.312,57.969,118.034v42.713h193.803v-40.761
			c8.603-21.785,27.12-64.75,58.628-119.866c20.177-30.447,30.839-65.901,30.839-102.542
			C1145.999,386.783,1062.561,303.345,960,303.345z M924.08,700.298l21.319-126.761c3.935,3.76,9.257,6.081,15.133,6.081
			c5.704,0,10.884-2.202,14.779-5.781l21.635,126.461H924.08z M1108.318,587.508l-0.142,0.23
			c-29.757,52.04-48.055,93.413-57.43,116.62h-44.869l-24.162-141.23c0.442-1.736,0.702-3.545,0.702-5.42
			c0-12.077-9.802-21.887-21.887-21.887c-12.109,0-21.918,9.81-21.918,21.887c0,1.534,0.16,3.03,0.459,4.475l-23.911,142.176
			h-45.889c-10.411-25.33-29.198-67.216-57.53-116.741l-0.14-0.227c-3.174-4.79-6.174-9.845-8.916-15.023l-0.286-0.54l-0.002-0.003
			c-13.269-25.306-20.279-53.813-20.279-82.48c0-98.083,79.796-177.879,177.879-177.879c98.083,0,177.879,79.796,177.879,177.879
			C1137.879,524.428,1127.657,558.372,1108.318,587.508z"/>
		<path fill="#5A5B5B" d="M862.729,763.349v22.047c0,45.431,43.378,82.258,96.898,82.258c53.536,0,96.905-36.827,96.905-82.258
			v-22.047H862.729z"/>
	</g>


</svg>
