<?xml version="1.0" encoding="utf-8"?>
<!-- Generator: Adobe Illustrator 18.0.0, SVG Export Plug-In . SVG Version: 6.00 Build 0)  -->
<!DOCTYPE svg PUBLIC "-//W3C//DTD SVG 1.1//EN" "http://www.w3.org/Graphics/SVG/1.1/DTD/svg11.dtd">
<svg version="1.1" id="Layer_1" xmlns="http://www.w3.org/2000/svg" xmlns:xlink="http://www.w3.org/1999/xlink" x="0px" y="0px"
	 viewBox="0 0 1920 1080" enable-background="new 0 0 1920 1080" xml:space="preserve">
<g>
	<g>
		<g>
			<path fill="#5A5B5B" d="M539.1,773c-3.3,0-6-2.7-6-6V505.5c0-3.3,2.7-6,6-6c3.3,0,6,2.7,6,6v261.4
				C545.2,770.3,542.5,773,539.1,773z"/>
		</g>
		<g>
			<path fill="#5A5B5B" d="M1073.7,511.5c-0.9,0-1.8-0.2-2.6-0.6L748.7,356.5L482.9,510.7c-2.9,1.7-6.6,0.7-8.2-2.2
				c-1.7-2.9-0.7-6.6,2.2-8.2l268.6-155.8c1.7-1,3.8-1.1,5.6-0.2l325.3,155.8c3,1.4,4.3,5,2.8,8
				C1078.1,510.2,1076,511.5,1073.7,511.5z"/>
		</g>
		<g>
			<path fill="#5A5B5B" d="M977.4,774.8H807.2c-3.3,0-6-2.7-6-6V541.3H698.7v225.7c0,3.3-2.7,6-6,6h-128c-3.3,0-6-2.7-6-6
				c0-3.3,2.7-6,6-6h121.9V535.3c0-3.3,2.7-6,6-6h114.5c3.3,0,6,2.7,6,6v227.5h158.1V505.5c0-3.3,2.7-6,6-6s6,2.7,6,6v263.3
				C983.4,772.1,980.7,774.8,977.4,774.8z"/>
		</g>
	</g>
	<g>
		<g>
			<g>
				<g>
					<path fill="#FFFFFF" d="M646.3,440c0,71.1-57.7,128.8-128.8,128.8S388.8,511.1,388.8,440c0-71.1,57.7-128.8,128.8-128.8
						S646.3,368.9,646.3,440z"/>
				</g>
				<g>
					<path fill="#5A5B5B" d="M517.6,574.8c-74.3,0-134.8-60.5-134.8-134.8c0-74.3,60.5-134.8,134.8-134.8
						c74.3,0,134.8,60.5,134.8,134.8C652.4,514.3,591.9,574.8,517.6,574.8z M517.6,317.2c-67.7,0-122.8,55.1-122.8,122.8
						c0,67.7,55.1,122.8,122.8,122.8c67.7,0,122.8-55.1,122.8-122.8C640.3,372.3,585.2,317.2,517.6,317.2z"/>
				</g>
			</g>
		</g>
		<g>
			<g>
				<path fill="#5A5B5B" d="M447.7,479c-7,0-13-1.2-17.9-3.7c-4.9-2.5-9-5.8-12.4-9.8l11.8-11.2c2.7,3,5.5,5.3,8.4,6.9
					c2.9,1.6,6.4,2.4,10.4,2.4c3.3,0,5.9-0.8,7.9-2.5c2-1.7,3.1-4,3.1-6.9V454c0-3.2-1.3-5.6-4-7.3c-2.7-1.7-6.4-2.5-11.2-2.5h-7.1
					l-2.7-10.8l18.5-18.6H422V400h52.6v12.9l-19.8,18.8c2.7,0.4,5.2,1.1,7.7,2.1c2.5,1,4.7,2.3,6.7,4c2,1.7,3.6,3.8,4.7,6.4
					c1.2,2.6,1.8,5.6,1.8,9.3v0.2c0,3.7-0.7,7.1-2,10.2c-1.3,3.1-3.2,5.8-5.6,8c-2.4,2.3-5.4,4.1-8.9,5.3
					C455.9,478.4,452,479,447.7,479z"/>
			</g>
			<g>
				<path fill="#5A5B5B" d="M522.6,479c-5.2,0-9.9-1-14.2-3.1c-4.3-2-7.9-4.8-10.9-8.4c-3-3.6-5.3-7.8-6.9-12.7
					c-1.6-4.9-2.4-10.1-2.4-15.8v-0.2c0-5.6,0.8-10.9,2.5-15.8c1.7-4.9,4-9.1,7.1-12.8c3-3.6,6.7-6.5,10.9-8.5
					c4.3-2.1,9-3.1,14.2-3.1c5.1,0,9.8,1,14,3.1c4.3,2,7.9,4.8,10.9,8.4c3,3.6,5.3,7.8,7,12.7c1.7,4.9,2.5,10.1,2.5,15.8v0.2
					c0,5.6-0.8,10.9-2.5,15.8c-1.7,4.9-4,9.1-7.1,12.8c-3,3.6-6.7,6.5-10.9,8.5C532.5,478,527.7,479,522.6,479z M522.8,463.6
					c2.6,0,4.9-0.6,7-1.8c2.1-1.2,3.8-2.9,5.3-5.1c1.5-2.2,2.6-4.8,3.4-7.8c0.8-3,1.2-6.3,1.2-9.8v-0.2c0-3.6-0.4-6.8-1.2-9.8
					c-0.8-3-2-5.6-3.5-7.8c-1.5-2.2-3.3-4-5.4-5.2c-2.1-1.3-4.4-1.9-6.9-1.9c-2.6,0-4.9,0.6-7,1.8c-2.1,1.2-3.8,2.9-5.3,5.1
					c-1.4,2.2-2.6,4.8-3.4,7.8c-0.8,3-1.2,6.3-1.2,9.8v0.2c0,3.6,0.4,6.8,1.2,9.9c0.8,3,2,5.6,3.4,7.8c1.5,2.2,3.3,3.9,5.4,5.2
					C517.8,463,520.2,463.6,522.8,463.6z"/>
			</g>
			<g>
				<path fill="#5A5B5B" d="M570.7,396.7h16.9v43.2l19.8-21.7h20.2l-22.7,23.4l23.4,36.1h-19.3l-15.5-24.3l-5.9,6.2v18.1h-16.9
					V396.7z"/>
			</g>
		</g>
	</g>
	<g>
		<g>
			<path fill="#5A5B5B" d="M867,390.2c-2.1,0-4.1-1.1-5.2-3c-1.7-2.9-0.7-6.6,2.2-8.2l115.1-66.8c1.7-1,3.8-1.1,5.6-0.2l131.7,63
				c3,1.4,4.3,5,2.8,8c-1.4,3-5,4.3-8,2.8l-128.8-61.7l-112.3,65.2C869.1,389.9,868.1,390.2,867,390.2z"/>
		</g>
	</g>
	<g>
		<g>
			<path fill="#5A5B5B" d="M1531.2,518.2c-0.8,0-1.7-0.2-2.5-0.6L1217,374.5l-176.6,91.4c-2.9,1.5-6.6,0.4-8.1-2.6
				c-1.5-3-0.4-6.6,2.6-8.1l179.2-92.8c1.6-0.9,3.6-0.9,5.3-0.1l314.3,144.4c3,1.4,4.3,5,3,8
				C1535.7,516.9,1533.5,518.2,1531.2,518.2z"/>
		</g>
		<g>
			<path fill="#5A5B5B" d="M1447.2,774.8h-195.8c-3.3,0-6-2.7-6-6V541.3H1143v225.7c0,3.3-2.7,6-6,6h-126.4c-3.3,0-6-2.7-6-6
				c0-3.3,2.7-6,6-6h120.4V535.3c0-3.3,2.7-6,6-6h114.5c3.3,0,6,2.7,6,6v227.5h183.7V505.5c0-3.3,2.7-6,6-6s6,2.7,6,6v263.3
				C1453.2,772.1,1450.5,774.8,1447.2,774.8z"/>
		</g>
	</g>
</g>
</svg>
