<?xml version="1.0" encoding="utf-8"?>
<!-- Generator: Adobe Illustrator 15.1.0, SVG Export Plug-In . SVG Version: 6.00 Build 0)  -->
<!DOCTYPE svg PUBLIC "-//W3C//DTD SVG 1.1//EN" "http://www.w3.org/Graphics/SVG/1.1/DTD/svg11.dtd">
<svg version="1.1" id="Layer_1" xmlns="http://www.w3.org/2000/svg" xmlns:xlink="http://www.w3.org/1999/xlink" x="0px" y="0px" width="750px" height="750px"
	 viewBox="585 165 750 750" enable-background="new 585 165 750 750" xml:space="preserve">

		<g>
			<path fill="#5A5B5B" d="M1319.709,718.517l-84.119-34.32l-1.188,0.586l-1.689-30.558c11.406-7.702,21.66-18.197,25.682-32.188
				c1.54-5.335,2.869-10.778,4.072-16.189c6.623-3.972,34.32-22.161,25.39-43.878c-4.356-10.621-11.607-13.531-17.202-13.598
				c0.058-0.77,0.109-1.489,0.142-2.066c0.51-0.025,0.987,0.009,1.496-0.033c0,0,15.815-55.82-39.931-62.736l-4.523,14.509
				l4.441-14.232c0,0,5.125-14.752-29.89-27.513c-44.556-16.241-121.475,26.743-98.084,90.55c0,0,0.619,0.042,1.505,0.102
				c0.024,0.441,0.06,0.901,0.101,1.438c-5.562,0.159-12.652,3.127-16.951,13.589c-8.78,21.384,17.971,39.371,25.104,43.703
				c1.204,5.461,2.559,10.963,4.106,16.356c4.021,13.991,14.275,24.479,25.682,32.188l-1.689,30.657l-0.177-0.084l-85.121,33.719
				l-2.61,82.163h134.036h134.02L1319.709,718.517z M1279.946,565.23c4.607,11.222-6.7,22.285-15.055,28.6
				c2.626-14.384,4.183-27.647,5.052-36.904C1272.275,556.75,1276.783,557.545,1279.946,565.23z M1096.887,565.23
				c3.011-7.343,7.242-8.414,9.735-8.313c0.869,9.189,2.4,22.336,5.001,36.611C1103.328,587.123,1092.388,576.16,1096.887,565.23z
				 M1126.399,619.662c-8.254-28.658-11.181-61.491-11.976-72.404c22.137,0.41,75.731-1.563,106.833-28.098v-0.009
				c0.017,0.033,14.45,23.658,40.967,26.869c-0.644,9.399-3.452,43.778-12.058,73.642c-8.756,30.423-54.851,42.683-61.883,44.38
				C1181.25,662.354,1135.172,650.136,1126.399,619.662z M1150.51,688.979l1.638-29.745c17.009,9.332,33.961,13.12,35.241,13.396
				l0.902,0.193l0.886-0.193c1.289-0.275,18.231-4.063,35.241-13.396l1.638,29.662l-37.765,18.623L1150.51,688.979z"/>
			<path fill="#5A5B5B" d="M797.523,684.497l-1.765-35.39c11.063-7.485,20.998-17.671,24.911-31.261
				c2.142-7.425,3.897-15.052,5.369-22.494c6.808-3.839,29.018-17.938,22.011-34.999c-3.546-8.63-10.337-11.063-15.688-11.164
				c0.335-4.172,0.469-6.79,0.493-7.19l-8.555-0.437c-0.017,0.402-2.141,40.184-11.858,73.91
				c-8.463,29.419-53.027,41.303-59.926,42.976c-6.908-1.665-51.447-13.506-59.927-42.976
				c-8.748-30.374-11.331-65.555-11.774-72.571c20.589,0.427,71.617-1.278,101.488-26.292l-0.018,0.117
				c0,0,31.979-3.847,46.18,24.536c0,0,2.391-11.926,0.886-25.874c22.361-7.669,37.072,29.737,26.125,59.467
				c-11.089,30.079,16.022,33.969,16.022,33.969c1.724-14.376,47.416-48.151,16.608-98.88c-22.73-37.423-50.31-22.755-63.221-12.478
				c-5.119-12.059-15.17-22.521-34.296-24.896l-0.009,0.025c-3.42-4.783-10.628-10.646-25.673-16.123
				c-30.773-11.223-77.78,7.317-92.632,41.57c-12.587-10.277-40.785-26.233-63.941,11.9c-30.808,50.729,14.878,84.504,16.6,98.88
				c0,0,27.12-3.89,16.032-33.969c-11.064-30.047,4.064-68.014,26.827-59.275c-0.72,8.405,0.418,17.429,3.904,26.944
				c0,0,0.302,0.026,0.511,0.034c0.059,1.004,0.192,3.304,0.468,6.682c-5.535,0.269-12.284,2.803-15.695,11.122
				c-7.009,17.052,15.21,31.151,22.01,34.99c1.472,7.442,3.229,15.069,5.369,22.494c3.913,13.59,13.848,23.775,24.912,31.261
				l-1.765,35.39l-82.522,36.453l-2.525,79.729h130.056H882.57l-2.518-79.729L797.523,684.497z M840.138,563.607
				c3.086,7.534-5.21,15.346-12.008,20.212c1.622-9.859,2.726-18.925,3.445-26.073C834,557.619,837.955,558.305,840.138,563.607z
				 M664.892,563.615c2.023-4.908,5.845-5.869,8.563-5.879c0.719,7.15,1.822,16.224,3.445,26.093
				C670.102,578.953,661.806,571.142,664.892,563.615z M715.938,687.475l1.664-33.343c16.457,8.991,32.772,12.637,34.019,12.904
				l0.896,0.192l0.894-0.192c1.247-0.268,17.563-3.913,34.02-12.904l1.665,33.343l-36.578,39.873L715.938,687.475z"/>
			<path fill="#5A5B5B" d="M995.751,309.944v-23.909v-6.715h-6.716h-20.162h-6.724v6.715v23.909
				c-40.008,7.827-70.213,43.051-70.213,85.349c0,48.068,38.962,87.013,87.022,87.013c48.051,0,87.005-38.944,87.005-87.013
				C1065.964,352.995,1035.766,317.771,995.751,309.944z M1020.538,440.677l-51.665-40.467V286.035h20.162v104.357l43.93,34.429
				L1020.538,440.677z"/>
		</g>
</svg>
