<?xml version="1.0" encoding="utf-8"?>
<!-- Generator: Adobe Illustrator 15.1.0, SVG Export Plug-In . SVG Version: 6.00 Build 0)  -->
<!DOCTYPE svg PUBLIC "-//W3C//DTD SVG 1.1//EN" "http://www.w3.org/Graphics/SVG/1.1/DTD/svg11.dtd">
<svg version="1.1" id="Layer_1" xmlns="http://www.w3.org/2000/svg" xmlns:xlink="http://www.w3.org/1999/xlink" x="0px" y="0px"
	 width="750px" height="750px" viewBox="0 0 750 750" enable-background="new 0 0 750 750" xml:space="preserve">
<g>
	<path fill="#5A5B5B" d="M481.096,470.476c-0.811-1.788-2.592-2.938-4.555-2.938H269.583c-1.964,0-3.745,1.149-4.555,2.938
		l-25.874,57.153c-0.294,0.648-0.445,1.352-0.445,2.063c0,17.019,13.85,30.864,30.874,30.864c10.823,0,20.356-5.603,25.869-14.055
		c5.513,8.452,15.046,14.055,25.869,14.055c10.821,0,20.354-5.603,25.865-14.056c5.515,8.453,15.052,14.056,25.878,14.056
		c10.821,0,20.354-5.603,25.866-14.055c5.512,8.451,15.045,14.055,25.867,14.055c10.826,0,20.361-5.603,25.875-14.055
		c5.512,8.452,15.045,14.055,25.869,14.055c17.025,0,30.879-13.846,30.879-30.864c0-0.711-0.152-1.414-0.445-2.063L481.096,470.476z
		"/>
	<path fill="#5A5B5B" d="M308.323,622.378c2.762,0,5-2.238,5-5v-42.485c0-2.762-2.238-5-5-5h-47.036c-2.762,0-5,2.238-5,5v42.485
		c0,2.762,2.238,5,5,5H308.323z M266.287,579.892h37.036v32.485h-37.036V579.892z"/>
	<path fill="#5A5B5B" d="M314.983,628.535h-60.352c-2.762,0-5,2.238-5,5s2.238,5,5,5h60.352c2.762,0,5-2.238,5-5
		S317.745,628.535,314.983,628.535z"/>
	<path fill="#5A5B5B" d="M396.58,622.378c2.762,0,5-2.238,5-5v-42.485c0-2.762-2.238-5-5-5h-47.042c-2.762,0-5,2.238-5,5v42.485
		c0,2.762,2.238,5,5,5H396.58z M354.539,579.892h37.042v32.485h-37.042V579.892z"/>
	<path fill="#5A5B5B" d="M403.235,628.535h-60.351c-2.762,0-5,2.238-5,5s2.238,5,5,5h60.351c2.762,0,5-2.238,5-5
		S405.996,628.535,403.235,628.535z"/>
	<path fill="#5A5B5B" d="M484.832,622.378c2.762,0,5-2.238,5-5v-42.485c0-2.762-2.238-5-5-5h-47.037c-2.762,0-5,2.238-5,5v42.485
		c0,2.762,2.238,5,5,5H484.832z M442.795,579.892h37.037v32.485h-37.037V579.892z"/>
	<path fill="#5A5B5B" d="M491.487,628.535h-60.352c-2.762,0-5,2.238-5,5s2.238,5,5,5h60.352c2.762,0,5-2.238,5-5
		S494.248,628.535,491.487,628.535z"/>
	<path fill="#5A5B5B" d="M308.323,434.106c2.762,0,5-2.238,5-5v-42.485c0-2.761-2.238-5-5-5h-47.036c-2.762,0-5,2.239-5,5v42.485
		c0,2.762,2.238,5,5,5H308.323z M266.287,391.621h37.036v32.485h-37.036V391.621z"/>
	<path fill="#5A5B5B" d="M249.632,445.268c0,2.762,2.238,5,5,5h60.352c2.762,0,5-2.238,5-5s-2.238-5-5-5h-60.352
		C251.87,440.268,249.632,442.507,249.632,445.268z"/>
	<path fill="#5A5B5B" d="M396.58,434.106c2.762,0,5-2.238,5-5v-42.485c0-2.761-2.238-5-5-5h-47.042c-2.762,0-5,2.239-5,5v42.485
		c0,2.762,2.238,5,5,5H396.58z M354.539,391.621h37.042v32.485h-37.042V391.621z"/>
	<path fill="#5A5B5B" d="M337.884,445.268c0,2.762,2.238,5,5,5h60.351c2.762,0,5-2.238,5-5s-2.238-5-5-5h-60.351
		C340.122,440.268,337.884,442.507,337.884,445.268z"/>
	<path fill="#5A5B5B" d="M484.832,434.106c2.762,0,5-2.238,5-5v-42.485c0-2.761-2.238-5-5-5h-47.037c-2.762,0-5,2.239-5,5v42.485
		c0,2.762,2.238,5,5,5H484.832z M442.795,391.621h37.037v32.485h-37.037V391.621z"/>
	<path fill="#5A5B5B" d="M426.135,445.268c0,2.762,2.238,5,5,5h60.352c2.762,0,5-2.238,5-5s-2.238-5-5-5h-60.352
		C428.373,440.268,426.135,442.507,426.135,445.268z"/>
	<path fill="#5A5B5B" d="M546.317,341.27H203.684c-2.761,0-5,2.239-5,5v19.888c0,2.761,2.239,5,5,5h23.091v289.78
		c0,2.762,2.238,5,5,5s5-2.238,5-5v-289.78h272.114v289.78c0,2.762,2.238,5,5,5s5-2.238,5-5v-289.78h27.428c2.762,0,5-2.239,5-5
		V346.27C551.317,343.509,549.078,341.27,546.317,341.27z"/>
	<path fill="#5A5B5B" d="M260.423,310.752h89.229c19.786,0,35.884-16.1,35.884-35.889c0-2.761-2.238-5-5-5s-5,2.239-5,5
		c0,14.275-11.612,25.889-25.884,25.889h-89.229c-14.275,0-25.889-11.614-25.889-25.889c0-14.272,11.613-25.884,25.889-25.884
		c0.93,0,1.938,0.071,3.151,0.22c0.801,0.163,8.044,1.871,10.312,10.693c0.58,2.257,2.611,3.756,4.839,3.756
		c0.412,0,0.831-0.051,1.249-0.158c2.674-0.688,4.285-3.414,3.598-6.087c-2.281-8.875-7.731-13.47-12.126-15.804
		c7.006-11.031,19.256-17.923,32.513-17.923c15.196,0,29.016,8.995,35.207,22.916c1.121,2.522,4.076,3.658,6.601,2.536
		c2.522-1.122,3.658-4.077,2.536-6.6c-7.795-17.527-25.2-28.853-44.344-28.853c-17.782,0-34.131,9.827-42.589,25.318
		c-0.319-0.011-0.634-0.016-0.946-0.016c-19.789,0-35.889,16.098-35.889,35.884C224.534,294.653,240.634,310.752,260.423,310.752z"
		/>
	<path fill="#5A5B5B" d="M396.969,195.46c-0.318-0.011-0.633-0.016-0.945-0.016c-19.789,0-35.889,16.098-35.889,35.884
		c0,19.789,16.1,35.889,35.889,35.889h89.229c19.785,0,35.883-16.1,35.883-35.889c0-2.761-2.238-5-5-5s-5,2.239-5,5
		c0,14.275-11.611,25.889-25.883,25.889h-89.229c-14.275,0-25.889-11.613-25.889-25.889c0-14.272,11.614-25.884,25.889-25.884
		c0.93,0,1.938,0.071,3.15,0.22c0.801,0.163,8.045,1.871,10.313,10.693c0.58,2.257,2.611,3.756,4.838,3.756
		c0.412,0,0.832-0.051,1.25-0.158c2.674-0.688,4.285-3.413,3.598-6.087c-2.281-8.875-7.732-13.47-12.127-15.804
		c7.008-11.031,19.256-17.923,32.514-17.923c15.195,0,29.016,8.995,35.207,22.916c1.121,2.522,4.072,3.658,6.6,2.536
		c2.523-1.122,3.658-4.077,2.537-6.6c-7.795-17.527-25.201-28.853-44.344-28.853C421.776,170.141,405.428,179.969,396.969,195.46z"
		/>
	<path fill="#5A5B5B" d="M299.497,149.376c-14.413,16.604-21.497,37.828-19.945,59.762c0.187,2.634,2.381,4.646,4.982,4.646
		c0.118,0,0.238-0.004,0.357-0.013c2.755-0.194,4.83-2.585,4.635-5.34c-1.362-19.268,4.86-37.913,17.522-52.501
		c12.663-14.588,30.25-23.371,49.522-24.731c25.658-1.818,50.578,10.313,65.023,31.648c1.549,2.285,4.656,2.885,6.943,1.337
		s2.887-4.657,1.338-6.943c-16.438-24.279-44.777-38.073-74.009-36.018C333.93,122.772,313.911,132.77,299.497,149.376z"/>
	<path fill="#5A5B5B" d="M253.353,197.769L271,199.654c0.181,0.02,0.359,0.029,0.537,0.029c2.523,0,4.691-1.904,4.966-4.47
		c0.293-2.746-1.695-5.209-4.44-5.503l-17.646-1.885c-2.743-0.292-5.209,1.695-5.503,4.44
		C248.62,195.012,250.608,197.476,253.353,197.769z"/>
	<path fill="#5A5B5B" d="M260.542,153.037l17.646,8.481c0.698,0.336,1.437,0.494,2.162,0.494c1.862,0,3.649-1.044,4.511-2.835
		c1.196-2.488,0.148-5.476-2.341-6.672l-17.646-8.481c-2.489-1.197-5.476-0.148-6.673,2.34
		C257.005,148.853,258.052,151.841,260.542,153.037z"/>
	<path fill="#5A5B5B" d="M303.304,130.071c0.988,1.12,2.366,1.691,3.751,1.691c1.176,0,2.356-0.412,3.307-1.251
		c2.07-1.827,2.268-4.987,0.44-7.058l-13.994-15.854c-1.828-2.07-4.988-2.269-7.058-0.439c-2.07,1.827-2.268,4.986-0.44,7.057
		L303.304,130.071z"/>
	<path fill="#5A5B5B" d="M345.27,111.958c0.504,2.347,2.577,3.951,4.884,3.951c0.348,0,0.701-0.036,1.055-0.112
		c2.7-0.58,4.419-3.238,3.839-5.938l-4.692-21.846c-0.58-2.7-3.24-4.416-5.938-3.839c-2.7,0.58-4.419,3.239-3.839,5.938
		L345.27,111.958z"/>
	<path fill="#5A5B5B" d="M396.985,123.537c0.584,0.222,1.182,0.327,1.771,0.327c2.018,0,3.918-1.23,4.676-3.228l7.164-18.877
		c0.979-2.582-0.32-5.469-2.902-6.449c-2.582-0.979-5.469,0.319-6.447,2.901l-7.164,18.877
		C393.104,119.671,394.403,122.557,396.985,123.537z"/>
	<path fill="#5A5B5B" d="M432.014,148.453c1.006,0,2.02-0.303,2.9-0.931l17.279-12.334c2.248-1.604,2.77-4.728,1.166-6.975
		c-1.605-2.249-4.729-2.769-6.975-1.165l-17.279,12.334c-2.248,1.604-2.77,4.727-1.166,6.975
		C428.916,147.724,430.453,148.453,432.014,148.453z"/>
</g>
</svg>
