<?xml version="1.0" encoding="utf-8"?>
<!-- Generator: Adobe Illustrator 15.1.0, SVG Export Plug-In . SVG Version: 6.00 Build 0)  -->
<!DOCTYPE svg PUBLIC "-//W3C//DTD SVG 1.1//EN" "http://www.w3.org/Graphics/SVG/1.1/DTD/svg11.dtd">
<svg version="1.1" id="Layer_1" xmlns="http://www.w3.org/2000/svg" xmlns:xlink="http://www.w3.org/1999/xlink" x="0px" y="0px"
	 width="750px" height="750px" viewBox="0 0 750 750" enable-background="new 0 0 750 750" xml:space="preserve">
<g>
	<path fill="#5A5B5B" d="M673.796,555.558H493.449v-51.508h138.54c2.022,0,3.846-1.219,4.619-3.088
		c0.774-1.867,0.347-4.018-1.084-5.447l-93.994-94h49.443c2.022,0,3.846-1.218,4.619-3.086c0.774-1.869,0.347-4.02-1.084-5.449
		l-93.988-93.989h49.442c2.022,0,3.846-1.218,4.619-3.086c0.774-1.869,0.347-4.019-1.084-5.449l-102.524-102.52
		c-1.951-1.952-5.119-1.952-7.07,0l-63.687,63.687c-1.953,1.953-1.953,5.119,0,7.071c1.951,1.952,5.119,1.952,7.07,0l60.151-60.151
		l90.453,90.449h-49.442c-2.022,0-3.846,1.218-4.619,3.086c-0.774,1.869-0.347,4.019,1.084,5.449l93.988,93.988H529.46
		c-2.022,0-3.846,1.219-4.619,3.087c-0.774,1.868-0.347,4.019,1.084,5.449l93.994,93.999h-131.47c-2.762,0-5,2.238-5,5v61.508
		c0,2.762,2.238,5,5,5h185.347c2.762,0,5-2.238,5-5S676.558,555.558,673.796,555.558z"/>
	<path fill="#5A5B5B" d="M379.245,374.748v137.75c0,2.762,2.238,5,5,5s5-2.238,5-5v-137.75c0-2.761-2.238-5-5-5
		S379.245,371.987,379.245,374.748z"/>
	<path fill="#5A5B5B" d="M417.922,374.748v137.75c0,2.762,2.238,5,5,5s5-2.238,5-5v-137.75c0-2.761-2.238-5-5-5
		S417.922,371.987,417.922,374.748z"/>
	<path fill="#5A5B5B" d="M436.281,359.221c0-2.761-2.238-5-5-5h-56.479c-2.762,0-5,2.239-5,5s2.238,5,5,5h56.479
		C434.043,364.221,436.281,361.982,436.281,359.221z"/>
	<path fill="#5A5B5B" d="M374.802,533.801h56.479c2.762,0,5-2.238,5-5s-2.238-5-5-5h-56.479c-2.762,0-5,2.238-5,5
		S372.04,533.801,374.802,533.801z"/>
	<path fill="#5A5B5B" d="M398.044,374.748v137.75c0,2.762,2.238,5,5,5s5-2.238,5-5v-137.75c0-2.761-2.238-5-5-5
		S398.044,371.987,398.044,374.748z"/>
	<path fill="#5A5B5B" d="M213.767,374.748v137.75c0,2.762,2.239,5,5,5s5-2.238,5-5v-137.75c0-2.761-2.239-5-5-5
		S213.767,371.987,213.767,374.748z"/>
	<path fill="#5A5B5B" d="M252.444,374.748v137.75c0,2.762,2.238,5,5,5s5-2.238,5-5v-137.75c0-2.761-2.238-5-5-5
		S252.444,371.987,252.444,374.748z"/>
	<path fill="#5A5B5B" d="M270.803,359.221c0-2.761-2.238-5-5-5h-56.479c-2.761,0-5,2.239-5,5s2.239,5,5,5h56.479
		C268.565,364.221,270.803,361.982,270.803,359.221z"/>
	<path fill="#5A5B5B" d="M209.323,533.801h56.479c2.762,0,5-2.238,5-5s-2.238-5-5-5h-56.479c-2.761,0-5,2.238-5,5
		S206.562,533.801,209.323,533.801z"/>
	<path fill="#5A5B5B" d="M232.566,374.748v137.75c0,2.762,2.238,5,5,5s5-2.238,5-5v-137.75c0-2.761-2.238-5-5-5
		S232.566,371.987,232.566,374.748z"/>
	<path fill="#5A5B5B" d="M298.977,374.748v137.75c0,2.762,2.238,5,5,5s5-2.238,5-5v-137.75c0-2.761-2.238-5-5-5
		S298.977,371.987,298.977,374.748z"/>
	<path fill="#5A5B5B" d="M337.654,374.748v137.75c0,2.762,2.238,5,5,5s5-2.238,5-5v-137.75c0-2.761-2.238-5-5-5
		S337.654,371.987,337.654,374.748z"/>
	<path fill="#5A5B5B" d="M356.013,359.221c0-2.761-2.238-5-5-5h-56.479c-2.762,0-5,2.239-5,5s2.238,5,5,5h56.479
		C353.775,364.221,356.013,361.982,356.013,359.221z"/>
	<path fill="#5A5B5B" d="M294.533,533.801h56.479c2.762,0,5-2.238,5-5s-2.238-5-5-5h-56.479c-2.762,0-5,2.238-5,5
		S291.772,533.801,294.533,533.801z"/>
	<path fill="#5A5B5B" d="M317.776,374.748v137.75c0,2.762,2.238,5,5,5s5-2.238,5-5v-137.75c0-2.761-2.238-5-5-5
		S317.776,371.987,317.776,374.748z"/>
	<path fill="#5A5B5B" d="M138.786,374.748v137.75c0,2.762,2.239,5,5,5s5-2.238,5-5v-137.75c0-2.761-2.239-5-5-5
		S138.786,371.987,138.786,374.748z"/>
	<path fill="#5A5B5B" d="M177.463,374.748v137.75c0,2.762,2.239,5,5,5s5-2.238,5-5v-137.75c0-2.761-2.239-5-5-5
		S177.463,371.987,177.463,374.748z"/>
	<path fill="#5A5B5B" d="M195.823,359.221c0-2.761-2.239-5-5-5h-56.479c-2.761,0-5,2.239-5,5s2.239,5,5,5h56.479
		C193.584,364.221,195.823,361.982,195.823,359.221z"/>
	<path fill="#5A5B5B" d="M134.343,533.801h56.479c2.761,0,5-2.238,5-5s-2.239-5-5-5h-56.479c-2.761,0-5,2.238-5,5
		S131.582,533.801,134.343,533.801z"/>
	<path fill="#5A5B5B" d="M157.585,374.748v137.75c0,2.762,2.239,5,5,5s5-2.238,5-5v-137.75c0-2.761-2.239-5-5-5
		S157.585,371.987,157.585,374.748z"/>
	<path fill="#5A5B5B" d="M112.566,346.389h336.548c2.068,0,3.924-1.274,4.667-3.205c0.742-1.931,0.22-4.12-1.316-5.506
		L284.188,185.73c-1.902-1.719-4.799-1.719-6.701,0L109.215,337.678c-1.535,1.386-2.058,3.575-1.315,5.506
		C108.642,345.115,110.497,346.389,112.566,346.389z M280.837,260.158c13.564,0,24.883,9.802,27.243,22.695h-54.486
		C255.954,269.961,267.273,260.158,280.837,260.158z"/>
	<path fill="#5A5B5B" d="M114.245,543.898c0,2.762,2.239,5,5,5h329.868c2.762,0,5-2.238,5-5s-2.238-5-5-5H119.245
		C116.484,538.898,114.245,541.136,114.245,543.898z"/>
	<path fill="#5A5B5B" d="M464.114,555.558H104.245c-2.761,0-5,2.238-5,5s2.239,5,5,5h359.868c2.762,0,5-2.238,5-5
		S466.875,555.558,464.114,555.558z"/>
</g>
</svg>
