<?xml version="1.0" encoding="utf-8"?>
<!-- Generator: Adobe Illustrator 15.1.0, SVG Export Plug-In . SVG Version: 6.00 Build 0)  -->
<!DOCTYPE svg PUBLIC "-//W3C//DTD SVG 1.1//EN" "http://www.w3.org/Graphics/SVG/1.1/DTD/svg11.dtd">
<svg version="1.1" id="Layer_1" xmlns="http://www.w3.org/2000/svg" xmlns:xlink="http://www.w3.org/1999/xlink" x="0px" y="0px" width="750px" height="750px"
	 viewBox="585 165 750 750" enable-background="new 585 165 750 750" xml:space="preserve">

	<g>
		<g>
			<path fill="#5A5B5B" d="M760.388,705.369c-64.375,0-116.75-52.374-116.75-116.75s52.374-116.749,116.75-116.749
				c64.376,0,116.75,52.373,116.75,116.749S824.764,705.369,760.388,705.369z M760.388,496.738
				c-50.663,0-91.881,41.218-91.881,91.881c0,50.664,41.218,91.881,91.881,91.881c50.664,0,91.881-41.217,91.881-91.881
				C852.269,537.956,811.051,496.738,760.388,496.738z"/>
			<path fill="#5A5B5B" d="M1167.887,705.369c-64.377,0-116.75-52.374-116.75-116.75s52.373-116.749,116.75-116.749
				c64.375,0,116.749,52.373,116.749,116.749S1232.262,705.369,1167.887,705.369z M1167.887,496.738
				c-50.664,0-91.882,41.218-91.882,91.881c0,50.664,41.218,91.881,91.882,91.881c50.663,0,91.88-41.217,91.88-91.881
				C1259.767,537.956,1218.55,496.738,1167.887,496.738z"/>
			<path fill="#5A5B5B" d="M760.384,596.909c-1.902,0-3.814-0.651-5.375-1.982c-3.483-2.972-3.898-8.203-0.928-11.687
				c0.778-0.916,64.067-76.189,64.067-150.632v-84.264c0-4.578,3.712-8.289,8.29-8.289h20.254c4.578,0,8.29,3.711,8.29,8.289
				s-3.711,8.29-8.29,8.29h-11.965v75.974c0,34.033-11.473,71.565-34.1,111.552c-16.712,29.535-33.237,49.023-33.932,49.839
				C765.055,595.922,762.727,596.909,760.384,596.909z"/>
			<path fill="#5A5B5B" d="M1034.824,502.397c-2.042,0-4.041-0.757-5.585-2.164c-38.792-35.369-91.993-56.735-129.791-68.431
				c-41.313-12.783-73.763-17.121-74.086-17.163c-4.539-0.595-7.737-4.756-7.144-9.294c0.594-4.539,4.754-7.741,9.291-7.146
				c1.365,0.178,33.928,4.515,76.53,17.669c36.637,11.312,87.22,31.404,127.178,64.169l35.69-95.866
				c1.598-4.291,6.372-6.473,10.661-4.876c4.291,1.597,6.474,6.37,4.876,10.66L1042.594,497c-0.961,2.581-3.142,4.517-5.818,5.164
				C1036.13,502.32,1035.475,502.397,1034.824,502.397z"/>
			<path fill="#5A5B5B" d="M1005.219,604.146c-2.927,0-5.664-1.551-7.159-4.113c-0.847-1.45-85.658-145.229-172.936-159.239
				c-4.521-0.726-7.597-4.979-6.871-9.499c0.726-4.521,4.979-7.594,9.498-6.87c40.255,6.462,83.649,36.737,128.979,89.987
				c26.84,31.53,46.016,61.485,52.892,72.686l149.173-14.572c-46.055-74.616-108.558-124.937-109.214-125.461
				c-3.579-2.854-4.167-8.069-1.314-11.648c2.854-3.578,8.068-4.168,11.646-1.316c2.91,2.318,71.826,57.743,119.879,141.272
				c1.404,2.44,1.474,5.426,0.184,7.929c-1.289,2.504-3.761,4.181-6.563,4.455l-167.386,16.352
				C1005.756,604.133,1005.486,604.146,1005.219,604.146z"/>
			<path fill="#5A5B5B" d="M1005.224,604.148c-0.767,0-1.546-0.107-2.319-0.333c-4.396-1.279-6.923-5.879-5.644-10.275
				l29.604-101.748c1.278-4.396,5.881-6.922,10.275-5.644c4.396,1.278,6.922,5.879,5.644,10.275l-29.604,101.748
				C1012.126,601.794,1008.815,604.148,1005.224,604.148z"/>
			<g>
				<path fill="#5A5B5B" d="M1281.065,514.944c-24.1-36.946-65.773-61.386-113.179-61.386c-74.591,0-135.062,60.472-135.062,135.061
					c0,1.515,0.064,3.02,0.113,4.525l139.667-13.641L1281.065,514.944z"/>
				<path fill="#5A5B5B" d="M1032.938,601.435c-2.005,0-3.952-0.728-5.472-2.062c-1.722-1.514-2.741-3.672-2.814-5.963l-0.029-0.9
					c-0.043-1.25-0.087-2.542-0.087-3.891c0-79.043,64.307-143.351,143.351-143.351c48.607,0,93.514,24.354,120.121,65.147
					c1.234,1.891,1.643,4.203,1.133,6.402c-0.511,2.199-1.896,4.095-3.835,5.25l-108.46,64.559
					c-1.048,0.624-2.221,1.009-3.434,1.128l-139.668,13.64C1033.475,601.422,1033.206,601.435,1032.938,601.435z M1167.887,461.848
					c-68.358,0-124.252,54.388-126.689,122.161l128.76-12.574l99.197-59.047C1245.225,480.59,1207.978,461.848,1167.887,461.848z"/>
			</g>
			<g>
				<line fill="#5A5B5B" x1="1112.36" y1="387.064" x2="1034.824" y2="387.064"/>
				<path fill="#5A5B5B" d="M1112.36,395.354h-77.536c-4.578,0-8.289-3.711-8.289-8.289s3.711-8.29,8.289-8.29h77.536
					c4.578,0,8.29,3.712,8.29,8.29S1116.938,395.354,1112.36,395.354z"/>
			</g>
			<path fill="#5A5B5B" d="M1316.449,739.944H603.551c-6.867,0-12.435-5.567-12.435-12.435s5.567-12.435,12.435-12.435h712.898
				c6.867,0,12.435,5.567,12.435,12.435S1323.316,739.944,1316.449,739.944z"/>
		</g>
	</g>


</svg>
