<?xml version="1.0" encoding="utf-8"?>
<!-- Generator: Adobe Illustrator 15.1.0, SVG Export Plug-In . SVG Version: 6.00 Build 0)  -->
<!DOCTYPE svg PUBLIC "-//W3C//DTD SVG 1.1//EN" "http://www.w3.org/Graphics/SVG/1.1/DTD/svg11.dtd">
<svg version="1.1" id="Layer_1" xmlns="http://www.w3.org/2000/svg" xmlns:xlink="http://www.w3.org/1999/xlink" x="0px" y="0px"
	 width="750px" height="750px" viewBox="0 0 750 750" enable-background="new 0 0 750 750" xml:space="preserve">
<g>
	<path fill="#5A5B5B" d="M138.064,275.388h-14.286l-42.199,48.903l2.748,11.979h37.583v16.594h16.154v-16.594h10.33v-13.737h-10.33
		V275.388z M121.91,322.532h-20.44l20.44-23.957V322.532z"/>
	<polygon fill="#5A5B5B" points="161.356,272.64 161.356,352.863 178.06,352.863 178.06,334.95 183.885,328.796 199.27,352.863 
		218.391,352.863 195.203,317.148 217.622,293.96 197.621,293.96 178.06,315.389 178.06,272.64 	"/>
	<path fill="#5A5B5B" d="M261.919,292.241c0-59.289-48.237-107.524-107.529-107.524S46.861,232.952,46.861,292.241
		c0,59.294,48.237,107.534,107.529,107.534S261.919,351.535,261.919,292.241z M56.861,292.241c0-53.775,43.751-97.524,97.529-97.524
		s97.529,43.749,97.529,97.524c0,53.781-43.751,97.534-97.529,97.534S56.861,346.022,56.861,292.241z"/>
	<polygon fill="#5A5B5B" points="159.849,255.532 159.849,239.135 176.245,239.135 176.245,228.208 159.849,228.208 
		159.849,211.811 148.921,211.811 148.921,228.208 132.534,228.208 132.534,239.135 148.921,239.135 148.921,255.532 	"/>
	<path fill="#5A5B5B" d="M702.437,444.77l-38.101-98.726c-1.118-2.91-3.496-5.166-6.46-6.123l-226.929-74.497
		c-2.09-0.679-4.39-0.679-6.475,0L279.121,313.13c-28.384,108.354-114.688,101.968-114.688,101.968l-11.45,29.673
		c-1.66,4.292-0.298,9.155,3.325,11.968l59.189,45.732v24.282c0,0.244-0.02,0.459-0.02,0.713v2.896h57.461
		c0,0,83.74,34.922,154.746,34.922c71.025,0,162.856-36.675,162.856-36.675h49.351V502.47l59.219-45.732
		C702.749,453.926,704.097,449.062,702.437,444.77z M394.331,350.864l31.284,6.484c1.382,0.298,2.813,0.298,4.194,0l31.294-6.484
		v38.13c0,11.738-20.322,25.508-33.418,32.227c-14.785-7.529-33.354-21.416-33.354-32.227V350.864z M618.643,496.992
		c-33.457-28.901-104.487-47.998-190.942-47.998c-86.851,0-158.13,19.282-191.377,48.408l0.469-18.354
		c0-0.044-0.024-0.083-0.024-0.132c0-0.044,0.024-0.083,0.024-0.127c0-26.885,59.126-56.309,148.164-63.677
		c13.628,15.557,35.078,25.591,38.53,27.129c1.343,0.615,2.783,0.913,4.214,0.913c1.47,0,2.905-0.298,4.248-0.913
		c3.452-1.538,24.902-11.572,38.521-27.129c89.033,7.383,148.174,36.792,148.174,63.677V496.992z"/>
</g>
</svg>
