<?xml version="1.0" encoding="utf-8"?>
<!-- Generator: Adobe Illustrator 22.0.1, SVG Export Plug-In . SVG Version: 6.00 Build 0)  -->
<svg version="1.1" id="Layer_1" xmlns="http://www.w3.org/2000/svg" xmlns:xlink="http://www.w3.org/1999/xlink" x="0px" y="0px"
	 viewBox="0 0 595.3 595.3" style="enable-background:new 0 0 595.3 595.3;" xml:space="preserve">
<style type="text/css">
	.st0{fill:#5A5B5B;}
</style>
<g>
	<g>
		<path class="st0" d="M394.9,504.4h-45.4c-3.3,0-6-2.7-6-6s2.7-6,6-6h39.4V272.6H246.3v219.8h39.4c3.3,0,6,2.7,6,6s-2.7,6-6,6
			h-45.4c-3.3,0-6-2.7-6-6V266.6c0-3.3,2.7-6,6-6h154.6c3.3,0,6,2.7,6,6v231.8C400.9,501.7,398.2,504.4,394.9,504.4z"/>
	</g>
	<g>
		<path class="st0" d="M240.3,254.1c-2.6,0-5-1.7-5.7-4.3c-1-3.2,0.8-6.5,4-7.5l75.2-22.7c1.1-0.3,2.3-0.3,3.4,0l79.4,22.7
			c3.2,0.9,5,4.2,4.1,7.4c-0.9,3.2-4.2,5-7.4,4.1l-77.7-22.2L242,253.8C241.4,254,240.8,254.1,240.3,254.1z"/>
	</g>
	<g>
		<path class="st0" d="M221.4,504.4H72.5c-3.3,0-6-2.7-6-6V336.3c0-3.3,2.7-6,6-6h148.9c3.3,0,6,2.7,6,6s-2.7,6-6,6H78.5v150.1
			h142.9c3.3,0,6,2.7,6,6S224.7,504.4,221.4,504.4z"/>
	</g>
	<g>
		<path class="st0" d="M136.8,446.4H104c-3.3,0-6-2.7-6-6v-82.1c0-3.3,2.7-6,6-6h32.7c3.3,0,6,2.7,6,6v82.1
			C142.8,443.7,140.1,446.4,136.8,446.4z M110,434.4h20.7v-70.1H110V434.4z"/>
	</g>
	<g>
		<path class="st0" d="M195.5,446.4h-32.7c-3.3,0-6-2.7-6-6v-82.1c0-3.3,2.7-6,6-6h32.7c3.3,0,6,2.7,6,6v82.1
			C201.5,443.7,198.8,446.4,195.5,446.4z M168.7,434.4h20.7v-70.1h-20.7V434.4z"/>
	</g>
	<g>
		<path class="st0" d="M562.6,504.4H413.8c-3.3,0-6-2.7-6-6s2.7-6,6-6h142.9V342.3H413.8c-3.3,0-6-2.7-6-6s2.7-6,6-6h148.9
			c3.3,0,6,2.7,6,6v162.1C568.6,501.7,566,504.4,562.6,504.4z"/>
	</g>
	<g>
		<path class="st0" d="M531.1,446.4h-32.7c-3.3,0-6-2.7-6-6v-82.1c0-3.3,2.7-6,6-6h32.7c3.3,0,6,2.7,6,6v82.1
			C537.1,443.7,534.4,446.4,531.1,446.4z M504.4,434.4h20.7v-70.1h-20.7V434.4z"/>
	</g>
	<g>
		<path class="st0" d="M472.4,446.4h-32.7c-3.3,0-6-2.7-6-6v-82.1c0-3.3,2.7-6,6-6h32.7c3.3,0,6,2.7,6,6v82.1
			C478.4,443.7,475.7,446.4,472.4,446.4z M445.6,434.4h20.7v-70.1h-20.7V434.4z"/>
	</g>
	<g>
		<path class="st0" d="M567.9,322.6H413.8c-3.3,0-6-2.7-6-6s2.7-6,6-6h154.1c3.3,0,6,2.7,6,6S571.2,322.6,567.9,322.6z"/>
	</g>
	<g>
		<path class="st0" d="M221.4,322.6H67.2c-3.3,0-6-2.7-6-6s2.7-6,6-6h154.1c3.3,0,6,2.7,6,6S224.7,322.6,221.4,322.6z"/>
	</g>
	<g>
		<path class="st0" d="M349.5,504.4c-3.3,0-6-2.7-6-6v-93.1h-51.8v93.1c0,3.3-2.7,6-6,6s-6-2.7-6-6v-99.1c0-3.3,2.7-6,6-6h63.8
			c3.3,0,6,2.7,6,6v99.1C355.5,501.7,352.8,504.4,349.5,504.4z"/>
	</g>
	<g>
		<path class="st0" d="M306.3,364.3H265c-3.3,0-6-2.7-6-6v-70.1c0-3.3,2.7-6,6-6h41.3c3.3,0,6,2.7,6,6v70.1
			C312.3,361.6,309.6,364.3,306.3,364.3z M271,352.3h29.3v-58.1H271V352.3z"/>
	</g>
	<g>
		<path class="st0" d="M370.1,364.3h-41.3c-3.3,0-6-2.7-6-6v-70.1c0-3.3,2.7-6,6-6h41.3c3.3,0,6,2.7,6,6v70.1
			C376.1,361.6,373.4,364.3,370.1,364.3z M334.8,352.3h29.3v-58.1h-29.3V352.3z"/>
	</g>
	<g>
		<path class="st0" d="M315.5,231.4c-3.3,0-6-2.7-6-6v-60.2c0-3.3,2.7-6,6-6s6,2.7,6,6v60.2C321.5,228.7,318.8,231.4,315.5,231.4z"
			/>
	</g>
	<g>
		<g>
			<g>
				<path class="st0" d="M329.6,217.9c-5.5,0-11.2-1.1-16.8-3.9c-2-1-3.3-3.1-3.3-5.4v-40.7c0-2.1,1.1-4,2.8-5.1
					c1.8-1.1,4-1.2,5.8-0.3c10.9,5.5,22.6,1.3,35-3c13.5-4.8,28.9-10.3,44.4-2.4c2,1,3.3,3.1,3.3,5.4v40.7c0,2.1-1.1,4-2.8,5.1
					c-1.8,1.1-4,1.2-5.8,0.3c-10.9-5.5-22.6-1.3-35,3C348.6,214.6,339.3,217.9,329.6,217.9z M321.5,204.7c10,3.3,20.6-0.4,31.7-4.4
					c11-3.9,23.2-8.2,35.7-5.5v-28.3c-10-3.3-20.6,0.4-31.7,4.4c-11,3.9-23.2,8.2-35.7,5.5V204.7z"/>
			</g>
			<g>
				<path class="st0" d="M329.6,197.6c-5.5,0-11.1-1.1-16.7-3.9c-3-1.5-4.2-5.1-2.7-8.1c1.5-3,5.1-4.2,8.1-2.7
					c10.9,5.5,22.6,1.3,35-3c13.5-4.8,28.9-10.3,44.4-2.4c3,1.5,4.1,5.1,2.7,8.1c-1.5,3-5.1,4.1-8.1,2.7c-10.9-5.5-22.6-1.4-35,3
					C348.5,194.3,339.2,197.6,329.6,197.6z"/>
			</g>
		</g>
	</g>
</g>
<g>
	<path class="st0" d="M125.6,302.8c-56.1,0-101.7-45.6-101.7-101.7c0-56.1,45.6-101.7,101.7-101.7S227.4,145,227.4,201.1
		C227.4,257.2,181.7,302.8,125.6,302.8z M125.6,111.4c-49.5,0-89.7,40.3-89.7,89.7s40.3,89.7,89.7,89.7s89.7-40.3,89.7-89.7
		S175.1,111.4,125.6,111.4z"/>
</g>
<g>
	<g>
		<path class="st0" d="M80.8,227.8v-0.3c0-14.3,6.5-22.8,19-28.5c-9.1-5.6-15-13.2-15-25.7v-0.3c0-18.1,16.5-32.4,41.4-32.4
			s41.4,14.2,41.4,32.4v0.3c0,12.6-5.9,20.2-15,25.7c12,6.2,19,13.8,19,27.8v0.3c0,21.9-19.3,34.7-45.5,34.7S80.8,248.3,80.8,227.8z
			 M146.7,225.7v-0.3c0-9.1-8.6-14.5-20.4-14.5s-20.4,5.4-20.4,14.5v0.3c0,8.1,7.6,14.6,20.4,14.6S146.7,233.9,146.7,225.7z
			 M143.2,176v-0.3c0-7.2-6.2-13.8-16.8-13.8s-16.8,6.4-16.8,13.6v0.3c0,8.2,6.5,14.5,16.8,14.5S143.2,184.3,143.2,176z"/>
	</g>
</g>
</svg>
