<?xml version="1.0" encoding="utf-8"?>
<!-- Generator: Adobe Illustrator 18.1.1, SVG Export Plug-In . SVG Version: 6.00 Build 0)  -->
<svg version="1.1" id="Layer_1" xmlns="http://www.w3.org/2000/svg" xmlns:xlink="http://www.w3.org/1999/xlink" x="0px" y="0px"
	 viewBox="0 0 80.7 80.7" style="enable-background:new 0 0 80.7 80.7;" xml:space="preserve">
<style type="text/css">
	.st0{fill:#5A5A5A;}
	.st1{fill:none;}
</style>
<g>
	<path class="st0" d="M40.3,16.8c-11,0-19.8,1.2-19.8,9.9v23.6c0,4.8,3.9,8.7,8.7,8.7l-3.7,3.7v1.2h29.8v-1.2l-3.7-3.7
		c4.8,0,8.7-3.9,8.7-8.7V26.7C60.2,18,51.3,16.8,40.3,16.8z M29.2,54c-2.1,0-3.7-1.7-3.7-3.7c0-2.1,1.7-3.7,3.7-3.7
		c2.1,0,3.7,1.7,3.7,3.7C32.9,52.3,31.2,54,29.2,54z M37.9,39.1H25.5V26.7h12.4V39.1z M51.5,54c-2.1,0-3.7-1.7-3.7-3.7
		c0-2.1,1.7-3.7,3.7-3.7c2.1,0,3.7,1.7,3.7,3.7C55.2,52.3,53.6,54,51.5,54z M55.2,39.1H42.8V26.7h12.4V39.1z"/>
</g>
<rect x="0" y="0.6" class="st1" width="80.7" height="80.7"/>
</svg>
