<?xml version="1.0" encoding="utf-8"?>
<!-- Generator: Adobe Illustrator 15.1.0, SVG Export Plug-In . SVG Version: 6.00 Build 0)  -->
<!DOCTYPE svg PUBLIC "-//W3C//DTD SVG 1.1//EN" "http://www.w3.org/Graphics/SVG/1.1/DTD/svg11.dtd">
<svg version="1.1" id="Layer_1" xmlns="http://www.w3.org/2000/svg" xmlns:xlink="http://www.w3.org/1999/xlink" x="0px" y="0px" width="750px" height="750px"
	 viewBox="585 165 750 750" enable-background="new 585 165 750 750" xml:space="preserve">

	<g>
		<g>
			<path fill="#5A5B5B" d="M744.417,316.651l-11.579-11.546c62.874-63.056,146.539-97.781,235.581-97.781
				c87.778,0,170.597,33.893,233.2,95.436l-11.463,11.661c-59.525-58.518-138.274-90.745-221.737-90.745
				C883.754,223.676,804.201,256.695,744.417,316.651z"/>
			<path fill="#5A5B5B" d="M968.419,872.676c-89.038,0-172.702-34.729-235.581-97.789l11.579-11.546
				c59.788,59.961,139.341,92.982,224.002,92.982c83.463,0,162.21-32.226,221.737-90.742l11.463,11.66
				C1139.016,838.783,1056.197,872.676,968.419,872.676z"/>
			<polygon fill="#5A5B5B" points="784.34,319.054 730.451,319.054 730.451,264.543 746.803,264.543 746.803,302.702 
				784.34,302.702 			"/>
			<polygon fill="#5A5B5B" points="1204.064,817.746 1187.711,817.746 1187.711,779.588 1150.175,779.588 1150.175,763.234 
				1204.064,763.234 			"/>
			<g>
				<g>
					<g>
						<path fill="#5A5B5B" d="M726.365,579.737c-1.489,0-2.718-1.161-2.81-2.658c-0.076-1.548,1.127-2.869,2.667-2.943l32.061-1.633
							l-5.307-38.42c-0.21-1.539,0.866-2.952,2.396-3.171c1.515-0.193,2.953,0.858,3.163,2.397l5.735,41.447
							c0.118,0.774-0.1,1.566-0.605,2.18c-0.504,0.598-1.244,0.976-2.034,1.008l-35.125,1.793
							C726.458,579.737,726.407,579.737,726.365,579.737z"/>
					</g>
					<g>
						<path fill="#5A5B5B" d="M817.125,708.152c-55.797,0-101.189-45.394-101.189-101.19s45.393-101.189,101.189-101.189
							c55.789,0,101.19,45.393,101.19,101.189S872.914,708.152,817.125,708.152z M817.125,517.001
							c-49.606,0-89.952,40.362-89.952,89.961s40.346,89.946,89.952,89.946c49.591,0,89.945-40.348,89.945-89.946
							S866.716,517.001,817.125,517.001z"/>
					</g>
					<g>
						<path fill="#5A5B5B" d="M817.168,549.308c-0.791,0-1.548-0.329-2.078-0.908l-28.303-30.877
							c-1.051-1.144-0.976-2.918,0.16-3.953c1.145-1.06,2.928-0.976,3.971,0.16l26.25,28.613l26.191-28.588
							c1.051-1.145,2.842-1.22,3.961-0.169c1.136,1.052,1.229,2.818,0.176,3.971l-28.269,30.843
							C818.69,548.979,817.95,549.308,817.168,549.308z"/>
					</g>
					<g>
						<path fill="#5A5B5B" d="M907.827,579.629c-0.041,0-0.084,0-0.135-0.01l-32.868-1.675c-0.791-0.032-1.515-0.41-2.036-1.008
							c-0.479-0.613-0.723-1.405-0.605-2.18l5.501-39.731c0.21-1.548,1.673-2.557,3.171-2.389c1.538,0.219,2.606,1.623,2.389,3.162
							l-5.072,36.704l29.808,1.516c1.548,0.073,2.733,1.396,2.649,2.935C910.553,578.459,909.324,579.629,907.827,579.629z"/>
					</g>
					<g>
						<path fill="#5A5B5B" d="M867.263,691.137c-1.489,0-2.742-1.186-2.81-2.689l-1.666-38.136
							c-0.025-0.782,0.278-1.555,0.825-2.102c0.555-0.557,1.371-0.833,2.119-0.826l35.931,1.566c1.557,0.074,2.76,1.38,2.691,2.925
							c-0.059,1.548-1.472,2.635-2.927,2.692l-32.877-1.431l1.513,35.073c0.076,1.557-1.135,2.86-2.683,2.927
							C867.347,691.137,867.296,691.137,867.263,691.137z"/>
					</g>
					<g>
						<path fill="#5A5B5B" d="M770.16,693.013c-0.033,0-0.076,0-0.109,0c-1.557-0.067-2.76-1.38-2.691-2.926l1.598-36.94
							l-36.082,1.563c-1.573-0.092-2.86-1.144-2.927-2.691c-0.067-1.546,1.144-2.858,2.69-2.926l39.145-1.7
							c0.781-0.016,1.556,0.271,2.111,0.824c0.547,0.547,0.841,1.313,0.823,2.104l-1.74,40.002
							C772.901,691.836,771.665,693.013,770.16,693.013z"/>
					</g>
					<g>
						<path fill="#5A5B5B" d="M771.9,653.013c-0.765,0-1.522-0.305-2.077-0.925c-1.035-1.138-0.959-2.921,0.185-3.954l21.473-19.631
							c1.152-1.06,2.928-0.967,3.962,0.178c1.052,1.135,0.968,2.918-0.168,3.96l-21.481,19.631
							C773.264,652.768,772.582,653.013,771.9,653.013z"/>
					</g>
					<g>
						<path fill="#5A5B5B" d="M865.604,653.013c-0.656,0-1.295-0.22-1.824-0.674l-22.979-19.622c-1.187-1.01-1.32-2.777-0.319-3.963
							c1.018-1.176,2.793-1.311,3.953-0.312l22.986,19.624c1.187,1.008,1.328,2.775,0.32,3.952
							C867.187,652.666,866.404,653.013,865.604,653.013z"/>
					</g>
					<g>
						<path fill="#5A5B5B" d="M849.583,592.74c-0.968,0-1.893-0.496-2.432-1.389c-0.781-1.345-0.319-3.061,1.01-3.843l25.384-14.787
							c1.329-0.791,3.053-0.337,3.845,1.011c0.781,1.345,0.327,3.061-1.011,3.834l-25.383,14.796
							C850.55,592.613,850.071,592.74,849.583,592.74z"/>
					</g>
					<g>
						<path fill="#5A5B5B" d="M784.66,591.975c-0.505,0-1.001-0.127-1.463-0.403l-23.146-14.021
							c-1.33-0.807-1.742-2.532-0.942-3.853c0.799-1.328,2.523-1.748,3.852-0.95l23.146,14.021c1.337,0.808,1.758,2.524,0.959,3.853
							C786.536,591.495,785.611,591.975,784.66,591.975z"/>
					</g>
					<g>
						<path fill="#5A5B5B" d="M817.143,567.439L817.143,567.439c-1.548,0-2.801-1.262-2.801-2.816v-18.125
							c0-1.548,1.261-2.802,2.826-2.802l0,0c1.53,0,2.801,1.254,2.801,2.802l-0.018,18.125
							C819.951,566.178,818.698,567.439,817.143,567.439z"/>
					</g>
					<g>
						<path fill="#5A5B5B" d="M842.602,633.382h-49.236c-1.313,0-2.465-0.935-2.733-2.231l-8.73-41.404
							c-0.219-1.068,0.192-2.171,1.068-2.826l32.666-24.542c1.036-0.766,2.424-0.749,3.424,0.032l32.256,25.324
							c0.8,0.632,1.193,1.659,1.026,2.676l-6.974,40.633C845.143,632.388,843.973,633.382,842.602,633.382z M795.652,627.762h44.586
							l6.282-36.654l-29.219-22.935l-29.521,22.178L795.652,627.762z"/>
					</g>
				</g>
			</g>
			<g>
				<g>
					<g>
						<path fill="#5A5B5B" d="M948.998,491.803c0,0,0,0-0.018,0c-19.066,0-34.677-5.519-45.098-15.939
							c-15.577-15.567-19.933-41.944-12.288-74.233c6.51-27.452,20.783-54.745,37.276-71.23
							c23.323-23.332,66.479-40.918,100.357-40.918c19.092,0,34.678,5.509,45.09,15.938c15.578,15.551,19.959,41.928,12.297,74.233
							c-6.485,27.436-20.782,54.729-37.276,71.222C1026.032,474.199,982.877,491.803,948.998,491.803z M1029.229,302.576
							c-30.295,0-70.306,16.275-91.105,37.075c-14.643,14.635-27.915,40.161-33.786,64.99c-6.476,27.318-3.264,49.901,8.797,61.971
							c10.002,9.992,25.015,12.095,35.864,12.095c30.287,0,70.306-16.284,91.088-37.083c14.645-14.651,27.916-40.153,33.803-64.991
							c6.461-27.326,3.265-49.9-8.822-61.961C1055.075,304.662,1040.07,302.576,1029.229,302.576z"/>
					</g>
					<g>
						<path fill="#5A5B5B" d="M908.518,474.51c-0.102,0-0.194-0.025-0.286-0.025c-1.8-0.144-3.138-1.724-2.994-3.523
							c11.531-136.524,162.387-163.894,163.925-164.154c1.732-0.303,3.449,0.892,3.769,2.675c0.304,1.783-0.892,3.482-2.675,3.785
							c-1.463,0.244-147.391,26.821-158.492,158.232C911.621,473.223,910.183,474.51,908.518,474.51z"/>
					</g>
					<g>
						<path fill="#5A5B5B" d="M908.5,474.519c-1.682,0-3.12-1.287-3.263-3.003c-0.144-1.8,1.194-3.373,2.994-3.532
							c131.436-11.095,158.005-157.03,158.257-158.502c0.311-1.783,1.969-2.978,3.777-2.675c1.782,0.303,2.969,2.002,2.673,3.777
							c-0.261,1.538-27.628,152.395-164.152,163.926C908.677,474.519,908.584,474.519,908.5,474.519z"/>
					</g>
				</g>
			</g>
			<g>
				<g>
					<g>
						<path fill="#5A5B5B" d="M1096.052,708.152c-55.779,0-101.181-45.394-101.181-101.182c0-55.806,45.401-101.198,101.181-101.198
							c55.806,0,101.199,45.393,101.199,101.198C1197.251,662.759,1151.857,708.152,1096.052,708.152z M1096.052,516.58
							c-49.834,0-90.374,40.557-90.374,90.391c0,49.825,40.54,90.374,90.374,90.374c49.843,0,90.391-40.549,90.391-90.374
							C1186.442,557.137,1145.895,516.58,1096.052,516.58z"/>
					</g>
					<g>
						<path fill="#5A5B5B" d="M1190.522,625.61h-188.579c-1.488,0-2.7-1.212-2.7-2.702c0-1.497,1.212-2.708,2.7-2.708h188.579
							c1.488,0,2.69,1.211,2.69,2.708C1193.213,624.398,1192.011,625.61,1190.522,625.61z"/>
					</g>
					<g>
						<path fill="#5A5B5B" d="M1179.639,656.468h-167.165c-1.488,0-2.708-1.211-2.708-2.708c0-1.488,1.22-2.699,2.708-2.699h167.165
							c1.505,0,2.7,1.211,2.7,2.699C1182.339,655.257,1181.144,656.468,1179.639,656.468z"/>
					</g>
					<g>
						<path fill="#5A5B5B" d="M1190.657,594.53H1000.27c-1.479,0-2.69-1.211-2.69-2.699c0-1.497,1.211-2.708,2.69-2.708h190.388
							c1.497,0,2.69,1.211,2.69,2.708C1193.348,593.319,1192.154,594.53,1190.657,594.53z"/>
					</g>
					<g>
						<path fill="#5A5B5B" d="M1180.589,564.581h-169.065c-1.479,0-2.708-1.211-2.708-2.691c0-1.488,1.229-2.699,2.708-2.699
							h169.065c1.497,0,2.708,1.211,2.708,2.699C1183.297,563.37,1182.086,564.581,1180.589,564.581z"/>
					</g>
					<g>
						<path fill="#5A5B5B" d="M1079.256,564.581c-1.497,0-2.708-1.211-2.708-2.691v-49.313c0-1.488,1.211-2.7,2.708-2.7
							s2.7,1.212,2.7,2.7v49.313C1081.956,563.37,1080.753,564.581,1079.256,564.581z"/>
					</g>
					<g>
						<path fill="#5A5B5B" d="M1049.313,564.581c-1.489,0-2.7-1.211-2.7-2.691V523.2c0-1.489,1.211-2.7,2.7-2.7
							c1.505,0,2.7,1.211,2.7,2.7v38.689C1052.014,563.37,1050.818,564.581,1049.313,564.581z"/>
					</g>
					<g>
						<path fill="#5A5B5B" d="M1112.445,564.581c-1.489,0-2.7-1.211-2.7-2.691v-49.313c0-1.488,1.211-2.7,2.7-2.7
							c1.505,0,2.699,1.212,2.699,2.7v49.313C1115.145,563.37,1113.95,564.581,1112.445,564.581z"/>
					</g>
					<g>
						<path fill="#5A5B5B" d="M1142.547,564.581c-1.498,0-2.709-1.211-2.709-2.691V523.2c0-1.489,1.211-2.7,2.709-2.7
							c1.488,0,2.691,1.211,2.691,2.7v38.689C1145.238,563.37,1144.035,564.581,1142.547,564.581z"/>
					</g>
					<g>
						<path fill="#5A5B5B" d="M1079.256,704.325c-1.497,0-2.708-1.202-2.708-2.699V653.76c0-1.488,1.211-2.699,2.708-2.699
							s2.7,1.211,2.7,2.699v47.866C1081.956,703.123,1080.753,704.325,1079.256,704.325z"/>
					</g>
					<g>
						<path fill="#5A5B5B" d="M1049.313,693.282c-1.489,0-2.7-1.211-2.7-2.708V653.76c0-1.488,1.211-2.699,2.7-2.699
							c1.505,0,2.7,1.211,2.7,2.699v36.814C1052.014,692.071,1050.818,693.282,1049.313,693.282z"/>
					</g>
					<g>
						<path fill="#5A5B5B" d="M1112.445,703.848c-1.489,0-2.7-1.211-2.7-2.708v-47.38c0-1.488,1.211-2.699,2.7-2.699
							c1.505,0,2.699,1.211,2.699,2.699v47.38C1115.145,702.637,1113.95,703.848,1112.445,703.848z"/>
					</g>
					<g>
						<path fill="#5A5B5B" d="M1142.547,693.282c-1.498,0-2.709-1.211-2.709-2.708V653.76c0-1.488,1.211-2.699,2.709-2.699
							c1.488,0,2.691,1.211,2.691,2.699v36.814C1145.238,692.071,1144.035,693.282,1142.547,693.282z"/>
					</g>
				</g>
			</g>
		</g>
	</g>


</svg>
