<?xml version="1.0" encoding="utf-8"?>
<!-- Generator: Adobe Illustrator 15.1.0, SVG Export Plug-In . SVG Version: 6.00 Build 0)  -->
<!DOCTYPE svg PUBLIC "-//W3C//DTD SVG 1.1//EN" "http://www.w3.org/Graphics/SVG/1.1/DTD/svg11.dtd">
<svg version="1.1" id="Layer_1" xmlns="http://www.w3.org/2000/svg" xmlns:xlink="http://www.w3.org/1999/xlink" x="0px" y="0px"
	 width="750px" height="750px" viewBox="0 0 750 750" enable-background="new 0 0 750 750" xml:space="preserve">
<g>
	<path fill="#5A5B5B" d="M252.761,390.522c-37.451,0-67.92,30.469-67.92,67.92s30.469,67.92,67.92,67.92s67.92-30.469,67.92-67.92
		c0-23.434-11.93-44.132-30.035-56.345c3.493-10.026,6.03-20.73,6.745-31.625c50.619,13.299,98.234,94.011,98.726,94.854
		c0.904,1.548,2.557,2.48,4.318,2.48c0.203,0,0.408-0.013,0.613-0.038c1.982-0.244,3.631-1.646,4.189-3.565l17.805-61.197
		l9.467-25.429c2.451,2.154,5.635,5.035,9.332,8.576c0.969,0.929,2.215,1.39,3.457,1.39c1.316,0,2.631-0.517,3.613-1.542
		c1.91-1.994,1.842-5.159-0.154-7.068c-5.504-5.273-9.875-9.108-12.523-11.359l9.57-25.704h19.256c2.762,0,5-2.239,5-5s-2.238-5-5-5
		h-46.768c-2.762,0-5,2.239-5,5s2.238,5,5,5h16.842l-19.016,51.074c-41.562-34.172-101.788-45.981-118.519-48.704v-25.725h18.081
		c2.761,0,5-2.239,5-5s-2.239-5-5-5H292.6c-2.761,0-5,2.239-5,5v50.825c0,11.096-2.333,22.222-5.851,32.694
		C272.952,392.865,263.127,390.522,252.761,390.522z M412.61,403.074l-13.846,47.586c-15.027-23.137-56.054-80.179-101.164-90.437
		v-5.815C315.911,357.617,374.62,370.083,412.61,403.074z M310.681,458.442c0,31.938-25.983,57.92-57.92,57.92
		s-57.92-25.982-57.92-57.92s25.983-57.92,57.92-57.92c9.132,0,17.773,2.132,25.463,5.912
		c-11.335,27.436-28.949,48.389-29.267,48.763c-1.792,2.102-1.542,5.258,0.56,7.05c0.941,0.803,2.095,1.195,3.242,1.195
		c1.413,0,2.818-0.596,3.807-1.755c1.104-1.295,18.585-22.038,30.372-49.969C301.32,422.267,310.681,439.279,310.681,458.442z"/>
	<path fill="#5A5B5B" d="M498.553,516.362c-26.818,0-50.576-18.956-56.49-45.074c-0.611-2.693-3.287-4.381-5.982-3.772
		c-2.693,0.61-4.381,3.288-3.771,5.981c3.346,14.779,11.715,28.197,23.564,37.78c12.027,9.728,27.186,15.085,42.68,15.085
		c37.451,0,67.92-30.469,67.92-67.92c0-9.17-1.795-18.065-5.336-26.439c-1.076-2.545-4.012-3.733-6.553-2.658
		c-2.543,1.075-3.734,4.009-2.658,6.553c3.018,7.135,4.547,14.721,4.547,22.545C556.473,490.38,530.49,516.362,498.553,516.362z"/>
	<path fill="#5A5B5B" d="M571.69,415.134c0.309-1.326,0.061-2.722-0.684-3.861c-16.049-24.605-43.135-39.295-72.453-39.295
		c-47.678,0-86.465,38.788-86.465,86.465c0,0.789,0.025,1.574,0.053,2.359l0.018,0.531c0.045,1.382,0.66,2.684,1.699,3.596
		c0.916,0.805,2.09,1.243,3.299,1.243c0.16,0,0.322-0.008,0.486-0.023l84.242-8.228c0.732-0.071,1.439-0.304,2.072-0.68l65.42-38.94
		C570.547,417.603,571.381,416.46,571.69,415.134z"/>
	<path fill="#5A5B5B" d="M119.744,363.797c1.561,0.889,3.479,0.874,5.024-0.043l65.073-38.563l65.073,38.563
		c0.799,0.474,1.677,0.7,2.544,0.7c1.708,0,3.373-0.876,4.306-2.452c1.408-2.375,0.624-5.442-1.752-6.85l-67.622-40.073
		c-1.571-0.932-3.526-0.932-5.098,0l-60.073,35.6v-14.914l62.622-37.11l65.073,38.563c2.374,1.408,5.443,0.624,6.85-1.752
		c1.408-2.375,0.624-5.442-1.752-6.85L192.39,288.54c-1.571-0.932-3.526-0.932-5.098,0l-67.622,40.073
		c-1.52,0.9-2.451,2.535-2.451,4.301v26.538C117.219,361.249,118.183,362.908,119.744,363.797z"/>
	<path fill="#5A5B5B" d="M124.769,270.605l65.073-38.567l62.622,37.115v14.915l-60.073-35.6c-1.571-0.932-3.526-0.932-5.098,0
		l-67.622,40.073c-2.376,1.408-3.16,4.475-1.752,6.85c0.934,1.576,2.598,2.452,4.306,2.452c0.866,0,1.745-0.226,2.544-0.7
		l65.073-38.563l65.073,38.563c1.545,0.917,3.463,0.932,5.024,0.043c1.561-0.889,2.525-2.548,2.525-4.344v-26.538
		c0-1.766-0.932-3.401-2.451-4.301l-67.622-40.078c-1.572-0.932-3.526-0.932-5.099,0l-67.622,40.078
		c-2.375,1.408-3.16,4.475-1.752,6.851C119.326,271.228,122.392,272.012,124.769,270.605z"/>
	<path fill="#5A5B5B" d="M479.139,217.129H653.84c2.762,0,5-2.239,5-5s-2.238-5-5-5H479.139c-2.762,0-5,2.239-5,5
		S476.377,217.129,479.139,217.129z"/>
	<path fill="#5A5B5B" d="M613.387,364.453h21.055c2.762,0,5-2.239,5-5V226.225c0-2.761-2.238-5-5-5H499.198c-2.762,0-5,2.239-5,5
		v133.228c0,2.761,2.238,5,5,5h71.123c2.762,0,5-2.239,5-5v-78.145h33.066v78.145C608.387,362.214,610.625,364.453,613.387,364.453z
		"/>
	<path fill="#5A5B5B" d="M691.242,532.871H58.758c-2.761,0-5,2.238-5,5s2.239,5,5,5h632.485c2.762,0,5-2.238,5-5
		S694.004,532.871,691.242,532.871z"/>
</g>
</svg>
