<?xml version="1.0" encoding="utf-8"?>
<!-- Generator: Adobe Illustrator 15.1.0, SVG Export Plug-In . SVG Version: 6.00 Build 0)  -->
<!DOCTYPE svg PUBLIC "-//W3C//DTD SVG 1.1//EN" "http://www.w3.org/Graphics/SVG/1.1/DTD/svg11.dtd">
<svg version="1.1" id="Layer_1" xmlns="http://www.w3.org/2000/svg" xmlns:xlink="http://www.w3.org/1999/xlink" x="0px" y="0px"
	 width="750px" height="750px" viewBox="0 0 750 750" enable-background="new 0 0 750 750" xml:space="preserve">
<g>
	<path fill="#5A5B5B" d="M303.047,376.167H403.75c4.717,0,8.555-3.759,8.555-8.379v-49.487c0-4.62-3.838-8.379-8.555-8.379H303.047
		c-4.717,0-8.555,3.759-8.555,8.379v49.487C294.492,372.408,298.33,376.167,303.047,376.167z M304.492,319.922h97.813v46.245
		h-97.813V319.922z"/>
	<path fill="#5A5B5B" d="M395.664,452.236h14.429c4.706,0,8.535-3.824,8.535-8.525v-11.88h1.548c4.585,0,8.315-3.798,8.315-8.467
		V287.929c0-5.75-3.752-10.867-9.124-12.444c-0.002-0.001-0.005-0.001-0.008-0.002c-8.69-2.537-28.837-6.792-66.112-6.792
		c-37.239,0-57.396,4.255-66.104,6.794c-5.376,1.576-9.131,6.693-9.131,12.444v135.435c0,4.669,3.73,8.467,8.315,8.467h1.558v11.88
		c0,4.701,3.827,8.525,8.53,8.525h14.429c4.706,0,8.535-3.824,8.535-8.525v-11.88h67.749v11.88
		C387.129,448.412,390.958,452.236,395.664,452.236z M314.38,421.831c-2.762,0-5,2.238-5,5v15.405h-11.494v-15.405
		c0-2.762-2.238-5-5-5h-4.873V287.929c0-1.342,0.799-2.513,1.937-2.846c8.188-2.387,27.301-6.392,63.298-6.392
		c36.031,0,55.132,4.004,63.312,6.392c1.138,0.338,1.933,1.508,1.933,2.847v133.901h-4.863c-2.762,0-5,2.238-5,5v15.405h-11.499
		v-15.405c0-2.762-2.238-5-5-5H314.38z"/>
	<path fill="#5A5B5B" d="M321.001,385.61h-18.267c-4.704,0-8.53,3.827-8.53,8.53v7.363c0,4.709,3.826,8.54,8.53,8.54h18.267
		c4.701,0,8.525-3.831,8.525-8.54v-7.363C329.527,389.437,325.702,385.61,321.001,385.61z M319.527,400.044h-15.322v-4.434h15.322
		V400.044z"/>
	<path fill="#5A5B5B" d="M310.581,309.013c2.762,0,5-2.239,5-5v-6.631h75.635v6.631c0,2.761,2.238,5,5,5s5-2.239,5-5v-8.247
		c0-4.623-3.759-8.384-8.379-8.384H313.97c-4.626,0-8.389,3.761-8.389,8.384v8.247C305.581,306.775,307.82,309.013,310.581,309.013z
		"/>
	<path fill="#5A5B5B" d="M412.305,401.504v-7.363c0-4.703-3.831-8.53-8.54-8.53h-18.257c-4.703,0-8.53,3.827-8.53,8.53v7.363
		c0,4.709,3.827,8.54,8.53,8.54h18.257C408.474,410.044,412.305,406.213,412.305,401.504z M402.305,400.044h-15.327v-4.434h15.327
		V400.044z"/>
	<path fill="#5A5B5B" d="M444.815,212.71c0-2.761-2.238-5-5-5H257.803c-2.762,0-5,2.239-5,5v308.872c0,2.762,2.238,5,5,5h182.012
		c2.762,0,5-2.238,5-5s-2.238-5-5-5H262.803V217.71h177.012C442.576,217.71,444.815,215.471,444.815,212.71z"/>
	<path fill="#5A5B5B" d="M471.787,528.535c-2.762,0-5,2.238-5,5c0,26.475-21.538,48.013-48.013,48.013H277.393
		c-26.472,0-48.008-21.538-48.008-48.013v-317.07c0-26.474,21.536-48.013,48.008-48.013h141.382
		c26.475,0,48.013,21.539,48.013,48.013c0,2.761,2.238,5,5,5s5-2.239,5-5c0-31.988-26.024-58.013-58.013-58.013H277.393
		c-31.985,0-58.008,26.024-58.008,58.013v317.07c0,31.988,26.022,58.013,58.008,58.013h141.382
		c31.988,0,58.013-26.024,58.013-58.013C476.787,530.773,474.549,528.535,471.787,528.535z"/>
	<path fill="#5A5B5B" d="M322.964,550.307c-2.762,0-5,2.238-5,5s2.238,5,5,5h60.576c2.762,0,5-2.238,5-5s-2.238-5-5-5H322.964z"/>
	<path fill="#5A5B5B" d="M460.279,240.971v13.101c0,0.142,0.006,0.285,0.019,0.426l14.224,166.226
		c0.221,2.586,2.386,4.573,4.981,4.573h25.083c2.601,0,4.767-1.993,4.982-4.585l13.853-166.226c0.012-0.138,0.018-0.276,0.018-0.415
		v-13.101c0-2.761-2.238-5-5-5h-53.159C462.517,235.971,460.279,238.21,460.279,240.971z"/>
	<path fill="#5A5B5B" d="M491.861,436.01c-21.369,0-38.755,17.386-38.755,38.755s17.386,38.755,38.755,38.755
		s38.755-17.386,38.755-38.755S513.23,436.01,491.861,436.01z"/>
</g>
</svg>
