<?xml version="1.0" encoding="utf-8"?>
<!-- Generator: Adobe Illustrator 22.0.1, SVG Export Plug-In . SVG Version: 6.00 Build 0)  -->
<svg version="1.1" id="Layer_1" xmlns="http://www.w3.org/2000/svg" xmlns:xlink="http://www.w3.org/1999/xlink" x="0px" y="0px"
	 viewBox="0 0 750 750" style="enable-background:new 0 0 750 750;" xml:space="preserve">
<style type="text/css">
	.st0{fill:#5A5B5B;}
</style>
<g>
	<g>
		<g>
			<path class="st0" d="M108.5,525.8c-2.1,0-3.8-1.7-3.8-3.8V396.7c0-2.1,1.7-3.8,3.8-3.8c2.1,0,3.8,1.7,3.8,3.8V522
				C112.3,524,110.6,525.8,108.5,525.8z"/>
		</g>
		<g>
			<path class="st0" d="M446,360.7c-0.6,0-1.2-0.1-1.6-0.3l-203.5-97.5L178,298.6c-1.8,1-4.2,0.5-5.2-1.4c-1-1.8-0.5-4.2,1.4-5.2
				l64.6-36.7c1-0.6,2.4-0.7,3.6-0.1l205.3,98.3c1.8,0.9,2.7,3.2,1.7,5.1C448.8,359.9,447.4,360.7,446,360.7z"/>
		</g>
		<g>
			<path class="st0" d="M385.2,526.9H277.7c-2.1,0-3.8-1.7-3.8-3.8V379.4h-64.6v142.4c0,2.1-1.7,3.8-3.8,3.8h-80.8
				c-2.1,0-3.8-1.7-3.8-3.8s1.7-3.8,3.8-3.8h77V375.6c0-2.1,1.7-3.8,3.8-3.8h72.2c2.1,0,3.8,1.7,3.8,3.8v143.7h99.8V356.9
				c0-2.1,1.7-3.8,3.8-3.8c2.1,0,3.8,1.7,3.8,3.8v166.2C389,525.2,387.2,526.9,385.2,526.9z"/>
		</g>
	</g>
	<g>
		<g>
			<g>
				<g>
					<path class="st0" d="M94.9,400.7c-47,0-85.1-38.2-85.1-85.1c0-47,38.2-85.1,85.1-85.1c47,0,85.1,38.2,85.1,85.1
						C180.1,362.5,141.9,400.7,94.9,400.7z M94.9,238.1c-42.7,0-77.4,34.7-77.4,77.4s34.7,77.4,77.4,77.4s77.4-34.7,77.4-77.4
						C172.5,272.8,137.6,238.1,94.9,238.1z"/>
				</g>
			</g>
		</g>
		<g>
			<g>
				<path class="st0" d="M50.8,340.2c-4.4,0-8.2-0.8-11.3-2.3c-3.1-1.6-5.7-3.6-7.8-6.2l7.4-7c1.7,2,3.5,3.3,5.3,4.4s4,1.5,6.6,1.5
					c2.1,0,3.7-0.6,5-1.6s2-2.5,2-4.3v-0.1c0-2-0.8-3.6-2.5-4.6s-4-1.6-7-1.6H44l-1.7-6.8L54,299.8H34.6v-9.3h33.2v8.1l-12.5,11.9
					c1.7,0.2,3.3,0.7,4.8,1.4c1.6,0.6,3,1.5,4.3,2.5c1.3,1,2.2,2.4,3,4s1.2,3.6,1.2,5.9v0.1c0,2.3-0.5,4.5-1.3,6.5s-2,3.6-3.6,5.1
					c-1.5,1.5-3.3,2.5-5.7,3.3C56,339.8,53.6,340.2,50.8,340.2z"/>
			</g>
			<g>
				<path class="st0" d="M98,340.2c-3.2,0-6.2-0.7-8.9-2c-2.7-1.3-5-3.1-6.9-5.3c-1.8-2.3-3.3-5-4.4-8.1c-1-3.1-1.5-6.3-1.5-9.9
					v-0.1c0-3.6,0.6-6.9,1.6-9.9c1-3.1,2.5-5.8,4.5-8.1c2-2.3,4.3-4,6.9-5.4c2.7-1.3,5.7-2,8.9-2c3.2,0,6.2,0.7,8.9,2
					c2.7,1.3,5,3.1,6.9,5.3c1.8,2.3,3.3,5,4.4,8.1c1,3.1,1.6,6.3,1.6,9.9v0.1c0,3.6-0.6,6.9-1.6,9.9c-1,3.1-2.5,5.8-4.5,8.1
					c-2,2.3-4.3,4-6.9,5.4C104.4,339.5,101.4,340.2,98,340.2z M98.3,330.5c1.6,0,3.1-0.3,4.4-1.2c1.3-0.8,2.4-1.8,3.3-3.2
					c0.9-1.4,1.6-3,2.2-5c0.5-1.8,0.7-3.9,0.7-6.2v-0.1c0-2.2-0.2-4.3-0.8-6.2c-0.5-1.8-1.3-3.6-2.2-5c-0.9-1.4-2.1-2.5-3.5-3.3
					s-2.8-1.2-4.4-1.2s-3.1,0.3-4.4,1.2c-1.3,0.8-2.4,1.8-3.3,3.2c-0.9,1.4-1.6,3-2.2,5c-0.5,1.8-0.8,3.9-0.8,6.2v0.1
					c0,2.2,0.2,4.3,0.8,6.2c0.6,2,1.3,3.6,2.2,5c0.9,1.4,2.1,2.4,3.3,3.2C95.1,330,96.6,330.5,98.3,330.5z"/>
			</g>
			<g>
				<path class="st0" d="M128.5,288.1h10.6v27.2l12.5-13.6h12.8l-14.3,14.8l14.8,22.7h-12.2l-9.8-15.3l-3.7,3.9v11.4h-10.6v-51.1
					H128.5z"/>
			</g>
		</g>
	</g>
	<g>
		<g>
			<path class="st0" d="M315.6,284.1c-1.3,0-2.5-0.7-3.3-1.8c-1-1.8-0.5-4.2,1.4-5.2l72.7-42.1c1-0.6,2.4-0.7,3.6-0.1l83.1,39.8
				c1.8,0.9,2.7,3.2,1.7,5.1c-0.9,1.8-3.2,2.7-5.1,1.7l-81.2-38.9l-71,41.1C316.8,284,316.1,284.1,315.6,284.1z"/>
		</g>
	</g>
	<g>
		<g>
			<path class="st0" d="M734.8,364.9c-0.6,0-1-0.1-1.6-0.3l-196.8-90.4L425,331.9c-1.8,0.9-4.2,0.2-5.1-1.6
				c-0.9-1.8-0.2-4.2,1.6-5.1l113.1-58.5c1-0.6,2.3-0.6,3.3-0.1l198.4,91.1c2,0.9,2.8,3.1,1.8,5.1
				C737.6,364.1,736.2,364.9,734.8,364.9z"/>
		</g>
		<g>
			<path class="st0" d="M681.8,526.9H558.2c-2.1,0-3.8-1.7-3.8-3.8V379.4h-64.6v142.4c0,2.1-1.7,3.8-3.8,3.8h-80
				c-2.1,0-3.8-1.7-3.8-3.8s1.7-3.8,3.8-3.8h76.1V375.6c0-2.1,1.7-3.8,3.8-3.8h72.2c2.1,0,3.8,1.7,3.8,3.8v143.7h116V356.9
				c0-2.1,1.7-3.8,3.8-3.8s3.8,1.7,3.8,3.8v166.2C685.6,525.2,683.8,526.9,681.8,526.9z"/>
		</g>
	</g>
</g>
</svg>
