<?xml version="1.0" encoding="utf-8"?>
<!-- Generator: Adobe Illustrator 18.0.0, SVG Export Plug-In . SVG Version: 6.00 Build 0)  -->
<!DOCTYPE svg PUBLIC "-//W3C//DTD SVG 1.1//EN" "http://www.w3.org/Graphics/SVG/1.1/DTD/svg11.dtd">
<svg version="1.1" id="Layer_1" xmlns="http://www.w3.org/2000/svg" xmlns:xlink="http://www.w3.org/1999/xlink" x="0px" y="0px"
	 viewBox="0 0 595.3 595.3" enable-background="new 0 0 595.3 595.3" xml:space="preserve">
<g>
	<path fill="#5B5B5B" d="M301.1,97.3c-32.7,0-59.2,26.5-59.2,59.2c0,32.8,26.5,59.7,59.2,59.7c32.7,0,59.2-26.9,59.2-59.7
		C360.3,123.7,333.8,97.3,301.1,97.3z M254.6,220.4c-52.7,9.4-90.4,19.5-90.4,49v6.8l0.4,9.8c46.2-0.1,94.5,17.6,136.4,33.2
		c42.4-15.9,91-34.1,137.7-33.7l-0.4-9.4l-0.4-6.8c0-29.5-37.7-39.6-90.4-49c-12.4,11-28.6,17.5-46.5,17.5
		C283.2,237.9,267,231.4,254.6,220.4z M150.6,306.1c-2.5,0-4.8,0.3-7.2,0.4v120c43.5,2.2,88.1,12.6,150.9,35V340.2
		c-45.3-16.9-94.9-34.4-141.1-34.1c-0.1,0-0.3,0-0.4,0H150.6L150.6,306.1z M439.2,307.4c-43.4,1.9-89.1,17.2-131.3,32.8v121.3
		c62.7-22.4,107.4-32.7,150.9-35V307.4C452.3,307,445.8,307.1,439.2,307.4z"/>
</g>
</svg>
