<?xml version="1.0" encoding="utf-8"?>
<!-- Generator: Adobe Illustrator 15.1.0, SVG Export Plug-In . SVG Version: 6.00 Build 0)  -->
<!DOCTYPE svg PUBLIC "-//W3C//DTD SVG 1.1//EN" "http://www.w3.org/Graphics/SVG/1.1/DTD/svg11.dtd">
<svg version="1.1" id="Layer_1" xmlns="http://www.w3.org/2000/svg" xmlns:xlink="http://www.w3.org/1999/xlink" x="0px" y="0px"
	 width="750px" height="750px" viewBox="0 0 750 750" enable-background="new 0 0 750 750" xml:space="preserve">
<g>
	<path fill="#5A5B5B" d="M290.433,304.474c0.479,0,0.965-0.069,1.447-0.215l80.897-24.419l85.414,24.439
		c2.649,0.759,5.422-0.776,6.182-3.432c0.76-2.655-0.776-5.423-3.432-6.183l-80.984-23.172v-34.979c0,0,5.444-10.889,21.777-10.889
		c10.889,0,10.889,10.889,27.222,10.889c16.338,0,21.777-10.889,21.777-10.889V182.07c0,0-5.439,10.889-21.777,10.889
		c-10.889,0-10.889-10.889-27.222-10.889c-8.169,0-16.006,2.402-21.777,4.795v-4.795c0-3.008-2.437-5.439-5.444-5.439
		s-5.444,2.432-5.444,5.439v88.444l-80.078,24.171c-2.644,0.798-4.14,3.588-3.342,6.231
		C286.301,303.079,288.285,304.474,290.433,304.474z M379.956,201.338c0,0,10.889-6.807,21.777-6.807s16.333,10.889,27.222,10.889
		c5.444,0,10.889-2.725,10.889-2.725v14.053c0,0,0,5.439-10.889,5.439s-16.333-10.889-27.222-10.889s-21.777,8.174-21.777,8.174
		V201.338z"/>
	<path fill="#5A5B5B" d="M648.911,369.487H480.279c-2.762,0-5,2.239-5,5c0,2.762,2.238,5,5,5h168.633c2.762,0,5-2.238,5-5
		C653.911,371.726,651.673,369.487,648.911,369.487z"/>
	<path fill="#5A5B5B" d="M269.727,369.487H101.089c-2.761,0-5,2.239-5,5c0,2.762,2.239,5,5,5h168.638c2.761,0,5-2.238,5-5
		C274.727,371.726,272.488,369.487,269.727,369.487z"/>
	<path fill="#5A5B5B" d="M459.566,314.663H290.435c-2.761,0-5,2.239-5,5v253.706c0,2.762,2.239,5,5,5h49.668c2.761,0,5-2.238,5-5
		v-92.49h59.795v92.49c0,2.762,2.238,5,5,5h49.668c2.762,0,5-2.238,5-5V319.663C464.566,316.902,462.327,314.663,459.566,314.663z
		 M357.71,348.374v66.665h-35.205v-66.665H357.71z M392.3,415.039v-66.665h35.205v66.665H392.3z"/>
	<path fill="#5A5B5B" d="M269.727,390.971H106.812c-2.761,0-5,2.238-5,5v177.397c0,2.762,2.239,5,5,5h162.915c2.761,0,5-2.238,5-5
		V395.971C274.727,393.21,272.488,390.971,269.727,390.971z M146.333,504.887v-79.849h25.82v79.849H146.333z M210.591,504.887
		v-79.849h25.825v79.849H210.591z"/>
	<path fill="#5A5B5B" d="M643.198,390.971h-162.92c-2.762,0-5,2.238-5,5v177.397c0,2.762,2.238,5,5,5h162.92c2.762,0,5-2.238,5-5
		V395.971C648.198,393.21,645.96,390.971,643.198,390.971z M513.589,504.887v-79.849h25.825v79.849H513.589z M577.852,504.887
		v-79.849h25.825v79.849H577.852z"/>
</g>
</svg>
