<?xml version="1.0" encoding="utf-8"?>
<!-- Generator: Adobe Illustrator 18.1.1, SVG Export Plug-In . SVG Version: 6.00 Build 0)  -->
<svg version="1.1" id="Layer_1" xmlns="http://www.w3.org/2000/svg" xmlns:xlink="http://www.w3.org/1999/xlink" x="0px" y="0px"
	 viewBox="0 0 80.7 80.7" style="enable-background:new 0 0 80.7 80.7;" xml:space="preserve">
<style type="text/css">
	.st0{fill:#5A5A5A;}
	.st1{fill:none;}
</style>
<g>
	<path class="st0" d="M63.8,46.1l-6,10.4c-1.2,2.1-3.4,3.1-5.6,3h-4.8v4.8l-6-10.8l6-10.8v4.8h6.8l-5.3-9.2l10.4-6l4.3,7.5
		C64.8,41.6,65,44,63.8,46.1 M33.6,16.4h12c2.3,0,4.4,1.4,5.4,3.3l2.4,4.2l4.1-2.4l-6.3,10.6l-12.3,0.2l4.1-2.4l-3.4-5.9l-5.3,9.2
		l-10.4-6l4.3-7.5C29.2,17.8,31.2,16.4,33.6,16.4 M23.6,56.5l-6-10.4c-1.2-2-1-4.5,0.2-6.3l2.4-4.1l-4.1-2.4l12.3,0.2L34.7,44
		l-4.1-2.4l-3.4,5.8h10.6v12h-8.6C27,59.6,24.8,58.5,23.6,56.5z"/>
</g>
<rect x="0" y="0" class="st1" width="80.7" height="80.7"/>
</svg>
