<?xml version="1.0" encoding="utf-8"?>
<!-- Generator: Adobe Illustrator 15.1.0, SVG Export Plug-In . SVG Version: 6.00 Build 0)  -->
<!DOCTYPE svg PUBLIC "-//W3C//DTD SVG 1.1//EN" "http://www.w3.org/Graphics/SVG/1.1/DTD/svg11.dtd">
<svg version="1.1" id="Layer_1" xmlns="http://www.w3.org/2000/svg" xmlns:xlink="http://www.w3.org/1999/xlink" x="0px" y="0px"
	 width="750px" height="750px" viewBox="585 165 750 750" enable-background="new 585 165 750 750" xml:space="preserve">
<g>
	<path fill="#5A5B5B" d="M1261.006,448.696h-55.518c-3.313,0-6,2.686-6,6v122.532h-114.152c-3.313,0-6,2.687-6,6s2.687,6,6,6
		h114.152v58.386l-22.239-28.52c-1.129-1.448-2.858-2.299-4.694-2.311l-87.182-0.539c-0.013,0-0.025,0-0.038,0
		c-3.296,0-5.979,2.662-5.999,5.963c-0.021,3.313,2.649,6.017,5.963,6.037l84.274,0.521l29.915,38.362v150.281c0,3.313,2.687,6,6,6
		h55.518c3.313,0,6-2.687,6-6V454.696C1267.006,451.382,1264.319,448.696,1261.006,448.696z M1255.006,811.409h-43.518V460.696
		h43.518V811.409z"/>
	<path fill="#5A5B5B" d="M993.55,348.807c-2.035-2.616-5.804-3.085-8.42-1.051L696.567,572.27c-2.615,2.035-3.086,5.805-1.051,8.42
		c1.183,1.521,2.952,2.315,4.74,2.315c1.288,0,2.585-0.412,3.68-1.265l288.563-224.514
		C995.114,355.192,995.585,351.422,993.55,348.807z"/>
	<path fill="#5A5B5B" d="M1018.004,335.781c1.288,0,2.585-0.413,3.68-1.265l31.477-24.486c2.616-2.035,3.087-5.804,1.052-8.42
		c-2.034-2.616-5.806-3.085-8.419-1.052l-31.477,24.486c-2.616,2.035-3.087,5.804-1.052,8.42
		C1014.447,334.985,1016.216,335.781,1018.004,335.781z"/>
	<path fill="#5A5B5B" d="M973.065,563.955L826.149,678.272l-23.438-30.128c-0.598-0.769-1.375-1.38-2.262-1.781l-145.926-66.051
		l54.699-42.559l342.849-266.743l112.186,144.197L1028.87,520.543c-2.615,2.035-3.086,5.804-1.051,8.42s5.804,3.084,8.42,1.051
		l140.121-109.02c2.615-2.035,3.086-5.804,1.051-8.419l-119.555-153.668c-0.977-1.256-2.413-2.072-3.992-2.269
		c-1.581-0.199-3.172,0.241-4.428,1.218L701.853,528.283l-62.543,48.662c-1.659,1.291-2.521,3.355-2.273,5.442
		c0.248,2.087,1.569,3.893,3.484,4.759l153.629,69.537l26.212,33.693c0.978,1.256,2.414,2.072,3.993,2.27
		c0.248,0.03,0.496,0.046,0.743,0.046c1.328,0,2.626-0.44,3.685-1.265l151.652-118.002c2.615-2.035,3.086-5.805,1.051-8.42
		C979.45,562.39,975.68,561.923,973.065,563.955z"/>
	<path fill="#5A5B5B" d="M785.58,656.217c-24.522,16.655-58.025,10.257-74.682-14.264c-4.81-7.076-7.888-15.274-8.902-23.71
		c-0.395-3.29-3.386-5.639-6.673-5.241c-3.29,0.396-5.637,3.383-5.241,6.673c1.242,10.332,5.008,20.368,10.891,29.023
		c12.707,18.704,33.424,28.787,54.497,28.787c12.716,0,25.564-3.674,36.853-11.341c2.741-1.862,3.454-5.594,1.592-8.335
		C792.052,655.067,788.321,654.355,785.58,656.217z"/>
	<path fill="#5A5B5B" d="M1016.647,582.098l-40.682-52.289c-2.035-2.615-5.806-3.086-8.42-1.051
		c-2.615,2.035-3.086,5.804-1.051,8.42l40.682,52.289c1.183,1.521,2.951,2.315,4.739,2.315c1.288,0,2.586-0.412,3.681-1.265
		C1018.212,588.483,1018.683,584.713,1016.647,582.098z"/>
	<path fill="#5A5B5B" d="M1038.19,565.338c1.183,1.521,2.952,2.315,4.739,2.315c1.288,0,2.586-0.412,3.681-1.265
		c2.615-2.035,3.086-5.805,1.051-8.42l-40.682-52.283c-2.035-2.616-5.807-3.084-8.42-1.051c-2.615,2.035-3.086,5.805-1.051,8.42
		L1038.19,565.338z"/>
	<path fill="#5A5B5B" d="M967.193,527.085c6.899,0,13.433-2.243,18.898-6.49c13.39-10.433,15.808-29.816,5.389-43.212
		c-5.881-7.552-14.748-11.883-24.327-11.883c-6.898,0-13.428,2.242-18.885,6.485c-13.398,10.427-15.818,29.814-5.392,43.219
		C948.751,522.755,957.614,527.085,967.193,527.085z M955.636,481.458c3.33-2.589,7.313-3.958,11.518-3.958
		c5.853,0,11.268,2.645,14.856,7.253c6.358,8.175,4.881,20.007-3.287,26.372c-3.334,2.591-7.321,3.961-11.529,3.961
		c-5.85,0-11.262-2.643-14.846-7.25C945.984,499.654,947.46,487.82,955.636,481.458z"/>
	<path fill="#5A5B5B" d="M1048.138,569.588c-6.899,0-13.431,2.244-18.886,6.488c-6.491,5.048-10.627,12.323-11.646,20.486
		c-1.02,8.163,1.201,16.234,6.253,22.73c5.877,7.547,14.739,11.875,24.314,11.875c6.902,0,13.435-2.244,18.892-6.49
		c13.396-10.424,15.817-29.804,5.397-43.202C1066.583,573.921,1057.717,569.588,1048.138,569.588z M1059.696,615.207
		c-3.331,2.592-7.314,3.961-11.522,3.961c-5.848,0-11.26-2.642-14.844-7.245c-3.083-3.964-4.438-8.892-3.816-13.874
		c0.622-4.981,3.145-9.42,7.106-12.501c3.329-2.591,7.313-3.96,11.518-3.96c5.851,0,11.266,2.646,14.854,7.257
		C1069.35,597.02,1067.871,608.846,1059.696,615.207z"/>
</g>
</svg>
