<?xml version="1.0" encoding="utf-8"?>
<!-- Generator: Adobe Illustrator 18.0.0, SVG Export Plug-In . SVG Version: 6.00 Build 0)  -->
<!DOCTYPE svg PUBLIC "-//W3C//DTD SVG 1.1//EN" "http://www.w3.org/Graphics/SVG/1.1/DTD/svg11.dtd">
<svg version="1.1" id="Layer_1" xmlns="http://www.w3.org/2000/svg" xmlns:xlink="http://www.w3.org/1999/xlink" x="0px" y="0px"
	 viewBox="0 411 800 800" enable-background="new 0 411 800 800" xml:space="preserve">
<g>
	<g>
		<g>
			<path fill="#5A5B5B" d="M224.6,953.1c-1.4,0-2.5-1.1-2.5-2.5v-109c0-1.4,1.1-2.5,2.5-2.5s2.5,1.1,2.5,2.5v108.9
				C227.2,952,226,953.1,224.6,953.1z"/>
		</g>
		<g>
			<path fill="#5A5B5B" d="M447.4,844.1c-0.4,0-0.8-0.1-1.1-0.2L312,779.5l-110.8,64.2c-1.2,0.7-2.8,0.3-3.4-0.9
				c-0.7-1.2-0.3-2.8,0.9-3.4l111.9-64.9c0.7-0.4,1.6-0.5,2.3-0.1l135.5,64.9c1.2,0.6,1.8,2.1,1.2,3.3
				C449.2,843.6,448.3,844.1,447.4,844.1z"/>
		</g>
		<g>
			<path fill="#5A5B5B" d="M407.2,953.8h-70.9c-1.4,0-2.5-1.1-2.5-2.5v-94.8h-42.7v94c0,1.4-1.1,2.5-2.5,2.5h-53.3
				c-1.4,0-2.5-1.1-2.5-2.5s1.1-2.5,2.5-2.5h50.8v-94c0-1.4,1.1-2.5,2.5-2.5h47.7c1.4,0,2.5,1.1,2.5,2.5v94.8h65.9V841.6
				c0-1.4,1.1-2.5,2.5-2.5s2.5,1.1,2.5,2.5v109.7C409.8,952.7,408.6,953.8,407.2,953.8z"/>
		</g>
	</g>
	<g>
		<g>
			<path fill="#5A5B5B" d="M361.2,793.6c-0.9,0-1.7-0.5-2.2-1.2c-0.7-1.2-0.3-2.8,0.9-3.4l48-27.8c0.7-0.4,1.6-0.5,2.3-0.1
				l54.9,26.2c1.2,0.6,1.8,2.1,1.2,3.3c-0.6,1.2-2.1,1.8-3.3,1.2L409.3,766l-46.8,27.2C362.1,793.5,361.7,793.6,361.2,793.6z"/>
		</g>
	</g>
	<g>
		<g>
			<path fill="#5A5B5B" d="M638,846.9c-0.3,0-0.7-0.1-1-0.2L507.1,787l-73.6,38.1c-1.2,0.6-2.8,0.2-3.4-1.1s-0.2-2.8,1.1-3.4
				l74.7-38.7c0.7-0.4,1.5-0.4,2.2,0l131,60.2c1.2,0.6,1.8,2.1,1.2,3.3C639.9,846.4,639,846.9,638,846.9z"/>
		</g>
		<g>
			<path fill="#5A5B5B" d="M603,953.8h-81.6c-1.4,0-2.5-1.1-2.5-2.5v-94.8h-42.7v94c0,1.4-1.1,2.5-2.5,2.5H421
				c-1.4,0-2.5-1.1-2.5-2.5s1.1-2.5,2.5-2.5h50.2v-94c0-1.4,1.1-2.5,2.5-2.5h47.7c1.4,0,2.5,1.1,2.5,2.5v94.8h76.5V841.6
				c0-1.4,1.1-2.5,2.5-2.5s2.5,1.1,2.5,2.5v109.7C605.5,952.7,604.4,953.8,603,953.8z"/>
		</g>
	</g>
	<g>
		<g>
			<g>
				<path fill="#FFFFFF" d="M268.4,814.2c0,28.6-23.1,51.7-51.7,51.7s-51.8-23.1-51.8-51.7s23.1-51.7,51.7-51.7
					S268.4,785.7,268.4,814.2z"/>
				<path fill="#5A5B5B" d="M216.7,868.4c-29.8,0-54.1-24.3-54.1-54.1s24.3-54.1,54.1-54.1s54.1,24.3,54.1,54.1
					S246.5,868.4,216.7,868.4z M216.7,764.9c-27.2,0-49.3,22.1-49.3,49.3s22.1,49.3,49.3,49.3s49.3-22.1,49.3-49.3
					S243.8,764.9,216.7,764.9z"/>
			</g>
		</g>
		<g>
			<path fill="#5A5B5B" d="M177,823.9l10.4-8.5c1-0.8,1.8-1.5,2.5-2.2c0.7-0.6,1.3-1.3,1.6-1.8c0.4-0.6,0.8-1.2,0.9-1.7
				c0.2-0.5,0.3-1.2,0.3-1.8c0-1.3-0.4-2.3-1.2-3s-1.8-1-3-1c-1.3,0-2.3,0.3-3.2,1c-0.9,0.7-2,1.7-3.1,3.2l-4.8-3.9
				c0.8-1.1,1.6-2,2.3-2.8c0.8-0.8,1.6-1.5,2.5-2c0.9-0.5,1.9-1,3-1.3c1.1-0.3,2.3-0.4,3.8-0.4c1.6,0,3,0.2,4.4,0.7
				c1.3,0.5,2.5,1.1,3.4,2c0.9,0.9,1.6,1.8,2.2,3c0.5,1.2,0.8,2.5,0.8,4v0.1c0,1.3-0.2,2.5-0.5,3.5c-0.3,1-0.9,2-1.5,2.9
				c-0.7,0.9-1.5,1.8-2.5,2.7c-1.1,0.9-2.3,1.9-3.6,3l-5.1,3.9h13.6v5.9H177L177,823.9L177,823.9z"/>
			<path fill="#5A5B5B" d="M218.8,829.9c-2.1,0-4-0.4-5.7-1.3c-1.7-0.8-3.2-2-4.4-3.4c-1.2-1.4-2.1-3.1-2.8-5.1c-0.6-2-1-4.1-1-6.3
				v-0.1c0-2.3,0.3-4.4,1-6.3c0.7-2,1.6-3.7,2.8-5.1c1.3-1.4,2.7-2.6,4.4-3.4c1.7-0.9,3.6-1.3,5.7-1.3c2,0,3.9,0.4,5.6,1.3
				c1.7,0.8,3.2,2,4.4,3.4c1.2,1.4,2.1,3.1,2.8,5.1s1,4.1,1,6.3v0.1c0,2.3-0.3,4.4-1,6.3c-0.7,2-1.6,3.7-2.8,5.1
				c-1.3,1.4-2.7,2.6-4.4,3.4S220.9,829.9,218.8,829.9z M218.9,823.7c1.1,0,2-0.2,2.8-0.7c0.9-0.5,1.5-1.2,2.1-2
				c0.6-0.9,1.1-1.9,1.3-3.1c0.3-1.2,0.5-2.5,0.5-3.9v-0.1c0-1.4-0.2-2.7-0.5-3.9c-0.3-1.2-0.8-2.3-1.4-3.1
				c-0.6-0.9-1.3-1.6-2.2-2.1c-0.9-0.5-1.8-0.8-2.8-0.8c-1.1,0-2,0.2-2.8,0.7c-0.9,0.5-1.5,1.2-2.1,2c-0.6,0.9-1,1.9-1.3,3.1
				c-0.3,1.2-0.5,2.5-0.5,3.9v0.1c0,1.4,0.2,2.7,0.5,4c0.3,1.3,0.8,2.3,1.4,3.1c0.6,0.9,1.3,1.6,2.2,2.1
				C216.9,823.5,217.8,823.7,218.9,823.7z"/>
			<path fill="#5A5B5B" d="M238.1,796.8h6.8v17.3l7.9-8.7h8.1l-9.1,9.4l9.4,14.5h-7.7l-6.3-9.8l-2.4,2.5v7.3h-6.8L238.1,796.8
				L238.1,796.8z"/>
		</g>
	</g>
</g>
</svg>
