<?xml version="1.0" encoding="utf-8"?>
<!-- Generator: Adobe Illustrator 15.1.0, SVG Export Plug-In . SVG Version: 6.00 Build 0)  -->
<!DOCTYPE svg PUBLIC "-//W3C//DTD SVG 1.1//EN" "http://www.w3.org/Graphics/SVG/1.1/DTD/svg11.dtd">
<svg version="1.1" id="Layer_1" xmlns="http://www.w3.org/2000/svg" xmlns:xlink="http://www.w3.org/1999/xlink" x="0px" y="0px"
	 width="750px" height="750px" viewBox="0 0 750 750" enable-background="new 0 0 750 750" xml:space="preserve">
<g>
	<path fill="#5A5B5B" d="M557.665,179.953H468.53c-2.762,0-5,2.239-5,5s2.238,5,5,5h89.136c5.613,0,10.181,4.565,10.181,10.176
		v363.75c0,5.613-4.567,10.18-10.181,10.18H396.752H222.66H61.742c-5.611,0-10.176-4.566-10.176-10.18v-363.75
		c0-5.611,4.565-10.176,10.176-10.176h344.327c2.762,0,5-2.239,5-5s-2.238-5-5-5H61.742c-11.125,0-20.176,9.051-20.176,20.176
		v363.75c0,11.127,9.051,20.18,20.176,20.18h153.891l-19.386,55.867c-0.53,1.527-0.289,3.219,0.649,4.537s2.456,2.102,4.074,2.102
		h217.461c0.007,0,0.014,0,0.02,0c2.762,0,5-2.238,5-5c0-0.732-0.157-1.43-0.44-2.057l-19.232-55.449h153.887
		c11.128,0,20.181-9.053,20.181-20.18v-363.75C577.846,189.004,568.793,179.953,557.665,179.953z"/>
	<path fill="#5A5B5B" d="M401.923,206.628c0-2.761-2.238-5-5-5H68.246c-2.761,0-5,2.239-5,5v350.741c0,2.762,2.239,5,5,5h482.916
		c2.762,0,5-2.238,5-5V206.628c0-2.761-2.238-5-5-5h-92.725c-2.762,0-5,2.239-5,5s2.238,5,5,5h87.725v340.741H73.246V211.628
		h323.677C399.685,211.628,401.923,209.389,401.923,206.628z"/>
	<path fill="#5A5B5B" d="M197.601,501.92h216.485c21.771,0,39.482-17.711,39.482-39.482c0-21.773-17.712-39.486-39.482-39.486
		H197.601c-21.771,0-39.482,17.713-39.482,39.486C158.119,484.209,175.831,501.92,197.601,501.92z M197.601,432.951h216.485
		c16.257,0,29.482,13.227,29.482,29.486c0,16.258-13.226,29.482-29.482,29.482H197.601c-16.257,0-29.482-13.225-29.482-29.482
		C168.119,446.177,181.344,432.951,197.601,432.951z"/>
	<path fill="#5A5B5B" d="M197.601,485.119c12.506,0,22.681-10.176,22.681-22.682s-10.174-22.68-22.681-22.68
		c-12.509,0-22.686,10.174-22.686,22.68S185.093,485.119,197.601,485.119z"/>
	<path fill="#5A5B5B" d="M415.043,485.119c12.509,0,22.686-10.176,22.686-22.682s-10.177-22.68-22.686-22.68
		s-22.686,10.174-22.686,22.68S402.534,485.119,415.043,485.119z"/>
	<path fill="#5A5B5B" d="M237.386,456.828h142.217c2.762,0,5-2.238,5-5s-2.238-5-5-5H237.386c-2.761,0-5,2.238-5,5
		S234.625,456.828,237.386,456.828z"/>
	<path fill="#5A5B5B" d="M237.386,478.931h142.217c2.762,0,5-2.238,5-5s-2.238-5-5-5H237.386c-2.761,0-5,2.238-5,5
		S234.625,478.931,237.386,478.931z"/>
	<path fill="#5A5B5B" d="M370.654,276.267c-0.632-2.118-2.581-3.57-4.791-3.57H230.741c-2.761,0-5,2.239-5,5V403.16
		c0,2.762,2.239,5,5,5h135.122c0.948,0,1.876-0.27,2.677-0.775l31.495-19.961c1.891-1.199,2.755-3.508,2.114-5.654l-10.275-34.419
		l84.549-196.234c1.093-2.536-0.077-5.478-2.613-6.57c-2.531-1.09-5.478,0.077-6.57,2.613l-79.822,185.262l-10.004-33.515
		l74.503-163.101c1.147-2.512,0.041-5.478-2.471-6.625c-2.508-1.147-5.478-0.042-6.625,2.47L373.067,284.35L370.654,276.267z
		 M340.959,299.621l10.718,35.811h-46.072v-35.811H340.959z"/>
	<path fill="#5A5B5B" d="M462.643,136.606c4.565,2.874,9.819,4.393,15.193,4.393c9.888,0,18.93-4.989,24.188-13.343
		c8.392-13.327,4.379-30.996-8.944-39.385c-4.566-2.877-9.822-4.397-15.198-4.397c-9.886,0-18.928,4.987-24.188,13.342
		C445.307,110.538,449.322,128.208,462.643,136.606z"/>
	<path fill="#5A5B5B" d="M512.671,108.56l160.752,48.311c0.48,0.144,0.965,0.213,1.441,0.213c2.149,0,4.136-1.398,4.786-3.563
		c0.795-2.645-0.704-5.433-3.349-6.228L515.55,98.983c-2.646-0.792-5.433,0.705-6.228,3.35S510.027,107.765,512.671,108.56z"/>
	<path fill="#5A5B5B" d="M727.052,184.208c-7.853-15.667-21.336-27.34-37.966-32.867c-1.259-0.419-2.631-0.32-3.817,0.274
		c-1.186,0.594-2.087,1.635-2.505,2.894l-14.246,42.87l-10.919-23.753c-0.6-1.305-1.732-2.289-3.107-2.701l-145.024-43.457
		c-2.65-0.792-5.433,0.709-6.226,3.354c-0.792,2.645,0.71,5.432,3.354,6.225l142.86,42.809l14.443,31.42l-7.542,22.696
		c-0.87,2.621,0.548,5.451,3.168,6.322c2.619,0.87,5.451-0.547,6.322-3.168l24.76-74.509c11.943,5.179,21.601,14.294,27.505,26.073
		c6.656,13.281,7.741,28.356,3.055,42.451c-4.683,14.095-14.575,25.523-27.854,32.18c-13.28,6.657-28.357,7.745-42.454,3.059
		c-2.618-0.868-5.45,0.547-6.322,3.168c-0.87,2.621,0.548,5.451,3.168,6.321c6.8,2.26,13.789,3.381,20.751,3.381
		c10.068,0,20.075-2.347,29.338-6.99c15.668-7.854,27.34-21.338,32.863-37.966C736.186,217.665,734.906,199.878,727.052,184.208z"/>
	<path fill="#5A5B5B" d="M648.728,256.237c-1.055,2.552,0.159,5.476,2.712,6.531c4.382,1.811,9.668,2.25,10.256,2.293
		c0.128,0.01,0.254,0.014,0.379,0.014c2.592,0,4.784-2,4.981-4.626c0.206-2.753-1.859-5.153-4.612-5.359
		c-1.078-0.081-4.711-0.542-7.186-1.564C652.708,252.471,649.782,253.684,648.728,256.237z"/>
	<path fill="#5A5B5B" d="M664.264,253.542c0.128,0.01,0.254,0.014,0.379,0.014c2.589,0,4.776-1.996,4.977-4.619
		c0.211-2.751-1.851-5.152-4.601-5.366c-1.167-0.091-4.733-0.549-7.186-1.563c-2.553-1.058-5.476,0.157-6.531,2.708
		c-1.056,2.552,0.157,5.476,2.709,6.532C658.389,253.059,663.676,253.498,664.264,253.542z"/>
</g>
</svg>
