<?xml version="1.0" encoding="utf-8"?>
<!-- Generator: Adobe Illustrator 18.0.0, SVG Export Plug-In . SVG Version: 6.00 Build 0)  -->
<!DOCTYPE svg PUBLIC "-//W3C//DTD SVG 1.1//EN" "http://www.w3.org/Graphics/SVG/1.1/DTD/svg11.dtd">
<svg version="1.1" id="Layer_1" xmlns="http://www.w3.org/2000/svg" xmlns:xlink="http://www.w3.org/1999/xlink" x="0px" y="0px"
	 viewBox="0 0 595.3 595.3" enable-background="new 0 0 595.3 595.3" xml:space="preserve">
<g>
	<g>
		<path fill="#5B5B5B" d="M275,180.9c-1.4,0-2.7-0.1-4-0.3c-0.5-4.4-1.7-8.6-3.5-12.4c-6.1-13-18.9-22.3-34-23.1
			c-0.7,0-1.5-0.1-2.2-0.1c-1.4,0-2.8,0.1-4.2,0.2c-1.9-20.2-19-36.2-39.7-36.2c-22,0-39.9,17.9-39.9,39.9
			c0,21.9,17.8,39.8,39.7,39.9c-0.1-1.3-0.2-2.6-0.2-4c0-1.3,0.1-2.7,0.2-4c-17.6-0.1-31.7-14.3-31.7-31.9
			c0-17.7,14.3-31.9,31.9-31.9c17,0,30.8,13.1,31.9,29.8c-5.6,1.8-10.8,4.8-15,8.8c-7.9,7.3-12.9,17.7-12.9,29.3
			c0,22,17.9,39.9,39.9,39.9c17.1,0,31.7-10.8,37.4-25.9c1.2-3.2,2-6.7,2.4-10.2c1.3,0.1,2.6,0.2,4,0.2c-0.1-1.3-0.2-2.6-0.2-4
			C274.8,183.6,274.9,182.3,275,180.9z M260.3,198.3c-5.1,11-16.1,18.5-29,18.5c-17.7,0-31.9-14.3-31.9-31.9c0-9,3.7-17,9.6-22.8
			c2.8-2.7,6.1-5,9.7-6.5c-1.7,8.2-6.5,15.2-13.2,19.7c-1.1,3-1.7,6.2-1.7,9.6c0,0.2,0,0.3,0,0.5c12.6-5.7,21.8-17.8,23.3-32.1
			c1.4-0.2,2.8-0.3,4.2-0.3c0.9,0,1.9,0,2.8,0.1c10.9,0.9,20.2,7.3,25.2,16.3c1.5,2.7,2.7,5.7,3.3,8.9c-7.5-3.2-13.5-9.3-16.7-16.8
			c-2.9-1.8-6.1-3.1-9.5-3.7c3.1,13.8,13.5,25,26.9,29.2C262.9,191.1,261.9,194.9,260.3,198.3z"/>
		<path fill="#5B5B5B" d="M363.1,109.1c-19.2,0-35.3,13.7-39.1,31.8c2.7,0.3,5.3,0.8,7.8,1.6c3-14.5,15.8-25.4,31.3-25.4
			c17.7,0,31.9,14.3,31.9,31.9c0,17.7-14.3,31.9-31.9,31.9c-1.4,0-2.8-0.1-4.2-0.3c-0.4-3.8-1.3-7.4-2.7-10.8
			c-5.8-14.2-19.6-24.3-35.7-24.8c-0.4,0-0.8,0-1.2,0c-1.4,0-2.8,0.1-4.2,0.2c-1.9-20.2-19-36.2-39.7-36.2
			c-19.2,0-35.3,13.7-39.1,31.8c2.7,0.3,5.3,0.8,7.8,1.6c3-14.5,15.8-25.4,31.3-25.4c17,0,30.8,13.1,31.9,29.8
			c-6,1.9-11.3,5.2-15.7,9.4c-7.5,7.3-12.2,17.4-12.2,28.7c0,22,17.9,39.9,39.9,39.9c16.4,0,30.5-9.9,36.6-24.1
			c1.6-3.8,2.7-7.8,3.1-12.1c1.4,0.1,2.8,0.2,4.2,0.2c22,0,39.9-17.9,39.9-39.9C403,127,385.1,109.1,363.1,109.1z M347.6,199.5
			c-5.3,10.3-16,17.4-28.5,17.4c-17.7,0-31.9-14.3-31.9-31.9c0-8.7,3.5-16.6,9.1-22.4c2.9-2.9,6.3-5.3,10.1-7
			c-1.7,8.2-6.5,15.2-13.2,19.7c-1.1,3-1.7,6.2-1.7,9.6c0,0.2,0,0.3,0,0.5c12.6-5.7,21.8-17.8,23.3-32.1c1.4-0.2,2.8-0.3,4.2-0.3
			c0.6,0,1.2,0,1.8,0.1c11.9,0.7,22,7.8,26.9,18c1.1,2.3,2,4.8,2.5,7.3c-7.5-3.2-13.5-9.3-16.7-16.8c-2.9-1.8-6.1-3.1-9.5-3.7
			c3.1,13.8,13.5,25,26.9,29.2C350.7,191.5,349.5,195.7,347.6,199.5z"/>
	</g>
	<polygon fill="#5B5B5B" points="370.6,243.6 210,243.6 306.5,340 329,362.6 297.1,362.6 288.2,362.6 288.2,445.6 454.2,445.6 
		454.2,349.4 476.4,349.4 	"/>
	<polygon fill="#5B5B5B" points="191.3,243.6 85.5,349.4 107.6,349.4 107.6,445.6 164.4,445.6 164.4,384.5 210,384.5 210,445.6 
		253.4,445.6 275,445.6 275,349.4 297.1,349.4 	"/>
</g>
</svg>
