<?xml version="1.0" encoding="utf-8"?>
<!-- Generator: Adobe Illustrator 22.0.1, SVG Export Plug-In . SVG Version: 6.00 Build 0)  -->
<svg version="1.1" id="Layer_1" xmlns="http://www.w3.org/2000/svg" xmlns:xlink="http://www.w3.org/1999/xlink" x="0px" y="0px"
	 viewBox="0 0 595.3 595.3" style="enable-background:new 0 0 595.3 595.3;" xml:space="preserve">
<style type="text/css">
	.st0{fill:#616264;}
</style>
<g>
	<g>
		<path class="st0" d="M566.9,137.6H153.8c-4.5,0-8.1,3.6-8.1,8.1c0,4.5,3.6,8.1,8.1,8.1h197.7V174c0,4.5,3.6,8.1,8.1,8.1
			s8.1-3.6,8.1-8.1v-20.1h191v231.8h-191v-20.1c0-4.5-3.6-8.1-8.1-8.1s-8.1,3.6-8.1,8.1v20.1H43.3V153.8h20.9c4.5,0,8.1-3.6,8.1-8.1
			c0-4.5-3.6-8.1-8.1-8.1h-29c-4.5,0-8.1,3.6-8.1,8.1v248.2c0,4.5,3.6,8.1,8.1,8.1h531.7c4.5,0,8.1-3.6,8.1-8.1V145.7
			C575,141.2,571.4,137.6,566.9,137.6z"/>
	</g>
</g>
<g>
	<g>
		<path class="st0" d="M359.5,301.1c-4.5,0-8.1,3.6-8.1,8.1v28.2c0,4.5,3.6,8.1,8.1,8.1s8.1-3.6,8.1-8.1v-28.2
			C367.6,304.7,364,301.1,359.5,301.1z"/>
	</g>
</g>
<g>
	<g>
		<path class="st0" d="M359.5,244.6c-4.5,0-8.1,3.6-8.1,8.1V281c0,4.5,3.6,8.1,8.1,8.1s8.1-3.6,8.1-8.1v-28.2
			C367.6,248.2,364,244.6,359.5,244.6z"/>
	</g>
</g>
<g>
	<g>
		<path class="st0" d="M359.5,191.2c-4.5,0-8.1,3.6-8.1,8.1v28.2c0,4.5,3.6,8.1,8.1,8.1s8.1-3.6,8.1-8.1v-28.2
			C367.6,194.8,364,191.2,359.5,191.2z"/>
	</g>
</g>
<g>
	<g>
		<path class="st0" d="M294.6,307.8H164.2c-3.6,0-6.5,3.6-6.5,8.1c0,4.5,2.9,8.1,6.5,8.1h123.7v21.6H92.6V324H105
			c3.6,0,6.5-3.6,6.5-8.1c0-4.5-2.9-8.1-6.5-8.1H86.1c-3.6,0-6.5,3.6-6.5,8.1v38c0,4.5,2.9,8.1,6.5,8.1h208.5c3.6,0,6.5-3.6,6.5-8.1
			v-38C301.1,311.5,298.2,307.8,294.6,307.8z"/>
	</g>
</g>
<g>
	<g>
		<path class="st0" d="M294.6,239.8H164.2c-3.6,0-6.5,3.6-6.5,8.1s2.9,8.1,6.5,8.1h123.7v21.6H92.6V256H105c3.6,0,6.5-3.6,6.5-8.1
			s-2.9-8.1-6.5-8.1H86.1c-3.6,0-6.5,3.6-6.5,8.1v38c0,4.5,2.9,8.1,6.5,8.1h208.5c3.6,0,6.5-3.6,6.5-8.1v-38
			C301.1,243.4,298.2,239.8,294.6,239.8z"/>
	</g>
</g>
<g>
	<g>
		<path class="st0" d="M487.2,204.2c-1.4-0.7-3.1-0.7-4.5,0l-3.2,2c-24.1,14.4-54.5,14.4-78.6,0l-3.2-2c-1.4-0.9-3.1-0.9-4.5,0
			c-1.4,0.7-2.3,2.3-2.3,4v63.5c0,27.5,20,51.4,46.9,56.8c0.7,0.2,1.8,0.4,2.5,0.4c0.7,0,2-0.2,2.7-0.4l0,0
			c27-5.4,46.6-29.3,46.6-57.6v-62.8C489.6,206.3,488.7,204.9,487.2,204.2z M410.2,259.7c-1.8-1.8-1.8-4.5,0-6.3
			c6.7-6.7,17.4-6.7,24.1,0c1.8,1.8,1.8,4.5,0,6.3s-4.5,1.8-6.3,0c-3.2-3.2-8.3-3.2-11.5,0C414.7,261.4,412,261.4,410.2,259.7z
			 M461,288.3c-3.4,8.3-11.9,13.7-20.9,13.7s-17.1-5.4-20.5-13.7c-0.9-2.3,0.2-4.9,2.3-5.8c2.3-0.9,4.9,0.2,5.8,2.3
			c2.2,5,7,8.1,12.4,8.1s10.6-3.2,12.6-8.1c0.9-2.3,3.6-3.2,5.8-2.3C461,283.5,461.9,286,461,288.3z M470.3,259.7
			c-1.8,1.8-4.5,1.8-6.3,0c-3.2-3.2-8.3-3.2-11.5,0c-1.8,1.8-4.5,1.8-6.3,0s-1.8-4.5,0-6.3c6.7-6.7,17.4-6.7,24.1,0
			C472.1,255.1,472.1,257.9,470.3,259.7z"/>
	</g>
</g>
<g>
	<g>
		<path class="st0" d="M540.6,231.1c-1.4-0.7-3.1-0.7-4.5,0l-3.2,2c-10.4,6.3-22.5,9.9-34.5,10.6v26.8c0,10.6-2.5,20.5-6.8,29.5
			c0.7,0,1.4-0.4,2.3-0.4c9,0,17.1,5.4,20.5,13.7c0.9,2.3-0.2,4.9-2.3,5.8c-2.3,0.9-4.9,0-5.8-2.3c-2.2-5-7-8.1-12.4-8.1
			c-5.4,0-10.3,3.2-12.4,8.1c-0.7,1.8-2.5,2.7-4.3,2.7c-5.9,5.8-12.8,10.4-20.5,13.7c8.5,11.2,20.7,19.2,34.7,21.9
			c0.7,0.2,1.8,0.4,2.5,0.4c0.5,0,1.8-0.2,2.5-0.4c27-5.4,46.6-29.7,46.6-57.9v-62.4C543,233.5,542.1,231.9,540.6,231.1z
			 M532.7,273.8c-3.2,3.2-7.7,5-12.1,5c-4.3,0-8.8-1.6-12.1-5c-1.8-1.8-1.8-4.5,0-6.3s4.5-1.8,6.3,0c3.2,3.2,8.3,3.2,11.5,0
			c1.8-1.8,4.5-1.8,6.3,0C534.5,269.3,534.5,272.2,532.7,273.8z"/>
	</g>
</g>
</svg>
