<?xml version="1.0" encoding="UTF-8"?>
<svg width="545px" height="545px" viewBox="0 0 545 545" version="1.1" xmlns="http://www.w3.org/2000/svg" xmlns:xlink="http://www.w3.org/1999/xlink">
    <!-- Generator: Sketch 49.2 (51160) - http://www.bohemiancoding.com/sketch -->
    <title>GCBA-compromisos-icons-11</title>
    <desc>Created with Sketch.</desc>
    <defs></defs>
    <g id="GCBA-compromisos-icons-11" stroke="none" stroke-width="1" fill="none" fill-rule="evenodd">
        <g transform="translate(104.000000, 8.000000)" fill="#5B5B5B" fill-rule="nonzero" id="Shape">
            <path d="M295.729986,409.683449 L42.2700142,409.683449 L42.2700142,72.3816702 L295.890099,72.3816702 L295.729986,409.683449 Z M217.274278,481.905336 L120.725722,481.905336 L120.725722,457.778113 L217.274278,457.778113 L217.274278,481.905336 Z M265.628612,0 L72.371388,0 C32.3429654,0 0,32.4359361 0,72.2218872 L0,457.778113 C0,497.723847 32.5030791,530 72.371388,530 L265.628612,530 C305.657035,530 338,497.564064 338,457.778113 L338,72.3816702 C338,32.4359361 305.657035,0 265.628612,0 Z"></path>
            <path d="M138.585919,105 C121.795111,105 108.362464,118.436133 108.362464,135.2313 C108.362464,152.026467 121.795111,165.462601 138.585919,165.462601 C155.376727,165.462601 168.809373,152.026467 168.809373,135.2313 C168.969286,118.436133 155.376727,105 138.585919,105 Z M155.056902,175.219793 C149.459966,175.219793 140.344956,177.299194 132.82907,182.577675 L84.6954203,216.807825 C71.5825988,226.085155 83.5760331,242.560414 95.8892924,234.402762 L127.392047,213.608746 C127.392047,213.608746 148.180666,258.235903 140.344956,279.029919 C140.025131,279.669735 139.865218,280.309551 139.865218,280.949367 L107.402989,367.164557 C103.725003,377.081703 110.761151,383 118.117124,383 C122.914498,383 127.392047,380.120829 129.630821,374.682394 L169.928761,279.189873 C169.928761,279.189873 177.284734,323.657077 207.028451,323.657077 L247.806128,323.657077 C259,323.657077 259,312.460299 259,312.460299 C259,312.460299 259,301.263521 247.806128,301.263521 L214.384424,301.263521 C198.553091,301.263521 199.512565,277.43038 199.512565,264.1542 C199.512565,241.920598 184.640707,204.811277 184.640707,204.811277 L229.09637,234.402762 C242.529017,243.360184 254.202626,227.524741 241.089805,217.767549 L191.99668,182.577675 C183.041582,176.179517 180.163158,175.219793 169.768848,175.219793 L155.056902,175.219793 Z"></path>
        </g>
    </g>
</svg>