<?xml version="1.0" encoding="utf-8"?>
<!-- Generator: Adobe Illustrator 15.1.0, SVG Export Plug-In . SVG Version: 6.00 Build 0)  -->
<!DOCTYPE svg PUBLIC "-//W3C//DTD SVG 1.1//EN" "http://www.w3.org/Graphics/SVG/1.1/DTD/svg11.dtd">
<svg version="1.1" id="Layer_1" xmlns="http://www.w3.org/2000/svg" xmlns:xlink="http://www.w3.org/1999/xlink" x="0px" y="0px"
	 width="750px" height="750px" viewBox="585 165 750 750" enable-background="new 585 165 750 750" xml:space="preserve">
<g>
	<path fill="#5A5B5B" d="M662.669,732.639h594.592c3.313,0,6-2.687,6-6V367.271c0-10.785-8.753-19.56-19.512-19.56h-137.461
		c-3.313,0-6,2.687-6,6c0,3.314,2.687,6,6,6h137.461c4.142,0,7.512,3.391,7.512,7.56v353.367H668.669V367.272
		c0-4.168,3.404-7.56,7.588-7.56h131.895c3.314,0,6-2.687,6-6s-2.686-6-6-6H676.257c-10.801,0-19.588,8.774-19.588,19.56v359.366
		C656.669,729.952,659.355,732.639,662.669,732.639z"/>
	<path fill="#5A5B5B" d="M735.646,393.627c3.313,0,6-2.687,6-6s-2.687-6-6-6h-37.235c-3.313,0-6,2.687-6,6v303.732
		c0,3.313,2.687,6,6,6h523.184c3.313,0,6-2.687,6-6V387.627c0-3.313-2.687-6-6-6h-45.328c-3.313,0-6,2.687-6,6s2.687,6,6,6h39.328
		v291.732H704.411V393.627H735.646z"/>
	<path fill="#5A5B5B" d="M1319.748,746.505c-0.051-0.329-0.104-0.658-0.137-0.993c-0.302-3.071-2.885-5.414-5.972-5.414H606.337
		c-3.143,0-5.753,2.426-5.984,5.56c-0.025,0.346-0.08,0.684-0.13,1.023c-0.119,0.813-0.267,1.824-0.267,2.991v10.758
		c0,24.832,23.007,24.832,38.231,24.832h643.618c15.227,0,38.238,0,38.238-24.832v-10.758
		C1320.044,748.438,1319.88,747.366,1319.748,746.505z M1308.044,760.43c0,10.313-5.149,12.832-26.238,12.832H638.188
		c-21.083,0-26.231-2.519-26.231-12.832v-8.332h696.088V760.43z"/>
	<path fill="#5A5B5B" d="M745.597,407.063c0,2.255,1.264,4.32,3.273,5.345l208.407,106.33c0.856,0.437,1.792,0.655,2.727,0.655
		c0.936,0,1.87-0.218,2.727-0.655l161.559-82.428v85.644c0,2.456,1.497,4.664,3.778,5.574c2.278,0.908,4.886,0.337,6.576-1.446
		l14.112-14.889l10.525,14.315c1.152,1.567,2.962,2.446,4.835,2.446c0.623,0,1.254-0.098,1.869-0.299
		c2.464-0.809,4.13-3.108,4.13-5.701V412.928l1.021-0.521c2.009-1.025,3.273-3.09,3.273-5.345c0-2.255-1.265-4.32-3.273-5.345
		L962.729,295.394c-1.713-0.874-3.74-0.875-5.453,0L748.87,401.718C746.861,402.743,745.597,404.807,745.597,407.063z
		 M1158.114,503.665l-3.943-5.363c-1.053-1.432-2.687-2.324-4.46-2.434c-1.777-0.113-3.506,0.571-4.729,1.861l-8.694,9.173v-76.714
		l21.826-11.136V503.665z M960.003,307.474l195.204,99.588l-195.204,99.594l-195.204-99.594L960.003,307.474z"/>
	<path fill="#5A5B5B" d="M1108.996,562.395v-94.481c0-2.105-1.103-4.056-2.906-5.141c-1.804-1.086-4.045-1.146-5.903-0.16
		l-140.18,74.304L818.04,461.465c-1.859-0.988-4.101-0.929-5.907,0.156c-1.805,1.085-2.909,3.037-2.909,5.143v95.631
		c0,35.388,69.163,78.615,149.884,78.615C1039.831,641.01,1108.996,597.782,1108.996,562.395z M821.224,562.395v-85.647
		l135.963,72.26c1.759,0.935,3.869,0.935,5.625,0.004l134.184-71.126v84.51c0,12.635-15.326,29.265-39.046,42.367
		c-28.309,15.637-63.411,24.248-98.843,24.248s-70.534-8.611-98.84-24.248C836.549,591.66,821.224,575.029,821.224,562.395z"/>
</g>
</svg>
