<?xml version="1.0" encoding="utf-8"?>
<!-- Generator: Adobe Illustrator 15.1.0, SVG Export Plug-In . SVG Version: 6.00 Build 0)  -->
<!DOCTYPE svg PUBLIC "-//W3C//DTD SVG 1.1//EN" "http://www.w3.org/Graphics/SVG/1.1/DTD/svg11.dtd">
<svg version="1.1" id="Layer_1" xmlns="http://www.w3.org/2000/svg" xmlns:xlink="http://www.w3.org/1999/xlink" x="0px" y="0px" width="750px" height="750px"
	 viewBox="585 165 750 750" enable-background="new 585 165 750 750" xml:space="preserve">

	<g>
		<g>
			<polygon fill="#5B5B5B" points="1199.443,661.349 1284.188,814.227 1191.623,814.227 1131.075,661.349 			"/>
			<polygon fill="#5B5B5B" points="789.004,661.349 728.483,814.227 635.812,814.227 720.558,661.349 			"/>
			<g>
				<path fill="#5B5B5B" d="M1081.491,740.744c-5.649,3.633-12.246,5.599-19.022,5.599c-10.17,0-19.843-4.396-26.545-12.073
					l-39.561-45.428l9.916,125.385h92.671L1081.491,740.744z"/>
			</g>
			<path fill="#5A5B5B" d="M927.737,265.773c23.541,0,42.613,19.08,42.613,42.613s-19.072,42.622-42.613,42.622
				c-23.533,0-42.614-19.089-42.614-42.622S904.204,265.773,927.737,265.773"/>
			<path fill="#5A5B5B" d="M958.63,352.265c2.037,0,4.092,0.254,6.12,0.773c92.322,23.289,104.124,143.246,104.579,148.338
				c1.225,13.665-8.863,25.747-22.528,26.963c-0.761,0.07-1.504,0.104-2.247,0.104c-12.703,0-23.533-9.685-24.714-22.58
				c-0.115-1.084-5.398-52.009-33-83.083v132.669l29.377,64.782l64.983,74.614c9.003,10.35,7.917,26.045-2.424,35.063
				c-4.711,4.095-10.521,6.104-16.308,6.104c-6.933,0-13.829-2.886-18.756-8.527l-67.362-77.353
				c-1.583-1.829-2.896-3.867-3.884-6.063l-29.369-64.773c-57.109,63.015-63.355,147.603-63.417,148.564
				c-0.857,13.132-11.793,23.236-24.775,23.236c-0.525,0-1.059-0.01-1.592-0.044c-13.674-0.876-24.059-12.598-23.236-26.28
				c0.271-4.488,6.667-95.786,68.788-170.331v-93.433l-71.815,61.458c-4.693,4.013-10.439,5.976-16.155,5.976
				c-7.005,0-13.964-2.95-18.874-8.688c-8.932-10.428-7.708-26.114,2.712-35.037l147.778-126.466
				C947.062,354.358,952.775,352.265,958.63,352.265"/>
			<path fill="#5B5B5B" d="M889.988,728.535c-1.205,18.444-16.614,32.893-35.082,32.893c-0.852,0-1.569-0.021-2.252-0.064
				c-6.536-0.418-12.547-2.615-17.599-6.082l-14.005,58.945h92.671l12.091-152.878h-19.668
				C892.351,698.164,890.022,728.057,889.988,728.535z"/>
		</g>
	</g>


</svg>
