<?xml version="1.0" encoding="utf-8"?>
<!-- Generator: Adobe Illustrator 18.1.1, SVG Export Plug-In . SVG Version: 6.00 Build 0)  -->
<svg version="1.1" id="Layer_1" xmlns="http://www.w3.org/2000/svg" xmlns:xlink="http://www.w3.org/1999/xlink" x="0px" y="0px"
	 viewBox="0 0 80.7 80.7" style="enable-background:new 0 0 80.7 80.7;" xml:space="preserve">
<style type="text/css">
	.st0{fill:#5A5A5A;}
	.st1{fill:none;}
</style>
<g>
	<g>
		<g>
			<circle class="st0" cx="52.4" cy="21.9" r="4.6"/>
			<path class="st0" d="M57.5,38.4c-0.7-0.7-1.4-0.9-2-0.9L46.2,38l5.2-5.9c0.5-0.7,0.7-1.8,0.5-3c-0.2-0.7-0.5-1.4-1.1-1.8
				l-12.3-7.3c-0.9-0.7-2.3-0.5-3.2,0.2l-6.4,5.9c-1.1,1.1-1.4,2.7-0.2,3.9c0.9,1.1,2.7,1.1,3.9,0.2l4.8-4.3l3.5,2.1l-6.7,7.7
				c0,0,0,0.1,0.1,0.1c-2.7,0.4-5.2,1.6-7.1,3.4l3.4,3.4c1.6-1.3,3.6-2.2,5.8-2.2c5,0,9,4.1,9,9c0,2.2-0.8,4.3-2.2,5.8l3.4,3.4
				c2.2-2.4,3.6-5.7,3.6-9.2c0-2.3-0.6-4.4-1.5-6.3c0.1,0.1,0.2,0.1,0.2,0.1l3.7-0.1l-0.9,10.8c-0.2,1.6,0.9,2.7,2.5,3h0.2
				c1.4,0,2.5-1.1,2.7-2.5l1.2-14.1C58.2,39.8,58,38.9,57.5,38.4z"/>
			<path class="st0" d="M36.3,58.6c-5,0-9-4.1-9-9c0-1.9,0.6-3.7,1.7-5.2L25.5,41c-1.9,2.4-3,5.3-3,8.6c0,7.6,6.2,13.8,13.8,13.8
				c3.3,0,6.2-1.1,8.6-3l-3.4-3.4C40,58,38.2,58.6,36.3,58.6z"/>
		</g>
	</g>
</g>
<rect x="0" y="0.6" class="st1" width="80.7" height="80.7"/>
</svg>
