<?xml version="1.0" encoding="utf-8"?>
<!-- Generator: Adobe Illustrator 22.0.1, SVG Export Plug-In . SVG Version: 6.00 Build 0)  -->
<svg version="1.1" id="Layer_1" xmlns="http://www.w3.org/2000/svg" xmlns:xlink="http://www.w3.org/1999/xlink" x="0px" y="0px"
	 viewBox="0 0 750 750" style="enable-background:new 0 0 750 750;" xml:space="preserve">
<style type="text/css">
	.st0{fill:#5A5B5B;}
</style>
<g>
	<g>
		<path class="st0" d="M727.3,567.2H485.4c-2.9,0-5.3-2.4-5.3-5.3V509c0-2.9,2.4-5.3,5.3-5.3h110.4l-79-79c-1.5-1.5-2-3.8-1.2-5.8
			c0.8-2,2.7-3.3,4.8-3.3h40.1l-79-79c-1.5-1.5-2-3.8-1.2-5.8c0.8-2,2.7-3.3,4.8-3.3h40.1L450,252.2l-10.1,10.1c-2,2-5.4,2-7.4,0
			c-2-2-2-5.4,0-7.4l13.9-13.9c2-2,5.4-2,7.4,0l88,88c1.5,1.5,2,3.8,1.2,5.8c-0.8,2-2.7,3.3-4.8,3.3h-40.1l79,79
			c1.5,1.5,2,3.8,1.2,5.8c-0.8,2-2.7,3.3-4.8,3.3h-40.1l79,79c1.5,1.5,2,3.8,1.2,5.8c-0.8,2-2.7,3.3-4.8,3.3h-118v42.2h236.5
			c2.9,0,5.3,2.4,5.3,5.3C732.6,564.8,730.2,567.2,727.3,567.2z"/>
	</g>
	<g>
		<path class="st0" d="M734.6,567.2h-210c-2.9,0-5.3-2.4-5.3-5.3V509c0-2.9,2.4-5.3,5.3-5.3h144.6l-79-79c-1.5-1.5-2-3.8-1.2-5.8
			c0.8-2,2.7-3.3,4.8-3.3H634l-79-79c-1.5-1.5-2-3.8-1.2-5.8c0.8-2,2.7-3.3,4.8-3.3h40.1l-75.3-75.3l-19,18.6c-2.1,2-5.4,2-7.4-0.1
			c-2-2.1-2-5.4,0.1-7.4l22.8-22.3c2-2,5.4-2,7.4,0l88,88c1.5,1.5,2,3.8,1.2,5.8c-0.8,2-2.7,3.3-4.8,3.3h-40.1l79,79
			c1.5,1.5,2,3.8,1.2,5.8c-0.8,2-2.7,3.3-4.8,3.3h-40.1l79,79c1.5,1.5,2,3.8,1.2,5.8c-0.8,2-2.7,3.3-4.8,3.3H530v42.2h204.7
			c2.9,0,5.3,2.4,5.3,5.3C739.9,564.8,737.5,567.2,734.6,567.2z"/>
	</g>
	<g>
		<path class="st0" d="M395.5,572.3c-2.9,0-5.3-2.4-5.3-5.3v-85.3c0-2.9,2.4-5.3,5.3-5.3H506l-79-79c-1.5-1.5-2-3.8-1.2-5.8
			c0.8-2,2.7-3.3,4.8-3.3h40l-79-79c-1.5-1.5-2-3.8-1.2-5.8c0.8-2,2.7-3.3,4.8-3.3h40l-75.3-75.3l-75.3,75.3h40.1
			c2.1,0,4,1.3,4.8,3.3c0.8,2,0.4,4.2-1.2,5.8l-79,79h40.1c2.1,0,4,1.3,4.8,3.3c0.8,2,0.4,4.2-1.2,5.8l-79,79h111
			c2.9,0,5.3,2.4,5.3,5.3v80.2c0,2.9-2.4,5.3-5.3,5.3H109.5c-2.9,0-5.3-2.4-5.3-5.3c0-2.9,2.4-5.3,5.3-5.3h210.4v-69.7H202
			c-2.1,0-4-1.3-4.8-3.3c-0.8-2-0.4-4.2,1.2-5.8l79-79h-40.1c-2.1,0-4-1.3-4.8-3.3c-0.8-2-0.4-4.2,1.2-5.8l79-79h-40.1
			c-2.1,0-4-1.3-4.8-3.3c-0.8-2-0.4-4.2,1.2-5.8l88-88c2-2,5.4-2,7.4,0l88,88c1.5,1.5,2,3.8,1.2,5.8c-0.8,2-2.7,3.3-4.8,3.3h-40
			l79,79c1.5,1.5,2,3.8,1.2,5.8c-0.8,2-2.7,3.3-4.8,3.3h-40l79,79c1.5,1.5,2,3.8,1.2,5.8c-0.8,2-2.7,3.3-4.8,3.3h-118v80
			C400.9,569.8,398.5,572.3,395.5,572.3z"/>
	</g>
	<g>
		<path class="st0" d="M426.8,572.3c-2.9,0-5.3-2.4-5.3-5.3v-63.6c0-2.9,2.4-5.3,5.3-5.3s5.3,2.4,5.3,5.3v63.6
			C432.1,569.8,429.8,572.3,426.8,572.3z"/>
	</g>
</g>
<g>
	<g>
		<g>
			<path class="st0" d="M127.3,404.4c-65.2,0-118.2-53.1-118.2-118.2C9.1,221,62.2,168,127.3,168c65.2,0,118.2,53.1,118.2,118.2
				C245.6,351.3,192.5,404.4,127.3,404.4z M127.3,178.4c-59.3,0-107.7,48.2-107.7,107.7c0,59.3,48.2,107.7,107.7,107.7
				c59.3,0,107.7-48.2,107.7-107.7C235,226.7,186.8,178.4,127.3,178.4z"/>
		</g>
	</g>
	<g>
		<g>
			<path class="st0" d="M40.6,307.3l22.6-18.6c8.5-7,11.8-10.7,11.8-16.4c0-5.8-3.8-8.8-9.2-8.8c-5.3,0-8.8,2.9-13.9,9.2l-10.5-8.5
				c6.7-9.2,13.2-14.2,25.4-14.2c14.2,0,23.5,8.3,23.5,21v0.2c0,11.4-5.9,17-17.9,26.4l-11.1,8.6H91v13H40.6V307.3z"/>
		</g>
		<g>
			<path class="st0" d="M101.7,285.4v-0.2c0-19.8,12.3-35.3,30.4-35.3c18,0,30.2,15.3,30.2,35v0.2c0,19.8-12.2,35.3-30.4,35.3
				S101.7,305.1,101.7,285.4z M146.9,285.4v-0.2c0-12.4-6-21.7-15-21.7c-9,0-14.7,9.1-14.7,21.5v0.2c0,12.5,5.9,21.7,15,21.7
				C141.2,306.8,146.9,297.6,146.9,285.4z"/>
		</g>
		<g>
			<path class="st0" d="M174.3,248.1H189V286l17.3-19H224l-19.8,20.5l20.5,31.6h-17l-13.6-21.2l-5.2,5.4v15.9h-14.7V248.1z"/>
		</g>
	</g>
</g>
</svg>
