<?xml version="1.0" encoding="utf-8"?>
<!-- Generator: Adobe Illustrator 15.1.0, SVG Export Plug-In . SVG Version: 6.00 Build 0)  -->
<!DOCTYPE svg PUBLIC "-//W3C//DTD SVG 1.1//EN" "http://www.w3.org/Graphics/SVG/1.1/DTD/svg11.dtd">
<svg version="1.1" id="Layer_1" xmlns="http://www.w3.org/2000/svg" xmlns:xlink="http://www.w3.org/1999/xlink" x="0px" y="0px"
	 width="750px" height="750px" viewBox="0 0 750 750" enable-background="new 0 0 750 750" xml:space="preserve">
<g>
	<path fill="#5A5B5B" d="M287.257,252.636c29.727-33.131,72.283-52.133,116.757-52.133c25.737,0,51.266,6.373,73.825,18.428
		c2.432,1.301,5.465,0.383,6.767-2.053c1.301-2.435,0.382-5.465-2.054-6.766c-24.004-12.828-51.162-19.609-78.538-19.609
		c-47.31,0-92.58,20.212-124.2,55.455c-1.844,2.056-1.673,5.217,0.382,7.061c0.955,0.856,2.148,1.278,3.338,1.278
		C284.905,254.297,286.27,253.736,287.257,252.636z"/>
	<path fill="#5A5B5B" d="M298.294,473.105c-2.038-1.861-5.202-1.72-7.064,0.319s-1.719,5.201,0.32,7.063
		c30.796,28.131,70.737,43.623,112.464,43.623c91.978,0,166.807-74.829,166.807-166.807c0-14.168-1.778-28.233-5.286-41.803
		c-0.691-2.674-3.422-4.28-6.092-3.589c-2.674,0.691-4.281,3.418-3.59,6.092c3.296,12.753,4.968,25.976,4.968,39.3
		c0,86.464-70.343,156.807-156.807,156.807C364.788,514.111,327.243,499.549,298.294,473.105z"/>
	<path fill="#5A5B5B" d="M310.635,456.445v5.952c0,2.762,2.239,5,5,5h51.338c2.761,0,5-2.238,5-5v-4.888h110.596
		c2.762,0,5-2.238,5-5s-2.238-5-5-5H371.973v-180.41h110.596c2.762,0,5-2.239,5-5s-2.238-5-5-5H371.973v-4.888c0-2.761-2.239-5-5-5
		h-51.338c-2.761,0-5,2.239-5,5v4.65c-64.966,1.261-124.823,27.073-169.014,73.026c-43.237,44.961-67.532,104.583-68.74,168.364
		h-7.548c-2.761,0-5,2.238-5,5v51.333c0,2.762,2.239,5,5,5h210.186c2.761,0,5-2.238,5-5v-51.333c0-2.762-2.239-5-5-5h-6.695
		C271.154,476.28,288.661,458.775,310.635,456.445z M258.772,498.252H82.871c2.507-128.496,101.254-228.807,227.764-231.389v179.541
		C283.143,448.802,261.169,470.761,258.772,498.252z"/>
	<path fill="#5A5B5B" d="M180.225,565.278h-20.186c-1.641,0-3.177,0.805-4.111,2.153c-9.835,14.205-21.124,32.017-21.124,43.77
		c0,18.295,14.882,33.179,33.174,33.179c18.287,0,33.164-14.884,33.164-33.179c0-15.512-8.812-33.696-16.999-44.028
		C183.195,565.976,181.752,565.278,180.225,565.278z"/>
	<path fill="#5A5B5B" d="M534.36,250.044c0.651,0.281,12.513,5.326,30.27,7.806c-0.216,0.56-0.347,1.163-0.347,1.799
		c0,9.97,8.115,18.081,18.091,18.081c9.97,0,18.081-8.111,18.081-18.081c0-0.523-0.103-1.019-0.252-1.493
		c10.535-1.367,20.627-4.068,30.141-8.097c1.85-0.783,3.051-2.596,3.051-4.604c0-13.261-4.994-25.682-14.111-35.214v-25.23
		c0-20.354-16.558-36.914-36.909-36.914c-20.357,0-36.919,16.56-36.919,36.914v25.231c-9.117,9.541-14.111,21.962-14.111,35.213
		C531.343,247.448,532.529,249.253,534.36,250.044z M590.454,259.648c0,4.456-3.625,8.081-8.081,8.081
		c-4.461,0-8.091-3.625-8.091-8.081c0-0.271-0.038-0.533-0.08-0.792c3.104,0.22,6.328,0.348,9.66,0.348c0.002,0,0.003,0,0.005,0
		c2.233,0,4.449-0.062,6.649-0.174C590.491,259.235,590.454,259.436,590.454,259.648z"/>
	<path fill="#5A5B5B" d="M582.373,297.153c46.443,0,84.229-37.789,84.229-84.238c0-46.446-37.785-84.233-84.229-84.233
		c-46.449,0-84.238,37.787-84.238,84.233C498.135,259.364,535.924,297.153,582.373,297.153z M582.373,138.681
		c40.93,0,74.229,33.301,74.229,74.233c0,40.935-33.299,74.238-74.229,74.238c-40.936,0-74.238-33.303-74.238-74.238
		C508.135,171.982,541.438,138.681,582.373,138.681z"/>
	<path fill="#5A5B5B" d="M582.373,105.62c-23.753,0-46.259,7.601-65.087,21.981c-16.697,12.753-29.438,30.39-36.311,50.115
		c-25.125-10.827-52.235-16.529-78.759-16.529c-35.202,0-69.76,9.383-99.938,27.134c-29.289,17.229-53.792,41.864-70.86,71.243
		c-1.387,2.388-0.576,5.448,1.812,6.835c2.389,1.389,5.448,0.576,6.835-1.812c33.472-57.611,95.604-93.4,162.151-93.4
		c26.91,0,54.478,6.194,79.721,17.914c1.325,0.615,2.852,0.619,4.181,0.014c1.328-0.606,2.326-1.763,2.729-3.167
		c11.919-41.408,50.378-70.328,93.525-70.328c53.648,0,97.295,43.646,97.295,97.295c0,50.69-39.544,93.315-90.026,97.04
		c-1.441,0.106-2.768,0.832-3.634,1.989c-0.867,1.157-1.19,2.633-0.887,4.047c2.763,12.864,4.479,29.181,4.479,42.583
		c0,103.329-84.06,187.393-187.383,187.393c-38.792,0-76.018-11.751-107.652-33.983c-2.259-1.587-5.378-1.043-6.966,1.216
		c-1.588,2.26-1.043,5.378,1.216,6.966c33.327,23.422,72.541,35.802,113.402,35.802c108.837,0,197.383-88.55,197.383-197.393
		c0-12.217-1.36-26.748-3.62-39.207c24.804-3.139,47.663-14.822,64.868-33.268c18.585-19.925,28.82-45.916,28.82-73.185
		C689.668,153.752,641.536,105.62,582.373,105.62z"/>
</g>
</svg>
