<?xml version="1.0" encoding="utf-8"?>
<!-- Generator: Adobe Illustrator 15.1.0, SVG Export Plug-In . SVG Version: 6.00 Build 0)  -->
<!DOCTYPE svg PUBLIC "-//W3C//DTD SVG 1.1//EN" "http://www.w3.org/Graphics/SVG/1.1/DTD/svg11.dtd">
<svg version="1.1" id="Layer_1" xmlns="http://www.w3.org/2000/svg" xmlns:xlink="http://www.w3.org/1999/xlink" x="0px" y="0px"
	 width="750px" height="750px" viewBox="585 165 750 750" enable-background="new 585 165 750 750" xml:space="preserve">
<g>
	<path fill="#5A5B5B" d="M1310.771,726.639h-268.605v-47.965H1176.1c2.427,0,4.614-1.462,5.543-3.704s0.416-4.822-1.301-6.538
		l-89.712-89.713h45.485c2.427,0,4.614-1.462,5.543-3.704s0.416-4.822-1.301-6.539l-89.705-89.7h45.484
		c2.427,0,4.614-1.462,5.543-3.704s0.416-4.823-1.301-6.539l-99.949-99.943c-2.342-2.343-6.143-2.343-8.484,0l-15.744,15.744
		c-2.344,2.343-2.344,6.142,0,8.485c2.342,2.343,6.143,2.343,8.484,0l11.502-11.501l85.463,85.458h-45.484
		c-2.427,0-4.614,1.462-5.543,3.704s-0.416,4.823,1.301,6.539l89.705,89.701h-45.484c-2.427,0-4.614,1.462-5.543,3.704
		s-0.416,4.822,1.301,6.538l89.712,89.713h-125.448c-3.313,0-6,2.687-6,6v59.965c0,3.313,2.687,6,6,6h274.605c3.313,0,6-2.687,6-6
		S1314.085,726.639,1310.771,726.639z"/>
	<path fill="#5A5B5B" d="M1079.596,643.78c0.929-2.242,0.416-4.822-1.3-6.538l-89.708-89.713h45.48c2.427,0,4.614-1.462,5.543-3.704
		c0.929-2.241,0.416-4.822-1.3-6.539L948.61,447.58h45.48c2.427,0,4.614-1.462,5.543-3.704s0.415-4.823-1.301-6.539L898.383,337.4
		c-2.343-2.343-6.142-2.343-8.484,0l-99.949,99.938c-1.716,1.716-2.23,4.296-1.301,6.539s3.117,3.704,5.543,3.704h45.485
		l-89.707,89.707c-1.716,1.716-2.229,4.296-1.301,6.539s3.117,3.704,5.543,3.704h45.485l-89.712,89.713
		c-1.716,1.716-2.229,4.296-1.301,6.538s3.117,3.704,5.543,3.704h133.934v79.154H609.229c-3.313,0-6,2.687-6,6s2.687,6,6,6h244.934
		c3.314,0,6-2.687,6-6v-91.154c0-3.313-2.686-6-6-6H728.714l89.712-89.713c1.716-1.716,2.229-4.296,1.301-6.538
		s-3.117-3.704-5.543-3.704h-45.485l89.707-89.707c1.716-1.716,2.229-4.297,1.301-6.539c-0.929-2.242-3.117-3.704-5.543-3.704
		h-45.484l85.463-85.453l85.463,85.453h-45.479c-2.427,0-4.615,1.462-5.543,3.704c-0.929,2.242-0.415,4.823,1.301,6.539
		l89.702,89.707h-45.48c-2.427,0-4.614,1.462-5.543,3.704c-0.929,2.243-0.416,4.823,1.3,6.539l89.708,89.713H934.125
		c-3.314,0-6,2.687-6,6v96.873c0,3.313,2.686,6,6,6c3.313,0,6-2.687,6-6v-90.873h133.928
		C1076.479,647.484,1078.667,646.022,1079.596,643.78z"/>
	<path fill="#5A5B5B" d="M969.557,660.164c-3.313,0-6,2.687-6,6v72.193c0,3.313,2.687,6,6,6s6-2.687,6-6v-72.193
		C975.557,662.851,972.87,660.164,969.557,660.164z"/>
</g>
</svg>
