<?xml version="1.0" encoding="utf-8"?>
<!-- Generator: Adobe Illustrator 18.0.0, SVG Export Plug-In . SVG Version: 6.00 Build 0)  -->
<!DOCTYPE svg PUBLIC "-//W3C//DTD SVG 1.1//EN" "http://www.w3.org/Graphics/SVG/1.1/DTD/svg11.dtd">
<svg version="1.1" id="Layer_1" xmlns="http://www.w3.org/2000/svg" xmlns:xlink="http://www.w3.org/1999/xlink" x="0px" y="0px"
	 viewBox="0 0 595.3 595.3" enable-background="new 0 0 595.3 595.3" xml:space="preserve">
<g>
	<path fill="#5B5B5B" d="M481.2,355.1l-46,79.7c-9,15.8-25.8,24.1-42.7,23h-36.8v36.8l-46-82.8l46-82.8v36.8h51.9l-40.9-70.9
		l79.7-46l33.1,57.4C489.1,320.5,490.4,339.5,481.2,355.1 M249.1,127.6h92c18,0,33.7,10.5,41.2,25.6l18.4,32l31.8-18.4L384,248
		l-94.8,1.7l31.8-18.4l-26-45.1L254.4,257l-79.9-46l33.1-57.4C215.2,138.3,230.9,127.6,249.1,127.6 M172.5,435l-46-79.7
		c-9-15.6-7.7-34.4,1.7-48.6l18.4-31.8l-31.8-18.4l94.6,1.5l48.8,81.3l-31.8-18.4l-26,44.9H282v92h-66.3
		C198.7,459.1,181.7,450.6,172.5,435z"/>
</g>
</svg>
