<?xml version="1.0" encoding="utf-8"?>
<!-- Generator: Adobe Illustrator 15.1.0, SVG Export Plug-In . SVG Version: 6.00 Build 0)  -->
<!DOCTYPE svg PUBLIC "-//W3C//DTD SVG 1.1//EN" "http://www.w3.org/Graphics/SVG/1.1/DTD/svg11.dtd">
<svg version="1.1" id="Layer_1" xmlns="http://www.w3.org/2000/svg" xmlns:xlink="http://www.w3.org/1999/xlink" x="0px" y="0px"
	 width="750px" height="750px" viewBox="585 165 750 750" enable-background="new 585 165 750 750" xml:space="preserve">
<g>
	<path fill="#5A5B5B" d="M984.796,632.683h17.314c5.647,0,10.241-4.589,10.241-10.229v-14.256h1.857
		c5.503,0,9.979-4.558,9.979-10.16v-162.52c0.002-6.9-4.5-13.042-10.947-14.934c-0.003-0.001-0.007-0.002-0.01-0.003
		c-10.432-3.044-34.61-8.15-79.335-8.15c-44.68,0-68.872,5.106-79.325,8.152c-6.451,1.891-10.957,8.032-10.957,14.934v162.521
		c0,5.603,4.477,10.16,9.979,10.16h1.869v14.256c0,5.641,4.592,10.229,10.236,10.229h17.313c5.647,0,10.242-4.589,10.242-10.229
		v-14.256h81.299v14.256C974.554,628.094,979.148,632.683,984.796,632.683z M887.255,596.197c-3.313,0-6,2.687-6,6v18.485h-13.792
		v-18.485c0-3.313-2.687-6-6-6h-5.848V435.516c0-1.61,0.959-3.016,2.323-3.416c9.83-2.865,32.769-7.67,75.958-7.67
		c43.219,0,66.142,4.802,75.964,7.667c1.371,0.403,2.328,1.808,2.328,3.419v160.682h-5.837c-3.313,0-6,2.687-6,6v18.485h-13.798
		v-18.485c0-3.313-2.687-6-6-6H887.255z"/>
	<path fill="#5A5B5B" d="M882.697,460.816c3.313,0,6-2.687,6-6v-7.957h90.762v7.957c0,3.313,2.687,6,6,6s6-2.687,6-6v-9.896
		c0-5.547-4.511-10.061-10.055-10.061h-94.642c-5.55,0-10.065,4.513-10.065,10.061v9.896
		C876.697,458.13,879.384,460.816,882.697,460.816z"/>
	<path fill="#5A5B5B" d="M873.656,541.401H994.5c5.66,0,10.266-4.511,10.266-10.056v-59.385c0-5.544-4.605-10.055-10.266-10.055
		H873.656c-5.661,0-10.267,4.511-10.267,10.055v59.385C863.39,536.891,867.995,541.401,873.656,541.401z M875.39,473.906h117.376
		v55.495H875.39V473.906z"/>
	<path fill="#5A5B5B" d="M895.202,552.733h-21.92c-5.645,0-10.236,4.592-10.236,10.235v8.836c0,5.65,4.592,10.248,10.236,10.248
		h21.92c5.641,0,10.229-4.598,10.229-10.248v-8.836C905.432,557.325,900.843,552.733,895.202,552.733z M893.432,570.053h-18.386
		v-5.319h18.386V570.053z"/>
	<path fill="#5A5B5B" d="M1004.766,571.805v-8.836c0-5.644-4.598-10.235-10.248-10.235H972.61c-5.645,0-10.236,4.592-10.236,10.235
		v8.836c0,5.65,4.592,10.248,10.236,10.248h21.907C1000.168,582.053,1004.766,577.455,1004.766,571.805z M992.766,570.053h-18.392
		v-5.319h18.392V570.053z"/>
	<path fill="#5A5B5B" d="M1076.145,724.242c-3.313,0-6,2.687-6,6c0,31.77-25.846,57.615-57.615,57.615H842.871
		c-31.766,0-57.609-25.846-57.609-57.615V349.758c0-31.769,25.843-57.615,57.609-57.615h169.659
		c31.769,0,57.614,25.846,57.614,57.615c0,3.314,2.687,6,6,6s6-2.686,6-6c0-38.386-31.229-69.615-69.614-69.615H842.871
		c-38.383,0-69.609,31.229-69.609,69.615v380.484c0,38.386,31.227,69.615,69.609,69.615h169.658
		c38.386,0,69.615-31.229,69.615-69.615C1082.145,726.929,1079.458,724.242,1076.145,724.242z"/>
	<path fill="#5A5B5B" d="M1043.777,345.252c0-3.314-2.687-6-6-6H819.363c-3.313,0-6,2.686-6,6v370.646c0,3.313,2.687,6,6,6h218.414
		c3.313,0,6-2.687,6-6s-2.687-6-6-6H825.363V351.252h212.414C1041.091,351.252,1043.777,348.566,1043.777,345.252z"/>
	<path fill="#5A5B5B" d="M897.557,750.369c-3.313,0-6,2.687-6,6s2.687,6,6,6h72.691c3.313,0,6-2.687,6-6s-2.687-6-6-6H897.557z"/>
	<path fill="#5A5B5B" d="M1062.334,379.166v15.721c0,0.171,0.007,0.341,0.021,0.512l17.068,199.472
		c0.266,3.104,2.863,5.488,5.979,5.488h30.1c3.12,0,5.72-2.392,5.979-5.502l16.623-199.472c0.014-0.166,0.021-0.332,0.021-0.498
		v-15.721c0-3.314-2.687-6-6-6h-63.791C1065.021,373.166,1062.334,375.852,1062.334,379.166z M1074.334,385.166h51.791v9.471
		l-16.144,193.722h-19.07l-16.577-193.728V385.166z"/>
	<path fill="#5A5B5B" d="M1100.232,613.213c-25.644,0-46.506,20.862-46.506,46.506s20.862,46.506,46.506,46.506
		s46.506-20.862,46.506-46.506S1125.876,613.213,1100.232,613.213z M1100.232,694.225c-19.026,0-34.506-15.479-34.506-34.506
		s15.479-34.506,34.506-34.506s34.506,15.479,34.506,34.506S1119.259,694.225,1100.232,694.225z"/>
</g>
</svg>
