<?xml version="1.0" encoding="utf-8"?>
<!-- Generator: Adobe Illustrator 22.0.1, SVG Export Plug-In . SVG Version: 6.00 Build 0)  -->
<svg version="1.1" id="Layer_1" xmlns="http://www.w3.org/2000/svg" xmlns:xlink="http://www.w3.org/1999/xlink" x="0px" y="0px"
	 viewBox="0 0 750 750" style="enable-background:new 0 0 750 750;" xml:space="preserve">
<style type="text/css">
	.st0{fill:#5A5B5B;}
	.st1{fill:#FFFFFF;}
</style>
<g>
	<g>
		<g>
			<path class="st0" d="M138,503.7c-1.8,0-3.3-1.5-3.3-3.3v-143c0-1.8,1.5-3.3,3.3-3.3c1.8,0,3.3,1.5,3.3,3.3v143
				C141.3,502.2,139.8,503.7,138,503.7z"/>
		</g>
		<g>
			<path class="st0" d="M430.4,360.7c-0.5,0-1-0.1-1.4-0.3l-176.3-84.5l-145.4,84.3c-1.6,0.9-3.6,0.4-4.5-1.2
				c-0.9-1.6-0.4-3.6,1.2-4.5l146.9-85.2c0.9-0.5,2.1-0.6,3.1-0.1l177.9,85.2c1.6,0.8,2.3,2.8,1.5,4.4
				C432.8,360,431.6,360.7,430.4,360.7z"/>
		</g>
		<g>
			<path class="st0" d="M377.7,504.7h-93.1c-1.8,0-3.3-1.5-3.3-3.3V376.9h-56v123.4c0,1.8-1.5,3.3-3.3,3.3h-70
				c-1.8,0-3.3-1.5-3.3-3.3s1.5-3.3,3.3-3.3h66.7V373.6c0-1.8,1.5-3.3,3.3-3.3h62.6c1.8,0,3.3,1.5,3.3,3.3v124.5h86.5V357.4
				c0-1.8,1.5-3.3,3.3-3.3c1.8,0,3.3,1.5,3.3,3.3v144C381,503.2,379.5,504.7,377.7,504.7z"/>
		</g>
	</g>
	<g>
		<g>
			<g>
				<g>
					<path class="st1" d="M196.7,321.5c0,38.9-31.5,70.4-70.4,70.4s-70.4-31.5-70.4-70.4c0-38.9,31.5-70.4,70.4-70.4
						S196.7,282.6,196.7,321.5z"/>
				</g>
				<g>
					<path class="st0" d="M126.2,395.3c-40.7,0-73.7-33.1-73.7-73.7c0-40.7,33.1-73.7,73.7-73.7c40.7,0,73.7,33.1,73.7,73.7
						C200,362.2,166.9,395.3,126.2,395.3z M126.2,254.4c-37,0-67.1,30.1-67.1,67.1c0,37,30.1,67.1,67.1,67.1
						c37,0,67.1-30.1,67.1-67.1C193.4,284.5,163.2,254.4,126.2,254.4z"/>
				</g>
			</g>
		</g>
		<g>
			<g>
				<path class="st0" d="M88,342.9c-3.8,0-7.1-0.7-9.8-2c-2.7-1.4-4.9-3.1-6.8-5.4l6.4-6.1c1.5,1.7,3,2.9,4.6,3.8
					c1.6,0.9,3.5,1.3,5.7,1.3c1.8,0,3.2-0.5,4.3-1.4c1.1-0.9,1.7-2.2,1.7-3.7v-0.1c0-1.7-0.7-3.1-2.2-4c-1.5-0.9-3.5-1.4-6.1-1.4
					h-3.9l-1.5-5.9l10.1-10.2H73.9v-8.1h28.8v7L91.9,317c1.5,0.2,2.9,0.6,4.2,1.2c1.4,0.5,2.6,1.3,3.7,2.2c1.1,0.9,1.9,2.1,2.6,3.5
					c0.7,1.4,1,3.1,1,5.1v0.1c0,2-0.4,3.9-1.1,5.6c-0.7,1.7-1.7,3.1-3.1,4.4c-1.3,1.3-2.9,2.2-4.9,2.9
					C92.5,342.6,90.4,342.9,88,342.9z"/>
			</g>
			<g>
				<path class="st0" d="M128.9,342.9c-2.8,0-5.4-0.6-7.7-1.7c-2.3-1.1-4.3-2.7-6-4.6c-1.6-2-2.9-4.3-3.8-7
					c-0.9-2.7-1.3-5.5-1.3-8.6v-0.1c0-3.1,0.5-6,1.4-8.6c0.9-2.7,2.2-5,3.9-7c1.7-2,3.7-3.5,6-4.7c2.3-1.1,4.9-1.7,7.7-1.7
					c2.8,0,5.4,0.6,7.7,1.7c2.3,1.1,4.3,2.7,6,4.6c1.6,2,2.9,4.3,3.8,7c0.9,2.7,1.4,5.5,1.4,8.6v0.1c0,3.1-0.5,6-1.4,8.6
					c-0.9,2.7-2.2,5-3.9,7s-3.7,3.5-6,4.7C134.4,342.3,131.8,342.9,128.9,342.9z M129.1,334.5c1.4,0,2.7-0.3,3.8-1
					c1.1-0.7,2.1-1.6,2.9-2.8c0.8-1.2,1.4-2.6,1.9-4.3c0.4-1.6,0.6-3.4,0.6-5.4v-0.1c0-1.9-0.2-3.7-0.7-5.4
					c-0.4-1.6-1.1-3.1-1.9-4.3c-0.8-1.2-1.8-2.2-3-2.9c-1.2-0.7-2.4-1-3.8-1c-1.4,0-2.7,0.3-3.8,1c-1.1,0.7-2.1,1.6-2.9,2.8
					c-0.8,1.2-1.4,2.6-1.9,4.3c-0.4,1.6-0.7,3.4-0.7,5.4v0.1c0,1.9,0.2,3.7,0.7,5.4s1.1,3.1,1.9,4.3c0.8,1.2,1.8,2.1,2.9,2.8
					C126.4,334.1,127.7,334.5,129.1,334.5z"/>
			</g>
			<g>
				<path class="st0" d="M155.3,297.8h9.2v23.6l10.8-11.8h11.1L174,322.4l12.8,19.7h-10.6l-8.5-13.3l-3.2,3.4v9.9h-9.2V297.8z"/>
			</g>
		</g>
	</g>
	<g>
		<g>
			<path class="st0" d="M317.4,294.3c-1.1,0-2.2-0.6-2.9-1.6c-0.9-1.6-0.4-3.6,1.2-4.5l63-36.5c0.9-0.5,2.1-0.6,3.1-0.1l72,34.5
				c1.6,0.8,2.3,2.8,1.5,4.4c-0.8,1.6-2.8,2.3-4.4,1.5l-70.4-33.7L319,293.9C318.5,294.2,317.9,294.3,317.4,294.3z"/>
		</g>
	</g>
	<g>
		<g>
			<path class="st0" d="M680.7,364.3c-0.5,0-0.9-0.1-1.4-0.3l-170.5-78.3l-96.6,50c-1.6,0.8-3.6,0.2-4.4-1.4
				c-0.8-1.6-0.2-3.6,1.4-4.4l98-50.7c0.9-0.5,2-0.5,2.9-0.1L682,358c1.7,0.8,2.4,2.7,1.6,4.4C683.1,363.6,681.9,364.3,680.7,364.3z
				"/>
		</g>
		<g>
			<path class="st0" d="M634.7,504.7H527.6c-1.8,0-3.3-1.5-3.3-3.3V376.9h-56v123.4c0,1.8-1.5,3.3-3.3,3.3h-69.2
				c-1.8,0-3.3-1.5-3.3-3.3s1.5-3.3,3.3-3.3h65.9V373.6c0-1.8,1.5-3.3,3.3-3.3h62.6c1.8,0,3.3,1.5,3.3,3.3v124.5h100.5V357.4
				c0-1.8,1.5-3.3,3.3-3.3c1.8,0,3.3,1.5,3.3,3.3v144C638,503.2,636.5,504.7,634.7,504.7z"/>
		</g>
	</g>
</g>
</svg>
