<?xml version="1.0" encoding="utf-8"?>
<!-- Generator: Adobe Illustrator 15.1.0, SVG Export Plug-In . SVG Version: 6.00 Build 0)  -->
<!DOCTYPE svg PUBLIC "-//W3C//DTD SVG 1.1//EN" "http://www.w3.org/Graphics/SVG/1.1/DTD/svg11.dtd">
<svg version="1.1" id="Layer_1" xmlns="http://www.w3.org/2000/svg" xmlns:xlink="http://www.w3.org/1999/xlink" x="0px" y="0px" width="750px" height="750px"
	 viewBox="585 165 750 750" enable-background="new 585 165 750 750" xml:space="preserve">

	<g>
		<g>
			<path fill="#5A5B5B" d="M1091.674,177.907H828.314c-54.538,0-98.74,44.203-98.74,98.753v526.681
				c0,54.527,44.202,98.752,98.74,98.752h263.359c54.538,0,98.752-44.225,98.752-98.752V276.66
				C1190.426,222.11,1146.212,177.907,1091.674,177.907z M960.001,875.793c-20.811,0-37.675-16.864-37.675-37.672
				c0-20.811,16.864-37.675,37.675-37.675c20.809,0,37.671,16.864,37.671,37.675C997.672,858.929,980.81,875.793,960.001,875.793z
				 M1151.804,781.079H768.205V269.658h383.599V781.079z"/>
			<polygon fill="#5A5B5B" points="820.327,455.124 844.505,491.825 845.001,491.825 869.428,454.752 869.428,511.416 
				888.398,511.416 888.398,424.622 867.815,424.622 845.001,461.323 822.187,424.622 801.604,424.622 801.604,511.416 
				820.327,511.416 			"/>
			<rect x="907.617" y="420.902" fill="#5A5B5B" width="19.839" height="16.739"/>
			<rect x="908.114" y="444.957" fill="#5A5B5B" width="18.846" height="66.459"/>
			<path fill="#5A5B5B" d="M1020.449,487.61v-0.248c0-11.655-6.199-17.482-16.243-21.327c6.2-3.472,11.407-8.927,11.407-18.723
				v-0.248c0-13.639-10.91-22.442-28.642-22.442h-40.298v86.794h41.289C1007.555,511.416,1020.449,503.48,1020.449,487.61z
				 M965.272,441.361h18.848c8.059,0,12.522,3.224,12.522,8.927v0.248c0,6.447-5.331,9.176-13.763,9.176h-17.607V441.361z
				 M965.272,475.583h22.071c9.796,0,14.136,3.596,14.136,9.424v0.247c0,6.448-5.084,9.424-13.517,9.424h-22.69V475.583z"/>
			<path fill="#5A5B5B" d="M1056.159,491.949h36.701l7.936,19.467h19.962l-37.197-87.414h-17.607l-37.197,87.414h19.468
				L1056.159,491.949z M1074.509,446.94l11.532,28.146h-23.063L1074.509,446.94z"/>
			<path fill="#5A5B5B" d="M841.021,552.692l4.711,14.384c6.076-2.232,11.159-3.596,18.352-3.596c9.423,0,14.26,4.34,14.26,12.15
				v1.116c-4.712-1.611-9.548-2.729-16.243-2.729c-15.747,0-26.783,6.696-26.783,21.203v0.248c0,13.144,10.292,20.335,22.815,20.335
				c9.175,0,15.499-3.348,20.086-8.432v7.191h18.227v-38.562c0-17.979-9.051-28.643-29.633-28.643
				C855.528,547.36,848.337,549.469,841.021,552.692z M878.591,591.13c0,6.819-5.951,11.656-14.756,11.656
				c-6.074,0-10.29-2.978-10.29-8.06v-0.248c0-5.951,4.96-9.176,13.019-9.176c4.589,0,8.803,0.992,12.027,2.479V591.13z"/>
			<path fill="#5A5B5B" d="M912.688,548.105v86.298h18.848v-28.519c4.463,5.332,10.663,9.92,20.706,9.92
				c15.748,0,30.255-12.151,30.255-34.347v-0.247c0-22.194-14.756-34.346-30.255-34.346c-9.795,0-16.119,4.588-20.706,10.787v-9.547
				H912.688z M947.407,562.859c8.803,0,16.243,7.316,16.243,18.352v0.247c0,11.159-7.44,18.351-16.243,18.351
				c-8.804,0-16.119-7.314-16.119-18.351v-0.247C931.288,570.176,938.604,562.859,947.407,562.859z"/>
			<path fill="#5A5B5B" d="M1035.937,546.865c-9.796,0-16.12,4.588-20.706,10.787v-9.547h-18.849v86.298h18.849v-28.519
				c4.463,5.332,10.662,9.92,20.706,9.92c15.747,0,30.254-12.151,30.254-34.347v-0.247
				C1066.19,559.017,1051.436,546.865,1035.937,546.865z M1047.344,581.458c0,11.159-7.44,18.351-16.243,18.351
				c-8.805,0-16.119-7.314-16.119-18.351v-0.247c0-11.035,7.314-18.352,16.119-18.352c8.803,0,16.243,7.316,16.243,18.352V581.458z"
				/>
		</g>
	</g>


</svg>
