<?xml version="1.0" encoding="utf-8"?>
<!-- Generator: Adobe Illustrator 15.1.0, SVG Export Plug-In . SVG Version: 6.00 Build 0)  -->
<!DOCTYPE svg PUBLIC "-//W3C//DTD SVG 1.1//EN" "http://www.w3.org/Graphics/SVG/1.1/DTD/svg11.dtd">
<svg version="1.1" id="Layer_1" xmlns="http://www.w3.org/2000/svg" xmlns:xlink="http://www.w3.org/1999/xlink" x="0px" y="0px"
	 width="1920px" height="1080px" viewBox="0 0 1920 1080" enable-background="new 0 0 1920 1080" xml:space="preserve">
<g>
	<path fill="none" stroke="#5A5B5B" stroke-width="12" stroke-linecap="round" stroke-linejoin="round" stroke-miterlimit="10" d="
		M1086.234,347.426c-27.246-14.561-58.359-22.822-91.418-22.822c-57.422,0-109.02,24.926-144.574,64.553"/>
	<path fill="none" stroke="#5A5B5B" stroke-width="12" stroke-linecap="round" stroke-linejoin="round" stroke-miterlimit="10" d="
		M863.906,662.156c34.523,31.535,80.473,50.777,130.91,50.777c107.238,0,194.168-86.93,194.168-194.168
		c0-16.805-2.133-33.111-6.152-48.662"/>
	<g>
		
			<polyline fill="none" stroke="#5A5B5B" stroke-width="12" stroke-linecap="round" stroke-linejoin="round" stroke-miterlimit="10" points="
			1089.082,404.52 950.367,404.52 950.367,633.012 1089.082,633.012 		"/>
		
			<rect x="888.762" y="392.654" fill="none" stroke="#5A5B5B" stroke-width="12" stroke-linecap="round" stroke-linejoin="round" stroke-miterlimit="10" width="61.605" height="252.223"/>
		
			<rect x="588.398" y="693.902" fill="none" stroke="#5A5B5B" stroke-width="12" stroke-linecap="round" stroke-linejoin="round" stroke-miterlimit="10" width="252.223" height="61.6"/>
		<path fill="none" stroke="#5A5B5B" stroke-width="12" stroke-linecap="round" stroke-linejoin="round" stroke-miterlimit="10" d="
			M888.762,631.412c-34.465,0-62.496,28.031-62.496,62.49H603.387c0-157.354,120.563-289.74,285.375-289.74"/>
		<path fill="none" stroke="#5A5B5B" stroke-width="12" stroke-linecap="round" stroke-linejoin="round" stroke-miterlimit="10" d="
			M703.641,768.967c-9.996,18.076-25.875,41.678-25.875,54.475c0,18.674,15.129,33.814,33.809,33.814
			c18.668,0,33.797-15.141,33.797-33.814c0-17.039-9.996-37.494-19.102-52.623"/>
	</g>
	<g>
		<path fill="none" stroke="#5A5B5B" stroke-width="12" stroke-linecap="round" stroke-linejoin="round" stroke-miterlimit="10" d="
			M1271.145,389.543c0-17.631-7.324-33.533-19.102-44.871v-36.949c0-23.859-19.336-43.201-43.195-43.201
			s-43.207,19.342-43.207,43.201v36.949c-11.766,11.338-19.102,27.24-19.102,44.871
			C1146.539,389.543,1208.203,416.197,1271.145,389.543z"/>
		<path fill="none" stroke="#5A5B5B" stroke-width="12" stroke-linecap="round" stroke-linejoin="round" stroke-miterlimit="10" d="
			M1173.586,347.754c0,0,27.48,8.654,52.969,2.789"/>
		<path fill="none" stroke="#5A5B5B" stroke-width="12" stroke-linecap="round" stroke-linejoin="round" stroke-miterlimit="10" d="
			M1237.84,348.416c0,0,3.223-0.662,6.457-1.91"/>
		<path fill="none" stroke="#5A5B5B" stroke-width="12" stroke-linecap="round" stroke-linejoin="round" stroke-miterlimit="10" d="
			M1226.555,408.762c0,9.785-7.934,17.707-17.707,17.707c-9.785,0-17.719-7.922-17.719-17.707"/>
	</g>
	<path fill="none" stroke="#5A5B5B" stroke-width="12" stroke-linecap="round" stroke-linejoin="round" stroke-miterlimit="10" d="
		M1316.098,345.498c0,59.244-48.012,107.262-107.25,107.262s-107.262-48.018-107.262-107.262
		c0-59.232,48.023-107.256,107.262-107.256S1316.098,286.266,1316.098,345.498z"/>
	<path fill="none" stroke="#5A5B5B" stroke-width="12" stroke-linecap="round" stroke-linejoin="round" stroke-miterlimit="10" d="
		M792.891,404.49c39.973-68.801,114.469-115.066,199.77-115.066c34.676,0,68.684,8.355,98.191,22.055
		c14.754-51.258,62.004-88.734,117.996-88.734c67.793,0,122.754,54.955,122.754,122.754c0,64.723-50.063,117.744-113.59,122.432
		c3.363,15.662,5.508,35.695,5.508,52.359c0,127.512-103.359,230.871-230.859,230.871c-49.359,0-95.098-15.492-132.633-41.871"/>
</g>
</svg>
