<?xml version="1.0" encoding="utf-8"?>
<!-- Generator: Adobe Illustrator 18.0.0, SVG Export Plug-In . SVG Version: 6.00 Build 0)  -->
<!DOCTYPE svg PUBLIC "-//W3C//DTD SVG 1.1//EN" "http://www.w3.org/Graphics/SVG/1.1/DTD/svg11.dtd">
<svg version="1.1" id="Layer_1" xmlns="http://www.w3.org/2000/svg" xmlns:xlink="http://www.w3.org/1999/xlink" x="0px" y="0px"
	 viewBox="0 0 595.3 595.3" enable-background="new 0 0 595.3 595.3" xml:space="preserve">
<g>
	<g>
		<path fill="#5B5B5B" d="M425.1,300.2c0-10.2-8.3-18.5-18.5-18.5c-3,0-5.4,2.4-5.4,5.4c0,3,2.4,5.4,5.4,5.4v0
			c4.3,0,7.8,3.5,7.8,7.8c0,7.3,0,95,0,95c0,3,2.4,5.4,5.4,5.4c3,0,5.4-2.4,5.4-5.4C425.1,395.2,425.1,307.5,425.1,300.2z"/>
		<path fill="#5B5B5B" d="M340.2,188.5c10.6,0,19.2-8.6,19.2-19.2s-8.6-19.2-19.2-19.2c-10.6,0-19.1,8.6-19.1,19.2
			S329.6,188.5,340.2,188.5z"/>
		<path fill="#5B5B5B" d="M220.6,189.6c10.6,0,19.2-8.6,19.2-19.2c0-10.6-8.6-19.2-19.2-19.2c-10.6,0-19.1,8.6-19.1,19.2
			C201.5,181,210,189.6,220.6,189.6z"/>
		<path fill="#5B5B5B" d="M274.6,271.3l-22.1-18.2l-22.9-52c0-0.1-0.1-0.1-0.1-0.2l-0.1-0.1c0,0,0,0,0,0c-1.8-3.7-5.6-6.5-9.8-6.5
			h-15.2c-3.9,0-7.4,2.3-9.3,5.5c-0.3,0.4-0.6,0.7-0.9,1.1c-34.3,48.7-24.5,19.4-29.7,76.9c-0.9,10.6,15.1,12.7,16,1.1l2.5-32.8
			l9.7-13.1l0.7,43.4l-7.1,65.2l-11.1,45.4c-3.4,13.9,17.5,19,20.9,5.1c0,0,9.8-39.9,10.3-42c1-4,1.2-5.2,1.6-8.9l3.5-31.9l0,0
			c0.1-1.2,1.5-1.4,1.7,0c0,0,0,0,0,0l3.8,34l0,46.3c0,14.4,21.5,14.4,21.5,0c0,0,0-41.4,0-43.5c0-4.7-0.6-9.1-0.6-9.1l-7.5-66.3
			c0-0.3-0.1-0.6-0.2-1c0-0.3,0-0.6,0-0.9v-23.4c6.1,11.4,8.1,16.2,11.2,20c3.6,4.5,8.9,7.5,23.4,19
			C273.5,291.4,284.6,278.9,274.6,271.3z"/>
		<path fill="#5B5B5B" d="M391.8,271.7L372.5,255l-23.6-53.9c0-0.1,0-0.1-0.1-0.2l-0.1-0.1c0,0,0,0,0,0c-1.8-3.7-5.6-6.5-9.8-6.5
			h-15.2c-3.9,0-7.4,2.3-9.3,5.5c-0.3,0.4-0.6,0.7-0.9,1.1c-33.8,48-24.4,23.7-27.6,78.2c0,0.8-0.1,1.1-0.1,1.9
			c-0.1,9.4,14.1,10,14.1,0.3l2.5-35.1l9.7-13.1l0.4,24.1l-19.5,91.5c0,0,5,0,12.3,0l-7.5,39.1c-3.4,13.9,14.3,18.4,17.7,4.5
			l9.2-43.6h13.9l0.9,41.2c0,14.4,18.3,14.4,18.3,0l0-41.2h5c2.1,0,2.4-1.8,2.4-2.7c-2.2-29.8-7.6-54.9-15.5-78.2v-22.2
			c6.1,11.3,7.3,14,10.4,17.8c3.6,4.5,8.9,7.5,23.4,19C392,289.1,401.8,279.3,391.8,271.7z"/>
	</g>
	<path fill="#5B5B5B" d="M509.4,103H89.6c-19.3,0-35,15.7-35,35v272.1c0,19.3,15.7,35,35,35h419.8c19.3,0,35-15.7,35-35V138
		C544.3,118.7,528.7,103,509.4,103z M496.5,423.5H102.4V124.6h394.1V423.5z M522.5,305.2c0,3-2.4,5.5-5.5,5.5c-3,0-5.5-2.4-5.5-5.5
		v-62.4c0-3,2.4-5.5,5.5-5.5c3,0,5.5,2.4,5.5,5.5V305.2z"/>
</g>
</svg>
