<?xml version="1.0" encoding="utf-8"?>
<!-- Generator: Adobe Illustrator 15.1.0, SVG Export Plug-In . SVG Version: 6.00 Build 0)  -->
<!DOCTYPE svg PUBLIC "-//W3C//DTD SVG 1.1//EN" "http://www.w3.org/Graphics/SVG/1.1/DTD/svg11.dtd">
<svg version="1.1" id="Layer_1" xmlns="http://www.w3.org/2000/svg" xmlns:xlink="http://www.w3.org/1999/xlink" x="0px" y="0px" width="750px" height="750px"
	 viewBox="585 165 750 750" enable-background="new 585 165 750 750" xml:space="preserve">

	<g>
		<g>
			<polyline fill="none" stroke="#5A5B5B" stroke-width="7.6104" stroke-miterlimit="10" points="899.119,738.344 883.413,828.719 
				1036.588,828.719 1019.935,738.344 			"/>
			<path opacity="0.6" fill="#5A5B5B" d="M678.419,738.344h563.163c12.619,0,22.838-10.219,22.838-22.824v-38.055H655.58v38.055
				C655.58,728.125,665.8,738.344,678.419,738.344"/>
			<path fill="#5A5B5B" d="M1241.582,312.153H678.419c-12.619,0-22.839,10.229-22.839,22.841v342.471h608.84V334.994
				C1264.42,322.382,1254.201,312.153,1241.582,312.153z M1234.608,646.388H686.665V340.692h547.943V646.388z"/>
			<path fill="none" stroke="#30241C" stroke-width="7.6104" stroke-miterlimit="10" d="M807.79,570.437
				c0-8.4-6.808-15.208-15.216-15.208c-8.408,0-15.217,6.808-15.217,15.208c0,8.407,6.809,15.224,15.217,15.224
				C800.981,585.66,807.79,578.844,807.79,570.437z"/>
			<path fill="none" stroke="#30241C" stroke-width="7.6104" stroke-miterlimit="10" d="M777.357,510.037
				c0-8.408-6.824-15.216-15.232-15.216c-8.408,0-15.216,6.808-15.216,15.216s6.808,15.224,15.216,15.224
				C770.533,525.261,777.357,518.445,777.357,510.037z"/>
			<path fill="none" stroke="#30241C" stroke-width="7.6104" stroke-miterlimit="10" d="M838.23,510.037
				c0-8.408-6.817-15.216-15.224-15.216c-8.4,0-15.217,6.808-15.217,15.216s6.816,15.224,15.217,15.224
				C831.414,525.261,838.23,518.445,838.23,510.037z"/>
			<path fill="none" stroke="#30241C" stroke-width="7.6104" stroke-miterlimit="10" d="M807.79,449.148
				c0-8.408-6.808-15.224-15.216-15.224c-8.408,0-15.217,6.816-15.217,15.224c0,8.408,6.809,15.216,15.217,15.216
				C800.981,464.364,807.79,457.556,807.79,449.148z"/>
			<path fill="none" stroke="#30241C" stroke-width="7.6104" stroke-miterlimit="10" d="M746.909,449.148
				c0-8.408-6.816-15.224-15.217-15.224c-8.407,0-15.224,6.816-15.224,15.224c0,8.408,6.817,15.216,15.224,15.216
				C740.093,464.364,746.909,457.556,746.909,449.148z"/>
			<path fill="none" stroke="#30241C" stroke-width="7.6104" stroke-miterlimit="10" d="M838.23,388.267
				c0-8.408-6.817-15.215-15.224-15.215c-8.4,0-15.217,6.808-15.217,15.215c0,8.409,6.816,15.225,15.217,15.225
				C831.414,403.491,838.23,396.675,838.23,388.267z"/>
			<path fill="none" stroke="#30241C" stroke-width="7.6104" stroke-miterlimit="10" d="M1142.643,388.267
				c0,8.409,6.823,15.225,15.233,15.225c8.407,0,15.215-6.816,15.215-15.225c0-8.408-6.808-15.215-15.215-15.215
				C1149.466,373.051,1142.643,379.859,1142.643,388.267z"/>
			<path fill="none" stroke="#30241C" stroke-width="7.6104" stroke-miterlimit="10" d="M1005.665,616.576
				c0,8.407,6.816,15.23,15.217,15.23c8.407,0,15.231-6.823,15.231-15.23c0-8.41-6.824-15.217-15.231-15.217
				C1012.481,601.359,1005.665,608.166,1005.665,616.576z"/>
			<path fill="none" stroke="#30241C" stroke-width="7.6104" stroke-miterlimit="10" d="M914.336,312.153
				c0,8.417,6.815,15.233,15.232,15.233c8.407,0,15.215-6.816,15.215-15.233c0-8.399-6.808-15.208-15.215-15.208
				C921.151,296.945,914.336,303.754,914.336,312.153z"/>
			<path fill="none" stroke="#30241C" stroke-width="7.6104" stroke-miterlimit="10" d="M974.13,266.505
				c0,8.4,6.816,15.216,15.226,15.216c8.408,0,15.215-6.816,15.215-15.216c0-8.417-6.807-15.225-15.215-15.225
				C980.946,251.281,974.13,258.089,974.13,266.505z"/>
			<path fill="none" stroke="#30241C" stroke-width="7.6104" stroke-miterlimit="10" d="M974.13,342.61
				c0,8.4,6.816,15.216,15.226,15.216c8.408,0,15.215-6.816,15.215-15.216c0-8.408-6.807-15.224-15.215-15.224
				C980.946,327.386,974.13,334.202,974.13,342.61z"/>
			<path fill="none" stroke="#30241C" stroke-width="7.6104" stroke-miterlimit="10" d="M883.895,616.576
				c0,8.407,6.817,15.23,15.224,15.23c8.409,0,15.217-6.823,15.217-15.23c0-8.41-6.808-15.217-15.217-15.217
				C890.712,601.359,883.895,608.166,883.895,616.576z"/>
			<path fill="none" stroke="#30241C" stroke-width="7.6104" stroke-miterlimit="10" d="M1142.643,448.675
				c0,8.416,6.823,15.224,15.233,15.224c8.407,0,15.215-6.808,15.215-15.224c0-8.4-6.808-15.216-15.215-15.216
				C1149.466,433.458,1142.643,440.274,1142.643,448.675z"/>
			<path fill="none" stroke="#30241C" stroke-width="7.6104" stroke-miterlimit="10" d="M1081.771,448.675
				c0,8.416,6.816,15.224,15.224,15.224s15.217-6.808,15.217-15.224c0-8.4-6.81-15.216-15.217-15.216
				S1081.771,440.274,1081.771,448.675z"/>
			<path fill="none" stroke="#30241C" stroke-width="7.6104" stroke-miterlimit="10" d="M1081.771,509.555
				c0,8.409,6.816,15.225,15.224,15.225s15.217-6.816,15.217-15.225c0-8.408-6.81-15.216-15.217-15.216
				S1081.771,501.147,1081.771,509.555z"/>
			<path fill="none" stroke="#30241C" stroke-width="7.6104" stroke-miterlimit="10" d="M1173.091,509.555
				c0,8.409,6.816,15.225,15.217,15.225c8.407,0,15.217-6.816,15.217-15.225c0-8.408-6.81-15.216-15.217-15.216
				C1179.907,494.339,1173.091,501.147,1173.091,509.555z"/>
			<path fill="none" stroke="#30241C" stroke-width="7.6104" stroke-miterlimit="10" d="M1081.771,570.437
				c0,8.407,6.816,15.224,15.224,15.224s15.217-6.816,15.217-15.224c0-8.4-6.81-15.208-15.217-15.208
				S1081.771,562.036,1081.771,570.437z"/>
			
				<line fill="none" stroke="#30241C" stroke-width="7.6104" stroke-miterlimit="10" x1="989.355" y1="281.722" x2="989.355" y2="327.746"/>
			
				<line fill="none" stroke="#30241C" stroke-width="7.6104" stroke-miterlimit="10" x1="989.355" y1="357.827" x2="989.355" y2="400.953"/>
			
				<line fill="none" stroke="#30241C" stroke-width="7.6104" stroke-miterlimit="10" x1="929.568" y1="400.953" x2="929.568" y2="327.386"/>
			<path fill="none" stroke="#30241C" stroke-width="7.6104" stroke-miterlimit="10" d="M976.164,674.924
				c0-8.407-6.81-15.23-15.217-15.23c-8.408,0-15.216,6.823-15.216,15.23c0,8.41,6.809,15.217,15.216,15.217
				C969.354,690.141,976.164,683.334,976.164,674.924z"/>
			
				<line fill="none" stroke="#30241C" stroke-width="7.6104" stroke-miterlimit="10" x1="960.947" y1="586.135" x2="960.947" y2="659.693"/>
			<polyline fill="none" stroke="#30241C" stroke-width="7.6104" stroke-miterlimit="10" points="838.23,388.267 899.119,388.267 
				899.119,400.953 			"/>
			<polyline fill="none" stroke="#30241C" stroke-width="7.6104" stroke-miterlimit="10" points="1020.882,400.953 
				1020.882,388.267 1142.643,388.267 			"/>
			
				<line fill="none" stroke="#30241C" stroke-width="7.6104" stroke-miterlimit="10" x1="807.79" y1="449.148" x2="868.034" y2="449.148"/>
			
				<line fill="none" stroke="#30241C" stroke-width="7.6104" stroke-miterlimit="10" x1="777.357" y1="449.148" x2="746.909" y2="449.148"/>
			
				<line fill="none" stroke="#30241C" stroke-width="7.6104" stroke-miterlimit="10" x1="777.357" y1="510.037" x2="807.79" y2="510.037"/>
			
				<line fill="none" stroke="#30241C" stroke-width="7.6104" stroke-miterlimit="10" x1="838.23" y1="510.037" x2="868.034" y2="510.037"/>
			
				<line fill="none" stroke="#30241C" stroke-width="7.6104" stroke-miterlimit="10" x1="807.79" y1="570.437" x2="868.034" y2="570.437"/>
			
				<line fill="none" stroke="#30241C" stroke-width="7.6104" stroke-miterlimit="10" x1="1081.771" y1="570.437" x2="1053.231" y2="570.437"/>
			
				<line fill="none" stroke="#30241C" stroke-width="7.6104" stroke-miterlimit="10" x1="1173.091" y1="509.555" x2="1112.211" y2="509.555"/>
			
				<line fill="none" stroke="#30241C" stroke-width="7.6104" stroke-miterlimit="10" x1="1081.771" y1="509.555" x2="1053.231" y2="509.555"/>
			
				<line fill="none" stroke="#30241C" stroke-width="7.6104" stroke-miterlimit="10" x1="1081.771" y1="448.675" x2="1053.231" y2="448.675"/>
			
				<line fill="none" stroke="#30241C" stroke-width="7.6104" stroke-miterlimit="10" x1="1142.643" y1="448.675" x2="1112.211" y2="448.675"/>
			
				<line fill="none" stroke="#30241C" stroke-width="7.6104" stroke-miterlimit="10" x1="899.119" y1="601.359" x2="899.119" y2="585.66"/>
			
				<line fill="none" stroke="#30241C" stroke-width="7.6104" stroke-miterlimit="10" x1="1020.882" y1="601.359" x2="1020.882" y2="586.135"/>
			<g>
				<path fill="#5A5B5B" d="M957.076,543.063v-14.82h-10.4C950.179,534.266,953.976,539.334,957.076,543.063z"/>
				<path fill="#5A5B5B" d="M1003.701,458.592c-8.228-10.119-19.941-17.283-33.295-19.666c3.977,4.726,9.002,11.476,13.328,19.666
					H1003.701z"/>
				<path fill="#5A5B5B" d="M957.076,458.592v-14.566c-3.057,3.677-6.791,8.653-10.253,14.566H957.076z"/>
				<path fill="#5A5B5B" d="M936.377,489.734h20.698v-23.532h-14.253C939.518,473.288,936.982,481.278,936.377,489.734z"/>
				<path fill="#5A5B5B" d="M917.376,528.243c8.354,10.397,20.368,17.728,34.07,20.022c-4.028-4.778-9.159-11.656-13.543-20.022
					H917.376z"/>
				<path fill="#5A5B5B" d="M951.447,438.822c-13.595,2.276-25.528,9.504-33.875,19.77h20.467
					C942.395,450.342,947.461,443.553,951.447,438.822z"/>
				<path fill="#5A5B5B" d="M934.446,466.202h-22.072c-4,7.035-6.505,15.021-7.085,23.532h23.46
					C929.27,481.294,931.464,473.352,934.446,466.202z"/>
				<path fill="#5A5B5B" d="M928.75,497.345h-23.46c0.574,8.412,3.024,16.312,6.942,23.287h22.108
					C931.41,513.547,929.264,505.688,928.75,497.345z"/>
				<path fill="#5A5B5B" d="M942.706,520.632h14.37v-23.287h-20.698C936.974,505.704,939.458,513.607,942.706,520.632z"/>
				<path fill="#5A5B5B" d="M970.408,548.16c13.461-2.402,25.253-9.667,33.489-19.917h-20.026
					C979.517,536.547,974.425,543.386,970.408,548.16z"/>
				<path fill="#5A5B5B" d="M987.438,520.632h21.604c3.919-6.975,6.369-14.875,6.942-23.287H993.03
					C992.516,505.688,990.368,513.547,987.438,520.632z"/>
				<path fill="#5A5B5B" d="M868.034,400.953v185.182h185.198V400.953H868.034z M960.975,556.642c-0.032,0-0.063,0.008-0.094,0.008
					c-0.018,0-0.035-0.004-0.054-0.004c-0.063,0-0.127,0.004-0.19,0.004c-34.795,0-63.103-28.311-63.103-63.11
					c0-34.795,28.308-63.103,63.103-63.103c0.063,0,0.124,0.005,0.186,0.005c0.053,0,0.105,0.002,0.157,0.004
					c34.638,0.186,62.76,28.415,62.76,63.094C1023.739,528.226,995.614,556.457,960.975,556.642z"/>
				<path fill="#5A5B5B" d="M964.686,444.02v14.572h10.266C971.484,452.675,967.745,447.696,964.686,444.02z"/>
				<path fill="#5A5B5B" d="M993.03,489.734h22.954c-0.58-8.511-3.085-16.497-7.086-23.532H987.33
					C990.313,473.352,992.509,481.294,993.03,489.734z"/>
				<path fill="#5A5B5B" d="M964.686,528.243v14.826c3.103-3.729,6.904-8.798,10.413-14.826H964.686z"/>
				<path fill="#5A5B5B" d="M978.954,466.202h-14.269v23.532h20.717C984.799,481.278,982.26,473.288,978.954,466.202z"/>
				<path fill="#5A5B5B" d="M985.402,497.345h-20.717v23.287h14.385C982.32,513.607,984.807,505.704,985.402,497.345z"/>
			</g>
		</g>
	</g>


</svg>
