<?xml version="1.0" encoding="utf-8"?>
<!-- Generator: Adobe Illustrator 15.1.0, SVG Export Plug-In . SVG Version: 6.00 Build 0)  -->
<!DOCTYPE svg PUBLIC "-//W3C//DTD SVG 1.1//EN" "http://www.w3.org/Graphics/SVG/1.1/DTD/svg11.dtd">
<svg version="1.1" id="Layer_1" xmlns="http://www.w3.org/2000/svg" xmlns:xlink="http://www.w3.org/1999/xlink" x="0px" y="0px" width="750px" height="750px"
	 viewBox="585 165 750 750" enable-background="new 585 165 750 750" xml:space="preserve">

		<g>
			<g>
				<path fill="#5A5B5B" d="M1053.003,740.815l-203.06-73.245H591.972v73.245v5.108v5.108h505.227
					c-2.807-2.938-5.017-6.39-6.489-10.217H1053.003z"/>
				<path fill="#5A5B5B" d="M1277.807,742.059l-1.012-1.243H1148.1c-1.473,3.858-3.65,7.303-6.412,10.217h148.515
					C1285.446,749.106,1281.151,746.146,1277.807,742.059z"/>
			</g>
			<g>
				<path fill="#5A5B5B" d="M1193.847,407.62c-23.088-0.752-41.251-20.15-40.492-43.238c0.744-22.728,19.13-40.531,41.857-40.531
					l1.381,0.023c23.088,0.767,41.251,20.158,40.5,43.238c-0.744,22.728-19.13,40.531-41.85,40.531L1193.847,407.62z"/>
				<path fill="#5A5B5B" d="M1322.127,705.953l-54.384-66.747l-23.256-56.087l3.328-101.694
					c15.272,25.949,17.819,58.74,17.934,60.273c0.798,13.677,11.705,24.315,25.313,24.761l0.798,0.016c0,0,1.166-0.016,1.642-0.054
					c7.011-0.384,13.454-3.49,18.133-8.729c4.694-5.247,7.049-12.005,6.65-19.023c-0.254-4.609-7.264-113.115-90.642-137.085
					c-0.752-0.215-1.52-0.337-2.27-0.491c-7.756,6.612-17.712,10.67-28.666,11.007l-125.925,100.82
					c-5.484,4.388-8.928,10.654-9.711,17.642c-0.767,6.987,1.228,13.86,5.623,19.345c5.024,6.267,12.511,9.864,20.541,9.864
					c5.944,0,11.79-2.048,16.438-5.775l57.021-45.647l-2.3,70.406c-56.746,64.632-64.893,145.232-65.215,148.653
					c-1.334,14.39,9.297,27.23,23.679,28.626c0.568,0.054,2.562,0.115,2.562,0.115c13.593,0,24.838-10.209,26.164-23.74
					c0.07-0.705,7.51-68.826,53.847-120.578l21.171,51.077c0.959,2.347,2.271,4.548,3.911,6.573l56.808,69.724
					c5.032,6.151,12.472,9.681,20.418,9.681l0,0c6.029,0,11.92-2.094,16.614-5.914
					C1329.598,733.805,1331.285,717.198,1322.127,705.953z"/>
			</g>
		</g>


</svg>
