<?xml version="1.0" encoding="utf-8"?>
<!-- Generator: Adobe Illustrator 18.1.1, SVG Export Plug-In . SVG Version: 6.00 Build 0)  -->
<svg version="1.1" id="Layer_1" xmlns="http://www.w3.org/2000/svg" xmlns:xlink="http://www.w3.org/1999/xlink" x="0px" y="0px"
	 viewBox="0 0 80.7 80.7" style="enable-background:new 0 0 80.7 80.7;" xml:space="preserve">
<style type="text/css">
	.st0{fill:#5A5A5A;}
	.st1{fill:none;}
</style>
<g>
	<g>
		<g>
			<path class="st0" d="M40.3,14.8l-20.9,9.3V38c0,12.9,8.9,24.9,20.9,27.8c12-2.9,20.9-15,20.9-27.8V24.1L40.3,14.8z M56.6,38.5
				c0,10-7.5,20.4-16.2,22.7c-8.7-2.3-16.2-12.7-16.2-22.7V27.1l16.2-7.2l16.2,7.2V38.5z"/>
			<polygon class="st0" points="38,36.7 32.5,37.4 36.6,41.2 35.5,46.6 40.3,43.9 45.2,46.6 44.1,41.2 48.2,37.4 42.7,36.7 
				40.3,31.7 			"/>
		</g>
	</g>
</g>
<rect x="0" y="0.1" class="st1" width="80.7" height="80.7"/>
</svg>
