<?xml version="1.0" encoding="utf-8"?>
<!-- Generator: Adobe Illustrator 15.1.0, SVG Export Plug-In . SVG Version: 6.00 Build 0)  -->
<!DOCTYPE svg PUBLIC "-//W3C//DTD SVG 1.1//EN" "http://www.w3.org/Graphics/SVG/1.1/DTD/svg11.dtd">
<svg version="1.1" id="Layer_1" xmlns="http://www.w3.org/2000/svg" xmlns:xlink="http://www.w3.org/1999/xlink" x="0px" y="0px"
	 width="750px" height="750px" viewBox="585 165 750 750" enable-background="new 585 165 750 750" xml:space="preserve">
<g>
	<path fill="#5A5B5B" d="M1061.479,441.128H858.521c-3.313,0-6,2.687-6,6v304.448c0,3.313,2.687,6,6,6h59.602c3.313,0,6-2.688,6-6
		v-124.09h71.754v124.09c0,3.313,2.687,6,6,6h59.602c3.313,0,6-2.688,6-6V447.128
		C1067.479,443.815,1064.792,441.128,1061.479,441.128z M1055.479,745.576h-47.602v-124.09c0-3.314-2.687-6-6-6h-83.754
		c-3.313,0-6,2.686-6,6v124.09h-47.602V453.128h190.957V745.576z"/>
	<path fill="#5A5B5B" d="M839.672,538.699c0-3.313-2.686-6-6-6H638.174c-3.314,0-6,2.687-6,6v212.877c0,3.313,2.686,6,6,6h195.498
		c3.314,0,6-2.688,6-6c0-3.314-2.686-6-6-6H644.174V544.699h189.498C836.986,544.699,839.672,542.012,839.672,538.699z"/>
	<path fill="#5A5B5B" d="M679.6,561.58c-3.314,0-6,2.686-6,6v107.818c0,3.313,2.686,6,6,6h42.984c3.314,0,6-2.688,6-6V567.58
		c0-3.314-2.686-6-6-6H679.6z M716.584,669.398H685.6V573.58h30.984V669.398z"/>
	<path fill="#5A5B5B" d="M756.709,561.58c-3.313,0-6,2.686-6,6v107.818c0,3.313,2.687,6,6,6h42.99c3.313,0,6-2.688,6-6V567.58
		c0-3.314-2.687-6-6-6H756.709z M793.699,669.398h-30.99V573.58h30.99V669.398z"/>
	<path fill="#5A5B5B" d="M1281.838,532.699h-195.504c-3.313,0-6,2.687-6,6c0,3.313,2.687,6,6,6h189.504v200.877h-189.504
		c-3.313,0-6,2.686-6,6c0,3.313,2.687,6,6,6h195.504c3.313,0,6-2.688,6-6V538.699
		C1287.838,535.385,1285.151,532.699,1281.838,532.699z"/>
	<path fill="#5A5B5B" d="M1240.412,681.398c3.313,0,6-2.688,6-6V567.58c0-3.314-2.687-6-6-6h-42.99c-3.313,0-6,2.686-6,6v107.818
		c0,3.313,2.687,6,6,6H1240.412z M1203.422,573.58h30.99v95.818h-30.99V573.58z"/>
	<path fill="#5A5B5B" d="M1163.297,681.398c3.313,0,6-2.688,6-6V567.58c0-3.314-2.687-6-6-6h-42.99c-3.313,0-6,2.686-6,6v107.818
		c0,3.313,2.687,6,6,6H1163.297z M1126.307,573.58h30.99v95.818h-30.99V573.58z"/>
	<path fill="#5A5B5B" d="M1288.693,506.917h-202.359c-3.313,0-6,2.687-6,6s2.687,6,6,6h202.359c3.313,0,6-2.687,6-6
		S1292.007,506.917,1288.693,506.917z"/>
	<path fill="#5A5B5B" d="M833.672,506.917H631.307c-3.313,0-6,2.687-6,6s2.687,6,6,6h202.365c3.313,0,6-2.687,6-6
		S836.985,506.917,833.672,506.917z"/>
	<path fill="#5A5B5B" d="M891.006,573.58h54.246c3.313,0,6-2.688,6-6v-91.999c0-3.313-2.687-6-6-6h-54.246c-3.313,0-6,2.687-6,6
		v91.999C885.006,570.893,887.692,573.58,891.006,573.58z M897.006,481.582h42.246v79.999h-42.246V481.582z"/>
	<path fill="#5A5B5B" d="M974.76,573.58h54.246c3.313,0,6-2.688,6-6v-91.999c0-3.313-2.687-6-6-6H974.76c-3.313,0-6,2.687-6,6
		v91.999C968.76,570.893,971.446,573.58,974.76,573.58z M980.76,481.582h42.246v79.999H980.76V481.582z"/>
	<path fill="#5A5B5B" d="M1064.168,304.988c-6.646-3.333-13.595-4.953-21.243-4.953c-12.214,0-24.077,4.212-35.549,8.285
		c-10.998,3.905-21.387,7.593-31.534,7.593c-4.478,0-8.619-0.744-12.57-2.243c-0.159-3.171-2.773-5.696-5.984-5.696
		c-3.313,0-6,2.687-6,6v74.657l-94.5,28.525c-3.172,0.958-4.968,4.306-4.01,7.478c0.783,2.594,3.165,4.268,5.742,4.268
		c0.574,0,1.158-0.083,1.736-0.257l97.077-29.303l102.496,29.327c3.186,0.911,6.507-0.932,7.419-4.118
		c0.911-3.186-0.933-6.507-4.118-7.419l-99.842-28.568v-8.811c4.006,1.086,8.163,1.64,12.555,1.639
		c12.214,0,24.076-4.212,35.548-8.285c10.999-3.905,21.388-7.593,31.535-7.593c5.737,0,10.927,1.204,15.864,3.679
		c1.859,0.933,4.068,0.835,5.841-0.257c1.771-1.093,2.849-3.025,2.849-5.106v-53.479
		C1067.479,308.081,1066.197,306.005,1064.168,304.988z M975.842,327.913c12.215,0,24.077-4.212,35.549-8.285
		c10.998-3.905,21.387-7.593,31.534-7.593c4.471,0,8.608,0.731,12.554,2.225v14.126c-16.547-4.525-32.552,1.148-48.104,6.67
		c-15.407,5.47-30.023,10.65-44.087,5.356v-14.118C967.292,327.379,971.452,327.913,975.842,327.913z M1042.925,353.514
		c-12.215,0-24.078,4.212-35.55,8.285c-10.998,3.905-21.387,7.593-31.533,7.593c-4.471,0-8.608-0.73-12.554-2.225v-14.14
		c4.212,1.152,8.39,1.659,12.534,1.659c12.131,0,23.977-4.205,35.567-8.321c15.409-5.47,30.026-10.652,44.089-5.356v14.124
		C1051.475,354.047,1047.314,353.514,1042.925,353.514z"/>
</g>
</svg>
