<svg xmlns="http://www.w3.org/2000/svg" viewBox="0 0 595.3 595.3"><path fill="#5B5B5B" d="M293.2 424.3c57.3 0 131.3-29.6 131.3-29.6h39.8v-21.1l47.7-36.9c2.9-2.3 4-6.2 2.7-9.6L484 247.5c-.9-2.3-2.8-4.2-5.2-4.9l-183-60.1c-1.7-.6-3.5-.6-5.2 0l-183 60.1c-2.4.8-4.3 2.6-5.2 4.9l-30.7 79.6c-1.3 3.5-.2 7.4 2.7 9.6l47.7 36.9V396.1h46.3s67.5 28.2 124.8 28.2zm-26.9-172.9l25.2 5.2c1.1.2 2.3.2 3.4 0l25.2-5.2v30.8c0 9.5-16.4 20.6-26.9 26-11.9-6.1-26.9-17.3-26.9-26v-30.8zM139.2 354.6v-.1c0-21.7 47.7-45.4 119.5-51.3 11 12.5 28.3 20.6 31.1 21.9 1.1.5 2.2.7 3.4.7 1.2 0 2.3-.2 3.4-.7 2.8-1.2 20.1-9.3 31.1-21.9 71.8 6 119.5 29.7 119.5 51.3v14.7c-27-23.3-84.3-38.7-154-38.7-70 0-127.5 15.6-154.3 39l.4-14.8s-.1 0-.1-.1z"/></svg>