<svg id="Layer_1" xmlns="http://www.w3.org/2000/svg" viewBox="0 0 750 750"><style>.st0{fill:#5A5B5B;}</style><path class="st0" d="M727.3 567.2H485.4c-2.9 0-5.3-2.4-5.3-5.3V509c0-2.9 2.4-5.3 5.3-5.3h110.4l-79-79c-1.5-1.5-2-3.8-1.2-5.8s2.7-3.3 4.8-3.3h40.1l-79-79c-1.5-1.5-2-3.8-1.2-5.8s2.7-3.3 4.8-3.3h40.1L450 252.2l-10.1 10.1c-2 2-5.4 2-7.4 0s-2-5.4 0-7.4l13.9-13.9c2-2 5.4-2 7.4 0l88 88c1.5 1.5 2 3.8 1.2 5.8s-2.7 3.3-4.8 3.3h-40.1l79 79c1.5 1.5 2 3.8 1.2 5.8s-2.7 3.3-4.8 3.3h-40.1l79 79c1.5 1.5 2 3.8 1.2 5.8s-2.7 3.3-4.8 3.3h-118v42.2h236.5c2.9 0 5.3 2.4 5.3 5.3 0 3-2.4 5.4-5.3 5.4z"/><path class="st0" d="M734.6 567.2h-210c-2.9 0-5.3-2.4-5.3-5.3V509c0-2.9 2.4-5.3 5.3-5.3h144.6l-79-79c-1.5-1.5-2-3.8-1.2-5.8s2.7-3.3 4.8-3.3H634l-79-79c-1.5-1.5-2-3.8-1.2-5.8s2.7-3.3 4.8-3.3h40.1l-75.3-75.3-19 18.6c-2.1 2-5.4 2-7.4-.1s-2-5.4.1-7.4l22.8-22.3c2-2 5.4-2 7.4 0l88 88c1.5 1.5 2 3.8 1.2 5.8s-2.7 3.3-4.8 3.3h-40.1l79 79c1.5 1.5 2 3.8 1.2 5.8s-2.7 3.3-4.8 3.3h-40.1l79 79c1.5 1.5 2 3.8 1.2 5.8s-2.7 3.3-4.8 3.3H530v42.2h204.7c2.9 0 5.3 2.4 5.3 5.3-.1 3-2.5 5.4-5.4 5.4z"/><path class="st0" d="M395.5 572.3c-2.9 0-5.3-2.4-5.3-5.3v-85.3c0-2.9 2.4-5.3 5.3-5.3H506l-79-79c-1.5-1.5-2-3.8-1.2-5.8s2.7-3.3 4.8-3.3h40l-79-79c-1.5-1.5-2-3.8-1.2-5.8s2.7-3.3 4.8-3.3h40l-75.3-75.3-75.3 75.3h40.1c2.1 0 4 1.3 4.8 3.3.8 2 .4 4.2-1.2 5.8l-79 79h40.1c2.1 0 4 1.3 4.8 3.3.8 2 .4 4.2-1.2 5.8l-79 79h111c2.9 0 5.3 2.4 5.3 5.3v80.2c0 2.9-2.4 5.3-5.3 5.3H109.5c-2.9 0-5.3-2.4-5.3-5.3s2.4-5.3 5.3-5.3h210.4v-69.7H202c-2.1 0-4-1.3-4.8-3.3-.8-2-.4-4.2 1.2-5.8l79-79h-40.1c-2.1 0-4-1.3-4.8-3.3-.8-2-.4-4.2 1.2-5.8l79-79h-40.1c-2.1 0-4-1.3-4.8-3.3-.8-2-.4-4.2 1.2-5.8l88-88c2-2 5.4-2 7.4 0l88 88c1.5 1.5 2 3.8 1.2 5.8s-2.7 3.3-4.8 3.3h-40l79 79c1.5 1.5 2 3.8 1.2 5.8s-2.7 3.3-4.8 3.3h-40l79 79c1.5 1.5 2 3.8 1.2 5.8s-2.7 3.3-4.8 3.3h-118v80c-.7 2.9-3.1 5.4-6.1 5.4z"/><path class="st0" d="M426.8 572.3c-2.9 0-5.3-2.4-5.3-5.3v-63.6c0-2.9 2.4-5.3 5.3-5.3s5.3 2.4 5.3 5.3V567c0 2.8-2.3 5.3-5.3 5.3z"/><g><path class="st0" d="M127.3 404.4c-65.2 0-118.2-53.1-118.2-118.2C9.1 221 62.2 168 127.3 168c65.2 0 118.2 53.1 118.2 118.2.1 65.1-53 118.2-118.2 118.2zm0-226c-59.3 0-107.7 48.2-107.7 107.7 0 59.3 48.2 107.7 107.7 107.7 59.3 0 107.7-48.2 107.7-107.7 0-59.4-48.2-107.7-107.7-107.7z"/><path class="st0" d="M40.6 307.3l22.6-18.6c8.5-7 11.8-10.7 11.8-16.4 0-5.8-3.8-8.8-9.2-8.8-5.3 0-8.8 2.9-13.9 9.2l-10.5-8.5C48.1 255 54.6 250 66.8 250c14.2 0 23.5 8.3 23.5 21v.2c0 11.4-5.9 17-17.9 26.4l-11.1 8.6H91v13H40.6v-11.9zM101.7 285.4v-.2c0-19.8 12.3-35.3 30.4-35.3 18 0 30.2 15.3 30.2 35v.2c0 19.8-12.2 35.3-30.4 35.3s-30.2-15.3-30.2-35zm45.2 0v-.2c0-12.4-6-21.7-15-21.7s-14.7 9.1-14.7 21.5v.2c0 12.5 5.9 21.7 15 21.7 9-.1 14.7-9.3 14.7-21.5zM174.3 248.1H189V286l17.3-19H224l-19.8 20.5 20.5 31.6h-17l-13.6-21.2-5.2 5.4v15.9h-14.7v-71.1z"/></g></svg>