<?xml version="1.0" encoding="utf-8"?>
<!-- Generator: Adobe Illustrator 15.1.0, SVG Export Plug-In  -->
<!DOCTYPE svg PUBLIC "-//W3C//DTD SVG 1.1//EN" "http://www.w3.org/Graphics/SVG/1.1/DTD/svg11.dtd" [
	<!ENTITY ns_flows "http://ns.adobe.com/Flows/1.0/">
]>
<svg version="1.1"
	 xmlns="http://www.w3.org/2000/svg" xmlns:xlink="http://www.w3.org/1999/xlink" xmlns:a="http://ns.adobe.com/AdobeSVGViewerExtensions/3.0/"
	 x="0px" y="0px" width="300px" height="300px" viewBox="0 0 300 300" enable-background="new 0 0 300 300" xml:space="preserve">
<defs>
</defs>
<rect fill="none" width="300" height="300"/>
<rect x="145.141" y="219.909" fill="#FFFFFF" width="21.724" height="15.325"/>
<rect x="115.884" y="95.709" fill="#FFFFFF" width="76.104" height="114.828"/>
<rect x="115.884" y="95.709" fill="#FFFFFF" width="76.104" height="114.828"/>
<path fill="#5A5B5B" d="M194.054,85.461h-80.973v10.248v117.633h81.711V85.461H194.054z M115.884,210.537V95.709h76.104v114.828
	H115.884z"/>
<circle fill="#FFFFFF" cx="189.512" cy="90.887" r="2.165"/>
<circle fill="#FFFFFF" cx="178.571" cy="90.887" r="2.166"/>
<circle fill="#FFFFFF" cx="167.632" cy="90.887" r="2.164"/>
<rect x="105.8" y="102.826" fill="#5A5B5B" width="78.682" height="2.805"/>
<rect x="118.823" y="111.508" fill="#5A5B5B" width="56.434" height="2.805"/>
<rect x="140.528" y="120.191" fill="#5A5B5B" width="43.953" height="2.805"/>
<rect x="105.8" y="137.553" fill="#5A5B5B" width="78.682" height="2.805"/>
<rect x="123.347" y="146.234" fill="#5A5B5B" width="61.135" height="2.805"/>
<rect x="132.026" y="154.918" fill="#5A5B5B" width="52.455" height="2.805"/>
<rect x="105.8" y="172.283" fill="#5A5B5B" width="78.682" height="2.805"/>
<rect x="123.347" y="180.965" fill="#5A5B5B" width="51.551" height="2.805"/>
<rect x="132.026" y="189.646" fill="#5A5B5B" width="52.455" height="2.805"/>
<rect x="140.983" y="198.33" fill="#5A5B5B" width="25.881" height="2.805"/>
<path fill="#5A5B5B" d="M202.132,62.566h-89.652c0.355,1.85,0.559,3.752,0.559,5.703c0,3.979-0.793,7.771-2.197,11.254h96.053
	v139.752H100.89V92.43c-2.316,1.736-4.883,3.141-7.645,4.16v127.24c0,6.85,5.551,12.404,12.406,12.404h96.48
	c6.85,0,12.406-5.555,12.406-12.404V74.971C214.538,68.121,208.981,62.566,202.132,62.566z M153.892,232.623
	c-2.586,0-4.684-2.098-4.684-4.682c0-2.588,2.098-4.686,4.684-4.686s4.684,2.098,4.684,4.686
	C158.575,230.525,156.478,232.623,153.892,232.623z"/>
<path fill="#5A5B5B" d="M108.819,68.27c0,14.477-11.738,26.213-26.215,26.213c-14.48,0-26.219-11.736-26.219-26.213
	c0-14.48,11.738-26.221,26.219-26.221C97.081,42.049,108.819,53.789,108.819,68.27"/>
<polygon fill="#FFFFFF" points="95.476,64.465 86.407,64.465 86.407,55.393 78.8,55.393 78.8,64.465 69.729,64.465 69.729,72.07 
	78.8,72.07 78.8,81.139 86.407,81.139 86.407,72.07 95.476,72.07 "/>
</svg>
