<?xml version="1.0" encoding="utf-8"?>
<!-- Generator: Adobe Illustrator 18.0.0, SVG Export Plug-In . SVG Version: 6.00 Build 0)  -->
<!DOCTYPE svg PUBLIC "-//W3C//DTD SVG 1.1//EN" "http://www.w3.org/Graphics/SVG/1.1/DTD/svg11.dtd">
<svg version="1.1" id="Layer_1" xmlns="http://www.w3.org/2000/svg" xmlns:xlink="http://www.w3.org/1999/xlink" x="0px" y="0px"
	 viewBox="0 0 595.3 595.3" enable-background="new 0 0 595.3 595.3" xml:space="preserve">
<g>
	<path fill="#5B5B5B" d="M293.2,424.3c57.3,0,131.3-29.6,131.3-29.6h39.8v-21.1l47.7-36.9c2.9-2.3,4-6.2,2.7-9.6L484,247.5
		c-0.9-2.3-2.8-4.2-5.2-4.9l-183-60.1c-1.7-0.6-3.5-0.6-5.2,0l-183,60.1c-2.4,0.8-4.3,2.6-5.2,4.9l-30.7,79.6
		c-1.3,3.5-0.2,7.4,2.7,9.6l47.7,36.9v19.6c0,0.2,0,0.4,0,0.6v2.3h46.3C168.4,396.1,235.9,424.3,293.2,424.3z M266.3,251.4l25.2,5.2
		c1.1,0.2,2.3,0.2,3.4,0l25.2-5.2v30.8c0,9.5-16.4,20.6-26.9,26c-11.9-6.1-26.9-17.3-26.9-26V251.4z M139.2,354.6c0,0,0-0.1,0-0.1
		c0-21.7,47.7-45.4,119.5-51.3c11,12.5,28.3,20.6,31.1,21.9c1.1,0.5,2.2,0.7,3.4,0.7c1.2,0,2.3-0.2,3.4-0.7
		c2.8-1.2,20.1-9.3,31.1-21.9c71.8,6,119.5,29.7,119.5,51.3v14.7c-27-23.3-84.3-38.7-154-38.7c-70,0-127.5,15.6-154.3,39l0.4-14.8
		C139.3,354.7,139.2,354.7,139.2,354.6z"/>
</g>
</svg>
