<?xml version="1.0" encoding="utf-8"?>
<!-- Generator: Adobe Illustrator 18.0.0, SVG Export Plug-In . SVG Version: 6.00 Build 0)  -->
<!DOCTYPE svg PUBLIC "-//W3C//DTD SVG 1.1//EN" "http://www.w3.org/Graphics/SVG/1.1/DTD/svg11.dtd">
<svg version="1.1" id="Layer_1" xmlns="http://www.w3.org/2000/svg" xmlns:xlink="http://www.w3.org/1999/xlink" x="0px" y="0px"
	 viewBox="0 0 595.3 595.3" enable-background="new 0 0 595.3 595.3" xml:space="preserve">
<g>
	<path fill="#5B5B5B" d="M94.1,360.7c0,47.5,38.6,86.1,86.1,86.1c47.5,0,86.1-38.6,86.1-86.1s-38.6-86.1-86.1-86.1
		S94.1,313.2,94.1,360.7z"/>
	<polygon fill="#5B5B5B" points="95.1,224.9 122.2,224.9 122.2,167.7 122.2,167.7 103.5,137.2 80.3,151.4 95.1,175.4 	"/>
	<path fill="#5B5B5B" d="M55.7,266.6v122.3c0,6.3,5.1,11.3,11.3,11.3h10.3c7.5,0,12.9-7.2,10.9-14.5c-2.2-8-3.4-16.4-3.4-25.1
		c0-52.6,42.8-95.4,95.4-95.4s95.4,42.8,95.4,95.4c0,8.7-1.2,17.1-3.4,25.1c-2,7.3,3.4,14.5,10.9,14.5h16.8
		c6.3,0,11.3-5.1,11.3-11.3l9.8-53.1c8-43.6,46-75.2,90.3-75.2h13.5v6.1c5.1-0.8,25.4-0.9,42-0.2v-33.8H362.4l-25.8-99.4H184
		l-36.3,99.4H89.6C76.3,245.9,68.9,253.3,55.7,266.6z"/>
	<path fill="#5B5B5B" d="M364.4,320.3h152c-14.5-27.2-43.1-45.8-76-45.8S378.9,293.1,364.4,320.3z"/>
	<path fill="#5B5B5B" d="M516.4,401h-152c14.5,27.2,43.1,45.8,76,45.8S501.9,428.2,516.4,401z"/>
	<rect x="340.4" y="329.6" fill="#5B5B5B" width="200.1" height="62.1"/>
</g>
</svg>
