<?xml version="1.0" encoding="utf-8"?>
<!-- Generator: Adobe Illustrator 22.0.1, SVG Export Plug-In . SVG Version: 6.00 Build 0)  -->
<svg version="1.1" id="Layer_1" xmlns="http://www.w3.org/2000/svg" xmlns:xlink="http://www.w3.org/1999/xlink" x="0px" y="0px"
	 viewBox="0 0 1920 1080" style="enable-background:new 0 0 1920 1080;" xml:space="preserve">
<style type="text/css">
	.st0{fill:none;stroke:#5A5B5B;stroke-width:12;stroke-linecap:round;stroke-linejoin:round;stroke-miterlimit:10;}
	.st1{fill:#5A5B5B;}
</style>
<g>
	<path class="st0" d="M1001.9,758.8h59.6V454.4h-203v304.4h59.6"/>
	<polyline class="st0" points="1061.5,430.1 957.3,400.3 858.5,430.1 	"/>
	<polyline class="st0" points="833.7,545.9 638.2,545.9 638.2,758.8 833.7,758.8 	"/>
	<rect x="679.6" y="574.8" class="st0" width="43" height="107.8"/>
	<rect x="756.7" y="574.8" class="st0" width="43" height="107.8"/>
	<polyline class="st0" points="1086.3,545.9 1281.8,545.9 1281.8,758.8 1086.3,758.8 	"/>
	<rect x="1197.4" y="574.8" class="st0" width="43" height="107.8"/>
	<rect x="1120.3" y="574.8" class="st0" width="43" height="107.8"/>
	<line class="st0" x1="1086.3" y1="520.1" x2="1288.7" y2="520.1"/>
	<line class="st0" x1="631.3" y1="520.1" x2="833.7" y2="520.1"/>
	<polyline class="st0" points="1001.9,758.8 1001.9,628.7 918.1,628.7 918.1,758.8 	"/>
	<rect x="891" y="482.8" class="st0" width="54.2" height="92"/>
	<rect x="974.8" y="482.8" class="st0" width="54.2" height="92"/>
	<line class="st0" x1="957.3" y1="400.3" x2="957.3" y2="321.2"/>
	<g>
		<g>
			<path class="st0" d="M1061.5,371.1c-34.7-17.4-69.5,24.7-104.2,7.2c0-17.8,0-35.7,0-53.5c34.7,17.4,69.5-24.7,104.2-7.2
				C1061.5,335.4,1061.5,353.2,1061.5,371.1z"/>
			<path class="st0" d="M957.3,351.6c34.7,17.4,69.5-24.7,104.2-7.2"/>
		</g>
	</g>
</g>
<circle class="st0" cx="708" cy="368.4" r="125.7"/>
<g>
	<path class="st1" d="M649.1,403.4v-0.4c0-18.8,8.6-29.9,25-37.4c-11.9-7.3-19.7-17.3-19.7-33.8v-0.4c0-23.7,21.7-42.5,54.4-42.5
		s54.4,18.6,54.4,42.5v0.4c0,16.6-7.7,26.5-19.7,33.8c15.7,8.2,25,18.1,25,36.5v0.4c0,28.8-25.4,45.6-59.7,45.6
		S649.1,430.4,649.1,403.4z M735.6,400.7v-0.4c0-11.9-11.3-19-26.8-19s-26.8,7.1-26.8,19v0.4c0,10.6,10,19.2,26.8,19.2
		S735.6,411.5,735.6,400.7z M731,335.4V335c0-9.5-8.2-18.1-22.1-18.1s-22.1,8.4-22.1,17.9v0.4c0,10.8,8.6,19,22.1,19
		S731,346.3,731,335.4z"/>
</g>
</svg>
