<?xml version="1.0" encoding="UTF-8"?>
<svg width="545px" height="545px" viewBox="0 0 545 545" version="1.1" xmlns="http://www.w3.org/2000/svg" xmlns:xlink="http://www.w3.org/1999/xlink">
    <!-- Generator: Sketch 49.2 (51160) - http://www.bohemiancoding.com/sketch -->
    <title>GCBA-compromisos-icons-09</title>
    <desc>Created with Sketch.</desc>
    <defs></defs>
    <g id="GCBA-compromisos-icons-09" stroke="none" stroke-width="1" fill="none" fill-rule="evenodd">
        <g transform="translate(0.000000, 1.000000)" fill="#5B5B5B" fill-rule="nonzero" id="Shape">
            <path d="M473.753722,538 L64.2462779,538 C15.6861042,538 0,522.309029 0,473.733788 L0,64.2662116 C0,36.7235495 6.67493797,0 64.2462779,0 L473.753722,0 C511.633995,0 538,26.3741855 538,64.2662116 L538,473.733788 C537.833127,531.322991 501.287841,538 473.753722,538 Z M64.2462779,20.6987279 C27.867866,20.6987279 20.6923077,36.7235495 20.6923077,64.2662116 L20.6923077,473.733788 C20.6923077,511.125039 26.8666253,517.301272 64.2462779,517.301272 L473.753722,517.301272 C501.287841,517.301272 517.307692,510.123487 517.307692,473.733788 L517.307692,64.2662116 C517.307692,37.8920261 500.2866,20.6987279 473.753722,20.6987279 L64.2462779,20.6987279 Z"></path>
            <path d="M256.638274,75 L225.903761,75 L195.336283,161.447798 L252.629425,161.447798 L256.638274,75 Z M343.663717,161.447798 L313.096239,75 L282.528761,75 L286.370575,161.447798 L343.663717,161.447798 Z M474.452434,193.719413 L64.5475664,193.719413 C43,193.719413 43,193.719413 43,215.28956 C43,236.859706 43,236.859706 64.5475664,236.859706 L86.0951327,236.859706 L86.0951327,280 L129.190265,280 L129.190265,236.859706 L409.475664,236.859706 L409.475664,280 L452.570796,280 L452.570796,236.859706 L474.452434,236.859706 C496,236.859706 496,236.859706 496,215.28956 C496,193.719413 496,193.719413 474.452434,193.719413 Z"></path>
            <path d="M108,457 L242.305269,457 L248.478306,269 L168.228822,269 M290.688533,269 L296.694731,457 L431,457 L370.771178,269"></path>
        </g>
    </g>
</svg>