<?xml version="1.0" encoding="utf-8"?>
<!-- Generator: Adobe Illustrator 22.0.1, SVG Export Plug-In . SVG Version: 6.00 Build 0)  -->
<svg version="1.1" id="Capa_1" xmlns="http://www.w3.org/2000/svg" xmlns:xlink="http://www.w3.org/1999/xlink" x="0px" y="0px"
	 viewBox="0 0 512 512" style="enable-background:new 0 0 512 512;" xml:space="preserve">
<style type="text/css">
	.st0{fill:#616264;}
</style>
<g>
	<g>
		<path class="st0" d="M403.8,182.5H174.1c-2.5,0-4.5,2-4.5,4.5s2,4.5,4.5,4.5H284v11.2c0,2.5,2,4.5,4.5,4.5c2.5,0,4.5-2,4.5-4.5
			v-11.2h106.2v128.9H293v-11.2c0-2.5-2-4.5-4.5-4.5c-2.5,0-4.5,2-4.5,4.5v11.2H112.7V191.5h11.6c2.5,0,4.5-2,4.5-4.5
			s-2-4.5-4.5-4.5h-16.1c-2.5,0-4.5,2-4.5,4.5v138c0,2.5,2,4.5,4.5,4.5h295.6c2.5,0,4.5-2,4.5-4.5V187
			C408.3,184.5,406.3,182.5,403.8,182.5z"/>
	</g>
</g>
<g>
	<g>
		<path class="st0" d="M288.5,273.4c-2.5,0-4.5,2-4.5,4.5v15.7c0,2.5,2,4.5,4.5,4.5c2.5,0,4.5-2,4.5-4.5v-15.7
			C293,275.4,291,273.4,288.5,273.4z"/>
	</g>
</g>
<g>
	<g>
		<path class="st0" d="M288.5,242c-2.5,0-4.5,2-4.5,4.5v15.7c0,2.5,2,4.5,4.5,4.5c2.5,0,4.5-2,4.5-4.5v-15.7
			C293,244,291,242,288.5,242z"/>
	</g>
</g>
<g>
	<g>
		<path class="st0" d="M288.5,212.3c-2.5,0-4.5,2-4.5,4.5v15.7c0,2.5,2,4.5,4.5,4.5c2.5,0,4.5-2,4.5-4.5v-15.7
			C293,214.3,291,212.3,288.5,212.3z"/>
	</g>
</g>
<g>
	<g>
		<path class="st0" d="M252.4,277.1h-72.5c-2,0-3.6,2-3.6,4.5c0,2.5,1.6,4.5,3.6,4.5h68.8v12H140.1v-12h6.9c2,0,3.6-2,3.6-4.5
			c0-2.5-1.6-4.5-3.6-4.5h-10.5c-2,0-3.6,2-3.6,4.5v21.1c0,2.5,1.6,4.5,3.6,4.5h115.9c2,0,3.6-2,3.6-4.5v-21.1
			C256,279.2,254.4,277.1,252.4,277.1z"/>
	</g>
</g>
<g>
	<g>
		<path class="st0" d="M252.4,239.3h-72.5c-2,0-3.6,2-3.6,4.5s1.6,4.5,3.6,4.5h68.8v12H140.1v-12h6.9c2,0,3.6-2,3.6-4.5
			s-1.6-4.5-3.6-4.5h-10.5c-2,0-3.6,2-3.6,4.5v21.1c0,2.5,1.6,4.5,3.6,4.5h115.9c2,0,3.6-2,3.6-4.5v-21.1
			C256,241.3,254.4,239.3,252.4,239.3z"/>
	</g>
</g>
<g>
	<g>
		<path class="st0" d="M359.5,219.5c-0.8-0.4-1.7-0.4-2.5,0l-1.8,1.1c-13.4,8-30.3,8-43.7,0l-1.8-1.1c-0.8-0.5-1.7-0.5-2.5,0
			c-0.8,0.4-1.3,1.3-1.3,2.2v35.3c0,15.3,11.1,28.6,26.1,31.6c0.4,0.1,1,0.2,1.4,0.2s1.1-0.1,1.5-0.2c0,0,0,0,0,0
			c15-3,25.9-16.3,25.9-32v-34.9C360.8,220.7,360.3,219.9,359.5,219.5z M316.7,250.4c-1-1-1-2.5,0-3.5c3.7-3.7,9.7-3.7,13.4,0
			c1,1,1,2.5,0,3.5s-2.5,1-3.5,0c-1.8-1.8-4.6-1.8-6.4,0C319.2,251.3,317.7,251.3,316.7,250.4z M344.9,266.3
			c-1.9,4.6-6.6,7.6-11.6,7.6s-9.5-3-11.4-7.6c-0.5-1.3,0.1-2.7,1.3-3.2c1.3-0.5,2.7,0.1,3.2,1.3c1.2,2.8,3.9,4.5,6.9,4.5
			s5.9-1.8,7-4.5c0.5-1.3,2-1.8,3.2-1.3C344.9,263.6,345.4,265,344.9,266.3z M350.1,250.4c-1,1-2.5,1-3.5,0c-1.8-1.8-4.6-1.8-6.4,0
			c-1,1-2.5,1-3.5,0c-1-1-1-2.5,0-3.5c3.7-3.7,9.7-3.7,13.4,0C351.1,247.8,351.1,249.4,350.1,250.4z"/>
	</g>
</g>
<g>
	<g>
		<path class="st0" d="M389.2,234.5c-0.8-0.4-1.7-0.4-2.5,0l-1.8,1.1c-5.8,3.5-12.5,5.5-19.2,5.9v14.9c0,5.9-1.4,11.4-3.8,16.4
			c0.4,0,0.8-0.2,1.3-0.2c5,0,9.5,3,11.4,7.6c0.5,1.3-0.1,2.7-1.3,3.2c-1.3,0.5-2.7,0-3.2-1.3c-1.2-2.8-3.9-4.5-6.9-4.5
			s-5.7,1.8-6.9,4.5c-0.4,1-1.4,1.5-2.4,1.5c-3.3,3.2-7.1,5.8-11.4,7.6c4.7,6.2,11.5,10.7,19.3,12.2c0.4,0.1,1,0.2,1.4,0.2
			c0.3,0,1-0.1,1.4-0.2c15-3,25.9-16.5,25.9-32.2v-34.7C390.5,235.8,390,234.9,389.2,234.5z M384.8,258.2c-1.8,1.8-4.3,2.8-6.7,2.8
			c-2.4,0-4.9-0.9-6.7-2.8c-1-1-1-2.5,0-3.5s2.5-1,3.5,0c1.8,1.8,4.6,1.8,6.4,0c1-1,2.5-1,3.5,0S385.8,257.3,384.8,258.2z"/>
	</g>
</g>
</svg>
