<?xml version="1.0" encoding="utf-8"?>
<!-- Generator: Adobe Illustrator 18.0.0, SVG Export Plug-In . SVG Version: 6.00 Build 0)  -->
<!DOCTYPE svg PUBLIC "-//W3C//DTD SVG 1.1//EN" "http://www.w3.org/Graphics/SVG/1.1/DTD/svg11.dtd">
<svg version="1.1" id="Layer_1" xmlns="http://www.w3.org/2000/svg" xmlns:xlink="http://www.w3.org/1999/xlink" x="0px" y="0px"
	 viewBox="0 0 1920 1080" enable-background="new 0 0 1920 1080" xml:space="preserve">
<g>
	<g>
		<g>
			<path fill="#5A5B5B" d="M1342.9,756.9h-261.1c-3.2,0-5.7-2.6-5.7-5.7v-57c0-3.2,2.6-5.7,5.7-5.7h119.3l-85.3-85.3
				c-1.6-1.6-2.1-4.1-1.2-6.2c0.9-2.1,3-3.5,5.3-3.5h43.3l-85.3-85.3c-1.6-1.6-2.1-4.1-1.2-6.2c0.9-2.1,3-3.5,5.3-3.5h43.3
				l-81.3-81.3l-10.9,10.9c-2.2,2.2-5.8,2.2-8.1,0s-2.2-5.8,0-8.1l15-15c2.2-2.2,5.8-2.2,8.1,0l95,95c1.6,1.6,2.1,4.1,1.2,6.2
				c-0.9,2.1-3,3.5-5.3,3.5h-43.3l85.3,85.3c1.6,1.6,2.1,4.1,1.2,6.2c-0.9,2.1-3,3.5-5.3,3.5h-43.3l85.3,85.3
				c1.6,1.6,2.1,4.1,1.2,6.2c-0.9,2.1-3,3.5-5.3,3.5h-127.4v45.6h255.4c3.2,0,5.7,2.6,5.7,5.7
				C1348.6,754.3,1346.1,756.9,1342.9,756.9z"/>
		</g>
		<g>
			<path fill="#5A5B5B" d="M1350.9,756.9h-226.8c-3.2,0-5.7-2.6-5.7-5.7v-57c0-3.2,2.6-5.7,5.7-5.7h156.2l-85.3-85.3
				c-1.6-1.6-2.1-4.1-1.2-6.2c0.9-2.1,3-3.5,5.3-3.5h43.3l-85.3-85.3c-1.6-1.6-2.1-4.1-1.2-6.2c0.9-2.1,3-3.5,5.3-3.5h43.3
				l-81.3-81.3l-20.5,20.1c-2.3,2.2-5.9,2.2-8.1-0.1c-2.2-2.3-2.2-5.9,0.1-8.1l24.6-24c2.2-2.2,5.8-2.2,8,0l95,95
				c1.6,1.6,2.1,4.1,1.2,6.2c-0.9,2.1-3,3.5-5.3,3.5h-43.3l85.3,85.3c1.6,1.6,2.1,4.1,1.2,6.2c-0.9,2.1-3,3.5-5.3,3.5h-43.3
				l85.3,85.3c1.6,1.6,2.1,4.1,1.2,6.2c-0.9,2.1-3,3.5-5.3,3.5h-164.3v45.6h221.1c3.2,0,5.7,2.6,5.7,5.7
				C1356.6,754.3,1354,756.9,1350.9,756.9z"/>
		</g>
		<g>
			<path fill="#5A5B5B" d="M984.8,762.3c-3.2,0-5.7-2.6-5.7-5.7v-92.1c0-3.2,2.6-5.7,5.7-5.7h119.3l-85.3-85.3
				c-1.6-1.6-2.1-4.1-1.2-6.2c0.9-2.1,3-3.5,5.3-3.5h43.2l-85.3-85.3c-1.6-1.6-2.1-4.1-1.2-6.2c0.9-2.1,3-3.5,5.3-3.5h43.2
				l-81.3-81.3l-81.3,81.3h43.3c2.3,0,4.4,1.4,5.3,3.5c0.9,2.1,0.4,4.6-1.2,6.2l-85.3,85.3h43.3c2.3,0,4.4,1.4,5.3,3.5
				c0.9,2.1,0.4,4.6-1.2,6.2l-85.3,85.3h119.3c3.2,0,5.7,2.6,5.7,5.7v86.7c0,3.2-2.6,5.7-5.7,5.7H675.8c-3.2,0-5.7-2.6-5.7-5.7
				c0-3.2,2.6-5.7,5.7-5.7h227.2v-75.3H775.7c-2.3,0-4.4-1.4-5.3-3.5c-0.9-2.1-0.4-4.6,1.2-6.2l85.3-85.3h-43.3
				c-2.3,0-4.4-1.4-5.3-3.5c-0.9-2.1-0.4-4.6,1.2-6.2l85.3-85.3h-43.3c-2.3,0-4.4-1.4-5.3-3.5c-0.9-2.1-0.4-4.6,1.2-6.2l95-95
				c2.2-2.2,5.8-2.2,8.1,0l95,95c1.6,1.6,2.1,4.1,1.2,6.2c-0.9,2.1-3,3.5-5.3,3.5h-43.2l85.3,85.3c1.6,1.6,2.1,4.1,1.2,6.2
				c-0.9,2.1-3,3.5-5.3,3.5h-43.2l85.3,85.3c1.6,1.6,2.1,4.1,1.2,6.2c-0.9,2.1-3,3.5-5.3,3.5H990.5v86.4
				C990.5,759.8,987.9,762.3,984.8,762.3z"/>
		</g>
		<g>
			<path fill="#5A5B5B" d="M1018.5,762.3c-3.2,0-5.7-2.6-5.7-5.7V688c0-3.2,2.6-5.7,5.7-5.7c3.2,0,5.7,2.6,5.7,5.7v68.6
				C1024.2,759.8,1021.6,762.3,1018.5,762.3z"/>
		</g>
	</g>
	<g>
		<g>
			<g>
				<path fill="#FFFFFF" d="M817.1,453.4c0,67.4-54.6,122-122,122s-122-54.6-122-122c0-67.4,54.6-122,122-122S817.1,386,817.1,453.4
					z"/>
				<path fill="#5A5B5B" d="M695.1,581.1c-70.4,0-127.7-57.3-127.7-127.7c0-70.4,57.3-127.7,127.7-127.7
					c70.4,0,127.7,57.3,127.7,127.7C822.8,523.8,765.5,581.1,695.1,581.1z M695.1,337.1c-64.1,0-116.3,52.2-116.3,116.3
					c0,64.1,52.2,116.3,116.3,116.3c64.1,0,116.3-52.2,116.3-116.3C811.4,389.3,759.2,337.1,695.1,337.1z"/>
			</g>
		</g>
		<g>
			<path fill="#5A5B5B" d="M601.4,476.3l24.5-20.1c2.3-1.9,4.3-3.6,5.9-5.1c1.6-1.5,2.9-2.9,3.9-4.3c1-1.4,1.8-2.7,2.2-4
				c0.5-1.3,0.7-2.7,0.7-4.3c0-3.1-0.9-5.5-2.7-7.1c-1.8-1.6-4.2-2.4-7.1-2.4c-2.9,0-5.4,0.8-7.6,2.4c-2.2,1.6-4.7,4.1-7.4,7.5
				l-11.4-9.2c1.8-2.5,3.7-4.7,5.5-6.6c1.9-1.9,3.9-3.5,6-4.8c2.1-1.3,4.5-2.3,7.1-3c2.6-0.7,5.5-1,8.8-1c3.8,0,7.2,0.5,10.4,1.6
				c3.1,1.1,5.8,2.6,8,4.6c2.2,2,3.9,4.3,5.2,7.2c1.2,2.8,1.8,5.9,1.8,9.4v0.2c0,3.1-0.4,5.8-1.2,8.3c-0.8,2.4-2,4.7-3.6,6.8
				c-1.6,2.1-3.6,4.3-6,6.4c-2.5,2.1-5.3,4.5-8.5,7l-12,9.3h32.1v14h-54.5V476.3z"/>
			<path fill="#5A5B5B" d="M700.1,490.4c-4.9,0-9.4-1-13.4-2.9c-4-1.9-7.5-4.6-10.3-8c-2.8-3.4-5-7.4-6.6-12
				c-1.5-4.6-2.3-9.6-2.3-14.9v-0.2c0-5.3,0.8-10.3,2.4-14.9c1.6-4.6,3.8-8.7,6.7-12.1c2.9-3.4,6.3-6.1,10.4-8.1
				c4-2,8.5-2.9,13.4-2.9c4.8,0,9.3,1,13.3,2.9c4,1.9,7.5,4.6,10.3,8c2.8,3.4,5,7.4,6.6,12c1.6,4.6,2.4,9.6,2.4,14.9v0.2
				c0,5.3-0.8,10.3-2.4,14.9c-1.6,4.6-3.8,8.7-6.7,12.1s-6.3,6.1-10.4,8.1C709.4,489.4,705,490.4,700.1,490.4z M700.3,475.8
				c2.5,0,4.7-0.6,6.6-1.7c2-1.2,3.6-2.8,5-4.8c1.4-2.1,2.5-4.5,3.2-7.4c0.7-2.8,1.1-5.9,1.1-9.3v-0.2c0-3.4-0.4-6.5-1.2-9.3
				c-0.8-2.8-1.9-5.3-3.3-7.4c-1.4-2.1-3.2-3.7-5.2-4.9c-2-1.2-4.2-1.8-6.6-1.8c-2.5,0-4.7,0.6-6.6,1.7c-2,1.2-3.6,2.8-5,4.8
				c-1.4,2.1-2.4,4.5-3.2,7.4c-0.8,2.8-1.2,5.9-1.2,9.3v0.2c0,3.4,0.4,6.5,1.2,9.4c0.8,2.9,1.9,5.3,3.3,7.4c1.4,2.1,3.1,3.7,5.1,4.9
				C695.6,475.2,697.8,475.8,700.3,475.8z"/>
			<path fill="#5A5B5B" d="M745.7,412.3h16v40.9l18.7-20.5h19.1l-21.5,22.2l22.2,34.2H782l-14.7-23l-5.6,5.9v17.1h-16V412.3z"/>
		</g>
	</g>
</g>
</svg>
