<?xml version="1.0" encoding="utf-8"?>
<!-- Generator: Adobe Illustrator 20.0.0, SVG Export Plug-In . SVG Version: 6.00 Build 0)  -->
<svg version="1.1" id="Layer_1" xmlns="http://www.w3.org/2000/svg" xmlns:xlink="http://www.w3.org/1999/xlink" x="0px" y="0px"
	 viewBox="0 0 595.3 841.9" style="enable-background:new 0 0 595.3 841.9;" xml:space="preserve">
<style type="text/css">
	.st0{fill:#5A5C5C;}
</style>
<g>
	<g>
		<g>
			<path class="st0" d="M342.6,638.3L342.6,638.3c-9.6,0-19.1-1.5-28.4-4.4l-121.3-38.6c-49-15.6-76-68.1-60.6-117.3
				c9-28.2,30.7-50.2,58.9-59.8c0.6-0.3,1.2-0.6,2.1-0.6c2.3-0.9,5-1.5,7.3-2.1c15.1-5.2,22.4-16.8,24.7-21.8l1.2-2.7
				c0.3-0.6,0.6-1.2,0.9-1.7c15.6-31.3,48.2-51.7,83.3-51.7c9.6,0,19.1,1.5,28.2,4.4c43.6,13.9,70.8,58,63.8,103.2
				c0,0.6,0,1.5-0.3,2.1c-0.3,1.5-0.6,2.7-0.9,3.8c-0.9,5.6-0.9,18,9,30.1c0,0,0.6,0.6,0.9,1.2l1.2,1.5c0.3,0.3,0.3,0.3,0.6,0.6
				c0.9,0.6,1.7,1.7,2.3,2.7c19.1,24.3,24.9,56.3,15.6,85.9C419.2,612.2,383.5,638.3,342.6,638.3z M197.4,432.3h-0.3
				c-23.8,7.9-42.4,26.6-49.9,50.2c-13.1,40.9,9.6,84.7,50.5,97.8L319,618.8c7.9,2.3,15.6,3.8,23.8,3.8c33.9,0,63.8-21.8,74.3-54.2
				c8.1-25.3,2.9-52.5-13.9-73.1c0,0,0,0,0-0.3c-0.3-0.6-0.9-0.9-1.2-1.5l-2.3-2.7c-13.9-17.4-13.9-34.2-12.5-43
				c0.3-1.5,0.6-2.7,0.6-3.5c0,0,0-0.3,0-0.6c0-0.2,0-0.3,0-0.6c6.4-38-16.2-75.4-53.1-87.4c-7.5-2.3-15.6-3.8-23.5-3.8
				c-29.5,0-57.1,17.4-70.2,44.1c0,0.3-0.3,0.3-0.3,0.6c0,0,0,0.3-0.3,0.3l-0.9,2.1c-3.5,7-13.3,22.6-33.9,29.9
				c-0.3,0-0.6,0.3-0.9,0.3C202.2,430.9,199.9,431.5,197.4,432.3C197.8,432.3,197.8,432.3,197.4,432.3z"/>
		</g>
		<g>
			<path class="st0" d="M180.6,398.3c-24.1,0-43.6-24.7-44.7-56.3c-1.2-31.9,17.7-58.6,41.8-59.4h1.2c24.1,0,43.6,24.7,44.7,56.3
				c0.6,15.1-3.2,29.3-10.8,40.3c-7.9,11.9-18.9,18.5-31.3,18.9L180.6,398.3z M179.2,298c-16.2,0.6-28.4,20.6-27.8,43.6
				c0.9,22.9,13.9,41.5,29.3,41.5h0.6c7.3-0.3,13.9-4.6,18.9-12.2c5.6-8.5,8.5-19.5,8.1-31.3C207.6,316.5,194.5,298,179.2,298z"/>
		</g>
		<g>
			<path class="st0" d="M288.3,329.8L288.3,329.8c-2.3,0-4.4-0.3-6.7-0.6c-14.5-2.3-27-11.9-34.8-27c-7.5-14.5-9.8-32.2-7.3-50.2
				c5.6-34.8,30.1-60.9,57.1-60.9c2.3,0,4.4,0.3,6.7,0.6c14.5,2.3,27,11.9,34.8,27c7.5,14.5,9.8,32.2,7.3,50.2
				C339.9,303.5,315.6,329.8,288.3,329.8z M297,206.6c-19.1,0-37.8,21.2-42.1,48.2c-2.3,14.8-0.3,29.3,5.6,40.7
				c5.6,10.8,13.9,17.4,23.5,18.9c20.9,3.2,41.5-18.9,46.1-47.6c2.3-14.8,0.3-29.3-5.6-40.7c-5.6-10.8-13.9-17.4-23.5-18.9
				C299.9,206.6,298.5,206.6,297,206.6z"/>
		</g>
		<g>
			<path class="st0" d="M460.3,490.7L460.3,490.7c-7.5,0-14.8-2.1-20.6-6.1c-10.2-6.7-16-18-16.8-31.9c-0.6-13.1,3.5-27,11.4-38.9
				c11.6-17.4,29.5-28.2,47-28.2c7.5,0,14.8,2.1,20.6,6.1c10.2,6.7,16,18,16.8,31.9c0.6,13.1-3.5,27-11.4,38.9
				C495.8,479.9,477.7,490.7,460.3,490.7z M481.5,401c-12.2,0-25.5,8.5-34.2,21.2c-6.4,9.3-9.3,19.7-9,29.5c0.6,9,4.1,16,10.2,20
				c3.5,2.3,7.5,3.5,12.2,3.5c12.2,0,25.5-8.5,34.2-21.2c6.4-9.3,9.3-19.7,9-29.5c-0.6-9-4.1-16-10.2-20
				C490,402.1,485.9,401,481.5,401z"/>
		</g>
		<g>
			<path class="st0" d="M419.4,369L419.4,369c-7.9,0-15.1-1.7-21.8-5.6c-12.7-7.3-21.2-20-23.5-36.6c-2.3-15.6,1.2-32.8,9.8-48.4
				c13.1-23.5,35.7-38.6,57.7-38.6c7.9,0,15.1,1.7,21.8,5.6c25.8,14.3,31.9,52.5,13.9,85C464.4,353.9,441.4,369,419.4,369z
				 M441.8,255.3c-16.6,0-33.9,11.9-44.4,30.7c-7,12.5-9.8,26.1-7.9,38.6c1.7,11.6,7.3,20.6,16,25.5c4.4,2.3,9,3.5,14.3,3.5
				c16.6,0,33.9-12.2,44.4-30.7c13.9-25.3,10.4-54-7.9-64.1C451.6,256.5,447,255.3,441.8,255.3z"/>
		</g>
	</g>
	<g>
		<path class="st0" d="M317,719.3C153.6,719.3,20.7,586.4,20.7,423S153.6,126.9,317,126.9s296.3,132.9,296.3,296.3
			S480.1,719.3,317,719.3z M317,142.2C162.1,142.2,36.2,268.1,36.2,423S162.1,703.8,317,703.8S597.8,577.9,597.8,423
			S471.7,142.2,317,142.2z"/>
	</g>
	<g>
		<path class="st0" d="M317,759C131.9,759-19,608.4-19,423S131.6,87,317,87s336,150.6,336,336S502.1,759,317,759z M317,102.4
			C140.3,102.4-3.6,246.3-3.6,423S140.3,743.6,317,743.6S637.6,599.7,637.6,423C637.4,246.3,493.7,102.4,317,102.4z"/>
	</g>
</g>
</svg>
