<?xml version="1.0" encoding="utf-8"?>
<!-- Generator: Adobe Illustrator 15.1.0, SVG Export Plug-In . SVG Version: 6.00 Build 0)  -->
<!DOCTYPE svg PUBLIC "-//W3C//DTD SVG 1.1//EN" "http://www.w3.org/Graphics/SVG/1.1/DTD/svg11.dtd">
<svg version="1.1" id="Layer_1" xmlns="http://www.w3.org/2000/svg" xmlns:xlink="http://www.w3.org/1999/xlink" x="0px" y="0px"
	 width="1920px" height="1080px" viewBox="0 0 1920 1080" enable-background="new 0 0 1920 1080" xml:space="preserve">
<g>
	
		<polyline fill="none" stroke="#5A5B5B" stroke-width="12" stroke-linecap="round" stroke-linejoin="round" stroke-miterlimit="10" points="
		980.443,388.576 996.188,372.832 1096.137,472.775 1036.166,472.775 1136.115,572.719 1076.145,572.719 1176.1,672.674 
		1036.166,672.674 1036.166,732.639 1310.771,732.639 	"/>
	
		<polyline fill="none" stroke="#5A5B5B" stroke-width="12" stroke-linecap="round" stroke-linejoin="round" stroke-miterlimit="10" points="
		934.125,738.357 934.125,641.484 1074.053,641.484 974.104,541.529 1034.068,541.529 934.125,441.58 994.09,441.58 
		894.141,341.643 794.191,441.58 854.162,441.58 754.213,541.529 814.184,541.529 714.229,641.484 854.162,641.484 854.162,732.639 
		609.229,732.639 	"/>
	
		<line fill="none" stroke="#5A5B5B" stroke-width="12" stroke-linecap="round" stroke-linejoin="round" stroke-miterlimit="10" x1="969.557" y1="738.357" x2="969.557" y2="666.164"/>
</g>
</svg>
