<?xml version="1.0" encoding="UTF-8"?>
<svg width="545px" height="545px" viewBox="0 0 545 545" version="1.1" xmlns="http://www.w3.org/2000/svg" xmlns:xlink="http://www.w3.org/1999/xlink">
    <!-- Generator: Sketch 49.2 (51160) - http://www.bohemiancoding.com/sketch -->
    <title>GCBA-compromisos-icons-04</title>
    <desc>Created with Sketch.</desc>
    <defs></defs>
    <g id="GCBA-compromisos-icons-04" stroke="none" stroke-width="1" fill="none" fill-rule="evenodd">
        <g transform="translate(103.000000, 11.000000)" fill="#5B5B5B" fill-rule="nonzero" id="Shape">
            <path d="M171.5,227 C148.800403,227 131,244.716253 131,267.30854 C131,289.900826 148.800403,307.61708 171.5,307.61708 C194.199597,307.61708 212,289.900826 212,267.30854 C212,244.553719 194.199597,227 171.5,227 Z M171.5,382.38292 C148.800403,382.38292 131,400.099174 131,422.69146 C131,445.283747 148.800403,463 171.5,463 C194.199597,463 212,445.283747 212,422.69146 C212,400.099174 194.199597,382.38292 171.5,382.38292 Z"></path>
            <path d="M282.159928,287.178682 L335.722234,234.521131 C342.722779,227.532629 337.838678,215.018334 327.419263,215.018334 L289.811686,215.018334 C284.276371,215.018334 279.39227,210.142635 279.39227,204.616843 L279.39227,140.09509 C279.39227,137.332194 280.857501,134.569298 282.159928,133.106588 L334.908217,80.4490367 C341.908762,73.4605345 337.024661,60.9462399 326.605246,60.9462399 L289.811686,60.9462399 C284.276371,60.9462399 279.39227,56.0705407 279.39227,50.5447483 L279.39227,13.814481 C279.39227,6.17588564 273.205743,0 265.553985,0 L77.0276895,0 C69.3759314,0 63.1894035,6.17588564 63.1894035,13.814481 L63.1894035,50.5447483 C63.1894035,56.0705407 58.3053026,60.9462399 52.7699883,60.9462399 L14.5111978,60.9462399 C4.09178254,60.9462399 -0.792318366,73.4605345 6.20822627,80.4490367 L58.9565161,133.106588 C61.0729598,135.219391 61.7241733,137.332194 61.7241733,140.09509 L61.7241733,204.616843 C61.7241733,210.142635 56.8400724,215.018334 51.304758,215.018334 L13.0459675,215.018334 C2.62655227,215.018334 -2.25754864,227.532629 4.742996,234.521131 L57.4912858,287.178682 C59.6077295,289.291485 60.258943,291.404288 60.258943,294.167185 L60.258943,358.688937 C60.258943,364.21473 55.3748421,369.090429 49.8395277,369.090429 L11.5807373,369.090429 C1.161322,369.090429 -3.72277891,381.604723 3.27776573,388.593226 L56.0260555,441.250777 C58.1424993,443.36358 58.7937127,445.476383 58.7937127,448.239279 L58.7937127,509.185519 C58.7937127,516.824114 64.9802405,523 72.6319986,523 L261.646704,523 C269.298462,523 275.48499,516.824114 275.48499,509.185519 L275.48499,448.076756 C275.48499,445.31386 276.95022,442.550963 278.252647,441.088254 L331.000937,388.430702 C338.001481,381.4422 333.11738,368.927906 322.697965,368.927906 L289.323276,368.927906 C283.787961,368.927906 278.90386,364.052206 278.90386,358.526414 L278.90386,294.004661 C279.39227,291.404288 280.694697,288.641392 282.159928,287.178682 Z M171.616444,483.66936 C137.590541,483.66936 110.402379,456.690491 110.402379,422.560597 C110.402379,388.593226 137.427737,361.451833 171.616444,361.451833 C205.80515,361.451833 232.830508,388.430702 232.830508,422.560597 C232.830508,456.527968 205.642347,483.66936 171.616444,483.66936 Z M171.616444,328.134556 C137.590541,328.134556 110.402379,301.155687 110.402379,267.025792 C110.402379,233.058421 137.427737,205.917029 171.616444,205.917029 C205.80515,205.917029 232.830508,232.895898 232.830508,267.025792 C232.830508,301.155687 205.642347,328.134556 171.616444,328.134556 Z M171.616444,180.563393 C133.19485,180.563393 102.587818,150.009012 102.587818,111.653511 C102.587818,73.2980112 133.19485,42.7436296 171.616444,42.7436296 C210.038038,42.7436296 240.64507,73.2980112 240.64507,111.653511 C240.64507,150.009012 210.038038,180.563393 171.616444,180.563393 Z"></path>
        </g>
    </g>
</svg>