<?xml version="1.0" encoding="utf-8"?>
<!-- Generator: Adobe Illustrator 15.1.0, SVG Export Plug-In . SVG Version: 6.00 Build 0)  -->
<!DOCTYPE svg PUBLIC "-//W3C//DTD SVG 1.1//EN" "http://www.w3.org/Graphics/SVG/1.1/DTD/svg11.dtd">
<svg version="1.1" id="Layer_1" xmlns="http://www.w3.org/2000/svg" xmlns:xlink="http://www.w3.org/1999/xlink" x="0px" y="0px"
	 width="750px" height="750px" viewBox="585 165 750 750" enable-background="new 585 165 750 750" xml:space="preserve">
<g>
	<path fill="#5A5B5B" d="M1280.414,755.896h-268.605v-47.964h133.934c2.427,0,4.614-1.462,5.543-3.704s0.416-4.822-1.3-6.538
		l-89.708-89.712h45.486c2.427,0,4.614-1.462,5.543-3.704s0.416-4.823-1.301-6.539l-89.711-89.701h45.484
		c2.427,0,4.614-1.462,5.543-3.704s0.416-4.823-1.301-6.539l-99.949-99.943c-2.342-2.343-6.143-2.343-8.484,0l-15.745,15.744
		c-2.343,2.343-2.343,6.142,0,8.485c2.343,2.343,6.143,2.343,8.485,0l11.501-11.501l85.463,85.458h-45.484
		c-2.427,0-4.614,1.462-5.543,3.704s-0.416,4.823,1.301,6.539l89.711,89.702h-45.484c-2.427,0-4.614,1.462-5.543,3.704
		s-0.416,4.822,1.3,6.538l89.708,89.712h-125.449c-3.313,0-6,2.687-6,6v59.964c0,3.313,2.687,6,6,6h274.605c3.313,0,6-2.687,6-6
		S1283.728,755.896,1280.414,755.896z"/>
	<path fill="#5A5B5B" d="M925.852,695.933H800.409l89.707-89.712c1.716-1.716,2.229-4.296,1.301-6.538s-3.117-3.704-5.543-3.704
		h-59.971c-3.313,0-6,2.687-6,6s2.687,6,6,6h45.486l-89.707,89.712c-1.716,1.716-2.229,4.296-1.301,6.538s3.117,3.704,5.543,3.704
		h133.928v47.964H639.586c-3.313,0-6,2.687-6,6s2.687,6,6,6h286.266c3.313,0,6-2.687,6-6v-59.964
		C931.852,698.619,929.165,695.933,925.852,695.933z"/>
	<polygon fill="#5A5B5B" points="753.559,453.371 753.559,368.484 740.916,368.484 716.714,375.708 720.567,390.879 
		735.257,387.267 735.257,453.371 	"/>
	<polygon fill="#5A5B5B" points="767.523,375.708 771.377,390.879 786.067,387.267 786.067,453.371 804.369,453.371 
		804.369,368.484 791.727,368.484 	"/>
	<path fill="#5A5B5B" d="M859.513,367.641c-22.516,0-37.566,19.145-37.566,43.707c0,24.564,14.81,43.469,37.325,43.469
		c22.517,0,37.567-19.146,37.567-43.708C896.839,386.544,882.029,367.641,859.513,367.641z M859.512,438.079
		c-11.197,0-18.542-11.439-18.542-26.971c0-15.532,7.104-26.73,18.302-26.73c11.198,0,18.543,11.559,18.543,26.971
		S870.71,438.079,859.512,438.079z"/>
	<path fill="#5A5B5B" d="M802.77,312.104c-74.044,0-134.283,60.24-134.283,134.284c0,74.042,60.239,134.279,134.283,134.279
		c74.042,0,134.279-60.237,134.279-134.279C937.049,372.343,876.812,312.104,802.77,312.104z M802.77,568.667
		c-67.427,0-122.283-54.854-122.283-122.279c0-67.428,54.856-122.284,122.283-122.284c67.425,0,122.279,54.856,122.279,122.284
		C925.049,513.813,870.194,568.667,802.77,568.667z"/>
	<path fill="#5A5B5B" d="M782.404,478.223c-7.543,0-11.952,4.018-15.381,8.426v-26.449h-14.891v71.512h14.891v-29.29
		c0-7.054,3.625-10.679,9.307-10.679c5.681,0,9.012,3.625,9.012,10.679v29.289h14.891v-33.992
		C800.232,485.668,793.67,478.223,782.404,478.223z"/>
	<path fill="#5A5B5B" d="M834.905,478.616c-8.915,0-14.597,1.665-20.376,4.212l3.723,11.363c4.801-1.764,8.817-2.842,14.499-2.842
		c7.445,0,11.265,3.43,11.265,9.602v0.882c-3.723-1.273-7.543-2.155-12.833-2.155c-12.44,0-21.159,5.29-21.159,16.751v0.196
		c0,10.383,8.13,16.065,18.024,16.065c7.249,0,12.245-2.645,15.87-6.661v5.682h14.4v-30.466
		C858.318,487.041,851.167,478.616,834.905,478.616z M844.213,513.196c0,5.388-4.702,9.208-11.658,9.208
		c-4.8,0-8.131-2.351-8.131-6.367v-0.196c0-4.702,3.918-7.249,10.286-7.249c3.624,0,6.955,0.784,9.502,1.959h0.001V513.196z"/>
</g>
</svg>
