<?xml version="1.0" encoding="utf-8"?>
<!-- Generator: Adobe Illustrator 15.1.0, SVG Export Plug-In  -->
<!DOCTYPE svg PUBLIC "-//W3C//DTD SVG 1.1//EN" "http://www.w3.org/Graphics/SVG/1.1/DTD/svg11.dtd" [
	<!ENTITY ns_flows "http://ns.adobe.com/Flows/1.0/">
]>
<svg version="1.1"
	 xmlns="http://www.w3.org/2000/svg" xmlns:xlink="http://www.w3.org/1999/xlink" xmlns:a="http://ns.adobe.com/AdobeSVGViewerExtensions/3.0/"
	 x="0px" y="0px" width="300px" height="300px" viewBox="-96.986 -53.498 300 300" enable-background="new -96.986 -53.498 300 300"
	 xml:space="preserve">
<defs>
</defs>
<polygon fill="#FFFFFF" points="111.165,170.663 58.523,180.502 5.164,170.663 5.164,14.321 111.165,14.321 "/>
<path fill="#5A5B5B" d="M107.238,153.193H9.812V23.303h97.427 M91.966,0H25.078C11.227,0,0,11.227,0,25.081v133.767
	c0,13.849,11.227,25.081,25.078,25.081h66.888c13.852,0,25.081-11.232,25.081-25.081V25.081C117.047,11.227,105.817,0,91.966,0z"/>
<circle fill="#FFFFFF" cx="58.523" cy="167.681" r="9.568"/>
<g>
	<text transform="matrix(1 0 0 1 15.647 84.7041)" fill="#5A5B5B" font-family="'GothamBold'" font-size="31.4918">MiBA</text>
</g>
<g>
	<text transform="matrix(1 0 0 1 25.7217 110.8984)" fill="#5A5B5B" font-family="'GothamBold'" font-size="31.4918">app</text>
</g>
</svg>
