<?xml version="1.0" encoding="utf-8"?>
<!-- Generator: Adobe Illustrator 15.1.0, SVG Export Plug-In  -->
<!DOCTYPE svg PUBLIC "-//W3C//DTD SVG 1.1//EN" "http://www.w3.org/Graphics/SVG/1.1/DTD/svg11.dtd" [
	<!ENTITY ns_flows "http://ns.adobe.com/Flows/1.0/">
]>
<svg version="1.1"
	 xmlns="http://www.w3.org/2000/svg" xmlns:xlink="http://www.w3.org/1999/xlink" xmlns:a="http://ns.adobe.com/AdobeSVGViewerExtensions/3.0/"
	 x="0px" y="0px" width="300px" height="300px" viewBox="-70.484 -29.085 300 300" enable-background="new -70.484 -29.085 300 300"
	 xml:space="preserve">
<defs>
</defs>
<path fill="#FFFFFF" d="M68.024,92.551c0,0-18.843-22.637,9.491-49.637c10.488-9.24,36.342-18.893,46.838-6.946
	c9.496,11.613,0.938,36.521-9.17,46.613S80.866,102.188,68.024,92.551z"/>
<circle fill="#FFFFFF" cx="34.277" cy="139.205" r="33.747"/>
<circle fill="#FFFFFF" cx="132.277" cy="139.205" r="33.747"/>
<path fill="none" stroke="#5A5B5B" stroke-width="5.6958" stroke-miterlimit="10" d="M167.18,35.274
	C146.78,15.22,118.811,2.848,87.946,2.848c-31.271,0-59.575,12.697-80.042,33.223"/>
<path fill="none" stroke="#5A5B5B" stroke-width="5.6958" stroke-miterlimit="10" d="M7.904,195.686
	c20.467,20.525,48.771,33.225,80.042,33.225c30.864,0,58.834-12.371,79.233-32.426"/>
<polyline fill="none" stroke="#5A5B5B" stroke-width="5.6958" stroke-miterlimit="10" points="23.827,36.071 7.904,36.071 
	7.904,35.854 7.904,19.931 "/>
<polyline fill="none" stroke="#5A5B5B" stroke-width="5.6958" stroke-miterlimit="10" points="151.257,196.485 167.18,196.485 
	167.18,196.706 167.18,212.625 "/>
<path fill="#5A5B5B" d="M3.633,129.721c-0.519,0-0.946-0.404-0.979-0.926c-0.026-0.539,0.393-1,0.929-1.025l11.168-0.568
	l-1.849-13.383c-0.073-0.536,0.302-1.028,0.835-1.104c0.527-0.067,1.028,0.299,1.102,0.835l1.998,14.438
	c0.041,0.27-0.035,0.545-0.211,0.758c-0.176,0.209-0.434,0.34-0.709,0.352l-12.234,0.625C3.665,129.721,3.647,129.721,3.633,129.721
	z"/>
<path fill="#5A5B5B" d="M35.247,174.452C15.812,174.452,0,158.639,0,139.204c0-19.435,15.812-35.246,35.247-35.246
	c19.433,0,35.247,15.812,35.247,35.246C70.494,158.639,54.68,174.452,35.247,174.452z M35.247,107.869
	c-17.279,0-31.333,14.06-31.333,31.335c0,17.277,14.054,31.33,31.333,31.33c17.273,0,31.33-14.053,31.33-31.33
	C66.577,121.928,52.521,107.869,35.247,107.869z"/>
<path fill="#5A5B5B" d="M35.262,119.122c-0.275,0-0.539-0.114-0.724-0.316L24.68,108.05c-0.366-0.398-0.34-1.017,0.056-1.377
	c0.398-0.369,1.02-0.34,1.383,0.056l9.144,9.967l9.123-9.958c0.366-0.398,0.99-0.425,1.38-0.059
	c0.396,0.366,0.428,0.981,0.062,1.383l-9.847,10.743C35.792,119.007,35.534,119.122,35.262,119.122z"/>
<path fill="#5A5B5B" d="M66.841,129.682c-0.015,0-0.029,0-0.047-0.002l-11.449-0.584c-0.275-0.012-0.527-0.143-0.709-0.352
	c-0.167-0.213-0.252-0.488-0.211-0.758l1.916-13.84c0.073-0.539,0.583-0.891,1.104-0.832c0.536,0.076,0.908,0.565,0.832,1.102
	l-1.767,12.785l10.383,0.527c0.539,0.025,0.952,0.486,0.923,1.021C67.79,129.276,67.362,129.682,66.841,129.682z"/>
<path fill="#5A5B5B" d="M52.711,168.524c-0.519,0-0.955-0.412-0.979-0.938l-0.58-13.283c-0.009-0.271,0.097-0.541,0.287-0.732
	c0.193-0.193,0.478-0.289,0.738-0.287l12.516,0.545c0.542,0.027,0.961,0.48,0.938,1.02c-0.021,0.539-0.513,0.918-1.02,0.938
	l-11.452-0.498l0.527,12.217c0.026,0.543-0.396,0.996-0.935,1.02C52.74,168.524,52.723,168.524,52.711,168.524z"/>
<path fill="#5A5B5B" d="M18.888,169.178c-0.012,0-0.026,0-0.038,0c-0.542-0.023-0.961-0.48-0.938-1.02l0.557-12.867L5.9,155.836
	c-0.548-0.033-0.996-0.398-1.02-0.938s0.398-0.996,0.938-1.02l13.635-0.592c0.272-0.006,0.542,0.094,0.735,0.287
	c0.19,0.189,0.293,0.457,0.287,0.732l-0.606,13.934C19.843,168.768,19.412,169.178,18.888,169.178z"/>
<path fill="#5A5B5B" d="M19.494,155.245c-0.267,0-0.53-0.105-0.724-0.322c-0.36-0.396-0.334-1.018,0.064-1.377l7.479-6.838
	c0.401-0.369,1.02-0.338,1.38,0.061c0.366,0.396,0.337,1.018-0.059,1.381l-7.482,6.838
	C19.969,155.159,19.731,155.245,19.494,155.245z"/>
<path fill="#5A5B5B" d="M52.134,155.245c-0.229,0-0.451-0.076-0.636-0.234l-8.004-6.836c-0.413-0.352-0.46-0.967-0.111-1.379
	c0.354-0.41,0.973-0.457,1.377-0.109l8.007,6.836c0.413,0.352,0.463,0.967,0.111,1.377
	C52.685,155.124,52.412,155.245,52.134,155.245z"/>
<path fill="#5A5B5B" d="M46.553,134.25c-0.337,0-0.659-0.174-0.847-0.484c-0.272-0.469-0.111-1.066,0.352-1.338l8.842-5.15
	c0.463-0.275,1.063-0.117,1.339,0.352c0.272,0.469,0.114,1.066-0.352,1.336l-8.842,5.152C46.89,134.206,46.723,134.25,46.553,134.25
	z"/>
<path fill="#5A5B5B" d="M23.938,133.983c-0.176,0-0.349-0.043-0.51-0.141l-8.063-4.883c-0.463-0.281-0.606-0.883-0.328-1.342
	c0.278-0.463,0.879-0.609,1.342-0.332l8.063,4.885c0.466,0.281,0.612,0.879,0.334,1.342
	C24.592,133.817,24.27,133.983,23.938,133.983z"/>
<path fill="#5A5B5B" d="M35.253,125.438L35.253,125.438c-0.539,0-0.976-0.439-0.976-0.982v-6.313c0-0.539,0.439-0.976,0.984-0.976
	l0,0c0.533,0,0.976,0.437,0.976,0.976l-0.006,6.313C36.231,124.999,35.795,125.438,35.253,125.438z"/>
<path fill="#5A5B5B" d="M44.121,148.407h-17.15c-0.457,0-0.858-0.326-0.952-0.777l-3.041-14.422
	c-0.076-0.373,0.067-0.756,0.372-0.984l11.379-8.549c0.36-0.268,0.844-0.262,1.192,0.012l11.235,8.82
	c0.278,0.221,0.416,0.578,0.357,0.932l-2.429,14.154C45.006,148.061,44.599,148.407,44.121,148.407z M27.768,146.45h15.53
	l2.188-12.768l-10.178-7.99l-10.283,7.727L27.768,146.45z"/>
<path fill="#5A5B5B" d="M81.182,99.091c0,0,0,0-0.006,0c-6.642,0-12.079-1.922-15.709-5.552c-5.426-5.423-6.943-14.61-4.28-25.857
	c2.268-9.563,7.239-19.069,12.984-24.812c8.124-8.127,23.156-14.253,34.957-14.253c6.65,0,12.079,1.919,15.706,5.552
	c5.426,5.417,6.952,14.604,4.283,25.857c-2.259,9.557-7.239,19.063-12.984,24.809C108.015,92.959,92.982,99.091,81.182,99.091z
	 M109.128,33.179c-10.553,0-24.489,5.669-31.734,12.914c-5.101,5.098-9.724,13.989-11.769,22.638
	c-2.256,9.516-1.137,17.382,3.064,21.586c3.483,3.48,8.713,4.213,12.492,4.213c10.55,0,24.489-5.672,31.729-12.917
	c5.101-5.104,9.724-13.986,11.774-22.638c2.25-9.519,1.137-17.382-3.073-21.583C118.131,33.906,112.904,33.179,109.128,33.179z"/>
<path fill="#5A5B5B" d="M67.081,93.068c-0.035,0-0.067-0.009-0.1-0.009c-0.627-0.05-1.093-0.601-1.043-1.228
	c4.017-47.555,56.563-57.088,57.1-57.179c0.604-0.105,1.201,0.311,1.313,0.932c0.105,0.621-0.311,1.213-0.932,1.318
	c-0.51,0.085-51.34,9.343-55.207,55.116C68.162,92.62,67.661,93.068,67.081,93.068z"/>
<path fill="#5A5B5B" d="M67.075,93.071c-0.586,0-1.087-0.448-1.137-1.046c-0.05-0.627,0.416-1.175,1.043-1.23
	c45.782-3.864,55.037-54.697,55.125-55.21c0.108-0.621,0.686-1.037,1.315-0.932c0.621,0.105,1.034,0.697,0.932,1.315
	c-0.091,0.536-9.624,53.083-57.179,57.1C67.137,93.071,67.104,93.071,67.075,93.071z"/>
<path fill="#5A5B5B" d="M132.404,174.452c-19.43,0-35.244-15.813-35.244-35.244c0-19.438,15.814-35.25,35.244-35.25
	c19.438,0,35.25,15.812,35.25,35.25C167.654,158.639,151.843,174.452,132.404,174.452z M132.404,107.722
	c-17.358,0-31.479,14.127-31.479,31.485c0,17.355,14.121,31.479,31.479,31.479c17.361,0,31.485-14.123,31.485-31.479
	C163.89,121.849,149.766,107.722,132.404,107.722z"/>
<path fill="#5A5B5B" d="M165.311,145.7H99.624c-0.519,0-0.94-0.422-0.94-0.941c0-0.521,0.422-0.943,0.94-0.943h65.687
	c0.519,0,0.938,0.422,0.938,0.943C166.248,145.278,165.829,145.7,165.311,145.7z"/>
<path fill="#5A5B5B" d="M161.52,156.448h-58.228c-0.519,0-0.943-0.422-0.943-0.943c0-0.518,0.425-0.939,0.943-0.939h58.228
	c0.524,0,0.94,0.422,0.94,0.939C162.46,156.026,162.044,156.448,161.52,156.448z"/>
<path fill="#5A5B5B" d="M165.357,134.874H99.041c-0.516,0-0.938-0.422-0.938-0.939c0-0.521,0.422-0.943,0.938-0.943h66.316
	c0.521,0,0.938,0.422,0.938,0.943C166.295,134.452,165.879,134.874,165.357,134.874z"/>
<path fill="#5A5B5B" d="M161.851,124.442h-58.89c-0.516,0-0.943-0.422-0.943-0.938c0-0.52,0.428-0.94,0.943-0.94h58.89
	c0.521,0,0.943,0.421,0.943,0.94C162.794,124.02,162.372,124.442,161.851,124.442z"/>
<path fill="#5A5B5B" d="M126.554,124.442c-0.521,0-0.943-0.422-0.943-0.938v-17.177c0-0.519,0.422-0.94,0.943-0.94
	s0.94,0.422,0.94,0.94v17.177C127.494,124.02,127.075,124.442,126.554,124.442z"/>
<path fill="#5A5B5B" d="M116.124,124.442c-0.519,0-0.94-0.422-0.94-0.938v-13.477c0-0.519,0.422-0.94,0.94-0.94
	c0.524,0,0.94,0.422,0.94,0.94v13.477C117.064,124.02,116.648,124.442,116.124,124.442z"/>
<path fill="#5A5B5B" d="M138.114,124.442c-0.519,0-0.94-0.422-0.94-0.938v-17.177c0-0.519,0.422-0.94,0.94-0.94
	c0.524,0,0.94,0.422,0.94,0.94v17.177C139.055,124.02,138.639,124.442,138.114,124.442z"/>
<path fill="#5A5B5B" d="M148.6,124.442c-0.521,0-0.943-0.422-0.943-0.938v-13.477c0-0.519,0.422-0.94,0.943-0.94
	c0.519,0,0.938,0.422,0.938,0.94v13.477C149.537,124.02,149.118,124.442,148.6,124.442z"/>
<path fill="#5A5B5B" d="M126.554,173.118c-0.521,0-0.943-0.418-0.943-0.939v-16.674c0-0.518,0.422-0.939,0.943-0.939
	s0.94,0.422,0.94,0.939v16.674C127.494,172.7,127.075,173.118,126.554,173.118z"/>
<path fill="#5A5B5B" d="M116.124,169.272c-0.519,0-0.94-0.422-0.94-0.943v-12.824c0-0.518,0.422-0.939,0.94-0.939
	c0.524,0,0.94,0.422,0.94,0.939v12.824C117.064,168.85,116.648,169.272,116.124,169.272z"/>
<path fill="#5A5B5B" d="M138.114,172.952c-0.519,0-0.94-0.422-0.94-0.943v-16.504c0-0.518,0.422-0.939,0.94-0.939
	c0.524,0,0.94,0.422,0.94,0.939v16.504C139.055,172.53,138.639,172.952,138.114,172.952z"/>
<path fill="#5A5B5B" d="M148.6,169.272c-0.521,0-0.943-0.422-0.943-0.943v-12.824c0-0.518,0.422-0.939,0.943-0.939
	c0.519,0,0.938,0.422,0.938,0.939v12.824C149.537,168.85,149.118,169.272,148.6,169.272z"/>
</svg>
