<?xml version="1.0" encoding="utf-8"?>
<!-- Generator: Adobe Illustrator 15.1.0, SVG Export Plug-In  -->
<!DOCTYPE svg PUBLIC "-//W3C//DTD SVG 1.1//EN" "http://www.w3.org/Graphics/SVG/1.1/DTD/svg11.dtd" [
	<!ENTITY ns_flows "http://ns.adobe.com/Flows/1.0/">
]>
<svg version="1.1"
	 xmlns="http://www.w3.org/2000/svg" xmlns:xlink="http://www.w3.org/1999/xlink" xmlns:a="http://ns.adobe.com/AdobeSVGViewerExtensions/3.0/"
	 x="0px" y="0px" width="300px" height="300px" viewBox="-47.722 -49.023 300 300" enable-background="new -47.722 -49.023 300 300"
	 xml:space="preserve">
<defs>
</defs>
<polygon fill="#5B5B5B" points="188.751,132.471 217.131,183.668 186.132,183.668 165.855,132.471 "/>
<polygon fill="#5B5B5B" points="51.302,132.471 31.034,183.668 0,183.668 28.38,132.471 "/>
<path fill="#5B5B5B" d="M149.249,159.205c-1.893,1.218-4.098,1.808-6.368,1.808c-3.406,0-6.646-1.512-8.89-4.082l-13.248-15.078
	l3.32,42.125h31.034L149.249,159.205z"/>
<circle fill="#5A5B5B" cx="97.761" cy="14.272" r="14.272"/>
<path fill="#5A5B5B" d="M149.153,143.69l-21.899-24.988l-9.976-21.694V52.579c10,10.406,11.15,27.46,11.188,27.823
	c0.396,4.318,4.091,7.562,8.345,7.562c0.25,0,0.533-0.012,0.788-0.035c4.576-0.407,7.971-4.453,7.561-9.029
	c-0.152-1.705-4.096-41.877-35.013-49.676c-0.839-0.215-1.685-0.279-2.522-0.23c-1.642,1.104-3.481,1.922-5.448,2.43L53.22,73.321
	c-3.489,2.988-3.899,8.241-0.908,11.733c2.985,3.489,8.325,3.899,11.823,0.908l24.143-20.581v31.289
	c-21,24.964-23.038,55.539-23.129,57.041c-0.275,4.582,3.156,8.508,7.735,8.801c0.179,0.012,0.334,0.016,0.51,0.016
	c4.348,0,7.998-3.385,8.285-7.781c0.021-0.322,2.106-28.65,21.231-49.752l9.832,21.691c0.331,0.734,0.769,1.418,1.299,2.029
	l22.559,25.904c3.026,3.467,8.272,3.826,11.741,0.813C151.805,152.411,152.168,147.155,149.153,143.69z"/>
<path fill="#5B5B5B" d="M85.12,154.725c-0.403,6.177-5.564,11.139-11.749,11.139c-0.25,0-0.505,0.056-0.754,0.039
	c-2.19-0.14-4.198-0.701-5.891-1.863l-4.693,19.938h31.034l4.049-52h-6.585C85.912,144.977,85.131,154.564,85.12,154.725z"/>
</svg>
