<svg width="40" height="40" viewBox="0 0 40 40" xmlns="http://www.w3.org/2000/svg"><title>Group 2</title><g transform="translate(1 1)" fill="none" fill-rule="evenodd"><circle stroke="#FFD865" cx="19" cy="19" r="19"/><g fill="#FFD865"><path d="M32.91 18.114l-4.874-8.516c-.357-.623-1.152-.84-1.775-.482-.623.357-.84 1.15-.482 1.775l4.876 8.517c.357.623 1.152.84 1.775.482.622-.358.838-1.153.48-1.776zM4.633 18.174l4.73-8.597c.347-.63 1.138-.86 1.767-.513.63.347.86 1.137.513 1.767l-4.73 8.598c-.347.63-1.138.86-1.767.513-.63-.346-.86-1.137-.513-1.766zM30.38 20.688l-1.91 1.357-6.584-4.752s-1.908-1.94-4.008-.194c-2.195 1.745-4.58 2.23-5.534.58 0 0-.382-.387.668-1.066.954-.68 8.11-5.82 8.11-5.82l3.627-.193 5.63 10.088z"/><path d="M18.053 12.09l-6.2 4.465s-2.036 1.844 1.16 3.3c0 0 1.746 1.066 5.912-1.942 0 0 .775-.97 2.035.29l6.492 4.66s1.26 1.552-1.065 1.746l-3.876-2.912s-.968-.39-.58.68l3.294 2.328s.775 1.843-1.357 1.552l-3.973-2.814s-.872-.194-.387.485l3.197 2.522s.97 1.844-1.26 1.553l-3.875-2.717s-.97-.485-.583.582l3.392 2.426s.677 1.455-1.26 1.552L7.102 21.115l5.62-9.994h3.392s1.163 0 1.938.97z"/></g></g></svg>