<svg id="Layer_1" xmlns="http://www.w3.org/2000/svg" viewBox="0 0 1920 1080"><style>.st0{fill:none;stroke:#5A5B5B;stroke-width:12;stroke-linecap:round;stroke-linejoin:round;stroke-miterlimit:10;}</style><path class="st0" d="M1525.7 561c0 124.6-225.5 469.6-225.5 469.6s-225.5-345-225.5-469.6 101-225.5 225.5-225.5 225.5 100.9 225.5 225.5z"/><path class="st0" d="M1432.8 558.8c0 73.3-59.4 132.7-132.7 132.7-73.3 0-132.7-59.4-132.7-132.7s59.4-132.7 132.7-132.7c73.4.1 132.7 59.5 132.7 132.7zM1097.9 776.8h-92.7V609.1h-503v445.2h335.3V860.6h83.8v193.7H1234M669.8 944.5H586v-83.8h83.8v83.8zm0-167.7H586V693h83.8v83.8zm251.5 0h-83.8V693h83.8v83.8zM1379.4 1054.4h104.4V860.6h83.8v193.7h670.7v-513H1571m89.3 274.7h83.8v162.4h-83.8V816zm0-217.2h83.8v162.4h-83.8V598.8zM1804.7 816h83.8v162.4h-83.8V816zm0-217.2h83.8v162.4h-83.8V598.8zM1949.2 816h83.8v162.4h-83.8V816zm0-217.2h83.8v162.4h-83.8V598.8zM2093.7 816h83.8v162.4h-83.8V816zm0-217.2h83.8v162.4h-83.8V598.8zM2238.3 500.5l-175.5-50.3-166.5 50.3"/></svg>