<!DOCTYPE svg PUBLIC "-//W3C//DTD SVG 1.1//EN" "http://www.w3.org/Graphics/SVG/1.1/DTD/svg11.dtd" [
	<!ENTITY ns_flows "http://ns.adobe.com/Flows/1.0/">
]><svg xmlns="http://www.w3.org/2000/svg" width="300" height="300" viewBox="-20.634 -64.817 300 300"><path fill="#FFF" d="M104.616 101.183l2.15-25.5 47.633 4.96 79.934 4.54-2.784 27h-74.184"/><path fill="none" stroke="#5A5B5B" stroke-width="9" stroke-linecap="round" stroke-linejoin="round" stroke-miterlimit="10" d="M262.5 141.146H4.5"/><path fill="#5A5B5B" d="M235.957 79.77c-8.56-3.082-28.1-8.43-64.904-10.723-36.81-2.297-56.856.583-65.736 2.578-3.363.762-5.842 3.776-6.067 7.368l-2.194 35.165c-.12 1.928 1.283 3.592 3.13 3.706l6.617.41-.976 18.03c-.123 1.956 1.386 3.66 3.343 3.784l14.59-.366c1.963.123 3.665-1.383 3.788-3.34l.955-16.755 78.486 4.896-.93 14.906c-.124 1.955 1.385 3.66 3.35 3.783l14.564.908c1.96.124 3.668-1.382 3.79-3.34l.933-14.905 6.606.413c1.85.113 3.448-1.363 3.565-3.294l2.193-35.16c.224-3.59-1.86-6.895-5.105-8.066zM135.3 94.39c-.12 1.956-1.832 3.465-3.79 3.342l-18.43-1.148c-1.97-.123-3.47-1.83-3.35-3.79l.464-7.43c.123-1.964 1.825-3.473 3.79-3.35l18.435 1.15c1.955.124 3.464 1.832 3.344 3.792l-.466 7.433zm93.652 5.838c-.126 1.957-1.83 3.466-3.79 3.343l-18.432-1.146c-1.97-.123-3.47-1.828-3.346-3.79l.463-7.434c.123-1.96 1.822-3.467 3.79-3.347l18.432 1.15c1.96.124 3.467 1.832 3.34 3.792l-.46 7.433z"/><path fill="#5A5B5B" d="M218.28 38.842c-.587-1.925-2.714-3.612-4.732-3.738l-80.443-5.013c-2.013-.124-4.336 1.28-5.153 3.12l-18.387 41.193c-.82 1.837.155 3.45 2.168 3.577l117.07 7.3c2.016.126 3.185-1.356 2.596-3.28l-13.12-43.16z"/><path fill="#FFF" d="M119.083 71.086l14.985-33.583 77.605 4.837 10.7 35.185"/><path fill="#5A5B5B" d="M206.672 72.645c-.278-.018-.557-.082-.826-.202-.038-.02-4.368-1.913-10.063-2.27-5.695-.355-10.225.986-10.27 1.004-1.258.378-2.59-.34-2.97-1.594-.383-1.26.323-2.587 1.577-2.968.22-.064 5.364-1.614 11.962-1.204s11.508 2.59 11.713 2.683c1.204.533 1.74 1.942 1.2 3.146-.416.93-1.36 1.467-2.323 1.406z"/><path fill="#FFF" stroke="#5A5B5B" stroke-width="3" stroke-miterlimit="10" d="M76.113 66.864c0 3.448-2.798 6.25-6.25 6.25H10.756c-3.454 0-6.255-2.802-6.255-6.25V7.752C4.5 4.298 7.3 1.5 10.756 1.5h59.11c3.45 0 6.248 2.798 6.248 6.252v59.112z"/><path fill="#5A5B5B" stroke="#5A5B5B" stroke-width="2.084" stroke-miterlimit="10" d="M4.5 19.772V7.752C4.5 4.298 7.3 1.5 10.755 1.5h59.11c3.45 0 6.248 2.798 6.248 6.252v12.02"/><text transform="translate(17.647 58.616)" fill="#5A5B5B" font-family="'GothamBold'" font-size="43.695">15</text><path fill="#5A5B5B" d="M228.28 132.92s-.148 2.83 2.623 3.788c1.374.475-.987.475-6.2.475s3.578-4.263 3.578-4.263zm-122.313.217s.012 2.836-2.8 3.66c-1.398.406.96.52 6.166.77s-3.366-4.43-3.366-4.43zm21.78-.29s-.285 2.82 2.437 3.91c1.35.54-1.008.426-6.214.177s3.776-4.087 3.776-4.087z"/></svg>