<svg id="Layer_1" xmlns="http://www.w3.org/2000/svg" viewBox="0 0 80.7 80.7"><style>.st0{fill:#5A5A5A;} .st1{fill:none;}</style><path class="st0" d="M66.3 45.3c0-2-1.7-3.7-3.7-3.7-.6 0-1.1.5-1.1 1.1 0 .6.5 1.1 1.1 1.1.9 0 1.6.7 1.6 1.6v19c0 .6.5 1.1 1.1 1.1.6 0 1.1-.5 1.1-1.1-.1-.2-.1-17.7-.1-19.1z"/><circle class="st0" cx="49.4" cy="19.2" r="3.8"/><circle class="st0" cx="25.5" cy="19.4" r="3.8"/><path class="st0" d="M36.3 39.5l-4.4-3.6-4.6-10.4c-.4-.7-1.1-1.3-2-1.3h-3c-.8 0-1.5.5-1.9 1.1l-.2.2c-6.8 9.7-4.9 3.9-5.9 15.3-.2 2.1 3 2.5 3.2.2l.5-6.5 1.9-2.6.1 8.7-1.4 13-2.2 9.1c-.7 2.8 3.5 3.8 4.2 1l2.1-8.4c.2-.8.2-1 .3-1.8l.7-6.4c0-.2.3-.3.3 0l.8 6.8v9.2c0 2.9 4.3 2.9 4.3 0v-8.7c0-.9-.1-1.8-.1-1.8l-1.5-13.2v-.2-4.9c1.2 2.3 1.6 3.2 2.2 4 .7.9 1.8 1.5 4.7 3.8 1.7 1.4 3.9-1.1 1.9-2.6zM59.7 39.6l-3.9-3.3-4.7-10.8c-.3-.7-1.1-1.3-2-1.3h-3c-.8 0-1.5.5-1.9 1.1l-.2.2c-6.7 9.6-4.9 4.7-5.5 15.6v.4c0 1.9 2.8 2 2.8.1l.5-7 1.9-2.6.1 4.8L40 54.9h2.4l-1.5 7.8c-.7 2.8 2.9 3.7 3.5.9l1.8-8.7H49l.2 8.2c0 2.9 3.7 2.9 3.7 0v-8.2h1c.4 0 .5-.4.5-.5-.4-5.9-1.5-11-3.1-15.6v-4.4c1.2 2.3 1.5 2.8 2.1 3.6.7.9 1.8 1.5 4.7 3.8 1.6 1.3 3.6-.7 1.6-2.2z"/><path class="st1" d="M0 .1h80.7v80.7H0z"/></svg>