<svg id="Layer_1" xmlns="http://www.w3.org/2000/svg" viewBox="0 0 80.7 80.7"><style>.st0{fill:#5A5A5A;} .st1{fill:none;}</style><path class="st0" d="M63.8 46.1l-6 10.4c-1.2 2.1-3.4 3.1-5.6 3h-4.8v4.8l-6-10.8 6-10.8v4.8h6.8l-5.3-9.2 10.4-6 4.3 7.5c1.2 1.8 1.4 4.2.2 6.3M33.6 16.4h12c2.3 0 4.4 1.4 5.4 3.3l2.4 4.2 4.1-2.4-6.3 10.6-12.3.2 4.1-2.4-3.4-5.9-5.3 9.2-10.4-6 4.3-7.5c1-1.9 3-3.3 5.4-3.3m-10 40.1l-6-10.4c-1.2-2-1-4.5.2-6.3l2.4-4.1-4.1-2.4 12.3.2L34.7 44l-4.1-2.4-3.4 5.8h10.6v12h-8.6c-2.2.2-4.4-.9-5.6-2.9z"/><path class="st1" d="M0 0h80.7v80.7H0z"/></svg>