<svg baseProfile="basic" xmlns="http://www.w3.org/2000/svg" width="122.013" height="120.864" viewBox="0 0 122.013 120.864"><path fill="#FED300" d="M114.73 75.253c-1.673-3.468-.806-8.522 1.93-11.233l.506-.504c2.734-2.71 2.62-7.026-.252-9.59l-.533-.476c-2.87-2.563-4.004-7.566-2.516-11.117l.275-.66c1.487-3.55-.27-7.493-3.903-8.763l-.676-.235c-3.634-1.27-6.595-5.458-6.578-9.308l.003-.715c.016-3.85-3.115-6.82-6.96-6.603l-.714.04c-3.843.218-8.18-2.52-9.64-6.082l-.27-.66c-1.458-3.564-5.488-5.11-8.956-3.438l-.644.31c-3.468 1.674-8.522.806-11.234-1.928l-.503-.508c-2.712-2.734-7.027-2.62-9.59.252l-.477.534C51.433 7.443 46.43 8.575 42.88 7.087l-.66-.276c-3.55-1.487-7.495.27-8.764 3.904l-.235.674c-1.268 3.635-5.457 6.596-9.307 6.58l-.715-.003c-3.85-.016-6.82 3.116-6.603 6.96l.04.712c.22 3.844-2.518 8.182-6.08 9.64l-.662.273c-3.563 1.458-5.11 5.49-3.437 8.957l.31.644c1.674 3.468.806 8.524-1.928 11.235l-.508.503c-2.733 2.71-2.62 7.027.252 9.59l.533.476C7.988 69.517 9.12 74.52 7.632 78.07l-.275.66c-1.488 3.55.27 7.494 3.903 8.764l.675.235c3.635 1.27 6.596 5.457 6.58 9.307l-.003.715c-.016 3.85 3.116 6.82 6.96 6.603l.713-.04c3.844-.22 8.182 2.518 9.64 6.08l.272.662c1.458 3.563 5.49 5.11 8.957 3.437l.644-.31c3.468-1.673 8.523-.806 11.234 1.928l.504.51c2.71 2.732 7.027 2.618 9.59-.254l.476-.533c2.563-2.872 7.566-4.005 11.117-2.517l.658.275c3.55 1.488 7.494-.268 8.764-3.902l.235-.674c1.27-3.635 5.458-6.596 9.308-6.58l.715.003c3.85.016 6.82-3.116 6.603-6.96l-.04-.715c-.22-3.844 2.518-8.182 6.08-9.64l.662-.27c3.563-1.46 5.11-5.49 3.438-8.957l-.314-.645z"/><path d="M30.944 40.257c-1.888 2.85-5.515 3.5-8.336 1.632-2.792-1.852-3.69-5.44-1.73-8.4 1.195-1.802 2.545-2.475 4.06-2.818l.538 1.945c-1.244.3-2.288.815-3.028 1.932-1.24 1.87-.6 4.242 1.326 5.52 1.928 1.276 4.39.957 5.63-.914.794-1.2.814-2.293.588-3.65l1.848-.362c.387 1.723.315 3.284-.896 5.113zM33.98 24.385l1.593-1.255 5.476 6.95-1.594 1.254-.85-1.08c.07 1.012-.128 2.086-1.208 2.937-1.565 1.235-3.304.898-4.58-.72l-3.484-4.423 1.592-1.255 3.112 3.948c.85 1.08 1.878 1.272 2.825.526.92-.727 1.06-1.88.207-2.958l-3.09-3.923zM50.253 16.798c1.843-.566 3.323.26 3.958 2.326l1.66 5.398-1.938.596-1.477-4.807c-.413-1.344-1.26-1.873-2.35-1.54-1.058.326-1.584 1.293-1.166 2.656l1.467 4.773-1.938.595-1.482-4.823c-.404-1.313-1.27-1.854-2.345-1.524-1.073.33-1.564 1.357-1.16 2.67l1.462 4.76-1.94.595-2.597-8.46 1.938-.594.395 1.28c.313-.92.835-1.85 2.132-2.25 1.218-.373 2.25-.04 2.973.718.412-1.107 1.127-1.976 2.408-2.37zM63.245 25.302c-1.453-.113-2.314-.92-2.87-1.787l-.314 4.042-2.02-.158.897-11.492 2.02.158-.113 1.47c.723-.868 1.698-1.53 3.12-1.42 2.086.163 3.978 1.974 3.75 4.914-.23 2.94-2.364 4.436-4.47 4.272zm.112-7.47c-1.37-.106-2.66.918-2.794 2.64-.134 1.72.98 2.932 2.35 3.04 1.388.107 2.607-.89 2.744-2.643.137-1.738-.93-2.93-2.3-3.037zM69.637 26.34l3.75-11.64 1.93.62-3.75 11.643-1.93-.622zM74.507 28.16l3.93-7.93 1.814.9-3.925 7.93-1.818-.9zm4.456-9.182l.854-1.727 1.952.968-.856 1.727-1.95-.967zM84.062 34.553l.94-1.135c-1.09.292-2.27.27-3.38-.648-1.602-1.327-2.103-3.898-.22-6.17 1.883-2.27 4.478-2.274 6.104-.926 1.122.93 1.36 2.086 1.326 3.125l3.04-3.666 1.56 1.294-7.81 9.42-1.56-1.295zm2.695-7.215c-1.072-.89-2.646-.8-3.78.567-1.112 1.342-.916 2.942.143 3.82 1.045.867 2.69.772 3.792-.557 1.103-1.33.89-2.963-.155-3.83zM89.387 41.44c-1.445-2.278-.774-5.065 1.362-6.42 2.148-1.366 4.994-.79 6.448 1.5 1.454 2.292.783 5.08-1.367 6.444-2.134 1.357-4.98.782-6.443-1.524zm6.294-3.995c-.87-1.373-2.5-1.567-3.817-.732-1.328.844-1.816 2.483-.972 3.812.88 1.386 2.513 1.58 3.827.746 1.33-.843 1.817-2.48.964-3.825z"/><g><path d="M88.604 80.178c1.887-2.85 5.514-3.5 8.336-1.632 2.79 1.85 3.69 5.44 1.73 8.4-1.194 1.8-2.546 2.473-4.058 2.816l-.54-1.945c1.245-.3 2.288-.814 3.028-1.932 1.238-1.87.6-4.242-1.326-5.52-1.928-1.277-4.39-.96-5.63.912-.794 1.2-.813 2.293-.587 3.65l-1.85.36c-.385-1.72-.314-3.28.897-5.11zM85.57 96.05l-1.594 1.254-5.476-6.95 1.594-1.254.852 1.078c-.072-1.01.127-2.084 1.205-2.936 1.567-1.234 3.306-.896 4.58.723l3.485 4.422-1.592 1.255-3.11-3.948c-.853-1.08-1.878-1.272-2.827-.525-.92.725-1.06 1.878-.207 2.958l3.09 3.922zM69.295 103.636c-1.844.566-3.324-.26-3.96-2.325l-1.657-5.398 1.938-.596 1.477 4.807c.414 1.346 1.26 1.875 2.352 1.54 1.057-.325 1.582-1.293 1.164-2.655l-1.468-4.773 1.938-.596 1.482 4.82c.404 1.314 1.27 1.855 2.346 1.524 1.072-.33 1.562-1.357 1.158-2.67l-1.46-4.76 1.938-.594 2.598 8.46-1.938.594-.395-1.28c-.313.92-.835 1.85-2.132 2.25-1.22.373-2.248.04-2.973-.718-.414 1.108-1.13 1.976-2.41 2.37zM56.302 95.132c1.454.114 2.314.92 2.87 1.787l.314-4.042 2.02.156-.896 11.492-2.02-.158.113-1.47c-.722.868-1.698 1.532-3.118 1.42-2.088-.162-3.98-1.974-3.75-4.913s2.363-4.437 4.467-4.273zm-.112 7.47c1.37.107 2.66-.92 2.794-2.64.134-1.72-.98-2.932-2.35-3.04-1.387-.107-2.607.89-2.744 2.644-.137 1.736.93 2.93 2.3 3.036zM49.91 94.095l-3.75 11.642-1.93-.622 3.752-11.643 1.93.623zM40.585 101.457l-.855 1.727-1.952-.968.855-1.726 1.952.967zm4.456-9.183l-3.927 7.93-1.816-.9 3.927-7.928 1.817.898zM35.486 85.882l-.94 1.135c1.09-.293 2.27-.27 3.38.648 1.602 1.326 2.104 3.898.22 6.17-1.883 2.27-4.478 2.274-6.103.926-1.123-.93-1.362-2.085-1.327-3.124l-3.04 3.664-1.56-1.295 7.81-9.418 1.56 1.295zm-2.695 7.215c1.073.888 2.647.8 3.782-.568 1.112-1.343.915-2.942-.144-3.82-1.045-.866-2.69-.772-3.793.558-1.1 1.327-.888 2.96.156 3.83zM30.16 78.993c1.446 2.277.774 5.065-1.36 6.42-2.15 1.365-4.997.79-6.45-1.5-1.455-2.292-.784-5.08 1.366-6.443 2.135-1.356 4.98-.782 6.444 1.523zm-6.295 3.996c.872 1.37 2.504 1.565 3.82.73 1.328-.844 1.815-2.483.972-3.812-.88-1.386-2.512-1.58-3.827-.745-1.33.844-1.817 2.483-.965 3.826z"/></g><circle cx="101.077" cy="58.694" r="2.855"/><circle cx="24.507" cy="58.694" r="2.855"/><path fill="#F5F5F5" d="M61.413 85.356c-10.012 0-20.098-5.836-20.098-17.434v-17.36c0-11.526 10.086-17.433 20.313-17.433 6.268 0 13.83 2.664 17.938 11.74l-10.518 4.25c-3.457-6.338-14.84-4.898-14.84 1.442v17.36c0 6.123 11.526 7.852 14.336.793L79.78 73.9c-4.248 8.287-11.956 11.456-18.367 11.456z"/></svg>