<svg id="Layer_1" xmlns="http://www.w3.org/2000/svg" viewBox="0 0 80.7 80.7"><style>.st0{fill:#5A5A5A;} .st1{fill:none;}</style><path class="st0" d="M40.3 16.8c-11 0-19.8 1.2-19.8 9.9v23.6c0 4.8 3.9 8.7 8.7 8.7l-3.7 3.7v1.2h29.8v-1.2L51.6 59c4.8 0 8.7-3.9 8.7-8.7V26.7c-.1-8.7-9-9.9-20-9.9zM29.2 54c-2.1 0-3.7-1.7-3.7-3.7 0-2.1 1.7-3.7 3.7-3.7 2.1 0 3.7 1.7 3.7 3.7S31.2 54 29.2 54zm8.7-14.9H25.5V26.7h12.4v12.4zM51.5 54c-2.1 0-3.7-1.7-3.7-3.7 0-2.1 1.7-3.7 3.7-3.7 2.1 0 3.7 1.7 3.7 3.7S53.6 54 51.5 54zm3.7-14.9H42.8V26.7h12.4v12.4z"/><path class="st1" d="M0 .6h80.7v80.7H0z"/></svg>