<!DOCTYPE svg PUBLIC "-//W3C//DTD SVG 1.1//EN" "http://www.w3.org/Graphics/SVG/1.1/DTD/svg11.dtd" [
	<!ENTITY ns_flows "http://ns.adobe.com/Flows/1.0/">
]><svg xmlns="http://www.w3.org/2000/svg" width="300" height="300" viewBox="-17.373 -4.361 300 300"><path fill="#FFF" d="M74.345 281.64l58.282 7h27l69.5-7 3.5-19.5-4-212.5L81.683 56.21s-3.46 10.292-14.927 19.36l-8.12 28.616 3.99 166.95 11.72 10.5z"/><path fill="#FFF" d="M89.247 80.49h114.155v172.243H89.247z"/><path fill="#FFF" d="M89.247 80.49h114.155v172.243H89.247z"/><path fill="#5A5B5B" d="M206.502 65.118H85.042V256.94H207.61V65.118H206.5zM89.247 252.733V80.49h114.155v172.243H89.247z"/><circle fill="#FFF" cx="199.689" cy="73.257" r="3.248"/><circle fill="#FFF" cx="183.278" cy="73.257" r="3.249"/><circle fill="#FFF" cx="166.869" cy="73.257" r="3.246"/><path fill="#5A5B5B" d="M74.12 91.166h118.023v4.207H74.12zM93.656 104.188h84.65v4.207h-84.65zM126.214 117.214h65.93v4.207h-65.93zM74.12 143.256h118.023v4.208H74.12zM100.44 156.278h91.703v4.207H100.44zM113.46 169.303h78.684v4.207H113.46zM74.12 195.352h118.023v4.207H74.12zM100.44 208.374h77.327v4.207H100.44zM113.46 221.397h78.684v4.207H113.46zM126.896 234.422h38.82v4.207h-38.82z"/><path fill="#5A5B5B" d="M218.62 30.776H84.14c.534 2.774.84 5.628.84 8.555 0 5.97-1.19 11.658-3.297 16.882h144.08V265.84H66.755V75.57c-3.475 2.605-7.324 4.712-11.467 6.24v190.862c0 10.273 8.325 18.605 18.608 18.605h144.72c10.275 0 18.61-8.332 18.61-18.605V49.382c0-10.274-8.334-18.606-18.61-18.606zm-72.36 255.086c-3.88 0-7.026-3.146-7.026-7.023 0-3.882 3.146-7.028 7.025-7.028s7.024 3.146 7.024 7.027c0 3.875-3.146 7.022-7.025 7.022z"/><path fill="#5A5B5B" d="M78.65 39.33c0 21.716-17.607 39.32-39.322 39.32C17.608 78.65 0 61.046 0 39.33 0 17.61 17.607 0 39.328 0 61.043 0 78.65 17.61 78.65 39.33"/><path fill="#FFF" d="M58.635 33.624H45.032V20.016h-11.41v13.608H20.015v11.408H33.62v13.603h11.412V45.032h13.603"/></svg>