<!DOCTYPE svg PUBLIC "-//W3C//DTD SVG 1.1//EN" "http://www.w3.org/Graphics/SVG/1.1/DTD/svg11.dtd" [
	<!ENTITY ns_flows "http://ns.adobe.com/Flows/1.0/">
]><svg xmlns="http://www.w3.org/2000/svg" width="300" height="300" viewBox="-23.071 -54.833 300 300"><path fill="#5A5B5B" d="M252.946 153.865l-29.47-12.023-.416.205-.592-10.705c3.996-2.7 7.588-6.375 8.997-11.277.54-1.87 1.005-3.775 1.427-5.672 2.32-1.39 12.023-7.764 8.895-15.37-1.526-3.722-4.066-4.742-6.026-4.765.023-.27.04-.52.05-.724.18-.01.348.003.526-.012 0 0 5.54-19.556-13.99-21.98l-1.584 5.084 1.557-4.986s1.795-5.168-10.47-9.64c-15.61-5.688-42.56 9.37-34.364 31.724l.527.035.036.502c-1.95.056-4.434 1.096-5.94 4.76-3.075 7.492 6.297 13.793 8.796 15.31.422 1.915.896 3.843 1.438 5.73 1.41 4.903 5.002 8.577 8.998 11.278l-.592 10.74-.062-.028-29.82 11.813-.915 28.783h93.906l-.91-28.783zm-13.93-53.7c1.614 3.93-2.347 7.806-5.273 10.02.92-5.04 1.465-9.687 1.77-12.93.816-.062 2.395.215 3.503 2.91zm-64.13 0c1.054-2.573 2.536-2.948 3.41-2.913.304 3.22.84 7.824 1.75 12.826-2.905-2.245-6.737-6.086-5.16-9.914zm10.338 19.067c-2.892-10.04-3.917-21.54-4.195-25.365 7.753.144 26.53-.548 37.425-9.844v-.003c.006.012 5.063 8.288 14.353 9.413-.227 3.292-1.21 15.337-4.226 25.798-3.067 10.66-19.216 14.955-21.68 15.55-2.465-.59-18.607-4.87-21.68-15.547zm8.446 24.285l.574-10.422c5.96 3.27 11.897 4.598 12.346 4.693l.316.068.31-.068c.452-.096 6.388-1.424 12.347-4.693l.574 10.393-13.23 6.523-13.237-6.492zm-123.662-1.57l-.618-12.398c3.876-2.625 7.356-6.193 8.728-10.953.75-2.602 1.365-5.273 1.88-7.88 2.386-1.347 10.167-6.286 7.712-12.263-1.242-3.023-3.62-3.875-5.496-3.91.117-1.463.164-2.38.173-2.52l-1.52-.078c.103-.592.78-4.723.292-9.245 7.832-2.686 12.985 10.42 9.15 20.834-3.885 10.54 5.613 11.9 5.613 11.9.604-5.035 16.61-16.87 5.818-34.64-7.962-13.11-17.624-7.972-22.147-4.37-1.793-4.226-5.314-7.89-12.015-8.723l-.004.01c-1.198-1.676-3.724-3.73-8.994-5.65-10.78-3.93-27.25 2.565-32.452 14.565-4.41-3.6-14.288-9.19-22.4 4.17-10.793 17.77 5.212 29.604 5.815 34.64 0 0 9.5-1.362 5.616-11.9-3.876-10.527 1.424-23.828 9.4-20.766-.254 2.943.144 6.104 1.366 9.44 0 0 .105.007.18.01.02.352.066 1.157.163 2.34-1.94.095-4.305.98-5.5 3.898-2.455 5.972 5.33 10.91 7.71 12.257.517 2.607 1.13 5.28 1.88 7.88 1.373 4.76 4.854 8.33 8.73 10.952l-.62 12.397-28.91 12.77-.883 27.932h91.125l-.882-27.933-28.912-12.77zm-46.465-42.35c.71-1.72 2.048-2.057 3-2.06.252 2.505.64 5.685 1.207 9.142-2.382-1.71-5.288-4.447-4.207-7.084zm61.395-.002c1.08 2.64-1.825 5.375-4.207 7.08.57-3.453.957-6.63 1.21-9.135.85-.042 2.234.198 3 2.055zm-51.692 18.17c-3.064-10.64-3.97-22.966-4.125-25.424 7.215.15 25.09-.446 35.557-9.21l-.006.04s11.14-1.077 16.137 8.775l-1.417-.072c-.007.14-.75 14.077-4.155 25.893-2.965 10.307-18.577 14.47-20.994 15.055-2.42-.58-18.022-4.73-20.993-15.054zm20.994 39.193L41.426 142.99l.583-11.682c5.764 3.15 11.48 4.428 11.916 4.52l.313.067.312-.066c.437-.096 6.152-1.373 11.918-4.523l.584 11.682-12.814 13.967zM139.453 10.73V0h-11.77v10.73c-14.017 2.74-24.6 15.08-24.6 29.9 0 16.84 13.65 30.482 30.487 30.482 16.834 0 30.48-13.644 30.48-30.483 0-14.82-10.578-27.16-24.597-29.9z"/><path fill="#FFF" d="M148.137 56.528l-18.1-14.176v-40h7.064v36.56l15.39 12.062M23.544 99.597c.71-1.72 2.048-2.057 3-2.06.252 2.505.64 5.685 1.207 9.142-2.382-1.71-5.288-4.447-4.207-7.084zm61.395-.002c1.08 2.64-1.825 5.375-4.207 7.08.57-3.453.957-6.63 1.21-9.135.85-.042 2.234.198 3 2.055zm-51.692 18.17c-3.064-10.64-3.97-22.966-4.125-25.424 7.215.15 25.09-.446 35.557-9.21l-.006.04s11.14-1.077 16.137 8.775l-1.417-.072c-.007.14-.75 14.077-4.155 25.893-2.965 10.307-18.577 14.47-20.994 15.055-2.42-.58-18.022-4.73-20.993-15.054z"/><path fill="#FFF" d="M54.24 156.958L41.426 142.99l.583-11.682c5.764 3.15 11.48 4.428 11.916 4.52l.313.067.312-.066c.437-.096 6.152-1.373 11.918-4.523l.584 11.682-12.814 13.967zm184.776-56.794c1.614 3.932-2.347 7.807-5.273 10.02.92-5.04 1.465-9.686 1.77-12.93.816-.06 2.395.216 3.503 2.91zm-64.13 0c1.054-2.572 2.536-2.947 3.41-2.912.304 3.22.84 7.824 1.75 12.826-2.905-2.245-6.737-6.086-5.16-9.914zm10.338 19.068c-2.892-10.04-3.917-21.54-4.195-25.365 7.753.144 26.53-.548 37.425-9.844v-.003c.006.012 5.063 8.288 14.353 9.413-.227 3.292-1.21 15.337-4.226 25.798-3.067 10.66-19.216 14.955-21.68 15.55-2.465-.59-18.607-4.87-21.68-15.547z"/><path fill="#FFF" d="M193.67 143.517l.574-10.422c5.96 3.27 11.897 4.598 12.346 4.693l.316.068.31-.068c.452-.096 6.388-1.424 12.347-4.693l.574 10.393-13.23 6.523-13.237-6.492z"/></svg>