<!DOCTYPE svg PUBLIC "-//W3C//DTD SVG 1.1//EN" "http://www.w3.org/Graphics/SVG/1.1/DTD/svg11.dtd" [
	<!ENTITY ns_flows "http://ns.adobe.com/Flows/1.0/">
]><svg xmlns="http://www.w3.org/2000/svg" width="300" height="300" viewBox="-42.345 -40.274 300 300"><path fill="none" stroke="#5A5B5B" stroke-width="2.731" stroke-miterlimit="10" d="M87.404 176.168l-5.636 32.436h54.972l-5.976-32.436"/><path fill="#5A5B5B" d="M218.508 31.41c0-4.526-3.668-8.197-8.197-8.197H8.2C3.668 23.213 0 26.883 0 31.41v122.91h218.508V31.41z"/><path opacity=".6" fill="#5A5B5B" d="M8.197 176.168H210.31c4.53 0 8.197-3.668 8.197-8.19v-13.66H0v13.66c0 4.522 3.668 8.19 8.197 8.19"/><path fill="#FFF" d="M11.156 33.455h196.652v109.71H11.156z"/><path fill="#5A5B5B" d="M76.248 55.082h66.466v66.46H76.248z"/><circle fill="none" stroke="#30241C" stroke-width="2.731" stroke-miterlimit="10" cx="49.166" cy="115.908" r="5.461"/><circle fill="none" stroke="#30241C" stroke-width="2.731" stroke-miterlimit="10" cx="38.241" cy="94.231" r="5.464"/><circle fill="none" stroke="#30241C" stroke-width="2.731" stroke-miterlimit="10" cx="60.089" cy="94.231" r="5.462"/><circle fill="none" stroke="#30241C" stroke-width="2.731" stroke-miterlimit="10" cx="49.166" cy="72.378" r="5.461"/><circle fill="none" stroke="#30241C" stroke-width="2.731" stroke-miterlimit="10" cx="27.315" cy="72.378" r="5.462"/><circle fill="none" stroke="#30241C" stroke-width="2.731" stroke-miterlimit="10" cx="60.089" cy="50.529" r="5.462"/><path fill="none" stroke="#30241C" stroke-width="2.731" stroke-miterlimit="10" d="M174.803 50.53c0 3.017 2.45 5.463 5.467 5.463s5.46-2.446 5.46-5.464-2.442-5.463-5.46-5.463-5.467 2.443-5.467 5.46zm-49.16 81.937c0 3.018 2.446 5.467 5.46 5.467 3.02 0 5.468-2.45 5.468-5.467s-2.447-5.46-5.465-5.46c-3.015 0-5.46 2.442-5.46 5.46zM92.865 23.212c0 3.02 2.446 5.467 5.467 5.467 3.018 0 5.46-2.448 5.46-5.47 0-3.014-2.442-5.457-5.46-5.457-3.02 0-5.467 2.444-5.467 5.458zm21.46-16.382c0 3.015 2.446 5.46 5.464 5.46s5.46-2.445 5.46-5.46c0-3.02-2.444-5.464-5.46-5.464s-5.466 2.443-5.466 5.464z"/><circle fill="none" stroke="#30241C" stroke-width="2.731" stroke-miterlimit="10" cx="119.788" cy="34.143" r="5.462"/><path fill="none" stroke="#30241C" stroke-width="2.731" stroke-miterlimit="10" d="M81.94 132.467c0 3.018 2.446 5.467 5.464 5.467s5.46-2.45 5.46-5.467-2.442-5.46-5.46-5.46-5.464 2.442-5.464 5.46zm92.863-60.26c0 3.02 2.45 5.465 5.467 5.465s5.46-2.443 5.46-5.464c0-3.015-2.442-5.46-5.46-5.46s-5.467 2.446-5.467 5.46zm-21.847 0c0 3.02 2.446 5.465 5.464 5.465s5.46-2.443 5.46-5.464c0-3.015-2.442-5.46-5.46-5.46s-5.464 2.446-5.464 5.46z"/><circle fill="none" stroke="#30241C" stroke-width="2.731" stroke-miterlimit="10" cx="158.418" cy="94.058" r="5.462"/><circle fill="none" stroke="#30241C" stroke-width="2.731" stroke-miterlimit="10" cx="191.191" cy="94.058" r="5.461"/><circle fill="none" stroke="#30241C" stroke-width="2.731" stroke-miterlimit="10" cx="158.418" cy="115.908" r="5.462"/><path fill="none" stroke="#30241C" stroke-width="2.731" stroke-miterlimit="10" d="M119.79 12.29v16.52m0 10.794v15.478m-21.458 0V28.68"/><ellipse fill="none" stroke="#30241C" stroke-width="2.731" stroke-miterlimit="10" cx="109.594" cy="153.408" rx="5.461" ry="5.467"/><path fill="none" stroke="#30241C" stroke-width="2.731" stroke-miterlimit="10" d="M109.594 121.54v26.4M65.552 50.53h21.852v4.552m43.7 0V50.53h43.7M54.627 72.378h21.62m-32.542 0H32.777M43.705 94.23h10.922m10.925 0h10.696m-21.62 21.678h21.62m76.708 0h-10.242m43.016-21.85h-21.85m-10.924 0h-10.242m10.242-21.85h-10.242m32.09 0H163.88m-76.476 54.798v-5.635m43.7 5.636v-5.465"/><path fill="none" stroke="#FFF" stroke-width="2.731" stroke-linejoin="round" stroke-miterlimit="10" d="M130.764 88.31c0 11.757-9.53 21.284-21.28 21.284-11.755 0-21.282-9.527-21.282-21.284 0-11.75 9.527-21.28 21.28-21.28 11.75 0 21.282 9.53 21.282 21.28z"/><path fill="none" stroke="#FFF" stroke-width="2.731" stroke-linejoin="round" stroke-miterlimit="10" d="M119.79 88.31c0 11.757-10.22 21.284-10.22 21.284s-10.213-9.527-10.213-21.284c0-11.75 10.213-21.28 10.213-21.28s10.22 9.53 10.22 21.28zm-10.22-21.28v42.564M88.2 88.31h42.564M91.412 99.4h36.234M91.412 77.133h36.234"/></svg>