<!DOCTYPE svg PUBLIC "-//W3C//DTD SVG 1.1//EN" "http://www.w3.org/Graphics/SVG/1.1/DTD/svg11.dtd" [
	<!ENTITY ns_flows "http://ns.adobe.com/Flows/1.0/">
]><svg xmlns="http://www.w3.org/2000/svg" width="300" height="300" viewBox="-48.885 -20.332 300 300"><path fill="#5A5B5B" d="M207.23 53.868c0 29.75-53.866 112.152-53.866 112.152s-53.87-82.4-53.87-112.152C99.495 24.114 123.61 0 153.365 0c29.75 0 53.865 24.114 53.865 53.868z"/><circle fill="#FFF" cx="153.362" cy="53.361" r="31.683"/><text transform="translate(126.564 70.024)" fill="#5A5B5B" font-family="'GothamBold'" font-size="48.268">31</text><path fill="#5A5B5B" d="M180.188 183.3h-60.062v-40.05H0v106.33h80.083v-46.264h20.02v46.264h80.084V183.3zM40.043 223.337H20.02v-20.02h20.022v20.02zm0-40.04H20.02v-20.026h20.022V183.3zm60.06 0h-20.02v-20.026h20.02V183.3zm60.066 40.04h-20.025v-20.02h20.024v20.02z"/></svg>