<!DOCTYPE svg PUBLIC "-//W3C//DTD SVG 1.1//EN" "http://www.w3.org/Graphics/SVG/1.1/DTD/svg11.dtd" [
	<!ENTITY ns_flows "http://ns.adobe.com/Flows/1.0/">
]><svg xmlns="http://www.w3.org/2000/svg" width="300" height="300" viewBox="-2.327 -38.68 300 300"><path fill="#5A5B5B" d="M294.923 194.794c0 4.313-3.495 7.81-7.808 7.81H68.97c-4.312 0-7.81-3.497-7.81-7.81V70.562c0-4.313 3.498-7.81 7.81-7.81h218.146c4.313 0 7.808 3.497 7.808 7.81v124.232z"/><path fill="#FFF" d="M98.977 62.75H132.2v139.853H98.977zm128.79 0h33.222v139.853h-33.225z"/><path fill="none" stroke="#5A5B5B" stroke-width="3" stroke-miterlimit="10" d="M104.186 62.75h22.81m105.976 0h22.813"/><path fill="none" stroke="#5A5B5B" stroke-width="7.808" stroke-miterlimit="10" d="M158.83 54.943h38.426"/><path fill="#FFF" d="M164.186 145.986v11.553c0 6.473 6.18 11.723 13.81 11.723 7.63 0 13.812-5.25 13.812-11.725v-11.554h-27.622z"/><path fill="none" stroke="#FFF" stroke-width="2.603" stroke-miterlimit="10" d="M201.176 115.927c0-12.773-10.36-23.13-23.133-23.13-12.776 0-23.133 10.357-23.133 23.13 0 3.902.97 7.574 2.672 10.793 0 .004.003.01.003.01.354.668.74 1.32 1.16 1.953 5.956 10.412 8.546 18.047 8.546 18.047H188.9s2.476-7.617 8.435-18.035c2.426-3.656 3.844-8.045 3.844-12.768"/><path fill="none" stroke="#5A5B5B" stroke-width="2.603" stroke-miterlimit="10" d="M164.186 150.648h27.62m-27.62 5.168h27.62"/><path fill="#FFF" d="M10.916 10.225c-.375 0-.69.316-.69.688v83.232c0 .372.315.686.69.686h83.227c.375 0 .688-.31.688-.684V10.913c0-.372-.31-.688-.686-.688H10.916z"/><path fill="#FFF" d="M102.943 94.146c0 4.854-3.938 8.798-8.8 8.798H10.915c-4.863 0-8.807-3.943-8.807-8.798V10.913c0-4.863 3.942-8.8 8.806-8.8H94.14c4.864 0 8.8 3.937 8.8 8.8v83.233z"/><path fill="#5A5B5B" d="M94.143 105.056H10.916C4.898 105.056 0 100.16 0 94.146V10.913C0 4.896 4.898 0 10.916 0h83.227c6.018 0 10.913 4.896 10.913 10.913v83.232c0 6.015-4.896 10.91-10.913 10.91zM10.916 4.226c-3.69 0-6.69 3-6.69 6.687v83.232c0 3.686 3 6.686 6.69 6.686h83.227c3.688 0 6.688-3 6.688-6.684V10.913c0-3.688-3-6.688-6.686-6.688H10.916z"/><path fill="#5A5B5B" stroke="#5A5B5B" stroke-width="2.934" stroke-miterlimit="10" d="M2.11 27.838V10.913c0-4.863 3.942-8.8 8.806-8.8h83.227c4.863 0 8.8 3.937 8.8 8.8v16.925"/><text transform="translate(17.55 82.532)" fill="#5A5B5B" font-family="'GothamBold'" font-size="61.524">10</text></svg>