<!DOCTYPE svg PUBLIC "-//W3C//DTD SVG 1.1//EN" "http://www.w3.org/Graphics/SVG/1.1/DTD/svg11.dtd" [
	<!ENTITY ns_flows "http://ns.adobe.com/Flows/1.0/">
]><svg xmlns="http://www.w3.org/2000/svg" width="300" height="300" viewBox="-39.369 -40.483 300 300"><path fill="#FFF" stroke="#5A5B5B" stroke-width="3.498" stroke-miterlimit="10" d="M173.555 42.89v136.453H66.433V25.733h91.143z"/><path fill="#FFF" stroke="#5A5B5B" stroke-width="6.996" stroke-miterlimit="10" d="M84.37 37.94h37.74"/><path fill="#FFF" stroke="#5A5B5B" stroke-width="3.498" stroke-miterlimit="10" d="M84.37 61.854h70.622M84.37 73.814h70.622M84.37 85.77h70.622M84.37 97.73h29.84m-29.84 23.305h70.622m-70.622 11.96h70.622M84.37 144.954h70.622M84.37 156.908h41.85"/><path fill="#5A5B5B" d="M208.75 177.226c0 19.45-15.763 35.22-35.213 35.22-19.447 0-35.215-15.77-35.215-35.22s15.768-35.22 35.215-35.22c19.45 0 35.212 15.77 35.212 35.22"/><path fill="#FFF" d="M152.565 174.11l8.327-8.253 17.8 17.96 38.86-38.876 8.286 8.295-47.182 47.2"/><path fill="#5A5B5B" d="M217.553 147.416l5.813 5.818-44.704 44.72-23.622-23.833 5.842-5.787 17.807 17.965 38.862-38.88m0-4.95l-2.474 2.476-36.382 36.395-15.333-15.47-2.462-2.484-2.483 2.463-5.843 5.79-2.485 2.46 2.462 2.485 23.622 23.832 2.474 2.496 2.485-2.486 44.704-44.72 2.47-2.47-2.47-2.475-5.813-5.817-2.473-2.475z"/><path fill="none" stroke="#5A5B5B" stroke-width="3.498" stroke-miterlimit="10" d="M157.576 25.734V42.89l15.98-.078"/><path fill="#FFF" d="M65.613 65.613V9H9v56.613h56.613z"/><path fill="#FFF" d="M73.113 66.864c0 3.448-2.798 6.25-6.25 6.25H7.756c-3.454 0-6.255-2.802-6.255-6.25V7.752C1.5 4.298 4.3 1.5 7.756 1.5h59.11c3.45 0 6.248 2.798 6.248 6.252v59.112z"/><path fill="#5A5B5B" d="M66.864 74.613H7.754C3.48 74.613 0 71.136 0 66.863V7.753C0 3.478 3.48 0 7.755 0h59.11c4.273 0 7.748 3.478 7.748 7.752v59.112c0 4.272-3.474 7.75-7.75 7.75zM7.754 3C5.134 3 3 5.133 3 7.752v59.112c0 2.62 2.133 4.75 4.755 4.75h59.11c2.618 0 4.748-2.13 4.748-4.75V7.752c0-2.62-2.13-4.752-4.75-4.752H7.756z"/><path fill="#5A5B5B" stroke="#5A5B5B" stroke-width="2.084" stroke-miterlimit="10" d="M1.5 19.772V7.752C1.5 4.298 4.3 1.5 7.755 1.5h59.11c3.45 0 6.248 2.798 6.248 6.252v12.02"/><text transform="translate(25.607 58.618)" fill="#5A5B5B" font-family="'GothamBold'" font-size="43.695">1</text></svg>