<!DOCTYPE svg PUBLIC "-//W3C//DTD SVG 1.1//EN" "http://www.w3.org/Graphics/SVG/1.1/DTD/svg11.dtd" [
	<!ENTITY ns_flows "http://ns.adobe.com/Flows/1.0/">
]><svg xmlns="http://www.w3.org/2000/svg" width="300" height="300" viewBox="-47 -25.97 300 300"><path fill="#FFF" d="M55.5 109.28L73 120.03h70l10-8.5 5.5-21.5-5.25-76.5L52 19.03v58"/><path fill="#5A5B5B" d="M104.436 0C71.56 0 44.928 3.72 44.928 29.754v70.664c0 14.38 11.657 26.04 26.033 26.04h66.95c14.377 0 26.034-11.66 26.034-26.04V29.754C163.944 3.72 137.314 0 104.436 0zM70.96 111.58c-6.16 0-11.155-4.998-11.155-11.162 0-6.158 4.995-11.156 11.156-11.156 6.166 0 11.16 4.998 11.16 11.156 0 6.164-4.994 11.162-11.16 11.162zm26.037-44.63H59.805V29.753h37.192V66.95zm40.913 44.63c-6.164 0-11.16-4.998-11.16-11.162 0-6.158 4.996-11.156 11.16-11.156 6.16 0 11.156 4.998 11.156 11.156 0 6.164-4.995 11.162-11.156 11.162zm11.156-44.63h-37.192V29.753h37.192V66.95zM0 132.03v104h26v-3.293c0-44.376 35.624-80.353 80.003-80.353 44.376 0 79.997 35.977 79.997 80.353v3.293h26v-104H0z"/></svg>