<!DOCTYPE svg PUBLIC "-//W3C//DTD SVG 1.1//EN" "http://www.w3.org/Graphics/SVG/1.1/DTD/svg11.dtd" [
	<!ENTITY ns_flows "http://ns.adobe.com/Flows/1.0/">
]><svg xmlns="http://www.w3.org/2000/svg" width="300" height="300" viewBox="-70.484 -29.085 300 300"><path fill="#FFF" d="M68.024 92.55s-18.843-22.636 9.49-49.636c10.49-9.24 36.343-18.893 46.84-6.946 9.495 11.613.937 36.52-9.17 46.613s-34.318 19.61-47.16 9.97z"/><circle fill="#FFF" cx="34.277" cy="139.205" r="33.747"/><circle fill="#FFF" cx="132.277" cy="139.205" r="33.747"/><path fill="none" stroke="#5A5B5B" stroke-width="5.696" stroke-miterlimit="10" d="M167.18 35.274C146.78 15.22 118.81 2.848 87.946 2.848c-31.27 0-59.575 12.697-80.042 33.223m0 159.616c20.467 20.525 48.77 33.225 80.042 33.225 30.864 0 58.834-12.37 79.233-32.424"/><path fill="none" stroke="#5A5B5B" stroke-width="5.696" stroke-miterlimit="10" d="M23.827 36.07H7.904V19.932m143.353 176.553h15.923v16.14"/><path fill="#5A5B5B" d="M3.633 129.72c-.52 0-.946-.403-.98-.925-.025-.54.394-1 .93-1.025l11.168-.568-1.847-13.383c-.073-.538.302-1.03.835-1.106.527-.067 1.028.3 1.102.835l1.997 14.437c.04.27-.035.545-.21.758-.177.21-.435.34-.71.352l-12.234.625c-.018-.002-.036-.002-.05-.002z"/><path fill="#5A5B5B" d="M35.247 174.452C15.812 174.452 0 158.64 0 139.204c0-19.435 15.812-35.246 35.247-35.246 19.433 0 35.247 15.812 35.247 35.246 0 19.435-15.814 35.248-35.247 35.248zm0-66.583c-17.28 0-31.333 14.06-31.333 31.333 0 17.277 14.054 31.33 31.333 31.33 17.273 0 31.33-14.053 31.33-31.33 0-17.276-14.056-31.335-31.33-31.335z"/><path fill="#5A5B5B" d="M35.262 119.122c-.275 0-.54-.114-.724-.316L24.68 108.05c-.366-.398-.34-1.017.056-1.377.398-.37 1.02-.34 1.383.056l9.142 9.965 9.123-9.958c.366-.398.99-.425 1.38-.06.396.367.428.982.062 1.384l-9.847 10.744c-.188.202-.446.317-.718.317zm31.578 10.56c-.014 0-.028 0-.046-.002l-11.45-.584c-.274-.012-.526-.143-.708-.352-.167-.213-.252-.488-.21-.758l1.915-13.84c.075-.54.585-.89 1.106-.832.536.076.908.565.832 1.102L56.51 127.2l10.383.528c.54.025.952.486.923 1.02-.026.528-.454.934-.975.934zm-14.13 38.842c-.518 0-.954-.412-.978-.938l-.58-13.283c-.01-.27.097-.54.287-.732.19-.19.476-.287.736-.285l12.516.545c.542.026.96.48.938 1.02-.02.538-.512.917-1.02.937l-11.45-.498.526 12.215c.026.543-.396.996-.935 1.02-.01-.002-.026-.002-.04-.002zm-33.822.654h-.038c-.542-.023-.96-.48-.938-1.02l.557-12.867-12.57.547c-.55-.033-.997-.398-1.02-.938s.397-.997.937-1.02l13.635-.593c.272-.006.542.094.735.287.19.19.293.457.287.732l-.606 13.934c-.027.528-.458.938-.982.938z"/><path fill="#5A5B5B" d="M19.494 155.245c-.267 0-.53-.105-.724-.322-.36-.396-.334-1.018.064-1.377l7.48-6.838c.4-.37 1.02-.338 1.38.06.365.397.336 1.02-.06 1.382l-7.482 6.838c-.183.17-.42.257-.658.257zm32.64 0c-.23 0-.45-.076-.636-.234l-8.004-6.834c-.413-.352-.46-.967-.11-1.38.353-.41.972-.456 1.376-.108l8.007 6.836c.413.352.463.967.11 1.377-.192.225-.465.346-.743.346zm-5.58-20.995c-.338 0-.66-.174-.848-.484-.272-.47-.11-1.066.352-1.338l8.842-5.15c.463-.275 1.063-.117 1.34.352.27.47.113 1.066-.353 1.336l-8.842 5.152c-.155.088-.322.132-.492.132zm-22.616-.267c-.176 0-.35-.043-.51-.14l-8.063-4.884c-.463-.283-.606-.885-.328-1.344.278-.463.88-.61 1.342-.332l8.06 4.885c.467.28.613.88.335 1.34-.184.306-.506.47-.838.47zm11.315-8.545c-.54 0-.976-.44-.976-.982v-6.313c0-.54.44-.976.984-.976.535 0 .978.437.978.976l-.006 6.313c0 .543-.435.982-.977.982z"/><path fill="#5A5B5B" d="M44.12 148.407H26.97c-.456 0-.857-.326-.95-.777l-3.042-14.422c-.076-.373.067-.756.372-.984l11.38-8.55c.36-.267.843-.26 1.19.013l11.236 8.82c.278.22.416.578.357.932l-2.43 14.152c-.077.468-.484.814-.962.814zm-16.35-1.957H43.3l2.188-12.768-10.178-7.99-10.283 7.727 2.743 13.03zm53.412-47.36h-.006c-6.642 0-12.08-1.92-15.71-5.55-5.425-5.424-6.942-14.61-4.28-25.858 2.27-9.563 7.24-19.07 12.985-24.812 8.126-8.127 23.158-14.253 34.96-14.253 6.65 0 12.08 1.92 15.705 5.552 5.426 5.415 6.952 14.602 4.283 25.855-2.26 9.557-7.24 19.063-12.984 24.81-8.118 8.123-23.15 14.255-34.95 14.255zm27.946-65.91c-10.553 0-24.49 5.668-31.734 12.913-5.1 5.098-9.724 13.99-11.77 22.638-2.255 9.518-1.136 17.384 3.065 21.588 3.48 3.48 8.71 4.213 12.49 4.213 10.55 0 24.49-5.67 31.73-12.916 5.1-5.104 9.723-13.986 11.773-22.638 2.25-9.52 1.137-17.382-3.073-21.583-3.48-3.486-8.706-4.213-12.482-4.213z"/><path fill="#5A5B5B" d="M67.08 93.068c-.034 0-.066-.01-.1-.01-.626-.05-1.092-.6-1.042-1.227 4.017-47.553 56.563-57.086 57.1-57.177.604-.105 1.2.31 1.313.932.107.62-.31 1.213-.93 1.318-.51.085-51.34 9.343-55.207 55.116-.05.6-.55 1.05-1.13 1.05z"/><path fill="#5A5B5B" d="M67.075 93.07c-.586 0-1.087-.447-1.137-1.045-.05-.627.416-1.175 1.043-1.23 45.784-3.864 55.04-54.697 55.127-55.21.108-.62.686-1.037 1.315-.932.622.105 1.035.697.933 1.315-.09.536-9.624 53.083-57.18 57.1-.036.003-.07.003-.098.003zm65.33 81.382c-19.43 0-35.245-15.813-35.245-35.244 0-19.438 15.814-35.25 35.244-35.25 19.438 0 35.25 15.812 35.25 35.25 0 19.43-15.81 35.244-35.25 35.244zm0-66.73c-17.36 0-31.48 14.127-31.48 31.485 0 17.355 14.12 31.48 31.48 31.48s31.484-14.124 31.484-31.48c0-17.358-14.125-31.485-31.487-31.485z"/><path fill="#5A5B5B" d="M165.31 145.7H99.625c-.52 0-.94-.422-.94-.94 0-.522.422-.944.94-.944h65.687c.52 0 .94.422.94.943-.002.517-.42.94-.94.94zm-3.79 10.748h-58.228c-.52 0-.943-.422-.943-.943 0-.518.423-.94.94-.94h58.23c.523 0 .94.423.94.94 0 .52-.417.943-.94.943zm3.837-21.574H99.04c-.515 0-.937-.422-.937-.94 0-.52.422-.942.938-.942h66.318c.52 0 .938.422.938.943 0 .517-.416.94-.938.94zm-3.507-10.432h-58.89c-.515 0-.942-.422-.942-.938 0-.52.428-.94.943-.94h58.89c.523 0 .945.42.945.94 0 .516-.422.938-.943.938z"/><path fill="#5A5B5B" d="M126.554 124.442c-.52 0-.943-.422-.943-.938v-17.177c0-.52.424-.94.945-.94s.94.422.94.94v17.177c0 .516-.42.938-.94.938zm-10.43 0c-.52 0-.94-.422-.94-.938v-13.477c0-.52.422-.94.94-.94.524 0 .94.422.94.94v13.477c0 .516-.416.938-.94.938zm21.99 0c-.52 0-.94-.422-.94-.938v-17.177c0-.52.422-.94.94-.94.524 0 .94.422.94.94v17.177c0 .516-.415.938-.94.938zm10.486 0c-.52 0-.943-.422-.943-.938v-13.477c0-.52.422-.94.943-.94.52 0 .938.422.938.94v13.477c0 .516-.42.938-.938.938zm-22.046 48.676c-.52 0-.943-.418-.943-.94v-16.673c0-.518.424-.94.945-.94s.94.423.94.94v16.674c0 .52-.42.937-.94.937zm-10.43-3.846c-.52 0-.94-.422-.94-.943v-12.826c0-.518.422-.94.94-.94.524 0 .94.423.94.94v12.824c0 .52-.416.942-.94.942zm21.99 3.68c-.52 0-.94-.422-.94-.943v-16.506c0-.518.422-.94.94-.94.524 0 .94.423.94.94v16.504c0 .52-.415.942-.94.942zm10.486-3.68c-.52 0-.943-.422-.943-.943v-12.826c0-.518.422-.94.943-.94.52 0 .938.423.938.94v12.824c0 .52-.42.942-.938.942z"/></svg>