<!DOCTYPE svg PUBLIC "-//W3C//DTD SVG 1.1//EN" "http://www.w3.org/Graphics/SVG/1.1/DTD/svg11.dtd" [
	<!ENTITY ns_flows "http://ns.adobe.com/Flows/1.0/">
]><svg xmlns="http://www.w3.org/2000/svg" width="300" height="300" viewBox="-70.484 -29.085 300 300"><path fill="#FFF" d="M68.024 92.55s-18.843-22.636 9.49-49.636c10.49-9.24 36.343-18.893 46.84-6.946 9.495 11.613.937 36.52-9.17 46.613s-34.318 19.608-47.16 9.97z"/><circle fill="#FFF" cx="34.277" cy="139.205" r="33.747"/><circle fill="#FFF" cx="132.277" cy="139.205" r="33.747"/><path fill="none" stroke="#5A5B5B" stroke-width="5.696" stroke-miterlimit="10" d="M167.18 35.274C146.78 15.22 118.81 2.848 87.946 2.848c-31.27 0-59.575 12.697-80.042 33.223M7.904 195.686c20.467 20.525 48.77 33.225 80.042 33.225 30.864 0 58.834-12.37 79.233-32.425"/><path fill="none" stroke="#5A5B5B" stroke-width="5.696" stroke-miterlimit="10" d="M23.827 36.07H7.904V19.932M151.257 196.485h15.923v16.14"/><path fill="#5A5B5B" d="M3.633 129.72c-.52 0-.946-.403-.98-.925-.025-.54.394-1 .93-1.025l11.168-.568-1.848-13.383c-.073-.537.302-1.03.835-1.105.527-.067 1.028.3 1.102.835l1.997 14.438c.04.27-.035.545-.21.758-.177.21-.435.34-.71.352l-12.234.625c-.018-.002-.036-.002-.05-.002z"/><path fill="#5A5B5B" d="M35.247 174.452C15.812 174.452 0 158.64 0 139.204c0-19.435 15.812-35.246 35.247-35.246 19.433 0 35.247 15.812 35.247 35.246 0 19.435-15.814 35.248-35.247 35.248zm0-66.583c-17.28 0-31.333 14.06-31.333 31.334 0 17.277 14.054 31.33 31.333 31.33 17.273 0 31.33-14.053 31.33-31.33 0-17.276-14.056-31.335-31.33-31.335z"/><path fill="#5A5B5B" d="M35.262 119.122c-.275 0-.54-.114-.724-.316L24.68 108.05c-.366-.398-.34-1.017.056-1.377.398-.37 1.02-.34 1.383.056l9.143 9.966 9.123-9.958c.366-.398.99-.425 1.38-.06.396.367.428.982.062 1.384l-9.847 10.743c-.188.202-.446.317-.718.317zM66.84 129.682c-.014 0-.028 0-.046-.002l-11.45-.584c-.274-.012-.526-.143-.708-.352-.167-.213-.252-.488-.21-.758l1.915-13.84c.074-.54.584-.89 1.105-.832.536.076.908.565.832 1.102L56.51 127.2l10.383.528c.54.025.952.486.923 1.02-.026.528-.454.934-.975.934zM52.71 168.524c-.518 0-.954-.412-.978-.938l-.58-13.283c-.01-.27.097-.54.287-.732.192-.192.477-.288.737-.286l12.516.545c.542.026.96.48.938 1.02-.02.538-.512.917-1.02.937l-11.45-.498.526 12.216c.026.543-.396.996-.935 1.02-.01-.002-.027-.002-.04-.002zM18.888 169.178h-.038c-.542-.023-.96-.48-.938-1.02l.557-12.867-12.57.546c-.548-.033-.996-.398-1.02-.938s.398-.996.938-1.02l13.635-.592c.272-.006.542.094.735.287.19.19.293.457.287.732l-.606 13.934c-.027.528-.458.938-.982.938z"/><path fill="#5A5B5B" d="M19.494 155.245c-.267 0-.53-.105-.724-.322-.36-.396-.334-1.018.064-1.377l7.48-6.838c.4-.37 1.02-.338 1.38.06.365.397.336 1.02-.06 1.382l-7.482 6.838c-.183.17-.42.257-.658.257zM52.134 155.245c-.23 0-.45-.076-.636-.234l-8.004-6.835c-.413-.352-.46-.967-.11-1.38.353-.41.972-.456 1.376-.108l8.007 6.836c.413.352.463.967.11 1.377-.192.224-.465.345-.743.345zM46.553 134.25c-.337 0-.66-.174-.847-.484-.272-.47-.11-1.066.352-1.338l8.842-5.15c.463-.275 1.063-.117 1.34.352.27.47.113 1.066-.353 1.336l-8.842 5.152c-.155.088-.322.132-.492.132zM23.938 133.983c-.176 0-.35-.043-.51-.14l-8.063-4.884c-.463-.282-.606-.884-.328-1.343.278-.463.88-.61 1.342-.332l8.062 4.885c.466.28.612.88.334 1.342-.184.305-.506.47-.838.47zM35.253 125.438c-.54 0-.976-.44-.976-.982v-6.313c0-.54.44-.976.984-.976.534 0 .977.437.977.976l-.006 6.313c0 .543-.435.982-.977.982z"/><path fill="#5A5B5B" d="M44.12 148.407H26.97c-.456 0-.857-.326-.95-.777l-3.042-14.422c-.076-.373.067-.756.372-.984l11.38-8.55c.36-.267.843-.26 1.19.013l11.236 8.82c.278.22.416.578.357.932l-2.43 14.153c-.077.468-.484.814-.962.814zM27.77 146.45h15.53l2.188-12.768-10.178-7.99-10.283 7.727 2.743 13.03zM81.182 99.09h-.006c-6.642 0-12.08-1.92-15.71-5.55-5.425-5.424-6.942-14.61-4.28-25.858 2.27-9.563 7.24-19.07 12.985-24.812 8.125-8.127 23.157-14.253 34.958-14.253 6.65 0 12.08 1.92 15.706 5.552 5.426 5.416 6.952 14.603 4.283 25.856-2.26 9.557-7.24 19.063-12.984 24.81-8.118 8.123-23.15 14.255-34.95 14.255zm27.946-65.91c-10.553 0-24.49 5.668-31.734 12.913-5.1 5.098-9.724 13.99-11.77 22.638-2.255 9.517-1.136 17.383 3.065 21.587 3.482 3.48 8.712 4.213 12.49 4.213 10.55 0 24.49-5.672 31.73-12.917 5.1-5.104 9.724-13.986 11.774-22.638 2.25-9.52 1.137-17.382-3.073-21.583-3.48-3.486-8.706-4.213-12.482-4.213z"/><path fill="#5A5B5B" d="M67.08 93.068c-.034 0-.066-.01-.1-.01-.626-.05-1.092-.6-1.042-1.227 4.017-47.554 56.563-57.087 57.1-57.178.604-.105 1.2.31 1.313.932.106.62-.31 1.213-.93 1.318-.51.085-51.34 9.343-55.208 55.116-.05.602-.55 1.05-1.13 1.05z"/><path fill="#5A5B5B" d="M67.075 93.07c-.586 0-1.087-.447-1.137-1.045-.05-.627.416-1.175 1.043-1.23 45.783-3.864 55.038-54.697 55.126-55.21.108-.62.686-1.037 1.315-.932.622.105 1.035.697.933 1.315-.09.536-9.624 53.083-57.18 57.1-.036.003-.07.003-.098.003zM132.404 174.452c-19.43 0-35.244-15.813-35.244-35.244 0-19.438 15.814-35.25 35.244-35.25 19.438 0 35.25 15.812 35.25 35.25 0 19.43-15.81 35.244-35.25 35.244zm0-66.73c-17.358 0-31.48 14.127-31.48 31.485 0 17.355 14.122 31.48 31.48 31.48 17.36 0 31.485-14.124 31.485-31.48 0-17.358-14.124-31.485-31.486-31.485z"/><path fill="#5A5B5B" d="M165.31 145.7H99.625c-.52 0-.94-.422-.94-.94 0-.522.422-.944.94-.944h65.687c.52 0 .94.422.94.943-.002.518-.42.94-.94.94zM161.52 156.448h-58.228c-.52 0-.943-.422-.943-.943 0-.518.424-.94.942-.94h58.228c.524 0 .94.423.94.94 0 .52-.416.943-.94.943zM165.357 134.874H99.04c-.515 0-.937-.422-.937-.94 0-.52.422-.942.938-.942h66.317c.52 0 .938.422.938.943 0 .517-.416.94-.938.94zM161.85 124.442h-58.89c-.515 0-.942-.422-.942-.938 0-.52.428-.94.943-.94h58.89c.522 0 .944.42.944.94 0 .516-.422.938-.943.938z"/><path fill="#5A5B5B" d="M126.554 124.442c-.52 0-.943-.422-.943-.938v-17.177c0-.52.423-.94.944-.94s.94.422.94.94v17.177c0 .516-.42.938-.94.938zM116.124 124.442c-.52 0-.94-.422-.94-.938v-13.477c0-.52.422-.94.94-.94.524 0 .94.422.94.94v13.477c0 .516-.416.938-.94.938zM138.114 124.442c-.52 0-.94-.422-.94-.938v-17.177c0-.52.422-.94.94-.94.524 0 .94.422.94.94v17.177c0 .516-.415.938-.94.938zM148.6 124.442c-.52 0-.943-.422-.943-.938v-13.477c0-.52.422-.94.943-.94.52 0 .938.422.938.94v13.477c0 .516-.42.938-.938.938zM126.554 173.118c-.52 0-.943-.418-.943-.94v-16.673c0-.518.423-.94.944-.94s.94.423.94.94v16.674c0 .52-.42.938-.94.938zM116.124 169.272c-.52 0-.94-.422-.94-.943v-12.825c0-.518.422-.94.94-.94.524 0 .94.423.94.94v12.824c0 .52-.416.942-.94.942zM138.114 172.952c-.52 0-.94-.422-.94-.943v-16.505c0-.518.422-.94.94-.94.524 0 .94.423.94.94v16.504c0 .52-.415.942-.94.942zM148.6 169.272c-.52 0-.943-.422-.943-.943v-12.825c0-.518.422-.94.943-.94.52 0 .938.423.938.94v12.824c0 .52-.42.942-.938.942z"/></svg>