<?xml version="1.0" encoding="UTF-8"?>
<svg width="40px" height="40px" viewBox="0 0 40 40" version="1.1" xmlns="http://www.w3.org/2000/svg" xmlns:xlink="http://www.w3.org/1999/xlink">
    <!-- Generator: Sketch 52.6 (67491) - http://www.bohemiancoding.com/sketch -->
    <title>Group 2</title>
    <desc>Created with Sketch.</desc>
    <g id="Page-1" stroke="none" stroke-width="1" fill="none" fill-rule="evenodd">
        <g id="desktop---" transform="translate(-1040.000000, -670.000000)">
            <g id="Group-2" transform="translate(1041.000000, 671.000000)">
                <circle id="Oval-2-Copy-13" stroke="#FFD865" cx="19" cy="19" r="19"></circle>
                <g id="Group" transform="translate(4.000000, 8.000000)" fill="#FFD865">
                    <path d="M20.4384236,5.20197044 L30.2512315,5.20197044 C30.9694738,5.20197044 31.5517241,5.78422082 31.5517241,6.50246305 L31.5517241,6.50246305 C31.5517241,7.22070529 30.9694738,7.80295567 30.2512315,7.80295567 L20.4384236,7.80295567 C19.7201814,7.80295567 19.137931,7.22070529 19.137931,6.50246305 L19.137931,6.50246305 C19.137931,5.78422082 19.7201814,5.20197044 20.4384236,5.20197044 Z" id="Rectangle-path" transform="translate(25.344828, 6.502463) scale(-1, 1) rotate(-60.206542) translate(-25.344828, -6.502463) "></path>
                    <path d="M-0.768472906,5.20197044 L9.04433498,5.20197044 C9.76257721,5.20197044 10.3448276,5.78422082 10.3448276,6.50246305 L10.3448276,6.50246305 C10.3448276,7.22070529 9.76257721,7.80295567 9.04433498,7.80295567 L-0.768472906,7.80295567 C-1.48671514,7.80295567 -2.06896552,7.22070529 -2.06896552,6.50246305 L-2.06896552,6.50246305 C-2.06896552,5.78422082 -1.48671514,5.20197044 -0.768472906,5.20197044 Z" id="Rectangle-path" transform="translate(4.137931, 6.502463) rotate(-61.179515) translate(-4.137931, -6.502463) "></path>
                    <path d="M26.3793103,12.6875177 L24.4707625,14.0453202 L17.8862726,9.29301161 C17.8862726,9.29301161 15.9777248,7.35329381 13.8783222,9.09903983 C11.6834922,10.8447858 9.29780747,11.3297153 8.34353357,9.68095516 C8.34353357,9.68095516 7.96182401,9.29301161 9.0115253,8.61411038 C9.96579921,7.93520915 17.1228535,2.794957 17.1228535,2.794957 L20.7490943,2.60098522 L26.3793103,12.6875177 Z" id="Shape"></path>
                    <path d="M14.0531654,4.091498 L7.85155569,8.55495036 C7.85155569,8.55495036 5.81665251,10.3985502 9.0143575,11.8540238 C9.0143575,11.8540238 10.7585602,12.9213711 14.9252667,9.91339238 C14.9252667,9.91339238 15.7004679,8.94307665 16.9601699,10.2044871 L23.45248,14.8620026 C23.45248,14.8620026 24.712182,16.4145078 22.3865784,16.6085709 L18.5105723,13.6976237 C18.5105723,13.6976237 17.5415708,13.3094974 17.9291714,14.3768447 L21.2237766,16.7056025 C21.2237766,16.7056025 21.9989778,18.5492024 19.8671744,18.2581077 L15.8942682,15.444192 C15.8942682,15.444192 15.0221669,15.2501289 15.5066676,15.9293499 L18.7043726,18.4521708 C18.7043726,18.4521708 19.6733741,20.2957707 17.4446707,20.004676 L13.5686646,17.2877919 C13.5686646,17.2877919 12.5996631,16.8026341 12.9872637,17.8699814 L16.378769,20.2957707 C16.378769,20.2957707 17.0570701,21.7512443 15.119067,21.8482759 L3.10344828,13.1154343 L8.72365705,3.12118227 L12.1151623,3.12118227 C12.1151623,3.12118227 13.2779642,3.12118227 14.0531654,4.091498 Z" id="Shape"></path>
                </g>
            </g>
        </g>
    </g>
</svg>