<?xml version="1.0" encoding="utf-8"?>
<!-- Generator: Adobe Illustrator 20.0.0, SVG Export Plug-In . SVG Version: 6.00 Build 0)  -->
<svg version="1.1" id="Layer_1" xmlns="http://www.w3.org/2000/svg" xmlns:xlink="http://www.w3.org/1999/xlink" x="0px" y="0px"
	 viewBox="0 0 1920 1080" style="enable-background:new 0 0 1920 1080;" xml:space="preserve">
<style type="text/css">
	.st0{fill:none;stroke:#5A5B5B;stroke-width:12;stroke-linecap:round;stroke-linejoin:round;stroke-miterlimit:10;}
</style>
<g>
	<g>
		<path class="st0" d="M1525.7,561c0,124.6-225.5,469.6-225.5,469.6s-225.5-345-225.5-469.6s101-225.5,225.5-225.5
			S1525.7,436.4,1525.7,561z"/>
		<path class="st0" d="M1432.8,558.8c0,73.3-59.4,132.7-132.7,132.7c-73.3,0-132.7-59.4-132.7-132.7s59.4-132.7,132.7-132.7
			C1373.5,426.2,1432.8,485.6,1432.8,558.8z"/>
	</g>
	<g>
		<path class="st0" d="M1097.9,776.8h-92.7V609.1h-503v445.2h335.3V860.6h83.8v193.7H1234 M669.8,944.5H586v-83.8h83.8V944.5z
			 M669.8,776.8H586V693h83.8V776.8z M921.3,776.8h-83.8V693h83.8V776.8z"/>
	</g>
	<g>
		<path class="st0" d="M1379.4,1054.4h104.4V860.6h83.8v193.7h670.7V541.3H1571 M1660.3,816h83.8v162.4h-83.8V816z M1660.3,598.8
			h83.8v162.4h-83.8V598.8z M1804.7,816h83.8v162.4h-83.8V816z M1804.7,598.8h83.8v162.4h-83.8V598.8z M1949.2,816h83.8v162.4h-83.8
			V816z M1949.2,598.8h83.8v162.4h-83.8V598.8z M2093.7,816h83.8v162.4h-83.8V816z M2093.7,598.8h83.8v162.4h-83.8V598.8z"/>
	</g>
	<polyline class="st0" points="2238.3,500.5 2062.8,450.2 1896.3,500.5 	"/>
</g>
</svg>
