<?xml version="1.0" encoding="utf-8"?>
<!-- Generator: Adobe Illustrator 19.1.0, SVG Export Plug-In . SVG Version: 6.00 Build 0)  -->
<svg version="1.1" id="Layer_1" xmlns="http://www.w3.org/2000/svg" xmlns:xlink="http://www.w3.org/1999/xlink" x="0px" y="0px"
	 viewBox="-409 360.3 80.7 80.7" style="enable-background:new -409 360.3 80.7 80.7;" xml:space="preserve">
<style type="text/css">
	.st0{fill:#5B5B5B;}
</style>
<path class="st0" d="M-338.9,409c-0.9-2-0.5-4.9,1.1-6.4l0.3-0.3c1.5-1.6,1.5-4-0.1-5.5l-0.3-0.3c-1.6-1.5-2.3-4.3-1.4-6.4l0.2-0.4
	c0.8-2-0.2-4.3-2.2-5l-0.4-0.1c-2.1-0.7-3.7-3.1-3.7-5.3l0-0.4c0-2.2-1.8-3.9-3.9-3.8l-0.4,0c-2.2,0.1-4.6-1.4-5.5-3.5l-0.2-0.4
	c-0.8-2-3.1-2.9-5.1-2l-0.4,0.2c-2,1-4.8,0.5-6.4-1.1l-0.3-0.3c-1.5-1.6-4-1.5-5.4,0.1l-0.3,0.3c-1.5,1.6-4.3,2.3-6.3,1.4l-0.4-0.2
	c-2-0.9-4.2,0.2-5,2.2l-0.1,0.4c-0.7,2.1-3.1,3.8-5.3,3.8l-0.4,0c-2.2,0-3.9,1.8-3.7,4l0,0.4c0.1,2.2-1.4,4.7-3.4,5.5l-0.4,0.2
	c-2,0.8-2.9,3.1-1.9,5.1l0.2,0.4c0.9,2,0.5,4.9-1.1,6.4l-0.3,0.3c-1.5,1.6-1.5,4,0.1,5.5l0.3,0.3c1.6,1.5,2.3,4.3,1.4,6.4l-0.2,0.4
	c-0.8,2,0.2,4.3,2.2,5l0.4,0.1c2.1,0.7,3.7,3.1,3.7,5.3l0,0.4c0,2.2,1.8,3.9,3.9,3.8l0.4,0c2.2-0.1,4.6,1.4,5.5,3.5l0.2,0.4
	c0.8,2,3.1,2.9,5.1,2l0.4-0.2c2-1,4.8-0.5,6.4,1.1l0.3,0.3c1.5,1.6,4,1.5,5.4-0.1l0.3-0.3c1.5-1.6,4.3-2.3,6.3-1.4l0.4,0.2
	c2,0.9,4.2-0.2,5-2.2l0.1-0.4c0.7-2.1,3.1-3.8,5.3-3.8l0.4,0c2.2,0,3.9-1.8,3.7-4l0-0.4c-0.1-2.2,1.4-4.7,3.4-5.5l0.4-0.2
	c2-0.8,2.9-3.1,1.9-5.1L-338.9,409z M-386.3,389c-1.1,1.6-3.1,2-4.7,0.9c-1.6-1.1-2.1-3.1-1-4.8c0.7-1,1.4-1.4,2.3-1.6l0.3,1.1
	c-0.7,0.2-1.3,0.5-1.7,1.1c-0.7,1.1-0.3,2.4,0.8,3.2c1.1,0.7,2.5,0.5,3.2-0.5c0.5-0.7,0.5-1.3,0.3-2.1l1-0.2
	C-385.6,387-385.7,387.9-386.3,389z M-384.6,379.9l0.9-0.7l3.1,4l-0.9,0.7l-0.5-0.6c0,0.6-0.1,1.2-0.7,1.7c-0.9,0.7-1.9,0.5-2.6-0.4
	l-2-2.5l0.9-0.7l1.8,2.3c0.5,0.6,1.1,0.7,1.6,0.3c0.5-0.4,0.6-1.1,0.1-1.7L-384.6,379.9z M-375.4,375.5c1-0.3,1.9,0.1,2.2,1.3
	l0.9,3.1l-1.1,0.3l-0.8-2.8c-0.2-0.8-0.7-1.1-1.3-0.9c-0.6,0.2-0.9,0.7-0.7,1.5l0.8,2.7l-1.1,0.3l-0.8-2.8c-0.2-0.8-0.7-1.1-1.3-0.9
	c-0.6,0.2-0.9,0.8-0.7,1.5l0.8,2.7l-1.1,0.3l-1.5-4.8l1.1-0.3l0.2,0.7c0.2-0.5,0.5-1.1,1.2-1.3c0.7-0.2,1.3,0,1.7,0.4
	C-376.5,376.3-376.1,375.8-375.4,375.5z M-368,380.4c-0.8-0.1-1.3-0.5-1.6-1l-0.2,2.3l-1.1-0.1l0.5-6.6l1.1,0.1l-0.1,0.8
	c0.4-0.5,1-0.9,1.8-0.8c1.2,0.1,2.3,1.1,2.1,2.8C-365.6,379.7-366.8,380.5-368,380.4z M-368,376.1c-0.8-0.1-1.5,0.5-1.6,1.5
	c-0.1,1,0.6,1.7,1.3,1.7c0.8,0.1,1.5-0.5,1.6-1.5C-366.6,376.9-367.2,376.2-368,376.1z M-364.4,381l2.1-6.7l1.1,0.4l-2.1,6.7
	L-364.4,381z M-361.7,382.1l2.2-4.5l1,0.5l-2.2,4.5L-361.7,382.1z M-359.1,376.8l0.5-1l1.1,0.6l-0.5,1L-359.1,376.8z M-356.2,385.7
	l0.5-0.7c-0.6,0.2-1.3,0.2-1.9-0.4c-0.9-0.8-1.2-2.2-0.1-3.5c1.1-1.3,2.5-1.3,3.5-0.5c0.6,0.5,0.8,1.2,0.8,1.8l1.7-2.1l0.9,0.7
	l-4.4,5.4L-356.2,385.7z M-354.7,381.6c-0.6-0.5-1.5-0.5-2.1,0.3c-0.6,0.8-0.5,1.7,0.1,2.2c0.6,0.5,1.5,0.4,2.1-0.3
	C-354,383-354.1,382.1-354.7,381.6z M-353.2,389.7c-0.8-1.3-0.4-2.9,0.8-3.7c1.2-0.8,2.8-0.5,3.7,0.9c0.8,1.3,0.4,2.9-0.8,3.7
	C-350.8,391.3-352.4,391-353.2,389.7z M-349.7,387.4c-0.5-0.8-1.4-0.9-2.2-0.4c-0.8,0.5-1,1.4-0.6,2.2c0.5,0.8,1.4,0.9,2.2,0.4
	C-349.5,389.1-349.2,388.1-349.7,387.4z M-353.7,411.9c1.1-1.6,3.1-2,4.7-0.9c1.6,1.1,2.1,3.1,1,4.8c-0.7,1-1.4,1.4-2.3,1.6
	l-0.3-1.1c0.7-0.2,1.3-0.5,1.7-1.1c0.7-1.1,0.3-2.4-0.8-3.2c-1.1-0.7-2.5-0.5-3.2,0.5c-0.5,0.7-0.5,1.3-0.3,2.1l-1,0.2
	C-354.4,413.8-354.4,412.9-353.7,411.9z M-355.4,420.9l-0.9,0.7l-3.1-4l0.9-0.7l0.5,0.6c0-0.6,0.1-1.2,0.7-1.7
	c0.9-0.7,1.9-0.5,2.6,0.4l2,2.5l-0.9,0.7l-1.8-2.3c-0.5-0.6-1.1-0.7-1.6-0.3c-0.5,0.4-0.6,1.1-0.1,1.7L-355.4,420.9z M-364.6,425.3
	c-1,0.3-1.9-0.1-2.2-1.3l-0.9-3.1l1.1-0.3l0.8,2.8c0.2,0.8,0.7,1.1,1.3,0.9c0.6-0.2,0.9-0.7,0.7-1.5l-0.8-2.7l1.1-0.3l0.8,2.8
	c0.2,0.8,0.7,1.1,1.3,0.9c0.6-0.2,0.9-0.8,0.7-1.5l-0.8-2.7l1.1-0.3l1.5,4.8l-1.1,0.3l-0.2-0.7c-0.2,0.5-0.5,1.1-1.2,1.3
	c-0.7,0.2-1.3,0-1.7-0.4C-363.5,424.6-363.9,425.1-364.6,425.3z M-372,420.4c0.8,0.1,1.3,0.5,1.6,1l0.2-2.3l1.1,0.1l-0.5,6.6
	l-1.1-0.1l0.1-0.8c-0.4,0.5-1,0.9-1.8,0.8c-1.2-0.1-2.3-1.1-2.1-2.8C-374.4,421.2-373.2,420.3-372,420.4z M-372,424.7
	c0.8,0.1,1.5-0.5,1.6-1.5c0.1-1-0.6-1.7-1.3-1.7c-0.8-0.1-1.5,0.5-1.6,1.5C-373.4,424-372.8,424.6-372,424.7z M-375.6,419.8
	l-2.1,6.7l-1.1-0.4l2.1-6.7L-375.6,419.8z M-380.9,424l-0.5,1l-1.1-0.6l0.5-1L-380.9,424z M-378.4,418.8l-2.2,4.5l-1-0.5l2.2-4.5
	L-378.4,418.8z M-383.8,415.1l-0.5,0.7c0.6-0.2,1.3-0.2,1.9,0.4c0.9,0.8,1.2,2.2,0.1,3.5c-1.1,1.3-2.5,1.3-3.5,0.5
	c-0.6-0.5-0.8-1.2-0.8-1.8l-1.7,2.1l-0.9-0.7l4.4-5.4L-383.8,415.1z M-385.3,419.3c0.6,0.5,1.5,0.5,2.1-0.3c0.6-0.8,0.5-1.7-0.1-2.2
	c-0.6-0.5-1.5-0.4-2.2,0.3C-386,417.8-385.9,418.8-385.3,419.3z M-386.8,411.2c0.8,1.3,0.4,2.9-0.8,3.7c-1.2,0.8-2.8,0.5-3.7-0.9
	s-0.4-2.9,0.8-3.7C-389.2,409.5-387.6,409.9-386.8,411.2z M-390.4,413.5c0.5,0.8,1.4,0.9,2.2,0.4c0.8-0.5,1-1.4,0.6-2.2
	c-0.5-0.8-1.4-0.9-2.2-0.4C-390.6,411.8-390.8,412.7-390.4,413.5z M-346.6,397.9c0.9,0,1.6,0.7,1.6,1.6c0,0.9-0.7,1.6-1.6,1.6
	s-1.6-0.7-1.6-1.6S-347.5,397.9-346.6,397.9z M-390,397.9c0.9,0,1.6,0.7,1.6,1.6c0,0.9-0.7,1.6-1.6,1.6c-0.9,0-1.6-0.7-1.6-1.6
	S-390.9,397.9-390,397.9z M-369.1,414.8c-5.7,0-11.4-3.3-11.4-10v-9.9c0-6.6,5.7-10,11.5-10c3.6,0,7.8,1.5,10.2,6.7l-6,2.4
	c-2-3.6-8.4-2.8-8.4,0.8v9.9c0,3.5,6.5,4.5,8.1,0.5l6.4,3C-361.1,413-365.4,414.8-369.1,414.8z"/>
</svg>
