<?xml version="1.0" encoding="utf-8"?>
<!-- Generator: Adobe Illustrator 15.1.0, SVG Export Plug-In  -->
<!DOCTYPE svg PUBLIC "-//W3C//DTD SVG 1.1//EN" "http://www.w3.org/Graphics/SVG/1.1/DTD/svg11.dtd" [
	<!ENTITY ns_flows "http://ns.adobe.com/Flows/1.0/">
]>
<svg version="1.1"
	 xmlns="http://www.w3.org/2000/svg" xmlns:xlink="http://www.w3.org/1999/xlink" xmlns:a="http://ns.adobe.com/AdobeSVGViewerExtensions/3.0/"
	 x="0px" y="0px" width="300px" height="300px" viewBox="-9.366 -67.213 300 300" enable-background="new -9.366 -67.213 300 300"
	 xml:space="preserve">
<defs>
</defs>
<path fill="#5A5B5B" d="M176.089,159.258l-77.558-27.976H0v27.976v1.951v1.951h192.97c-1.072-1.122-1.916-2.44-2.479-3.902H176.089z
	"/>
<path fill="#5A5B5B" d="M261.952,159.732l-0.387-0.475h-49.154c-0.563,1.474-1.395,2.789-2.449,3.902h56.725
	C264.87,162.425,263.229,161.294,261.952,159.732z"/>
<path fill="#5A5B5B" d="M229.884,31.995c-8.818-0.287-15.756-7.696-15.466-16.515C214.702,6.8,221.725,0,230.405,0l0.527,0.009
	c8.818,0.293,15.756,7.699,15.469,16.515c-0.284,8.681-7.307,15.48-15.984,15.48L229.884,31.995z"/>
<path fill="#5A5B5B" d="M278.88,145.942l-20.771-25.494l-8.883-21.422l1.271-38.842c5.833,9.911,6.806,22.436,6.85,23.021
	c0.305,5.224,4.471,9.287,9.668,9.457l0.305,0.006c0,0,0.445-0.006,0.627-0.021c2.678-0.146,5.139-1.333,6.926-3.334
	c1.793-2.004,2.692-4.585,2.54-7.266c-0.097-1.761-2.774-43.204-34.62-52.359c-0.287-0.082-0.58-0.129-0.867-0.188
	c-2.962,2.525-6.765,4.075-10.948,4.204L182.88,72.214c-2.095,1.676-3.41,4.069-3.709,6.738c-0.293,2.669,0.469,5.294,2.147,7.389
	c1.919,2.394,4.778,3.768,7.846,3.768c2.271,0,4.503-0.782,6.278-2.206l21.779-17.435l-0.879,26.892
	c-21.674,24.686-24.785,55.471-24.908,56.777c-0.51,5.496,3.551,10.4,9.044,10.934c0.217,0.021,0.979,0.044,0.979,0.044
	c5.191,0,9.486-3.899,9.993-9.067c0.026-0.27,2.868-26.288,20.566-46.055l8.086,19.509c0.366,0.896,0.867,1.737,1.494,2.511
	l21.697,26.631c1.922,2.35,4.764,3.697,7.799,3.697l0,0c2.303,0,4.553-0.8,6.346-2.259
	C281.733,156.58,282.378,150.237,278.88,145.942z"/>
</svg>
