<!DOCTYPE svg PUBLIC "-//W3C//DTD SVG 1.1//EN" "http://www.w3.org/Graphics/SVG/1.1/DTD/svg11.dtd" [
	<!ENTITY ns_flows "http://ns.adobe.com/Flows/1.0/">
]><svg xmlns="http://www.w3.org/2000/svg" width="300" height="300" viewBox="-9.366 -67.213 300 300"><path fill="#5A5B5B" d="M176.09 159.258l-77.56-27.976H0v31.878h192.97c-1.072-1.122-1.916-2.44-2.48-3.902h-14.4zM261.952 159.732l-.387-.475H212.41c-.562 1.474-1.394 2.79-2.448 3.902h56.725c-1.817-.735-3.458-1.866-4.735-3.428zM229.884 31.995c-8.818-.287-15.756-7.696-15.466-16.515C214.702 6.8 221.725 0 230.405 0l.527.01c8.818.292 15.756 7.698 15.47 16.514-.285 8.68-7.308 15.48-15.985 15.48l-.533-.01z"/><path fill="#5A5B5B" d="M278.88 145.942l-20.77-25.494-8.884-21.422 1.27-38.842c5.834 9.91 6.807 22.436 6.85 23.02.306 5.225 4.472 9.288 9.67 9.458l.304.006s.445-.006.627-.02c2.678-.147 5.14-1.334 6.926-3.335 1.793-2.004 2.692-4.585 2.54-7.266-.097-1.76-2.774-43.204-34.62-52.36-.287-.08-.58-.128-.867-.187-2.962 2.525-6.765 4.075-10.948 4.204l-48.098 38.51c-2.095 1.676-3.41 4.07-3.71 6.738-.292 2.67.47 5.294 2.148 7.39 1.92 2.393 4.778 3.767 7.846 3.767 2.27 0 4.503-.783 6.278-2.207l21.78-17.435-.88 26.892c-21.674 24.686-24.785 55.47-24.908 56.777-.51 5.496 3.55 10.4 9.044 10.934.217.022.98.045.98.045 5.19 0 9.485-3.9 9.992-9.067.026-.27 2.868-26.288 20.566-46.055l8.086 19.51c.366.895.867 1.736 1.494 2.51l21.697 26.63c1.922 2.35 4.764 3.698 7.8 3.698 2.302 0 4.552-.8 6.345-2.258 4.295-3.502 4.94-9.845 1.442-14.14z"/></svg>