<?xml version="1.0" encoding="utf-8"?>
<!-- Generator: Adobe Illustrator 15.1.0, SVG Export Plug-In  -->
<!DOCTYPE svg PUBLIC "-//W3C//DTD SVG 1.1//EN" "http://www.w3.org/Graphics/SVG/1.1/DTD/svg11.dtd" [
	<!ENTITY ns_flows "http://ns.adobe.com/Flows/1.0/">
]>
<svg version="1.1"
	 xmlns="http://www.w3.org/2000/svg" xmlns:xlink="http://www.w3.org/1999/xlink" xmlns:a="http://ns.adobe.com/AdobeSVGViewerExtensions/3.0/"
	 x="0px" y="0px" width="300px" height="300px" viewBox="-20.634 -64.817 300 300" enable-background="new -20.634 -64.817 300 300"
	 xml:space="preserve">
<defs>
</defs>
<polygon fill="#FFFFFF" points="104.616,101.183 106.765,75.683 154.399,80.644 234.335,85.183 231.551,112.183 157.366,112.183 "/>
<line fill="none" stroke="#5A5B5B" stroke-width="9" stroke-linecap="round" stroke-linejoin="round" stroke-miterlimit="10" x1="262.5" y1="141.146" x2="4.5" y2="141.146"/>
<path fill="#5A5B5B" d="M235.957,79.77c-8.561-3.082-28.099-8.429-64.904-10.723c-36.809-2.297-56.856,0.583-65.736,2.578
	c-3.363,0.762-5.842,3.776-6.067,7.368l-2.194,35.165c-0.12,1.928,1.283,3.592,3.129,3.706l6.618,0.41l-0.976,18.029
	c-0.123,1.957,1.386,3.662,3.343,3.785l14.59-0.366c1.963,0.123,3.665-1.383,3.788-3.34l0.955-16.755l78.486,4.896l-0.929,14.906
	c-0.123,1.957,1.386,3.662,3.349,3.785l14.566,0.908c1.96,0.123,3.668-1.383,3.791-3.34l0.932-14.906l6.606,0.413
	c1.849,0.114,3.448-1.362,3.565-3.293l2.194-35.159C241.286,84.246,239.203,80.941,235.957,79.77z M135.299,94.389
	c-0.12,1.957-1.831,3.466-3.788,3.343l-18.431-1.148c-1.969-0.123-3.469-1.831-3.349-3.791l0.463-7.43
	c0.123-1.963,1.825-3.472,3.791-3.349l18.434,1.151c1.957,0.123,3.466,1.831,3.346,3.791L135.299,94.389z M228.952,100.228
	c-0.126,1.957-1.831,3.466-3.791,3.343l-18.431-1.148c-1.969-0.123-3.469-1.828-3.346-3.791l0.463-7.433
	c0.123-1.96,1.822-3.466,3.791-3.346l18.431,1.151c1.96,0.123,3.469,1.831,3.343,3.791L228.952,100.228z"/>
<path fill="#5A5B5B" d="M218.279,38.842c-0.586-1.925-2.713-3.612-4.731-3.738l-80.443-5.013c-2.013-0.126-4.336,1.28-5.153,3.117
	l-18.387,41.194c-0.82,1.837,0.155,3.451,2.168,3.577l117.07,7.301c2.016,0.126,3.185-1.356,2.596-3.281L218.279,38.842z"/>
<polygon fill="#FFFFFF" points="119.083,71.086 134.068,37.503 211.673,42.34 222.372,77.525 "/>
<path fill="#5A5B5B" d="M206.672,72.645c-0.278-0.018-0.557-0.082-0.826-0.202c-0.038-0.021-4.368-1.913-10.063-2.271
	c-5.695-0.354-10.225,0.987-10.271,1.005c-1.257,0.378-2.59-0.34-2.968-1.594c-0.384-1.26,0.322-2.587,1.576-2.968
	c0.22-0.064,5.364-1.614,11.962-1.204s11.508,2.587,11.713,2.681c1.204,0.533,1.74,1.942,1.201,3.146
	C208.579,72.17,207.636,72.706,206.672,72.645z"/>
<path fill="#FFFFFF" stroke="#5A5B5B" stroke-width="3" stroke-miterlimit="10" d="M76.113,66.864c0,3.448-2.798,6.249-6.249,6.249
	H10.755c-3.454,0-6.255-2.801-6.255-6.249V7.752C4.5,4.298,7.301,1.5,10.755,1.5h59.109c3.451,0,6.249,2.798,6.249,6.252V66.864z"/>
<path fill="#5A5B5B" stroke="#5A5B5B" stroke-width="2.0836" stroke-miterlimit="10" d="M4.5,19.772V7.752
	C4.5,4.298,7.301,1.5,10.755,1.5h59.109c3.451,0,6.249,2.798,6.249,6.252v12.021"/>
<g>
	<text transform="matrix(1 0 0 1 17.647 58.6162)" fill="#5A5B5B" font-family="'GothamBold'" font-size="43.6953">15</text>
</g>
<path fill="#5A5B5B" d="M228.281,132.92c0,0-0.149,2.83,2.622,3.788c1.374,0.475-0.987,0.475-6.199,0.475
	S228.281,132.92,228.281,132.92z"/>
<path fill="#5A5B5B" d="M105.967,133.137c0,0,0.012,2.836-2.801,3.659c-1.397,0.407,0.961,0.521,6.167,0.771
	C114.539,137.818,105.967,133.137,105.967,133.137z"/>
<path fill="#5A5B5B" d="M127.746,132.847c0,0-0.284,2.821,2.438,3.911c1.351,0.539-1.008,0.425-6.214,0.176
	S127.746,132.847,127.746,132.847z"/>
</svg>
