<!DOCTYPE svg PUBLIC "-//W3C//DTD SVG 1.1//EN" "http://www.w3.org/Graphics/SVG/1.1/DTD/svg11.dtd" [
	<!ENTITY ns_flows "http://ns.adobe.com/Flows/1.0/">
]><svg xmlns="http://www.w3.org/2000/svg" width="300" height="300" viewBox="-37.347 -36.347 300 300"><path opacity=".8" fill="#5A5B5B" d="M216.284 119.256l-13.468-13.465c.293 2.916.445 5.872.445 8.863 0 42.012-29.395 77.262-68.694 86.326l-15.305 15.304 11.825 11.827c55.465-7.994 98.22-55.818 98.22-113.457 0-2.728-.128-5.42-.318-8.1l-12.703 12.703z"/><path opacity=".4" fill="#5A5B5B" d="M26.49 123.516c-.293-2.915-.445-5.87-.445-8.862 0-43.107 30.946-79.102 71.79-86.988l14.642-14.643-12.1-12.1C43.875 7.978 0 56.273 0 114.653c0 2.728.13 5.42.316 8.1l12.706-12.702 13.468 13.466z"/><path fill="#5A5B5B" d="M108.42 26.288c2.062-.144 4.14-.243 6.236-.243 42.012 0 77.262 29.4 86.323 68.7l15.304 15.306 11.827-11.826C220.117 42.762 172.296 0 114.657 0c-1.963 0-3.908.05-5.848.15L121.68 13.02l-13.26 13.266z"/><path opacity=".6" fill="#5A5B5B" d="M123.52 202.816c-2.917.293-5.873.445-8.864.445-42.012 0-77.265-29.395-86.33-68.7l-15.304-15.305-11.827 11.828c7.998 55.462 55.816 98.224 113.46 98.224 2.73 0 5.42-.13 8.102-.316l-12.703-12.705 13.467-13.47z"/><path fill="#5A5B5B" d="M165.545 148.315l-32.08-14.168-.11-2.206h17.22l.47-1.244c.07-.188 1.716-4.688 1.985-15.11.182-7.16-.557-13.627-2.156-19.28 2.666-3.045 4.62-7.003 2.836-11.345-1.64-3.99-4.324-5.2-6.498-5.325.056-.79.082-1.307.088-1.412l-.06-.003c.388-1.512 2.333-10.204-2.144-16.96-2.514-3.785-6.595-6.135-12-7.143-.38-2.49-2.593-6.516-11.89-9.902-10.156-3.697-25.253-2.367-33.377 6.088l-.033-.035c-.108.105-.196.226-.3.33-.04.045-.09.074-.128.115l.01.012c-12.597 12.56-18.685 31.482-18.037 56.31.43 16.385 2.982 23.37 3.09 23.66l.47 1.247h24.902l-.11 2.206-32.08 14.168-.99 31.236s43.622 39.366 101.908 0l-.988-31.237zM86.01 96.363c-2.985-2.42-6.44-6.202-4.904-9.938.98-2.388 2.268-2.924 3.16-2.97.317 3.32.86 7.904 1.744 12.908zm1.84-16.198c6.85.26 27.688.117 40.102-9.98 2.156-.1 11.12.027 15.478 8.286-.158 2.54-1.157 16.46-4.608 28.457-3.255 11.312-20.385 15.95-23.24 16.646-2.86-.697-19.987-5.335-23.242-16.646-2.967-10.294-4.124-22.03-4.49-26.762zm14.28 42.375c6.362 3.4 12.567 4.793 13.048 4.896l.4.085.402-.084c.48-.103 6.686-1.494 13.05-4.896l.644 12.914-14.095 15.37-14.1-15.37.65-12.914zm45.66 5.555h-14.606v.49l-.41-8.295c4.33-2.953 8.21-6.958 9.744-12.302.574-1.992 1.072-4.02 1.523-6.04.772-.47 2.13-1.357 3.63-2.573 1.13 4.8 1.665 10.184 1.513 16.11-.173 6.683-.935 10.735-1.392 12.61zm2.36-41.67c1.55 3.77-2.014 7.6-5.02 10.023.896-5.042 1.44-9.662 1.76-13 .848.02 2.237.476 3.26 2.978zm-8.27-23.053c1.962 2.953 2.343 6.536 2.243 9.34-4.573-5.098-10.723-6.2-14.256-6.37l.688-2.21 1.963-6.294c4.31.817 7.454 2.672 9.36 5.534zM75.66 128.095c-.7-2.596-2.162-9.328-2.473-21.164-.622-23.86 5.144-41.92 17.103-53.697 6.858-7.5 20.678-8.648 29.602-5.4 8.385 3.057 9.633 6.385 9.41 7.372l-3.732 11.99c-13.477 11-39.372 9.04-39.636 9.013l-2.188-.18.11 2.195c.003.105.032.624.088 1.415-2.156.155-4.787 1.392-6.404 5.323-3.375 8.228 6.627 15.115 9.56 16.92.45 2.045.958 4.1 1.538 6.108 1.535 5.344 5.414 9.35 9.744 12.302l-.39 7.805H75.662z"/><path fill="#FFF" d="M86.01 96.363c-2.985-2.42-6.44-6.202-4.904-9.938.98-2.388 2.268-2.924 3.16-2.97.317 3.32.86 7.904 1.744 12.908zM87.85 80.165c6.85.26 27.688.117 40.102-9.98 2.156-.1 11.12.027 15.478 8.286-.158 2.54-1.157 16.46-4.608 28.457-3.255 11.312-20.385 15.95-23.24 16.646-2.86-.697-19.987-5.335-23.242-16.646-2.967-10.294-4.124-22.03-4.49-26.762z"/><path fill="#FFF" d="M102.13 122.54c6.362 3.4 12.567 4.793 13.048 4.896l.4.085.402-.084c.48-.103 6.686-1.494 13.05-4.896l.644 12.914-14.095 15.37-14.1-15.37.65-12.914zM147.79 128.095h-14.606v.49l-.41-8.295c4.33-2.953 8.21-6.958 9.744-12.302.574-1.992 1.072-4.02 1.523-6.04.772-.47 2.13-1.357 3.63-2.573 1.13 4.8 1.665 10.184 1.513 16.11-.173 6.683-.935 10.735-1.392 12.61zM150.15 86.426c1.55 3.768-2.014 7.6-5.02 10.022.896-5.042 1.44-9.662 1.76-13 .848.02 2.237.476 3.26 2.978zM141.88 63.372c1.962 2.953 2.343 6.536 2.243 9.34-4.573-5.098-10.723-6.2-14.256-6.37l.688-2.21 1.963-6.294c4.31.817 7.454 2.672 9.36 5.534zM75.662 128.095c-.7-2.596-2.162-9.328-2.473-21.164-.622-23.86 5.144-41.92 17.103-53.697 6.858-7.5 20.678-8.648 29.602-5.4 8.385 3.057 9.633 6.385 9.41 7.372l-3.732 11.99c-13.477 11-39.372 9.04-39.636 9.013l-2.188-.18.11 2.195c.003.105.032.624.088 1.415-2.156.155-4.787 1.392-6.404 5.323-3.375 8.228 6.627 15.115 9.56 16.92.45 2.045.958 4.1 1.538 6.108 1.535 5.344 5.414 9.35 9.744 12.302l-.39 7.805H75.662z"/></svg>