<!DOCTYPE svg PUBLIC "-//W3C//DTD SVG 1.1//EN" "http://www.w3.org/Graphics/SVG/1.1/DTD/svg11.dtd" [
	<!ENTITY ns_flows "http://ns.adobe.com/Flows/1.0/">
]><svg xmlns="http://www.w3.org/2000/svg" width="300" height="300" viewBox="-17.19 -72.188 300 300"><circle fill="none" stroke="#5A5B5B" stroke-width="9" stroke-linecap="round" stroke-linejoin="round" stroke-miterlimit="10" cx="61.26" cy="89.956" r="37.752"/><circle fill="none" stroke="#5A5B5B" stroke-width="9" stroke-linecap="round" stroke-linejoin="round" stroke-miterlimit="10" cx="208.734" cy="89.956" r="37.752"/><path fill="none" stroke="#5A5B5B" stroke-width="6" stroke-linecap="round" stroke-linejoin="round" stroke-miterlimit="10" d="M61.26 89.956s23.903-28.025 23.903-56.46V3h7.33"/><path fill="none" stroke="#5A5B5B" stroke-width="6" stroke-linecap="round" stroke-linejoin="round" stroke-miterlimit="10" d="M85.163 24.018s47.394 6.185 75.416 31.734L175 17.012"/><path fill="none" stroke="#5A5B5B" stroke-width="6" stroke-linecap="round" stroke-linejoin="round" stroke-miterlimit="10" d="M167.79 36.38s25.347 20.195 42.652 50.277l-60.577 5.918s-31.32-53.722-64.702-59.08M149.865 92.575l10.714-36.823"/><path fill="#5A5B5B" stroke="#5A5B5B" stroke-width="6" stroke-linecap="round" stroke-linejoin="round" stroke-miterlimit="10" d="M249.694 63.293c-8.722-13.37-23.804-22.216-40.96-22.216-26.994 0-48.88 21.885-48.88 48.88 0 .547.024 1.092.042 1.637l50.546-4.937 39.252-23.364zM188.64 17.013h-28.06"/><path fill="none" stroke="#5A5B5B" stroke-width="9" stroke-linecap="round" stroke-linejoin="round" stroke-miterlimit="10" d="M262.5 140.22H4.5"/></svg>