<?xml version="1.0" encoding="utf-8"?>
<!-- Generator: Adobe Illustrator 18.1.1, SVG Export Plug-In . SVG Version: 6.00 Build 0)  -->
<svg version="1.1" id="Layer_1" xmlns="http://www.w3.org/2000/svg" xmlns:xlink="http://www.w3.org/1999/xlink" x="0px" y="0px"
	 viewBox="0 0 80.7 80.7" style="enable-background:new 0 0 80.7 80.7;" xml:space="preserve">
<style type="text/css">
	.st0{fill:#5A5A5A;}
	.st1{fill:none;}
</style>
<g>
	<path class="st0" d="M66.3,45.3c0-2-1.7-3.7-3.7-3.7c-0.6,0-1.1,0.5-1.1,1.1c0,0.6,0.5,1.1,1.1,1.1v0c0.9,0,1.6,0.7,1.6,1.6
		c0,1.5,0,19,0,19c0,0.6,0.5,1.1,1.1,1.1c0.6,0,1.1-0.5,1.1-1.1C66.3,64.2,66.3,46.7,66.3,45.3z"/>
	<circle class="st0" cx="49.4" cy="19.2" r="3.8"/>
	<circle class="st0" cx="25.5" cy="19.4" r="3.8"/>
	<path class="st0" d="M36.3,39.5l-4.4-3.6l-4.6-10.4c0,0,0,0,0,0l0,0c0,0,0,0,0,0c-0.4-0.7-1.1-1.3-2-1.3h-3c-0.8,0-1.5,0.5-1.9,1.1
		c-0.1,0.1-0.1,0.1-0.2,0.2c-6.8,9.7-4.9,3.9-5.9,15.3c-0.2,2.1,3,2.5,3.2,0.2l0.5-6.5l1.9-2.6l0.1,8.7l-1.4,13l-2.2,9.1
		c-0.7,2.8,3.5,3.8,4.2,1c0,0,2-8,2.1-8.4c0.2-0.8,0.2-1,0.3-1.8l0.7-6.4l0,0c0-0.2,0.3-0.3,0.3,0c0,0,0,0,0,0l0.8,6.8l0,9.2
		c0,2.9,4.3,2.9,4.3,0c0,0,0-8.2,0-8.7c0-0.9-0.1-1.8-0.1-1.8l-1.5-13.2c0-0.1,0-0.1,0-0.2c0-0.1,0-0.1,0-0.2v-4.7
		c1.2,2.3,1.6,3.2,2.2,4c0.7,0.9,1.8,1.5,4.7,3.8C36.1,43.5,38.3,41,36.3,39.5z"/>
	<path class="st0" d="M59.7,39.6l-3.9-3.3l-4.7-10.8c0,0,0,0,0,0l0,0c0,0,0,0,0,0c-0.3-0.7-1.1-1.3-2-1.3h-3c-0.8,0-1.5,0.5-1.9,1.1
		c-0.1,0.1-0.1,0.1-0.2,0.2c-6.7,9.6-4.9,4.7-5.5,15.6c0,0.2,0,0.2,0,0.4c0,1.9,2.8,2,2.8,0.1l0.5-7l1.9-2.6l0.1,4.8L40,54.9
		c0,0,1,0,2.4,0l-1.5,7.8c-0.7,2.8,2.9,3.7,3.5,0.9l1.8-8.7h2.8l0.2,8.2c0,2.9,3.7,2.9,3.7,0l0-8.2h1c0.4,0,0.5-0.4,0.5-0.5
		c-0.4-5.9-1.5-11-3.1-15.6v-4.4c1.2,2.3,1.5,2.8,2.1,3.6c0.7,0.9,1.8,1.5,4.7,3.8C59.7,43.1,61.7,41.1,59.7,39.6z"/>
</g>
<rect x="0" y="0.1" class="st1" width="80.7" height="80.7"/>
</svg>
