<svg id="Layer_1" xmlns="http://www.w3.org/2000/svg" viewBox="0 0 80.7 80.7"><style>.st0{fill:#5A5A5A;} .st1{fill:none;}</style><circle class="st0" cx="52.4" cy="21.9" r="4.6"/><path class="st0" d="M57.5 38.4c-.7-.7-1.4-.9-2-.9l-9.3.5 5.2-5.9c.5-.7.7-1.8.5-3-.2-.7-.5-1.4-1.1-1.8L38.5 20c-.9-.7-2.3-.5-3.2.2l-6.4 5.9c-1.1 1.1-1.4 2.7-.2 3.9.9 1.1 2.7 1.1 3.9.2l4.8-4.3 3.5 2.1-6.7 7.7s0 .1.1.1c-2.7.4-5.2 1.6-7.1 3.4l3.4 3.4c1.6-1.3 3.6-2.2 5.8-2.2 5 0 9 4.1 9 9 0 2.2-.8 4.3-2.2 5.8l3.4 3.4c2.2-2.4 3.6-5.7 3.6-9.2 0-2.3-.6-4.4-1.5-6.3.1.1.2.1.2.1l3.7-.1-.9 10.8c-.2 1.6.9 2.7 2.5 3h.2c1.4 0 2.5-1.1 2.7-2.5l1.2-14.1c-.1-.5-.3-1.4-.8-1.9zM36.3 58.6c-5 0-9-4.1-9-9 0-1.9.6-3.7 1.7-5.2L25.5 41c-1.9 2.4-3 5.3-3 8.6 0 7.6 6.2 13.8 13.8 13.8 3.3 0 6.2-1.1 8.6-3L41.5 57c-1.5 1-3.3 1.6-5.2 1.6z"/><path class="st1" d="M0 .6h80.7v80.7H0z"/></svg>