<?xml version="1.0" encoding="utf-8"?>
<!-- Generator: Adobe Illustrator 18.1.1, SVG Export Plug-In . SVG Version: 6.00 Build 0)  -->
<svg version="1.1" id="Layer_1" xmlns="http://www.w3.org/2000/svg" xmlns:xlink="http://www.w3.org/1999/xlink" x="0px" y="0px"
	 viewBox="0 0 80.7 80.7" style="enable-background:new 0 0 80.7 80.7;" xml:space="preserve">
<style type="text/css">
	.st0{fill:#5A5A5A;}
	.st1{fill:none;}
</style>
<g>
	<g>
		<path class="st0" d="M50.9,28.6c0-7.2-5.6-9.3-5.6-9.3v6.2h-2.5V18c0-0.7-0.5-1.2-1.2-1.2h-2.5c-0.7,0-1.2,0.5-1.2,1.2v7.4h-2.5
			v-6.2c0,0-5.6,2.1-5.6,9.3c0,0-1.9,0.3-1.9,3.1h24.8C52.6,28.9,50.9,28.6,50.9,28.6z"/>
		<path class="st0" d="M40.3,44.1c5.5,0,9.9-4.4,9.9-9.9H30.4C30.4,39.6,34.9,44.1,40.3,44.1z"/>
		<path class="st0" d="M40.3,49c-11,0-19.8,4.4-19.8,9.9v5h39.7v-5C60.2,53.5,51.3,49,40.3,49z"/>
	</g>
</g>
<rect x="0" y="0.1" class="st1" width="80.7" height="80.7"/>
</svg>
