<?xml version="1.0" encoding="utf-8"?>
<!-- Generator: Adobe Illustrator 18.0.0, SVG Export Plug-In . SVG Version: 6.00 Build 0)  -->
<!DOCTYPE svg PUBLIC "-//W3C//DTD SVG 1.1//EN" "http://www.w3.org/Graphics/SVG/1.1/DTD/svg11.dtd">
<svg version="1.1" id="Layer_1" xmlns="http://www.w3.org/2000/svg" xmlns:xlink="http://www.w3.org/1999/xlink" x="0px" y="0px"
	 viewBox="0 0 63 64" enable-background="new 0 0 63 64" xml:space="preserve">
<path class="st0" fill="#5B5B5B" d="M20.5,8.4c2.5,0,4.6,2,4.6,4.6s-2,4.6-4.6,4.6s-4.6-2-4.6-4.6S17.9,8.4,20.5,8.4 M17,19.8h6.9
	c2.5,0,4.6,2,4.6,4.6V37H25v17.1h-9.1V37h-3.4V24.4C12.5,21.9,14.5,19.8,17,19.8 M41,8.4c2.5,0,4.6,2,4.6,4.6s-2,4.6-4.6,4.6
	c-2.5,0-4.6-2-4.6-4.6S38.5,8.4,41,8.4 M37.6,54.1V40.4h-6.9l5.9-17.3c0.6-1.9,2.3-3.2,4.4-3.2s3.8,1.3,4.4,3.2l5.9,17.3h-6.9v13.7
	H37.6z"/>
</svg>
