<?xml version="1.0" encoding="utf-8"?>
<!-- Generator: Adobe Illustrator 15.1.0, SVG Export Plug-In  -->
<!DOCTYPE svg PUBLIC "-//W3C//DTD SVG 1.1//EN" "http://www.w3.org/Graphics/SVG/1.1/DTD/svg11.dtd" [
	<!ENTITY ns_flows "http://ns.adobe.com/Flows/1.0/">
]>
<svg version="1.1"
	 xmlns="http://www.w3.org/2000/svg" xmlns:xlink="http://www.w3.org/1999/xlink" xmlns:a="http://ns.adobe.com/AdobeSVGViewerExtensions/3.0/"
	 x="0px" y="0px" width="300px" height="300px" viewBox="-17.373 -4.361 300 300" enable-background="new -17.373 -4.361 300 300"
	 xml:space="preserve">
<defs>
</defs>
<path fill="#FFFFFF" d="M74.345,281.639l58.282,7h27l69.5-7l3.5-19.5l-4-212.5L81.683,56.212c0,0-3.46,10.292-14.927,19.359
	l-8.121,28.617l3.992,166.951L74.345,281.639z"/>
<rect x="89.247" y="80.49" fill="#FFFFFF" width="114.155" height="172.243"/>
<rect x="89.247" y="80.49" fill="#FFFFFF" width="114.155" height="172.243"/>
<path fill="#5A5B5B" d="M206.502,65.118H85.043V80.49v176.45h122.566V65.118H206.502z M89.247,252.733V80.49h114.155v172.243H89.247
	z"/>
<circle fill="#FFFFFF" cx="199.689" cy="73.257" r="3.248"/>
<circle fill="#FFFFFF" cx="183.278" cy="73.257" r="3.249"/>
<circle fill="#FFFFFF" cx="166.869" cy="73.257" r="3.246"/>
<rect x="74.121" y="91.166" fill="#5A5B5B" width="118.022" height="4.207"/>
<rect x="93.656" y="104.188" fill="#5A5B5B" width="84.65" height="4.207"/>
<rect x="126.214" y="117.214" fill="#5A5B5B" width="65.93" height="4.207"/>
<rect x="74.121" y="143.256" fill="#5A5B5B" width="118.022" height="4.208"/>
<rect x="100.441" y="156.278" fill="#5A5B5B" width="91.702" height="4.207"/>
<rect x="113.461" y="169.303" fill="#5A5B5B" width="78.683" height="4.207"/>
<rect x="74.121" y="195.352" fill="#5A5B5B" width="118.022" height="4.207"/>
<rect x="100.441" y="208.374" fill="#5A5B5B" width="77.326" height="4.207"/>
<rect x="113.461" y="221.397" fill="#5A5B5B" width="78.683" height="4.207"/>
<rect x="126.896" y="234.422" fill="#5A5B5B" width="38.821" height="4.207"/>
<path fill="#5A5B5B" d="M218.619,30.776H84.141c0.533,2.774,0.838,5.628,0.838,8.555c0,5.968-1.189,11.657-3.296,16.881h144.079
	V265.84H66.756V75.571c-3.475,2.604-7.324,4.711-11.467,6.24v190.861c0,10.273,8.326,18.605,18.609,18.605h144.721
	c10.274,0,18.609-8.332,18.609-18.605V49.383C237.229,39.108,228.894,30.776,218.619,30.776z M146.259,285.862
	c-3.879,0-7.025-3.146-7.025-7.023c0-3.881,3.146-7.027,7.025-7.027s7.025,3.146,7.025,7.027
	C153.284,282.715,150.138,285.862,146.259,285.862z"/>
<path fill="#5A5B5B" d="M78.65,39.331c0,21.715-17.607,39.319-39.322,39.319C17.607,78.65,0,61.046,0,39.331
	C0,17.61,17.607,0,39.328,0C61.043,0,78.65,17.61,78.65,39.331"/>
<polygon fill="#FFFFFF" points="58.635,33.624 45.032,33.624 45.032,20.016 33.621,20.016 33.621,33.624 20.016,33.624 
	20.016,45.032 33.621,45.032 33.621,58.635 45.032,58.635 45.032,45.032 58.635,45.032 "/>
</svg>
