<?xml version="1.0" encoding="utf-8"?>
<!-- Generator: Adobe Illustrator 15.1.0, SVG Export Plug-In  -->
<!DOCTYPE svg PUBLIC "-//W3C//DTD SVG 1.1//EN" "http://www.w3.org/Graphics/SVG/1.1/DTD/svg11.dtd" [
	<!ENTITY ns_flows "http://ns.adobe.com/Flows/1.0/">
]>
<svg version="1.1"
	 xmlns="http://www.w3.org/2000/svg" xmlns:xlink="http://www.w3.org/1999/xlink" xmlns:a="http://ns.adobe.com/AdobeSVGViewerExtensions/3.0/"
	 x="0px" y="0px" width="300px" height="300px" viewBox="-91.932 -11.543 300 300" enable-background="new -91.932 -11.543 300 300"
	 xml:space="preserve">
<defs>
</defs>
<path fill="none" stroke="#5A5B5B" stroke-width="3" stroke-miterlimit="10" d="M71.024,51.604c-0.108,0-0.217-0.006-0.328-0.006
	c-33.838,0-61.389,26.854-62.552,60.404"/>
<path fill="#5A5B5B" d="M32.78,191.54v29.938c0,16.784,16.025,30.39,35.798,30.39c19.778,0,35.801-13.605,35.801-30.39V191.54H32.78
	z"/>
<path fill="#5A5B5B" d="M59.766,252.829L59.766,252.829c0,4.863,3.946,8.81,8.813,8.81c4.872,0,8.815-3.946,8.815-8.81H59.766z"/>
<g>
	<rect x="31.62" y="190.38" fill="#5A5B5B" width="73.919" height="18.472"/>
	<path fill="#FFFFFF" d="M104.379,191.54v16.151H32.78V191.54H104.379 M106.698,189.221h-2.319H32.78h-2.319v2.319v16.151v2.319
		h2.319h71.599h2.319v-2.319V191.54V189.221L106.698,189.221z"/>
</g>
<line fill="none" stroke="#5A5B5B" stroke-width="2.5578" stroke-miterlimit="10" x1="32.78" y1="191.54" x2="104.379" y2="191.54"/>
<polygon fill="none" stroke="#5A5B5B" stroke-width="3" stroke-miterlimit="10" points="84.144,191.54 53.672,191.54 
	62.666,138.062 74.994,138.062 "/>
<path fill="none" stroke="#5A5B5B" stroke-width="3" stroke-miterlimit="10" d="M135.932,112.104
	c0-37.119-30.097-67.216-67.216-67.216S1.5,74.985,1.5,112.104c0,11.329,2.815,21.996,7.764,31.359c0,0.006,0.009,0.015,0.009,0.015
	c1.031,1.948,2.153,3.844,3.369,5.678c17.312,30.261,24.829,52.447,24.829,52.447l63.313-1.989c0,0,6.674-20.153,23.977-50.414
	C131.815,138.571,135.932,125.818,135.932,112.104"/>
<path fill="#5A5B5B" d="M76.998,86.634c0,4.471-3.621,8.092-8.086,8.092c-4.474,0-8.098-3.621-8.098-8.092
	c0-4.468,3.624-8.086,8.098-8.086C73.377,78.548,76.998,82.166,76.998,86.634"/>
<path fill="#5A5B5B" d="M76.998,111.996c0,4.471-3.621,8.098-8.086,8.098c-4.474,0-8.098-3.627-8.098-8.098
	c0-4.462,3.624-8.089,8.098-8.089C73.377,103.907,76.998,107.534,76.998,111.996"/>
<path fill="#5A5B5B" d="M76.998,137.361c0,4.474-3.621,8.095-8.086,8.095c-4.474,0-8.098-3.621-8.098-8.095
	c0-4.462,3.624-8.086,8.098-8.086C73.377,129.275,76.998,132.899,76.998,137.361"/>
<path fill="#5A5B5B" d="M99.193,99.791c0,4.474-3.621,8.092-8.089,8.092c-4.471,0-8.098-3.618-8.098-8.092
	c0-4.465,3.627-8.086,8.098-8.086C95.572,91.705,99.193,95.326,99.193,99.791"/>
<path fill="#5A5B5B" d="M99.193,125.159c0,4.468-3.621,8.092-8.089,8.092c-4.471,0-8.098-3.624-8.098-8.092s3.627-8.089,8.098-8.089
	C95.572,117.07,99.193,120.691,99.193,125.159"/>
<path fill="#5A5B5B" d="M38.622,99.791c0,4.474,3.624,8.092,8.095,8.092c4.468,0,8.092-3.618,8.092-8.092
	c0-4.465-3.624-8.086-8.092-8.086C42.246,91.705,38.622,95.326,38.622,99.791"/>
<path fill="#5A5B5B" d="M38.622,125.159c0,4.468,3.624,8.092,8.095,8.092c4.468,0,8.092-3.624,8.092-8.092s-3.624-8.089-8.092-8.089
	C42.246,117.07,38.622,120.691,38.622,125.159"/>
<line fill="none" stroke="#5A5B5B" stroke-width="3" stroke-miterlimit="10" x1="71.024" y1="14.798" x2="71.024" y2="0"/>
<line fill="none" stroke="#5A5B5B" stroke-width="3" stroke-miterlimit="10" x1="96.952" y1="19.16" x2="101.435" y2="5.063"/>
<line fill="none" stroke="#5A5B5B" stroke-width="3" stroke-miterlimit="10" x1="121.822" y1="30.044" x2="130.699" y2="18.208"/>
<line fill="none" stroke="#5A5B5B" stroke-width="3" stroke-miterlimit="10" x1="45.097" y1="19.16" x2="40.617" y2="5.063"/>
<line fill="none" stroke="#5A5B5B" stroke-width="3" stroke-miterlimit="10" x1="20.227" y1="30.044" x2="11.353" y2="18.208"/>
</svg>
