<?xml version="1.0" encoding="utf-8"?>
<!-- Generator: Adobe Illustrator 15.1.0, SVG Export Plug-In  -->
<!DOCTYPE svg PUBLIC "-//W3C//DTD SVG 1.1//EN" "http://www.w3.org/Graphics/SVG/1.1/DTD/svg11.dtd" [
	<!ENTITY ns_flows "http://ns.adobe.com/Flows/1.0/">
]>
<svg version="1.1"
	 xmlns="http://www.w3.org/2000/svg" xmlns:xlink="http://www.w3.org/1999/xlink" xmlns:a="http://ns.adobe.com/AdobeSVGViewerExtensions/3.0/"
	 x="0px" y="0px" width="300px" height="300px" viewBox="-23.071 -54.833 300 300" enable-background="new -23.071 -54.833 300 300"
	 xml:space="preserve">
<defs>
</defs>
<path fill="#5A5B5B" d="M252.946,153.865l-29.47-12.023l-0.416,0.205l-0.592-10.705c3.996-2.699,7.588-6.375,8.997-11.277
	c0.539-1.869,1.005-3.775,1.427-5.672c2.32-1.391,12.023-7.764,8.895-15.371c-1.526-3.721-4.066-4.741-6.026-4.764
	c0.021-0.27,0.038-0.521,0.05-0.724c0.179-0.009,0.346,0.003,0.524-0.012c0,0,5.54-19.556-13.989-21.979l-1.585,5.083l1.556-4.986
	c0,0,1.796-5.168-10.471-9.639c-15.609-5.689-42.557,9.369-34.362,31.723c0,0,0.217,0.015,0.527,0.035
	c0.009,0.155,0.021,0.316,0.035,0.504c-1.948,0.056-4.433,1.096-5.938,4.76c-3.076,7.492,6.296,13.793,8.795,15.311
	c0.422,1.914,0.896,3.842,1.438,5.73c1.409,4.902,5.001,8.576,8.997,11.277l-0.592,10.74l-0.062-0.029l-29.821,11.813l-0.914,28.783
	h46.957h46.951L252.946,153.865z M239.016,100.164c1.614,3.932-2.347,7.807-5.273,10.02c0.92-5.039,1.465-9.686,1.77-12.93
	C236.329,97.193,237.908,97.47,239.016,100.164z M174.885,100.164c1.055-2.572,2.537-2.947,3.41-2.912
	c0.305,3.219,0.841,7.824,1.752,12.826C177.141,107.833,173.309,103.992,174.885,100.164z M185.224,119.232
	c-2.892-10.039-3.917-21.541-4.195-25.365c7.755,0.144,26.531-0.548,37.427-9.844v-0.003c0.006,0.012,5.063,8.288,14.353,9.413
	c-0.226,3.292-1.21,15.337-4.225,25.798c-3.067,10.658-19.216,14.953-21.68,15.549C204.439,134.189,188.297,129.908,185.224,119.232
	z M193.67,143.517l0.574-10.422c5.959,3.27,11.897,4.598,12.346,4.693l0.316,0.068l0.311-0.068
	c0.451-0.096,6.387-1.424,12.346-4.693l0.574,10.393l-13.23,6.523L193.67,143.517z"/>
<path fill="#5A5B5B" d="M70.008,141.947l-0.618-12.398c3.876-2.623,7.356-6.191,8.728-10.951c0.75-2.602,1.365-5.273,1.881-7.881
	c2.385-1.346,10.166-6.285,7.711-12.262c-1.242-3.023-3.621-3.875-5.496-3.911c0.117-1.462,0.164-2.379,0.173-2.52l-1.521-0.077
	c0.104-0.592,0.782-4.723,0.293-9.245c7.834-2.687,12.987,10.418,9.152,20.833c-3.885,10.539,5.613,11.9,5.613,11.9
	c0.604-5.035,16.611-16.869,5.818-34.64c-7.963-13.11-17.625-7.972-22.148-4.371c-1.793-4.225-5.314-7.89-12.015-8.722l-0.003,0.009
	c-1.198-1.676-3.724-3.729-8.994-5.648c-10.781-3.932-27.249,2.563-32.452,14.563c-4.409-3.601-14.288-9.19-22.4,4.169
	c-10.793,17.771,5.212,29.605,5.815,34.64c0,0,9.501-1.361,5.616-11.9c-3.876-10.526,1.424-23.827,9.398-20.765
	c-0.252,2.944,0.146,6.105,1.368,9.439c0,0,0.105,0.009,0.179,0.012c0.021,0.352,0.067,1.157,0.164,2.341
	c-1.939,0.094-4.304,0.981-5.499,3.897c-2.455,5.973,5.329,10.912,7.711,12.258c0.516,2.607,1.131,5.279,1.881,7.881
	c1.371,4.76,4.852,8.328,8.728,10.951l-0.618,12.398l-28.91,12.77l-0.885,27.932H54.24h45.563l-0.882-27.932L70.008,141.947z
	 M23.543,99.597c0.709-1.719,2.048-2.057,3-2.059c0.252,2.504,0.639,5.684,1.207,9.141C25.368,104.97,22.462,102.234,23.543,99.597z
	 M84.938,99.595c1.081,2.639-1.825,5.375-4.207,7.08c0.568-3.453,0.955-6.629,1.207-9.135
	C82.787,97.498,84.173,97.738,84.938,99.595z M33.246,117.765c-3.064-10.641-3.97-22.966-4.125-25.424
	c7.213,0.149,25.09-0.448,35.555-9.211l-0.006,0.041c0,0,11.14-1.079,16.136,8.773l-1.417-0.072
	c-0.006,0.141-0.75,14.077-4.154,25.893c-2.965,10.307-18.577,14.469-20.994,15.055C51.82,132.238,36.217,128.089,33.246,117.765z
	 M54.24,156.958L41.426,142.99l0.583-11.682c5.766,3.15,11.481,4.428,11.918,4.521l0.313,0.066l0.313-0.066
	c0.437-0.094,6.152-1.371,11.918-4.521l0.583,11.682L54.24,156.958z"/>
<path fill="#5A5B5B" d="M139.453,10.729V2.353V0h-2.353h-7.063h-2.355v2.353v8.376c-14.016,2.742-24.598,15.082-24.598,29.9
	c0,16.84,13.649,30.483,30.486,30.483c16.834,0,30.48-13.644,30.48-30.483C164.051,25.811,153.472,13.471,139.453,10.729z"/>
<polygon fill="#FFFFFF" points="148.137,56.528 130.037,42.352 130.037,2.353 137.101,2.353 137.101,38.912 152.49,50.974 "/>
<path fill="#FFFFFF" d="M23.543,99.597c0.709-1.719,2.048-2.057,3-2.059c0.252,2.504,0.639,5.684,1.207,9.141
	C25.368,104.97,22.462,102.234,23.543,99.597z"/>
<path fill="#FFFFFF" d="M84.938,99.595c1.081,2.639-1.825,5.375-4.207,7.08c0.568-3.453,0.955-6.629,1.207-9.135
	C82.787,97.498,84.173,97.738,84.938,99.595z"/>
<path fill="#FFFFFF" d="M33.246,117.765c-3.064-10.641-3.97-22.966-4.125-25.424c7.213,0.149,25.09-0.448,35.555-9.211l-0.006,0.041
	c0,0,11.14-1.079,16.136,8.773l-1.417-0.072c-0.006,0.141-0.75,14.077-4.154,25.893c-2.965,10.307-18.577,14.469-20.994,15.055
	C51.82,132.238,36.217,128.089,33.246,117.765z"/>
<path fill="#FFFFFF" d="M54.24,156.958L41.426,142.99l0.583-11.682c5.766,3.15,11.481,4.428,11.918,4.521l0.313,0.066l0.313-0.066
	c0.437-0.094,6.152-1.371,11.918-4.521l0.583,11.682L54.24,156.958z"/>
<path fill="#FFFFFF" d="M239.016,100.164c1.614,3.932-2.347,7.807-5.273,10.02c0.92-5.039,1.465-9.686,1.77-12.93
	C236.329,97.193,237.908,97.47,239.016,100.164z"/>
<path fill="#FFFFFF" d="M174.885,100.164c1.055-2.572,2.537-2.947,3.41-2.912c0.305,3.219,0.841,7.824,1.752,12.826
	C177.141,107.833,173.309,103.992,174.885,100.164z"/>
<path fill="#FFFFFF" d="M185.224,119.232c-2.892-10.039-3.917-21.541-4.195-25.365c7.755,0.144,26.531-0.548,37.427-9.844v-0.003
	c0.006,0.012,5.063,8.288,14.353,9.413c-0.226,3.292-1.21,15.337-4.225,25.798c-3.067,10.658-19.216,14.953-21.68,15.549
	C204.439,134.189,188.297,129.908,185.224,119.232z"/>
<path fill="#FFFFFF" d="M193.67,143.517l0.574-10.422c5.959,3.27,11.897,4.598,12.346,4.693l0.316,0.068l0.311-0.068
	c0.451-0.096,6.387-1.424,12.346-4.693l0.574,10.393l-13.23,6.523L193.67,143.517z"/>
</svg>
