<?xml version="1.0" encoding="utf-8"?>
<!-- Generator: Adobe Illustrator 15.1.0, SVG Export Plug-In  -->
<!DOCTYPE svg PUBLIC "-//W3C//DTD SVG 1.1//EN" "http://www.w3.org/Graphics/SVG/1.1/DTD/svg11.dtd" [
	<!ENTITY ns_flows "http://ns.adobe.com/Flows/1.0/">
]>
<svg version="1.1"
	 xmlns="http://www.w3.org/2000/svg" xmlns:xlink="http://www.w3.org/1999/xlink" xmlns:a="http://ns.adobe.com/AdobeSVGViewerExtensions/3.0/"
	 x="0px" y="0px" width="300px" height="300px" viewBox="-42.345 -40.274 300 300" enable-background="new -42.345 -40.274 300 300"
	 xml:space="preserve">
<defs>
</defs>
<polyline fill="none" stroke="#5A5B5B" stroke-width="2.7313" stroke-miterlimit="10" points="87.404,176.168 81.768,208.604 
	136.74,208.604 130.764,176.168 "/>
<path fill="#5A5B5B" d="M218.508,31.41c0-4.526-3.668-8.197-8.197-8.197H8.197C3.668,23.212,0,26.883,0,31.41v122.909h218.508V31.41
	z"/>
<path opacity="0.6" fill="#5A5B5B" d="M8.197,176.168h202.113c4.529,0,8.197-3.668,8.197-8.191v-13.658H0v13.658
	C0,172.5,3.668,176.168,8.197,176.168"/>
<rect x="11.156" y="33.455" fill="#FFFFFF" width="196.652" height="109.711"/>
<rect x="76.248" y="55.082" fill="#5A5B5B" width="66.466" height="66.459"/>
<circle fill="none" stroke="#30241C" stroke-width="2.7313" stroke-miterlimit="10" cx="49.166" cy="115.908" r="5.461"/>
<circle fill="none" stroke="#30241C" stroke-width="2.7313" stroke-miterlimit="10" cx="38.241" cy="94.231" r="5.464"/>
<circle fill="none" stroke="#30241C" stroke-width="2.7313" stroke-miterlimit="10" cx="60.089" cy="94.231" r="5.462"/>
<circle fill="none" stroke="#30241C" stroke-width="2.7313" stroke-miterlimit="10" cx="49.166" cy="72.378" r="5.461"/>
<circle fill="none" stroke="#30241C" stroke-width="2.7313" stroke-miterlimit="10" cx="27.315" cy="72.378" r="5.462"/>
<circle fill="none" stroke="#30241C" stroke-width="2.7313" stroke-miterlimit="10" cx="60.089" cy="50.529" r="5.462"/>
<path fill="none" stroke="#30241C" stroke-width="2.7313" stroke-miterlimit="10" d="M174.803,50.529
	c0,3.018,2.449,5.464,5.467,5.464s5.461-2.446,5.461-5.464s-2.443-5.461-5.461-5.461S174.803,47.511,174.803,50.529z"/>
<path fill="none" stroke="#30241C" stroke-width="2.7313" stroke-miterlimit="10" d="M125.643,132.467
	c0,3.018,2.446,5.467,5.461,5.467c3.018,0,5.467-2.449,5.467-5.467s-2.449-5.461-5.467-5.461
	C128.089,127.006,125.643,129.449,125.643,132.467z"/>
<path fill="none" stroke="#30241C" stroke-width="2.7313" stroke-miterlimit="10" d="M92.865,23.212
	c0,3.021,2.446,5.467,5.467,5.467c3.018,0,5.461-2.446,5.461-5.467c0-3.015-2.443-5.458-5.461-5.458
	C95.312,17.754,92.865,20.198,92.865,23.212z"/>
<path fill="none" stroke="#30241C" stroke-width="2.7313" stroke-miterlimit="10" d="M114.325,6.83c0,3.015,2.446,5.461,5.464,5.461
	s5.461-2.446,5.461-5.461c0-3.021-2.443-5.464-5.461-5.464S114.325,3.809,114.325,6.83z"/>
<circle fill="none" stroke="#30241C" stroke-width="2.7313" stroke-miterlimit="10" cx="119.788" cy="34.143" r="5.462"/>
<path fill="none" stroke="#30241C" stroke-width="2.7313" stroke-miterlimit="10" d="M81.94,132.467
	c0,3.018,2.446,5.467,5.464,5.467s5.461-2.449,5.461-5.467s-2.443-5.461-5.461-5.461S81.94,129.449,81.94,132.467z"/>
<path fill="none" stroke="#30241C" stroke-width="2.7313" stroke-miterlimit="10" d="M174.803,72.208
	c0,3.021,2.449,5.464,5.467,5.464s5.461-2.443,5.461-5.464c0-3.015-2.443-5.461-5.461-5.461S174.803,69.194,174.803,72.208z"/>
<path fill="none" stroke="#30241C" stroke-width="2.7313" stroke-miterlimit="10" d="M152.956,72.208
	c0,3.021,2.446,5.464,5.464,5.464s5.461-2.443,5.461-5.464c0-3.015-2.443-5.461-5.461-5.461S152.956,69.194,152.956,72.208z"/>
<circle fill="none" stroke="#30241C" stroke-width="2.7313" stroke-miterlimit="10" cx="158.418" cy="94.058" r="5.462"/>
<circle fill="none" stroke="#30241C" stroke-width="2.7313" stroke-miterlimit="10" cx="191.191" cy="94.058" r="5.461"/>
<circle fill="none" stroke="#30241C" stroke-width="2.7313" stroke-miterlimit="10" cx="158.418" cy="115.908" r="5.462"/>
<line fill="none" stroke="#30241C" stroke-width="2.7313" stroke-miterlimit="10" x1="119.789" y1="12.291" x2="119.789" y2="28.808"/>
<line fill="none" stroke="#30241C" stroke-width="2.7313" stroke-miterlimit="10" x1="119.789" y1="39.604" x2="119.789" y2="55.082"/>
<line fill="none" stroke="#30241C" stroke-width="2.7313" stroke-miterlimit="10" x1="98.332" y1="55.082" x2="98.332" y2="28.679"/>
<ellipse fill="none" stroke="#30241C" stroke-width="2.7313" stroke-miterlimit="10" cx="109.594" cy="153.408" rx="5.461" ry="5.467"/>
<line fill="none" stroke="#30241C" stroke-width="2.7313" stroke-miterlimit="10" x1="109.594" y1="121.541" x2="109.594" y2="147.941"/>
<polyline fill="none" stroke="#30241C" stroke-width="2.7313" stroke-miterlimit="10" points="65.552,50.529 87.404,50.529 
	87.404,55.082 "/>
<polyline fill="none" stroke="#30241C" stroke-width="2.7313" stroke-miterlimit="10" points="131.104,55.082 131.104,50.529 
	174.803,50.529 "/>
<line fill="none" stroke="#30241C" stroke-width="2.7313" stroke-miterlimit="10" x1="54.627" y1="72.378" x2="76.248" y2="72.378"/>
<line fill="none" stroke="#30241C" stroke-width="2.7313" stroke-miterlimit="10" x1="43.705" y1="72.378" x2="32.777" y2="72.378"/>
<line fill="none" stroke="#30241C" stroke-width="2.7313" stroke-miterlimit="10" x1="43.705" y1="94.231" x2="54.627" y2="94.231"/>
<line fill="none" stroke="#30241C" stroke-width="2.7313" stroke-miterlimit="10" x1="65.552" y1="94.231" x2="76.248" y2="94.231"/>
<line fill="none" stroke="#30241C" stroke-width="2.7313" stroke-miterlimit="10" x1="54.627" y1="115.908" x2="76.248" y2="115.908"/>
<line fill="none" stroke="#30241C" stroke-width="2.7313" stroke-miterlimit="10" x1="152.956" y1="115.908" x2="142.714" y2="115.908"/>
<line fill="none" stroke="#30241C" stroke-width="2.7313" stroke-miterlimit="10" x1="185.73" y1="94.058" x2="163.881" y2="94.058"/>
<line fill="none" stroke="#30241C" stroke-width="2.7313" stroke-miterlimit="10" x1="152.956" y1="94.058" x2="142.714" y2="94.058"/>
<line fill="none" stroke="#30241C" stroke-width="2.7313" stroke-miterlimit="10" x1="152.956" y1="72.208" x2="142.714" y2="72.208"/>
<line fill="none" stroke="#30241C" stroke-width="2.7313" stroke-miterlimit="10" x1="174.803" y1="72.208" x2="163.881" y2="72.208"/>
<line fill="none" stroke="#30241C" stroke-width="2.7313" stroke-miterlimit="10" x1="87.404" y1="127.006" x2="87.404" y2="121.371"/>
<line fill="none" stroke="#30241C" stroke-width="2.7313" stroke-miterlimit="10" x1="131.104" y1="127.006" x2="131.104" y2="121.541"/>
<path fill="none" stroke="#FFFFFF" stroke-width="2.7313" stroke-linejoin="round" stroke-miterlimit="10" d="M130.764,88.31
	c0,11.757-9.53,21.284-21.281,21.284c-11.754,0-21.281-9.527-21.281-21.284c0-11.751,9.527-21.281,21.281-21.281
	C121.233,67.029,130.764,76.559,130.764,88.31z"/>
<path fill="none" stroke="#FFFFFF" stroke-width="2.7313" stroke-linejoin="round" stroke-miterlimit="10" d="M119.789,88.31
	c0,11.757-10.219,21.284-10.219,21.284s-10.213-9.527-10.213-21.284c0-11.751,10.213-21.281,10.213-21.281
	S119.789,76.559,119.789,88.31z"/>
<line fill="none" stroke="#FFFFFF" stroke-width="2.7313" stroke-linejoin="round" stroke-miterlimit="10" x1="109.57" y1="67.029" x2="109.57" y2="109.594"/>
<line fill="none" stroke="#FFFFFF" stroke-width="2.7313" stroke-linejoin="round" stroke-miterlimit="10" x1="88.201" y1="88.31" x2="130.764" y2="88.31"/>
<line fill="none" stroke="#FFFFFF" stroke-width="2.7313" stroke-linejoin="round" stroke-miterlimit="10" x1="91.412" y1="99.399" x2="127.646" y2="99.399"/>
<line fill="none" stroke="#FFFFFF" stroke-width="2.7313" stroke-linejoin="round" stroke-miterlimit="10" x1="91.412" y1="77.133" x2="127.646" y2="77.133"/>
</svg>
