<?xml version="1.0" encoding="utf-8"?>
<!-- Generator: Adobe Illustrator 15.1.0, SVG Export Plug-In  -->
<!DOCTYPE svg PUBLIC "-//W3C//DTD SVG 1.1//EN" "http://www.w3.org/Graphics/SVG/1.1/DTD/svg11.dtd" [
	<!ENTITY ns_flows "http://ns.adobe.com/Flows/1.0/">
]>
<svg version="1.1"
	 xmlns="http://www.w3.org/2000/svg" xmlns:xlink="http://www.w3.org/1999/xlink" xmlns:a="http://ns.adobe.com/AdobeSVGViewerExtensions/3.0/"
	 x="0px" y="0px" width="300px" height="300px" viewBox="-47 -25.97 300 300" enable-background="new -47 -25.97 300 300"
	 xml:space="preserve">
<defs>
</defs>
<polygon fill="#FFFFFF" points="55.5,109.28 73,120.03 143,120.03 153,111.53 158.5,90.03 153.25,13.53 52,19.03 52,77.03 "/>
<g>
	<g>
		<path fill="#5A5B5B" d="M104.436,0C71.559,0,44.928,3.721,44.928,29.754v70.664c0,14.379,11.657,26.039,26.033,26.039h66.949
			c14.376,0,26.033-11.66,26.033-26.039V29.754C163.943,3.721,137.313,0,104.436,0z M70.961,111.58
			c-6.161,0-11.156-4.998-11.156-11.162c0-6.158,4.995-11.156,11.156-11.156c6.164,0,11.159,4.998,11.159,11.156
			C82.12,106.582,77.125,111.58,70.961,111.58z M96.997,66.949H59.805V29.754h37.192V66.949z M137.91,111.58
			c-6.164,0-11.159-4.998-11.159-11.162c0-6.158,4.995-11.156,11.159-11.156c6.161,0,11.156,4.998,11.156,11.156
			C149.066,106.582,144.071,111.58,137.91,111.58z M149.066,66.949h-37.192V29.754h37.192V66.949z"/>
	</g>
</g>
<path fill="#5A5B5B" d="M0,132.03v104h26v-3.293c0-44.376,35.624-80.353,80.003-80.353c44.376,0,79.997,35.977,79.997,80.353v3.293
	h26v-104H0z"/>
</svg>
