<svg xmlns="http://www.w3.org/2000/svg" width="750" height="750" viewBox="585 165 750 750"><g fill="#5A5B5B"><path d="M1087.314 654.572c-.972-2.146-3.11-3.525-5.466-3.525h-248.35c-2.356 0-4.494 1.38-5.466 3.525l-31.05 68.584c-.35.777-.533 1.62-.533 2.475 0 20.423 16.62 37.038 37.048 37.038 12.988 0 24.428-6.724 31.043-16.865 6.616 10.142 18.056 16.865 31.044 16.865 12.986 0 24.424-6.724 31.04-16.866 6.616 10.143 18.06 16.866 31.052 16.866 12.985 0 24.424-6.724 31.038-16.866 6.615 10.143 18.055 16.866 31.042 16.866 12.99 0 24.433-6.724 31.048-16.866 6.615 10.143 18.056 16.866 31.044 16.866 20.433 0 37.056-16.615 37.056-37.037 0-.853-.183-1.696-.534-2.474l-31.056-68.584zm-5.465 96.096c-13.81 0-25.044-11.23-25.044-25.037 0-.2-.01-.4-.03-.598-.014-.14-.038-.278-.063-.416-.01-.056-.014-.11-.025-.166-.033-.167-.076-.33-.123-.49-.008-.027-.012-.055-.02-.08-.053-.172-.114-.338-.18-.502-.008-.017-.013-.035-.02-.052l-.003-.007-.018-.043-10.978-26.39c-1.273-3.06-4.783-4.506-7.845-3.234-3.06 1.273-4.507 4.785-3.234 7.845l10.513 25.27c-.598 13.28-11.594 23.9-25.024 23.9-13.81 0-25.043-11.23-25.043-25.037 0-.17-.007-.34-.02-.512l-2.27-26.438c-.283-3.302-3.207-5.75-6.49-5.466-3.302.283-5.748 3.19-5.466 6.49l2.24 26.123c-.106 13.715-11.292 24.84-25.03 24.84-13.696 0-24.86-11.037-25.053-24.677l3.318-26.04c.42-3.286-1.906-6.29-5.193-6.71-3.28-.41-6.292 1.906-6.71 5.193l-3.37 26.438c-.002.02 0 .037-.003.056-.027.23-.045.466-.045.704 0 13.806-11.23 25.037-25.037 25.037-13.44 0-24.442-10.64-25.02-23.938l10.157-25.303c1.234-3.075-.258-6.57-3.333-7.804-3.078-1.234-6.57.26-7.804 3.333l-10.57 26.335c0 .004-.003.007-.004.01l-.038.094c-.006.015-.008.03-.014.046-.13.332-.235.678-.305 1.036l-.008.054c-.066.356-.105.724-.105 1.1 0 13.806-11.234 25.037-25.043 25.037-13.4 0-24.377-10.57-25.02-23.808l28.89-63.814h240.61l28.894 63.813c-.643 13.237-11.622 23.808-25.025 23.808zM879.987 836.853c3.313 0 6-2.687 6-6v-50.98c0-3.314-2.687-6-6-6h-56.443c-3.313 0-6 2.686-6 6v50.98c0 3.313 2.687 6 6 6h56.443zm-50.443-50.982h44.443v38.982h-44.443v-38.98zM887.98 844.242h-72.422c-3.313 0-6 2.687-6 6s2.687 6 6 6h72.42c3.314 0 6-2.687 6-6s-2.686-6-6-6zM985.895 836.853c3.313 0 6-2.687 6-6v-50.98c0-3.314-2.687-6-6-6h-56.448c-3.314 0-6 2.686-6 6v50.98c0 3.313 2.686 6 6 6h56.448zm-50.45-50.982h44.45v38.982h-44.45v-38.98zM993.882 844.242H921.46c-3.313 0-6 2.687-6 6s2.687 6 6 6h72.422c3.313 0 6-2.687 6-6s-2.687-6-6-6zM1091.797 836.853c3.313 0 6-2.687 6-6v-50.98c0-3.314-2.687-6-6-6h-56.443c-3.313 0-6 2.686-6 6v50.98c0 3.313 2.687 6 6 6h56.443zm-50.443-50.982h44.443v38.982h-44.443v-38.98zM1099.784 844.242h-72.422c-3.313 0-6 2.687-6 6s2.687 6 6 6h72.422c3.313 0 6-2.687 6-6s-2.686-6-6-6zM879.987 610.927c3.313 0 6-2.687 6-6v-50.98c0-3.314-2.687-6-6-6h-56.443c-3.313 0-6 2.686-6 6v50.98c0 3.313 2.687 6 6 6h56.443zm-50.443-50.982h44.443v38.98h-44.443v-38.98zM809.558 624.322c0 3.313 2.687 6 6 6h72.42c3.314 0 6-2.687 6-6s-2.686-6-6-6h-72.42c-3.314 0-6 2.687-6 6zM985.895 610.927c3.313 0 6-2.687 6-6v-50.98c0-3.314-2.687-6-6-6h-56.448c-3.314 0-6 2.686-6 6v50.98c0 3.313 2.686 6 6 6h56.448zm-50.45-50.982h44.45v38.98h-44.45v-38.98zM915.46 624.322c0 3.313 2.687 6 6 6h72.422c3.313 0 6-2.687 6-6s-2.687-6-6-6H921.46c-3.314 0-6 2.687-6 6zM1091.797 610.927c3.313 0 6-2.687 6-6v-50.98c0-3.314-2.687-6-6-6h-56.443c-3.313 0-6 2.686-6 6v50.98c0 3.313 2.687 6 6 6h56.443zm-50.443-50.982h44.443v38.98h-44.443v-38.98zM1021.362 624.322c0 3.313 2.687 6 6 6h72.422c3.313 0 6-2.687 6-6s-2.687-6-6-6h-72.422c-3.313 0-6 2.687-6 6z"/><path d="M1165.58 499.523H754.42c-3.313 0-6 2.686-6 6v23.864c0 3.314 2.687 6 6 6h27.71v347.737c0 3.313 2.687 6 6 6 3.314 0 6-2.687 6-6V535.39h326.537v347.735c0 3.313 2.687 6 6 6s6-2.687 6-6V535.388h32.912c3.312 0 6-2.686 6-6v-23.864c0-3.315-2.687-6-6-6zm-6 23.865H760.42v-11.864h399.16v11.864zM822.506 462.902H929.58c23.744 0 43.06-19.32 43.06-43.066 0-3.313-2.686-6-6-6s-6 2.687-6 6c0 17.13-13.933 31.066-31.06 31.066H822.506c-17.13 0-31.065-13.937-31.065-31.066 0-17.127 13.937-31.06 31.066-31.06 1.11 0 2.316.084 3.768.26.882.176 9.653 2.192 12.388 12.834.696 2.708 3.134 4.508 5.807 4.508.494 0 .996-.062 1.497-.19 3.21-.825 5.143-4.095 4.318-7.305-2.738-10.653-9.28-16.167-14.555-18.967 8.408-13.237 23.11-21.504 39.02-21.504 18.235 0 34.818 10.794 42.247 27.5 1.346 3.027 4.892 4.388 7.92 3.043 3.028-1.347 4.39-4.893 3.044-7.92-9.353-21.032-30.24-34.623-53.21-34.623-21.34 0-40.958 11.793-51.107 30.38-.384-.01-.762-.017-1.137-.017-23.747 0-43.065 19.317-43.065 43.06 0 23.748 19.32 43.067 43.066 43.067z"/><path d="M986.363 324.55c-.384-.012-.762-.018-1.137-.018-23.746 0-43.065 19.317-43.065 43.06 0 23.748 19.32 43.067 43.066 43.067H1092.3c23.744 0 43.062-19.32 43.062-43.067 0-3.313-2.687-6-6-6s-6 2.687-6 6c0 17.13-13.935 31.066-31.062 31.066H985.227c-17.13 0-31.065-13.938-31.065-31.067 0-17.127 13.936-31.06 31.065-31.06 1.113 0 2.32.084 3.77.26.88.177 9.65 2.192 12.387 12.834.696 2.708 3.134 4.508 5.808 4.508.494 0 .997-.062 1.498-.19 3.21-.825 5.142-4.095 4.317-7.305-2.74-10.653-9.28-16.167-14.556-18.966 8.408-13.238 23.112-21.505 39.02-21.505 18.235 0 34.82 10.793 42.25 27.5 1.345 3.027 4.893 4.388 7.92 3.042s4.39-4.893 3.044-7.92c-9.355-21.033-30.242-34.623-53.213-34.623-21.338 0-40.956 11.792-51.107 30.38zM869.396 269.25c-17.296 19.927-25.796 45.395-23.935 71.714.225 3.162 2.86 5.577 5.98 5.577.143 0 .286-.004.43-.015 3.306-.233 5.795-3.103 5.562-6.408-1.635-23.122 5.832-45.496 21.027-63 15.195-17.507 36.3-28.047 59.425-29.68 30.802-2.173 60.695 12.377 78.028 37.98 1.857 2.742 5.586 3.46 8.333 1.603 2.743-1.857 3.462-5.588 1.604-8.332-19.727-29.137-53.756-45.7-88.81-43.22-26.324 1.858-50.347 13.856-67.644 33.783zM814.024 327.323l21.176 2.262c.217.023.432.034.645.034 3.028 0 5.63-2.286 5.96-5.364.35-3.295-2.035-6.25-5.33-6.603L815.3 315.39c-3.304-.354-6.252 2.035-6.605 5.33-.352 3.295 2.034 6.252 5.33 6.603zM822.65 273.644l21.176 10.178c.838.403 1.723.594 2.595.594 2.235 0 4.38-1.254 5.413-3.402 1.436-2.986.178-6.57-2.81-8.007L827.85 262.83c-2.986-1.438-6.57-.18-8.007 2.808-1.434 2.985-.177 6.57 2.81 8.006zM873.965 246.086c1.186 1.343 2.84 2.03 4.5 2.03 1.412 0 2.828-.496 3.97-1.502 2.483-2.193 2.72-5.985.527-8.47L866.17 219.12c-2.193-2.483-5.985-2.72-8.47-.528-2.484 2.193-2.72 5.985-.528 8.47l16.793 19.024zM924.323 224.35c.604 2.815 3.092 4.742 5.86 4.742.417 0 .84-.044 1.266-.135 3.24-.696 5.3-3.886 4.605-7.126l-5.63-26.214c-.694-3.24-3.884-5.304-7.125-4.606-3.24.696-5.302 3.886-4.606 7.126l5.63 26.214zM986.38 238.245c.7.266 1.42.392 2.128.392 2.42 0 4.7-1.476 5.61-3.873l8.595-22.653c1.176-3.097-.383-6.562-3.48-7.737-3.093-1.172-6.564.383-7.738 3.48l-8.595 22.654c-1.176 3.097.382 6.562 3.48 7.738zM1028.416 268.144c1.206 0 2.425-.363 3.48-1.117l20.736-14.8c2.696-1.926 3.322-5.673 1.397-8.37-1.926-2.698-5.674-3.322-8.37-1.397l-20.736 14.8c-2.696 1.926-3.322 5.673-1.397 8.37 1.17 1.64 3.017 2.514 4.89 2.514z"/></g></svg>