<svg xmlns="http://www.w3.org/2000/svg" width="750" height="750" viewBox="0 0 750 750"><g fill="#5A5B5B"><path d="M481.096 470.476c-.81-1.788-2.592-2.938-4.555-2.938H269.584c-1.964 0-3.745 1.15-4.555 2.938l-25.874 57.153c-.294.647-.445 1.35-.445 2.062 0 17.02 13.85 30.864 30.873 30.864 10.823 0 20.356-5.603 25.87-14.055 5.512 8.453 15.045 14.056 25.868 14.056 10.822 0 20.355-5.603 25.866-14.056 5.515 8.453 15.052 14.056 25.878 14.056 10.82 0 20.354-5.603 25.866-14.055 5.512 8.452 15.045 14.056 25.867 14.056 10.826 0 20.36-5.603 25.875-14.055 5.512 8.453 15.045 14.056 25.87 14.056 17.024 0 30.878-13.846 30.878-30.864 0-.71-.152-1.414-.445-2.063l-25.88-57.154zM308.323 622.378c2.762 0 5-2.238 5-5v-42.485c0-2.762-2.238-5-5-5h-47.036c-2.762 0-5 2.238-5 5v42.485c0 2.762 2.238 5 5 5h47.036zm-42.036-42.486h37.036v32.485h-37.036v-32.485zM314.983 628.535H254.63c-2.76 0-5 2.238-5 5s2.24 5 5 5h60.353c2.762 0 5-2.238 5-5s-2.238-5-5-5zM396.58 622.378c2.762 0 5-2.238 5-5v-42.485c0-2.762-2.238-5-5-5h-47.042c-2.762 0-5 2.238-5 5v42.485c0 2.762 2.238 5 5 5h47.042zm-42.04-42.486h37.04v32.485h-37.04v-32.485zM403.235 628.535h-60.35c-2.763 0-5 2.238-5 5s2.237 5 5 5h60.35c2.762 0 5-2.238 5-5s-2.24-5-5-5zM484.832 622.378c2.762 0 5-2.238 5-5v-42.485c0-2.762-2.238-5-5-5h-47.037c-2.762 0-5 2.238-5 5v42.485c0 2.762 2.238 5 5 5h47.037zm-42.037-42.486h37.037v32.485h-37.037v-32.485zM491.487 628.535h-60.352c-2.762 0-5 2.238-5 5s2.238 5 5 5h60.352c2.762 0 5-2.238 5-5s-2.24-5-5-5zM308.323 434.106c2.762 0 5-2.238 5-5V386.62c0-2.76-2.238-5-5-5h-47.036c-2.762 0-5 2.24-5 5v42.486c0 2.762 2.238 5 5 5h47.036zm-42.036-42.485h37.036v32.486h-37.036V391.62zM249.632 445.268c0 2.762 2.238 5 5 5h60.352c2.762 0 5-2.238 5-5s-2.238-5-5-5h-60.352c-2.762 0-5 2.24-5 5zM396.58 434.106c2.762 0 5-2.238 5-5V386.62c0-2.76-2.238-5-5-5h-47.042c-2.762 0-5 2.24-5 5v42.486c0 2.762 2.238 5 5 5h47.042zm-42.04-42.485h37.04v32.486h-37.04V391.62zM337.884 445.268c0 2.762 2.238 5 5 5h60.35c2.763 0 5-2.238 5-5s-2.237-5-5-5h-60.35c-2.762 0-5 2.24-5 5zM484.832 434.106c2.762 0 5-2.238 5-5V386.62c0-2.76-2.238-5-5-5h-47.037c-2.762 0-5 2.24-5 5v42.486c0 2.762 2.238 5 5 5h47.037zm-42.037-42.485h37.037v32.486h-37.037V391.62zM426.135 445.268c0 2.762 2.238 5 5 5h60.352c2.762 0 5-2.238 5-5s-2.238-5-5-5h-60.352c-2.762 0-5 2.24-5 5z"/><path d="M546.317 341.27H203.684c-2.76 0-5 2.24-5 5v19.888c0 2.76 2.24 5 5 5h23.09v289.78c0 2.762 2.24 5 5 5s5-2.238 5-5v-289.78H508.89v289.78c0 2.762 2.237 5 5 5s5-2.238 5-5v-289.78h27.427c2.762 0 5-2.24 5-5V346.27c0-2.76-2.24-5-5-5zM260.423 310.752h89.23c19.785 0 35.883-16.1 35.883-35.89 0-2.76-2.238-5-5-5s-5 2.24-5 5c0 14.276-11.612 25.89-25.884 25.89h-89.23c-14.274 0-25.888-11.614-25.888-25.89 0-14.27 11.613-25.883 25.89-25.883.93 0 1.937.07 3.15.22.8.162 8.044 1.87 10.312 10.692.58 2.257 2.61 3.756 4.84 3.756.41 0 .83-.05 1.248-.158 2.674-.688 4.285-3.414 3.598-6.087-2.28-8.875-7.73-13.47-12.126-15.804 7.006-11.032 19.256-17.924 32.513-17.924 15.195 0 29.015 8.995 35.206 22.916 1.12 2.522 4.076 3.658 6.6 2.536 2.523-1.122 3.66-4.077 2.537-6.6-7.795-17.527-25.2-28.853-44.344-28.853-17.783 0-34.132 9.827-42.59 25.318-.32-.01-.634-.016-.946-.016-19.79 0-35.89 16.098-35.89 35.884 0 19.793 16.1 35.892 35.89 35.892z"/><path d="M396.97 195.46c-.32-.01-.634-.016-.946-.016-19.79 0-35.89 16.098-35.89 35.884 0 19.79 16.1 35.89 35.89 35.89h89.23c19.784 0 35.882-16.1 35.882-35.89 0-2.76-2.238-5-5-5s-5 2.24-5 5c0 14.275-11.61 25.89-25.883 25.89h-89.23c-14.274 0-25.888-11.614-25.888-25.89 0-14.272 11.614-25.884 25.89-25.884.93 0 1.937.07 3.15.22.8.163 8.044 1.87 10.312 10.693.58 2.257 2.61 3.756 4.838 3.756.412 0 .832-.05 1.25-.158 2.674-.688 4.285-3.413 3.598-6.087-2.28-8.875-7.732-13.47-12.127-15.804 7.008-11.03 19.256-17.923 32.514-17.923 15.195 0 29.016 8.996 35.207 22.917 1.12 2.522 4.072 3.658 6.6 2.536 2.523-1.122 3.658-4.077 2.537-6.6-7.795-17.527-25.2-28.853-44.344-28.853-17.784 0-34.132 9.83-42.59 25.32zM299.497 149.376c-14.413 16.604-21.497 37.828-19.945 59.762.187 2.634 2.38 4.646 4.982 4.646.118 0 .238-.004.357-.013 2.756-.193 4.83-2.584 4.636-5.34-1.362-19.267 4.86-37.912 17.522-52.5 12.663-14.588 30.25-23.37 49.522-24.73 25.658-1.82 50.578 10.312 65.023 31.647 1.55 2.285 4.656 2.885 6.943 1.337s2.887-4.657 1.338-6.943c-16.438-24.278-44.777-38.072-74.01-36.017-21.934 1.55-41.953 11.547-56.367 28.153zM253.353 197.77L271 199.653c.18.02.36.03.537.03 2.523 0 4.69-1.905 4.966-4.47.293-2.747-1.695-5.21-4.44-5.504l-17.646-1.885c-2.743-.292-5.21 1.695-5.503 4.44-.294 2.747 1.694 5.21 4.44 5.504zM260.542 153.037l17.646 8.48c.698.337 1.437.495 2.162.495 1.862 0 3.65-1.044 4.51-2.835 1.197-2.488.15-5.476-2.34-6.672l-17.646-8.48c-2.49-1.198-5.476-.15-6.673 2.34-1.195 2.488-.148 5.476 2.342 6.672zM303.304 130.07c.988 1.12 2.366 1.692 3.75 1.692 1.177 0 2.357-.412 3.308-1.25 2.07-1.828 2.268-4.988.44-7.06L296.808 107.6c-1.828-2.07-4.988-2.27-7.058-.44-2.07 1.827-2.268 4.986-.44 7.057l13.994 15.854zM345.27 111.958c.504 2.347 2.577 3.95 4.884 3.95.348 0 .7-.035 1.055-.11 2.7-.58 4.418-3.24 3.838-5.94l-4.692-21.845c-.58-2.7-3.24-4.416-5.938-3.84-2.7.58-4.42 3.24-3.84 5.94l4.692 21.845zM396.985 123.537c.584.222 1.182.327 1.77.327 2.02 0 3.92-1.23 4.677-3.228l7.164-18.877c.98-2.583-.32-5.47-2.902-6.45-2.582-.98-5.47.32-6.447 2.9l-7.164 18.878c-.98 2.583.32 5.47 2.902 6.45zM432.014 148.453c1.006 0 2.02-.303 2.9-.93l17.28-12.335c2.247-1.604 2.77-4.728 1.165-6.975-1.606-2.25-4.73-2.77-6.976-1.165l-17.28 12.334c-2.247 1.604-2.77 4.727-1.165 6.975.976 1.367 2.513 2.096 4.074 2.096z"/></g></svg>