<svg xmlns="http://www.w3.org/2000/svg" width="750" height="750" viewBox="0 0 750 750"><g fill="#5A5B5B"><path d="M127.224 535.532h495.493c2.762 0 5-2.238 5-5V231.06c0-8.988-7.293-16.3-16.26-16.3h-114.55c-2.763 0-5 2.24-5 5s2.237 5 5 5h114.55c3.453 0 6.26 2.826 6.26 6.3V525.53H132.224V231.06c0-3.474 2.836-6.3 6.323-6.3H248.46c2.762 0 5-2.24 5-5s-2.238-5-5-5H138.548c-9 0-16.323 7.312-16.323 16.3V530.53c0 2.762 2.238 5 5 5z"/><path d="M188.04 253.022c2.76 0 5-2.24 5-5s-2.24-5-5-5h-31.03c-2.76 0-5 2.24-5 5v253.11c0 2.762 2.24 5 5 5h435.987c2.762 0 5-2.238 5-5v-253.11c0-2.76-2.238-5-5-5h-37.773c-2.762 0-5 2.24-5 5s2.238 5 5 5h32.773v243.11H162.01v-243.11h26.03zM674.79 547.088c-.042-.274-.087-.55-.114-.828-.25-2.56-2.404-4.512-4.977-4.512H80.28c-2.618 0-4.793 2.02-4.985 4.634-.02.287-.067.57-.108.853-.1.677-.223 1.52-.223 2.492v8.965c0 20.693 19.173 20.693 31.86 20.693h536.348c12.69 0 31.865 0 31.865-20.693v-8.965c0-1.03-.136-1.923-.248-2.64zm-9.753 11.603c0 8.596-4.29 10.694-21.865 10.694H106.824c-17.57 0-21.86-2.1-21.86-10.693v-6.942h580.074v6.943z"/><path d="M196.33 264.22c0 1.878 1.055 3.6 2.73 4.453l173.67 88.608c.715.365 1.494.547 2.273.547.78 0 1.558-.182 2.273-.546l134.63-68.69v71.37c0 2.048 1.25 3.888 3.15 4.646s4.073.28 5.48-1.205l11.76-12.406 8.77 11.93c.96 1.306 2.47 2.04 4.03 2.04.52 0 1.044-.083 1.558-.25 2.053-.675 3.44-2.59 3.44-4.752v-90.854l.853-.435c1.674-.854 2.727-2.574 2.727-4.454s-1.053-3.6-2.727-4.455L377.275 171.16c-1.428-.728-3.118-.728-4.545 0l-173.672 88.605c-1.673.854-2.727 2.574-2.727 4.454zm343.766 80.5l-3.287-4.47c-.878-1.192-2.24-1.935-3.718-2.027-1.48-.088-2.922.476-3.94 1.55l-7.245 7.645v-63.93l18.19-9.28v70.512z"/><path d="M499.162 393.662v-78.735c0-1.754-.918-3.38-2.422-4.284-1.504-.904-3.37-.955-4.92-.133l-116.814 61.92L256.7 309.554c-1.55-.824-3.418-.774-4.922.13-1.505.903-2.425 2.53-2.425 4.285v79.69c0 29.49 57.636 65.514 124.902 65.514 67.27 0 124.907-36.022 124.907-65.512z"/></g></svg>