<svg xmlns="http://www.w3.org/2000/svg" width="750" height="750" viewBox="585 165 750 750"><g fill="#5A5B5B"><path d="M813.313 558.627c-44.94 0-81.504 36.563-81.504 81.504s36.562 81.505 81.503 81.505c44.942 0 81.505-36.563 81.505-81.504 0-28.12-14.316-52.958-36.042-67.612 4.19-12.032 7.236-24.877 8.093-37.95 60.74 15.96 117.88 112.812 118.472 113.825 1.084 1.857 3.066 2.977 5.18 2.977.245 0 .49-.016.736-.046 2.38-.293 4.357-1.975 5.027-4.278l21.363-73.426 11.365-30.524c2.94 2.584 6.76 6.04 11.197 10.29 1.162 1.114 2.656 1.667 4.148 1.667 1.58 0 3.156-.62 4.334-1.85 2.292-2.394 2.21-6.192-.184-8.484-6.605-6.327-11.85-10.928-15.027-13.63l11.485-30.844h23.106c3.314 0 6-2.687 6-6s-2.686-6-6-6h-56.12c-3.313 0-6 2.687-6 6s2.687 6 6 6h20.21l-11.357 30.504-.06.163-11.4 30.622c-49.876-41.006-122.147-55.177-142.225-58.445v-30.87h21.697c3.313 0 6-2.686 6-6s-2.687-6-6-6H861.12c-3.313 0-6 2.688-6 6v60.99c0 13.316-2.8 26.667-7.02 39.234-10.558-5.006-22.35-7.817-34.787-7.817zm191.82 15.062l-16.616 57.103c-18.034-27.765-67.267-96.216-121.396-108.525v-6.98c21.973 3.853 92.424 18.812 138.012 58.4zm-122.316 66.44c0 38.325-31.18 69.505-69.505 69.505-38.325 0-69.504-31.18-69.504-69.504s31.18-69.503 69.504-69.503c10.958 0 21.328 2.56 30.556 7.095-13.625 32.976-34.81 58.148-35.123 58.518-2.148 2.52-1.847 6.307.673 8.457 1.13.963 2.514 1.435 3.89 1.435 1.697 0 3.382-.715 4.57-2.106 1.325-1.554 22.302-26.444 36.445-59.962 17.26 12.658 28.494 33.07 28.494 56.067zM1108.263 709.635c-32.182 0-60.69-22.748-67.79-54.09-.73-3.232-3.948-5.263-7.176-4.525-3.23.73-5.26 3.945-4.526 7.177 4.018 17.735 14.06 33.836 28.28 45.336 14.432 11.674 32.62 18.103 51.213 18.103 44.942 0 81.505-36.563 81.505-81.504 0-11.002-2.154-21.677-6.404-31.728-1.29-3.05-4.81-4.48-7.863-3.19-3.05 1.292-4.478 4.812-3.188 7.864 3.62 8.563 5.457 17.666 5.457 27.054-.002 38.323-31.182 69.503-69.507 69.503z"/><path d="M1196.027 588.16c.37-1.59.073-3.265-.82-4.634-19.257-29.525-51.76-47.153-86.944-47.153-57.212 0-103.758 46.546-103.758 103.758 0 .948.03 1.892.063 2.834l.02.636c.055 1.658.792 3.22 2.04 4.315 1.1.966 2.508 1.49 3.958 1.49.193 0 .39-.01.583-.027l101.09-9.873c.88-.086 1.73-.364 2.487-.816l78.504-46.73c1.405-.835 2.408-2.208 2.777-3.8zm-86.265 39.53l-93.197 9.104c1.764-49.055 42.22-88.42 91.698-88.42 29.02 0 55.98 13.564 73.3 36.58l-71.8 42.737zM653.693 526.557c1.873 1.067 4.174 1.048 6.03-.05l78.087-46.276 78.086 46.276c.96.57 2.013.84 3.053.84 2.05 0 4.046-1.052 5.166-2.943 1.69-2.85.748-6.53-2.103-8.22l-81.146-48.09c-1.886-1.117-4.23-1.118-6.118 0l-72.09 42.72v-17.896l75.147-44.532 78.086 46.275c2.852 1.69 6.532.747 8.22-2.103 1.69-2.85.75-6.53-2.102-8.22l-81.145-48.09c-1.886-1.117-4.23-1.118-6.118 0l-81.147 48.09c-1.823 1.08-2.94 3.04-2.94 5.16v31.847c.003 2.156 1.16 4.146 3.033 5.213z"/><path d="M659.722 414.726l78.088-46.28 75.146 44.537v17.897l-72.086-42.72c-1.886-1.117-4.23-1.118-6.118 0l-81.147 48.09c-2.85 1.688-3.792 5.37-2.103 8.22 1.12 1.89 3.117 2.942 5.167 2.942 1.04 0 2.093-.27 3.052-.84L737.81 400.3l78.086 46.275c1.855 1.1 4.157 1.118 6.03.05 1.872-1.066 3.03-3.056 3.03-5.212v-31.845c0-2.12-1.12-4.08-2.942-5.162l-81.146-48.094c-1.887-1.12-4.232-1.118-6.118 0l-81.147 48.093c-2.85 1.69-3.792 5.37-2.103 8.22s5.372 3.793 8.222 2.103zM1084.966 350.555h209.643c3.312 0 6-2.687 6-6s-2.688-6-6-6h-209.644c-3.313 0-6 2.687-6 6s2.686 6 6 6zM1246.063 527.344h25.267c3.313 0 6-2.687 6-6V361.47c0-3.312-2.687-6-6-6h-162.293c-3.313 0-6 2.688-6 6v159.874c0 3.313 2.687 6 6 6s6-2.687 6-6V367.47h150.293v147.874h-13.267V421.57c0-3.313-2.687-6-6-6h-51.68c-3.312 0-6 2.687-6 6v99.773c0 3.313 2.688 6 6 6s6-2.687 6-6V427.57h39.68v93.773c0 3.314 2.686 6 6 6zM1327 729.445H593c-3.313 0-6 2.687-6 6s2.687 6 6 6h734c3.313 0 6-2.687 6-6s-2.687-6-6-6z"/></g></svg>