<svg xmlns="http://www.w3.org/2000/svg" width="750" height="750" viewBox="0 0 750 750"><path d="M290.433 304.474c.48 0 .965-.07 1.447-.215l80.897-24.42 85.414 24.44c2.65.757 5.424-.778 6.184-3.434.76-2.655-.776-5.423-3.432-6.183L379.96 271.49v-34.98s5.443-10.887 21.776-10.887c10.89 0 10.89 10.89 27.222 10.89 16.338 0 21.777-10.89 21.777-10.89V182.07s-5.44 10.89-21.777 10.89c-10.89 0-10.89-10.89-27.222-10.89-8.17 0-16.006 2.402-21.777 4.795v-4.795c0-3.008-2.438-5.44-5.445-5.44s-5.444 2.433-5.444 5.44v88.444l-80.08 24.17c-2.642.8-4.14 3.59-3.34 6.232.65 2.163 2.636 3.558 4.784 3.558zm89.523-103.136s10.89-6.807 21.777-6.807 16.333 10.89 27.222 10.89c5.444 0 10.89-2.724 10.89-2.724v14.053s0 5.44-10.89 5.44-16.333-10.89-27.222-10.89-21.777 8.173-21.777 8.173V201.34zm268.954 168.15H480.28c-2.763 0-5 2.24-5 5s2.237 5 5 5h168.63c2.762 0 5-2.24 5-5s-2.24-5-5-5zm-379.183 0H101.09c-2.762 0-5 2.24-5 5s2.238 5 5 5h168.637c2.76 0 5-2.24 5-5s-2.24-5-5-5zm189.84-54.825h-169.13c-2.763 0-5 2.24-5 5V573.37c0 2.76 2.237 5 5 5h49.666c2.76 0 5-2.24 5-5v-92.49h59.795v92.49c0 2.76 2.238 5 5 5h49.668c2.762 0 5-2.24 5-5V319.662c0-2.76-2.24-5-5-5zm-101.857 33.71v66.666h-35.205v-66.667h35.205zm34.59 66.666v-66.667h35.205v66.665H392.3zm-122.573-24.07H106.812c-2.76 0-5 2.24-5 5v177.4c0 2.762 2.24 5 5 5h162.915c2.76 0 5-2.238 5-5v-177.4c0-2.76-2.24-5-5-5zM146.333 504.888v-79.85h25.82v79.85h-25.82zm64.258 0v-79.85h25.827v79.85H210.59zM643.2 390.97h-162.92c-2.762 0-5 2.24-5 5v177.4c0 2.762 2.238 5 5 5h162.92c2.762 0 5-2.238 5-5v-177.4c0-2.76-2.238-5-5-5zm-129.61 113.917v-79.85h25.826v79.85H513.59zm64.264 0v-79.85h25.825v79.85h-25.825z" fill="#5A5B5B"/></svg>