<svg xmlns="http://www.w3.org/2000/svg" width="750" height="750" viewBox="585 165 750 750"><g fill="#5A5B5B"><path d="M859.5 802.187c-.625-2.726-3.05-4.658-5.848-4.658h-11.157l-6.21-444.42c-.03-2.065-1.1-3.874-2.71-4.93.015-.17.027-.343.027-.517 0-52.308 42.556-94.863 94.863-94.863 52.31 0 94.87 42.556 94.87 94.863 0 3.313 2.686 6 6 6s6-2.687 6-6c0-58.925-47.942-106.863-106.87-106.863-58.768 0-106.604 47.685-106.857 106.395h-13.172c.254-65.972 54-119.566 120.03-119.566 66.19 0 120.04 53.847 120.04 120.034 0 3.313 2.687 6 6 6s6-2.687 6-6c0-72.804-59.233-132.035-132.04-132.035-72.805 0-132.036 59.23-132.036 132.034v.03c-2.097.912-3.575 2.985-3.61 5.417l-6.21 444.42h-6.732c-2.797 0-5.223 1.932-5.848 4.657l-12.586 54.844c-.41 1.78.017 3.65 1.155 5.08 1.138 1.43 2.865 2.263 4.692 2.263h98.967c3.312 0 6-2.687 6-6 0-.638-.1-1.252-.285-1.828L859.5 802.187zm-54.763-442.993h19.63l6.126 438.334H798.61l6.127-438.334zm-29.913 493.178l9.832-42.844h64.218l9.832 42.844h-83.882z"/><path d="M999.287 398.646c0 3.313 2.687 6 6 6s6-2.687 6-6c0-17.023 13.85-30.873 30.873-30.873 17.02 0 30.867 13.85 30.867 30.873 0 3.313 2.687 6 6 6s6-2.687 6-6c0-23.64-19.23-42.873-42.867-42.873-23.64 0-42.873 19.233-42.873 42.873zM991.453 406.48c-3.313 0-6 2.685-6 6l.002.038c.02 32.575 26.53 59.07 59.114 59.07 32.592 0 59.107-26.516 59.107-59.11 0-3.313-2.687-6-6-6H991.453zm53.116 53.108c-23.946 0-43.763-17.958-46.72-41.11h93.432c-2.958 23.152-22.77 41.11-46.713 41.11zM727.512 588.202c-3.313 0-6 2.687-6 6v260.432c0 3.313 2.687 6 6 6s6-2.687 6-6V594.202c0-3.313-2.687-6-6-6zM1268.217 577.395l-194.31-89.24c-3.01-1.382-6.572-.06-7.955 2.95-1.383 3.01-.063 6.573 2.948 7.957l194.31 89.238c.81.373 1.66.55 2.5.55 2.27 0 4.445-1.298 5.455-3.498 1.383-3.012.064-6.575-2.948-7.957zM955.098 433.582c-1.683-.772-3.63-.724-5.273.13l-97.84 50.888c-2.94 1.53-4.083 5.152-2.555 8.092 1.07 2.056 3.16 3.233 5.328 3.233.933 0 1.88-.218 2.764-.678l95.235-49.534 18.918 8.69c3.014 1.384 6.574.062 7.956-2.95 1.385-3.01.064-6.573-2.947-7.956l-21.585-9.915zM780.13 528.744c-1.527-2.94-5.152-4.083-8.09-2.554l-120.52 62.69c-2.94 1.528-4.084 5.15-2.555 8.09 1.07 2.057 3.16 3.233 5.328 3.233.933 0 1.88-.218 2.764-.678l120.52-62.69c2.94-1.528 4.084-5.15 2.554-8.09zM1219.56 588.202c-3.314 0-6 2.687-6 6v256.3h-39.007V623.857c0-3.313-2.687-6-6-6h-114.047c-3.313 0-6 2.687-6 6v224.777H914.46c-3.312 0-6 2.687-6 6s2.688 6 6 6h140.046c3.313 0 6-2.687 6-6V629.856h102.047v226.646c0 3.313 2.687 6 6 6h51.006c3.312 0 6-2.687 6-6v-262.3c0-3.313-2.688-6-6-6z"/></g></svg>