<?xml version="1.0" encoding="utf-8"?>
<!-- Generator: Adobe Illustrator 18.1.1, SVG Export Plug-In . SVG Version: 6.00 Build 0)  -->
<svg version="1.1" id="Layer_1" xmlns="http://www.w3.org/2000/svg" xmlns:xlink="http://www.w3.org/1999/xlink" x="0px" y="0px"
	 viewBox="0 0 80.7 80.7" style="enable-background:new 0 0 80.7 80.7;" xml:space="preserve">
<style type="text/css">
	.st0{fill:#5A5A5A;}
	.st1{fill:none;}
</style>
<g>
	<path class="st0" d="M9.2,16.1v4.6c0,12.6,6.7,23.6,16.7,29.8v14.3h45.5v-6.1c0-8.1-16.2-12.1-24.3-12.1c0,0-0.5,0-0.8,0
		c-14.4,0-26.6-12.1-26.6-25.8v-4.6 M47.2,16.1c-6.7,0-12.1,5.4-12.1,12.1c0,6.7,5.4,12.1,12.1,12.1s12.1-5.4,12.1-12.1
		C59.3,21.5,53.9,16.1,47.2,16.1z"/>
</g>
<rect x="0" y="0.6" class="st1" width="80.7" height="80.7"/>
</svg>
