<svg id="Layer_1" xmlns="http://www.w3.org/2000/svg" viewBox="-74 26 750 750"><style>.st0{opacity:0.8;fill:#5A5B5B;enable-background:new ;} .st1{opacity:0.4;fill:#5A5B5B;enable-background:new ;} .st2{fill:#5A5B5B;} .st3{opacity:0.6;fill:#5A5B5B;enable-background:new ;}</style><path class="st0" d="M592 413.3l-36-36c.8 7.8 1.2 15.7 1.2 23.7 0 112.1-78.4 206.2-183.3 230.4l-40.8 40.8 31.6 31.6c148-21.3 262.1-149 262.1-302.8 0-7.3-.3-14.5-.9-21.6L592 413.3z"/><path class="st1" d="M85.5 424.6c-.8-7.8-1.2-15.7-1.2-23.7 0-115 82.6-211.1 191.6-232.1l39.1-39.1-32.3-32.3C131.9 116.3 14.8 245.2 14.8 401c0 7.3.3 14.5.8 21.6l33.9-33.9 36 35.9z"/><path class="st2" d="M304.1 165.2c5.5-.4 11-.6 16.6-.6 112.1 0 206.2 78.5 230.4 183.3l40.8 40.8 31.6-31.6C602.2 209.2 474.6 95 320.8 95c-5.2 0-10.4.1-15.6.4l34.4 34.4-35.5 35.4z"/><path class="st3" d="M344.4 636.3c-7.8.8-15.7 1.2-23.7 1.2-112.1 0-206.2-78.4-230.4-183.3l-40.8-40.8L18 444.8C39.3 592.8 167 707 320.8 707c7.3 0 14.5-.3 21.6-.8l-33.9-33.9 35.9-36z"/><path class="st2" d="M456.6 490.8L371 453l-.3-5.9h46l1.2-3.3c.2-.5 4.6-12.5 5.3-40.3.5-19.1-1.5-36.4-5.8-51.5 7.1-8.1 12.3-18.7 7.6-30.3-4.4-10.6-11.5-13.9-17.3-14.2.1-2.1.2-3.5.2-3.8h-.2c1-4 6.2-27.2-5.7-45.3-6.7-10.1-17.6-16.4-32-19.1-1-6.6-6.9-17.4-31.7-26.4-27.1-9.9-67.4-6.3-89.1 16.2l-.1-.1c-.3.3-.5.6-.8.9l-.3.3c-33.6 33.5-49.9 84-48.1 150.3 1.1 43.7 8 62.4 8.2 63.1l1.2 3.3h66.5l-.3 5.9-85.6 37.8-2.6 83.4s116.4 105 271.9 0l-2.6-83.2zM244.3 352.2c-8-6.5-17.2-16.6-13.1-26.5 2.6-6.4 6.1-7.8 8.4-7.9.9 8.8 2.4 21 4.7 34.4zm4.9-43.2c18.3.7 73.9.3 107-26.6 5.8-.3 29.7.1 41.3 22.1-.4 6.8-3.1 43.9-12.3 75.9-8.7 30.2-54.4 42.6-62 44.4-7.6-1.9-53.3-14.2-62-44.4-7.9-27.5-11-58.8-12-71.4zm38.1 113c17 9.1 33.5 12.8 34.8 13.1l1.1.2 1.1-.2c1.3-.3 17.8-4 34.8-13.1l1.7 34.5-37.6 41-37.6-41 1.7-34.5zm121.9 14.9h-39v1.3l-1.1-22.1c11.6-7.9 21.9-18.6 26-32.8 1.5-5.3 2.9-10.7 4.1-16.1 2.1-1.3 5.7-3.6 9.7-6.9 3 12.8 4.4 27.2 4 43-.4 17.8-2.5 28.6-3.7 33.6zm6.3-111.2c4.1 10.1-5.4 20.3-13.4 26.7 2.4-13.5 3.8-25.8 4.7-34.7 2.3.1 6 1.3 8.7 8zm-22.1-61.5c5.2 7.9 6.3 17.4 6 24.9-12.2-13.6-28.6-16.5-38-17l1.8-5.9 5.2-16.8c11.5 2.2 19.9 7.1 25 14.8zM216.7 436.9c-1.9-6.9-5.8-24.9-6.6-56.5-1.7-63.7 13.7-111.9 45.6-143.3 18.3-20 55.2-23.1 79-14.4 22.4 8.2 25.7 17 25.1 19.7l-10 32c-36 29.3-105.1 24.1-105.8 24l-5.8-.5.3 5.9c0 .3.1 1.7.2 3.8-5.8.4-12.8 3.7-17.1 14.2-9 22 17.7 40.3 25.5 45.1 1.2 5.5 2.6 10.9 4.1 16.3 4.1 14.3 14.4 24.9 26 32.8l-1 20.8-59.5.1z"/></svg>