<svg xmlns="http://www.w3.org/2000/svg" width="750" height="750" viewBox="0 0 750 750"><g fill="#5A5B5B"><path d="M601.94 278.13h-46.266c-2.762 0-5 2.238-5 5v102.108h-95.127c-2.762 0-5 2.238-5 5s2.238 5 5 5h95.127v48.656l-18.532-23.766c-.94-1.207-2.383-1.916-3.912-1.926l-72.65-.45c-2.78-.038-5.015 2.208-5.032 4.97-.017 2.762 2.208 5.014 4.97 5.03l70.228.435 24.93 31.97V585.39c0 2.762 2.237 5 5 5h46.264c2.762 0 5-2.238 5-5V283.13c0-2.763-2.24-5-5-5zm-222.88-83.243c-1.697-2.18-4.84-2.572-7.018-.876L131.572 381.11c-2.18 1.695-2.57 4.836-.875 7.016.986 1.268 2.46 1.93 3.95 1.93 1.073 0 2.154-.344 3.067-1.053l240.47-187.095c2.18-1.696 2.57-4.837.875-7.017zm20.378-10.855c1.073 0 2.153-.344 3.066-1.054l26.23-20.405c2.18-1.695 2.57-4.837.876-7.016-1.694-2.18-4.834-2.573-7.017-.876l-26.23 20.407c-2.18 1.695-2.57 4.837-.876 7.016.986 1.267 2.46 1.93 3.95 1.93z"/><path d="M361.99 374.178l-122.432 95.265-19.532-25.107c-.498-.64-1.145-1.15-1.885-1.484L96.538 387.81l331.29-257.753 93.487 120.164L408.494 338c-2.18 1.696-2.573 4.837-.878 7.017 1.694 2.18 4.837 2.573 7.017.876l116.768-90.85c2.18-1.696 2.573-4.837.878-7.017l-99.63-128.056c-.813-1.046-2.01-1.727-3.326-1.89-1.312-.166-2.643.2-3.688 1.014L83.86 385.004c-1.383 1.074-2.102 2.795-1.896 4.535.207 1.736 1.308 3.242 2.903 3.963l128.025 57.95 21.844 28.075c.814 1.046 2.01 1.726 3.327 1.892.207.025.413.037.62.037 1.105 0 2.187-.368 3.07-1.054l126.376-98.336c2.18-1.695 2.57-4.838.874-7.016-1.696-2.18-4.84-2.57-7.016-.875z"/><path d="M200.628 450.648l-77.426-35.186c-1.645-.748-3.565-.55-5.022.518-1.458 1.066-2.227 2.838-2.01 4.63 1.035 8.61 4.173 16.974 9.075 24.187 10.213 15.035 27.177 24.012 45.378 24.012h.002c10.988 0 21.62-3.277 30.744-9.475 1.494-1.016 2.324-2.76 2.17-4.56-.153-1.802-1.267-3.38-2.913-4.128zm197.68-61.35l-33.9-43.575c-1.697-2.18-4.84-2.572-7.02-.876-2.18 1.696-2.57 4.837-.876 7.017l33.9 43.574c.987 1.268 2.46 1.93 3.95 1.93 1.074 0 2.155-.344 3.067-1.053 2.18-1.698 2.572-4.84.876-7.018zm17.952-13.968c.985 1.267 2.46 1.93 3.95 1.93 1.07 0 2.153-.345 3.065-1.054 2.18-1.697 2.57-4.838.876-7.017l-33.9-43.57c-1.695-2.18-4.84-2.574-7.016-.878-2.18 1.696-2.57 4.837-.876 7.017l33.902 43.57z"/><path d="M357.095 343.453c5.75 0 11.195-1.87 15.75-5.41 11.157-8.693 13.172-24.846 4.49-36.01-4.9-6.292-12.29-9.902-20.272-9.902-5.75 0-11.19 1.87-15.74 5.407-11.165 8.69-13.18 24.845-4.492 36.016 4.898 6.293 12.285 9.9 20.266 9.9zm67.455 35.42c-5.75 0-11.193 1.87-15.74 5.406-5.408 4.205-8.855 10.27-9.704 17.07s1 13.53 5.21 18.94c4.898 6.29 12.284 9.897 20.264 9.897 5.75 0 11.195-1.87 15.742-5.408 11.163-8.69 13.182-24.837 4.498-36.003-4.9-6.296-12.29-9.905-20.27-9.905z"/></g></svg>