<svg xmlns="http://www.w3.org/2000/svg" viewBox="0 0 595.3 595.3"><path fill="#5B5B5B" d="M494.3 134.1c-16.3-4.7-53.2-12.4-121.9-12.4s-105.6 7.7-121.9 12.4c-6.2 1.8-10.4 7.7-10.4 14.4v255.1c0 3.6 2.8 6.5 6.2 6.5h12.3v31.8c0 3.7 3 6.7 6.7 6.7h27.2c3.7 0 6.7-3 6.7-6.7v-31.8h146.5v31.8c0 3.7 3 6.7 6.7 6.7h27.2c3.7 0 6.7-3 6.7-6.7v-31.8h12.3c3.5 0 6.2-2.9 6.2-6.5V148.5c-.1-6.7-4.3-12.6-10.5-14.4zM292 153.8c0-3.5 2.9-6.4 6.4-6.4H447c3.5 0 6.4 2.9 6.4 6.4v15.5c0 3.5-2.9 6.4-6.4 6.4H298.4c-3.5 0-6.4-2.9-6.4-6.4v-15.5zm16.9 208.6c0 3.7-3 6.7-6.7 6.7h-34.4c-3.7 0-6.7-3-6.7-6.7v-13.9c0-3.7 3-6.7 6.7-6.7h34.4c3.7 0 6.7 3 6.7 6.7v13.9zm174.8 0c0 3.7-3 6.7-6.7 6.7h-34.4c-3.7 0-6.7-3-6.7-6.7v-13.9c0-3.7 3-6.7 6.7-6.7H477c3.7 0 6.7 3 6.7 6.7v13.9zm0-63.5c0 3.5-3 6.4-6.7 6.4H268.4c-3.7 0-6.7-2.9-6.7-6.4V196.3c0-3.5 3-6.4 6.7-6.4H477c3.7 0 6.7 2.9 6.7 6.4v102.6z"/><path fill="#5B5B5B" d="M464.5 293.1c-.5 0-1-.1-1.6-.3-.1 0-8.3-3-19-3s-18.9 3-19 3c-2.3.9-4.9-.3-5.7-2.6-.9-2.3.3-4.8 2.6-5.7.4-.1 9.8-3.6 22.1-3.6s21.7 3.5 22.1 3.6c2.3.9 3.5 3.4 2.6 5.7-.6 1.8-2.3 2.9-4.1 2.9zM90.3 411.8h112.1v36.8H90.3zM98.1 179.3h16.1v232.4H98.1z"/><g><path fill="#5B5B5B" d="M91 192.8c-3.2 0-6.3-1.9-7.5-5.1-1.6-4.1.4-8.8 4.6-10.4 31.6-12.4 65.1-18.7 99.3-18.7 5.1 0 10.3.1 15.4.4 4.4.2 7.8 4 7.6 8.5-.2 4.4-4 7.8-8.5 7.6-4.8-.3-9.7-.4-14.5-.4-32.3 0-63.7 5.9-93.5 17.6-.9.4-1.9.5-2.9.5z"/></g></svg>