<svg xmlns="http://www.w3.org/2000/svg" width="750" height="750" viewBox="585 165 750 750"><g fill="#5A5B5B"><path d="M1091.674 177.907h-263.36c-54.538 0-98.74 44.203-98.74 98.753v526.68c0 54.528 44.202 98.753 98.74 98.753h263.36c54.537 0 98.75-44.225 98.75-98.752V276.66c.002-54.55-44.212-98.753-98.75-98.753zM960 875.793c-20.81 0-37.674-16.864-37.674-37.672 0-20.81 16.864-37.673 37.675-37.673 20.81 0 37.673 16.864 37.673 37.675 0 20.81-16.862 37.673-37.67 37.673zm191.804-94.714h-383.6V269.656h383.6v511.42z"/><path d="M820.327 455.124l24.178 36.7H845l24.428-37.072v56.664h18.97v-86.794h-20.583L845 461.322l-22.813-36.7h-20.583v86.794h18.723m87.29-90.514h19.84v16.74h-19.84zm.497 24.055h18.846v66.46h-18.846zm112.336 42.653v-.248c0-11.655-6.2-17.482-16.244-21.327 6.2-3.472 11.407-8.927 11.407-18.723v-.248c0-13.64-10.91-22.442-28.642-22.442h-40.296v86.794h41.29c19.592 0 32.486-7.936 32.486-23.806zm-55.178-46.25h18.848c8.06 0 12.522 3.225 12.522 8.928v.248c0 6.447-5.33 9.176-13.763 9.176h-17.61v-18.35zm0 34.223h22.07c9.797 0 14.137 3.596 14.137 9.424v.247c0 6.448-5.086 9.424-13.52 9.424h-22.69v-19.095zm90.888 16.367h36.7l7.936 19.466h19.962l-37.197-87.414h-17.605l-37.197 87.414h19.468l7.934-19.467zm18.35-45.01l11.53 28.146h-23.062l11.53-28.146zM841.02 552.692l4.712 14.384c6.076-2.232 11.16-3.596 18.352-3.596 9.423 0 14.26 4.34 14.26 12.15v1.116c-4.712-1.61-9.548-2.73-16.243-2.73-15.745 0-26.78 6.697-26.78 21.204v.248c0 13.144 10.29 20.335 22.814 20.335 9.175 0 15.5-3.348 20.086-8.432v7.193h18.226V576c0-17.98-9.05-28.643-29.633-28.643-11.285.003-18.476 2.112-25.792 5.335zm37.57 38.438c0 6.82-5.95 11.656-14.755 11.656-6.074 0-10.29-2.978-10.29-8.06v-.248c0-5.95 4.96-9.176 13.02-9.176 4.588 0 8.802.992 12.026 2.48v3.348zm34.098-43.025v86.298h18.848v-28.52c4.463 5.333 10.663 9.92 20.706 9.92 15.748 0 30.255-12.15 30.255-34.346v-.247c0-22.194-14.756-34.346-30.255-34.346-9.795 0-16.12 4.588-20.706 10.787v-9.545h-18.848zm34.72 14.754c8.802 0 16.242 7.314 16.242 18.35v.247c0 11.16-7.44 18.35-16.243 18.35-8.804 0-16.12-7.313-16.12-18.35v-.247c0-11.034 7.317-18.35 16.12-18.35zm88.53-15.995c-9.797 0-16.12 4.588-20.707 10.787v-9.547h-18.847v86.298h18.85v-28.52c4.462 5.333 10.66 9.92 20.705 9.92 15.747 0 30.254-12.15 30.254-34.346v-.247c0-22.193-14.754-34.345-30.253-34.345zm11.406 34.593c0 11.16-7.44 18.35-16.243 18.35-8.803 0-16.117-7.313-16.117-18.35v-.247c0-11.033 7.314-18.35 16.12-18.35 8.802 0 16.242 7.316 16.242 18.35v.25z"/></g></svg>