<svg xmlns="http://www.w3.org/2000/svg" width="750" height="750" viewBox="0 0 750 750"><g fill="#5A5B5B"><path d="M570.982 483.218l-74.76-74.76h37.904c2.022 0 3.846-1.22 4.62-3.088.773-1.868.346-4.02-1.085-5.45l-74.754-74.75h37.904c2.022 0 3.846-1.217 4.62-3.085.773-1.87.346-4.02-1.085-5.45l-83.29-83.285c-1.952-1.952-5.12-1.952-7.07 0l-13.12 13.12c-1.954 1.953-1.954 5.12 0 7.07 1.95 1.953 5.118 1.953 7.07 0l9.584-9.584 71.22 71.215h-37.905c-2.022 0-3.846 1.22-4.62 3.087-.773 1.87-.346 4.02 1.085 5.45l74.755 74.75H484.15c-2.02 0-3.845 1.217-4.618 3.085-.774 1.87-.347 4.02 1.084 5.45l74.76 74.76h-104.54c-2.762 0-5 2.238-5 5v52.354c0 2.762 2.238 5 5 5s5-2.238 5-5v-47.354h111.61c2.023 0 3.847-1.218 4.62-3.087.774-1.867.346-4.018-1.084-5.447z"/><path d="M482.427 465.76c2.762 0 5-2.237 5-5 0-1.516-.675-2.874-1.74-3.79l-74.5-74.505h37.92c2.762 0 5-2.24 5-5 0-1.517-.675-2.875-1.74-3.792l-74.495-74.5h37.92c2.762 0 5-2.238 5-5 0-1.516-.675-2.874-1.74-3.79l-83.035-83.025c-1.953-1.952-5.117-1.952-7.07 0l-83.29 83.28c-1.432 1.43-1.86 3.582-1.085 5.45.773 1.87 2.597 3.087 4.62 3.087h37.903L212.34 373.93c-1.43 1.43-1.857 3.58-1.084 5.45.774 1.867 2.597 3.086 4.62 3.086h37.904l-74.76 74.76c-1.43 1.43-1.857 3.58-1.084 5.45.774 1.868 2.597 3.086 4.62 3.086h111.61v73.345c0 2.762 2.24 5 5 5h66.637c2.762 0 5-2.238 5-5v-73.345H482.41c.004-.002.012-.002.017 0z"/><path d="M395.327 476.328c-2.762 0-5 2.238-5 5v57.778c0 2.762 2.238 5 5 5s5-2.238 5-5v-57.778c0-2.762-2.238-5-5-5z"/></g></svg>