<svg xmlns="http://www.w3.org/2000/svg" width="750" height="750" viewBox="585 165 750 750"><g fill="#5A5B5B"><path d="M1061.48 441.128H858.52c-3.312 0-6 2.687-6 6v304.448c0 3.313 2.688 6 6 6h59.603c3.313 0 6-2.688 6-6v-124.09h71.754v124.09c0 3.313 2.687 6 6 6h59.602c3.312 0 6-2.688 6-6V447.128c0-3.313-2.688-6-6-6zm-6 304.448h-47.603v-124.09c0-3.314-2.687-6-6-6h-83.754c-3.313 0-6 2.686-6 6v124.09H864.52V453.128h190.958v292.448zM839.672 538.7c0-3.314-2.686-6-6-6H638.174c-3.314 0-6 2.686-6 6v212.876c0 3.313 2.686 6 6 6h195.498c3.314 0 6-2.688 6-6 0-3.314-2.686-6-6-6H644.174V544.7h189.498c3.314 0 6-2.688 6-6z"/><path d="M679.6 561.58c-3.314 0-6 2.686-6 6v107.818c0 3.313 2.686 6 6 6h42.984c3.314 0 6-2.688 6-6V567.58c0-3.314-2.686-6-6-6H679.6zm36.984 107.818H685.6V573.58h30.984v95.818zM756.71 561.58c-3.314 0-6 2.686-6 6v107.818c0 3.313 2.686 6 6 6h42.99c3.312 0 6-2.688 6-6V567.58c0-3.314-2.688-6-6-6h-42.99zm36.99 107.818h-30.99V573.58h30.99v95.818zM1281.838 532.7h-195.504c-3.313 0-6 2.686-6 6 0 3.312 2.687 6 6 6h189.504v200.876h-189.504c-3.313 0-6 2.686-6 6 0 3.313 2.687 6 6 6h195.504c3.313 0 6-2.688 6-6V538.7c0-3.315-2.687-6-6-6z"/><path d="M1240.412 681.398c3.313 0 6-2.688 6-6V567.58c0-3.314-2.687-6-6-6h-42.99c-3.313 0-6 2.686-6 6v107.818c0 3.313 2.687 6 6 6h42.99zm-36.99-107.818h30.99v95.818h-30.99V573.58zM1163.297 681.398c3.313 0 6-2.688 6-6V567.58c0-3.314-2.687-6-6-6h-42.99c-3.313 0-6 2.686-6 6v107.818c0 3.313 2.687 6 6 6h42.99zm-36.99-107.818h30.99v95.818h-30.99V573.58zM1288.693 506.917h-202.36c-3.312 0-6 2.687-6 6s2.688 6 6 6h202.36c3.313 0 6-2.687 6-6s-2.686-6-6-6zM833.672 506.917H631.307c-3.313 0-6 2.687-6 6s2.687 6 6 6h202.365c3.313 0 6-2.687 6-6s-2.687-6-6-6zM891.006 573.58h54.246c3.313 0 6-2.688 6-6v-92c0-3.312-2.687-6-6-6h-54.246c-3.313 0-6 2.688-6 6v92c0 3.313 2.686 6 6 6zm6-91.998h42.246v80h-42.246v-80zM974.76 573.58h54.246c3.313 0 6-2.688 6-6v-92c0-3.312-2.687-6-6-6H974.76c-3.313 0-6 2.688-6 6v92c0 3.313 2.686 6 6 6zm6-91.998h42.246v80H980.76v-80zM1064.168 304.988c-6.646-3.333-13.595-4.953-21.243-4.953-12.214 0-24.077 4.212-35.55 8.285-10.997 3.905-21.386 7.593-31.533 7.593-4.478 0-8.62-.744-12.57-2.243-.16-3.17-2.773-5.696-5.984-5.696-3.313 0-6 2.687-6 6v74.657l-94.5 28.526c-3.172.958-4.968 4.306-4.01 7.478.783 2.594 3.165 4.268 5.742 4.268.574 0 1.158-.083 1.736-.257l97.077-29.303 102.496 29.327c3.185.91 6.506-.933 7.418-4.12.91-3.185-.933-6.506-4.118-7.418l-99.842-28.568v-8.81c4.006 1.085 8.163 1.64 12.555 1.638 12.214 0 24.076-4.212 35.548-8.285 11-3.905 21.39-7.593 31.536-7.593 5.737 0 10.927 1.204 15.864 3.68 1.86.932 4.068.834 5.84-.258 1.772-1.093 2.85-3.025 2.85-5.106v-53.48c0-2.27-1.283-4.345-3.312-5.362zm-88.326 22.925c12.215 0 24.077-4.212 35.55-8.285 10.997-3.905 21.386-7.593 31.533-7.593 4.47 0 8.608.73 12.554 2.225v14.126c-16.548-4.525-32.553 1.148-48.105 6.67-15.407 5.47-30.023 10.65-44.087 5.356v-14.118c4.004 1.085 8.164 1.62 12.554 1.62zm67.083 25.6c-12.215 0-24.078 4.213-35.55 8.286-10.998 3.904-21.387 7.592-31.533 7.592-4.47 0-8.608-.73-12.554-2.225v-14.14c4.212 1.152 8.39 1.66 12.534 1.66 12.13 0 23.977-4.206 35.567-8.322 15.408-5.47 30.025-10.652 44.088-5.356v14.123c-4.003-1.086-8.164-1.62-12.553-1.62z"/></g></svg>