<svg xmlns="http://www.w3.org/2000/svg" width="750" height="750" viewBox="585 165 750 750"><g fill="#5A5B5B"><path d="M1144.23 344.905h-88.48c-3.313 0-6 2.687-6 6 0 3.314 2.687 6 6 6h88.48c5.473 0 9.925 4.45 9.925 9.92V748.39c0 5.474-4.452 9.925-9.924 9.925H624.02c-5.472 0-9.924-4.45-9.924-9.924V366.825c0-5.47 4.452-9.92 9.924-9.92h361.197c3.313 0 6-2.685 6-6 0-3.312-2.687-6-6-6H624.018c-12.09 0-21.924 9.834-21.924 21.92V748.39c0 12.09 9.835 21.925 21.924 21.925H784.38l-19.978 57.6c-.636 1.834-.346 3.863.78 5.445 1.126 1.582 2.947 2.52 4.89 2.52h228.127c3.313 0 6-2.687 6-6 0-.864-.183-1.685-.512-2.427l-19.818-57.14h160.362c12.09 0 21.924-9.833 21.924-21.923V366.824c0-12.086-9.836-21.92-21.925-21.92zM989.748 823.88H778.502l18.58-53.565h174.084l18.58 53.566z"/><path d="M981.616 373.64c0-3.312-2.687-6-6-6H630.84c-3.313 0-6 2.688-6 6v367.922c0 3.313 2.687 6 6 6h506.57c3.312 0 6-2.688 6-6v-367.92c0-3.314-2.688-6-6-6h-93.492c-3.313 0-6 2.686-6 6s2.687 6 6 6h87.49v355.92H636.84v-355.92h338.776c3.314 0 6-2.687 6-6z"/><path d="M766.526 684.152H993.62c23.256 0 42.176-18.918 42.176-42.172 0-23.256-18.92-42.176-42.176-42.176H766.526c-23.253 0-42.17 18.92-42.17 42.176 0 23.254 18.917 42.172 42.17 42.172zm0-72.347H993.62c16.64 0 30.176 13.537 30.176 30.176 0 16.638-13.537 30.173-30.176 30.173H766.526c-16.637 0-30.17-13.535-30.17-30.172 0-16.638 13.534-30.175 30.17-30.175z"/><path d="M766.53 666.53c13.536 0 24.548-11.013 24.548-24.55 0-13.535-11.013-24.55-24.55-24.55-13.535 0-24.548 11.015-24.548 24.55 0 13.538 11.013 24.55 24.55 24.55zm0-37.098c6.92 0 12.548 5.63 12.548 12.55s-5.63 12.548-12.55 12.548c-6.918 0-12.548-5.63-12.548-12.55s5.63-12.548 12.55-12.548zM994.623 666.527c13.538 0 24.553-11.012 24.553-24.547s-11.015-24.547-24.553-24.547c-13.535 0-24.547 11.012-24.547 24.547s11.012 24.547 24.547 24.547zm0-37.093c6.922 0 12.553 5.63 12.553 12.547s-5.63 12.548-12.553 12.548c-6.918 0-12.547-5.63-12.547-12.547s5.63-12.546 12.547-12.546zM808.265 636.852h149.182c3.313 0 6-2.688 6-6 0-3.314-2.687-6-6-6H808.265c-3.314 0-6 2.686-6 6 0 3.312 2.686 6 6 6zM808.265 660.04h149.182c3.313 0 6-2.69 6-6 0-3.315-2.687-6-6-6H808.265c-3.314 0-6 2.685-6 6 0 3.312 2.686 6 6 6zM948.784 446.475c-.76-2.542-3.097-4.284-5.75-4.284h-141.74c-3.312 0-6 2.687-6 6V579.8c0 3.313 2.688 6 6 6h141.74c1.138 0 2.252-.324 3.212-.932l33.043-20.94c2.27-1.437 3.305-4.208 2.536-6.784l-10.703-35.847 88.585-205.587c1.31-3.043-.093-6.573-3.137-7.885-3.042-1.31-6.572.093-7.883 3.136l-82.912 192.424-9.82-32.89 78.035-170.83c1.376-3.015.05-6.575-2.965-7.952-3.017-1.377-6.574-.05-7.95 2.964L950.74 453.028l-1.956-6.553zm-7.49 127.326h-134V454.19h131.27l30.464 102.034-27.735 17.577z"/><path d="M920.81 459.944h-46.23c-3.313 0-6 2.687-6 6v48.054c0 3.313 2.687 6 6 6H935.218c3.313 0 6-2.687 6-6 0-.774-.146-1.514-.414-2.193l-14.246-47.582c-.76-2.54-3.097-4.28-5.747-4.28zM880.58 508v-36.055h35.764L927.138 508H880.58zM842.406 553.627c0 3.314 2.687 6 6 6h103.392c3.313 0 6-2.686 6-6 0-3.313-2.687-6-6-6H848.406c-3.313 0-6 2.687-6 6zM829.568 547.627H819.38c-3.313 0-6 2.688-6 6 0 3.314 2.687 6 6 6h10.188c3.313 0 6-2.686 6-6 0-3.313-2.686-6-6-6zM1044.153 300.828c4.91 3.09 10.56 4.725 16.34 4.725 10.633 0 20.356-5.365 26.01-14.35 9.025-14.33 4.71-33.332-9.618-42.354-4.91-3.095-10.563-4.73-16.345-4.73-10.628 0-20.35 5.364-26.007 14.348-9.02 14.33-4.705 33.333 9.62 42.36zm.535-35.967c3.446-5.472 9.372-8.74 15.852-8.74 3.516 0 6.955.997 9.95 2.883 8.728 5.497 11.357 17.074 5.858 25.81-3.444 5.473-9.372 8.74-15.855 8.74-3.515 0-6.954-.995-9.944-2.877-8.73-5.502-11.358-17.082-5.862-25.815z"/><path d="M1096.816 271.494l168.626 50.676c.575.173 1.157.255 1.73.255 2.58 0 4.963-1.677 5.743-4.274.954-3.173-.846-6.52-4.02-7.472l-168.626-50.676c-3.173-.955-6.52.846-7.474 4.02-.953 3.172.847 6.518 4.02 7.472z"/><path d="M1322.59 349.786c-8.328-16.616-22.627-28.994-40.263-34.856-1.51-.5-3.157-.383-4.58.33-1.423.713-2.505 1.962-3.006 3.472l-14.34 43.156-10.655-23.18c-.72-1.565-2.078-2.746-3.73-3.24L1093.89 289.88c-3.18-.95-6.52.852-7.47 4.026-.95 3.174.85 6.52 4.024 7.47l149.53 44.808 14.885 32.378-7.817 23.524c-1.046 3.145.656 6.54 3.8 7.586 3.147 1.042 6.542-.656 7.587-3.802l25.712-77.37c12.016 5.417 21.733 14.716 27.72 26.663 6.894 13.75 8.017 29.36 3.164 43.954-4.848 14.594-15.09 26.427-28.84 33.32-13.753 6.893-29.364 8.017-43.957 3.167-3.142-1.044-6.54.656-7.586 3.802-1.045 3.145.657 6.54 3.802 7.586 7.21 2.396 14.623 3.585 22.006 3.585 10.677 0 21.29-2.488 31.112-7.413 16.616-8.33 28.993-22.628 34.852-40.263 5.864-17.633 4.506-36.497-3.823-53.114z"/><path d="M1239.683 426.6c4.704 1.944 10.36 2.414 10.99 2.46.152.012.304.018.455.018 3.11 0 5.74-2.4 5.977-5.552.248-3.304-2.23-6.184-5.534-6.432-1.1-.082-4.8-.55-7.305-1.585-3.06-1.265-6.57.19-7.836 3.253-1.267 3.063.19 6.57 3.253 7.837z"/></g></svg>