<svg xmlns="http://www.w3.org/2000/svg" width="750" height="750" viewBox="585 165 750 750"><g fill="#5A5B5B"><path d="M857.442 390.836c35.157-39.184 85.487-61.658 138.086-61.658 30.44 0 60.63 7.537 87.31 21.795 2.922 1.562 6.56.46 8.12-2.463 1.563-2.923.46-6.558-2.463-8.12-28.414-15.186-60.562-23.212-92.967-23.212-56.002 0-109.588 23.926-147.018 65.644-2.213 2.466-2.007 6.26.46 8.473 1.145 1.028 2.577 1.534 4.004 1.534 1.645 0 3.284-.673 4.468-1.994zM870.497 651.58c-2.446-2.236-6.242-2.064-8.477.382-2.235 2.447-2.063 6.242.383 8.477 36.453 33.297 83.73 51.635 133.125 51.635 108.875 0 197.45-88.576 197.45-197.45 0-16.77-2.104-33.418-6.256-49.483-.83-3.208-4.106-5.137-7.31-4.308-3.21.83-5.14 4.102-4.31 7.31 3.9 15.086 5.876 30.724 5.876 46.48 0 102.258-83.193 185.45-185.45 185.45-46.392 0-90.796-17.222-125.03-48.495z"/><path d="M884.958 632.022v6.948c0 3.313 2.686 6 6 6h60.744c3.314 0 6-2.687 6-6v-5.7h130.773c3.313 0 6-2.686 6-6s-2.687-6-6-6H957.7V407.978h130.774c3.313 0 6-2.687 6-6s-2.687-6-6-6H957.7v-5.7c0-3.313-2.685-6-6-6h-60.743c-3.314 0-6 2.687-6 6v5.42c-76.86 1.513-147.67 32.06-199.956 86.43-51.154 53.194-79.906 123.727-81.356 199.184h-8.85c-3.313 0-6 2.688-6 6v60.738c0 3.313 2.687 6 6 6H843.49c3.314 0 6-2.687 6-6V687.31c0-3.312-2.686-6-6-6h-7.826c2.79-25.882 23.408-46.497 49.294-49.288zm12-235.745h48.744V632.97h-48.744V396.277zm-59.468 345.77H600.796v-48.736H837.49v48.738zm-13.89-60.736H615.633c3.007-151.92 119.75-270.516 269.323-273.612v212.27c-32.51 2.873-58.487 28.835-61.358 61.343zM727.644 758.01c-2.84 1.71-3.755 5.397-2.046 8.236 11.76 19.536 17.976 36.408 17.976 48.792 0 15.076-12.257 27.34-27.324 27.34-15.074 0-27.337-12.264-27.337-27.34 0-8.254 9.798-25.007 17.672-38.47 2.53-4.323 4.917-8.406 7.092-12.34 1.604-2.9.553-6.55-2.347-8.154-2.9-1.603-6.55-.553-8.154 2.348-2.105 3.807-4.458 7.83-6.95 12.09-9.494 16.233-19.312 33.02-19.312 44.526 0 21.692 17.646 39.34 39.337 39.34 21.684 0 39.325-17.647 39.325-39.34 0-14.772-6.626-33.27-19.695-54.98-1.71-2.84-5.396-3.756-8.236-2.047zM1142.748 392.717c.876.38 17.027 7.243 41.125 10.492-.494.87-.78 1.876-.78 2.95 0 12.935 10.53 23.458 23.473 23.458 12.936 0 23.46-10.524 23.46-23.46 0-.914-.212-1.777-.577-2.552 14.3-1.78 27.99-5.413 40.88-10.872 2.22-.94 3.66-3.115 3.66-5.525 0-17.617-6.668-34.11-18.833-46.73v-33.947c0-26.796-21.798-48.596-48.59-48.596-26.8 0-48.604 21.8-48.604 48.596v33.95c-12.166 12.628-18.835 29.122-18.835 46.726 0 2.393 1.423 4.558 3.62 5.507zm75.276 13.442c0 6.318-5.14 11.458-11.46 11.458-6.324 0-11.47-5.14-11.47-11.46 0-.624-.097-1.227-.274-1.793 4.396.333 8.984.525 13.734.525h.007c3.252 0 6.475-.1 9.673-.28-.13.495-.21 1.013-.21 1.55zm-49.898-58.874c1.174-1.13 1.837-2.69 1.837-4.32v-36.432c0-20.18 16.42-36.596 36.603-36.596 20.176 0 36.59 16.417 36.59 36.596v36.432c0 1.63.665 3.19 1.84 4.323 9.995 9.62 15.896 22.26 16.855 35.937-16.517 6.415-34.42 9.664-53.288 9.664h-.007c-26.977 0-48.83-6.73-57.28-9.75.98-13.634 6.876-26.24 16.85-35.854z"/><path d="M1219.52 349.325c-.29-3.3-3.2-5.745-6.505-5.45-18.146 1.603-34.55-2.472-34.712-2.513-3.218-.82-6.473 1.125-7.29 4.333-.82 3.21 1.12 6.478 4.33 7.296.62.16 13.016 3.263 28.846 3.263 3.177 0 6.494-.125 9.882-.424 3.3-.292 5.74-3.205 5.448-6.505zM1228.68 354.542c.4 0 .807-.04 1.213-.124.15-.03 3.707-.77 7.32-2.163 3.09-1.192 4.63-4.666 3.437-7.757-1.192-3.09-4.67-4.63-7.757-3.438-2.635 1.016-5.352 1.59-5.42 1.605-3.244.67-5.332 3.84-4.665 7.083.584 2.84 3.083 4.794 5.872 4.794z"/><path d="M1206.565 455.542c61.618 0 111.75-50.136 111.75-111.76 0-61.623-50.132-111.756-111.75-111.756-61.626 0-111.762 50.133-111.762 111.755 0 61.626 50.136 111.762 111.762 111.762zm0-211.517c55.002 0 99.75 44.75 99.75 99.755 0 55.008-44.748 99.76-99.75 99.76-55.01 0-99.762-44.75-99.762-99.76 0-55.005 44.754-99.755 99.762-99.755z"/><path d="M1206.565 216.745c-28.122 0-54.77 9-77.062 26.025-19.746 15.08-34.82 35.93-42.963 59.25-29.714-12.792-61.77-19.53-93.138-19.53-41.666 0-82.57 11.107-118.29 32.12-34.667 20.39-63.67 49.55-83.874 84.324-1.665 2.865-.69 6.538 2.174 8.202 2.864 1.664 6.537.69 8.202-2.174 39.59-68.14 113.08-110.47 191.788-110.47 31.83 0 64.435 7.326 94.29 21.187 1.59.737 3.422.744 5.017.016 1.593-.727 2.79-2.115 3.274-3.8 14.094-48.957 59.565-83.15 110.58-83.15 63.43 0 115.036 51.604 115.036 115.036 0 59.933-46.755 110.33-106.442 114.735-1.73.128-3.32 1-4.36 2.387s-1.43 3.16-1.064 4.856c3.268 15.217 5.298 34.516 5.298 50.367 0 122.214-99.422 221.642-221.63 221.642-45.882 0-89.91-13.9-127.326-40.196-2.712-1.906-6.454-1.253-8.36 1.46-1.905 2.71-1.25 6.453 1.46 8.358 39.446 27.724 85.86 42.377 134.227 42.377 62.405 0 121.074-24.304 165.2-68.432 44.127-44.128 68.43-102.802 68.43-165.21 0-14.43-1.605-31.59-4.27-46.32 29.333-3.732 56.364-17.56 76.715-39.376 22.005-23.59 34.123-54.364 34.123-86.65.002-70.05-56.987-127.037-127.035-127.037z"/></g></svg>