<svg id="Layer_1" xmlns="http://www.w3.org/2000/svg" viewBox="0 0 750 750"><style>.st0{fill:#5A5B5B;}</style><path class="st0" d="M667.9 533.5h-205c-2.5 0-4.5-2-4.5-4.5v-44.8c0-2.5 2-4.5 4.5-4.5h93.6l-67-67c-1.3-1.3-1.7-3.2-1-4.9.7-1.7 2.3-2.8 4.1-2.8h34l-67-67c-1.3-1.3-1.7-3.2-1-4.9.7-1.7 2.3-2.8 4.1-2.8h34l-63.8-63.8-8.6 8.6c-1.7 1.7-4.6 1.7-6.3 0-1.7-1.7-1.7-4.6 0-6.3l11.8-11.8c1.7-1.7 4.6-1.7 6.3 0l74.6 74.6c1.3 1.3 1.7 3.2 1 4.9-.7 1.7-2.3 2.8-4.1 2.8h-34l67 67c1.3 1.3 1.7 3.2 1 4.9-.7 1.7-2.3 2.8-4.1 2.8h-34l67 67c1.3 1.3 1.7 3.2 1 4.9-.7 1.7-2.3 2.8-4.1 2.8h-100v35.8h200.5c2.5 0 4.5 2 4.5 4.5s-2 4.5-4.5 4.5z"/><path class="st0" d="M674.1 533.5h-178c-2.5 0-4.5-2-4.5-4.5v-44.8c0-2.5 2-4.5 4.5-4.5h122.6l-67-67c-1.3-1.3-1.7-3.2-1-4.9.7-1.7 2.3-2.8 4.1-2.8h34l-67-67c-1.3-1.3-1.7-3.2-1-4.9.7-1.7 2.3-2.8 4.1-2.8h34l-63.8-63.8-16.1 15.8c-1.8 1.7-4.6 1.7-6.3-.1-1.7-1.8-1.7-4.6.1-6.3l19.3-18.9c1.7-1.7 4.6-1.7 6.3 0l74.6 74.6c1.3 1.3 1.7 3.2 1 4.9-.7 1.7-2.3 2.8-4.1 2.8h-34l67 67c1.3 1.3 1.7 3.2 1 4.9-.7 1.7-2.3 2.8-4.1 2.8h-34l67 67c1.3 1.3 1.7 3.2 1 4.9-.7 1.7-2.3 2.8-4.1 2.8h-129v35.8h173.5c2.5 0 4.5 2 4.5 4.5-.1 2.5-2.1 4.5-4.6 4.5z"/><path class="st0" d="M386.7 537.8c-2.5 0-4.5-2-4.5-4.5V461c0-2.5 2-4.5 4.5-4.5h93.6l-67-67c-1.3-1.3-1.7-3.2-1-4.9.7-1.7 2.3-2.8 4.1-2.8h33.9l-67-67c-1.3-1.3-1.7-3.2-1-4.9.7-1.7 2.3-2.8 4.1-2.8h33.9l-63.8-63.8-63.8 63.8h34c1.8 0 3.4 1.1 4.1 2.8.7 1.7.3 3.6-1 4.9l-67 67h34c1.8 0 3.4 1.1 4.1 2.8.7 1.7.3 3.6-1 4.9l-67 67H327c2.5 0 4.5 2 4.5 4.5v68c0 2.5-2 4.5-4.5 4.5H144.2c-2.5 0-4.5-2-4.5-4.5s2-4.5 4.5-4.5h178.4v-59.1h-100c-1.8 0-3.4-1.1-4.1-2.8-.7-1.7-.3-3.6 1-4.9l67-67h-34c-1.8 0-3.4-1.1-4.1-2.8-.7-1.7-.3-3.6 1-4.9l67-67h-34c-1.8 0-3.4-1.1-4.1-2.8-.7-1.7-.3-3.6 1-4.9l74.6-74.6c1.7-1.7 4.6-1.7 6.3 0l74.6 74.6c1.3 1.3 1.7 3.2 1 4.9-.7 1.7-2.3 2.8-4.1 2.8h-33.9l67 67c1.3 1.3 1.7 3.2 1 4.9-.7 1.7-2.3 2.8-4.1 2.8h-33.9l67 67c1.3 1.3 1.7 3.2 1 4.9-.7 1.7-2.3 2.8-4.1 2.8h-100v67.8c-.5 2.5-2.5 4.6-5 4.6z"/><path class="st0" d="M413.2 537.8c-2.5 0-4.5-2-4.5-4.5v-53.9c0-2.5 2-4.5 4.5-4.5s4.5 2 4.5 4.5v53.9c0 2.4-2 4.5-4.5 4.5z"/><g><path class="st0" d="M159.3 395.5c-55.3 0-100.2-45-100.2-100.2 0-55.3 45-100.2 100.2-100.2 55.3 0 100.2 45 100.2 100.2.1 55.2-44.9 100.2-100.2 100.2zm0-191.6c-50.3 0-91.3 40.9-91.3 91.3 0 50.3 40.9 91.3 91.3 91.3 50.3 0 91.3-40.9 91.3-91.3 0-50.3-40.9-91.3-91.3-91.3z"/><path class="st0" d="M85.8 313.2l19.2-15.8c7.2-5.9 10-9.1 10-13.9 0-4.9-3.2-7.5-7.8-7.5-4.5 0-7.5 2.5-11.8 7.8l-8.9-7.2c5.7-7.8 11.2-12 21.5-12 12 0 19.9 7 19.9 17.8v.2c0 9.7-5 14.4-15.2 22.4l-9.4 7.3h25.2v11H85.8v-10.1zM137.6 294.6v-.2c0-16.8 10.4-29.9 25.8-29.9 15.3 0 25.6 13 25.6 29.7v.2c0 16.8-10.3 29.9-25.8 29.9s-25.6-13-25.6-29.7zm38.3 0v-.2c0-10.5-5.1-18.4-12.7-18.4s-12.5 7.7-12.5 18.2v.2c0 10.6 5 18.4 12.7 18.4 7.7 0 12.5-7.8 12.5-18.2zM199.1 263h12.5v32.1l14.7-16.1h15l-16.8 17.4 17.4 26.8h-14.4l-11.5-18-4.4 4.6v13.5h-12.5V263z"/></g></svg>