<svg id="Layer_1" xmlns="http://www.w3.org/2000/svg" viewBox="0 0 595.3 595.3"><style>.st0{fill:#616264;}</style><path class="st0" d="M566.9 137.6H153.8c-4.5 0-8.1 3.6-8.1 8.1s3.6 8.1 8.1 8.1h197.7V174c0 4.5 3.6 8.1 8.1 8.1s8.1-3.6 8.1-8.1v-20.1h191v231.8h-191v-20.1c0-4.5-3.6-8.1-8.1-8.1s-8.1 3.6-8.1 8.1v20.1H43.3V153.8h20.9c4.5 0 8.1-3.6 8.1-8.1s-3.6-8.1-8.1-8.1h-29c-4.5 0-8.1 3.6-8.1 8.1v248.2c0 4.5 3.6 8.1 8.1 8.1h531.7c4.5 0 8.1-3.6 8.1-8.1V145.7c0-4.5-3.6-8.1-8.1-8.1z"/><path class="st0" d="M359.5 301.1c-4.5 0-8.1 3.6-8.1 8.1v28.2c0 4.5 3.6 8.1 8.1 8.1s8.1-3.6 8.1-8.1v-28.2c0-4.5-3.6-8.1-8.1-8.1zM359.5 244.6c-4.5 0-8.1 3.6-8.1 8.1V281c0 4.5 3.6 8.1 8.1 8.1s8.1-3.6 8.1-8.1v-28.2c0-4.6-3.6-8.2-8.1-8.2zM359.5 191.2c-4.5 0-8.1 3.6-8.1 8.1v28.2c0 4.5 3.6 8.1 8.1 8.1s8.1-3.6 8.1-8.1v-28.2c0-4.5-3.6-8.1-8.1-8.1zM294.6 307.8H164.2c-3.6 0-6.5 3.6-6.5 8.1s2.9 8.1 6.5 8.1h123.7v21.6H92.6V324H105c3.6 0 6.5-3.6 6.5-8.1s-2.9-8.1-6.5-8.1H86.1c-3.6 0-6.5 3.6-6.5 8.1v38c0 4.5 2.9 8.1 6.5 8.1h208.5c3.6 0 6.5-3.6 6.5-8.1v-38c0-4.4-2.9-8.1-6.5-8.1zM294.6 239.8H164.2c-3.6 0-6.5 3.6-6.5 8.1s2.9 8.1 6.5 8.1h123.7v21.6H92.6V256H105c3.6 0 6.5-3.6 6.5-8.1s-2.9-8.1-6.5-8.1H86.1c-3.6 0-6.5 3.6-6.5 8.1v38c0 4.5 2.9 8.1 6.5 8.1h208.5c3.6 0 6.5-3.6 6.5-8.1v-38c0-4.5-2.9-8.1-6.5-8.1zM487.2 204.2c-1.4-.7-3.1-.7-4.5 0l-3.2 2c-24.1 14.4-54.5 14.4-78.6 0l-3.2-2c-1.4-.9-3.1-.9-4.5 0-1.4.7-2.3 2.3-2.3 4v63.5c0 27.5 20 51.4 46.9 56.8.7.2 1.8.4 2.5.4s2-.2 2.7-.4c27-5.4 46.6-29.3 46.6-57.6v-62.8c0-1.8-.9-3.2-2.4-3.9zm-77 55.5c-1.8-1.8-1.8-4.5 0-6.3 6.7-6.7 17.4-6.7 24.1 0 1.8 1.8 1.8 4.5 0 6.3s-4.5 1.8-6.3 0c-3.2-3.2-8.3-3.2-11.5 0-1.8 1.7-4.5 1.7-6.3 0zm50.8 28.6c-3.4 8.3-11.9 13.7-20.9 13.7s-17.1-5.4-20.5-13.7c-.9-2.3.2-4.9 2.3-5.8 2.3-.9 4.9.2 5.8 2.3 2.2 5 7 8.1 12.4 8.1s10.6-3.2 12.6-8.1c.9-2.3 3.6-3.2 5.8-2.3 2.5 1 3.4 3.5 2.5 5.8zm9.3-28.6c-1.8 1.8-4.5 1.8-6.3 0-3.2-3.2-8.3-3.2-11.5 0-1.8 1.8-4.5 1.8-6.3 0s-1.8-4.5 0-6.3c6.7-6.7 17.4-6.7 24.1 0 1.8 1.7 1.8 4.5 0 6.3z"/><path class="st0" d="M540.6 231.1c-1.4-.7-3.1-.7-4.5 0l-3.2 2c-10.4 6.3-22.5 9.9-34.5 10.6v26.8c0 10.6-2.5 20.5-6.8 29.5.7 0 1.4-.4 2.3-.4 9 0 17.1 5.4 20.5 13.7.9 2.3-.2 4.9-2.3 5.8-2.3.9-4.9 0-5.8-2.3-2.2-5-7-8.1-12.4-8.1s-10.3 3.2-12.4 8.1c-.7 1.8-2.5 2.7-4.3 2.7-5.9 5.8-12.8 10.4-20.5 13.7 8.5 11.2 20.7 19.2 34.7 21.9.7.2 1.8.4 2.5.4.5 0 1.8-.2 2.5-.4 27-5.4 46.6-29.7 46.6-57.9v-62.4c0-1.3-.9-2.9-2.4-3.7zm-7.9 42.7c-3.2 3.2-7.7 5-12.1 5-4.3 0-8.8-1.6-12.1-5-1.8-1.8-1.8-4.5 0-6.3s4.5-1.8 6.3 0c3.2 3.2 8.3 3.2 11.5 0 1.8-1.8 4.5-1.8 6.3 0 1.9 1.8 1.9 4.7.1 6.3z"/></svg>