<svg xmlns="http://www.w3.org/2000/svg" width="750" height="750" viewBox="585 165 750 750"><path fill="#5A5B5B" d="M1039 766.776H827.722V467.9h10.265v288.612H1039M885.487 336.424h110.75v20.53h-110.75zm0 75.31h207.245V422H885.487zm0 35.096h207.245v10.265H885.487zm0 35.085h207.245v10.265H885.487zm0 35.095h87.572v10.264h-87.574z"/><path fill="#5A5B5B" d="M885.487 585.4h207.245v10.264H885.487zm0 35.102h207.245v10.265H885.487zm0 35.088h207.245v10.264H885.487zm0 35.084H1008.3v10.265H885.486zm217.06-384.934h-231.02v10.266h223.656v50.37l46.89-.232v278.76h10.265V359.198l-49.79-53.457zm2.9 18.176l29.8 31.997-29.8.147v-32.144zm-271.33-88.562H660.66c-12.543 0-22.757 10.205-22.757 22.75V431.57c0 12.533 10.214 22.74 22.757 22.74h173.458c12.544 0 22.74-10.207 22.74-22.74V258.102c0-12.544-10.196-22.75-22.74-22.75zm0 210.152H660.66c-7.694 0-13.953-6.25-13.953-13.937V293.375h201.348V431.57c0 7.686-6.25 13.936-13.937 13.936z"/><path fill="#5A5B5B" d="M741.897 316.974h13.463v90.395h-19.49v-70.395l-15.642 3.847-4.103-16.156 25.772-7.693zM1307.888 685.026l-7.25-7.258-17.06-17.073-7.258-7.267-7.263 7.265-36.517 36.53c-18.604-27.253-49.9-45.152-85.388-45.152-57.07 0-103.34 46.28-103.34 103.357s46.27 103.355 103.34 103.355c57.076 0 103.33-46.277 103.33-103.354 0-4.142-.272-8.22-.746-12.233l50.897-50.913 7.255-7.254zm-145.7 131.226l-69.32-69.937 17.145-16.988 52.254 52.718 75.782-75.81 38.267-38.285 17.058 17.073-131.187 131.23z"/></svg>