<?xml version="1.0" encoding="utf-8"?>
<!-- Generator: Adobe Illustrator 18.0.0, SVG Export Plug-In . SVG Version: 6.00 Build 0)  -->
<!DOCTYPE svg PUBLIC "-//W3C//DTD SVG 1.1//EN" "http://www.w3.org/Graphics/SVG/1.1/DTD/svg11.dtd">
<svg version="1.1" id="Layer_1" xmlns="http://www.w3.org/2000/svg" xmlns:xlink="http://www.w3.org/1999/xlink" x="0px" y="0px"
	 viewBox="0 0 595.3 595.3" enable-background="new 0 0 595.3 595.3" xml:space="preserve">
<g>
	<path fill="#5B5B5B" d="M423,442.7H177.6c-29.1,0-38.5-9.4-38.5-38.5V158.9c0-16.5,4-38.5,38.5-38.5H423
		c22.7,0,38.5,15.8,38.5,38.5v245.3C461.4,438.7,439.5,442.7,423,442.7z M177.6,132.8c-21.8,0-26.1,9.6-26.1,26.1v245.3
		c0,22.4,3.7,26.1,26.1,26.1H423c16.5,0,26.1-4.3,26.1-26.1V158.9c0-15.8-10.2-26.1-26.1-26.1H177.6z"/>
	<polygon fill="#5B5B5B" points="292.6,165.8 274.2,165.8 255.9,217.5 290.2,217.5 	"/>
	<polygon fill="#5B5B5B" points="344.7,217.5 326.4,165.8 308.1,165.8 310.4,217.5 	"/>
	<path fill="#5B5B5B" d="M423,236.8H177.6c-12.9,0-12.9,0-12.9,12.9c0,12.9,0,12.9,12.9,12.9h12.9v25.8h25.8v-25.8h167.8v25.8h25.8
		v-25.8H423c12.9,0,12.9,0,12.9-12.9C435.9,236.8,435.9,236.8,423,236.8z"/>
	<polygon fill="#5B5B5B" points="203.5,394.9 284,394.9 287.7,282 239.6,282 	"/>
	<polygon fill="#5B5B5B" points="313,282 316.6,394.9 397.1,394.9 361,282 	"/>
</g>
</svg>
