<svg id="Layer_1" xmlns="http://www.w3.org/2000/svg" viewBox="0 0 595.3 595.3"><style>.st0{fill:#5A5B5B;}</style><path class="st0" d="M394.9 504.4h-45.4c-3.3 0-6-2.7-6-6s2.7-6 6-6h39.4V272.6H246.3v219.8h39.4c3.3 0 6 2.7 6 6s-2.7 6-6 6h-45.4c-3.3 0-6-2.7-6-6V266.6c0-3.3 2.7-6 6-6h154.6c3.3 0 6 2.7 6 6v231.8c0 3.3-2.7 6-6 6zM240.3 254.1c-2.6 0-5-1.7-5.7-4.3-1-3.2.8-6.5 4-7.5l75.2-22.7c1.1-.3 2.3-.3 3.4 0l79.4 22.7c3.2.9 5 4.2 4.1 7.4-.9 3.2-4.2 5-7.4 4.1l-77.7-22.2-73.6 22.2c-.6.2-1.2.3-1.7.3zM221.4 504.4H72.5c-3.3 0-6-2.7-6-6V336.3c0-3.3 2.7-6 6-6h148.9c3.3 0 6 2.7 6 6s-2.7 6-6 6H78.5v150.1h142.9c3.3 0 6 2.7 6 6s-2.7 6-6 6z"/><path class="st0" d="M136.8 446.4H104c-3.3 0-6-2.7-6-6v-82.1c0-3.3 2.7-6 6-6h32.7c3.3 0 6 2.7 6 6v82.1c.1 3.3-2.6 6-5.9 6zm-26.8-12h20.7v-70.1H110v70.1zM195.5 446.4h-32.7c-3.3 0-6-2.7-6-6v-82.1c0-3.3 2.7-6 6-6h32.7c3.3 0 6 2.7 6 6v82.1c0 3.3-2.7 6-6 6zm-26.8-12h20.7v-70.1h-20.7v70.1zM562.6 504.4H413.8c-3.3 0-6-2.7-6-6s2.7-6 6-6h142.9V342.3H413.8c-3.3 0-6-2.7-6-6s2.7-6 6-6h148.9c3.3 0 6 2.7 6 6v162.1c-.1 3.3-2.7 6-6.1 6z"/><path class="st0" d="M531.1 446.4h-32.7c-3.3 0-6-2.7-6-6v-82.1c0-3.3 2.7-6 6-6h32.7c3.3 0 6 2.7 6 6v82.1c0 3.3-2.7 6-6 6zm-26.7-12h20.7v-70.1h-20.7v70.1zM472.4 446.4h-32.7c-3.3 0-6-2.7-6-6v-82.1c0-3.3 2.7-6 6-6h32.7c3.3 0 6 2.7 6 6v82.1c0 3.3-2.7 6-6 6zm-26.8-12h20.7v-70.1h-20.7v70.1zM567.9 322.6H413.8c-3.3 0-6-2.7-6-6s2.7-6 6-6h154.1c3.3 0 6 2.7 6 6s-2.7 6-6 6zM221.4 322.6H67.2c-3.3 0-6-2.7-6-6s2.7-6 6-6h154.1c3.3 0 6 2.7 6 6s-2.6 6-5.9 6zM349.5 504.4c-3.3 0-6-2.7-6-6v-93.1h-51.8v93.1c0 3.3-2.7 6-6 6s-6-2.7-6-6v-99.1c0-3.3 2.7-6 6-6h63.8c3.3 0 6 2.7 6 6v99.1c0 3.3-2.7 6-6 6zM306.3 364.3H265c-3.3 0-6-2.7-6-6v-70.1c0-3.3 2.7-6 6-6h41.3c3.3 0 6 2.7 6 6v70.1c0 3.3-2.7 6-6 6zm-35.3-12h29.3v-58.1H271v58.1zM370.1 364.3h-41.3c-3.3 0-6-2.7-6-6v-70.1c0-3.3 2.7-6 6-6h41.3c3.3 0 6 2.7 6 6v70.1c0 3.3-2.7 6-6 6zm-35.3-12h29.3v-58.1h-29.3v58.1zM315.5 231.4c-3.3 0-6-2.7-6-6v-60.2c0-3.3 2.7-6 6-6s6 2.7 6 6v60.2c0 3.3-2.7 6-6 6z"/><path class="st0" d="M329.6 217.9c-5.5 0-11.2-1.1-16.8-3.9-2-1-3.3-3.1-3.3-5.4v-40.7c0-2.1 1.1-4 2.8-5.1 1.8-1.1 4-1.2 5.8-.3 10.9 5.5 22.6 1.3 35-3 13.5-4.8 28.9-10.3 44.4-2.4 2 1 3.3 3.1 3.3 5.4v40.7c0 2.1-1.1 4-2.8 5.1-1.8 1.1-4 1.2-5.8.3-10.9-5.5-22.6-1.3-35 3-8.6 3-17.9 6.3-27.6 6.3zm-8.1-13.2c10 3.3 20.6-.4 31.7-4.4 11-3.9 23.2-8.2 35.7-5.5v-28.3c-10-3.3-20.6.4-31.7 4.4-11 3.9-23.2 8.2-35.7 5.5v28.3z"/><path class="st0" d="M329.6 197.6c-5.5 0-11.1-1.1-16.7-3.9-3-1.5-4.2-5.1-2.7-8.1s5.1-4.2 8.1-2.7c10.9 5.5 22.6 1.3 35-3 13.5-4.8 28.9-10.3 44.4-2.4 3 1.5 4.1 5.1 2.7 8.1-1.5 3-5.1 4.1-8.1 2.7-10.9-5.5-22.6-1.4-35 3-8.8 3-18.1 6.3-27.7 6.3z"/><g><path class="st0" d="M125.6 302.8c-56.1 0-101.7-45.6-101.7-101.7S69.5 99.4 125.6 99.4 227.4 145 227.4 201.1s-45.7 101.7-101.8 101.7zm0-191.4c-49.5 0-89.7 40.3-89.7 89.7s40.3 89.7 89.7 89.7 89.7-40.3 89.7-89.7-40.2-89.7-89.7-89.7z"/></g><g><path class="st0" d="M80.8 227.8v-.3c0-14.3 6.5-22.8 19-28.5-9.1-5.6-15-13.2-15-25.7v-.3c0-18.1 16.5-32.4 41.4-32.4s41.4 14.2 41.4 32.4v.3c0 12.6-5.9 20.2-15 25.7 12 6.2 19 13.8 19 27.8v.3c0 21.9-19.3 34.7-45.5 34.7s-45.3-13.5-45.3-34zm65.9-2.1v-.3c0-9.1-8.6-14.5-20.4-14.5s-20.4 5.4-20.4 14.5v.3c0 8.1 7.6 14.6 20.4 14.6s20.4-6.4 20.4-14.6zm-3.5-49.7v-.3c0-7.2-6.2-13.8-16.8-13.8s-16.8 6.4-16.8 13.6v.3c0 8.2 6.5 14.5 16.8 14.5s16.8-6 16.8-14.3z"/></g></svg>