<svg width="545" height="545" viewBox="0 0 545 545" xmlns="http://www.w3.org/2000/svg"><title>GCBA-compromisos-icons-06</title><g fill="#5B5B5B" fill-rule="nonzero"><path d="M520.99 85.362C500.79 79.54 455.066 70 369.937 70c-85.13 0-130.853 9.54-151.05 15.362-7.684 2.23-12.888 9.54-12.888 17.84V419.25c0 4.46 3.47 8.052 7.683 8.052h15.24V466.7c0 4.583 3.718 8.3 8.303 8.3h33.705c4.586 0 8.303-3.717 8.303-8.3V427.3h181.534V466.7c0 4.583 3.717 8.3 8.302 8.3h33.704c4.585 0 8.302-3.717 8.302-8.3V427.3h15.24c4.338 0 7.684-3.593 7.684-8.053V103.202c-.124-8.3-5.328-15.61-13.01-17.84zM270.31 109.77c0-4.337 3.595-7.93 7.932-7.93h184.136c4.337 0 7.93 3.593 7.93 7.93v19.202c0 4.336-3.593 7.93-7.93 7.93H278.242c-4.337 0-7.93-3.594-7.93-7.93V109.77zm20.943 258.436c0 4.584-3.718 8.3-8.302 8.3h-42.626c-4.585 0-8.302-3.716-8.302-8.3v-17.22c0-4.585 3.717-8.302 8.302-8.302h42.627c4.585 0 8.303 3.717 8.303 8.3v17.222zm216.6 0c0 4.584-3.716 8.3-8.3 8.3h-42.627c-4.585 0-8.303-3.716-8.303-8.3v-17.22c0-4.585 3.718-8.302 8.303-8.302h42.626c4.585 0 8.302 3.717 8.302 8.3v17.222zm0-78.67c0 4.335-3.716 7.928-8.3 7.928H241.067c-4.585 0-8.303-3.593-8.303-7.93v-127.11c0-4.337 3.718-7.93 8.303-7.93h258.484c4.585 0 8.302 3.593 8.302 7.93v127.11z"/><path d="M483.55 281.718c-.62 0-1.24-.123-1.983-.37-.123 0-10.28-3.71-23.536-3.71-13.254 0-23.412 3.71-23.536 3.71-2.85 1.112-6.07-.372-7.06-3.216-1.116-2.844.37-5.935 3.22-7.048.495-.124 12.14-4.452 27.377-4.452 15.238 0 26.882 4.328 27.378 4.452 2.85 1.113 4.335 4.204 3.22 7.048-.743 2.226-2.85 3.586-5.08 3.586zM20 428.495h138.867V474H20v-45.505zM29.662 141h19.945v287.372H29.662V141z"/><path d="M20.98 158c-3.968 0-7.81-2.333-9.298-6.263-1.984-5.035.495-10.807 5.702-12.772C56.556 123.737 98.084 116 140.478 116c6.322 0 12.768.123 19.09.49 5.455.247 9.67 4.914 9.422 10.44-.248 5.403-4.96 9.58-10.537 9.333-5.95-.368-12.025-.49-17.975-.49-40.04 0-78.964 7.245-115.904 21.613-1.116.49-2.356.614-3.595.614z"/></g></svg>