<svg xmlns="http://www.w3.org/2000/svg" viewBox="0 0 595.3 595.3"><g fill="#5B5B5B"><path d="M355.2 188.5c10.6 0 19.2-8.6 19.2-19.2s-8.6-19.2-19.2-19.2-19.1 8.6-19.1 19.2 8.5 19.2 19.1 19.2zm-119.6 1.1c10.6 0 19.2-8.6 19.2-19.2s-8.6-19.2-19.2-19.2-19.1 8.6-19.1 19.2 8.5 19.2 19.1 19.2zm54 81.7l-22.1-18.2-22.9-52c0-.1-.1-.1-.1-.2l-.1-.1c-1.8-3.7-5.6-6.5-9.8-6.5h-15.2c-3.9 0-7.4 2.3-9.3 5.5-.3.4-.6.7-.9 1.1-34.3 48.7-24.5 19.4-29.7 76.9-.9 10.6 15.1 12.7 16 1.1l2.5-32.8 9.7-13.1.7 43.4-7.1 65.2-11.1 45.4c-3.4 13.9 17.5 19 20.9 5.1 0 0 9.8-39.9 10.3-42 1-4 1.2-5.2 1.6-8.9l3.5-31.9c.1-1.2 1.5-1.4 1.7 0l3.8 34v46.3c0 14.4 21.5 14.4 21.5 0v-43.5c0-4.7-.6-9.1-.6-9.1l-7.5-66.3c0-.3-.1-.6-.2-1v-24.3c6.1 11.4 8.1 16.2 11.2 20 3.6 4.5 8.9 7.5 23.4 19 8.7 7 19.8-5.5 9.8-13.1zm117.2.4L387.5 255l-23.6-53.9c0-.1 0-.1-.1-.2l-.1-.1c-1.8-3.7-5.6-6.5-9.8-6.5h-15.2c-3.9 0-7.4 2.3-9.3 5.5-.3.4-.6.7-.9 1.1-33.8 48-24.4 23.7-27.6 78.2 0 .8-.1 1.1-.1 1.9-.1 9.4 14.1 10 14.1.3l2.5-35.1 9.7-13.1.4 24.1-19.5 91.5h12.3l-7.5 39.1c-3.4 13.9 14.3 18.4 17.7 4.5l9.2-43.6h13.9l.9 41.2c0 14.4 18.3 14.4 18.3 0v-41.2h5c2.1 0 2.4-1.8 2.4-2.7-2.2-29.8-7.6-54.9-15.5-78.2v-22.2c6.1 11.3 7.3 14 10.4 17.8 3.6 4.5 8.9 7.5 23.4 19 8.5 6.7 18.3-3.1 8.3-10.7z"/><path d="M509.4 103H89.6c-19.3 0-35 15.7-35 35v272.1c0 19.3 15.7 35 35 35h419.8c19.3 0 35-15.7 35-35V138c-.1-19.3-15.7-35-35-35zm-12.9 320.5H102.4V124.6h394.1v298.9zm26-118.3c0 3-2.4 5.5-5.5 5.5-3 0-5.5-2.4-5.5-5.5v-62.4c0-3 2.4-5.5 5.5-5.5 3 0 5.5 2.4 5.5 5.5v62.4z"/></g></svg>