<svg xmlns="http://www.w3.org/2000/svg" viewBox="0 0 595.3 595.3"><path fill="#5B5B5B" d="M461.6 303.4H352.7v-72.6H134.9v192.7h145.2v-83.9h36.3v83.9h145.2V303.4zm-254.1 72.5h-36.3v-36.3h36.3v36.3zm0-72.5h-36.3v-36.3h36.3v36.3zm108.9 0h-36.3v-36.3h36.3v36.3zm108.9 72.5H389v-36.3h36.3v36.3z"/><path fill="#5B5B5B" d="M370.3 123.7c-14.9 0-14.9-14.9-37.2-14.9-11.2 0-21.9 3.3-29.8 6.5v-6.5c0-4.1-3.3-7.4-7.4-7.4-4.1 0-7.4 3.3-7.4 7.4v126.5h14.9v-52.1s7.4-14.9 29.8-14.9c14.9 0 14.9 14.9 37.2 14.9 22.3 0 29.8-14.9 29.8-14.9v-59.5c-.1 0-7.5 14.9-29.9 14.9zm14.9 32.5s0 7.4-14.9 7.4-22.3-14.9-37.2-14.9-29.8 11.2-29.8 11.2v-24.8s14.9-9.3 29.8-9.3 22.3 14.9 37.2 14.9c7.4 0 14.9-3.7 14.9-3.7v19.2z"/></svg>