<svg xmlns="http://www.w3.org/2000/svg" width="750" height="750" viewBox="585 165 750 750"><g fill="#5A5B5B"><path d="M662.67 732.64h594.59c3.314 0 6-2.688 6-6V367.27c0-10.784-8.752-19.56-19.51-19.56h-137.462c-3.313 0-6 2.688-6 6 0 3.315 2.687 6 6 6h137.46c4.143 0 7.513 3.392 7.513 7.56V720.64H668.67V367.272c0-4.168 3.403-7.56 7.587-7.56h131.895c3.314 0 6-2.687 6-6s-2.686-6-6-6H676.257c-10.8 0-19.588 8.774-19.588 19.56v359.366c0 3.314 2.685 6 6 6z"/><path d="M735.646 393.627c3.313 0 6-2.687 6-6s-2.687-6-6-6H698.41c-3.312 0-6 2.687-6 6V691.36c0 3.312 2.688 6 6 6h523.185c3.313 0 6-2.688 6-6V387.626c0-3.313-2.687-6-6-6h-45.328c-3.313 0-6 2.687-6 6s2.687 6 6 6h39.328V685.36H704.41V393.626h31.236zM1319.748 746.505c-.05-.33-.104-.658-.137-.993-.3-3.07-2.884-5.414-5.97-5.414H606.336c-3.143 0-5.753 2.426-5.984 5.56-.025.346-.08.684-.13 1.023-.12.814-.267 1.825-.267 2.992v10.758c0 24.832 23.007 24.832 38.23 24.832h643.62c15.226 0 38.237 0 38.237-24.832v-10.758c0-1.234-.163-2.306-.295-3.167zm-11.704 13.925c0 10.313-5.15 12.832-26.238 12.832H638.188c-21.083 0-26.23-2.52-26.23-12.832v-8.332h696.087v8.332z"/><path d="M745.597 407.063c0 2.255 1.264 4.32 3.273 5.345l208.407 106.33c.856.437 1.792.655 2.727.655.936 0 1.87-.218 2.727-.655l161.56-82.428v85.644c0 2.456 1.497 4.664 3.778 5.574 2.278.908 4.886.337 6.576-1.446l14.112-14.89 10.525 14.316c1.153 1.567 2.963 2.446 4.836 2.446.623 0 1.254-.098 1.87-.3 2.463-.808 4.13-3.107 4.13-5.7V412.928l1.02-.52c2.01-1.026 3.273-3.09 3.273-5.346 0-2.255-1.266-4.32-3.274-5.345L962.73 295.394c-1.714-.874-3.74-.875-5.454 0L748.87 401.718c-2.01 1.025-3.273 3.09-3.273 5.345zm412.517 96.602l-3.943-5.363c-1.052-1.432-2.686-2.324-4.46-2.434-1.776-.113-3.505.57-4.728 1.86l-8.694 9.174v-76.714l21.826-11.136v84.613zm-198.11-196.19l195.203 99.587-195.204 99.594L764.8 407.062l195.203-99.588z"/><path d="M1108.996 562.395v-94.48c0-2.106-1.103-4.057-2.906-5.142-1.804-1.086-4.045-1.146-5.903-.16l-140.18 74.304-141.967-75.452c-1.86-.988-4.1-.93-5.907.156-1.805 1.086-2.91 3.038-2.91 5.144v95.63c0 35.39 69.164 78.616 149.885 78.616 80.723 0 149.888-43.228 149.888-78.615zm-287.772 0v-85.647l135.963 72.26c1.76.935 3.87.935 5.625.004l134.184-71.126v84.51c0 12.635-15.326 29.265-39.046 42.367-28.31 15.637-63.41 24.248-98.843 24.248s-70.534-8.61-98.84-24.247c-23.718-13.103-39.043-29.734-39.043-42.368z"/></g></svg>