<?xml version="1.0" encoding="utf-8"?>
<!-- Generator: Adobe Illustrator 18.0.0, SVG Export Plug-In . SVG Version: 6.00 Build 0)  -->
<!DOCTYPE svg PUBLIC "-//W3C//DTD SVG 1.1//EN" "http://www.w3.org/Graphics/SVG/1.1/DTD/svg11.dtd">
<svg version="1.1" id="Layer_1" xmlns="http://www.w3.org/2000/svg" xmlns:xlink="http://www.w3.org/1999/xlink" x="0px" y="0px"
	 viewBox="0 0 595.3 595.3" enable-background="new 0 0 595.3 595.3" xml:space="preserve">
<g>
	<g>
		<path fill="#5B5B5B" d="M461.6,303.4H352.7v-72.6H134.9v192.7h145.2v-83.9h36.3v83.9h145.2V303.4z M207.5,375.9h-36.3v-36.3h36.3
			V375.9z M207.5,303.4h-36.3v-36.3h36.3V303.4z M316.4,303.4h-36.3v-36.3h36.3V303.4z M425.3,375.9H389v-36.3h36.3V375.9z"/>
	</g>
	<path fill="#5B5B5B" d="M370.3,123.7c-14.9,0-14.9-14.9-37.2-14.9c-11.2,0-21.9,3.3-29.8,6.5v-6.5c0-4.1-3.3-7.4-7.4-7.4
		c-4.1,0-7.4,3.3-7.4,7.4v126.5h14.9v-52.1c0,0,7.4-14.9,29.8-14.9c14.9,0,14.9,14.9,37.2,14.9c22.3,0,29.8-14.9,29.8-14.9v-59.5
		C400.1,108.8,392.7,123.7,370.3,123.7z M385.2,156.2c0,0,0,7.4-14.9,7.4c-14.9,0-22.3-14.9-37.2-14.9s-29.8,11.2-29.8,11.2v-24.8
		c0,0,14.9-9.3,29.8-9.3s22.3,14.9,37.2,14.9c7.4,0,14.9-3.7,14.9-3.7V156.2z"/>
</g>
</svg>
