<svg width="545" height="545" viewBox="0 0 545 545" xmlns="http://www.w3.org/2000/svg"><title>GCBA-compromisos-icons-08</title><g fill="#5B5B5B" fill-rule="nonzero"><path d="M270.864 142.102c-1.91 0-3.682-.137-5.455-.41-.683-6.003-2.32-11.733-4.774-16.918-8.318-17.738-25.772-30.427-46.363-31.518-.955 0-2.046-.137-3-.137-1.91 0-3.818.136-5.728.272C202.955 65.832 179.635 44 151.41 44 121.41 44 97 68.423 97 98.44c0 29.88 24.273 54.304 54.136 54.44-.136-1.773-.272-3.547-.272-5.457 0-1.774.136-3.684.272-5.458-24-.136-43.227-19.51-43.227-43.525 0-24.15 19.5-43.525 43.5-43.525 23.18 0 42 17.874 43.5 40.66-7.637 2.456-14.728 6.55-20.455 12.007-10.773 9.96-17.59 24.15-17.59 39.978 0 30.017 24.408 54.44 54.408 54.44 23.318 0 43.227-14.736 51-35.34 1.636-4.365 2.727-9.14 3.272-13.916 1.773.137 3.546.273 5.455.273-.136-1.773-.273-3.547-.273-5.457-.136-1.774 0-3.548.137-5.458zm-20.046 23.74c-6.954 15.01-21.954 25.243-39.545 25.243-24.137 0-43.5-19.512-43.5-43.525 0-12.28 5.045-23.196 13.09-31.11 3.82-3.683 8.32-6.82 13.228-8.868-2.317 11.188-8.863 20.74-18 26.88-1.5 4.092-2.317 8.46-2.317 13.098v.682c17.182-7.777 29.727-24.287 31.772-43.798 1.91-.273 3.82-.41 5.728-.41 1.227 0 2.59 0 3.818.137 14.865 1.23 27.546 9.96 34.365 22.24 2.045 3.685 3.68 7.778 4.5 12.144-10.228-4.366-18.41-12.69-22.773-22.922-3.955-2.456-8.318-4.23-12.955-5.048 4.228 18.83 18.41 34.11 36.682 39.84-.546 5.595-1.91 10.78-4.092 15.42z"/><path d="M390.616 44.136c-26.162 0-48.1 18.64-53.278 43.27 3.68.407 7.222 1.088 10.628 2.176 4.088-19.73 21.53-34.56 42.65-34.56 24.118 0 43.467 19.457 43.467 43.405 0 24.083-19.485 43.405-43.467 43.405-1.908 0-3.815-.136-5.723-.408-.545-5.17-1.77-10.07-3.68-14.696-7.902-19.32-26.706-33.064-48.644-33.744h-1.636c-1.908 0-3.816.136-5.723.272C322.623 65.77 299.32 44 271.116 44c-26.162 0-48.1 18.64-53.278 43.27 3.68.407 7.222 1.088 10.628 2.176 4.088-19.73 21.53-34.56 42.65-34.56 23.164 0 41.968 17.824 43.467 40.547-8.175 2.585-15.397 7.076-21.393 12.79-10.22 9.933-16.625 23.676-16.625 39.052 0 29.934 24.39 54.29 54.37 54.29 22.345 0 41.558-13.47 49.87-32.792 2.18-5.17 3.68-10.613 4.224-16.464 1.907.135 3.815.27 5.722.27 29.978 0 54.368-24.355 54.368-54.29-.136-29.798-24.527-54.154-54.504-54.154zm-21.12 123.004c-7.222 14.015-21.802 23.676-38.835 23.676-24.117 0-43.466-19.458-43.466-43.405 0-11.837 4.77-22.586 12.4-30.478 3.95-3.946 8.584-7.212 13.762-9.525-2.317 11.157-8.857 20.682-17.987 26.805-1.5 4.082-2.317 8.436-2.317 13.063v.68c17.17-7.756 29.705-24.22 31.75-43.678 1.906-.272 3.814-.408 5.722-.408.817 0 1.635 0 2.452.135 16.216.953 29.978 10.614 36.655 24.492 1.5 3.13 2.725 6.532 3.406 9.933-10.22-4.354-18.395-12.654-22.755-22.86-3.952-2.448-8.312-4.217-12.945-5.033 4.224 18.777 18.395 34.016 36.654 39.73-.272 5.988-1.908 11.703-4.497 16.873zm31.34 60.006H182l131.492 131.168 30.66 30.75h-55.596V502H514.75V371.104H545L400.836 227.146z"/><path d="M157 227L13 371.035h30.08V502h77.308v-83.18h62.064V502h88.47V371.035H301"/></g></svg>