<svg xmlns="http://www.w3.org/2000/svg" width="750" height="750" viewBox="585 165 750 750"><g fill="#5A5B5B"><path d="M984.796 632.683h17.314c5.647 0 10.24-4.59 10.24-10.23V608.2h1.858c5.503 0 9.98-4.558 9.98-10.16v-162.52c0-6.9-4.5-13.042-10.948-14.934l-.01-.003c-10.432-3.043-34.61-8.15-79.335-8.15-44.68 0-68.872 5.107-79.325 8.153-6.45 1.89-10.957 8.032-10.957 14.934v162.52c0 5.604 4.477 10.16 9.98 10.16h1.868v14.257c0 5.64 4.593 10.23 10.237 10.23h17.313c5.647 0 10.242-4.59 10.242-10.23v-14.256h81.3v14.256c.002 5.64 4.596 10.23 10.244 10.23zm-97.54-36.486c-3.314 0-6 2.687-6 6v18.485h-13.793v-18.485c0-3.313-2.687-6-6-6h-5.848v-160.68c0-1.61.96-3.017 2.323-3.417 9.83-2.865 32.77-7.67 75.958-7.67 43.22 0 66.142 4.802 75.964 7.667 1.37.403 2.328 1.808 2.328 3.42v160.68h-5.837c-3.312 0-6 2.688-6 6v18.486h-13.797v-18.485c0-3.313-2.687-6-6-6h-93.298z"/><path d="M882.697 460.816c3.313 0 6-2.687 6-6v-7.957h90.762v7.956c0 3.313 2.686 6 6 6s6-2.687 6-6v-9.896c0-5.547-4.512-10.06-10.056-10.06h-94.642c-5.55 0-10.065 4.512-10.065 10.06v9.896c0 3.314 2.687 6 6 6zM873.656 541.4H994.5c5.66 0 10.266-4.51 10.266-10.055V471.96c0-5.544-4.605-10.055-10.266-10.055H873.656c-5.66 0-10.267 4.51-10.267 10.055v59.385c0 5.546 4.605 10.056 10.266 10.056zm1.734-67.494h117.376V529.4H875.39v-55.494zM895.202 552.733h-21.92c-5.645 0-10.236 4.592-10.236 10.235v8.836c0 5.65 4.592 10.248 10.236 10.248h21.92c5.64 0 10.23-4.598 10.23-10.248v-8.836c0-5.643-4.59-10.235-10.23-10.235zm-1.77 17.32h-18.386v-5.32h18.386v5.32zM1004.766 571.805v-8.836c0-5.645-4.598-10.236-10.248-10.236H972.61c-5.645 0-10.236 4.592-10.236 10.235v8.835c0 5.65 4.592 10.248 10.236 10.248h21.907c5.65 0 10.25-4.598 10.25-10.248zm-12-1.752h-18.392v-5.32h18.392v5.32z"/><path d="M1076.145 724.242c-3.313 0-6 2.687-6 6 0 31.77-25.846 57.615-57.615 57.615H842.87c-31.765 0-57.608-25.846-57.608-57.615V349.758c0-31.77 25.843-57.615 57.61-57.615h169.658c31.77 0 57.614 25.846 57.614 57.615 0 3.314 2.687 6 6 6s6-2.686 6-6c0-38.386-31.23-69.615-69.614-69.615H842.87c-38.382 0-69.608 31.23-69.608 69.615v380.484c0 38.386 31.227 69.615 69.61 69.615h169.657c38.385 0 69.614-31.23 69.614-69.615 0-3.313-2.686-6-6-6z"/><path d="M1043.777 345.252c0-3.314-2.687-6-6-6H819.363c-3.313 0-6 2.686-6 6v370.646c0 3.313 2.687 6 6 6h218.414c3.313 0 6-2.687 6-6s-2.687-6-6-6H825.363V351.252h212.414c3.314 0 6-2.686 6-6zM897.557 750.37c-3.313 0-6 2.686-6 6s2.687 6 6 6h72.69c3.314 0 6-2.688 6-6s-2.686-6-6-6h-72.69zM1062.334 379.166v15.72c0 .172.007.342.02.513l17.07 199.47c.265 3.105 2.862 5.49 5.978 5.49h30.1c3.12 0 5.72-2.393 5.98-5.503l16.622-199.472c.014-.166.02-.332.02-.498v-15.72c0-3.315-2.686-6-6-6h-63.79c-3.313 0-6 2.685-6 6zm12 6h51.79v9.47l-16.143 193.723h-19.07l-16.576-193.73v-9.464zM1100.232 613.213c-25.644 0-46.506 20.862-46.506 46.506s20.862 46.505 46.506 46.505 46.506-20.862 46.506-46.506-20.862-46.507-46.506-46.507zm0 81.012c-19.026 0-34.506-15.48-34.506-34.506s15.48-34.507 34.506-34.507 34.506 15.48 34.506 34.506-15.48 34.505-34.506 34.505z"/></g></svg>