<?xml version="1.0" encoding="utf-8"?>
<!-- Generator: Adobe Illustrator 18.0.0, SVG Export Plug-In . SVG Version: 6.00 Build 0)  -->
<!DOCTYPE svg PUBLIC "-//W3C//DTD SVG 1.1//EN" "http://www.w3.org/Graphics/SVG/1.1/DTD/svg11.dtd">
<svg version="1.1" id="Layer_1" xmlns="http://www.w3.org/2000/svg" xmlns:xlink="http://www.w3.org/1999/xlink" x="0px" y="0px"
	 viewBox="0 0 595.3 595.3" enable-background="new 0 0 595.3 595.3" xml:space="preserve">
<g>
	<g>
		<path fill="#5B5B5B" d="M431.8,452.2H154.6c-25.9,0-47-21.1-47-47V127.9c0-25.9,21.1-47,47-47h277.2c25.9,0,47,21.1,47,47v277.2
			C478.8,431.1,457.7,452.2,431.8,452.2z M154.6,101c-14.8,0-26.9,12.1-26.9,26.9v277.2c0,14.8,12.1,26.9,26.9,26.9h277.2
			c14.8,0,26.9-12.1,26.9-26.9V127.9c0-14.8-12.1-26.9-26.9-26.9H154.6z"/>
	</g>
	<path fill="#5B5B5B" d="M316.6,415.7c3.2,2.1,6.8,3.1,10.4,3.1c6.3,0,12.5-3.1,16.1-8.8l27.4-42.4c4.6-7.1,3.9-16.1-1.2-22.4l0,0
		l-0.3-0.3v0L342,310.9l-29.9,24l18.8,23.4l-19.9,30.9C305.2,398,307.8,409.9,316.6,415.7z"/>
	<path fill="#5B5B5B" d="M200.9,304.4c4.2,0,8.4-1.6,11.6-4.8l28.7-28.7v13.7c0,6.1,4.9,11,11,11h82.2c6,0,11-4.9,11-11v-13.7
		l28.7,28.7c3.2,3.2,7.4,4.8,11.6,4.8c4.2,0,8.4-1.6,11.6-4.8c6.4-6.4,6.4-16.8,0-23.2l-58.1-58.1c-3.2-3.2-7.4-4.8-11.6-4.8H259
		c-4.2,0-8.4,1.6-11.6,4.8l-58.1,58.1c-6.4,6.4-6.4,16.8,0,23.2C192.5,302.8,196.7,304.4,200.9,304.4z"/>
	<circle fill="#5B5B5B" cx="293.2" cy="163" r="41.1"/>
	<path fill="#5B5B5B" d="M255.6,358.3l18.8-23.5l-29.9-23.9l-27.1,33.9c0,0,0,0,0,0l-0.3,0.3h0c-5,6.3-5.7,15.3-1.2,22.4l27.4,42.4
		c3.7,5.7,9.8,8.8,16.1,8.8c3.6,0,7.2-1,10.4-3.1c8.9-5.7,11.5-17.6,5.7-26.5L255.6,358.3z"/>
</g>
</svg>
