<svg id="Layer_1" xmlns="http://www.w3.org/2000/svg" viewBox="0 0 750 750"><style>.st0{fill:#5A5B5B;}</style><path class="st0" d="M108.5 525.8c-2.1 0-3.8-1.7-3.8-3.8V396.7c0-2.1 1.7-3.8 3.8-3.8 2.1 0 3.8 1.7 3.8 3.8V522c0 2-1.7 3.8-3.8 3.8zM446 360.7c-.6 0-1.2-.1-1.6-.3l-203.5-97.5-62.9 35.7c-1.8 1-4.2.5-5.2-1.4-1-1.8-.5-4.2 1.4-5.2l64.6-36.7c1-.6 2.4-.7 3.6-.1l205.3 98.3c1.8.9 2.7 3.2 1.7 5.1-.6 1.3-2 2.1-3.4 2.1zM385.2 526.9H277.7c-2.1 0-3.8-1.7-3.8-3.8V379.4h-64.6v142.4c0 2.1-1.7 3.8-3.8 3.8h-80.8c-2.1 0-3.8-1.7-3.8-3.8s1.7-3.8 3.8-3.8h77V375.6c0-2.1 1.7-3.8 3.8-3.8h72.2c2.1 0 3.8 1.7 3.8 3.8v143.7h99.8V356.9c0-2.1 1.7-3.8 3.8-3.8 2.1 0 3.8 1.7 3.8 3.8v166.2c.1 2.1-1.7 3.8-3.7 3.8z"/><path class="st0" d="M94.9 400.7c-47 0-85.1-38.2-85.1-85.1 0-47 38.2-85.1 85.1-85.1 47 0 85.1 38.2 85.1 85.1.1 46.9-38.1 85.1-85.1 85.1zm0-162.6c-42.7 0-77.4 34.7-77.4 77.4s34.7 77.4 77.4 77.4 77.4-34.7 77.4-77.4c.2-42.7-34.7-77.4-77.4-77.4z"/><path class="st0" d="M50.8 340.2c-4.4 0-8.2-.8-11.3-2.3-3.1-1.6-5.7-3.6-7.8-6.2l7.4-7c1.7 2 3.5 3.3 5.3 4.4s4 1.5 6.6 1.5c2.1 0 3.7-.6 5-1.6s2-2.5 2-4.3v-.1c0-2-.8-3.6-2.5-4.6s-4-1.6-7-1.6H44l-1.7-6.8L54 299.8H34.6v-9.3h33.2v8.1l-12.5 11.9c1.7.2 3.3.7 4.8 1.4 1.6.6 3 1.5 4.3 2.5 1.3 1 2.2 2.4 3 4s1.2 3.6 1.2 5.9v.1c0 2.3-.5 4.5-1.3 6.5s-2 3.6-3.6 5.1c-1.5 1.5-3.3 2.5-5.7 3.3-2 .5-4.4.9-7.2.9zM98 340.2c-3.2 0-6.2-.7-8.9-2s-5-3.1-6.9-5.3c-1.8-2.3-3.3-5-4.4-8.1-1-3.1-1.5-6.3-1.5-9.9v-.1c0-3.6.6-6.9 1.6-9.9 1-3.1 2.5-5.8 4.5-8.1s4.3-4 6.9-5.4c2.7-1.3 5.7-2 8.9-2s6.2.7 8.9 2 5 3.1 6.9 5.3c1.8 2.3 3.3 5 4.4 8.1 1 3.1 1.6 6.3 1.6 9.9v.1c0 3.6-.6 6.9-1.6 9.9-1 3.1-2.5 5.8-4.5 8.1s-4.3 4-6.9 5.4c-2.6 1.3-5.6 2-9 2zm.3-9.7c1.6 0 3.1-.3 4.4-1.2 1.3-.8 2.4-1.8 3.3-3.2.9-1.4 1.6-3 2.2-5 .5-1.8.7-3.9.7-6.2v-.1c0-2.2-.2-4.3-.8-6.2-.5-1.8-1.3-3.6-2.2-5-.9-1.4-2.1-2.5-3.5-3.3s-2.8-1.2-4.4-1.2-3.1.3-4.4 1.2c-1.3.8-2.4 1.8-3.3 3.2-.9 1.4-1.6 3-2.2 5-.5 1.8-.8 3.9-.8 6.2v.1c0 2.2.2 4.3.8 6.2.6 2 1.3 3.6 2.2 5 .9 1.4 2.1 2.4 3.3 3.2 1.5.8 3 1.3 4.7 1.3zM128.5 288.1h10.6v27.2l12.5-13.6h12.8l-14.3 14.8 14.8 22.7h-12.2l-9.8-15.3-3.7 3.9v11.4h-10.6v-51.1h-.1z"/><g><path class="st0" d="M315.6 284.1c-1.3 0-2.5-.7-3.3-1.8-1-1.8-.5-4.2 1.4-5.2l72.7-42.1c1-.6 2.4-.7 3.6-.1l83.1 39.8c1.8.9 2.7 3.2 1.7 5.1-.9 1.8-3.2 2.7-5.1 1.7l-81.2-38.9-71 41.1c-.7.3-1.4.4-1.9.4z"/></g><g><path class="st0" d="M734.8 364.9c-.6 0-1-.1-1.6-.3l-196.8-90.4L425 331.9c-1.8.9-4.2.2-5.1-1.6-.9-1.8-.2-4.2 1.6-5.1l113.1-58.5c1-.6 2.3-.6 3.3-.1l198.4 91.1c2 .9 2.8 3.1 1.8 5.1-.5 1.3-1.9 2.1-3.3 2.1z"/><path class="st0" d="M681.8 526.9H558.2c-2.1 0-3.8-1.7-3.8-3.8V379.4h-64.6v142.4c0 2.1-1.7 3.8-3.8 3.8h-80c-2.1 0-3.8-1.7-3.8-3.8s1.7-3.8 3.8-3.8h76.1V375.6c0-2.1 1.7-3.8 3.8-3.8h72.2c2.1 0 3.8 1.7 3.8 3.8v143.7h116V356.9c0-2.1 1.7-3.8 3.8-3.8s3.8 1.7 3.8 3.8v166.2c.1 2.1-1.7 3.8-3.7 3.8z"/></g></svg>