<svg xmlns="http://www.w3.org/2000/svg" viewBox="0 0 595.3 595.3"><path fill="#5B5B5B" d="M369.8 348.1H211.5V137h158.4m-49.1 256.3h-60.3v-15.1h60.3M351 91.7H230.3c-25 0-45.2 20.3-45.2 45.2v241.3c0 25 20.3 45.2 45.2 45.2H351c25 0 45.2-20.3 45.2-45.2V137c0-25-20.2-45.3-45.2-45.3z"/><path fill="#5B5B5B" d="M271.7 157.4c-10.5 0-18.9 8.4-18.9 18.9 0 10.5 8.4 18.9 18.9 18.9 10.5 0 18.9-8.4 18.9-18.9.1-10.5-8.4-18.9-18.9-18.9zm10.3 43.9c-3.5 0-9.2 1.3-13.9 4.6L238 227.3c-8.2 5.8-.7 16.1 7 11l19.7-13s13 27.9 8.1 40.9c-.2.4-.3.8-.3 1.2l-20.3 53.9c-2.3 6.2 2.1 9.9 6.7 9.9 3 0 5.8-1.8 7.2-5.2l25.2-59.7s4.6 27.8 23.2 27.8H340c7 0 7-7 7-7s0-7-7-7h-20.9c-9.9 0-9.3-14.9-9.3-23.2 0-13.9-9.3-37.1-9.3-37.1l27.8 18.5c8.4 5.6 15.7-4.3 7.5-10.4l-30.7-22c-5.6-4-7.4-4.6-13.9-4.6H282z"/></svg>