<svg xmlns="http://www.w3.org/2000/svg" viewBox="0 0 595.3 595.3"><g fill="#5B5B5B"><path d="M300 270.3c-35.5 0-67.7 14.4-91.2 37.6l-.7.7 29.6 29.6c.2-.3.5-.5.8-.7 15.9-15.7 37.6-25.4 61.6-25.4s45.8 9.7 61.7 25.4c.2.2.5.5.8.7l29.5-29.6c-.3-.2-.5-.5-.7-.7-23.6-23.2-55.9-37.6-91.4-37.6z"/><path d="M300 186.7c-58.6 0-111.7 23.8-150.3 62.2l-.7.7 29.5 29.5c.3-.2.5-.5.8-.7 31-30.8 73.7-49.9 120.7-49.9 47.1 0 89.8 19.1 120.7 49.9.3.2.5.5.7.7l29.6-29.5-.7-.7c-38.5-38.4-91.7-62.2-150.3-62.2z"/><path d="M509.4 189.8c-53.7-53.5-127.8-86.7-209.4-86.7-81.6 0-155.6 33.1-209.4 86.7l-.7.7 29.6 29.6c.2-.3.5-.5.7-.8 46.2-45.9 109.7-74.4 179.8-74.4 70.1 0 133.7 28.5 179.9 74.4.2.3.5.5.7.8l29.5-29.6c-.2-.2-.4-.5-.7-.7zM300.3 367.2c-18.6 0-33.6 15-33.6 33.6s15.1 33.6 33.6 33.6 33.6-15.1 33.6-33.6-15.1-33.6-33.6-33.6z"/></g></svg>