<svg xmlns="http://www.w3.org/2000/svg" width="750" height="750" viewBox="0 0 750 750"><g fill="#5A5B5B"><path d="M303.047 376.167H403.75c4.717 0 8.555-3.76 8.555-8.38v-49.486c0-4.62-3.838-8.378-8.555-8.378H303.047c-4.717 0-8.555 3.76-8.555 8.38v49.486c0 4.62 3.838 8.38 8.555 8.38zm1.445-56.245h97.813v46.245h-97.813v-46.245z"/><path d="M395.664 452.236h14.43c4.705 0 8.534-3.824 8.534-8.525v-11.88h1.548c4.585 0 8.315-3.797 8.315-8.466V287.93c0-5.75-3.75-10.868-9.123-12.445-.002 0-.005 0-.008-.002-8.69-2.537-28.838-6.792-66.113-6.792-37.24 0-57.396 4.256-66.104 6.795-5.376 1.576-9.13 6.693-9.13 12.444v135.434c0 4.67 3.73 8.467 8.314 8.467h1.558v11.88c0 4.702 3.827 8.526 8.53 8.526h14.43c4.705 0 8.534-3.824 8.534-8.525v-11.88h67.748v11.88c0 4.702 3.83 8.526 8.536 8.526zM314.38 421.83c-2.762 0-5 2.24-5 5v15.406h-11.494V426.83c0-2.76-2.238-5-5-5h-4.873v-133.9c0-1.343.8-2.514 1.937-2.847 8.188-2.387 27.3-6.392 63.298-6.392 36.03 0 55.132 4.005 63.312 6.393 1.138.338 1.933 1.508 1.933 2.847v133.9h-4.863c-2.762 0-5 2.24-5 5v15.406h-11.5V426.83c0-2.76-2.237-5-5-5h-77.75z"/><path d="M321 385.61h-18.266c-4.704 0-8.53 3.827-8.53 8.53v7.363c0 4.71 3.826 8.54 8.53 8.54H321c4.702 0 8.526-3.83 8.526-8.54v-7.363c0-4.703-3.824-8.53-8.525-8.53zm-1.473 14.434h-15.322v-4.434h15.322v4.434zM310.58 309.013c2.763 0 5-2.24 5-5v-6.63h75.636v6.63c0 2.76 2.238 5 5 5s5-2.24 5-5v-8.247c0-4.623-3.76-8.384-8.38-8.384H313.97c-4.626 0-8.39 3.76-8.39 8.384v8.247c0 2.762 2.24 5 5 5zM412.305 401.504v-7.363c0-4.702-3.83-8.53-8.54-8.53h-18.257c-4.703 0-8.53 3.828-8.53 8.53v7.364c0 4.71 3.827 8.54 8.53 8.54h18.257c4.71 0 8.54-3.83 8.54-8.54zm-10-1.46h-15.327v-4.434h15.327v4.434z"/><path d="M444.815 212.71c0-2.76-2.238-5-5-5H257.803c-2.762 0-5 2.24-5 5v308.872c0 2.762 2.238 5 5 5h182.012c2.762 0 5-2.238 5-5s-2.238-5-5-5H262.803V217.71h177.012c2.76 0 5-2.24 5-5z"/><path d="M471.787 528.535c-2.762 0-5 2.238-5 5 0 26.475-21.538 48.013-48.013 48.013h-141.38c-26.473 0-48.01-21.538-48.01-48.013v-317.07c0-26.474 21.537-48.013 48.01-48.013h141.38c26.476 0 48.014 21.54 48.014 48.013 0 2.76 2.238 5 5 5s5-2.24 5-5c0-31.988-26.024-58.013-58.013-58.013H277.393c-31.985 0-58.008 26.024-58.008 58.013v317.07c0 31.988 26.022 58.013 58.008 58.013h141.382c31.988 0 58.013-26.024 58.013-58.013 0-2.762-2.24-5-5-5z"/><path d="M322.964 550.307c-2.762 0-5 2.238-5 5s2.238 5 5 5h60.576c2.762 0 5-2.238 5-5s-2.238-5-5-5h-60.576zM460.28 240.97v13.102c0 .142.005.285.018.426l14.224 166.226c.22 2.586 2.386 4.573 4.98 4.573h25.084c2.6 0 4.767-1.993 4.982-4.585l13.853-166.226c.013-.138.02-.276.02-.415v-13.1c0-2.76-2.24-5-5-5h-53.16c-2.763 0-5 2.24-5 5zM491.86 436.01c-21.368 0-38.754 17.386-38.754 38.755s17.386 38.755 38.755 38.755 38.756-17.386 38.756-38.755-17.386-38.755-38.755-38.755z"/></g></svg>