<svg xmlns="http://www.w3.org/2000/svg" width="750" height="750" viewBox="0 0 750 750"><g fill="#5A5B5B"><path d="M290.433 304.474c.48 0 .965-.07 1.447-.215l80.897-24.42 85.414 24.44c2.65.758 5.423-.777 6.183-3.433.76-2.655-.776-5.423-3.432-6.183l-80.983-23.172v-34.98s5.444-10.888 21.777-10.888c10.89 0 10.89 10.89 27.222 10.89 16.338 0 21.777-10.89 21.777-10.89V182.07s-5.44 10.89-21.777 10.89c-10.89 0-10.89-10.89-27.222-10.89-8.17 0-16.006 2.402-21.777 4.795v-4.795c0-3.008-2.437-5.44-5.444-5.44s-5.444 2.433-5.444 5.44v88.444l-80.08 24.17c-2.643.8-4.14 3.59-3.34 6.232.65 2.163 2.635 3.558 4.783 3.558zm89.523-103.136s10.89-6.807 21.777-6.807 16.333 10.89 27.222 10.89c5.444 0 10.89-2.725 10.89-2.725v14.053s0 5.44-10.89 5.44-16.333-10.89-27.222-10.89-21.777 8.174-21.777 8.174v-18.134zM648.91 369.487H480.28c-2.763 0-5 2.24-5 5 0 2.762 2.237 5 5 5H648.91c2.762 0 5-2.238 5-5 0-2.76-2.24-5-5-5zM269.727 369.487H101.09c-2.762 0-5 2.24-5 5 0 2.762 2.238 5 5 5h168.637c2.76 0 5-2.238 5-5 0-2.76-2.24-5-5-5zM459.566 314.663h-169.13c-2.762 0-5 2.24-5 5V573.37c0 2.76 2.238 5 5 5h49.667c2.76 0 5-2.24 5-5v-92.49h59.795v92.49c0 2.76 2.238 5 5 5h49.668c2.762 0 5-2.24 5-5V319.662c0-2.76-2.24-5-5-5zm-101.856 33.71v66.666h-35.205v-66.666h35.205zm34.59 66.666v-66.666h35.205v66.665H392.3zM269.727 390.97H106.812c-2.76 0-5 2.24-5 5V573.37c0 2.762 2.24 5 5 5h162.915c2.76 0 5-2.238 5-5V395.97c0-2.76-2.24-5-5-5zM146.333 504.888v-79.85h25.82v79.85h-25.82zm64.258 0v-79.85h25.826v79.85H210.59zM643.198 390.97h-162.92c-2.762 0-5 2.24-5 5V573.37c0 2.762 2.238 5 5 5h162.92c2.762 0 5-2.238 5-5V395.97c0-2.76-2.238-5-5-5zm-129.61 113.917v-79.85h25.826v79.85H513.59zm64.264 0v-79.85h25.825v79.85h-25.825z"/></g></svg>