<svg xmlns="http://www.w3.org/2000/svg" viewBox="0 0 595.3 595.3"><path fill="#5B5B5B" d="M431.8 452.2H154.6c-25.9 0-47-21.1-47-47V127.9c0-25.9 21.1-47 47-47h277.2c25.9 0 47 21.1 47 47v277.2c0 26-21.1 47.1-47 47.1zM154.6 101c-14.8 0-26.9 12.1-26.9 26.9v277.2c0 14.8 12.1 26.9 26.9 26.9h277.2c14.8 0 26.9-12.1 26.9-26.9V127.9c0-14.8-12.1-26.9-26.9-26.9H154.6z"/><path fill="#5B5B5B" d="M316.6 415.7c3.2 2.1 6.8 3.1 10.4 3.1 6.3 0 12.5-3.1 16.1-8.8l27.4-42.4c4.6-7.1 3.9-16.1-1.2-22.4l-.3-.3-27-34-29.9 24 18.8 23.4-19.9 30.9c-5.8 8.8-3.2 20.7 5.6 26.5zM200.9 304.4c4.2 0 8.4-1.6 11.6-4.8l28.7-28.7v13.7c0 6.1 4.9 11 11 11h82.2c6 0 11-4.9 11-11v-13.7l28.7 28.7c3.2 3.2 7.4 4.8 11.6 4.8 4.2 0 8.4-1.6 11.6-4.8 6.4-6.4 6.4-16.8 0-23.2l-58.1-58.1c-3.2-3.2-7.4-4.8-11.6-4.8H259c-4.2 0-8.4 1.6-11.6 4.8l-58.1 58.1c-6.4 6.4-6.4 16.8 0 23.2 3.2 3.2 7.4 4.8 11.6 4.8z"/><circle fill="#5B5B5B" cx="293.2" cy="163" r="41.1"/><path fill="#5B5B5B" d="M255.6 358.3l18.8-23.5-29.9-23.9-27.1 33.9-.3.3c-5 6.3-5.7 15.3-1.2 22.4l27.4 42.4c3.7 5.7 9.8 8.8 16.1 8.8 3.6 0 7.2-1 10.4-3.1 8.9-5.7 11.5-17.6 5.7-26.5l-19.9-30.8z"/></svg>