<svg xmlns="http://www.w3.org/2000/svg" width="750" height="750" viewBox="585 165 750 750"><path fill="none" stroke="#5A5B5B" stroke-width="7.61" stroke-miterlimit="10" d="M899.12 738.344l-15.707 90.375h153.175l-16.653-90.377"/><path opacity=".6" fill="#5A5B5B" d="M678.42 738.344h563.162c12.62 0 22.838-10.22 22.838-22.824v-38.055H655.58v38.055c0 12.605 10.22 22.824 22.84 22.824"/><path fill="#5A5B5B" d="M1241.582 312.153H678.42c-12.62 0-22.84 10.23-22.84 22.84v342.472h608.84v-342.47c0-12.613-10.22-22.842-22.838-22.842zm-6.974 334.235H686.665V340.692h547.943v305.696z"/><path fill="none" stroke="#30241C" stroke-width="7.61" stroke-miterlimit="10" d="M807.79 570.437c0-8.4-6.808-15.208-15.216-15.208s-15.217 6.806-15.217 15.206c0 8.407 6.81 15.224 15.217 15.224s15.216-6.816 15.216-15.223zm-30.433-60.4c0-8.408-6.824-15.216-15.232-15.216s-15.216 6.81-15.216 15.218 6.806 15.224 15.214 15.224 15.232-6.815 15.232-15.223zm60.873 0c0-8.408-6.817-15.216-15.224-15.216-8.4 0-15.217 6.81-15.217 15.218s6.814 15.224 15.215 15.224c8.408 0 15.224-6.815 15.224-15.223zm-30.44-60.89c0-8.407-6.808-15.223-15.216-15.223s-15.217 6.816-15.217 15.224c0 8.408 6.81 15.216 15.217 15.216s15.216-6.808 15.216-15.216zm-60.88 0c0-8.407-6.817-15.223-15.218-15.223-8.407 0-15.224 6.816-15.224 15.224 0 8.408 6.817 15.216 15.224 15.216 8.4 0 15.217-6.808 15.217-15.216zm91.32-60.88c0-8.408-6.817-15.215-15.224-15.215-8.4 0-15.217 6.808-15.217 15.215 0 8.41 6.814 15.225 15.215 15.225 8.408 0 15.224-6.817 15.224-15.225zm304.413 0c0 8.41 6.823 15.225 15.233 15.225 8.407 0 15.215-6.816 15.215-15.225 0-8.408-6.806-15.215-15.213-15.215-8.41 0-15.233 6.807-15.233 15.215zm-136.978 228.31c0 8.406 6.816 15.23 15.217 15.23 8.407 0 15.23-6.824 15.23-15.23 0-8.41-6.823-15.218-15.23-15.218-8.4 0-15.217 6.805-15.217 15.215zm-91.33-304.424c0 8.417 6.816 15.233 15.233 15.233 8.407 0 15.215-6.816 15.215-15.233 0-8.4-6.808-15.208-15.215-15.208-8.417 0-15.232 6.81-15.232 15.208zm59.795-45.648c0 8.4 6.816 15.216 15.226 15.216 8.408 0 15.215-6.814 15.215-15.214 0-8.417-6.805-15.225-15.213-15.225-8.41 0-15.226 6.81-15.226 15.226zm0 76.105c0 8.4 6.816 15.216 15.226 15.216 8.408 0 15.215-6.816 15.215-15.216 0-8.408-6.805-15.224-15.213-15.224-8.41 0-15.226 6.816-15.226 15.224zm-90.235 273.966c0 8.407 6.817 15.23 15.224 15.23s15.215-6.823 15.215-15.23c0-8.41-6.808-15.217-15.217-15.217-8.408 0-15.225 6.805-15.225 15.215zm258.748-167.9c0 8.415 6.823 15.223 15.233 15.223 8.407 0 15.215-6.81 15.215-15.226 0-8.4-6.806-15.216-15.213-15.216-8.41-.002-15.233 6.814-15.233 15.215zm-60.873 0c0 8.415 6.817 15.223 15.225 15.223s15.217-6.81 15.217-15.226c0-8.4-6.81-15.216-15.217-15.216s-15.224 6.814-15.224 15.215zm0 60.88c0 8.41 6.817 15.224 15.225 15.224s15.217-6.816 15.217-15.225c0-8.408-6.81-15.216-15.217-15.216s-15.224 6.806-15.224 15.214zm91.32 0c0 8.41 6.817 15.224 15.218 15.224 8.407 0 15.217-6.816 15.217-15.225 0-8.408-6.81-15.216-15.217-15.216-8.4 0-15.217 6.806-15.217 15.214zm-91.32 60.88c0 8.408 6.817 15.225 15.225 15.225s15.217-6.814 15.217-15.222c0-8.4-6.81-15.208-15.217-15.208s-15.224 6.806-15.224 15.207zm-92.415-288.714v46.024m0 30.08v43.127m-59.787 0v-73.567m46.596 347.538c0-8.407-6.81-15.23-15.217-15.23-8.408 0-15.216 6.823-15.216 15.23 0 8.41 6.81 15.217 15.218 15.217s15.217-6.805 15.217-15.215zm-15.217-88.79v73.56M838.23 388.266h60.89v12.686m121.762 0v-12.686h121.76m-334.852 60.88h60.244m-90.677 0H746.91m30.447 60.89h30.433m30.44 0h29.804m-60.244 60.4h60.244m213.736 0h-28.54m119.86-60.882h-60.88m-30.44 0h-28.54m28.54-60.88h-28.54m89.413 0h-30.432M899.12 601.36v-15.7m121.762 15.7v-15.225"/><g fill="#5A5B5B"><path d="M957.076 543.063v-14.82h-10.4c3.503 6.023 7.3 11.09 10.4 14.82zm46.624-84.47c-8.227-10.12-19.94-17.284-33.294-19.667 3.977 4.726 9.002 11.476 13.328 19.666h19.967zm-46.624 0v-14.567c-3.057 3.677-6.79 8.653-10.253 14.566h10.253zm-20.7 31.14h20.7v-23.53H942.82c-3.304 7.085-5.84 15.075-6.445 23.53zm-19 38.51c8.354 10.397 20.368 17.728 34.07 20.022-4.028-4.778-9.16-11.656-13.543-20.022h-20.527zm34.07-89.42c-13.594 2.275-25.527 9.503-33.874 19.77h20.467c4.354-8.25 9.42-15.04 13.406-19.77zm-17 27.38h-22.072c-4 7.034-6.505 15.02-7.085 23.53h23.46c.52-8.44 2.713-16.38 5.695-23.53zm-5.696 31.142h-23.46c.574 8.412 3.024 16.312 6.942 23.287h22.108c-2.93-7.085-5.076-14.944-5.59-23.287zm13.956 23.287h14.37v-23.287h-20.698c.596 8.36 3.08 16.262 6.328 23.287zm27.702 27.528c13.46-2.402 25.253-9.667 33.49-19.917H983.87c-4.353 8.304-9.445 15.143-13.462 19.917zm17.03-27.528h21.604c3.92-6.975 6.37-14.875 6.942-23.287H993.03c-.514 8.343-2.662 16.202-5.592 23.287z"/><path d="M868.034 400.953v185.182h185.198V400.953H868.034zm92.94 155.69c-.03 0-.062.007-.093.007-.016 0-.033-.004-.052-.004-.063 0-.127.004-.19.004-34.795 0-63.103-28.31-63.103-63.11 0-34.795 28.308-63.103 63.103-63.103.063 0 .124.005.186.005.053 0 .105.002.157.004 34.64.186 62.76 28.415 62.76 63.094 0 34.686-28.125 62.917-62.764 63.102z"/><path d="M964.686 444.02v14.572h10.266c-3.468-5.917-7.207-10.896-10.266-14.572zm28.344 45.714h22.954c-.58-8.51-3.085-16.497-7.086-23.532H987.33c2.983 7.15 5.18 15.092 5.7 23.532zm-28.344 38.51v14.825c3.103-3.73 6.904-8.8 10.413-14.828h-10.415zm14.268-62.042h-14.27v23.532h20.718c-.603-8.456-3.142-16.446-6.448-23.532zm6.448 31.143h-20.717v23.287h14.385c3.25-7.025 5.737-14.928 6.332-23.287z"/></g></svg>