<svg xmlns="http://www.w3.org/2000/svg" width="750" height="750" viewBox="585 165 750 750"><g fill="#5A5B5B"><path opacity=".8" d="M1231.204 552.282l-35.938-35.932c.78 7.78 1.188 15.667 1.188 23.65 0 112.107-78.445 206.175-183.313 230.362L972.3 811.204l31.554 31.56C1151.86 821.43 1265.954 693.81 1265.954 540c0-7.278-.344-14.463-.853-21.617l-33.896 33.9z"/><path opacity=".4" d="M724.735 563.65c-.78-7.78-1.188-15.668-1.188-23.65 0-115.033 82.58-211.083 191.57-232.13l39.075-39.073-32.288-32.288C771.127 255.333 654.046 384.21 654.046 540c0 7.277.343 14.463.844 21.617l33.906-33.898 35.94 35.93z"/><path d="M943.363 304.196c5.505-.383 11.046-.65 16.645-.65 112.107 0 206.174 78.454 230.355 183.332l40.84 40.84 31.562-31.56c-21.335-148.002-148.947-262.112-302.757-262.112-5.237 0-10.43.133-15.604.398l34.353 34.353-35.394 35.4z"/><path opacity=".6" d="M983.666 775.266c-7.788.78-15.676 1.188-23.658 1.188-112.108 0-206.182-78.445-230.37-183.33l-40.842-40.84-31.56 31.56c21.343 148 148.946 262.11 302.77 262.11 7.278 0 14.464-.343 21.618-.843l-33.9-33.905 35.942-35.94z"/><path d="M1095.805 629.828L1010.2 592.02l-.297-5.887h45.954l1.25-3.323c.187-.5 4.58-12.51 5.3-40.324.485-19.108-1.484-36.36-5.752-51.45 7.112-8.123 12.328-18.686 7.565-30.272-4.377-10.647-11.538-13.876-17.34-14.213.15-2.11.22-3.485.236-3.767l-.157-.008c1.03-4.034 6.222-27.23-5.725-45.258-6.706-10.1-17.597-16.37-32.022-19.06-1.015-6.646-6.918-17.388-31.725-26.425-27.105-9.866-67.39-6.317-89.07 16.246l-.085-.094c-.29.282-.524.603-.798.884-.11.117-.242.195-.344.305l.032.03c-33.617 33.517-49.862 84.013-48.135 150.262 1.15 43.725 7.96 62.363 8.248 63.137l1.25 3.33h66.453l-.297 5.888-85.606 37.808-2.64 83.354s116.407 105.048 271.944 0l-2.633-83.354zm-212.24-138.635c-7.967-6.458-17.184-16.55-13.088-26.52 2.62-6.37 6.05-7.8 8.437-7.926.843 8.857 2.29 21.092 4.65 34.446zm4.91-43.226c18.278.696 73.886.313 107.012-26.628 5.753-.267 29.676.07 41.3 22.108-.42 6.778-3.085 43.92-12.296 75.935-8.685 30.186-54.396 42.56-62.02 44.422-7.63-1.86-53.333-14.236-62.02-44.422-7.91-27.47-11-58.79-11.976-71.416zm38.103 113.08c16.98 9.076 33.54 12.788 34.82 13.063l1.072.227 1.07-.227c1.283-.274 17.84-3.986 34.82-13.063l1.722 34.46-37.612 41.014-37.62-41.012 1.728-34.46zm121.85 14.822h-38.98v1.304l-1.094-22.132c11.555-7.88 21.905-18.568 26.002-32.83 1.533-5.315 2.86-10.725 4.065-16.12 2.058-1.25 5.686-3.62 9.69-6.863 3.01 12.805 4.438 27.174 4.03 42.99-.458 17.833-2.492 28.645-3.71 33.65zm6.294-111.196c4.136 10.054-5.37 20.28-13.392 26.746 2.392-13.456 3.846-25.784 4.7-34.688 2.258.046 5.963 1.266 8.692 7.942zm-22.07-61.52c5.237 7.882 6.254 17.443 5.988 24.925-12.204-13.604-28.613-16.543-38.042-16.998l1.837-5.902 5.24-16.793c11.5 2.18 19.888 7.13 24.977 14.768zm-176.7 172.715c-1.87-6.928-5.77-24.894-6.6-56.48-1.657-63.676 13.728-111.865 45.642-143.293 18.302-20.014 55.18-23.08 78.992-14.41 22.374 8.156 25.706 17.037 25.11 19.672l-9.96 31.997c-35.96 29.35-105.064 24.12-105.768 24.048l-5.84-.477.297 5.855c.008.28.086 1.665.234 3.776-5.754.414-12.775 3.713-17.09 14.204-9.006 21.953 17.684 40.333 25.51 45.15 1.204 5.457 2.556 10.937 4.103 16.3 4.097 14.26 14.448 24.947 26.002 32.828l-1.04 20.827h-59.593z"/></g></svg>