<svg xmlns="http://www.w3.org/2000/svg" width="750" height="750" viewBox="585 165 750 750"><path fill="#5B5B5B" d="M1199.443 661.35l84.745 152.877h-92.565l-60.548-152.878m-342.07 0l-60.52 152.877H635.81l84.746-152.878m360.934 79.394c-5.648 3.633-12.245 5.6-19.02 5.6-10.17 0-19.844-4.397-26.546-12.074l-39.56-45.428 9.915 125.385h92.67l-17.46-73.483z"/><path fill="#5A5B5B" d="M927.737 265.773c23.54 0 42.613 19.08 42.613 42.613s-19.072 42.622-42.613 42.622c-23.533 0-42.614-19.09-42.614-42.622s19.08-42.613 42.614-42.613m30.893 86.492c2.037 0 4.092.254 6.12.773 92.322 23.29 104.124 143.246 104.58 148.338 1.224 13.665-8.864 25.747-22.53 26.963-.76.07-1.503.102-2.246.102-12.703 0-23.533-9.685-24.714-22.58-.115-1.084-5.398-52.01-33-83.083v132.67l29.377 64.78 64.983 74.614c9.003 10.35 7.917 26.045-2.424 35.063-4.71 4.095-10.52 6.104-16.308 6.104-6.933 0-13.83-2.885-18.756-8.526L976.35 650.13c-1.583-1.83-2.896-3.866-3.884-6.062l-29.37-64.774C885.99 642.31 879.743 726.9 879.68 727.86c-.857 13.132-11.793 23.236-24.775 23.236-.525 0-1.06-.01-1.592-.044-13.674-.876-24.06-12.598-23.236-26.28.27-4.488 6.667-95.786 68.788-170.33v-93.434l-71.815 61.458c-4.693 4.013-10.44 5.976-16.155 5.976-7.005 0-13.964-2.95-18.874-8.688-8.93-10.428-7.706-26.114 2.714-35.037L942.51 358.25c4.552-3.892 10.265-5.985 16.12-5.985"/><path fill="#5B5B5B" d="M889.988 728.535c-1.205 18.444-16.614 32.893-35.082 32.893-.852 0-1.57-.02-2.252-.064-6.536-.418-12.547-2.615-17.6-6.082l-14.004 58.945h92.67l12.092-152.878h-19.668c-13.793 36.813-16.122 66.706-16.156 67.184z"/></svg>