<svg xmlns="http://www.w3.org/2000/svg" width="750" height="750" viewBox="585 165 750 750"><g fill="#5A5B5B"><path d="M1319.71 718.517l-84.12-34.32-1.188.586-1.69-30.558c11.407-7.702 21.66-18.197 25.683-32.188 1.54-5.335 2.87-10.778 4.072-16.19 6.623-3.97 34.32-22.16 25.39-43.877-4.356-10.62-11.607-13.53-17.202-13.598.058-.77.11-1.49.142-2.066.51-.025.987.01 1.496-.033 0 0 15.815-55.82-39.93-62.736l-4.524 14.51 4.44-14.233s5.125-14.752-29.89-27.513c-44.556-16.24-121.475 26.744-98.084 90.55l1.505.103c.025.44.06.9.102 1.438-5.562.16-12.652 3.128-16.95 13.59-8.78 21.384 17.97 39.37 25.103 43.703 1.204 5.46 2.56 10.963 4.106 16.356 4.022 13.99 14.276 24.478 25.683 32.187l-1.69 30.657-.176-.084-85.12 33.72-2.61 82.162h268.055l-2.603-82.165zm-39.764-153.287c4.607 11.222-6.7 22.285-15.055 28.6 2.627-14.384 4.184-27.647 5.053-36.904 2.332-.176 6.84.62 10.003 8.304zm-183.06 0c3.012-7.343 7.243-8.414 9.736-8.313.87 9.19 2.4 22.336 5 36.61-8.294-6.404-19.234-17.367-14.735-28.297zm29.513 54.432c-8.255-28.658-11.182-61.49-11.977-72.404 22.137.41 75.73-1.563 106.833-28.098v-.01c.017.034 14.45 23.66 40.967 26.87-.644 9.4-3.452 43.778-12.058 73.642-8.756 30.423-54.85 42.683-61.883 44.38-7.032-1.688-53.11-13.906-61.883-44.38zm24.11 69.317l1.638-29.746c17.01 9.332 33.96 13.12 35.24 13.396l.903.193.887-.193c1.29-.275 18.23-4.063 35.24-13.396l1.64 29.662-37.766 18.623-37.78-18.54zM797.523 684.497l-1.765-35.39c11.063-7.485 20.998-17.67 24.91-31.26 2.143-7.426 3.898-15.053 5.37-22.495 6.808-3.84 29.018-17.938 22.01-35-3.545-8.63-10.336-11.062-15.687-11.163.336-4.173.47-6.79.494-7.19l-8.555-.438c-.018.402-2.142 40.184-11.86 73.91-8.462 29.42-53.026 41.303-59.925 42.976-6.908-1.665-51.447-13.506-59.927-42.976-8.748-30.374-11.33-65.555-11.774-72.57 20.59.426 71.617-1.28 101.488-26.293l-.018.116s31.98-3.847 46.18 24.536c0 0 2.39-11.926.886-25.874 22.36-7.67 37.072 29.737 26.125 59.467-11.09 30.08 16.022 33.97 16.022 33.97 1.724-14.377 47.416-48.152 16.608-98.88-22.73-37.424-50.31-22.756-63.22-12.48-5.12-12.058-15.17-22.52-34.297-24.895l-.01.025c-3.42-4.783-10.627-10.646-25.672-16.123-30.773-11.223-77.78 7.317-92.632 41.57-12.587-10.277-40.785-26.233-63.94 11.9-30.81 50.73 14.877 84.504 16.6 98.88 0 0 27.12-3.89 16.03-33.97-11.063-30.046 4.065-68.013 26.828-59.274-.72 8.405.418 17.43 3.904 26.944 0 0 .302.026.51.034.06 1.004.193 3.304.47 6.682-5.536.27-12.285 2.803-15.696 11.122-7.01 17.052 15.21 31.15 22.01 34.99 1.472 7.442 3.23 15.07 5.37 22.494 3.912 13.59 13.847 23.775 24.91 31.26l-1.764 35.39-82.522 36.454-2.525 79.73h260.11l-2.518-79.73-82.53-36.45zm42.615-120.89c3.086 7.534-5.21 15.346-12.008 20.212 1.622-9.86 2.726-18.926 3.445-26.074 2.425-.127 6.38.56 8.563 5.86zm-175.246.008c2.023-4.908 5.845-5.87 8.563-5.88.72 7.15 1.822 16.225 3.445 26.094-6.798-4.877-15.094-12.688-12.008-20.215zm51.046 123.86l1.664-33.343c16.457 8.99 32.772 12.637 34.02 12.904l.895.192.894-.192c1.248-.268 17.564-3.913 34.02-12.904l1.666 33.343-36.578 39.873-36.58-39.873zM995.75 309.944V279.32H962.15v30.625c-40.01 7.826-70.214 43.05-70.214 85.348 0 48.068 38.962 87.013 87.022 87.013 48.05 0 87.005-38.944 87.005-87.013 0-42.298-30.197-77.522-70.212-85.35zm24.788 130.733l-51.665-40.467V286.035h20.162v104.357l43.93 34.43-12.427 15.855z"/></g></svg>