<!DOCTYPE svg PUBLIC "-//W3C//DTD SVG 1.1//EN" "http://www.w3.org/Graphics/SVG/1.1/DTD/svg11.dtd" [
	<!ENTITY ns_flows "http://ns.adobe.com/Flows/1.0/">
]><svg xmlns="http://www.w3.org/2000/svg" width="300" height="300" viewBox="-91.932 -11.543 300 300"><path fill="none" stroke="#5A5B5B" stroke-width="3" stroke-miterlimit="10" d="M71.024 51.604c-.108 0-.217-.006-.328-.006-33.838 0-61.39 26.854-62.552 60.404"/><path fill="#5A5B5B" d="M32.78 191.54v29.938c0 16.784 16.025 30.39 35.798 30.39 19.778 0 35.8-13.605 35.8-30.39V191.54H32.78zM59.766 252.83c0 4.862 3.946 8.81 8.813 8.81 4.87 0 8.814-3.947 8.814-8.81H59.766z"/><path fill="#5A5B5B" d="M31.62 190.38h73.92v18.472H31.62z"/><path fill="#FFF" d="M104.38 191.54v16.15h-71.6v-16.15h71.6m2.318-2.32H30.46v20.79H106.7v-20.79z"/><path fill="none" stroke="#5A5B5B" stroke-width="2.558" stroke-miterlimit="10" d="M32.78 191.54h71.6"/><path fill="none" stroke="#5A5B5B" stroke-width="3" stroke-miterlimit="10" d="M84.144 191.54H53.672l8.994-53.478h12.328z"/><path fill="none" stroke="#5A5B5B" stroke-width="3" stroke-miterlimit="10" d="M135.932 112.104c0-37.12-30.097-67.216-67.216-67.216S1.5 74.985 1.5 112.104c0 11.33 2.815 21.996 7.764 31.36 0 .005.01.014.01.014 1.03 1.948 2.152 3.844 3.368 5.678 17.312 30.26 24.83 52.447 24.83 52.447l63.312-1.99s6.674-20.152 23.977-50.413c7.055-10.63 11.172-23.382 11.172-37.096"/><path fill="#5A5B5B" d="M76.998 86.634c0 4.47-3.62 8.092-8.086 8.092-4.474 0-8.098-3.62-8.098-8.092 0-4.468 3.624-8.086 8.098-8.086 4.465 0 8.086 3.618 8.086 8.086M76.998 111.996c0 4.47-3.62 8.098-8.086 8.098-4.474 0-8.098-3.627-8.098-8.098 0-4.462 3.624-8.09 8.098-8.09 4.465 0 8.086 3.628 8.086 8.09M76.998 137.36c0 4.475-3.62 8.096-8.086 8.096-4.474 0-8.098-3.62-8.098-8.095 0-4.46 3.624-8.085 8.098-8.085 4.465 0 8.086 3.624 8.086 8.086M99.193 99.79c0 4.475-3.62 8.093-8.09 8.093s-8.097-3.618-8.097-8.092c0-4.464 3.627-8.085 8.098-8.085 4.468 0 8.09 3.62 8.09 8.086M99.193 125.16c0 4.467-3.62 8.09-8.09 8.09s-8.097-3.623-8.097-8.09 3.627-8.09 8.098-8.09c4.468 0 8.09 3.62 8.09 8.09M38.622 99.79c0 4.475 3.624 8.093 8.095 8.093 4.468 0 8.092-3.618 8.092-8.092 0-4.464-3.625-8.085-8.093-8.085-4.47 0-8.095 3.62-8.095 8.086M38.622 125.16c0 4.467 3.624 8.09 8.095 8.09 4.468 0 8.092-3.623 8.092-8.09s-3.625-8.09-8.093-8.09c-4.47 0-8.095 3.62-8.095 8.09"/><path fill="none" stroke="#5A5B5B" stroke-width="3" stroke-miterlimit="10" d="M71.024 14.798V0M96.952 19.16l4.483-14.097M121.822 30.044l8.877-11.836M45.097 19.16l-4.48-14.097M20.227 30.044l-8.874-11.836"/></svg>