<?xml version="1.0" encoding="utf-8"?>
<!-- Generator: Adobe Illustrator 18.0.0, SVG Export Plug-In . SVG Version: 6.00 Build 0)  -->
<!DOCTYPE svg PUBLIC "-//W3C//DTD SVG 1.1//EN" "http://www.w3.org/Graphics/SVG/1.1/DTD/svg11.dtd">
<svg version="1.1" id="Layer_1" xmlns="http://www.w3.org/2000/svg" xmlns:xlink="http://www.w3.org/1999/xlink" x="0px" y="0px"
	 viewBox="0 0 595.3 595.3" enable-background="new 0 0 595.3 595.3" xml:space="preserve">
<g>
	<circle fill="#5B5B5B" cx="289.8" cy="117.6" r="29.7"/>
	<path fill="#5B5B5B" d="M291.6,184.3c10.5,0,15.7-3.7,16.3-30.8l-32.6,0C275.9,180.6,281.1,184.3,291.6,184.3z"/>
	<path fill="#5B5B5B" d="M213.6,285.8v-38.5l-52.8,0c-18.9,0-30.8,17.2-30.8,38.6v58.4c0,17.7,21.1,17.7,21.1,0v-56h6.7l0,142.6
		c0,9.2,6.7,16.7,15,16.7c8.3,0,15-7.5,15-16.7l0-77.8h6.7l0,77.8c0,9.2,6.7,16.7,15,16.7c8.3,0,15-7.5,15-16.7l0.1-126.5
		C218.3,301.4,213.6,295.1,213.6,285.8z"/>
	<path fill="#5B5B5B" d="M466.3,272l-23.8-78.3c-2.9-8.8-10.8-24.8-30.2-24.8h-46.9c-0.8,0-1.5,0.1-2.3,0.1
		c4.3,7.7,6.6,16.7,6.6,25.7v90.7c0,7.8-3.2,12.6-5.8,15.3c-3.5,3.5-8.1,5.4-13.1,5.4c-4.1,0-6.2,0.6-11.7-0.9l0,30.2h19l0,99.6
		c0,17.1,25.7,17.1,25.7,0l0-100.2h10.4v100.4c0,16.9,25.6,17,25.6,0v-99.7H454l-37.2-127.9h6.2l21.4,71.9
		C449.6,295.8,471,288.8,466.3,272z"/>
	<path fill="#5B5B5B" d="M190.9,186.9c-15,0-27.1,12.1-27.1,27.1s12.1,27.1,27.1,27.1c9.5,0,17.9-4.9,22.7-12.3v-29.6
		C208.8,191.8,200.4,186.9,190.9,186.9z"/>
	<path fill="#5B5B5B" d="M336.1,283.2c0,8.9,5.8,13.4,11.6,13.4s11.6-4.5,11.6-13.4v-90.7c0-19.7-11.6-39.1-34.7-39.1l-8.6,0
		c-0.5,27-7.8,38.5-20.5,38.5v42.7c3.7,1.6,6.3,5.3,6.3,9.6c0,5.8-4.6,10.5-10.4,10.5s-10.4-4.6-10.4-10.4c0-4.3,2.6-8,6.3-9.6
		v-42.7c-12.7,0-20-11.6-20.5-38.7l-9,0c-21,0-34.2,17.2-34.2,38.6v91.2c0,8.9,5.9,13.3,11.7,13.3c5.9,0,11.7-4.4,11.7-13.3v-88.8
		h7.5l0,240.9c0,9.2,7.5,16.7,16.7,16.7c9.2,0,16.7-7.5,16.7-16.7l0-139.8h7.4l-0.1,139.8c0,9.2,7.5,16.7,16.7,16.7
		c9.2,0,16.6-7.5,16.6-16.7l0.1-240.9h7.3L336.1,283.2L336.1,283.2z"/>
	<circle fill="#5B5B5B" cx="385.9" cy="133.1" r="27.8"/>
</g>
</svg>
