<svg xmlns="http://www.w3.org/2000/svg" viewBox="0 0 595.3 595.3"><g fill="#5B5B5B"><path d="M94.1 360.7c0 47.5 38.6 86.1 86.1 86.1 47.5 0 86.1-38.6 86.1-86.1s-38.6-86.1-86.1-86.1-86.1 38.6-86.1 86.1zM95.1 224.9h27.1v-57.2l-18.7-30.5-23.2 14.2 14.8 24"/><path d="M55.7 266.6v122.3c0 6.3 5.1 11.3 11.3 11.3h10.3c7.5 0 12.9-7.2 10.9-14.5-2.2-8-3.4-16.4-3.4-25.1 0-52.6 42.8-95.4 95.4-95.4s95.4 42.8 95.4 95.4c0 8.7-1.2 17.1-3.4 25.1-2 7.3 3.4 14.5 10.9 14.5h16.8c6.3 0 11.3-5.1 11.3-11.3l9.8-53.1c8-43.6 46-75.2 90.3-75.2h13.5v6.1c5.1-.8 25.4-.9 42-.2v-33.8H362.4l-25.8-99.4H184l-36.3 99.4H89.6c-13.3 13.2-20.7 20.6-33.9 33.9z"/><path d="M364.4 320.3h152c-14.5-27.2-43.1-45.8-76-45.8s-61.5 18.6-76 45.8zM516.4 401h-152c14.5 27.2 43.1 45.8 76 45.8s61.5-18.6 76-45.8zM340.4 329.6h200.1v62.1H340.4z"/></g></svg>