<svg xmlns="http://www.w3.org/2000/svg" viewBox="0 0 1920 1080"><path fill="#5A5B5B" d="M1342.9 756.9h-261.1c-3.2 0-5.7-2.6-5.7-5.7v-57c0-3.2 2.6-5.7 5.7-5.7h119.3l-85.3-85.3c-1.6-1.6-2.1-4.1-1.2-6.2.9-2.1 3-3.5 5.3-3.5h43.3l-85.3-85.3c-1.6-1.6-2.1-4.1-1.2-6.2.9-2.1 3-3.5 5.3-3.5h43.3l-81.3-81.3-10.9 10.9c-2.2 2.2-5.8 2.2-8.1 0s-2.2-5.8 0-8.1l15-15c2.2-2.2 5.8-2.2 8.1 0l95 95c1.6 1.6 2.1 4.1 1.2 6.2-.9 2.1-3 3.5-5.3 3.5h-43.3L1181 595c1.6 1.6 2.1 4.1 1.2 6.2-.9 2.1-3 3.5-5.3 3.5h-43.3l85.3 85.3c1.6 1.6 2.1 4.1 1.2 6.2-.9 2.1-3 3.5-5.3 3.5h-127.4v45.6h255.4c3.2 0 5.7 2.6 5.7 5.7.1 3.3-2.4 5.9-5.6 5.9z"/><path fill="#5A5B5B" d="M1350.9 756.9h-226.8c-3.2 0-5.7-2.6-5.7-5.7v-57c0-3.2 2.6-5.7 5.7-5.7h156.2l-85.3-85.3c-1.6-1.6-2.1-4.1-1.2-6.2.9-2.1 3-3.5 5.3-3.5h43.3l-85.3-85.3c-1.6-1.6-2.1-4.1-1.2-6.2.9-2.1 3-3.5 5.3-3.5h43.3l-81.3-81.3-20.5 20.1c-2.3 2.2-5.9 2.2-8.1-.1-2.2-2.3-2.2-5.9.1-8.1l24.6-24c2.2-2.2 5.8-2.2 8 0l95 95c1.6 1.6 2.1 4.1 1.2 6.2-.9 2.1-3 3.5-5.3 3.5h-43.3l85.3 85.3c1.6 1.6 2.1 4.1 1.2 6.2-.9 2.1-3 3.5-5.3 3.5h-43.3l85.3 85.3c1.6 1.6 2.1 4.1 1.2 6.2-.9 2.1-3 3.5-5.3 3.5h-164.3v45.6h221.1c3.2 0 5.7 2.6 5.7 5.7.1 3.2-2.5 5.8-5.6 5.8z"/><path fill="#5A5B5B" d="M984.8 762.3c-3.2 0-5.7-2.6-5.7-5.7v-92.1c0-3.2 2.6-5.7 5.7-5.7h119.3l-85.3-85.3c-1.6-1.6-2.1-4.1-1.2-6.2.9-2.1 3-3.5 5.3-3.5h43.2l-85.3-85.3c-1.6-1.6-2.1-4.1-1.2-6.2.9-2.1 3-3.5 5.3-3.5h43.2l-81.3-81.3-81.3 81.3h43.3c2.3 0 4.4 1.4 5.3 3.5.9 2.1.4 4.6-1.2 6.2l-85.3 85.3h43.3c2.3 0 4.4 1.4 5.3 3.5.9 2.1.4 4.6-1.2 6.2l-85.3 85.3H909c3.2 0 5.7 2.6 5.7 5.7v86.7c0 3.2-2.6 5.7-5.7 5.7H675.8c-3.2 0-5.7-2.6-5.7-5.7 0-3.2 2.6-5.7 5.7-5.7H903v-75.3H775.7c-2.3 0-4.4-1.4-5.3-3.5-.9-2.1-.4-4.6 1.2-6.2l85.3-85.3h-43.3c-2.3 0-4.4-1.4-5.3-3.5-.9-2.1-.4-4.6 1.2-6.2l85.3-85.3h-43.3c-2.3 0-4.4-1.4-5.3-3.5-.9-2.1-.4-4.6 1.2-6.2l95-95c2.2-2.2 5.8-2.2 8.1 0l95 95c1.6 1.6 2.1 4.1 1.2 6.2-.9 2.1-3 3.5-5.3 3.5h-43.2l85.3 85.3c1.6 1.6 2.1 4.1 1.2 6.2-.9 2.1-3 3.5-5.3 3.5h-43.2l85.3 85.3c1.6 1.6 2.1 4.1 1.2 6.2-.9 2.1-3 3.5-5.3 3.5H990.5v86.4c0 3.2-2.6 5.7-5.7 5.7z"/><path fill="#5A5B5B" d="M1018.5 762.3c-3.2 0-5.7-2.6-5.7-5.7V688c0-3.2 2.6-5.7 5.7-5.7 3.2 0 5.7 2.6 5.7 5.7v68.6c0 3.2-2.6 5.7-5.7 5.7z"/><g><path fill="#FFF" d="M817.1 453.4c0 67.4-54.6 122-122 122s-122-54.6-122-122 54.6-122 122-122 122 54.6 122 122z"/><path fill="#5A5B5B" d="M695.1 581.1c-70.4 0-127.7-57.3-127.7-127.7s57.3-127.7 127.7-127.7S822.8 383 822.8 453.4s-57.3 127.7-127.7 127.7zm0-244c-64.1 0-116.3 52.2-116.3 116.3S631 569.7 695.1 569.7s116.3-52.2 116.3-116.3-52.2-116.3-116.3-116.3z"/><g fill="#5A5B5B"><path d="M601.4 476.3l24.5-20.1c2.3-1.9 4.3-3.6 5.9-5.1 1.6-1.5 2.9-2.9 3.9-4.3s1.8-2.7 2.2-4c.5-1.3.7-2.7.7-4.3 0-3.1-.9-5.5-2.7-7.1-1.8-1.6-4.2-2.4-7.1-2.4-2.9 0-5.4.8-7.6 2.4-2.2 1.6-4.7 4.1-7.4 7.5l-11.4-9.2c1.8-2.5 3.7-4.7 5.5-6.6 1.9-1.9 3.9-3.5 6-4.8 2.1-1.3 4.5-2.3 7.1-3 2.6-.7 5.5-1 8.8-1 3.8 0 7.2.5 10.4 1.6 3.1 1.1 5.8 2.6 8 4.6 2.2 2 3.9 4.3 5.2 7.2 1.2 2.8 1.8 5.9 1.8 9.4v.2c0 3.1-.4 5.8-1.2 8.3-.8 2.4-2 4.7-3.6 6.8-1.6 2.1-3.6 4.3-6 6.4-2.5 2.1-5.3 4.5-8.5 7l-12 9.3H656v14h-54.5v-12.8zM700.1 490.4c-4.9 0-9.4-1-13.4-2.9s-7.5-4.6-10.3-8c-2.8-3.4-5-7.4-6.6-12-1.5-4.6-2.3-9.6-2.3-14.9v-.2c0-5.3.8-10.3 2.4-14.9 1.6-4.6 3.8-8.7 6.7-12.1 2.9-3.4 6.3-6.1 10.4-8.1 4-2 8.5-2.9 13.4-2.9 4.8 0 9.3 1 13.3 2.9s7.5 4.6 10.3 8c2.8 3.4 5 7.4 6.6 12 1.6 4.6 2.4 9.6 2.4 14.9v.2c0 5.3-.8 10.3-2.4 14.9-1.6 4.6-3.8 8.7-6.7 12.1s-6.3 6.1-10.4 8.1c-4.1 1.9-8.5 2.9-13.4 2.9zm.2-14.6c2.5 0 4.7-.6 6.6-1.7 2-1.2 3.6-2.8 5-4.8 1.4-2.1 2.5-4.5 3.2-7.4.7-2.8 1.1-5.9 1.1-9.3v-.2c0-3.4-.4-6.5-1.2-9.3-.8-2.8-1.9-5.3-3.3-7.4-1.4-2.1-3.2-3.7-5.2-4.9-2-1.2-4.2-1.8-6.6-1.8-2.5 0-4.7.6-6.6 1.7-2 1.2-3.6 2.8-5 4.8-1.4 2.1-2.4 4.5-3.2 7.4-.8 2.8-1.2 5.9-1.2 9.3v.2c0 3.4.4 6.5 1.2 9.4.8 2.9 1.9 5.3 3.3 7.4 1.4 2.1 3.1 3.7 5.1 4.9 2.1 1.1 4.3 1.7 6.8 1.7zM745.7 412.3h16v40.9l18.7-20.5h19.1L778 454.9l22.2 34.2H782l-14.7-23-5.6 5.9v17.1h-16v-76.8z"/></g></g></svg>