<svg xmlns="http://www.w3.org/2000/svg" width="750" height="750" viewBox="585 165 750 750"><g fill="#5A5B5B"><path d="M1053.003 740.815l-203.06-73.245h-257.97V751.03h505.226c-2.808-2.937-5.018-6.39-6.49-10.216h-37.707zM1277.807 742.06l-1.012-1.244H1148.1c-1.473 3.858-3.65 7.303-6.412 10.217h148.515c-4.757-1.927-9.052-4.887-12.396-8.974z"/><g><path d="M1193.847 407.62c-23.088-.752-41.25-20.15-40.492-43.238.744-22.728 19.13-40.53 41.857-40.53l1.38.022c23.09.767 41.252 20.158 40.5 43.238-.743 22.728-19.13 40.53-41.85 40.53l-1.395-.022zM1322.127 705.953l-54.384-66.747-23.256-56.087 3.328-101.695c15.272 25.95 17.82 58.74 17.934 60.273.797 13.677 11.704 24.315 25.312 24.76l.798.017s1.166-.016 1.642-.054c7.01-.383 13.454-3.49 18.133-8.728 4.694-5.247 7.05-12.005 6.65-19.023-.254-4.61-7.264-113.116-90.642-137.086-.752-.215-1.52-.337-2.27-.49-7.756 6.61-17.712 10.67-28.666 11.006l-125.925 100.82c-5.484 4.388-8.928 10.654-9.71 17.642-.768 6.987 1.227 13.86 5.622 19.345 5.024 6.267 12.51 9.864 20.54 9.864 5.945 0 11.79-2.047 16.44-5.774l57.02-45.647-2.3 70.405c-56.746 64.632-64.893 145.232-65.215 148.653-1.335 14.39 9.296 27.23 23.678 28.626.568.054 2.562.115 2.562.115 13.593 0 24.838-10.21 26.164-23.74.07-.706 7.51-68.827 53.847-120.58l21.172 51.078c.96 2.347 2.27 4.548 3.91 6.573l56.81 69.725c5.03 6.15 12.47 9.68 20.417 9.68 6.028 0 11.92-2.093 16.613-5.913 11.245-9.167 12.932-25.774 3.774-37.02z"/></g></g></svg>