<svg xmlns="http://www.w3.org/2000/svg" width="750" height="750" viewBox="0 0 750 750"><g fill="#5A5B5B"><path d="M252.76 390.522c-37.45 0-67.92 30.47-67.92 67.92s30.47 67.92 67.92 67.92 67.92-30.47 67.92-67.92c0-23.434-11.93-44.132-30.034-56.345 3.493-10.026 6.03-20.73 6.745-31.625 50.62 13.3 98.235 94.01 98.727 94.854.904 1.548 2.557 2.48 4.318 2.48.203 0 .408-.013.613-.038 1.982-.244 3.63-1.646 4.19-3.565l17.804-61.197 9.467-25.43c2.45 2.155 5.634 5.036 9.33 8.577.97.93 2.216 1.39 3.458 1.39 1.316 0 2.63-.517 3.613-1.542 1.91-1.993 1.843-5.158-.153-7.067-5.504-5.273-9.875-9.108-12.523-11.36l9.57-25.703h19.256c2.762 0 5-2.24 5-5s-2.238-5-5-5h-46.768c-2.762 0-5 2.24-5 5s2.238 5 5 5h16.842l-19.016 51.074c-41.562-34.172-101.788-45.98-118.52-48.704v-25.725h18.082c2.76 0 5-2.24 5-5s-2.24-5-5-5H292.6c-2.76 0-5 2.24-5 5v50.825c0 11.096-2.333 22.222-5.85 32.694-8.798-4.17-18.623-6.512-28.99-6.512zm159.85 12.552l-13.846 47.586c-15.027-23.137-56.054-80.18-101.164-90.437v-5.815c18.31 3.21 77.02 15.675 115.01 48.666zm-101.93 55.368c0 31.938-25.982 57.92-57.92 57.92s-57.92-25.982-57.92-57.92 25.984-57.92 57.92-57.92c9.133 0 17.774 2.132 25.464 5.912-11.335 27.436-28.95 48.39-29.267 48.763-1.792 2.102-1.542 5.258.56 7.05.94.803 2.095 1.195 3.242 1.195 1.412 0 2.817-.596 3.806-1.755 1.104-1.295 18.585-22.038 30.372-49.97 14.382 10.55 23.743 27.562 23.743 46.725zM498.553 516.362c-26.818 0-50.576-18.956-56.49-45.074-.61-2.693-3.287-4.38-5.982-3.772-2.692.61-4.38 3.288-3.77 5.98 3.346 14.78 11.715 28.198 23.564 37.78 12.027 9.73 27.186 15.086 42.68 15.086 37.45 0 67.92-30.47 67.92-67.92 0-9.17-1.795-18.065-5.336-26.44-1.076-2.544-4.012-3.732-6.553-2.657-2.543 1.075-3.734 4.01-2.658 6.553 3.018 7.135 4.547 14.72 4.547 22.545 0 31.937-25.984 57.92-57.92 57.92z"/><path d="M571.69 415.134c.31-1.326.06-2.722-.684-3.86-16.05-24.606-43.135-39.296-72.453-39.296-47.678 0-86.465 38.788-86.465 86.465 0 .79.025 1.574.053 2.36l.02.53c.044 1.382.66 2.684 1.698 3.596.916.804 2.09 1.242 3.3 1.242.16 0 .32-.008.485-.023l84.242-8.23c.732-.07 1.44-.303 2.072-.68l65.42-38.94c1.17-.697 2.004-1.84 2.313-3.166zM119.744 363.797c1.56.89 3.48.874 5.024-.043l65.073-38.563 65.074 38.564c.8.474 1.677.7 2.544.7 1.708 0 3.373-.876 4.306-2.452 1.408-2.375.624-5.442-1.752-6.85L192.39 315.08c-1.57-.933-3.526-.933-5.098 0l-60.073 35.6v-14.915l62.62-37.11 65.074 38.563c2.374 1.408 5.443.624 6.85-1.752 1.408-2.375.624-5.442-1.752-6.85L192.39 288.54c-1.57-.932-3.526-.932-5.098 0l-67.622 40.073c-1.52.9-2.45 2.535-2.45 4.3v26.54c0 1.796.963 3.455 2.524 4.344z"/><path d="M124.77 270.605l65.072-38.567 62.622 37.115v14.915l-60.073-35.6c-1.57-.932-3.525-.932-5.097 0L119.67 288.54c-2.375 1.41-3.16 4.476-1.75 6.85.933 1.577 2.597 2.453 4.305 2.453.866 0 1.745-.226 2.544-.7l65.072-38.563 65.073 38.563c1.545.917 3.463.932 5.024.043 1.56-.89 2.524-2.548 2.524-4.344v-26.538c0-1.766-.932-3.4-2.45-4.3l-67.623-40.08c-1.57-.93-3.525-.93-5.098 0l-67.622 40.08c-2.375 1.407-3.16 4.474-1.752 6.85 1.408 2.374 4.474 3.158 6.85 1.75zM479.14 217.13h174.7c2.762 0 5-2.24 5-5s-2.238-5-5-5h-174.7c-2.763 0-5 2.238-5 5s2.237 5 5 5zM613.387 364.453h21.055c2.762 0 5-2.24 5-5V226.225c0-2.76-2.238-5-5-5H499.198c-2.762 0-5 2.24-5 5v133.228c0 2.76 2.238 5 5 5h71.123c2.763 0 5-2.24 5-5v-78.145h33.067v78.145c0 2.76 2.238 5 5 5zM691.242 532.87H58.758c-2.76 0-5 2.24-5 5s2.24 5 5 5h632.485c2.762 0 5-2.237 5-5s-2.24-5-5-5z"/></g></svg>