<svg xmlns="http://www.w3.org/2000/svg" width="750" height="750" viewBox="585 165 750 750"><g fill="#5A5B5B"><path d="M1315.43 715.85h-87.467c-7.193-2.777-6.816-10.268-6.816-10.268l-.068.033 1.215-19.44 18.202 1.14c5.092.314 9.5-3.754 9.823-9.072l6.045-96.873c.614-9.896-5.125-19.002-14.068-22.23-4.295-1.547-9.597-3.3-16-5.172l-32.708-107.595c-1.614-5.303-7.475-9.952-13.036-10.3l-221.644-13.81c-5.545-.348-11.945 3.527-14.197 8.587L898.87 533.555c-6.587 1.062-12.067 2.143-16.52 3.144-9.27 2.098-16.098 10.404-16.72 20.3l-6.046 96.89c-.33 5.31 3.536 9.896 8.622 10.21l18.234 1.132-2.22 40.994-.08-.045s.017 7.003-6.568 9.67h-273c-6.848 0-12.4 5.552-12.4 12.4s5.553 12.397 12.4 12.397h710.856c6.848 0 12.398-5.55 12.398-12.398s-5.55-12.4-12.397-12.4zm-365.268 0c-5.658-2.676-6.058-8.227-6.04-9.947l2.106-36.943 216.25 13.488-2.08 33.402H950.162zm-55.65-120.83l1.275-20.473c.34-5.406 5.028-9.564 10.445-9.225l50.79 3.172c5.39.338 9.548 5.045 9.217 10.445l-1.285 20.478c-.33 5.393-5.044 9.55-10.436 9.21l-50.782-3.165c-5.425-.338-9.558-5.043-9.226-10.443zm329.75.005l-1.267 20.48c-.348 5.393-5.044 9.55-10.445 9.21l-50.78-3.165c-5.425-.338-9.56-5.035-9.22-10.445l1.276-20.48c.34-5.4 5.02-9.548 10.445-9.216l50.78 3.17c5.403.34 9.56 5.047 9.213 10.445zM961.566 442.683l213.82 13.327 27.98 92.01c-30.464-7.034-75.62-14.42-139.898-18.426-64.27-4.01-109.986-2.292-141.086.904l39.185-87.815z"/><path d="M1104.906 528.924c.133-.042 12.805-3.012 28.413-1.13 15.608 1.887 27.22 7.782 27.32 7.844.722.374 1.478.595 2.24.688 2.642.323 5.322-1.002 6.614-3.5 1.673-3.226.423-7.187-2.806-8.845-.55-.29-13.71-7.057-31.79-9.235-18.083-2.176-32.48 1.27-33.096 1.41-3.508.85-5.662 4.387-4.807 7.914.843 3.508 4.395 5.694 7.91 4.854zM621.806 544.932h162.86c11.774 0 21.352-9.578 21.352-21.35V360.71c0-11.778-9.577-21.36-21.35-21.36H621.805c-11.782 0-21.367 9.583-21.367 21.36V523.58c-.002 11.774 9.583 21.352 21.366 21.352zm162.86-8.266h-162.86c-7.224 0-13.1-5.87-13.1-13.085V393.833H797.75v129.75c0 7.214-5.87 13.084-13.085 13.084z"/><path d="M643.69 423.204l3.854 15.17 14.687-3.613v66.098h18.3V415.98h-12.64M729.05 445.958c-4.696 0-7.706.602-11.077 1.444l.963-14.567h35.878v-16.253h-51.77l-2.408 41.536 10.715 7.104c3.975-1.686 8.79-3.13 14.087-3.13 9.03 0 14.93 4.214 14.93 11.558 0 7.585-5.418 11.8-14.086 11.8-7.464 0-13.725-3.372-20.105-9.15l-11.196 13.363c8.186 7.826 18.058 12.642 31.542 12.642 19.384 0 32.025-11.317 32.025-29.256 0-19.146-12.883-27.092-29.498-27.092z"/></g></svg>