<svg id="Capa_1" xmlns="http://www.w3.org/2000/svg" viewBox="0 0 512 512"><style>.st0{fill:#616264;}</style><path class="st0" d="M403.8 182.5H174.1c-2.5 0-4.5 2-4.5 4.5s2 4.5 4.5 4.5H284v11.2c0 2.5 2 4.5 4.5 4.5s4.5-2 4.5-4.5v-11.2h106.2v128.9H293v-11.2c0-2.5-2-4.5-4.5-4.5s-4.5 2-4.5 4.5v11.2H112.7V191.5h11.6c2.5 0 4.5-2 4.5-4.5s-2-4.5-4.5-4.5h-16.1c-2.5 0-4.5 2-4.5 4.5v138c0 2.5 2 4.5 4.5 4.5h295.6c2.5 0 4.5-2 4.5-4.5V187c0-2.5-2-4.5-4.5-4.5z"/><path class="st0" d="M288.5 273.4c-2.5 0-4.5 2-4.5 4.5v15.7c0 2.5 2 4.5 4.5 4.5s4.5-2 4.5-4.5v-15.7c0-2.5-2-4.5-4.5-4.5zM288.5 242c-2.5 0-4.5 2-4.5 4.5v15.7c0 2.5 2 4.5 4.5 4.5s4.5-2 4.5-4.5v-15.7c0-2.5-2-4.5-4.5-4.5zM288.5 212.3c-2.5 0-4.5 2-4.5 4.5v15.7c0 2.5 2 4.5 4.5 4.5s4.5-2 4.5-4.5v-15.7c0-2.5-2-4.5-4.5-4.5zM252.4 277.1h-72.5c-2 0-3.6 2-3.6 4.5s1.6 4.5 3.6 4.5h68.8v12H140.1v-12h6.9c2 0 3.6-2 3.6-4.5s-1.6-4.5-3.6-4.5h-10.5c-2 0-3.6 2-3.6 4.5v21.1c0 2.5 1.6 4.5 3.6 4.5h115.9c2 0 3.6-2 3.6-4.5v-21.1c0-2.4-1.6-4.5-3.6-4.5zM252.4 239.3h-72.5c-2 0-3.6 2-3.6 4.5s1.6 4.5 3.6 4.5h68.8v12H140.1v-12h6.9c2 0 3.6-2 3.6-4.5s-1.6-4.5-3.6-4.5h-10.5c-2 0-3.6 2-3.6 4.5v21.1c0 2.5 1.6 4.5 3.6 4.5h115.9c2 0 3.6-2 3.6-4.5v-21.1c0-2.5-1.6-4.5-3.6-4.5zM359.5 219.5c-.8-.4-1.7-.4-2.5 0l-1.8 1.1c-13.4 8-30.3 8-43.7 0l-1.8-1.1c-.8-.5-1.7-.5-2.5 0-.8.4-1.3 1.3-1.3 2.2V257c0 15.3 11.1 28.6 26.1 31.6.4.1 1 .2 1.4.2s1.1-.1 1.5-.2c15-3 25.9-16.3 25.9-32v-34.9c0-1-.5-1.8-1.3-2.2zm-42.8 30.9c-1-1-1-2.5 0-3.5 3.7-3.7 9.7-3.7 13.4 0 1 1 1 2.5 0 3.5s-2.5 1-3.5 0c-1.8-1.8-4.6-1.8-6.4 0-1 .9-2.5.9-3.5 0zm28.2 15.9c-1.9 4.6-6.6 7.6-11.6 7.6s-9.5-3-11.4-7.6c-.5-1.3.1-2.7 1.3-3.2 1.3-.5 2.7.1 3.2 1.3 1.2 2.8 3.9 4.5 6.9 4.5s5.9-1.8 7-4.5c.5-1.3 2-1.8 3.2-1.3 1.4.5 1.9 1.9 1.4 3.2zm5.2-15.9c-1 1-2.5 1-3.5 0-1.8-1.8-4.6-1.8-6.4 0-1 1-2.5 1-3.5 0s-1-2.5 0-3.5c3.7-3.7 9.7-3.7 13.4 0 1 .9 1 2.5 0 3.5z"/><path class="st0" d="M389.2 234.5c-.8-.4-1.7-.4-2.5 0l-1.8 1.1c-5.8 3.5-12.5 5.5-19.2 5.9v14.9c0 5.9-1.4 11.4-3.8 16.4.4 0 .8-.2 1.3-.2 5 0 9.5 3 11.4 7.6.5 1.3-.1 2.7-1.3 3.2-1.3.5-2.7 0-3.2-1.3-1.2-2.8-3.9-4.5-6.9-4.5s-5.7 1.8-6.9 4.5c-.4 1-1.4 1.5-2.4 1.5-3.3 3.2-7.1 5.8-11.4 7.6 4.7 6.2 11.5 10.7 19.3 12.2.4.1 1 .2 1.4.2.3 0 1-.1 1.4-.2 15-3 25.9-16.5 25.9-32.2v-34.7c0-.7-.5-1.6-1.3-2zm-4.4 23.7c-1.8 1.8-4.3 2.8-6.7 2.8-2.4 0-4.9-.9-6.7-2.8-1-1-1-2.5 0-3.5s2.5-1 3.5 0c1.8 1.8 4.6 1.8 6.4 0 1-1 2.5-1 3.5 0s1 2.6 0 3.5z"/></svg>