<svg xmlns="http://www.w3.org/2000/svg" width="750" height="750" viewBox="0 0 750 750"><g fill="#5A5B5B"><path d="M557.665 179.953H468.53c-2.762 0-5 2.24-5 5s2.238 5 5 5h89.136c5.613 0 10.18 4.565 10.18 10.176v363.75c0 5.61-4.566 10.18-10.18 10.18H61.742c-5.61 0-10.176-4.568-10.176-10.18V200.13c0-5.612 4.565-10.177 10.176-10.177H406.07c2.76 0 5-2.24 5-5s-2.24-5-5-5H61.74c-11.125 0-20.176 9.05-20.176 20.176v363.75c0 11.125 9.05 20.18 20.176 20.18h153.89l-19.385 55.865c-.53 1.527-.29 3.22.65 4.537s2.455 2.102 4.073 2.102H418.45c2.763 0 5-2.238 5-5 0-.732-.156-1.43-.44-2.057l-19.23-55.45h153.886c11.128 0 20.18-9.052 20.18-20.18V200.13c0-11.124-9.053-20.175-20.18-20.175z"/><path d="M401.923 206.628c0-2.76-2.238-5-5-5H68.246c-2.76 0-5 2.24-5 5v350.74c0 2.763 2.24 5 5 5h482.916c2.762 0 5-2.237 5-5V206.63c0-2.76-2.238-5-5-5h-92.725c-2.762 0-5 2.24-5 5s2.238 5 5 5h87.725v340.74H73.246V211.63h323.677c2.762 0 5-2.24 5-5z"/><path d="M197.6 501.92h216.486c21.77 0 39.482-17.71 39.482-39.482 0-21.773-17.712-39.486-39.482-39.486H197.6c-21.77 0-39.48 17.713-39.48 39.486 0 21.77 17.71 39.482 39.48 39.482zm0-68.97h216.486c16.257 0 29.482 13.228 29.482 29.487 0 16.258-13.226 29.482-29.482 29.482H197.6c-16.256 0-29.48-13.227-29.48-29.484 0-16.26 13.224-29.486 29.48-29.486z"/><path d="M197.6 485.12c12.507 0 22.682-10.177 22.682-22.683s-10.174-22.68-22.68-22.68c-12.51 0-22.687 10.174-22.687 22.68s10.178 22.682 22.686 22.682zm217.443 0c12.51 0 22.686-10.177 22.686-22.683s-10.18-22.68-22.688-22.68-22.686 10.174-22.686 22.68 10.177 22.682 22.686 22.682zm-177.657-28.292h142.217c2.762 0 5-2.238 5-5s-2.238-5-5-5H237.386c-2.76 0-5 2.238-5 5s2.24 5 5 5zm0 22.102h142.217c2.762 0 5-2.237 5-5s-2.238-5-5-5H237.386c-2.76 0-5 2.24-5 5s2.24 5 5 5zm133.268-202.663c-.632-2.118-2.58-3.57-4.79-3.57H230.74c-2.76 0-5 2.24-5 5V403.16c0 2.762 2.24 5 5 5h135.123c.948 0 1.876-.27 2.677-.775l31.495-19.96c1.89-1.2 2.755-3.51 2.114-5.655l-10.277-34.42 84.55-196.233c1.092-2.536-.078-5.478-2.614-6.57-2.53-1.09-5.48.077-6.57 2.613l-79.823 185.262-10.004-33.515 74.503-163.1c1.147-2.513.04-5.48-2.47-6.626-2.51-1.145-5.48-.04-6.626 2.47l-69.753 152.7-2.413-8.082zM340.96 299.62l10.717 35.812h-46.072v-35.81h35.354zm121.683-163.014c4.565 2.874 9.82 4.393 15.193 4.393 9.888 0 18.93-4.99 24.188-13.345 8.392-13.327 4.38-30.996-8.944-39.385-4.566-2.876-9.822-4.396-15.198-4.396-9.886 0-18.928 4.987-24.188 13.342-8.387 13.322-4.372 30.992 8.95 39.39zm50.027-28.046l160.753 48.31c.48.145.965.214 1.44.214 2.15 0 4.137-1.398 4.787-3.563.795-2.643-.704-5.43-3.35-6.226l-160.75-48.31c-2.646-.792-5.433.705-6.228 3.35s.705 5.432 3.35 6.227z"/><path d="M727.052 184.208c-7.853-15.667-21.336-27.34-37.966-32.867-1.26-.417-2.63-.32-3.817.276-1.188.594-2.09 1.635-2.507 2.894l-14.246 42.87-10.92-23.754c-.6-1.305-1.73-2.29-3.106-2.7l-145.023-43.458c-2.65-.792-5.433.71-6.226 3.354-.79 2.645.71 5.432 3.355 6.225l142.86 42.81 14.443 31.42-7.543 22.695c-.87 2.62.548 5.45 3.168 6.322 2.62.87 5.45-.547 6.322-3.168l24.76-74.51c11.943 5.18 21.6 14.295 27.505 26.074 6.656 13.28 7.74 28.356 3.055 42.45-4.683 14.096-14.575 25.524-27.854 32.18-13.28 6.658-28.356 7.746-42.453 3.06-2.62-.868-5.45.547-6.323 3.168-.87 2.62.548 5.45 3.168 6.32 6.8 2.26 13.79 3.382 20.75 3.382 10.07 0 20.076-2.347 29.34-6.99 15.667-7.854 27.34-21.338 32.862-37.966 5.53-16.63 4.25-34.416-3.605-50.086z"/><path d="M648.728 256.237c-1.055 2.552.16 5.476 2.712 6.53 4.382 1.812 9.668 2.25 10.256 2.294.128.01.254.016.38.016 2.59 0 4.783-2 4.98-4.626.206-2.754-1.86-5.154-4.612-5.36-1.078-.08-4.71-.542-7.186-1.564-2.55-1.055-5.476.158-6.53 2.71zm15.536-2.695c.128.01.254.014.38.014 2.588 0 4.775-1.996 4.976-4.62.21-2.75-1.85-5.15-4.6-5.365-1.168-.09-4.734-.547-7.187-1.56-2.553-1.06-5.476.156-6.53 2.707-1.057 2.552.156 5.476 2.708 6.532 4.38 1.81 9.667 2.25 10.255 2.293z"/></g></svg>