<svg width="545" height="545" viewBox="0 0 545 545" xmlns="http://www.w3.org/2000/svg"><title>GCBA-compromisos-icons-01</title><g fill="#5B5B5B" fill-rule="nonzero"><path d="M42.358 352.055c0 52.93 42.958 95.945 95.82 95.945C191.043 448 234 404.986 234 352.055c0-52.93-42.958-95.945-95.82-95.945-52.864 0-95.822 43.014-95.822 95.945zm1.113-151.327h30.16v-63.74L52.82 103 27 118.824l16.47 26.744v55.16z"/><path d="M0 246.333v136.093C0 389.436 5.682 395 12.59 395h11.474c8.356 0 14.372-8.012 12.144-16.135-2.45-8.902-3.788-18.25-3.788-27.93 0-58.533 47.683-106.16 106.283-106.16s106.284 47.627 106.284 106.16c0 9.68-1.337 19.028-3.788 27.93-2.23 8.123 3.787 16.135 12.143 16.135h18.716c7.018 0 12.59-5.675 12.59-12.574l10.917-59.09c8.912-48.516 51.247-83.68 100.6-83.68h15.04v6.788c5.683-.89 28.3-1 46.793-.222V208.61H341.69L312.946 98h-170.01l-40.44 110.61h-64.73C22.95 223.3 14.707 231.533 0 246.333z"/><path d="M343.747 307.037h169.395C496.982 276.727 465.11 256 428.444 256c-36.665 0-68.538 20.727-84.697 51.037zm169.395 89.926H343.747C359.907 427.273 391.78 448 428.444 448c36.665 0 68.54-20.727 84.698-51.037zM317 317.4h223v69.2H317v-69.2z"/></g></svg>