<svg xmlns="http://www.w3.org/2000/svg" width="750" height="750" viewBox="0 0 750 750"><g fill="#5A5B5B"><path d="M438.302 415.503c-.21-.225-.403-.45-.6-.677l-.393-.447c-.13-.148-.257-.297-.384-.446-.243-.288-.488-.574-.742-.854-6.273-7.895-6.352-15.694-5.8-19.756.145-.685.27-1.37.39-2.052.04-.154.068-.25.073-.265.126-.438.188-.882.19-1.324 4.614-29.383-13.12-58.202-41.528-67.26-5.995-1.91-12.195-2.877-18.43-2.877-22.92 0-44.165 13.205-54.354 33.71-.245.35-.446.733-.597 1.143-.02.053-.09.234-.177.43-.073.157-.15.31-.226.462-.134.27-.266.54-.39.817-1.612 3.165-6.3 10.61-16.05 14.043-1.58.36-3.177.792-4.75 1.284l-.162.04c-.426.087-.83.23-1.205.416-18.2 6.222-32.483 20.755-38.292 39.01-10.173 31.918 7.52 66.167 39.442 76.345l79.01 25.176c6 1.91 12.21 2.88 18.454 2.88h.005c26.55 0 49.81-17.01 57.883-42.327 6.182-19.397 2.275-40.404-10.44-56.352-.253-.42-.57-.798-.932-1.125zM286.3 358.927h.003c.265 0 .528-.005.79-.014 7.95-.277 15.17-4.672 20.327-12.375 4.817-7.196 7.28-16.538 6.938-26.304-.724-20.58-13.515-36.7-29.12-36.7-.266 0-.53.004-.794.013-15.758.555-27.992 17.908-27.272 38.685.73 20.575 13.524 36.694 29.13 36.695zm65.856-44.96c1.414.224 2.857.337 4.29.34h.004c17.625 0 33.627-17.09 37.22-39.75 1.86-11.713.21-23.322-4.645-32.69-5.115-9.87-13.15-16.132-22.622-17.63-1.414-.225-2.856-.338-4.287-.338-17.627 0-33.633 17.08-37.23 39.734-1.858 11.716-.21 23.328 4.646 32.695 5.114 9.87 13.15 16.134 22.624 17.635zM506.6 375.462c-.488-9.02-4.38-16.413-10.955-20.818-3.88-2.6-8.527-3.972-13.443-3.972-11.307 0-23.027 7.02-30.588 18.316-5.27 7.86-7.92 16.865-7.46 25.354.49 9.02 4.38 16.413 10.957 20.82 3.88 2.597 8.53 3.968 13.445 3.97h.002c11.31 0 23.03-7.018 30.583-18.31 5.27-7.866 7.922-16.874 7.46-25.362zm-78.876-39.23c4.29 2.39 9.043 3.6 14.13 3.6h.003c14.406 0 29.2-9.866 37.69-25.134 11.778-21.206 7.71-46.04-9.07-55.365-4.287-2.384-9.04-3.592-14.123-3.592-14.41 0-29.204 9.863-37.692 25.128-5.59 10.06-7.84 21.245-6.336 31.497 1.576 10.75 7.045 19.226 15.398 23.865z"/><path d="M375 182.016c-106.41 0-192.983 86.572-192.983 192.983 0 106.41 86.572 192.98 192.983 192.98S567.984 481.413 567.984 375 481.41 182.016 375 182.016zm0 375.967c-100.897 0-182.983-82.086-182.983-182.983S274.103 192.016 375 192.016 557.984 274.102 557.984 375 475.898 557.983 375 557.983z"/><path d="M529.794 220.206c-41.348-41.347-96.32-64.118-154.794-64.118s-113.446 22.77-154.794 64.118C178.86 261.553 156.09 316.526 156.09 375c0 58.473 22.77 113.445 64.116 154.793C261.554 571.14 316.526 593.91 375 593.91s113.446-22.77 154.794-64.117C571.14 488.445 593.91 433.473 593.91 375c0-58.473-22.77-113.447-64.116-154.794zM375 583.91c-115.194 0-208.91-93.716-208.91-208.91S259.805 166.09 375 166.09 583.91 259.805 583.91 375 490.196 583.91 375 583.91z"/></g></svg>