<svg xmlns="http://www.w3.org/2000/svg" viewBox="0 0 595.3 595.3"><g fill="#5B5B5B"><path d="M275 180.9c-1.4 0-2.7-.1-4-.3-.5-4.4-1.7-8.6-3.5-12.4-6.1-13-18.9-22.3-34-23.1-.7 0-1.5-.1-2.2-.1-1.4 0-2.8.1-4.2.2-1.9-20.2-19-36.2-39.7-36.2-22 0-39.9 17.9-39.9 39.9 0 21.9 17.8 39.8 39.7 39.9-.1-1.3-.2-2.6-.2-4 0-1.3.1-2.7.2-4-17.6-.1-31.7-14.3-31.7-31.9 0-17.7 14.3-31.9 31.9-31.9 17 0 30.8 13.1 31.9 29.8-5.6 1.8-10.8 4.8-15 8.8-7.9 7.3-12.9 17.7-12.9 29.3 0 22 17.9 39.9 39.9 39.9 17.1 0 31.7-10.8 37.4-25.9 1.2-3.2 2-6.7 2.4-10.2 1.3.1 2.6.2 4 .2-.1-1.3-.2-2.6-.2-4-.1-1.3 0-2.6.1-4zm-14.7 17.4c-5.1 11-16.1 18.5-29 18.5-17.7 0-31.9-14.3-31.9-31.9 0-9 3.7-17 9.6-22.8 2.8-2.7 6.1-5 9.7-6.5-1.7 8.2-6.5 15.2-13.2 19.7-1.1 3-1.7 6.2-1.7 9.6v.5c12.6-5.7 21.8-17.8 23.3-32.1 1.4-.2 2.8-.3 4.2-.3.9 0 1.9 0 2.8.1 10.9.9 20.2 7.3 25.2 16.3 1.5 2.7 2.7 5.7 3.3 8.9-7.5-3.2-13.5-9.3-16.7-16.8-2.9-1.8-6.1-3.1-9.5-3.7 3.1 13.8 13.5 25 26.9 29.2-.4 4.1-1.4 7.9-3 11.3z"/><path d="M363.1 109.1c-19.2 0-35.3 13.7-39.1 31.8 2.7.3 5.3.8 7.8 1.6 3-14.5 15.8-25.4 31.3-25.4 17.7 0 31.9 14.3 31.9 31.9 0 17.7-14.3 31.9-31.9 31.9-1.4 0-2.8-.1-4.2-.3-.4-3.8-1.3-7.4-2.7-10.8-5.8-14.2-19.6-24.3-35.7-24.8h-1.2c-1.4 0-2.8.1-4.2.2-1.9-20.2-19-36.2-39.7-36.2-19.2 0-35.3 13.7-39.1 31.8 2.7.3 5.3.8 7.8 1.6 3-14.5 15.8-25.4 31.3-25.4 17 0 30.8 13.1 31.9 29.8-6 1.9-11.3 5.2-15.7 9.4-7.5 7.3-12.2 17.4-12.2 28.7 0 22 17.9 39.9 39.9 39.9 16.4 0 30.5-9.9 36.6-24.1 1.6-3.8 2.7-7.8 3.1-12.1 1.4.1 2.8.2 4.2.2 22 0 39.9-17.9 39.9-39.9-.1-21.9-18-39.8-40-39.8zm-15.5 90.4c-5.3 10.3-16 17.4-28.5 17.4-17.7 0-31.9-14.3-31.9-31.9 0-8.7 3.5-16.6 9.1-22.4 2.9-2.9 6.3-5.3 10.1-7-1.7 8.2-6.5 15.2-13.2 19.7-1.1 3-1.7 6.2-1.7 9.6v.5c12.6-5.7 21.8-17.8 23.3-32.1 1.4-.2 2.8-.3 4.2-.3.6 0 1.2 0 1.8.1 11.9.7 22 7.8 26.9 18 1.1 2.3 2 4.8 2.5 7.3-7.5-3.2-13.5-9.3-16.7-16.8-2.9-1.8-6.1-3.1-9.5-3.7 3.1 13.8 13.5 25 26.9 29.2-.2 4.4-1.4 8.6-3.3 12.4zm23 44.1H210l96.5 96.4 22.5 22.6h-40.8v83h166v-96.2h22.2"/><path d="M191.3 243.6L85.5 349.4h22.1v96.2h56.8v-61.1H210v61.1h65v-96.2h22.1"/></g></svg>