<?xml version="1.0" encoding="utf-8"?>
<!-- Generator: Adobe Illustrator 18.0.0, SVG Export Plug-In . SVG Version: 6.00 Build 0)  -->
<!DOCTYPE svg PUBLIC "-//W3C//DTD SVG 1.1//EN" "http://www.w3.org/Graphics/SVG/1.1/DTD/svg11.dtd">
<svg version="1.1" id="Layer_1" xmlns="http://www.w3.org/2000/svg" xmlns:xlink="http://www.w3.org/1999/xlink" x="0px" y="0px"
	 viewBox="0 0 595.3 595.3" enable-background="new 0 0 595.3 595.3" xml:space="preserve">
<g>
	<path fill="#5B5B5B" d="M384.2,410.4h-173V179.7h173 M330.6,459.9h-65.9v-16.5h65.9 M363.6,130.3H231.7
		c-27.3,0-49.4,22.1-49.4,49.4v263.7c0,27.3,22.1,49.4,49.4,49.4h131.8c27.3,0,49.4-22.1,49.4-49.4V179.7
		C413,152.4,390.9,130.3,363.6,130.3z"/>
</g>
<rect x="312.6" y="262.7" transform="matrix(0.7071 0.7071 -0.7071 0.7071 309.9302 -141.9162)" fill="#5B5B5B" width="27.3" height="80.9"/>
<rect x="285.8" y="289.5" transform="matrix(0.7071 0.7071 -0.7071 0.7071 309.9562 -141.9172)" fill="#5B5B5B" width="80.9" height="27.3"/>
</svg>
