<svg xmlns="http://www.w3.org/2000/svg" viewBox="0 0 1920 1080"><path fill="#5A5B5B" d="M539.1 773c-3.3 0-6-2.7-6-6V505.5c0-3.3 2.7-6 6-6s6 2.7 6 6v261.4c.1 3.4-2.6 6.1-6 6.1z"/><path fill="#5A5B5B" d="M1073.7 511.5c-.9 0-1.8-.2-2.6-.6L748.7 356.5 482.9 510.7c-2.9 1.7-6.6.7-8.2-2.2-1.7-2.9-.7-6.6 2.2-8.2l268.6-155.8c1.7-1 3.8-1.1 5.6-.2l325.3 155.8c3 1.4 4.3 5 2.8 8-1.1 2.1-3.2 3.4-5.5 3.4z"/><path fill="#5A5B5B" d="M977.4 774.8H807.2c-3.3 0-6-2.7-6-6V541.3H698.7V767c0 3.3-2.7 6-6 6h-128c-3.3 0-6-2.7-6-6s2.7-6 6-6h121.9V535.3c0-3.3 2.7-6 6-6h114.5c3.3 0 6 2.7 6 6v227.5h158.1V505.5c0-3.3 2.7-6 6-6s6 2.7 6 6v263.3c.2 3.3-2.5 6-5.8 6z"/><path fill="#FFF" d="M646.3 440c0 71.1-57.7 128.8-128.8 128.8S388.8 511.1 388.8 440c0-71.1 57.7-128.8 128.8-128.8S646.3 368.9 646.3 440z"/><path fill="#5A5B5B" d="M517.6 574.8c-74.3 0-134.8-60.5-134.8-134.8 0-74.3 60.5-134.8 134.8-134.8 74.3 0 134.8 60.5 134.8 134.8 0 74.3-60.5 134.8-134.8 134.8zm0-257.6c-67.7 0-122.8 55.1-122.8 122.8 0 67.7 55.1 122.8 122.8 122.8 67.7 0 122.8-55.1 122.8-122.8-.1-67.7-55.2-122.8-122.8-122.8z"/><g><path fill="#5A5B5B" d="M447.7 479c-7 0-13-1.2-17.9-3.7-4.9-2.5-9-5.8-12.4-9.8l11.8-11.2c2.7 3 5.5 5.3 8.4 6.9 2.9 1.6 6.4 2.4 10.4 2.4 3.3 0 5.9-.8 7.9-2.5s3.1-4 3.1-6.9v-.2c0-3.2-1.3-5.6-4-7.3-2.7-1.7-6.4-2.5-11.2-2.5h-7.1l-2.7-10.8 18.5-18.6H422V400h52.6v12.9l-19.8 18.8c2.7.4 5.2 1.1 7.7 2.1s4.7 2.3 6.7 4c2 1.7 3.6 3.8 4.7 6.4 1.2 2.6 1.8 5.6 1.8 9.3v.2c0 3.7-.7 7.1-2 10.2-1.3 3.1-3.2 5.8-5.6 8-2.4 2.3-5.4 4.1-8.9 5.3-3.3 1.2-7.2 1.8-11.5 1.8zM522.6 479c-5.2 0-9.9-1-14.2-3.1-4.3-2-7.9-4.8-10.9-8.4-3-3.6-5.3-7.8-6.9-12.7-1.6-4.9-2.4-10.1-2.4-15.8v-.2c0-5.6.8-10.9 2.5-15.8s4-9.1 7.1-12.8c3-3.6 6.7-6.5 10.9-8.5 4.3-2.1 9-3.1 14.2-3.1 5.1 0 9.8 1 14 3.1 4.3 2 7.9 4.8 10.9 8.4 3 3.6 5.3 7.8 7 12.7 1.7 4.9 2.5 10.1 2.5 15.8v.2c0 5.6-.8 10.9-2.5 15.8s-4 9.1-7.1 12.8c-3 3.6-6.7 6.5-10.9 8.5-4.3 2.1-9.1 3.1-14.2 3.1zm.2-15.4c2.6 0 4.9-.6 7-1.8 2.1-1.2 3.8-2.9 5.3-5.1 1.5-2.2 2.6-4.8 3.4-7.8.8-3 1.2-6.3 1.2-9.8v-.2c0-3.6-.4-6.8-1.2-9.8-.8-3-2-5.6-3.5-7.8s-3.3-4-5.4-5.2c-2.1-1.3-4.4-1.9-6.9-1.9-2.6 0-4.9.6-7 1.8-2.1 1.2-3.8 2.9-5.3 5.1-1.4 2.2-2.6 4.8-3.4 7.8-.8 3-1.2 6.3-1.2 9.8v.2c0 3.6.4 6.8 1.2 9.9.8 3 2 5.6 3.4 7.8 1.5 2.2 3.3 3.9 5.4 5.2 2 1.2 4.4 1.8 7 1.8zM570.7 396.7h16.9v43.2l19.8-21.7h20.2l-22.7 23.4 23.4 36.1H609l-15.5-24.3-5.9 6.2v18.1h-16.9v-81z"/></g><g><path fill="#5A5B5B" d="M867 390.2c-2.1 0-4.1-1.1-5.2-3-1.7-2.9-.7-6.6 2.2-8.2l115.1-66.8c1.7-1 3.8-1.1 5.6-.2l131.7 63c3 1.4 4.3 5 2.8 8-1.4 3-5 4.3-8 2.8l-128.8-61.7-112.3 65.2c-1 .6-2 .9-3.1.9z"/></g><g><path fill="#5A5B5B" d="M1531.2 518.2c-.8 0-1.7-.2-2.5-.6L1217 374.5l-176.6 91.4c-2.9 1.5-6.6.4-8.1-2.6s-.4-6.6 2.6-8.1l179.2-92.8c1.6-.9 3.6-.9 5.3-.1l314.3 144.4c3 1.4 4.3 5 3 8-1 2.2-3.2 3.5-5.5 3.5z"/><path fill="#5A5B5B" d="M1447.2 774.8h-195.8c-3.3 0-6-2.7-6-6V541.3H1143V767c0 3.3-2.7 6-6 6h-126.4c-3.3 0-6-2.7-6-6s2.7-6 6-6H1131V535.3c0-3.3 2.7-6 6-6h114.5c3.3 0 6 2.7 6 6v227.5h183.7V505.5c0-3.3 2.7-6 6-6s6 2.7 6 6v263.3c0 3.3-2.7 6-6 6z"/></g></svg>