<svg xmlns="http://www.w3.org/2000/svg" width="750" height="750" viewBox="585 165 750 750"><g fill="#5A5B5B"><path d="M800.104 489.207l-8.116-.28c1.562-45.056 20.286-87.17 52.724-118.584 32.52-31.495 75.368-48.84 120.648-48.84.19 0 .378.006.563.01l.324.008v8.12c-.184 0-.365-.003-.55-.01l-.338-.005c-89.566 0-162.155 70.097-165.257 159.583zm135.67 381.047c0 13.165 10.682 23.846 23.853 23.846 13.188 0 23.86-10.68 23.86-23.846h-47.714zM982.417 420.4c0 12.1-9.802 21.902-21.887 21.902-12.107 0-21.916-9.802-21.916-21.903 0-12.095 9.81-21.89 21.918-21.89 12.086 0 21.888 9.795 21.888 21.888m-.002 68.652c0 12.1-9.802 21.917-21.887 21.917-12.107 0-21.916-9.817-21.916-21.918 0-12.08 9.81-21.897 21.918-21.897 12.086 0 21.888 9.82 21.888 21.895m60.076-33.035c0 12.11-9.8 21.903-21.895 21.903-12.1 0-21.92-9.793-21.92-21.903 0-12.085 9.82-21.887 21.92-21.887 12.096 0 21.897 9.802 21.897 21.887m0 68.667c0 12.092-9.8 21.902-21.896 21.902-12.1 0-21.92-9.81-21.92-21.903s9.82-21.897 21.92-21.897c12.096 0 21.897 9.802 21.897 21.895m-163.954-68.665c0 12.11 9.81 21.903 21.91 21.903 12.093 0 21.903-9.793 21.903-21.903 0-12.085-9.81-21.887-21.903-21.887-12.1 0-21.91 9.802-21.91 21.887m0 68.667c0 12.092 9.81 21.902 21.91 21.902 12.093 0 21.903-9.81 21.903-21.903s-9.81-21.897-21.903-21.897c-12.1 0-21.91 9.802-21.91 21.895M962.188 185.9h8.12v40.054h-8.12zm82.532 12.446l7.74 2.46-12.134 38.16-7.74-2.46zm79.78 34.4l6.494 4.874-24.032 32.033-6.495-4.873zM887.798 198.33l12.124 38.157-7.74 2.46-12.123-38.158zm-79.795 34.43l24.02 32.038-6.497 4.872-24.02-32.038z"/><path d="M960 303.345c-102.56 0-186 83.438-186 186 0 29.847 7.27 59.53 21.03 85.908l.01.694.758.76c2.766 5.185 5.78 10.248 8.962 15.06 29.01 50.725 47.905 93.31 57.97 118.033v42.713h193.802v-40.76c8.603-21.786 27.12-64.75 58.628-119.867 20.177-30.447 30.84-65.9 30.84-102.542 0-102.56-83.44-186-186-186zm-35.92 396.953l21.32-126.76c3.934 3.76 9.256 6.08 15.132 6.08 5.704 0 10.884-2.202 14.78-5.78l21.634 126.46H924.08zm184.238-112.79l-.142.23c-29.757 52.04-48.055 93.413-57.43 116.62h-44.87l-24.16-141.23c.44-1.736.7-3.545.7-5.42 0-12.077-9.8-21.887-21.886-21.887-12.11 0-21.918 9.81-21.918 21.89 0 1.533.16 3.03.46 4.474L915.16 704.36h-45.89c-10.41-25.33-29.197-67.217-57.53-116.742l-.14-.227c-3.173-4.79-6.173-9.843-8.915-15.02l-.286-.54-.004-.004c-13.27-25.306-20.28-53.813-20.28-82.48 0-98.083 79.797-177.88 177.88-177.88s177.88 79.797 177.88 177.88c.002 35.083-10.22 69.027-29.56 98.163zM862.73 763.35v22.046c0 45.43 43.377 82.258 96.897 82.258 53.536 0 96.905-36.827 96.905-82.258V763.35H862.73z"/></g></svg>