<svg id="Layer_1" xmlns="http://www.w3.org/2000/svg" viewBox="0 0 1920 1080"><style>.st0{fill:none;stroke:#5A5B5B;stroke-width:12;stroke-linecap:round;stroke-linejoin:round;stroke-miterlimit:10;} .st1{fill:#5A5B5B;}</style><path class="st0" d="M1001.9 758.8h59.6V454.4h-203v304.4h59.6M1061.5 430.1l-104.2-29.8-98.8 29.8M833.7 545.9H638.2v212.9h195.5"/><path class="st0" d="M679.6 574.8h43v107.8h-43zM756.7 574.8h43v107.8h-43zM1086.3 545.9h195.5v212.9h-195.5"/><path class="st0" d="M1197.4 574.8h43v107.8h-43zM1120.3 574.8h43v107.8h-43zM1086.3 520.1h202.4M631.3 520.1h202.4M1001.9 758.8V628.7h-83.8v130.1M891 482.8h54.2v92H891zM974.8 482.8h54.2v92h-54.2zM957.3 400.3v-79.1M1061.5 371.1c-34.7-17.4-69.5 24.7-104.2 7.2v-53.5c34.7 17.4 69.5-24.7 104.2-7.2v53.5zM957.3 351.6c34.7 17.4 69.5-24.7 104.2-7.2"/><circle class="st0" cx="708" cy="368.4" r="125.7"/><g><path class="st1" d="M649.1 403.4v-.4c0-18.8 8.6-29.9 25-37.4-11.9-7.3-19.7-17.3-19.7-33.8v-.4c0-23.7 21.7-42.5 54.4-42.5s54.4 18.6 54.4 42.5v.4c0 16.6-7.7 26.5-19.7 33.8 15.7 8.2 25 18.1 25 36.5v.4c0 28.8-25.4 45.6-59.7 45.6s-59.7-17.7-59.7-44.7zm86.5-2.7v-.4c0-11.9-11.3-19-26.8-19s-26.8 7.1-26.8 19v.4c0 10.6 10 19.2 26.8 19.2s26.8-8.4 26.8-19.2zm-4.6-65.3v-.4c0-9.5-8.2-18.1-22.1-18.1s-22.1 8.4-22.1 17.9v.4c0 10.8 8.6 19 22.1 19s22.1-7.9 22.1-18.8z"/></g></svg>