<?xml version="1.0" encoding="utf-8"?>
<!-- Generator: Adobe Illustrator 18.1.1, SVG Export Plug-In . SVG Version: 6.00 Build 0)  -->
<svg version="1.1" id="Layer_1" xmlns="http://www.w3.org/2000/svg" xmlns:xlink="http://www.w3.org/1999/xlink" x="0px" y="0px"
	 viewBox="0 0 80.7 80.7" style="enable-background:new 0 0 80.7 80.7;" xml:space="preserve">
<style type="text/css">
	.st0{fill:#5A5A5A;}
	.st1{fill:none;}
</style>
<g>
	<path class="st0" d="M17.3,63.3V28.8c0-1.3,1-2.3,2.3-2.3h9.2v-9.2h23v9.2H61c1.3,0,2.3,1,2.3,2.3v34.5H44.9V51.8h-9.2v11.5H17.3
		 M33.4,21.9v13.8H38v-4.6h4.6v4.6h4.6V21.9h-4.6v4.6H38v-4.6H33.4 M21.9,58.7h9.2v-6.9h-9.2V58.7 M21.9,47.2h9.2v-6.9h-9.2V47.2
		 M49.5,58.7h9.2v-6.9h-9.2V58.7 M49.5,47.2h9.2v-6.9h-9.2V47.2 M35.7,47.2h9.2v-6.9h-9.2V47.2z"/>
</g>
<rect x="0" y="0.1" class="st1" width="80.7" height="80.7"/>
</svg>
