<svg width="545" height="545" viewBox="0 0 545 545" xmlns="http://www.w3.org/2000/svg"><title>GCBA-compromisos-icons-09</title><g fill="#5B5B5B" fill-rule="nonzero"><path d="M473.754 539H64.246C15.686 539 0 523.31 0 474.734V65.266C0 37.724 6.675 1 64.246 1h409.508C511.634 1 538 27.374 538 65.266v409.468c-.167 57.59-36.712 64.266-64.246 64.266zM64.246 21.7c-36.378 0-43.554 16.024-43.554 43.566v409.468c0 37.39 6.175 43.567 43.554 43.567h409.508c27.534 0 43.554-7.177 43.554-43.566V65.266c0-26.374-17.02-43.567-43.554-43.567H64.246z"/><path d="M256.638 76h-30.734l-30.568 86.448h57.293L256.637 76zm87.026 86.448L313.096 76H282.53l3.84 86.448h57.294zm130.788 32.27H64.548C43 194.72 43 194.72 43 216.29c0 21.57 0 21.57 21.548 21.57h21.547V281h43.095v-43.14h280.286V281h43.095v-43.14h21.882c21.548 0 21.548 0 21.548-21.57s0-21.57-21.548-21.57z"/><path d="M108 458h134.305l6.173-188h-80.25m122.46 0l6.007 188H431l-60.23-188"/></g></svg>