<svg xmlns="http://www.w3.org/2000/svg" viewBox="0 0 595.3 595.3"><g fill="#5B5B5B"><path d="M379.1 433.8H126.5V178.2l62-59.7h190.6v315.3zM147 413.3h211.7V139H196.8L147 186.9v226.4z"/><path d="M404.5 459.2h-239v-13.7h225.4V157.6h13.6"/><path d="M431.6 486.2h-239v-13.6H418v-288h13.6M224 305.533l9.688 9.688-47.87 47.87-9.688-9.685z"/><path d="M185.888 305.463l47.87 47.87-9.687 9.688-47.87-47.87zM171.1 220.8h67.7v13.7h-67.7z"/><path d="M198.1 193.8h13.7v67.7h-13.7zm68.7 133.6h67.7v13.7h-67.7zm0-106.6h67.7v13.7h-67.7z"/><circle cx="300.6" cy="357.4" r="7.6"/><circle cx="300.6" cy="311.2" r="7.6"/></g></svg>