<svg xmlns="http://www.w3.org/2000/svg" viewBox="0 0 595.3 595.3"><g fill="#5B5B5B"><circle cx="289.8" cy="117.6" r="29.7"/><path d="M291.6 184.3c10.5 0 15.7-3.7 16.3-30.8h-32.6c.6 27.1 5.8 30.8 16.3 30.8zM213.6 285.8v-38.5h-52.8c-18.9 0-30.8 17.2-30.8 38.6v58.4c0 17.7 21.1 17.7 21.1 0v-56h6.7v142.6c0 9.2 6.7 16.7 15 16.7s15-7.5 15-16.7v-77.8h6.7v77.8c0 9.2 6.7 16.7 15 16.7s15-7.5 15-16.7l.1-126.5c-6.3-3-11-9.3-11-18.6zM466.3 272l-23.8-78.3c-2.9-8.8-10.8-24.8-30.2-24.8h-46.9c-.8 0-1.5.1-2.3.1 4.3 7.7 6.6 16.7 6.6 25.7v90.7c0 7.8-3.2 12.6-5.8 15.3-3.5 3.5-8.1 5.4-13.1 5.4-4.1 0-6.2.6-11.7-.9v30.2h19V435c0 17.1 25.7 17.1 25.7 0V334.8h10.4v100.4c0 16.9 25.6 17 25.6 0v-99.7H454l-37.2-127.9h6.2l21.4 71.9c5.2 16.3 26.6 9.3 21.9-7.5zM190.9 186.9c-15 0-27.1 12.1-27.1 27.1s12.1 27.1 27.1 27.1c9.5 0 17.9-4.9 22.7-12.3v-29.6c-4.8-7.4-13.2-12.3-22.7-12.3z"/><path d="M336.1 283.2c0 8.9 5.8 13.4 11.6 13.4s11.6-4.5 11.6-13.4v-90.7c0-19.7-11.6-39.1-34.7-39.1H316c-.5 27-7.8 38.5-20.5 38.5v42.7c3.7 1.6 6.3 5.3 6.3 9.6 0 5.8-4.6 10.5-10.4 10.5s-10.4-4.6-10.4-10.4c0-4.3 2.6-8 6.3-9.6V192c-12.7 0-20-11.6-20.5-38.7h-9c-21 0-34.2 17.2-34.2 38.6v91.2c0 8.9 5.9 13.3 11.7 13.3 5.9 0 11.7-4.4 11.7-13.3v-88.8h7.5v240.9c0 9.2 7.5 16.7 16.7 16.7s16.7-7.5 16.7-16.7V295.4h7.4l-.1 139.8c0 9.2 7.5 16.7 16.7 16.7s16.6-7.5 16.6-16.7l.1-240.9h7.3l.2 88.9z"/><circle cx="385.9" cy="133.1" r="27.8"/></g></svg>