<svg xmlns="http://www.w3.org/2000/svg" width="750" height="750" viewBox="585 165 750 750"><path fill="#5A5B5B" d="M744.417 316.65l-11.58-11.545c62.875-63.056 146.54-97.78 235.582-97.78 87.776 0 170.595 33.892 233.2 95.435l-11.465 11.66c-59.525-58.517-138.274-90.744-221.737-90.744-84.666 0-164.22 33.02-224.003 92.975zM968.42 872.676c-89.04 0-172.703-34.73-235.582-97.79l11.58-11.545c59.787 59.963 139.34 92.984 224 92.984 83.464 0 162.21-32.226 221.738-90.742l11.463 11.66c-62.605 61.543-145.424 95.436-233.2 95.436z"/><path fill="#5A5B5B" d="M784.34 319.054h-53.89v-54.51h16.353V302.7h37.537m419.724 515.046h-16.353v-38.158h-37.534v-16.354h53.89m-477.7-183.497c-1.49 0-2.72-1.16-2.81-2.658-.077-1.55 1.126-2.87 2.666-2.945l32.06-1.633-5.306-38.42c-.21-1.54.866-2.952 2.396-3.17 1.515-.194 2.953.857 3.163 2.396l5.735 41.446c.118.774-.1 1.566-.605 2.18-.504.598-1.244.976-2.034 1.008l-35.123 1.793h-.14z"/><path fill="#5A5B5B" d="M817.125 708.152c-55.797 0-101.19-45.394-101.19-101.19s45.394-101.19 101.19-101.19c55.79 0 101.19 45.394 101.19 101.19s-45.4 101.19-101.19 101.19zm0-191.15c-49.606 0-89.952 40.36-89.952 89.96s40.346 89.946 89.952 89.946c49.59 0 89.945-40.348 89.945-89.946s-40.354-89.96-89.945-89.96z"/><path fill="#5A5B5B" d="M817.168 549.308c-.79 0-1.548-.33-2.078-.908l-28.303-30.877c-1.05-1.144-.976-2.918.16-3.953 1.145-1.06 2.928-.976 3.97.16l26.25 28.613 26.192-28.588c1.05-1.145 2.84-1.22 3.96-.17 1.135 1.053 1.23 2.82.175 3.972l-28.27 30.843c-.536.58-1.276.908-2.058.908zm90.66 30.322c-.04 0-.085 0-.136-.01l-32.868-1.676c-.79-.032-1.515-.41-2.036-1.008-.48-.613-.723-1.405-.605-2.18l5.5-39.73c.21-1.55 1.674-2.558 3.172-2.39 1.538.22 2.606 1.623 2.39 3.162l-5.073 36.704 29.808 1.516c1.548.073 2.733 1.396 2.65 2.935-.077 1.506-1.306 2.676-2.803 2.676zm-40.565 111.507c-1.49 0-2.742-1.186-2.81-2.69l-1.666-38.135c-.025-.782.278-1.555.825-2.102.555-.557 1.37-.833 2.12-.826l35.93 1.566c1.557.074 2.76 1.38 2.69 2.925-.058 1.548-1.47 2.635-2.926 2.692l-32.877-1.43 1.51 35.072c.077 1.555-1.134 2.86-2.682 2.925h-.117zm-97.103 1.876h-.11c-1.556-.067-2.76-1.38-2.69-2.926l1.598-36.94-36.082 1.563c-1.573-.092-2.86-1.144-2.927-2.69-.07-1.547 1.142-2.86 2.69-2.927l39.143-1.7c.78-.016 1.556.27 2.11.824.548.547.842 1.313.824 2.104l-1.74 40.004c-.077 1.513-1.313 2.69-2.818 2.69z"/><path fill="#5A5B5B" d="M771.9 653.013c-.765 0-1.522-.305-2.077-.925-1.035-1.138-.96-2.92.185-3.954l21.473-19.63c1.154-1.06 2.93-.968 3.964.177 1.052 1.137.968 2.92-.168 3.96l-21.48 19.633c-.53.496-1.213.74-1.895.74zm93.704 0c-.656 0-1.295-.22-1.824-.674l-22.98-19.624c-1.186-1.01-1.32-2.777-.318-3.963 1.018-1.176 2.793-1.31 3.953-.312l22.986 19.625c1.19 1.008 1.33 2.775.32 3.952-.552.648-1.335.995-2.135.995zm-16.02-60.273c-.97 0-1.894-.496-2.433-1.39-.78-1.344-.317-3.06 1.01-3.842l25.386-14.787c1.33-.79 3.053-.335 3.845 1.013.78 1.345.328 3.06-1.01 3.834l-25.383 14.796c-.446.25-.925.378-1.413.378zm-64.924-.765c-.505 0-1-.127-1.463-.403l-23.146-14.02c-1.33-.808-1.74-2.533-.94-3.854.8-1.328 2.523-1.748 3.85-.95l23.148 14.02c1.337.81 1.758 2.525.96 3.854-.53.873-1.456 1.353-2.407 1.353zm32.483-24.535c-1.548 0-2.8-1.263-2.8-2.817v-18.125c0-1.548 1.26-2.802 2.825-2.802 1.53 0 2.8 1.254 2.8 2.802l-.017 18.125c0 1.555-1.25 2.816-2.806 2.816z"/><path fill="#5A5B5B" d="M842.602 633.382h-49.236c-1.313 0-2.465-.935-2.733-2.23l-8.73-41.405c-.22-1.068.192-2.17 1.068-2.826l32.668-24.54c1.036-.766 2.424-.75 3.424.03l32.257 25.326c.8.632 1.192 1.66 1.025 2.676l-6.974 40.634c-.226 1.344-1.396 2.338-2.767 2.338zm-46.95-5.62h44.586l6.282-36.654-29.22-22.935-29.52 22.178 7.872 37.413z"/><g fill="#5A5B5B"><path d="M948.998 491.803h-.018c-19.066 0-34.677-5.52-45.098-15.94-15.577-15.566-19.933-41.943-12.288-74.232 6.51-27.45 20.783-54.743 37.276-71.23 23.323-23.33 66.48-40.916 100.357-40.916 19.092 0 34.678 5.51 45.09 15.938 15.578 15.552 19.96 41.93 12.297 74.234-6.485 27.436-20.782 54.73-37.276 71.222-23.306 23.323-66.46 40.927-100.34 40.927zm80.23-189.227c-30.294 0-70.305 16.275-91.104 37.075-14.643 14.637-27.915 40.163-33.786 64.99-6.476 27.32-3.264 49.903 8.797 61.973 10.002 9.992 25.015 12.095 35.864 12.095 30.285 0 70.304-16.284 91.086-37.083 14.645-14.65 27.916-40.153 33.803-64.99 6.46-27.327 3.264-49.9-8.823-61.962-9.993-10.01-24.998-12.096-35.84-12.096z"/><path d="M908.518 474.51c-.102 0-.194-.025-.286-.025-1.8-.144-3.138-1.724-2.994-3.523 11.53-136.524 162.387-163.894 163.925-164.154 1.732-.303 3.45.892 3.77 2.675.303 1.783-.893 3.482-2.676 3.785-1.463.244-147.39 26.82-158.492 158.232-.144 1.723-1.582 3.01-3.247 3.01z"/><path d="M908.5 474.52c-1.682 0-3.12-1.288-3.263-3.004-.144-1.8 1.194-3.373 2.994-3.532 131.438-11.095 158.007-157.03 158.26-158.502.31-1.783 1.97-2.978 3.776-2.675 1.782.303 2.97 2.002 2.673 3.777-.26 1.538-27.63 152.395-164.153 163.926-.11.01-.202.01-.286.01z"/></g><g fill="#5A5B5B"><path d="M1096.052 708.152c-55.78 0-101.18-45.394-101.18-101.182 0-55.806 45.4-101.198 101.18-101.198 55.806 0 101.2 45.393 101.2 101.198 0 55.79-45.395 101.182-101.2 101.182zm0-191.572c-49.834 0-90.374 40.557-90.374 90.39 0 49.826 40.54 90.375 90.374 90.375 49.843 0 90.39-40.55 90.39-90.374 0-49.832-40.547-90.39-90.39-90.39z"/><path d="M1190.522 625.61h-188.58c-1.487 0-2.7-1.212-2.7-2.702 0-1.497 1.213-2.708 2.7-2.708h188.58c1.488 0 2.69 1.21 2.69 2.708 0 1.49-1.2 2.702-2.69 2.702zm-10.882 30.858h-167.166c-1.488 0-2.708-1.21-2.708-2.708 0-1.488 1.22-2.7 2.708-2.7h167.165c1.503 0 2.7 1.212 2.7 2.7 0 1.497-1.197 2.708-2.7 2.708zm11.017-61.938H1000.27c-1.48 0-2.69-1.21-2.69-2.7 0-1.496 1.21-2.707 2.69-2.707h190.388c1.497 0 2.69 1.21 2.69 2.708 0 1.49-1.194 2.7-2.69 2.7zm-10.067-29.95h-169.066c-1.48 0-2.708-1.21-2.708-2.69 0-1.488 1.23-2.7 2.708-2.7h169.065c1.495 0 2.706 1.212 2.706 2.7 0 1.48-1.21 2.69-2.708 2.69z"/><path d="M1079.256 564.58c-1.497 0-2.708-1.21-2.708-2.69v-49.313c0-1.488 1.21-2.7 2.708-2.7s2.7 1.212 2.7 2.7v49.313c0 1.48-1.203 2.69-2.7 2.69zm-29.943 0c-1.49 0-2.7-1.21-2.7-2.69V523.2c0-1.49 1.21-2.7 2.7-2.7 1.505 0 2.7 1.21 2.7 2.7v38.69c0 1.48-1.195 2.69-2.7 2.69zm63.132 0c-1.49 0-2.7-1.21-2.7-2.69v-49.313c0-1.488 1.21-2.7 2.7-2.7 1.505 0 2.7 1.212 2.7 2.7v49.313c0 1.48-1.195 2.69-2.7 2.69zm30.102 0c-1.498 0-2.71-1.21-2.71-2.69V523.2c0-1.49 1.212-2.7 2.71-2.7 1.488 0 2.69 1.21 2.69 2.7v38.69c0 1.48-1.202 2.69-2.69 2.69zm-63.29 139.745c-1.498 0-2.71-1.202-2.71-2.7V653.76c0-1.488 1.21-2.7 2.71-2.7s2.7 1.212 2.7 2.7v47.866c0 1.497-1.204 2.7-2.7 2.7zm-29.944-11.043c-1.49 0-2.7-1.21-2.7-2.708V653.76c0-1.488 1.21-2.7 2.7-2.7 1.505 0 2.7 1.212 2.7 2.7v36.814c0 1.497-1.195 2.708-2.7 2.708zm63.132 10.566c-1.49 0-2.7-1.21-2.7-2.708v-47.38c0-1.488 1.21-2.7 2.7-2.7 1.505 0 2.7 1.212 2.7 2.7v47.38c0 1.497-1.195 2.708-2.7 2.708zm30.102-10.566c-1.498 0-2.71-1.21-2.71-2.708V653.76c0-1.488 1.212-2.7 2.71-2.7 1.488 0 2.69 1.212 2.69 2.7v36.814c0 1.497-1.202 2.708-2.69 2.708z"/></g></svg>