<svg id="Layer_1" xmlns="http://www.w3.org/2000/svg" viewBox="0 0 80.7 80.7"><style>.st0{fill:#5A5A5A;} .st1{fill:none;}</style><path class="st0" d="M64.2 46.3H48.3V35.7H16.4v28.2h21.2V51.6H43v12.3h21.2V46.3zM27.1 57h-5.3v-5.3h5.3V57zm0-10.7h-5.3V41h5.3v5.3zm15.9 0h-5.3V41H43v5.3zM58.9 57h-5.3v-5.3h5.3V57z"/><path class="st0" d="M50.9 20c-2.2 0-2.2-2.2-5.4-2.2-1.6 0-3.2.5-4.4 1v-1c0-.6-.5-1.1-1.1-1.1-.6 0-1.1.5-1.1 1.1v18.5h2.2v-7.6s1.1-2.2 4.4-2.2c2.2 0 2.2 2.2 5.4 2.2 3.3 0 4.4-2.2 4.4-2.2v-8.7c0 .1-1.1 2.2-4.4 2.2zm2.2 4.8s0 1.1-2.2 1.1-3.3-2.2-5.4-2.2c-2.2 0-4.4 1.6-4.4 1.6v-3.6s2.2-1.4 4.4-1.4 3.3 2.2 5.4 2.2c1.1 0 2.2-.5 2.2-.5v2.8z"/><path class="st1" d="M0 .6h80.7v80.7H0z"/></svg>