<svg width="545" height="545" viewBox="0 0 545 545" xmlns="http://www.w3.org/2000/svg"><title>GCBA-compromisos-icons-07</title><path d="M273.08 16C153.726 16 57 29.542 57 124.017v256.5c0 52.256 42.387 94.475 94.495 94.475l-40.475 40.466V529h323.96v-13.542l-40.475-40.466c52.267 0 94.495-42.38 94.495-94.475v-256.5C489.16 29.542 392.433 16 273.08 16zM151.654 420.983c-22.31 0-40.475-18.162-40.475-40.466 0-22.305 18.165-40.467 40.474-40.467 22.31 0 40.475 18.162 40.475 40.467 0 22.304-18.167 40.466-40.476 40.466zm94.495-162.025H111.18v-134.94h134.97v134.94zm148.514 162.025c-22.31 0-40.475-18.162-40.475-40.466 0-22.305 18.165-40.467 40.474-40.467 22.31 0 40.475 18.162 40.475 40.467 0 22.304-18.167 40.466-40.476 40.466zm40.475-162.025H300.17v-134.94h134.97v134.94z" fill="#5B5B5B" fill-rule="nonzero"/></svg>