<svg width="545" height="545" viewBox="0 0 545 545" xmlns="http://www.w3.org/2000/svg"><title>GCBA-compromisos-icons-11</title><g fill="#5B5B5B" fill-rule="nonzero"><path d="M399.73 417.683H146.27v-337.3h253.62l-.16 337.3zm-78.456 72.222h-96.548v-24.127h96.548v24.127zM369.63 8H176.37C136.344 8 104 40.436 104 80.222v385.556C104 505.724 136.503 538 176.37 538h193.26c40.027 0 72.37-32.436 72.37-72.222V80.382C442 40.436 409.657 8 369.63 8z"/><path d="M242.586 113c-16.79 0-30.224 13.436-30.224 30.23 0 16.796 13.433 30.233 30.224 30.233 16.79 0 30.223-13.437 30.223-30.232.16-16.794-13.433-30.23-30.224-30.23zm16.47 70.22c-5.596 0-14.71 2.08-22.227 7.358l-48.135 34.23c-13.112 9.277-1.12 25.752 11.194 17.595l31.502-20.794s20.79 44.626 12.953 65.42c-.32.64-.48 1.28-.48 1.92l-32.462 86.215C207.725 385.082 214.76 391 222.117 391c4.797 0 9.275-2.88 11.514-8.318l40.3-95.492s7.355 44.467 37.098 44.467h40.778C363 331.657 363 320.46 363 320.46s0-11.196-11.194-11.196h-33.422c-15.83 0-14.87-23.834-14.87-37.11 0-22.233-14.873-59.343-14.873-59.343l44.456 29.593c13.433 8.957 25.107-6.878 11.994-16.635l-49.093-35.19c-8.955-6.398-11.834-7.358-22.228-7.358h-14.713z"/></g></svg>