<svg xmlns="http://www.w3.org/2000/svg" width="750" height="750" viewBox="0 0 750 750"><g fill="#5A5B5B"><path d="M481.096 470.476c-.81-1.788-2.592-2.938-4.555-2.938H269.585c-1.964 0-3.745 1.15-4.555 2.938l-25.875 57.153c-.294.646-.445 1.35-.445 2.06 0 17.02 13.85 30.865 30.873 30.865 10.823 0 20.356-5.603 25.87-14.055 5.512 8.453 15.045 14.056 25.868 14.056 10.823 0 20.356-5.603 25.867-14.056 5.515 8.453 15.052 14.056 25.878 14.056 10.82 0 20.354-5.603 25.866-14.055 5.513 8.453 15.046 14.057 25.868 14.057 10.826 0 20.36-5.603 25.875-14.055 5.512 8.453 15.045 14.056 25.87 14.056 17.024 0 30.878-13.846 30.878-30.864 0-.71-.15-1.414-.444-2.063l-25.88-57.153zM308.323 622.378c2.762 0 5-2.238 5-5v-42.485c0-2.762-2.238-5-5-5h-47.036c-2.762 0-5 2.238-5 5v42.485c0 2.762 2.238 5 5 5h47.036zm-42.036-42.486h37.036v32.485h-37.036v-32.485zm48.696 48.643H254.63c-2.76 0-5 2.238-5 5s2.24 5 5 5h60.353c2.762 0 5-2.238 5-5s-2.238-5-5-5zm81.597-6.157c2.762 0 5-2.238 5-5v-42.485c0-2.762-2.238-5-5-5h-47.042c-2.762 0-5 2.238-5 5v42.485c0 2.762 2.238 5 5 5h47.042zm-42.04-42.486h37.04v32.485h-37.04v-32.485zm48.695 48.643h-60.35c-2.763 0-5 2.238-5 5s2.237 5 5 5h60.35c2.762 0 5-2.238 5-5s-2.24-5-5-5zm81.597-6.157c2.762 0 5-2.238 5-5v-42.485c0-2.762-2.238-5-5-5h-47.037c-2.762 0-5 2.238-5 5v42.485c0 2.762 2.238 5 5 5h47.037zm-42.037-42.486h37.037v32.485h-37.037v-32.485zm48.692 48.643h-60.352c-2.762 0-5 2.238-5 5s2.238 5 5 5h60.352c2.762 0 5-2.238 5-5s-2.24-5-5-5zm-183.164-194.43c2.762 0 5-2.237 5-5V386.62c0-2.76-2.238-5-5-5h-47.036c-2.762 0-5 2.24-5 5v42.486c0 2.762 2.238 5 5 5h47.036zm-42.036-42.484h37.036v32.487h-37.036V391.62zm-16.655 53.648c0 2.762 2.238 5 5 5h60.352c2.762 0 5-2.238 5-5s-2.238-5-5-5h-60.352c-2.762 0-5 2.24-5 5zm146.948-11.162c2.762 0 5-2.238 5-5V386.62c0-2.76-2.238-5-5-5h-47.042c-2.762 0-5 2.24-5 5v42.486c0 2.762 2.238 5 5 5h47.042zm-42.04-42.485h37.04v32.487h-37.04V391.62zm-16.656 53.648c0 2.762 2.238 5 5 5h60.35c2.763 0 5-2.238 5-5s-2.237-5-5-5h-60.35c-2.762 0-5 2.24-5 5zm146.948-11.162c2.762 0 5-2.238 5-5V386.62c0-2.76-2.238-5-5-5h-47.037c-2.762 0-5 2.24-5 5v42.486c0 2.762 2.238 5 5 5h47.037zm-42.037-42.485h37.037v32.487h-37.037V391.62zm-16.66 53.648c0 2.762 2.238 5 5 5h60.352c2.762 0 5-2.238 5-5s-2.238-5-5-5h-60.352c-2.762 0-5 2.24-5 5z"/><path d="M546.317 341.27H203.684c-2.76 0-5 2.24-5 5v19.888c0 2.76 2.24 5 5 5h23.09v289.78c0 2.762 2.24 5 5 5s5-2.238 5-5v-289.78H508.89v289.78c0 2.762 2.237 5 5 5s5-2.238 5-5v-289.78h27.427c2.762 0 5-2.24 5-5V346.27c0-2.76-2.24-5-5-5zm-285.894-30.518h89.23c19.785 0 35.883-16.1 35.883-35.89 0-2.76-2.238-5-5-5s-5 2.24-5 5c0 14.276-11.612 25.89-25.884 25.89h-89.23c-14.274 0-25.888-11.614-25.888-25.89 0-14.27 11.613-25.883 25.89-25.883.93 0 1.937.07 3.15.22.8.16 8.044 1.87 10.312 10.69.58 2.258 2.61 3.757 4.84 3.757.41 0 .83-.05 1.248-.158 2.674-.69 4.285-3.415 3.598-6.088-2.28-8.875-7.73-13.47-12.126-15.804 7.006-11.032 19.256-17.924 32.513-17.924 15.194 0 29.014 8.995 35.205 22.916 1.12 2.522 4.076 3.658 6.6 2.536 2.523-1.122 3.66-4.077 2.537-6.6-7.795-17.527-25.2-28.853-44.344-28.853-17.783 0-34.132 9.827-42.59 25.318-.32-.01-.634-.015-.946-.015-19.79 0-35.89 16.098-35.89 35.884 0 19.792 16.1 35.89 35.89 35.89z"/><path d="M396.97 195.46c-.32-.01-.634-.016-.946-.016-19.79 0-35.89 16.098-35.89 35.884 0 19.79 16.1 35.89 35.89 35.89h89.23c19.784 0 35.882-16.1 35.882-35.89 0-2.76-2.238-5-5-5s-5 2.24-5 5c0 14.275-11.61 25.89-25.883 25.89h-89.23c-14.274 0-25.888-11.614-25.888-25.89 0-14.272 11.614-25.884 25.89-25.884.93 0 1.937.07 3.15.22.8.163 8.044 1.87 10.312 10.693.58 2.257 2.61 3.756 4.838 3.756.412 0 .832-.05 1.25-.158 2.674-.688 4.285-3.413 3.598-6.087-2.28-8.875-7.732-13.47-12.127-15.804 7.008-11.03 19.256-17.923 32.514-17.923 15.195 0 29.016 8.997 35.207 22.918 1.12 2.522 4.072 3.658 6.6 2.536 2.523-1.122 3.658-4.077 2.537-6.6-7.795-17.527-25.2-28.853-44.344-28.853-17.784 0-34.132 9.83-42.59 25.32zm-97.473-46.084c-14.413 16.604-21.497 37.828-19.945 59.762.187 2.634 2.38 4.646 4.982 4.646.118 0 .238-.004.357-.013 2.757-.192 4.83-2.583 4.637-5.34-1.362-19.266 4.86-37.91 17.522-52.5 12.662-14.587 30.25-23.37 49.52-24.73 25.66-1.82 50.58 10.313 65.024 31.648 1.55 2.285 4.656 2.885 6.943 1.337s2.887-4.657 1.338-6.943c-16.438-24.278-44.777-38.072-74.01-36.017-21.934 1.55-41.953 11.547-56.367 28.153zm-46.144 48.394L271 199.653c.18.02.36.03.537.03 2.523 0 4.69-1.905 4.966-4.47.293-2.747-1.695-5.21-4.44-5.504l-17.646-1.886c-2.743-.292-5.21 1.695-5.503 4.44-.294 2.747 1.694 5.21 4.44 5.504zm7.19-44.733l17.645 8.48c.698.337 1.437.495 2.162.495 1.862 0 3.65-1.044 4.51-2.835 1.197-2.488.15-5.476-2.34-6.672l-17.646-8.48c-2.49-1.198-5.476-.15-6.673 2.34-1.194 2.488-.147 5.476 2.343 6.672zm42.76-22.967c.99 1.12 2.367 1.692 3.75 1.692 1.178 0 2.358-.412 3.31-1.25 2.07-1.828 2.267-4.988.44-7.06L296.807 107.6c-1.828-2.07-4.988-2.27-7.058-.44-2.07 1.827-2.268 4.986-.44 7.057l13.994 15.854zm41.967-18.112c.504 2.347 2.577 3.95 4.884 3.95.348 0 .7-.035 1.055-.11 2.7-.58 4.417-3.24 3.837-5.94l-4.692-21.845c-.58-2.7-3.24-4.416-5.938-3.84-2.7.58-4.42 3.24-3.84 5.94l4.692 21.845zm51.715 11.58c.584.22 1.182.326 1.77.326 2.02 0 3.92-1.23 4.677-3.228l7.164-18.877c.98-2.584-.32-5.47-2.902-6.45-2.582-.98-5.47.32-6.447 2.9l-7.164 18.877c-.98 2.583.32 5.47 2.902 6.45zm35.03 24.915c1.005 0 2.02-.303 2.9-.93l17.28-12.335c2.246-1.604 2.77-4.728 1.164-6.975-1.607-2.25-4.73-2.77-6.977-1.165l-17.28 12.334c-2.247 1.604-2.77 4.727-1.165 6.975.976 1.367 2.513 2.096 4.074 2.096z"/></g></svg>