<svg xmlns="http://www.w3.org/2000/svg" width="750" height="750" viewBox="0 0 750 750"><g fill="#5A5B5B"><path d="M138.064 275.388h-14.286l-42.2 48.903 2.75 11.98h37.582v16.595h16.154V336.27h10.33v-13.737h-10.33v-47.145zm-16.154 47.144h-20.44l20.44-23.957v23.957zm39.446-49.892v80.223h16.704V334.95l5.825-6.154 15.385 24.067h19.12l-23.187-35.715 22.42-23.188H197.62l-19.56 21.43v-42.75"/><path d="M261.92 292.24c0-59.288-48.238-107.523-107.53-107.523S46.86 232.952 46.86 292.24c0 59.295 48.238 107.535 107.53 107.535s107.53-48.24 107.53-107.534zm-205.06 0c0-53.774 43.752-97.523 97.53-97.523s97.53 43.75 97.53 97.524c0 53.783-43.752 97.536-97.53 97.536s-97.53-43.753-97.53-97.534z"/><path d="M159.85 255.532v-16.397h16.395v-10.927H159.85V211.81h-10.93v16.398h-16.386v10.927h16.387v16.397M702.438 444.77l-38.1-98.726c-1.12-2.91-3.497-5.166-6.46-6.123l-226.93-74.495c-2.09-.68-4.39-.68-6.475 0l-145.35 47.706c-28.385 108.355-114.69 101.97-114.69 101.97l-11.45 29.672c-1.66 4.293-.297 9.156 3.326 11.97l59.19 45.73v24.283c0 .244-.02.46-.02.713v2.896h57.46s83.74 34.922 154.746 34.922c71.025 0 162.856-36.675 162.856-36.675h49.35v-26.14l59.22-45.73c3.64-2.813 4.987-7.677 3.327-11.97zM394.33 350.864l31.285 6.484c1.382.298 2.813.298 4.194 0l31.292-6.484v38.13c0 11.738-20.322 25.508-33.418 32.227-14.785-7.527-33.354-21.414-33.354-32.225v-38.13zm224.313 146.128c-33.457-28.9-104.487-47.998-190.942-47.998-86.85 0-158.13 19.282-191.375 48.408l.47-18.354c0-.044-.025-.083-.025-.132 0-.044.023-.083.023-.127 0-26.887 59.126-56.31 148.164-63.68 13.628 15.558 35.078 25.59 38.53 27.13 1.343.615 2.783.913 4.214.913 1.47 0 2.907-.298 4.25-.913 3.45-1.537 24.9-11.57 38.52-27.128 89.034 7.383 148.175 36.792 148.175 63.677v18.2z"/></g></svg>