<svg id="Layer_1" xmlns="http://www.w3.org/2000/svg" viewBox="0 0 750 750"><style>.st0{fill:none;stroke:#5A5B5B;stroke-width:12;stroke-linecap:round;stroke-linejoin:round;stroke-miterlimit:10;}</style><path class="st0" d="M245.2 409.5c30.3 27.1 70.7 43.7 114.9 43.7 94.2-.1 170.5-74.9 170.5-167.2 0-14.5-1.8-28.5-5.4-41.9M602.7 174.8c0-15.2-6.4-28.8-16.8-38.7v-31.8c0-20.6-16.9-37.2-37.9-37.2s-37.9 16.6-37.9 37.2v31.8c-10.4 9.7-16.8 23.4-16.8 38.7 0 0 54.2 22.9 109.4 0zM517.1 138.9s24.1 7.5 46.5 2.4M573.5 139.4s2.8-.6 5.7-1.6M563.6 191.4c0 8.4-6.9 15.2-15.5 15.2s-15.5-6.8-15.5-15.2M440.4 138.5c-23.9-12.6-51.3-19.6-80.2-19.6-50.4 0-95.7 21.4-126.9 55.6"/><path class="st0" d="M442.9 187.7H321.2v196.7h121.7"/><path class="st0" d="M267.1 177.5h54.1v217.1h-54.1zM3.3 436.8h221.4v53H3.3zM267.1 383c-30.3 0-54.9 24.1-54.9 53.8H16.5c0-135.5 105.9-249.4 250.6-249.4M104.5 501.4c-8.8 15.6-22.7 35.9-22.7 46.9 0 16.1 13.3 29.1 29.7 29.1s29.7-13 29.7-29.1c0-14.6-8.8-32.3-16.8-45.3M642.2 136.9c0 51-42.1 92.4-94.1 92.4s-94.2-41.3-94.2-92.4c0-51 42.1-92.4 94.2-92.4s94.1 41.4 94.1 92.4z"/><path class="st0" d="M182.9 187.7c35.1-59.2 100.5-99.1 175.4-99.1 30.5 0 60.3 7.2 86.2 19 13-44.2 54.4-76.4 103.6-76.4 59.5 0 107.8 47.3 107.8 105.7 0 55.7-44 101.3-99.7 105.4 3 13.5 4.8 30.7 4.8 45.1 0 109.8-90.8 198.8-202.7 198.8-43.4 0-83.5-13.3-116.4-36.1"/></svg>