<svg xmlns="http://www.w3.org/2000/svg" width="750" height="750" viewBox="585 165 750 750"><g fill="#5A5B5B"><path d="M1107.376 796.146V354.69H825.303v59.945h-25.135v9.682h25.135v110.197h-25.135v9.682h25.135v110.21h-25.135v9.683h25.135v132.054h282.073zm-18.23-430.21c4.125 0 7.475 3.358 7.475 7.485 0 4.135-3.35 7.48-7.473 7.48-4.13 0-7.47-3.345-7.47-7.478 0-4.126 3.34-7.484 7.47-7.484zm-37.766 0c4.127 0 7.48 3.358 7.48 7.485 0 4.135-3.353 7.48-7.48 7.48-4.125 0-7.477-3.345-7.477-7.478 0-4.126 3.352-7.484 7.477-7.484zm-37.764 0c4.127 0 7.47 3.358 7.47 7.485 0 4.135-3.343 7.48-7.47 7.48-4.125 0-7.47-3.345-7.47-7.478 0-4.126 3.345-7.484 7.47-7.484zM834.978 664.09h236.805v-9.683H834.978v-110.21h236.805v-9.682H834.978V424.318h236.805v-9.682H834.978v-24.568h262.717v396.396H834.978V664.09z"/><path d="M845.126 444.605h194.812v9.682H845.126zm74.928 29.978h151.73v9.682h-151.73zm-59.314 89.902h211.043v9.68H860.74zm29.964 29.975h181.08v9.683h-181.08zm-29.964 89.917h177.96v9.683H860.74zm29.964 29.97h181.08v9.683h-181.08zm30.92 29.976h89.342v9.683h-89.342z"/><path d="M1132.712 275.656H823.227c1.228 6.385 1.928 12.952 1.928 19.688 0 13.734-2.737 26.828-7.585 38.85h331.582V816.63H783.217V378.745c-7.996 5.994-16.855 10.84-26.39 14.36V832.35c0 23.646 19.162 42.822 42.827 42.822h333.057c23.648 0 42.83-19.176 42.83-42.822V318.477c0-23.645-19.18-42.82-42.827-42.82zm-166.527 587.05c-8.928 0-16.168-7.242-16.168-16.164 0-8.933 7.24-16.174 16.168-16.174 8.926 0 16.168 7.24 16.168 16.174 0 8.922-7.243 16.163-16.168 16.163z"/><path d="M810.59 295.344c0-49.988-40.52-90.516-90.494-90.516-49.988 0-90.51 40.528-90.51 90.516 0 49.974 40.52 90.49 90.51 90.49 49.974 0 90.495-40.516 90.495-90.49zm-46.063 13.12h-31.304v31.305h-26.26v-31.307H675.65V282.21h31.312v-31.32h26.26v31.317h31.305v26.254z"/></g></svg>