<svg xmlns="http://www.w3.org/2000/svg" width="750" height="750" viewBox="585 165 750 750"><g fill="#5A5B5B"><path d="M931.32 366.77c-55.977 0-101.518 45.54-101.518 101.517 0 53.925 92.556 196.126 96.496 202.153 1.108 1.695 2.997 2.717 5.022 2.717s3.914-1.02 5.022-2.717c3.94-6.027 96.497-148.228 96.497-202.153 0-55.977-45.542-101.518-101.52-101.518zm0 289.267c-19.567-30.85-89.518-144.19-89.518-187.75 0-49.36 40.158-89.518 89.518-89.518s89.52 40.157 89.52 89.517c0 43.553-69.96 156.908-89.52 187.75z"/><path d="M931.32 405.205c-34.286 0-62.18 27.896-62.18 62.184 0 34.285 27.894 62.178 62.18 62.178 34.285 0 62.18-27.893 62.18-62.18s-27.895-62.183-62.18-62.183zm0 112.362c-27.668 0-50.18-22.51-50.18-50.18 0-27.67 22.51-50.183 50.18-50.183s50.18 22.512 50.18 50.184c0 27.67-22.51 50.18-50.18 50.18zM735.38 518.188c-3.313 0-6 2.687-6 6v35.514c0 3.313 2.687 6 6 6h35.5c3.314 0 6-2.687 6-6v-35.514c0-3.313-2.686-6-6-6h-35.5zm29.5 35.514h-23.5v-23.514h23.5v23.514z"/><path d="M903.28 671.23H776.88V595.2c0-3.313-2.686-6-6-6h-35.5c-3.313 0-6 2.687-6 6v76.034h-130.01V494.685h201.01v65.018c0 3.313 2.687 6 6 6h39.264c3.313 0 6-2.687 6-6s-2.687-6-6-6h-33.264v-65.018c0-3.313-2.686-6-6-6h-213.01c-3.313 0-6 2.687-6 6v188.548c0 3.313 2.687 6 6 6h142.01c3.314 0 6-2.687 6-6V601.2h23.5v76.032c0 3.313 2.687 6 6 6H903.28c3.312 0 6-2.687 6-6s-2.688-6-6-6z"/><path d="M664.377 589.198h-35.5c-3.313 0-6 2.687-6 6v35.504c0 3.313 2.687 6 6 6h35.5c3.313 0 6-2.687 6-6v-35.504c0-3.313-2.687-6-6-6zm-6 35.504h-23.5v-23.504h23.5v23.504zM670.377 524.188c0-3.313-2.687-6-6-6h-35.5c-3.313 0-6 2.687-6 6v35.514c0 3.313 2.687 6 6 6h35.5c3.313 0 6-2.687 6-6v-35.514zm-12 29.514h-23.5v-23.514h23.5v23.514zM1261.358 645.053c0 3.313 2.687 6 6 6h35.505c3.313 0 6-2.687 6-6v-68.76c0-3.313-2.687-6-6-6h-35.505c-3.313 0-6 2.687-6 6v68.76zm12-62.76h23.505v56.76h-23.505v-56.76zM1144.998 559.088h35.504c3.313 0 6-2.687 6-6v-68.76c0-3.315-2.687-6-6-6h-35.504c-3.313 0-6 2.685-6 6v68.76c0 3.313 2.687 6 6 6zm6-68.76h23.504v56.76h-23.504v-56.76zM1083.822 559.088h35.504c3.313 0 6-2.687 6-6v-68.76c0-3.315-2.687-6-6-6h-35.504c-3.313 0-6 2.685-6 6v68.76c0 3.313 2.687 6 6 6zm6-68.76h23.504v56.76h-23.504v-56.76z"/><path d="M1328.63 453.955H1046.02c-3.313 0-6 2.687-6 6s2.687 6 6 6h276.607v205.277h-272.04V595.2c0-3.314-2.686-6-6-6h-35.504c-3.313 0-6 2.686-6 6v76.032h-38.2c-3.312 0-6 2.687-6 6s2.688 6 6 6h44.2c3.313 0 6-2.687 6-6V601.2h23.505v76.032c0 3.313 2.688 6 6 6h284.04c3.312 0 6-2.687 6-6V459.955c0-3.314-2.688-6-6-6z"/><path d="M1267.358 559.088h35.505c3.313 0 6-2.687 6-6v-68.76c0-3.315-2.687-6-6-6h-35.505c-3.313 0-6 2.685-6 6v68.76c0 3.313 2.687 6 6 6zm6-68.76h23.505v56.76h-23.505v-56.76zM1138.998 645.053c0 3.313 2.687 6 6 6h35.504c3.313 0 6-2.687 6-6v-68.76c0-3.313-2.687-6-6-6h-35.504c-3.313 0-6 2.687-6 6v68.76zm12-62.76h23.504v56.76h-23.504v-56.76zM1077.822 645.053c0 3.313 2.687 6 6 6h35.504c3.313 0 6-2.687 6-6v-68.76c0-3.313-2.687-6-6-6h-35.504c-3.313 0-6 2.687-6 6v68.76zm12-62.76h23.504v56.76h-23.504v-56.76zM1200.183 645.053c0 3.313 2.687 6 6 6h35.5c3.313 0 6-2.687 6-6v-68.76c0-3.313-2.687-6-6-6h-35.5c-3.313 0-6 2.687-6 6v68.76zm12-62.76h23.5v56.76h-23.5v-56.76zM1206.183 559.088h35.5c3.313 0 6-2.687 6-6v-68.76c0-3.315-2.687-6-6-6h-35.5c-3.313 0-6 2.685-6 6v68.76c0 3.313 2.686 6 6 6zm6-68.76h23.5v56.76h-23.5v-56.76zM1183.784 448.67c.574 0 1.158-.084 1.736-.26l68.793-20.77 72.663 20.796c3.187.91 6.508-.932 7.42-4.118.91-3.186-.932-6.507-4.117-7.42l-74.36-21.28c-1.107-.316-2.283-.308-3.386.025l-70.482 21.28c-3.172.96-4.968 4.307-4.01 7.48.783 2.594 3.165 4.266 5.742 4.266z"/></g></svg>