<svg xmlns="http://www.w3.org/2000/svg" width="750" height="750" viewBox="585 165 750 750"><path fill="#5A5B5B" d="M955.68 222.4c-88.45 0-160.094 10.01-160.094 80.047v190.108c0 38.684 31.36 70.054 70.038 70.054h180.113c38.675 0 70.037-31.372 70.037-70.055V302.447c0-70.037-71.644-80.047-160.093-80.047zm-90.056 300.184c-16.576 0-30.015-13.446-30.015-30.03 0-16.566 13.438-30.013 30.014-30.013 16.583 0 30.02 13.447 30.02 30.015.002 16.583-13.437 30.03-30.02 30.03zm70.044-120.07h-100.06V302.447h100.06v100.067zm110.07 120.07c-16.584 0-30.022-13.446-30.022-30.03 0-16.566 13.438-30.013 30.02-30.013 16.576 0 30.016 13.447 30.016 30.015 0 16.583-13.44 30.03-30.015 30.03zm30.014-120.07h-100.06V302.447h100.06v100.067zM675.5 577.606v278.998h68.32v-8.07c0-119.384 96.786-216.173 216.18-216.173 119.385 0 216.165 96.79 216.165 216.174v8.07h68.335V577.606h-569z"/></svg>