<svg width="545" height="545" viewBox="0 0 545 545" xmlns="http://www.w3.org/2000/svg"><title>GCBA-compromisos-icons-04</title><g fill="#5B5B5B" fill-rule="nonzero"><path d="M274.5 238c-22.7 0-40.5 17.716-40.5 40.31 0 22.59 17.8 40.307 40.5 40.307S315 300.9 315 278.31c0-22.756-17.8-40.31-40.5-40.31zm0 155.383c-22.7 0-40.5 17.716-40.5 40.308 0 22.594 17.8 40.31 40.5 40.31s40.5-17.716 40.5-40.31c0-22.59-17.8-40.307-40.5-40.307z"/><path d="M385.16 298.18l53.562-52.66c7-6.987 2.117-19.502-8.303-19.502H392.81c-5.536 0-10.42-4.875-10.42-10.4v-64.523c0-2.763 1.466-5.526 2.768-6.988l52.748-52.658c7-6.99 2.117-19.504-8.303-19.504h-36.793c-5.536 0-10.42-4.875-10.42-10.4V24.813c0-7.638-6.186-13.814-13.838-13.814H180.028c-7.652 0-13.84 6.176-13.84 13.814v36.73c0 5.527-4.883 10.402-10.418 10.402h-38.26c-10.418 0-15.302 12.515-8.302 19.503l52.75 52.657c2.115 2.112 2.766 4.225 2.766 6.988v64.522c0 5.526-4.884 10.4-10.42 10.4h-38.258c-10.42 0-15.304 12.516-8.303 19.504l52.748 52.66c2.118 2.11 2.77 4.224 2.77 6.987v64.522c0 5.525-4.885 10.4-10.42 10.4h-38.26c-10.42 0-15.303 12.515-8.302 19.503l52.748 52.658c2.116 2.114 2.768 4.226 2.768 6.99v60.946c0 7.638 6.186 13.814 13.838 13.814h189.015c7.65 0 13.838-6.176 13.838-13.814v-61.11c0-2.762 1.465-5.525 2.768-6.988L434 399.43c7-6.988 2.117-19.502-8.302-19.502h-33.375c-5.535 0-10.42-4.876-10.42-10.402v-64.52c.49-2.602 1.792-5.365 3.257-6.827zM274.616 494.67c-34.025 0-61.214-26.98-61.214-61.11 0-33.967 27.026-61.108 61.214-61.108 34.19 0 61.215 26.98 61.215 61.11 0 33.966-27.188 61.107-61.214 61.107zm0-155.535c-34.025 0-61.214-26.98-61.214-61.11 0-33.967 27.026-61.108 61.214-61.108 34.19 0 61.215 26.98 61.215 61.11 0 34.13-27.188 61.108-61.214 61.108zm0-147.572c-38.42 0-69.028-30.554-69.028-68.91 0-38.355 30.607-68.91 69.028-68.91 38.422 0 69.03 30.555 69.03 68.91 0 38.356-30.608 68.91-69.03 68.91z"/></g></svg>