<svg xmlns="http://www.w3.org/2000/svg" width="750" height="750" viewBox="0 0 750 750"><g fill="#5A5B5B"><path d="M350.363 244.615c-45.935 0-83.305 37.37-83.305 83.3 0 44.482 76.692 162.302 79.957 167.295.74 1.13 1.998 1.812 3.348 1.812s2.61-.682 3.348-1.812c3.267-4.993 79.95-122.813 79.95-167.294 0-45.932-37.366-83.3-83.296-83.3zm0 39.91c23.512 0 42.64 19.13 42.64 42.645 0 23.512-19.128 42.64-42.64 42.64-23.517 0-42.648-19.127-42.648-42.64 0-23.514 19.13-42.645 42.648-42.645zm-23.29 212.86H221.16V433.28c0-2.21-1.79-4-4-4h-29.477c-2.21 0-4 1.79-4 4v64.105H73.79V348.85h168.847v54.96c0 2.21 1.79 4 4 4h32.594c2.21 0 4-1.79 4-4s-1.79-4-4-4H250.64v-54.96c0-2.21-1.79-4-4-4H69.79c-2.21 0-4 1.79-4 4v156.534c0 2.21 1.79 4 4 4h117.894c2.21 0 4-1.79 4-4V437.28h21.477v64.104c0 2.21 1.793 4 4 4h109.916c2.21 0 4-1.79 4-4s-1.792-4-4-4z"/><path d="M132.738 374.326c0-2.21-1.79-4-4-4H99.26c-2.208 0-4 1.79-4 4v29.484c0 2.21 1.792 4 4 4h29.478c2.21 0 4-1.79 4-4v-29.484zm-8 25.484H103.26v-21.484h21.478v21.484zm4 29.47H99.26c-2.208 0-4 1.79-4 4v29.476c0 2.21 1.792 4 4 4h29.478c2.21 0 4-1.79 4-4V433.28c0-2.21-1.79-4-4-4zm-4 29.476H103.26V437.28h21.478v21.476zm62.945-88.43c-2.21 0-4 1.79-4 4v29.484c0 2.21 1.79 4 4 4h29.477c2.21 0 4-1.79 4-4v-29.484c0-2.21-1.79-4-4-4h-29.477zm25.477 29.484h-21.477v-21.484h21.477v21.484zm259.81 74.86c0 2.21 1.79 4 4 4h29.472c2.21 0 4-1.79 4-4v-57.086c0-2.21-1.79-4-4-4H476.97c-2.21 0-4 1.79-4 4v57.086zm8-53.086h21.472v49.086H480.97v-49.086zm93.585 53.086c0 2.21 1.79 4 4 4h29.473c2.21 0 4-1.79 4-4v-57.086c0-2.21-1.79-4-4-4h-29.473c-2.21 0-4 1.79-4 4v57.086zm8-53.086h21.473v49.086h-21.473v-49.086zm-4-19.266h29.473c2.21 0 4-1.79 4-4v-57.086c0-2.21-1.79-4-4-4h-29.473c-2.21 0-4 1.79-4 4v57.086c0 2.21 1.79 4 4 4zm4-57.086h21.473v49.086h-21.473v-49.086zm42.79 129.438c0 2.21 1.79 4 4 4h29.476c2.21 0 4-1.79 4-4v-57.086c0-2.21-1.79-4-4-4h-29.475c-2.21 0-4 1.79-4 4v57.086zm8-53.086h21.476v49.086h-21.475v-49.086zm-4-19.266h29.476c2.21 0 4-1.79 4-4v-57.086c0-2.21-1.79-4-4-4h-29.475c-2.21 0-4 1.79-4 4v57.086c0 2.21 1.79 4 4 4zm4-57.086h21.476v49.086h-21.475v-49.086zM523.757 474.67c0 2.21 1.79 4 4 4h29.477c2.21 0 4-1.79 4-4v-57.086c0-2.21-1.79-4-4-4h-29.477c-2.21 0-4 1.79-4 4v57.086zm8-53.086h21.477v49.086h-21.477v-49.086zm-4-19.266h29.477c2.21 0 4-1.79 4-4v-57.086c0-2.21-1.79-4-4-4h-29.477c-2.21 0-4 1.79-4 4v57.086c0 2.21 1.79 4 4 4zm4-57.086h21.477v49.086h-21.477v-49.086zm-54.788 57.086h29.472c2.21 0 4-1.79 4-4v-57.086c0-2.21-1.79-4-4-4H476.97c-2.21 0-4 1.79-4 4v57.086c0 2.21 1.79 4 4 4zm4-57.086h21.472v49.086H480.97v-49.086z"/><path d="M680.21 316.998H445.583c-2.21 0-4 1.79-4 4s1.79 4 4 4h230.63v172.387H448.398V433.28c0-2.21-1.792-4-4-4h-29.474c-2.21 0-4 1.79-4 4v64.105H378.23c-2.208 0-4 1.79-4 4s1.793 4 4 4h36.696c2.21 0 4-1.79 4-4V437.28H440.4v64.105c0 2.21 1.79 4 4 4h235.81c2.21 0 4-1.79 4-4V320.998c0-2.21-1.792-4-4-4zm-120.25-6.35c.382 0 .77-.056 1.157-.173l57.39-17.328 60.603 17.344c2.127.61 4.34-.62 4.947-2.743s-.62-4.338-2.746-4.946l-61.732-17.667c-.736-.21-1.52-.205-2.256.017l-58.515 17.667c-2.115.638-3.313 2.87-2.674 4.985.525 1.73 2.11 2.845 3.83 2.845z"/></g></svg>