<svg xmlns="http://www.w3.org/2000/svg" width="750" height="750" viewBox="0 0 750 750"><g fill="#5A5B5B"><path d="M287.257 252.636c29.727-33.13 72.283-52.133 116.757-52.133 25.737 0 51.266 6.373 73.825 18.428 2.43 1.302 5.464.384 6.766-2.052 1.3-2.435.382-5.465-2.054-6.766-24.004-12.828-51.162-19.61-78.538-19.61-47.31 0-92.58 20.213-124.2 55.456-1.844 2.056-1.673 5.217.382 7.06.955.857 2.148 1.28 3.338 1.28 1.37 0 2.736-.562 3.723-1.662zM298.294 473.105c-2.038-1.86-5.202-1.72-7.064.32s-1.72 5.2.32 7.062c30.796 28.13 70.737 43.623 112.464 43.623 91.978 0 166.807-74.83 166.807-166.807 0-14.168-1.777-28.233-5.285-41.803-.69-2.674-3.422-4.28-6.092-3.59-2.674.692-4.28 3.42-3.59 6.093 3.296 12.753 4.968 25.976 4.968 39.3 0 86.464-70.342 156.807-156.806 156.807-39.226 0-76.77-14.56-105.72-41.005z"/><path d="M310.635 456.445v5.952c0 2.762 2.24 5 5 5h51.338c2.76 0 5-2.238 5-5v-4.888H482.57c2.76 0 5-2.24 5-5s-2.24-5-5-5H371.972V267.1H482.57c2.76 0 5-2.24 5-5s-2.24-5-5-5H371.972v-4.89c0-2.76-2.24-5-5-5h-51.338c-2.76 0-5 2.24-5 5v4.65c-64.966 1.262-124.823 27.074-169.014 73.027-43.236 44.96-67.53 104.583-68.74 168.364h-7.547c-2.76 0-5 2.24-5 5v51.334c0 2.762 2.24 5 5 5H275.52c2.76 0 5-2.238 5-5V503.25c0-2.76-2.24-5-5-5h-6.696c2.33-21.97 19.837-39.475 41.81-41.805zm-51.863 41.807h-175.9c2.506-128.496 101.253-228.807 227.763-231.39v179.542c-27.492 2.398-49.466 24.357-51.863 51.848zM180.225 565.278H160.04c-1.642 0-3.178.805-4.112 2.153-9.835 14.206-21.124 32.018-21.124 43.77 0 18.296 14.882 33.18 33.174 33.18 18.287 0 33.164-14.884 33.164-33.18 0-15.51-8.812-33.695-17-44.027-.947-1.197-2.39-1.895-3.917-1.895zM534.36 250.044c.65.28 12.513 5.326 30.27 7.806-.216.56-.347 1.163-.347 1.8 0 9.97 8.115 18.08 18.09 18.08 9.97 0 18.082-8.11 18.082-18.08 0-.524-.103-1.02-.252-1.494 10.535-1.367 20.627-4.068 30.14-8.097 1.85-.784 3.052-2.597 3.052-4.605 0-13.26-4.994-25.682-14.11-35.214v-25.23c0-20.353-16.56-36.913-36.91-36.913-20.357 0-36.92 16.56-36.92 36.914v25.232c-9.116 9.54-14.11 21.962-14.11 35.213-.002 1.993 1.184 3.798 3.015 4.59zm56.094 9.604c0 4.456-3.625 8.08-8.08 8.08-4.462 0-8.092-3.624-8.092-8.08 0-.27-.038-.533-.08-.792 3.104.22 6.328.348 9.66.348h.005c2.233 0 4.45-.062 6.65-.174-.026.205-.063.406-.063.618z"/><path d="M582.373 297.153c46.443 0 84.23-37.79 84.23-84.238 0-46.446-37.786-84.233-84.23-84.233-46.45 0-84.238 37.787-84.238 84.233 0 46.45 37.79 84.238 84.238 84.238zm0-158.472c40.93 0 74.23 33.302 74.23 74.234 0 40.935-33.3 74.238-74.23 74.238-40.936 0-74.238-33.303-74.238-74.238 0-40.932 33.303-74.233 74.238-74.233z"/><path d="M582.373 105.62c-23.753 0-46.26 7.6-65.087 21.98-16.697 12.754-29.438 30.39-36.31 50.116-25.126-10.827-52.236-16.53-78.76-16.53-35.202 0-69.76 9.384-99.938 27.135-29.29 17.23-53.792 41.865-70.86 71.244-1.387 2.388-.576 5.448 1.812 6.835 2.39 1.388 5.448.575 6.835-1.813 33.472-57.61 95.604-93.4 162.15-93.4 26.91 0 54.48 6.194 79.722 17.914 1.325.616 2.852.62 4.18.015 1.33-.606 2.327-1.763 2.73-3.167 11.92-41.408 50.378-70.328 93.525-70.328 53.648 0 97.295 43.646 97.295 97.295 0 50.69-39.544 93.315-90.026 97.04-1.44.106-2.767.832-3.633 1.99-.867 1.156-1.19 2.632-.887 4.046 2.763 12.865 4.48 29.182 4.48 42.584 0 103.33-84.06 187.393-187.384 187.393-38.792 0-76.018-11.75-107.652-33.983-2.26-1.587-5.378-1.043-6.966 1.216-1.588 2.26-1.043 5.378 1.216 6.966 33.327 23.422 72.54 35.802 113.402 35.802 108.837 0 197.383-88.55 197.383-197.393 0-12.217-1.36-26.748-3.62-39.207 24.803-3.14 47.662-14.822 64.867-33.268 18.585-19.925 28.82-45.916 28.82-73.185 0-59.163-48.13-107.295-107.294-107.295z"/></g></svg>