<svg xmlns="http://www.w3.org/2000/svg" width="750" height="750" viewBox="585 165 750 750"><g fill="#5A5B5B"><path d="M1053.003 740.815l-203.06-73.245h-257.97v83.46H1097.2c-2.81-2.937-5.02-6.39-6.49-10.216H1053zm224.804 1.245l-1.012-1.244H1148.1c-1.473 3.858-3.65 7.303-6.412 10.217h148.515c-4.757-1.927-9.052-4.887-12.396-8.974z"/><path d="M1193.847 407.62c-23.088-.752-41.25-20.15-40.492-43.238.744-22.728 19.13-40.53 41.857-40.53l1.38.022c23.09.767 41.252 20.158 40.5 43.238-.743 22.728-19.13 40.53-41.85 40.53l-1.395-.022zm128.28 298.333l-54.384-66.747-23.256-56.087 3.328-101.696c15.272 25.95 17.82 58.74 17.934 60.273.796 13.677 11.703 24.315 25.31 24.76l.8.017s1.165-.016 1.64-.054c7.01-.383 13.455-3.49 18.134-8.728 4.694-5.247 7.05-12.005 6.65-19.023-.254-4.61-7.264-113.117-90.642-137.087-.752-.215-1.52-.337-2.27-.49-7.756 6.61-17.712 10.67-28.666 11.006L1070.78 512.92c-5.483 4.387-8.927 10.653-9.71 17.64-.767 6.988 1.228 13.86 5.623 19.346 5.024 6.267 12.51 9.864 20.54 9.864 5.945 0 11.79-2.047 16.44-5.774l57.02-45.647-2.3 70.404c-56.746 64.632-64.893 145.232-65.215 148.653-1.335 14.39 9.296 27.23 23.678 28.626.568.054 2.562.115 2.562.115 13.593 0 24.838-10.21 26.164-23.74.07-.706 7.51-68.827 53.847-120.58l21.17 51.078c.96 2.347 2.27 4.548 3.91 6.573l56.81 69.724c5.03 6.15 12.47 9.68 20.418 9.68 6.028 0 11.92-2.093 16.613-5.913 11.246-9.166 12.933-25.773 3.775-37.02z"/></g></svg>