<svg id="Layer_1" xmlns="http://www.w3.org/2000/svg" viewBox="0 0 750 750"><style>.st0{fill:#5A5B5B;} .st1{fill:#FFFFFF;}</style><path class="st0" d="M138 503.7c-1.8 0-3.3-1.5-3.3-3.3v-143c0-1.8 1.5-3.3 3.3-3.3 1.8 0 3.3 1.5 3.3 3.3v143c0 1.8-1.5 3.3-3.3 3.3z"/><path class="st0" d="M430.4 360.7c-.5 0-1-.1-1.4-.3l-176.3-84.5-145.4 84.3c-1.6.9-3.6.4-4.5-1.2-.9-1.6-.4-3.6 1.2-4.5l146.9-85.2c.9-.5 2.1-.6 3.1-.1l177.9 85.2c1.6.8 2.3 2.8 1.5 4.4-.6 1.2-1.8 1.9-3 1.9z"/><path class="st0" d="M377.7 504.7h-93.1c-1.8 0-3.3-1.5-3.3-3.3V376.9h-56v123.4c0 1.8-1.5 3.3-3.3 3.3h-70c-1.8 0-3.3-1.5-3.3-3.3s1.5-3.3 3.3-3.3h66.7V373.6c0-1.8 1.5-3.3 3.3-3.3h62.6c1.8 0 3.3 1.5 3.3 3.3v124.5h86.5V357.4c0-1.8 1.5-3.3 3.3-3.3 1.8 0 3.3 1.5 3.3 3.3v144c0 1.8-1.5 3.3-3.3 3.3z"/><path class="st1" d="M196.7 321.5c0 38.9-31.5 70.4-70.4 70.4s-70.4-31.5-70.4-70.4c0-38.9 31.5-70.4 70.4-70.4s70.4 31.5 70.4 70.4z"/><path class="st0" d="M126.2 395.3c-40.7 0-73.7-33.1-73.7-73.7 0-40.7 33.1-73.7 73.7-73.7 40.7 0 73.7 33.1 73.7 73.7.1 40.6-33 73.7-73.7 73.7zm0-140.9c-37 0-67.1 30.1-67.1 67.1 0 37 30.1 67.1 67.1 67.1 37 0 67.1-30.1 67.1-67.1.1-37-30.1-67.1-67.1-67.1z"/><g><path class="st0" d="M88 342.9c-3.8 0-7.1-.7-9.8-2-2.7-1.4-4.9-3.1-6.8-5.4l6.4-6.1c1.5 1.7 3 2.9 4.6 3.8 1.6.9 3.5 1.3 5.7 1.3 1.8 0 3.2-.5 4.3-1.4 1.1-.9 1.7-2.2 1.7-3.7v-.1c0-1.7-.7-3.1-2.2-4-1.5-.9-3.5-1.4-6.1-1.4h-3.9l-1.5-5.9 10.1-10.2H73.9v-8.1h28.8v7L91.9 317c1.5.2 2.9.6 4.2 1.2 1.4.5 2.6 1.3 3.7 2.2 1.1.9 1.9 2.1 2.6 3.5.7 1.4 1 3.1 1 5.1v.1c0 2-.4 3.9-1.1 5.6-.7 1.7-1.7 3.1-3.1 4.4-1.3 1.3-2.9 2.2-4.9 2.9-1.8.6-3.9.9-6.3.9zM128.9 342.9c-2.8 0-5.4-.6-7.7-1.7s-4.3-2.7-6-4.6c-1.6-2-2.9-4.3-3.8-7-.9-2.7-1.3-5.5-1.3-8.6v-.1c0-3.1.5-6 1.4-8.6.9-2.7 2.2-5 3.9-7 1.7-2 3.7-3.5 6-4.7 2.3-1.1 4.9-1.7 7.7-1.7s5.4.6 7.7 1.7 4.3 2.7 6 4.6c1.6 2 2.9 4.3 3.8 7 .9 2.7 1.4 5.5 1.4 8.6v.1c0 3.1-.5 6-1.4 8.6-.9 2.7-2.2 5-3.9 7s-3.7 3.5-6 4.7c-2.3 1.1-4.9 1.7-7.8 1.7zm.2-8.4c1.4 0 2.7-.3 3.8-1 1.1-.7 2.1-1.6 2.9-2.8.8-1.2 1.4-2.6 1.9-4.3.4-1.6.6-3.4.6-5.4v-.1c0-1.9-.2-3.7-.7-5.4-.4-1.6-1.1-3.1-1.9-4.3-.8-1.2-1.8-2.2-3-2.9-1.2-.7-2.4-1-3.8-1s-2.7.3-3.8 1c-1.1.7-2.1 1.6-2.9 2.8-.8 1.2-1.4 2.6-1.9 4.3-.4 1.6-.7 3.4-.7 5.4v.1c0 1.9.2 3.7.7 5.4s1.1 3.1 1.9 4.3c.8 1.2 1.8 2.1 2.9 2.8 1.3.7 2.6 1.1 4 1.1zM155.3 297.8h9.2v23.6l10.8-11.8h11.1L174 322.4l12.8 19.7h-10.6l-8.5-13.3-3.2 3.4v9.9h-9.2v-44.3z"/></g><g><path class="st0" d="M317.4 294.3c-1.1 0-2.2-.6-2.9-1.6-.9-1.6-.4-3.6 1.2-4.5l63-36.5c.9-.5 2.1-.6 3.1-.1l72 34.5c1.6.8 2.3 2.8 1.5 4.4-.8 1.6-2.8 2.3-4.4 1.5l-70.4-33.7-61.5 35.6c-.5.3-1.1.4-1.6.4z"/></g><g><path class="st0" d="M680.7 364.3c-.5 0-.9-.1-1.4-.3l-170.5-78.3-96.6 50c-1.6.8-3.6.2-4.4-1.4-.8-1.6-.2-3.6 1.4-4.4l98-50.7c.9-.5 2-.5 2.9-.1L682 358c1.7.8 2.4 2.7 1.6 4.4-.5 1.2-1.7 1.9-2.9 1.9z"/><path class="st0" d="M634.7 504.7H527.6c-1.8 0-3.3-1.5-3.3-3.3V376.9h-56v123.4c0 1.8-1.5 3.3-3.3 3.3h-69.2c-1.8 0-3.3-1.5-3.3-3.3s1.5-3.3 3.3-3.3h65.9V373.6c0-1.8 1.5-3.3 3.3-3.3h62.6c1.8 0 3.3 1.5 3.3 3.3v124.5h100.5V357.4c0-1.8 1.5-3.3 3.3-3.3 1.8 0 3.3 1.5 3.3 3.3v144c0 1.8-1.5 3.3-3.3 3.3z"/></g></svg>