<svg xmlns="http://www.w3.org/2000/svg" width="750" height="750" viewBox="585 165 750 750"><g fill="#5A5B5B"><path d="M1280.414 755.896H1011.81v-47.964h133.933c2.427 0 4.614-1.462 5.543-3.704s.416-4.822-1.3-6.538l-89.708-89.712h45.486c2.427 0 4.614-1.462 5.543-3.704s.416-4.823-1.3-6.54l-89.712-89.7h45.484c2.426 0 4.613-1.462 5.542-3.704s.416-4.823-1.3-6.54l-99.95-99.942c-2.342-2.343-6.143-2.343-8.484 0l-15.745 15.744c-2.343 2.343-2.343 6.142 0 8.485 2.343 2.343 6.143 2.343 8.485 0l11.5-11.5 85.464 85.457h-45.484c-2.427 0-4.614 1.462-5.543 3.704s-.416 4.823 1.3 6.54l89.712 89.7h-45.484c-2.427 0-4.614 1.463-5.543 3.705s-.416 4.822 1.3 6.538l89.708 89.713h-125.45c-3.312 0-6 2.687-6 6v59.964c0 3.313 2.688 6 6 6h274.606c3.313 0 6-2.687 6-6s-2.686-6-6-6zM925.852 695.933H800.41l89.706-89.712c1.716-1.715 2.23-4.295 1.3-6.537s-3.116-3.704-5.542-3.704h-59.97c-3.314 0-6 2.686-6 6s2.686 6 6 6h45.485l-89.708 89.71c-1.716 1.717-2.23 4.297-1.3 6.54s3.116 3.703 5.542 3.703h133.928v47.964H639.586c-3.313 0-6 2.687-6 6s2.687 6 6 6h286.266c3.313 0 6-2.687 6-6v-59.964c0-3.314-2.687-6-6-6zM753.56 453.37v-84.886h-12.644l-24.202 7.224 3.853 15.17 14.69-3.61v66.103M767.523 375.708l3.854 15.17 14.69-3.61v66.103h18.302v-84.886h-12.643M859.513 367.64c-22.516 0-37.566 19.146-37.566 43.708 0 24.564 14.81 43.47 37.325 43.47 22.517 0 37.567-19.147 37.567-43.71 0-24.564-14.81-43.467-37.327-43.467zm0 70.44c-11.198 0-18.543-11.44-18.543-26.972 0-15.532 7.104-26.73 18.302-26.73s18.543 11.56 18.543 26.97-7.105 26.73-18.303 26.73z"/><path d="M802.77 312.104c-74.044 0-134.283 60.24-134.283 134.284 0 74.042 60.24 134.28 134.283 134.28 74.042 0 134.28-60.238 134.28-134.28 0-74.045-60.238-134.284-134.28-134.284zm0 256.563c-67.427 0-122.283-54.854-122.283-122.28 0-67.427 54.856-122.283 122.283-122.283 67.425 0 122.28 54.856 122.28 122.284 0 67.425-54.856 122.28-122.28 122.28z"/><path d="M782.404 478.223c-7.543 0-11.952 4.018-15.38 8.426V460.2H752.13v71.512h14.89v-29.29c0-7.054 3.626-10.68 9.308-10.68 5.68 0 9.012 3.626 9.012 10.68v29.29h14.89v-33.993c0-12.052-6.562-19.497-17.828-19.497zM834.905 478.616c-8.915 0-14.597 1.665-20.376 4.212l3.722 11.363c4.8-1.763 8.817-2.84 14.5-2.84 7.444 0 11.264 3.43 11.264 9.6v.883c-3.723-1.273-7.543-2.155-12.833-2.155-12.44 0-21.16 5.29-21.16 16.75v.197c0 10.383 8.13 16.065 18.025 16.065 7.25 0 12.245-2.645 15.87-6.66v5.68h14.4v-30.465c0-14.204-7.15-22.63-23.413-22.63zm9.308 34.58c0 5.388-4.702 9.208-11.658 9.208-4.8 0-8.13-2.35-8.13-6.367v-.196c0-4.7 3.917-7.248 10.285-7.248 3.624 0 6.955.784 9.502 1.96v2.644z"/></g></svg>