<svg xmlns="http://www.w3.org/2000/svg" width="750" height="750" viewBox="585 165 750 750"><g fill="#5A5B5B"><path d="M1035.982 588.628c-.26-.277-.498-.556-.74-.835l-.475-.542c-.155-.176-.308-.355-.46-.536-.29-.342-.583-.684-.886-1.017-7.527-9.476-7.62-18.834-6.96-23.708.177-.822.325-1.648.47-2.466l.083-.297c.154-.53.23-1.07.234-1.606 5.537-35.258-15.744-69.842-49.835-80.713-7.192-2.29-14.633-3.452-22.112-3.452-27.502 0-52.996 15.844-65.224 40.446-.295.423-.538.886-.72 1.38-.023.065-.107.282-.21.516-.088.192-.18.38-.273.564-.16.32-.315.64-.465.97-1.93 3.797-7.556 12.733-19.26 16.855-1.91.436-3.825.953-5.7 1.54l-.19.05c-.513.103-1 .273-1.45.498-21.84 7.467-38.982 24.907-45.952 46.812-12.208 38.303 9.024 79.4 47.33 91.615L958 704.91c7.2 2.294 14.652 3.457 22.146 3.457h.006c31.86 0 59.774-20.41 69.462-50.793 7.42-23.286 2.727-48.505-12.55-67.646-.297-.483-.662-.92-1.08-1.3zm2.196 65.302c-8.094 25.385-31.416 42.44-58.033 42.438-6.258 0-12.483-.973-18.505-2.89l-94.808-30.21c-32.002-10.205-49.74-44.54-39.54-76.54 5.894-18.53 20.516-33.237 39.113-39.338.102-.034.203-.07.302-.108l.125-.038c1.73-.55 3.505-1.028 5.27-1.422.217-.048.43-.108.64-.18 16.2-5.547 23.89-17.954 26.443-23.03.044-.09.087-.18.126-.27.1-.226.21-.442.32-.66.137-.28.275-.562.447-.936l.125-.287c.097-.16.186-.326.268-.497 10.07-20.963 31.593-34.508 54.83-34.508 6.243 0 12.458.972 18.47 2.886 28.727 9.162 46.565 38.483 41.494 68.206-.02.122-.038.245-.05.367-.022.09-.04.178-.055.267l-.036.198c-.133.75-.267 1.51-.433 2.263-.03.147-.06.295-.08.444-.97 6.766-1.017 20.086 9.575 33.278.094.117.192.23.295.34.233.25.454.514.676.775.2.236.4.473.616.717l.413.473c.31.356.62.71.946 1.064l.098.122c13.127 16.065 17.22 37.402 10.95 57.078zM853.562 520.712h.002c.317 0 .634-.006.948-.017 9.54-.332 18.203-5.606 24.392-14.85 5.78-8.635 8.738-19.845 8.325-31.564-.87-24.695-16.22-44.04-34.945-44.04-.318 0-.635.006-.953.018-18.91.666-33.59 21.488-32.726 46.422.875 24.69 16.23 44.03 34.956 44.032zm-1.806-78.462c.177-.007.352-.01.528-.01 12.026 0 22.322 14.563 22.952 32.463.324 9.22-1.915 17.91-6.304 24.467-3.986 5.953-9.255 9.338-14.843 9.533-12.283.428-22.85-14.29-23.492-32.444-.624-18.01 9.064-33.584 21.158-34.01zM932.586 466.76c1.697.27 3.43.406 5.148.406h.004c21.15 0 40.354-20.506 44.663-47.696 2.232-14.057.253-27.988-5.57-39.23-6.14-11.845-15.78-19.358-27.147-21.158-1.697-.27-3.428-.404-5.145-.404-21.153 0-40.36 20.5-44.675 47.684-2.23 14.06-.252 27.993 5.573 39.234 6.14 11.845 15.782 19.36 27.15 21.164zm-20.87-58.518c3.343-21.064 17.76-37.564 32.823-37.564 1.09 0 2.188.086 3.267.257 7.506 1.188 14.03 6.454 18.37 14.828 4.652 8.98 6.206 20.282 4.374 31.827-3.34 21.072-17.753 37.578-32.813 37.576-1.09 0-2.19-.087-3.27-.26-7.51-1.188-14.035-6.457-18.375-14.832-4.655-8.98-6.21-20.286-4.377-31.832zM1117.92 540.557c-.586-10.823-5.255-19.695-13.146-24.983-4.654-3.117-10.232-4.766-16.132-4.766-13.567 0-27.633 8.423-36.706 21.98-6.324 9.435-9.502 20.24-8.95 30.427.587 10.823 5.255 19.696 13.147 24.986 4.655 3.114 10.233 4.76 16.132 4.76h.003c13.57 0 27.634-8.42 36.7-21.97 6.325-9.44 9.506-20.25 8.953-30.433zm-18.925 23.757c-6.766 10.112-17.258 16.646-26.73 16.646-3.564 0-6.748-.92-9.455-2.73-4.68-3.137-7.464-8.7-7.842-15.665-.412-7.606 2.05-15.81 6.938-23.1 6.772-10.12 17.267-16.657 26.735-16.657 3.564 0 6.744.92 9.453 2.735 4.682 3.137 7.468 8.698 7.845 15.663.414 7.606-2.05 15.81-6.943 23.108zM1023.27 493.48c5.146 2.865 10.852 4.318 16.956 4.318 17.29 0 35.044-11.84 45.23-30.162 14.135-25.444 9.252-55.247-10.884-66.434-5.146-2.86-10.848-4.312-16.948-4.312-17.29 0-35.045 11.836-45.23 30.155-6.707 12.07-9.407 25.492-7.604 37.794 1.892 12.9 8.456 23.073 18.48 28.64zm-.388-60.603c8.102-14.57 21.74-23.985 34.742-23.985 4.036 0 7.776.942 11.118 2.8 14.354 7.975 17.146 30.458 6.225 50.116-8.103 14.574-21.74 23.992-34.74 23.99-4.038 0-7.78-.942-11.126-2.805-6.683-3.713-11.1-10.777-12.437-19.893-1.424-9.71.785-20.445 6.22-30.223z"/><path d="M1123.752 376.248c-43.74-43.74-101.895-67.828-163.752-67.828-61.857 0-120.012 24.088-163.75 67.828-43.742 43.74-67.83 101.895-67.83 163.752s24.088 120.012 67.83 163.752c43.738 43.74 101.893 67.828 163.75 67.828s120.012-24.09 163.752-67.828c43.74-43.74 67.828-101.895 67.828-163.752s-24.09-120.012-67.828-163.752zM960 759.58c-121.077 0-219.58-98.503-219.58-219.58S838.923 320.42 960 320.42c121.077 0 219.58 98.503 219.58 219.58S1081.077 759.58 960 759.58z"/><path d="M1145.752 354.248c-49.616-49.616-115.584-76.94-185.752-76.94s-136.136 27.324-185.752 76.94c-49.617 49.616-76.94 115.584-76.94 185.752s27.324 136.136 76.94 185.752c49.616 49.616 115.584 76.94 185.752 76.94s136.136-27.324 185.752-76.94 76.94-115.584 76.94-185.752-27.324-136.136-76.94-185.752zM960 790.693c-138.233 0-250.693-112.46-250.693-250.693S821.767 289.307 960 289.307c138.232 0 250.693 112.46 250.693 250.693S1098.233 790.693 960 790.693z"/></g></svg>