<!DOCTYPE svg PUBLIC "-//W3C//DTD SVG 1.1//EN" "http://www.w3.org/Graphics/SVG/1.1/DTD/svg11.dtd" [
	<!ENTITY ns_flows "http://ns.adobe.com/Flows/1.0/">
]><svg xmlns="http://www.w3.org/2000/svg" width="300" height="300" viewBox="0 0 300 300"><path fill="none" d="M0 0h300v300H0z"/><path fill="#FFF" d="M145.14 219.91h21.725v15.324H145.14zM115.884 95.71h76.104v114.827h-76.104z"/><path fill="#FFF" d="M115.884 95.71h76.104v114.827h-76.104z"/><path fill="#5A5B5B" d="M194.054 85.46H113.08v127.882h81.712V85.462h-.738zm-78.17 125.077V95.71h76.104v114.827h-76.104z"/><circle fill="#FFF" cx="189.512" cy="90.887" r="2.165"/><circle fill="#FFF" cx="178.571" cy="90.887" r="2.166"/><circle fill="#FFF" cx="167.632" cy="90.887" r="2.164"/><path fill="#5A5B5B" d="M105.8 102.826h78.682v2.805H105.8zM118.823 111.508h56.434v2.805h-56.434zM140.528 120.19h43.953v2.806H140.53zM105.8 137.553h78.682v2.805H105.8zM123.347 146.234h61.135v2.805h-61.135zM132.026 154.918h52.455v2.805h-52.454zM105.8 172.283h78.682v2.805H105.8zM123.347 180.965h51.55v2.805h-51.55zM132.026 189.646h52.455v2.805h-52.454zM140.983 198.33h25.88v2.805h-25.88z"/><path fill="#5A5B5B" d="M202.132 62.566H112.48c.355 1.85.56 3.752.56 5.703 0 3.978-.794 7.77-2.198 11.253h96.053v139.752H100.89V92.43c-2.316 1.736-4.883 3.14-7.645 4.16v127.24c0 6.85 5.55 12.404 12.406 12.404h96.48c6.85 0 12.407-5.555 12.407-12.404V74.97c0-6.85-5.556-12.404-12.405-12.404zm-48.24 170.057c-2.586 0-4.684-2.098-4.684-4.682 0-2.587 2.098-4.685 4.684-4.685s4.684 2.098 4.684 4.686c0 2.585-2.098 4.683-4.684 4.683z"/><path fill="#5A5B5B" d="M108.82 68.27c0 14.477-11.74 26.213-26.216 26.213-14.48 0-26.22-11.736-26.22-26.213 0-14.48 11.74-26.22 26.22-26.22 14.477 0 26.215 11.74 26.215 26.22"/><path fill="#FFF" d="M95.476 64.465h-9.07v-9.072H78.8v9.072h-9.07v7.605h9.07v9.07h7.607v-9.07h9.07"/></svg>