<svg xmlns="http://www.w3.org/2000/svg" viewBox="0 0 595.3 595.3"><g fill="#5B5B5B"><path d="M423 442.7H177.6c-29.1 0-38.5-9.4-38.5-38.5V158.9c0-16.5 4-38.5 38.5-38.5H423c22.7 0 38.5 15.8 38.5 38.5v245.3c-.1 34.5-22 38.5-38.5 38.5zM177.6 132.8c-21.8 0-26.1 9.6-26.1 26.1v245.3c0 22.4 3.7 26.1 26.1 26.1H423c16.5 0 26.1-4.3 26.1-26.1V158.9c0-15.8-10.2-26.1-26.1-26.1H177.6z"/><path d="M292.6 165.8h-18.4l-18.3 51.7h34.3M344.7 217.5l-18.3-51.7h-18.3l2.3 51.7M423 236.8H177.6c-12.9 0-12.9 0-12.9 12.9s0 12.9 12.9 12.9h12.9v25.8h25.8v-25.8h167.8v25.8h25.8v-25.8H423c12.9 0 12.9 0 12.9-12.9s0-12.9-12.9-12.9z"/><path d="M203.5 394.9H284l3.7-112.9h-48.1M313 282l3.6 112.9h80.5L361 282"/></g></svg>