<svg xmlns="http://www.w3.org/2000/svg" width="750" height="750" viewBox="585 165 750 750"><g fill="#5A5B5B"><path d="M1261.006 448.696h-55.518c-3.313 0-6 2.686-6 6v122.532h-114.152c-3.313 0-6 2.687-6 6s2.687 6 6 6h114.152v58.386l-22.24-28.52c-1.128-1.448-2.857-2.3-4.693-2.31l-87.182-.54h-.038c-3.296 0-5.98 2.662-6 5.963-.02 3.313 2.65 6.017 5.964 6.037l84.273.52 29.915 38.363v150.28c0 3.314 2.687 6 6 6h55.518c3.313 0 6-2.686 6-6v-362.71c0-3.315-2.687-6-6-6zm-6 362.713h-43.518V460.695h43.518V811.41zM993.55 348.807c-2.035-2.616-5.804-3.085-8.42-1.05L696.567 572.27c-2.615 2.035-3.086 5.805-1.05 8.42 1.182 1.52 2.95 2.315 4.74 2.315 1.287 0 2.584-.412 3.68-1.265l288.562-224.514c2.614-2.034 3.085-5.804 1.05-8.42zM1018.004 335.78c1.288 0 2.585-.412 3.68-1.264l31.477-24.486c2.617-2.035 3.088-5.804 1.053-8.42-2.034-2.616-5.806-3.085-8.42-1.052l-31.476 24.486c-2.616 2.035-3.087 5.804-1.052 8.42 1.182 1.52 2.95 2.317 4.74 2.317z"/><path d="M973.065 563.955L826.15 678.272l-23.44-30.128c-.597-.77-1.374-1.38-2.26-1.78L654.522 580.31l54.7-42.56L1052.07 271.01l112.187 144.197-135.387 105.336c-2.615 2.035-3.086 5.804-1.05 8.42s5.803 3.084 8.42 1.05l140.12-109.02c2.615-2.034 3.086-5.803 1.05-8.418l-119.554-153.668c-.977-1.256-2.413-2.072-3.992-2.27-1.58-.198-3.172.242-4.428 1.22L701.853 528.282l-62.543 48.662c-1.66 1.29-2.52 3.355-2.273 5.442.248 2.087 1.57 3.893 3.484 4.76l153.63 69.536 26.212 33.693c.978 1.256 2.414 2.072 3.993 2.27.248.03.496.046.743.046 1.328 0 2.626-.44 3.685-1.265l151.652-118.002c2.615-2.035 3.086-5.805 1.05-8.42-2.035-2.615-5.805-3.082-8.42-1.05z"/><path d="M785.58 656.217c-24.522 16.655-58.025 10.257-74.682-14.264-4.81-7.076-7.888-15.274-8.902-23.71-.395-3.29-3.386-5.64-6.673-5.24-3.29.395-5.637 3.382-5.24 6.672 1.24 10.332 5.007 20.368 10.89 29.023 12.707 18.704 33.424 28.787 54.497 28.787 12.716 0 25.564-3.674 36.853-11.34 2.74-1.863 3.454-5.595 1.592-8.336-1.863-2.743-5.594-3.455-8.335-1.593zM1016.647 582.098l-40.682-52.29c-2.035-2.614-5.806-3.085-8.42-1.05-2.615 2.035-3.086 5.804-1.05 8.42l40.68 52.29c1.184 1.52 2.952 2.314 4.74 2.314 1.288 0 2.586-.412 3.68-1.265 2.617-2.034 3.088-5.804 1.052-8.42zM1038.19 565.338c1.183 1.52 2.952 2.315 4.74 2.315 1.287 0 2.585-.412 3.68-1.265 2.615-2.035 3.086-5.805 1.05-8.42l-40.68-52.283c-2.036-2.616-5.808-3.084-8.42-1.05-2.616 2.034-3.087 5.804-1.052 8.42l40.682 52.283z"/><path d="M967.193 527.085c6.9 0 13.433-2.243 18.898-6.49 13.39-10.433 15.81-29.816 5.39-43.212-5.88-7.552-14.748-11.883-24.327-11.883-6.898 0-13.428 2.242-18.885 6.485-13.398 10.427-15.818 29.814-5.392 43.22 5.875 7.55 14.738 11.88 24.317 11.88zm-11.557-45.627c3.33-2.59 7.313-3.958 11.518-3.958 5.853 0 11.268 2.645 14.856 7.253 6.358 8.175 4.88 20.007-3.287 26.372-3.334 2.59-7.32 3.96-11.53 3.96-5.85 0-11.26-2.642-14.845-7.25-6.364-8.18-4.888-20.015 3.288-26.377zM1048.138 569.588c-6.9 0-13.43 2.244-18.886 6.488-6.49 5.048-10.627 12.323-11.646 20.486-1.02 8.163 1.2 16.234 6.253 22.73 5.876 7.547 14.738 11.875 24.313 11.875 6.902 0 13.435-2.244 18.892-6.49 13.396-10.424 15.817-29.804 5.397-43.202-5.88-7.554-14.745-11.887-24.324-11.887zm11.558 45.62c-3.33 2.59-7.314 3.96-11.522 3.96-5.848 0-11.26-2.642-14.844-7.245-3.083-3.964-4.438-8.892-3.816-13.874.622-4.982 3.145-9.42 7.106-12.502 3.33-2.59 7.313-3.96 11.518-3.96 5.85 0 11.266 2.646 14.854 7.257 6.358 8.175 4.88 20-3.296 26.362z"/></g></svg>