<?xml version="1.0" encoding="utf-8"?>
<!-- Generator: Adobe Illustrator 18.1.1, SVG Export Plug-In . SVG Version: 6.00 Build 0)  -->
<svg version="1.1" id="Layer_1" xmlns="http://www.w3.org/2000/svg" xmlns:xlink="http://www.w3.org/1999/xlink" x="0px" y="0px"
	 viewBox="0 0 80.7 80.7" style="enable-background:new 0 0 80.7 80.7;" xml:space="preserve">
<style type="text/css">
	.st0{fill:#5A5A5A;}
	.st1{fill:none;}
</style>
<g>
	<g>
		<path class="st0" d="M64.2,46.3H48.3V35.7H16.4v28.2h21.2V51.6H43v12.3h21.2V46.3z M27.1,57h-5.3v-5.3h5.3V57z M27.1,46.3h-5.3V41
			h5.3V46.3z M43,46.3h-5.3V41H43V46.3z M58.9,57h-5.3v-5.3h5.3V57z"/>
	</g>
	<path class="st0" d="M50.9,20c-2.2,0-2.2-2.2-5.4-2.2c-1.6,0-3.2,0.5-4.4,1v-1c0-0.6-0.5-1.1-1.1-1.1c-0.6,0-1.1,0.5-1.1,1.1v18.5
		h2.2v-7.6c0,0,1.1-2.2,4.4-2.2c2.2,0,2.2,2.2,5.4,2.2c3.3,0,4.4-2.2,4.4-2.2v-8.7C55.3,17.9,54.2,20,50.9,20z M53.1,24.8
		c0,0,0,1.1-2.2,1.1s-3.3-2.2-5.4-2.2c-2.2,0-4.4,1.6-4.4,1.6v-3.6c0,0,2.2-1.4,4.4-1.4c2.2,0,3.3,2.2,5.4,2.2
		c1.1,0,2.2-0.5,2.2-0.5V24.8z"/>
</g>
<rect x="0" y="0.6" class="st1" width="80.7" height="80.7"/>
</svg>
