<svg xmlns="http://www.w3.org/2000/svg" width="750" height="750" viewBox="585 165 750 750"><path fill="#5A5B5B" d="M1295.963 447.26h-62.853V783.7h62.853c10.376 0 18.783-8.408 18.783-18.784V466.05c0-10.374-8.407-18.79-18.783-18.79zM864.826 443.65h45.94v7.22h-45.94zM1165.712 443.65h54.882v7.22h-54.882zM987.35 419.085h92.44v18.785h-92.44z"/><g fill="#5A5B5B"><path d="M1033.57 522.674c-28.96 0-52.52 23.558-52.52 52.513 0 8.526 2.097 17 6.062 24.503l.28.53c.726 1.33 1.527 2.666 2.36 3.926l.107.174c11.68 20.416 17.98 36.277 20.043 41.84h47.548c2.01-5.594 8.14-21.418 19.804-41.812l.11-.176c5.707-8.604 8.724-18.628 8.724-28.985.002-28.956-23.56-52.513-52.52-52.513z"/><path d="M923.283 447.26V783.7h229.903V447.26H923.283zm143.398 228.03c0 15.575-14.87 28.203-33.222 28.203-18.36 0-33.226-12.628-33.226-28.203v-1.014h66.448v1.014zm0-7.274h-66.447v-6.173h66.448v6.173zm15.96-60.47c-10.807 18.907-16.81 33.996-19.005 39.953h3.046v8.08h-66.447v-8.08h3.48c-2.284-6.003-8.46-21.134-19.237-39.985-1.017-1.542-1.986-3.18-2.887-4.872l-.367-.71c-4.21-8.232-6.434-17.462-6.434-26.746 0-32.407 26.367-58.774 58.78-58.774 32.412 0 58.78 26.367 58.78 58.774.002 11.557-3.356 22.744-9.71 32.358z"/></g><path fill="#5A5B5B" d="M831.73 296.3H631.515c-14.477 0-26.26 11.777-26.26 26.254v200.232c0 14.47 11.783 26.246 26.26 26.246h200.218c14.477 0 26.253-11.777 26.253-26.246V322.554c0-14.477-11.777-26.253-26.254-26.253zm0 242.57H631.515c-8.88 0-16.097-7.218-16.097-16.084V363.27h232.406v159.517c0 8.865-7.218 16.082-16.092 16.082z"/><g fill="#5A5B5B"><path d="M680.776 390.505h15.54v104.34H673.82v-81.252l-18.056 4.44-4.736-18.648 29.748-8.88zM761.587 496.622c-27.677 0-45.88-23.236-45.88-53.43s18.5-53.724 46.176-53.724c27.676 0 45.88 23.235 45.88 53.428 0 30.194-18.5 53.726-46.176 53.726zm0-86.582c-13.764 0-22.496 13.765-22.496 32.856 0 19.093 9.028 33.152 22.793 33.152 13.764 0 22.497-13.912 22.497-32.855 0-18.944-9.03-33.153-22.793-33.153z"/></g><path fill="#5A5B5B" d="M752.386 559.948v204.968c0 10.376 8.416 18.783 18.79 18.783h72.185V559.947h-90.974z"/></svg>