<svg id="Layer_1" xmlns="http://www.w3.org/2000/svg" viewBox="0 0 595.3 595.3"><style>.st0{fill:#5A5B5B;} .st1{fill:#FFFFFF;}</style><path class="st0" d="M249.4 193.3c-1 0-2-.6-2.5-1.4-.8-1.4-.3-3.2 1-3.9l55.3-32c.8-.5 1.8-.6 2.6-.1L369 186c1.4.7 2.1 2.4 1.4 3.8-.7 1.4-2.4 2.1-3.8 1.4l-61.8-29.7-53.9 31.3c-.5.3-1 .5-1.5.5zM568.1 254.6c-.3 0-.8-.1-1.2-.2l-149.6-68.7-84.7 43.9c-1.4.7-3.2.2-3.9-1.3-.7-1.5-.2-3.2 1.3-3.9l86-44.6c.8-.5 1.7-.5 2.5 0l150.8 69.3c1.4.7 2.1 2.4 1.4 3.8-.4 1.2-1.5 1.7-2.6 1.7z"/><path class="st0" d="M527.8 377.7h-94c-1.6 0-2.9-1.3-2.9-2.9V265.7h-49.2v108.2c0 1.6-1.3 2.9-2.9 2.9h-60.7c-1.6 0-2.9-1.3-2.9-2.9s1.3-2.9 2.9-2.9H376V262.8c0-1.6 1.3-2.9 2.9-2.9h54.9c1.6 0 2.9 1.3 2.9 2.9V372h88.1V248.5c0-1.6 1.3-2.9 2.9-2.9 1.6 0 2.9 1.3 2.9 2.9v126.3c.1 1.7-1.2 2.9-2.8 2.9z"/><g><path class="st0" d="M349.8 245.9l-156-74.7c-.8-.5-1.8-.3-2.6.1l-48.5 28.1c-7.7-25.7-31.5-44.6-59.6-44.6-34.3 0-62.3 28-62.3 62.3s28 62.3 62.3 62.3c2.1 0 4.1-.1 6.2-.3v95c0 1.6 1.3 2.9 2.9 2.9 1.6 0 3-1.3 2.9-3v-95.7c28.7-5.6 50.3-30.9 50.3-61.1 0-4-.5-8.1-1.2-11.9l48.6-28.2 154.6 74.2c.3.1.8.2 1.3.2 1 0 2.1-.6 2.5-1.7.6-1.5-.1-3.2-1.4-3.9zM139.7 217c0 31.3-25.4 56.8-56.8 56.8S26.2 248.3 26.2 217s25.4-56.8 56.8-56.8c31.2 0 56.7 25.5 56.7 56.8z"/><path class="st0" d="M302.3 245.6c-1.6 0-2.9 1.3-2.9 2.9V372h-75.9V262.8c0-1.6-1.3-2.9-2.9-2.9h-54.9c-1.6 0-2.9 1.3-2.9 2.9V371h-58.5c-1.6 0-2.9 1.3-2.9 2.9s1.3 2.9 2.9 2.9h61.4c1.6 0 2.9-1.3 2.9-2.9V265.7h49.2v109.2c0 1.6 1.3 2.9 2.9 2.9h81.6c1.6 0 3-1.3 2.9-2.9V248.5c0-1.6-1.3-2.9-2.9-2.9z"/></g><circle class="st1" cx="82.6" cy="217" r="56.8"/><g><path class="st0" d="M34.5 225.5l12-9.8c1.2-.9 2.1-1.7 2.9-2.5.8-.7 1.5-1.5 1.8-2.1.5-.7.9-1.4 1-2 .2-.6.3-1.4.3-2.1 0-1.5-.5-2.6-1.4-3.5-.9-.8-2.1-1.2-3.5-1.2-1.5 0-2.6.3-3.7 1.2-1 .8-2.3 2-3.6 3.7l-5.5-4.5c.9-1.3 1.8-2.3 2.6-3.2.9-.9 1.8-1.7 2.9-2.3 1-.6 2.2-1.2 3.5-1.5s2.6-.5 4.4-.5c1.8 0 3.5.2 5.1.8 1.5.6 2.9 1.3 3.9 2.3 1 1 1.8 2.1 2.5 3.5.6 1.4.9 2.9.9 4.6v.1c0 1.5-.2 2.9-.6 4s-1 2.3-1.7 3.3c-.8 1-1.7 2.1-2.9 3.1-1.3 1-2.6 2.2-4.1 3.5l-5.9 4.5h15.7v6.8H34.5v-6.2zM82.6 232.4c-2.4 0-4.6-.5-6.6-1.5-2-.9-3.7-2.3-5.1-3.9s-2.4-3.6-3.2-5.9c-.7-2.3-1.2-4.7-1.2-7.3v-.1c0-2.6.3-5.1 1.2-7.3.8-2.3 1.8-4.3 3.2-5.9 1.5-1.6 3.1-3 5.1-3.9 2-1 4.1-1.5 6.6-1.5 2.3 0 4.5.5 6.4 1.5 2 .9 3.7 2.3 5.1 3.9 1.4 1.6 2.4 3.6 3.2 5.9.8 2.3 1.2 4.7 1.2 7.3v.1c0 2.6-.3 5.1-1.2 7.3-.8 2.3-1.8 4.3-3.2 5.9-1.5 1.6-3.1 3-5.1 3.9-1.9.9-3.9 1.5-6.4 1.5zm.1-7.1c1.3 0 2.3-.2 3.2-.8 1-.6 1.7-1.4 2.4-2.3.7-1 1.3-2.2 1.5-3.6.3-1.4.6-2.9.6-4.5v-.1c0-1.6-.2-3.1-.6-4.5s-.9-2.6-1.6-3.6c-.7-1-1.5-1.8-2.5-2.4-1-.6-2.1-.9-3.2-.9-1.3 0-2.3.2-3.2.8-1 .6-1.7 1.4-2.4 2.3-.7 1-1.2 2.2-1.5 3.6s-.6 2.9-.6 4.5v.1c0 1.6.2 3.1.6 4.6s.9 2.6 1.6 3.6c.7 1 1.5 1.8 2.5 2.4.9.4 2 .8 3.2.8zM104.9 194.2h7.8v19.9l9.1-10h9.3l-10.5 10.8 10.8 16.7h-8.9l-7.3-11.3-2.8 2.9v8.4h-7.8l.3-37.4z"/></g></svg>