<svg xmlns="http://www.w3.org/2000/svg" width="750" height="750" viewBox="585 165 750 750"><path fill="#5A5B5B" d="M1088.267 218.255c-76.714 0-138.887 62.173-138.887 138.888 0 76.706 138.887 289.158 138.887 289.158s138.88-212.45 138.88-289.156c0-76.714-62.174-138.888-138.88-138.888zm0 219.266c-45.117 0-81.69-36.565-81.69-81.683 0-45.117 36.573-81.69 81.69-81.69 45.118 0 81.685 36.574 81.685 81.69 0 45.118-36.567 81.685-81.685 81.685z"/><path d="M1029.01 328.116V311.69h58.86v14.436l-22.024 21.03c11.945 1.992 23.395 8.214 23.395 24.517 0 16.55-11.943 28.623-31.36 28.623-15.68 0-26.505-6.223-33.973-15.06l13.19-12.568c5.975 6.72 12.198 10.454 21.034 10.454 7.22 0 12.32-4.106 12.32-10.702 0-7.218-6.097-11.2-17.05-11.2h-7.963l-2.986-12.195 20.78-20.908h-34.22zm95.45-17.05h13.065V398.8h-18.916v-68.32l-15.186 3.733-3.98-15.68 25.014-7.466zM1157.427 690.853h-154.855V587.596h-309.72v274.15H899.33v-119.28h51.62v119.28h206.477V690.852zM796.095 794.087h-51.62v-51.62h51.62v51.62zm0-103.234h-51.62v-51.636h51.62v51.636zm154.856 0h-51.62v-51.636h51.62v51.636zm154.865 103.234h-51.63v-51.62h51.63v51.62z" fill="#5A5B5B"/></svg>