<?xml version="1.0" encoding="utf-8"?>
<!-- Generator: Adobe Illustrator 18.0.0, SVG Export Plug-In . SVG Version: 6.00 Build 0)  -->
<!DOCTYPE svg PUBLIC "-//W3C//DTD SVG 1.1//EN" "http://www.w3.org/Graphics/SVG/1.1/DTD/svg11.dtd">
<svg version="1.1" id="Layer_1" xmlns="http://www.w3.org/2000/svg" xmlns:xlink="http://www.w3.org/1999/xlink" x="0px" y="0px"
	 viewBox="0 0 595.3 595.3" enable-background="new 0 0 595.3 595.3" xml:space="preserve">
<g>
	<path fill="#5B5B5B" d="M127.6,466.2V211.7c0-9.6,7.4-17,17-17h67.9v-67.9h169.7v67.9H450c9.6,0,17,7.4,17,17v254.5H331.2v-84.8
		h-67.9v84.8H127.6 M246.4,160.8v101.8h33.9v-33.9h33.9v33.9h33.9V160.8h-33.9v33.9h-33.9v-33.9H246.4 M161.5,432.3h67.9v-50.9
		h-67.9L161.5,432.3 M161.5,347.4h67.9v-50.9h-67.9L161.5,347.4 M365.1,432.3H433v-50.9h-67.9V432.3 M365.1,347.4H433v-50.9h-67.9
		V347.4 M263.3,347.4h67.9v-50.9h-67.9V347.4z"/>
</g>
</svg>
