<svg xmlns="http://www.w3.org/2000/svg" viewBox="0 0 595.3 595.3"><path fill="#5B5B5B" d="M301.1 97.3c-32.7 0-59.2 26.5-59.2 59.2 0 32.8 26.5 59.7 59.2 59.7s59.2-26.9 59.2-59.7c0-32.8-26.5-59.2-59.2-59.2zm-46.5 123.1c-52.7 9.4-90.4 19.5-90.4 49v6.8l.4 9.8c46.2-.1 94.5 17.6 136.4 33.2 42.4-15.9 91-34.1 137.7-33.7l-.4-9.4-.4-6.8c0-29.5-37.7-39.6-90.4-49-12.4 11-28.6 17.5-46.5 17.5-17.8.1-34-6.4-46.4-17.4zm-104 85.7c-2.5 0-4.8.3-7.2.4v120c43.5 2.2 88.1 12.6 150.9 35V340.2c-45.3-16.9-94.9-34.4-141.1-34.1h-2.6zm288.6 1.3c-43.4 1.9-89.1 17.2-131.3 32.8v121.3c62.7-22.4 107.4-32.7 150.9-35V307.4c-6.5-.4-13-.3-19.6 0z"/></svg>