<svg xmlns="http://www.w3.org/2000/svg" width="750" height="750" viewBox="0 0 750 750"><g fill="#5A5B5B"><path d="M673.796 555.558H493.45V504.05h138.54c2.02 0 3.845-1.22 4.618-3.088.774-1.867.347-4.018-1.084-5.447l-93.994-94h49.443c2.022 0 3.846-1.218 4.62-3.086.773-1.87.346-4.02-1.085-5.45l-93.988-93.99h49.442c2.022 0 3.846-1.218 4.62-3.086.773-1.87.346-4.02-1.085-5.45l-102.524-102.52c-1.95-1.95-5.12-1.95-7.07 0l-63.687 63.688c-1.953 1.953-1.953 5.12 0 7.07 1.95 1.953 5.12 1.953 7.07 0l60.15-60.15 90.454 90.45h-49.442c-2.022 0-3.846 1.217-4.62 3.085-.773 1.87-.346 4.02 1.085 5.45l93.988 93.987h-49.44c-2.02 0-3.845 1.22-4.62 3.087-.772 1.87-.345 4.02 1.086 5.45l93.994 94H488.45c-2.763 0-5 2.237-5 5v61.507c0 2.762 2.237 5 5 5h185.346c2.762 0 5-2.238 5-5s-2.238-5-5-5zm-294.55-180.81v137.75c0 2.762 2.237 5 5 5s5-2.238 5-5v-137.75c0-2.76-2.24-5-5-5s-5 2.24-5 5z"/><path d="M417.922 374.748v137.75c0 2.762 2.238 5 5 5s5-2.238 5-5v-137.75c0-2.76-2.238-5-5-5s-5 2.24-5 5zm18.358-15.528c0-2.76-2.237-5-5-5h-56.478c-2.762 0-5 2.24-5 5s2.238 5 5 5h56.48c2.76 0 5-2.238 5-5zM374.802 533.8h56.48c2.76 0 5-2.237 5-5s-2.24-5-5-5H374.8c-2.762 0-5 2.24-5 5s2.238 5 5 5zm23.242-159.052v137.75c0 2.762 2.238 5 5 5s5-2.238 5-5v-137.75c0-2.76-2.238-5-5-5s-5 2.24-5 5zm-184.277 0v137.75c0 2.762 2.24 5 5 5s5-2.238 5-5v-137.75c0-2.76-2.24-5-5-5s-5 2.24-5 5zm38.677 0v137.75c0 2.762 2.238 5 5 5s5-2.238 5-5v-137.75c0-2.76-2.238-5-5-5s-5 2.24-5 5zm18.36-15.528c0-2.76-2.24-5-5-5h-56.48c-2.76 0-5 2.24-5 5s2.24 5 5 5h56.48c2.76 0 5-2.238 5-5zm-61.48 174.58h56.48c2.76 0 5-2.237 5-5s-2.24-5-5-5h-56.48c-2.76 0-5 2.24-5 5s2.24 5 5 5zm23.242-159.052v137.75c0 2.762 2.238 5 5 5s5-2.238 5-5v-137.75c0-2.76-2.238-5-5-5s-5 2.24-5 5zm66.41 0v137.75c0 2.762 2.24 5 5 5s5-2.238 5-5v-137.75c0-2.76-2.237-5-5-5s-5 2.24-5 5zm38.678 0v137.75c0 2.762 2.238 5 5 5s5-2.238 5-5v-137.75c0-2.76-2.238-5-5-5s-5 2.24-5 5zm18.36-15.528c0-2.76-2.24-5-5-5h-56.48c-2.76 0-5 2.24-5 5s2.24 5 5 5h56.48c2.76 0 5-2.238 5-5zm-61.48 174.58h56.48c2.76 0 5-2.237 5-5s-2.24-5-5-5h-56.48c-2.763 0-5 2.24-5 5s2.24 5 5 5zm23.242-159.052v137.75c0 2.762 2.238 5 5 5s5-2.238 5-5v-137.75c0-2.76-2.238-5-5-5s-5 2.24-5 5zm-178.99 0v137.75c0 2.762 2.24 5 5 5s5-2.238 5-5v-137.75c0-2.76-2.24-5-5-5s-5 2.24-5 5zm38.677 0v137.75c0 2.762 2.24 5 5 5s5-2.238 5-5v-137.75c0-2.76-2.24-5-5-5s-5 2.24-5 5zm18.36-15.528c0-2.76-2.24-5-5-5h-56.48c-2.76 0-5 2.24-5 5s2.24 5 5 5h56.48c2.76 0 5-2.238 5-5zm-61.48 174.58h56.48c2.76 0 5-2.237 5-5s-2.24-5-5-5h-56.48c-2.76 0-5 2.24-5 5s2.24 5 5 5zm23.242-159.052v137.75c0 2.762 2.24 5 5 5s5-2.238 5-5v-137.75c0-2.76-2.24-5-5-5s-5 2.24-5 5zm-45.02-28.358h336.55c2.067 0 3.923-1.275 4.666-3.206.744-1.93.22-4.12-1.314-5.506L284.188 185.73c-1.902-1.72-4.8-1.72-6.7 0L109.214 337.678c-1.535 1.386-2.058 3.575-1.315 5.506.74 1.93 2.596 3.205 4.665 3.205zm168.27-86.232c13.566 0 24.885 9.802 27.245 22.695h-54.486c2.36-12.892 13.68-22.695 27.243-22.695zm-166.59 283.74c0 2.762 2.24 5 5 5h329.868c2.762 0 5-2.238 5-5s-2.238-5-5-5H119.245c-2.76 0-5 2.238-5 5zm349.87 11.66h-359.87c-2.76 0-5 2.238-5 5s2.24 5 5 5h359.87c2.76 0 5-2.238 5-5s-2.24-5-5-5z"/></g></svg>