<svg xmlns="http://www.w3.org/2000/svg" width="750" height="750" viewBox="0 0 750 750"><g fill="#5A5B5B"><path d="M235.44 583.607h36.71c.006-.002.014-.002.02 0 2.76 0 5-2.238 5-5 0-.178-.01-.354-.027-.525l-5.238-348.83c-.04-2.73-2.267-4.924-5-4.924h-26.22c-2.732 0-4.958 2.193-5 4.925l-5.243 349.278c-.02 1.34.497 2.632 1.438 3.585.938.955 2.22 1.492 3.56 1.492zM291.25 593.488c-.52-2.27-2.543-3.88-4.873-3.88h-61.48c-2.33 0-4.35 1.608-4.872 3.88l-10.49 45.703c-.34 1.485.015 3.044.963 4.235s2.39 1.885 3.91 1.885h82.457c.006-.002.015 0 .02 0 2.762 0 5-2.238 5-5 0-.545-.087-1.068-.247-1.56L291.25 593.49zM243.692 219.72h20.977c2.76 0 5-2.24 5-5 0-43.59 35.462-79.054 79.052-79.054 43.593 0 79.058 35.463 79.058 79.053 0 2.76 2.238 5 5 5h20.977c2.762 0 5-2.24 5-5 0-60.67-49.36-110.03-110.034-110.03-60.67 0-110.03 49.36-110.03 110.03 0 2.76 2.237 5 5 5zM407.74 257.204c0 2.76 2.238 5 5 5h61.45c2.762 0 5-2.24 5-5 0-19.7-16.025-35.728-35.723-35.728-19.7 0-35.727 16.028-35.727 35.728zM396.21 268.733c0 27.16 22.1 49.258 49.264 49.258 27.16 0 49.258-22.096 49.258-49.257 0-2.76-2.238-5-5-5h-88.52c-2.763 0-5 2.238-5 5zM181.26 415.168c-2.76 0-5 2.238-5 5v217.027c0 2.762 2.24 5 5 5s5-2.238 5-5V420.168c0-2.762-2.24-5-5-5zM631.848 406.162l-161.924-74.366c-2.51-1.152-5.48-.053-6.63 2.457-1.153 2.51-.053 5.478 2.456 6.63l161.924 74.367c.676.31 1.386.457 2.084.457 1.894 0 3.705-1.082 4.547-2.914 1.152-2.51.052-5.48-2.457-6.63zM370.915 286.318c-1.4-.644-3.023-.605-4.395.107l-81.533 42.407c-2.45 1.274-3.402 4.293-2.128 6.743.89 1.713 2.633 2.694 4.438 2.694.777 0 1.566-.183 2.304-.566l79.362-41.278 15.765 7.24c2.51 1.153 5.478.052 6.63-2.457 1.152-2.51.053-5.48-2.457-6.63l-17.988-8.262zM225.11 365.62c-1.274-2.45-4.294-3.403-6.743-2.13l-100.434 52.242c-2.45 1.275-3.403 4.293-2.13 6.744.892 1.71 2.636 2.693 4.44 2.693.778 0 1.567-.183 2.304-.567l100.435-52.24c2.45-1.274 3.402-4.293 2.128-6.743zM591.3 415.168c-2.763 0-5 2.238-5 5v213.584h-32.506v-188.87c0-2.763-2.238-5-5-5h-95.04c-2.76 0-5 2.237-5 5v187.313H337.052c-2.76 0-5 2.238-5 5s2.24 5 5 5h116.705c2.762 0 5-2.238 5-5V449.88h85.04v188.872c0 2.762 2.237 5 5 5h42.504c2.76 0 5-2.238 5-5V420.168c0-2.762-2.24-5-5-5z"/></g></svg>