<svg xmlns="http://www.w3.org/2000/svg" width="750" height="750" viewBox="585 165 750 750"><g fill="#5A5B5B"><path d="M694.174 439.36l-16.162-.002-47.737 55.32 3.108 13.55h42.515v18.773h18.275v-18.77h11.686v-15.54h-11.687v-53.33zm-18.276 53.33h-23.12l23.12-27.1v27.1zM784.176 460.37H761.55l-22.128 24.24v-48.36h-18.897V527h18.897V506.74l6.59-6.962L763.413 527h21.632l-26.23-40.4"/><path d="M834.63 458.42c0-67.26-54.725-121.982-121.99-121.982-67.263 0-121.985 54.72-121.985 121.983 0 67.27 54.722 121.996 121.984 121.996 67.265 0 121.99-54.727 121.99-121.995zM712.64 568.417c-60.647 0-109.985-49.343-109.985-109.995 0-60.644 49.338-109.982 109.984-109.982 60.647 0 109.99 49.338 109.99 109.983 0 60.653-49.342 109.996-109.99 109.996zM974.552 586.544c-46.416 3.84-88.894 13.554-119.608 27.35-30.734 13.803-47.783 30.786-48.083 47.872-.02.203-.03.405-.03.6 0 3.314 2.685 6 6 6 2.955 0 5.41-2.136 5.908-4.95.077-.396.12-.81.12-1.19 0-11.88 15.327-25.855 41.002-37.386 28.863-12.964 68.804-22.195 112.745-26.084 15.658 16.602 37.735 26.964 42.114 28.918 2.247 1.03 4.804 1.592 7.253 1.546 2.43-.018 4.773-.537 6.918-1.52 4.432-1.976 26.505-12.324 42.18-28.945 43.938 3.888 83.88 13.12 112.742 26.084 25.676 11.53 41.005 25.506 41.005 37.384 0 .374.033.74.1 1.108.46 2.855 2.938 5.035 5.923 5.035 3.313 0 6-2.687 6-6 0-.19-.01-.38-.025-.566-.277-17.096-17.33-34.094-48.085-47.908-30.715-13.795-73.192-23.507-119.607-27.348-1.91-.158-3.756.596-5.008 2.025-14.373 16.406-37.518 27.014-40.165 28.194-.683.313-1.452.453-2.185.456-.71-.01-1.416-.167-2.097-.48-2.594-1.157-25.752-11.783-40.108-28.17-1.253-1.43-3.112-2.183-5.008-2.026z"/><path d="M1019.094 589.522c.855.437 1.79.654 2.725.654.94 0 1.88-.222 2.742-.664 6.65-3.42 39.835-21.444 39.835-40.61v-41.75c0-1.805-.813-3.514-2.213-4.654s-3.24-1.587-5.006-1.22l-34.29 7.112c-.676.146-1.394.146-2.115-.01l-34.242-7.103c-1.764-.366-3.604.082-5.006 1.22-1.4 1.14-2.213 2.85-2.213 4.655v41.75c0 19.772 35.71 38.545 39.784 40.62zm-27.782-74.997l26.98 5.597c2.326.5 4.79.5 7.076.01l27.028-5.607V548.9c0 6.95-12.965 18.94-30.585 28.495-17.05-9.236-30.5-21.69-30.5-28.494l.002-34.375z"/><path d="M1328.173 641.712l-41.706-108.06c-1.878-4.903-5.82-8.644-10.796-10.255l-248.433-81.555c-3.476-1.126-7.305-1.127-10.804.007L840.7 499.523c-3.148 1.033-4.863 4.423-3.83 7.572 1.034 3.148 4.423 4.864 7.572 3.83l175.71-57.667c1.078-.35 2.31-.35 3.364-.008l248.435 81.555c1.53.496 2.736 1.64 3.316 3.153l41.713 108.08c.866 2.24.18 4.723-1.714 6.184l-64.816 50.062c-1.47 1.137-2.332 2.89-2.332 4.75v15.012c-34.894-31-67.574-51.183-102.03-63.12-33.694-11.672-69.69-16.433-124.247-16.433-50.736 0-98.395 7.33-137.82 21.2-37.903 13.332-67.575 32.2-88.466 56.21v-12.87c0-1.857-.86-3.61-2.332-4.747l-64.785-50.055c-1.865-1.447-2.573-3.993-1.72-6.197l21.212-54.962c1.192-3.092-.347-6.564-3.44-7.758-3.092-1.194-6.564.347-7.757 3.438l-21.21 54.956c-2.75 7.105-.465 15.33 5.567 20.012l62.463 48.26v23.62l-.005.14c-.01.212-.017.424-.017.65v3.175c0 2.638 1.724 4.966 4.246 5.737.58.178 1.17.263 1.754.263 1.957 0 3.837-.96 4.974-2.644 37.07-54.926 119.93-86.428 227.336-86.428 92.7 0 150.488 12.8 228.177 85.53 1.745 1.633 4.297 2.075 6.487 1.124 2.194-.952 3.613-3.115 3.613-5.506v-25.662l62.482-48.26c6.038-4.66 8.33-12.89 5.573-20.01zM737.37 385.982h-18.545v-18.55h-12.36v18.55h-18.55v12.362h18.55v18.55h12.36v-18.55h18.544"/></g></svg>