<svg id="Layer_1" xmlns="http://www.w3.org/2000/svg" viewBox="0 0 595.3 841.9"><style>.st0{fill:#5A5C5C;}</style><path class="st0" d="M372.6 638.3c-9.6 0-19.1-1.5-28.4-4.4l-121.3-38.6c-49-15.6-76-68.1-60.6-117.3 9-28.2 30.7-50.2 58.9-59.8.6-.3 1.2-.6 2.1-.6 2.3-.9 5-1.5 7.3-2.1 15.1-5.2 22.4-16.8 24.7-21.8l1.2-2.7c.3-.6.6-1.2.9-1.7 15.6-31.3 48.2-51.7 83.3-51.7 9.6 0 19.1 1.5 28.2 4.4 43.6 13.9 70.8 58 63.8 103.2 0 .6 0 1.5-.3 2.1-.3 1.5-.6 2.7-.9 3.8-.9 5.6-.9 18 9 30.1 0 0 .6.6.9 1.2l1.2 1.5.6.6c.9.6 1.7 1.7 2.3 2.7 19.1 24.3 24.9 56.3 15.6 85.9-11.9 39.1-47.6 65.2-88.5 65.2zm-145.2-206h-.3c-23.8 7.9-42.4 26.6-49.9 50.2-13.1 40.9 9.6 84.7 50.5 97.8L349 618.8c7.9 2.3 15.6 3.8 23.8 3.8 33.9 0 63.8-21.8 74.3-54.2 8.1-25.3 2.9-52.5-13.9-73.1v-.3c-.3-.6-.9-.9-1.2-1.5l-2.3-2.7c-13.9-17.4-13.9-34.2-12.5-43 .3-1.5.6-2.7.6-3.5v-.6-.6c6.4-38-16.2-75.4-53.1-87.4-7.5-2.3-15.6-3.8-23.5-3.8-29.5 0-57.1 17.4-70.2 44.1 0 .3-.3.3-.3.6 0 0 0 .3-.3.3l-.9 2.1c-3.5 7-13.3 22.6-33.9 29.9-.3 0-.6.3-.9.3-2.5 1.7-4.8 2.3-7.3 3.1.4 0 .4 0 0 0zM210.6 398.3c-24.1 0-43.6-24.7-44.7-56.3-1.2-31.9 17.7-58.6 41.8-59.4h1.2c24.1 0 43.6 24.7 44.7 56.3.6 15.1-3.2 29.3-10.8 40.3-7.9 11.9-18.9 18.5-31.3 18.9l-.9.2zM209.2 298c-16.2.6-28.4 20.6-27.8 43.6.9 22.9 13.9 41.5 29.3 41.5h.6c7.3-.3 13.9-4.6 18.9-12.2 5.6-8.5 8.5-19.5 8.1-31.3-.7-23.1-13.8-41.6-29.1-41.6zM318.3 329.8c-2.3 0-4.4-.3-6.7-.6-14.5-2.3-27-11.9-34.8-27-7.5-14.5-9.8-32.2-7.3-50.2 5.6-34.8 30.1-60.9 57.1-60.9 2.3 0 4.4.3 6.7.6 14.5 2.3 27 11.9 34.8 27 7.5 14.5 9.8 32.2 7.3 50.2-5.5 34.6-29.8 60.9-57.1 60.9zm8.7-123.2c-19.1 0-37.8 21.2-42.1 48.2-2.3 14.8-.3 29.3 5.6 40.7 5.6 10.8 13.9 17.4 23.5 18.9 20.9 3.2 41.5-18.9 46.1-47.6 2.3-14.8.3-29.3-5.6-40.7-5.6-10.8-13.9-17.4-23.5-18.9-1.1-.6-2.5-.6-4-.6zM490.3 490.7c-7.5 0-14.8-2.1-20.6-6.1-10.2-6.7-16-18-16.8-31.9-.6-13.1 3.5-27 11.4-38.9 11.6-17.4 29.5-28.2 47-28.2 7.5 0 14.8 2.1 20.6 6.1 10.2 6.7 16 18 16.8 31.9.6 13.1-3.5 27-11.4 38.9-11.5 17.4-29.6 28.2-47 28.2zm21.2-89.7c-12.2 0-25.5 8.5-34.2 21.2-6.4 9.3-9.3 19.7-9 29.5.6 9 4.1 16 10.2 20 3.5 2.3 7.5 3.5 12.2 3.5 12.2 0 25.5-8.5 34.2-21.2 6.4-9.3 9.3-19.7 9-29.5-.6-9-4.1-16-10.2-20-3.7-2.4-7.8-3.5-12.2-3.5zM449.4 369c-7.9 0-15.1-1.7-21.8-5.6-12.7-7.3-21.2-20-23.5-36.6-2.3-15.6 1.2-32.8 9.8-48.4 13.1-23.5 35.7-38.6 57.7-38.6 7.9 0 15.1 1.7 21.8 5.6 25.8 14.3 31.9 52.5 13.9 85-12.9 23.5-35.9 38.6-57.9 38.6zm22.4-113.7c-16.6 0-33.9 11.9-44.4 30.7-7 12.5-9.8 26.1-7.9 38.6 1.7 11.6 7.3 20.6 16 25.5 4.4 2.3 9 3.5 14.3 3.5 16.6 0 33.9-12.2 44.4-30.7 13.9-25.3 10.4-54-7.9-64.1-4.7-2.3-9.3-3.5-14.5-3.5z"/><g><path class="st0" d="M347 719.3C183.6 719.3 50.7 586.4 50.7 423S183.6 126.9 347 126.9s296.3 132.9 296.3 296.3S510.1 719.3 347 719.3zm0-577.1C192.1 142.2 66.2 268.1 66.2 423S192.1 703.8 347 703.8 627.8 577.9 627.8 423 501.7 142.2 347 142.2z"/></g><g><path class="st0" d="M347 759C161.9 759 11 608.4 11 423S161.6 87 347 87s336 150.6 336 336-150.9 336-336 336zm0-656.6C170.3 102.4 26.4 246.3 26.4 423S170.3 743.6 347 743.6 667.6 599.7 667.6 423c-.2-176.7-143.9-320.6-320.6-320.6z"/></g></svg>