<svg xmlns="http://www.w3.org/2000/svg" viewBox="0 0 595.3 595.3"><g fill="#5B5B5B"><path d="M295.9 265.3c-13.9 0-24.8 10.9-24.8 24.8s10.9 24.8 24.8 24.8 24.8-10.9 24.8-24.8c0-14-10.9-24.8-24.8-24.8zm0 95.6c-13.9 0-24.8 10.9-24.8 24.8s10.9 24.8 24.8 24.8 24.8-10.9 24.8-24.8-10.9-24.8-24.8-24.8z"/><path d="M363.8 302.4l32.9-32.4c4.3-4.3 1.3-12-5.1-12h-23.1c-3.4 0-6.4-3-6.4-6.4v-39.7c0-1.7.9-3.4 1.7-4.3l32.4-32.4c4.3-4.3 1.3-12-5.1-12h-22.6c-3.4 0-6.4-3-6.4-6.4v-22.6c0-4.7-3.8-8.5-8.5-8.5H237.8c-4.7 0-8.5 3.8-8.5 8.5v22.6c0 3.4-3 6.4-6.4 6.4h-23.5c-6.4 0-9.4 7.7-5.1 12l32.4 32.4c1.3 1.3 1.7 2.6 1.7 4.3v39.7c0 3.4-3 6.4-6.4 6.4h-23.5c-6.4 0-9.4 7.7-5.1 12l32.4 32.4c1.3 1.3 1.7 2.6 1.7 4.3v39.7c0 3.4-3 6.4-6.4 6.4h-23.5c-6.4 0-9.4 7.7-5.1 12l32.4 32.4c1.3 1.3 1.7 2.6 1.7 4.3V439c0 4.7 3.8 8.5 8.5 8.5h116.1c4.7 0 8.5-3.8 8.5-8.5v-37.6c0-1.7.9-3.4 1.7-4.3l32.4-32.4c4.3-4.3 1.3-12-5.1-12h-20.5c-3.4 0-6.4-3-6.4-6.4v-39.7c.3-1.6 1.1-3.3 2-4.2zm-67.9 120.9c-20.9 0-37.6-16.6-37.6-37.6 0-20.9 16.6-37.6 37.6-37.6s37.6 16.6 37.6 37.6c0 20.9-16.7 37.6-37.6 37.6zm0-95.7c-20.9 0-37.6-16.6-37.6-37.6 0-20.9 16.6-37.6 37.6-37.6s37.6 16.6 37.6 37.6-16.7 37.6-37.6 37.6zm0-90.8c-23.6 0-42.4-18.8-42.4-42.4 0-23.6 18.8-42.4 42.4-42.4 23.6 0 42.4 18.8 42.4 42.4 0 23.6-18.8 42.4-42.4 42.4z"/></g></svg>