<svg xmlns="http://www.w3.org/2000/svg" width="750" height="750" viewBox="585 165 750 750"><g fill="#5A5B5B"><path d="M1310.77 726.64h-268.604v-47.966H1176.1c2.427 0 4.614-1.462 5.543-3.704s.416-4.822-1.3-6.538l-89.713-89.713h45.485c2.427 0 4.614-1.463 5.543-3.705s.416-4.822-1.3-6.54l-89.706-89.7h45.484c2.427 0 4.614-1.46 5.543-3.703s.415-4.823-1.302-6.54l-99.95-99.942c-2.34-2.343-6.142-2.343-8.483 0L976.2 384.334c-2.343 2.343-2.343 6.142 0 8.485 2.343 2.342 6.144 2.342 8.485 0l11.502-11.502 85.463 85.458h-45.484c-2.427 0-4.614 1.462-5.543 3.704s-.416 4.823 1.3 6.54l89.706 89.7h-45.485c-2.427 0-4.614 1.462-5.543 3.704s-.416 4.822 1.3 6.538l89.713 89.713h-125.448c-3.313 0-6 2.687-6 6v59.965c0 3.313 2.687 6 6 6h274.605c3.313 0 6-2.687 6-6s-2.687-6-6-6z"/><path d="M1079.596 643.78c.93-2.242.416-4.822-1.3-6.538l-89.708-89.713h45.48c2.427 0 4.614-1.463 5.543-3.705.93-2.24.417-4.822-1.3-6.54l-89.7-89.705h45.48c2.427 0 4.614-1.462 5.543-3.704s.415-4.823-1.3-6.54l-99.95-99.936c-2.343-2.343-6.142-2.343-8.484 0l-99.95 99.938c-1.716 1.716-2.23 4.296-1.3 6.54s3.116 3.703 5.542 3.703h45.485L749.97 537.29c-1.716 1.716-2.23 4.296-1.3 6.54s3.116 3.703 5.542 3.703h45.485l-89.712 89.714c-1.716 1.716-2.23 4.296-1.3 6.538s3.116 3.704 5.542 3.704H848.16v79.154H609.23c-3.314 0-6 2.687-6 6s2.686 6 6 6h244.933c3.314 0 6-2.687 6-6v-91.154c0-3.313-2.686-6-6-6h-125.45l89.713-89.713c1.716-1.716 2.23-4.296 1.3-6.538s-3.116-3.704-5.542-3.704H768.7l89.706-89.706c1.716-1.716 2.23-4.297 1.3-6.54-.928-2.24-3.116-3.703-5.542-3.703H808.68l85.463-85.452 85.463 85.453h-45.48c-2.426 0-4.614 1.463-5.542 3.705-.93 2.242-.415 4.823 1.3 6.54l89.703 89.706h-45.48c-2.427 0-4.614 1.463-5.543 3.705-.93 2.243-.416 4.823 1.3 6.54l89.708 89.712H934.125c-3.314 0-6 2.687-6 6v96.873c0 3.313 2.686 6 6 6 3.313 0 6-2.687 6-6v-90.873h133.928c2.426-.003 4.614-1.465 5.543-3.707z"/><path d="M969.557 660.164c-3.313 0-6 2.687-6 6v72.193c0 3.313 2.687 6 6 6s6-2.687 6-6v-72.193c0-3.313-2.687-6-6-6z"/></g></svg>