<svg id="Layer_1" xmlns="http://www.w3.org/2000/svg" viewBox="0 0 595.3 595.3"><style>.st0{fill:none;} .st1{fill:#5A5B5B;}</style><path class="st0" d="M297.7 389.8"/><path class="st1" d="M499.7 146.8c-.3 0-.6-.1-.9-.1H96.6c-3.6 0-6.5 3.2-6.5 7 0 3.9 2.9 7 6.5 7H498.8c.3 0 .6-.1.9-.1 3.2-.5 5.7-3.4 5.7-6.9-.1-3.5-2.5-6.4-5.7-6.9zM297.3 314.9l.8.1c-.3 0-.5 0-.8-.1zM297.3 301c.3.1.5 0 .8 0h-.8z"/><path class="st0" d="M487.2 160.8c-.2 0-.5 0-.7-.1-2.7-.4-4.8-3.2-4.8-6.5s2.1-6.1 4.8-6.5c.2 0 .5-.1.7-.1h6.2L317.8 57l-.1.3-10.2-5.3c-1.2-.1-3 .1-3 2.5v26.3c11.6 2.9 20.3 13.5 20.3 26 0 14.8-12 26.9-26.9 26.9-14.8 0-26.9-12-26.9-26.9 0-12.5 8.6-23.1 20.3-26v-1.4l-.6 1.4V54.5c0-2.5-1.8-2.7-3-2.5l-185.1 95.7H108.7c.2 0 .4 0 .6.1 2.7.4 4.8 3.2 4.8 6.5s-2.1 6.1-4.8 6.5c-.2 0-.4.1-.6.1H95v13.8H500.7v-13.8l-13.5-.1z"/><path class="st0" d="M284.3 107c0 7.5 6.1 13.7 13.7 13.7 7.5 0 13.7-6.1 13.7-13.7 0-7.5-6.1-13.7-13.7-13.7-7.5 0-13.7 6.1-13.7 13.7z"/><path class="st1" d="M508.5 140.7c-6.3-3.3-202.2-104.5-206.4-106.5-2.3-1.2-3.4-1.7-4.5-1.6-1.1-.1-2.1.4-4.5 1.6C289 36.3 93 137.5 86.7 140.7c-6.7 3.5-5.5 10.6-5.5 10.6v28.6s-.1 8 6.2 8H507.7c6.3 0 6.2-8 6.2-8v-28.6c.1 0 1.4-7.2-5.4-10.6zM298 93.3c7.5 0 13.7 6.1 13.7 13.7 0 7.5-6.1 13.7-13.7 13.7-7.5 0-13.7-6.1-13.7-13.7s6.2-13.7 13.7-13.7zm202.9 81.4H95.1v-13.8h13.7c.2 0 .4 0 .6-.1 2.7-.4 4.8-3.2 4.8-6.5s-2.1-6.1-4.8-6.5c-.2 0-.4-.1-.6-.1h-6.1L288 52.1c1.2-.1 3 .1 3 2.5v26.3l.6-1.4v1.4c-11.6 2.9-20.3 13.5-20.3 26 0 14.8 12 26.9 26.9 26.9 14.8 0 26.9-12 26.9-26.9 0-12.5-8.6-23.1-20.3-26V54.6c0-2.5 1.8-2.7 3-2.5l10.2 5.3.1-.3 175.3 90.6h-6.2c-.3 0-.5 0-.7.1-2.7.4-4.8 3.2-4.8 6.5s2.1 6.1 4.8 6.5c.2 0 .5.1.7.1h13.7v13.8z"/><g><path class="st1" d="M511 377.6V202.7c0-3.6-2.9-6.5-6.5-6.5H90.8c-3.6 0-6.5 2.9-6.5 6.5v174.9c-4 2.1-6.7 6.3-6.7 11.2v13.3c0 4.8 2.7 9.1 6.7 11.2v141.2c0 3.6 2.9 6.5 6.5 6.5H504.4c3.6 0 6.5-2.9 6.5-6.5V413.2c4-2.1 6.7-6.3 6.7-11.2v-13.3c.2-4.8-2.6-9-6.6-11.1zm-15.3-168.5c-2.6 3.8-7.4 8.3-14.9 13-.1.1-.2.1-.3.2-.4.3-.9.5-1.3.8-.2.1-.4.3-.6.4-.3.2-.7.4-1.1.6-.3.2-.6.3-.9.5-.3.2-.6.3-.9.5-.4.2-.7.4-1.1.6-.1 0-.1.1-.2.1-.9.5-1.9 1-2.9 1.5-.3.1-.5.3-.8.4l-1.2.6s-.7.4-1.1.5c-.3.2-.7.3-1.1.5-.5.2-.9.4-1.4.6-.3.1-.6.3-.9.4-.6.3-1.3.6-1.9.9-.1.1-.3.1-.4.2-2.6 1.2-5.4 2.3-8.4 3.5-3.9 1.5-8 3-12.4 4.4-11.9 3.9-24.8 7.4-38.4 10.2-.2 0-.4.1-.6.1-12.9 2.7-26.4 4.9-40.2 6.6-.2 0-.3.1-.5.1-20.8 2.5-42.5 3.8-64.5 3.8-21.9 0-43.7-1.3-64.5-3.8-.2 0-.3-.1-.5-.1-13.8-1.7-27.4-3.9-40.2-6.6-.2 0-.4-.1-.6-.1-13.6-2.9-26.4-6.3-38.4-10.2-4.4-1.5-8.5-2.9-12.4-4.4-3-1.2-5.8-2.3-8.4-3.5-.1-.1-.3-.1-.4-.2-.7-.3-1.3-.6-1.9-.9-.3-.1-.6-.3-.9-.4-.5-.2-.9-.4-1.4-.6-.4-.2-.7-.3-1.1-.5s-.7-.4-1.1-.5l-1.2-.6c-.3-.1-.5-.3-.8-.4-1-.5-1.9-1-2.9-1.5-.1 0-.2-.1-.2-.1-.4-.2-.7-.4-1.1-.6-.3-.2-.6-.3-.9-.5s-.6-.3-.9-.5c-.4-.2-.7-.4-1.1-.6-.2-.1-.4-.3-.6-.4-.5-.3-.9-.5-1.3-.8-.1-.1-.2-.1-.3-.2-7.6-4.7-12.3-9.2-14.9-13h396zM97.3 225.5c2 1.7 4.3 3.5 6.9 5.3 6.9 4.7 16 9.7 28.1 14.6 0 40.6-11.8 85.7-22 116.9-1.1 3.4.8 7 4.1 8.1 3.4 1.1 7-.8 8.1-4.1 10-30.9 21.7-75.1 22.5-116.1 1.4.5 2.8 1 4.3 1.4 10.5 3.5 21.7 6.6 33.5 9.2-13.6 42.3-35.9 77.2-52.6 99.5-2.1 2.9-1.6 6.9 1.3 9 1.2.9 2.5 1.3 3.9 1.3 2 0 3.9-.9 5.2-2.6 17.4-23.3 40.8-59.9 54.9-104.6 8.9 1.7 18 3.3 27.4 4.5-13.7 33.5-41 68-62.3 91.8-2.4 2.7-2.2 6.7.5 9.1s6.7 2.2 9.1-.5c39.7-44.3 57.8-77.5 66-98.8 19.9 2.2 40.6 3.4 61.5 3.4s41.5-1.1 61.5-3.4c14 36.3 43.3 73.5 66 98.8 2.4 2.7 6.5 2.9 9.1.5 2.7-2.4 2.9-6.5.5-9.1-21.3-23.8-48.7-58.3-62.4-91.9 9.3-1.3 18.5-2.8 27.4-4.5 14.2 44.7 37.6 81.4 55 104.7 1.3 1.7 3.2 2.6 5.2 2.6 1.3 0 2.7-.4 3.9-1.3 2.9-2.1 3.4-6.2 1.3-9-16.7-22.3-39-57.2-52.7-99.6 11.7-2.7 23-5.8 33.5-9.2 1.5-.5 2.9-1 4.3-1.4.9 40.9 12.5 85.1 22.5 116 1.1 3.4 4.7 5.2 8.1 4.2 3.4-1.1 5.2-4.7 4.1-8.1-10.1-31.2-21.9-76.3-21.9-116.8 12.1-4.9 21.3-9.9 28.1-14.6 2.6-1.8 4.9-3.5 6.9-5.3v150.6h-35.8c-7 0-12.6 5.7-12.6 12.6V402c0 3.4 1.4 6.5 3.6 8.8-3.9 11.9-8.6-.2-13 15.9h-285c-4.5-16.2-9.1-4-13-15.9 2.2-2.3 3.6-5.4 3.6-8.8v-13.3c0-7-5.7-12.6-12.6-12.6H97.5V225.5h-.2zm-6.7 176.3v-12.7h42.3v12.7H90.6zm33.2 144.1c-.7 1.3-2.1 2.1-3.6 2.1H97.3V414.7h6.2c23.5 79.6 31.1 111.5 20.3 131.2zm31.6 2.1v-35.6c0-7.7 6.2-13.9 13.9-13.9h33.5c7.7 0 13.9 6.2 13.9 13.9V548h-61.3zm74.3 0v-35.6c0-7.7 6.2-13.9 13.9-13.9h33.5c7.7 0 13.9 6.2 13.9 13.9V548h-61.3zm74.3 0v-35.6c0-7.7 6.2-13.9 13.9-13.9h33.5c7.7 0 13.9 6.2 13.9 13.9V548H304zm135.6 0h-61.4v-35.6c0-7.7 6.2-13.9 13.9-13.9h33.6c7.7 0 13.9 6.2 13.9 13.9V548zm13 0v-35.6c0-14.8-12-26.8-26.8-26.8h-33.5c-8.1 0-15.4 3.7-20.4 9.4-4.9-5.7-12.2-9.4-20.4-9.4H318c-8.1 0-15.4 3.7-20.4 9.4-4.9-5.7-12.2-9.4-20.4-9.4h-33.5c-8.1 0-15.4 3.7-20.4 9.4-4.9-5.7-12.2-9.4-20.4-9.4h-33.5c-14.8 0-26.8 12-26.8 26.8V548h-5.5c13.1-33.1-5.6-83.7-20.1-133.3h12.9c6.1 18.5 14.1 17.6 20.2 44.1.8 3.5 4.3 5.6 7.7 4.8 3.5-.8 5.6-4.3 4.8-7.7-1.3-5.4-2.6-10.8-4-16.1h278.1c-1.4 5.4-2.7 10.8-4 16.3-.8 3.5 1.4 6.9 4.8 7.7.5.1 1 .2 1.5.2 2.9 0 5.6-2 6.3-5 6.1-26.6 14.1-25.7 20.2-44.2h12.9C464 464.4 445.3 515 458.3 548.1l-5.7-.1zm45.5 0h-22.9c-1.5 0-2.9-.8-3.6-2.1-10.8-19.6-3.2-51.6 20.3-131.2h6.2V548zm6.7-146.2h-42.3v-12.7h42.3v12.7z"/></g></svg>