<!DOCTYPE svg PUBLIC "-//W3C//DTD SVG 1.1//EN" "http://www.w3.org/Graphics/SVG/1.1/DTD/svg11.dtd" [
	<!ENTITY ns_flows "http://ns.adobe.com/Flows/1.0/">
]><svg xmlns="http://www.w3.org/2000/svg" width="300" height="300" viewBox="-47.722 -49.023 300 300"><path fill="#5B5B5B" d="M188.75 132.47l28.38 51.198h-30.998l-20.277-51.197M51.302 132.47L31.034 183.67H0l28.38-51.197M149.25 159.205c-1.894 1.218-4.1 1.808-6.37 1.808-3.405 0-6.645-1.512-8.89-4.082l-13.247-15.077 3.32 42.125h31.034l-5.848-24.773z"/><circle fill="#5A5B5B" cx="97.761" cy="14.272" r="14.272"/><path fill="#5A5B5B" d="M149.153 143.69l-21.9-24.988-9.975-21.694v-44.43c10 10.407 11.15 27.46 11.188 27.824.396 4.318 4.09 7.562 8.345 7.562.25 0 .534-.012.79-.035 4.575-.408 7.97-4.454 7.56-9.03-.152-1.705-4.096-41.877-35.013-49.676-.84-.215-1.685-.28-2.522-.23-1.642 1.104-3.48 1.922-5.448 2.43L53.22 73.32c-3.49 2.99-3.9 8.242-.908 11.734 2.985 3.49 8.325 3.9 11.823.908l24.143-20.58V96.67c-21 24.964-23.038 55.54-23.13 57.04-.274 4.583 3.157 8.51 7.736 8.802.18.012.334.016.51.016 4.348 0 7.998-3.385 8.285-7.78.02-.323 2.105-28.65 21.23-49.753l9.832 21.69c.33.735.77 1.42 1.3 2.03L136.6 154.62c3.026 3.466 8.272 3.825 11.74.812 3.465-3.02 3.828-8.277.813-11.742z"/><path fill="#5B5B5B" d="M85.12 154.725c-.403 6.177-5.564 11.14-11.75 11.14-.25 0-.504.055-.753.038-2.19-.14-4.198-.7-5.89-1.863l-4.694 19.938h31.034l4.05-52H90.53c-4.618 13-5.4 22.586-5.41 22.747z"/></svg>